<svg width="279" height="211" viewBox="0 0 279 211" fill="none" xmlns="http://www.w3.org/2000/svg">
<rect x="-2" y="-6" width="285" height="217" fill="#47FEBC" fill-opacity="0.3"/>
<mask id="mask0" mask-type="alpha" maskUnits="userSpaceOnUse" x="-2" y="-6" width="285" height="217">
<rect x="-2" y="-6" width="285" height="217" fill="#47FEBC" fill-opacity="0.1"/>
</mask>
<g mask="url(#mask0)">
<ellipse cx="30.1425" cy="189.621" rx="70.7143" ry="70.5517" fill="#056644"/>
<ellipse cx="200.5" cy="89.1382" rx="70.7143" ry="70.5517" fill="#056644"/>
</g>
<path d="M52.5683 175.213L194.266 175.213V156.911L52.5683 156.911V175.213Z" fill="#056644"/>
<path d="M155.472 175.213H158.576V156.911H155.472V175.213Z" fill="#05AC72"/>
<path d="M147.224 175.213H150.327V156.911H147.224V175.213Z" fill="#05AC72"/>
<path d="M96.792 175.213H99.8955V156.911H96.792V175.213Z" fill="#05AC72"/>
<path d="M138.69 175.213H141.793V156.911H138.69V175.213Z" fill="#05AC72"/>
<path d="M199.003 86.6543H28.9248V124.655H199.003C204.014 124.644 208.817 122.639 212.36 119.078C215.904 115.517 217.899 110.691 217.91 105.655V105.655C217.91 100.615 215.918 95.7826 212.372 92.2194C208.826 88.6561 204.017 86.6543 199.003 86.6543V86.6543Z" fill="#3BFEB8"/>
<path d="M28.9248 118.951H199.248C202.757 118.951 206.122 117.55 208.603 115.056C211.085 112.563 212.479 109.181 212.479 105.655C212.479 102.128 211.085 98.7463 208.603 96.2527C206.122 93.7592 202.757 92.3584 199.248 92.3584H28.9248V118.951Z" fill="white"/>
<g style="mix-blend-mode:multiply">
<g style="mix-blend-mode:multiply">
<path d="M212.111 108.65H28.9248V113.452H209.906C210.972 112.027 211.724 110.39 212.111 108.65V108.65Z" fill="#EAEAEA"/>
</g>
</g>
<path d="M44.0749 197.456H213.745V175.213H44.0749C42.6255 175.202 41.1883 175.48 39.8461 176.03C38.504 176.58 37.2834 177.391 36.2547 178.417C35.226 179.443 34.4096 180.664 33.8524 182.009C33.2953 183.353 33.0085 184.796 33.0085 186.252V186.252C32.9867 187.723 33.2575 189.183 33.8049 190.546C34.3523 191.91 35.1653 193.15 36.1961 194.194C37.227 195.237 38.455 196.064 39.808 196.624C41.1609 197.184 42.6116 197.467 44.0749 197.456V197.456Z" fill="#13EBA2"/>
<path d="M213.745 178.538H43.9114C41.8753 178.538 39.9226 179.35 38.4829 180.797C37.0432 182.244 36.2344 184.206 36.2344 186.253C36.2344 188.299 37.0432 190.261 38.4829 191.708C39.9226 193.155 41.8753 193.968 43.9114 193.968H213.745V178.538Z" fill="white"/>
<g style="mix-blend-mode:multiply">
<g style="mix-blend-mode:multiply">
<path d="M36.438 184.528H213.744V181.738H37.7039C37.1112 182.58 36.6817 183.526 36.438 184.528V184.528Z" fill="#EAEAEA"/>
</g>
</g>
<path d="M55.5488 156.951H207.415V124.491H55.5488C51.2874 124.544 47.2154 126.269 44.2018 129.297C41.1883 132.326 39.4719 136.418 39.4189 140.701V140.701C39.4613 144.99 41.173 149.093 44.1877 152.13C47.2023 155.167 51.2804 156.898 55.5488 156.951Z" fill="#056644"/>
<path d="M207.415 129.333H55.345C52.3451 129.333 49.468 130.531 47.3467 132.663C45.2254 134.795 44.0337 137.686 44.0337 140.701C44.0337 143.716 45.2254 146.607 47.3467 148.739C49.468 150.871 52.3451 152.068 55.345 152.068H207.415V129.333Z" fill="white"/>
<g style="mix-blend-mode:multiply">
<g style="mix-blend-mode:multiply">
<path d="M44.3193 138.156H207.415V134.053H46.1978C45.3131 135.286 44.6752 136.679 44.3193 138.156V138.156Z" fill="#EAEAEA"/>
</g>
</g>
<path d="M253.189 197.781V20.1387L217.803 20.1387V197.781H253.189Z" fill="#056644"/>
<path d="M249.131 184.289V82.5459H221.901V184.289H249.131Z" fill="#13EBA2"/>
<path d="M253.149 40.9275V34.2017H217.763V40.9275H253.149Z" fill="#13EBA2"/>
<path d="M253.189 58.9443V52.1777H217.803V58.9443H253.189Z" fill="#13EBA2"/>
<path d="M278.716 197.74V57.4771H253.19V197.74H278.716Z" fill="#05AC72"/>
<path d="M278.674 83.7281V78.3882H253.149V83.7281H278.674Z" fill="#13EBA2"/>
<path d="M278.716 97.9541V92.6143H253.19V97.9541H278.716Z" fill="#13EBA2"/>
<path d="M275.794 154.45V105.373H256.072V154.45H275.794Z" fill="#13EBA2"/>
<path d="M278.716 171.734V166.394H253.19V171.734H278.716Z" fill="#13EBA2"/>
<path d="M278.674 185.919V180.58H253.149V185.919H278.674Z" fill="#13EBA2"/>
<path d="M39.0603 57.8252L28.1171 70.227L30.5022 72.2426L47.2537 60.7647C47.2537 60.7647 55.2226 35.7092 46.5803 35.0093C46.5803 35.0093 42.4275 46.9631 39.0603 57.8252Z" fill="#FFC9A9"/>
<path d="M46.5799 35.0087C42.4551 34.4208 37.2361 58.3285 37.2361 58.3285C37.2361 58.3285 44.0826 62.8077 50.5082 62.8077C50.5082 62.8077 57.3828 36.5764 46.5799 35.0087Z" fill="#05AC72"/>
<path d="M22.8974 102.337C22.8974 102.337 25.507 108.048 24.8616 109.196C24.2162 110.343 15.2653 113.591 15.7142 115.242C16.1632 116.922 28.0604 113.479 29.6598 112.303C31.2311 111.099 27.9762 100.433 27.9762 100.433L22.8974 102.337Z" fill="#05AC72"/>
<path d="M41.8938 71.0103C41.8938 71.0103 17.8468 73.1939 15.4618 76.5533C13.0767 79.9127 23.3184 105.108 23.3184 105.108L29.3512 103.148L25.1423 81.7323C25.1423 81.7323 57.1582 89.7669 57.1582 72.8579L41.8938 71.0103Z" fill="#16224B"/>
<path d="M22.2252 77.0015L25.6204 84.0842L29.3804 103.177L23.3476 105.136C23.3476 105.136 18.9703 94.3864 16.6133 85.9879C18.353 82.3205 20.6258 78.0653 22.2252 77.0015Z" fill="#09143B"/>
<path d="M14.5642 105.473C14.5642 105.473 13.3857 111.939 12.2072 112.527C11.0287 113.115 1.82519 110.624 1.23594 112.247C0.646693 113.871 12.3756 117.874 14.3397 117.79C16.332 117.706 19.8955 107.348 19.8955 107.348L14.5642 105.473Z" fill="#05AC72"/>
<path d="M67.7646 72.8862C67.7646 72.8862 67.3157 81.6207 59.7677 84.4202C52.2197 87.2197 29.6599 86.5198 29.6599 86.5198L19.4181 110.456L13.1047 108.636C13.1047 108.636 19.9793 79.521 22.2241 77.0015C24.4688 74.4819 47.8985 72.8862 47.8985 72.8862H67.7646Z" fill="#16224B"/>
<path d="M70.9077 35.0092C70.9077 35.0092 58.8982 32.5737 46.1031 35.0092C46.1031 35.0092 41.9222 49.9306 41.9222 71.0388C41.9222 71.0388 47.1974 76.8338 67.765 72.9145C67.765 72.8865 69.7853 48.2509 70.9077 35.0092Z" fill="#05AC72"/>
<path d="M47.6741 12.1372C47.6741 12.1372 44.5034 12.865 45.0085 17.7642C45.4855 22.6633 48.067 24.315 49.8628 23.5591C51.6586 22.8033 51.4622 9.64562 47.6741 12.1372Z" fill="#333333"/>
<path d="M45.8231 18.9397C46.244 21.8232 47.5067 29.8298 51.6314 29.5778C56.0648 29.2979 62.2941 20.9834 60.4141 13.5367C58.5621 6.06204 43.9712 6.11803 45.8231 18.9397Z" fill="#FFC9A9"/>
<path d="M59.1228 17.4565L61.564 34.1696C61.564 34.1696 55.8118 38.6488 52.8094 35.0934L53.2303 23.8114L59.1228 17.4565Z" fill="#FFC9A9"/>
<path d="M49.0881 19.1966C48.9612 17.7488 49.6843 16.503 50.7032 16.4141C51.7221 16.3251 52.651 17.4267 52.7779 18.8746C52.9049 20.3224 52.1818 21.5682 51.1629 21.6571C50.144 21.7461 49.2151 20.6445 49.0881 19.1966Z" stroke="#164A62" stroke-width="0.523777" stroke-miterlimit="10"/>
<path d="M44.2468 19.2132C44.1199 17.7654 44.8429 16.5196 45.8618 16.4307C46.8808 16.3417 47.8097 17.4433 47.9366 18.8912C48.0636 20.339 47.3405 21.5848 46.3216 21.6737C45.3027 21.7627 44.3738 20.6611 44.2468 19.2132Z" stroke="#164A62" stroke-width="0.523777" stroke-miterlimit="10"/>
<path d="M49.0767 19.0518H47.9543" stroke="#164A62" stroke-width="0.523777" stroke-miterlimit="10"/>
<path d="M52.7813 19.0521L59.7681 18.0723" stroke="#164A62" stroke-width="0.523777" stroke-miterlimit="10"/>
<path d="M48.4318 19.9199C48.4318 19.9199 48.516 21.2357 47.4778 22.1315C46.7482 22.7474 47.7303 23.2513 48.6562 23.1393" stroke="#EFA59C" stroke-width="0.261889" stroke-miterlimit="10"/>
<path d="M57.7762 11.9132C57.7762 11.9132 56.0084 13.5929 49.9757 14.6567C43.9429 15.7205 42.4557 13.7329 44.7005 10.8774C46.9452 8.02191 56.3452 4.1586 58.3093 9.47765C58.3093 9.47765 60.3016 9.2257 61.9009 11.9412C64.5666 16.4484 62.0132 25.2388 59.7404 25.2388C57.5237 25.2108 56.6538 15.6925 57.7762 11.9132Z" fill="#333333"/>
<path d="M70.9076 35.0091C67.5685 34.7012 63.079 60.0087 63.079 60.0087L45.4576 71.6826L46.2994 74.2581C46.2994 74.2581 63.8927 68.4352 69.6729 65.2437C75.4532 62.0523 80.2514 35.849 70.9076 35.0091Z" fill="#FFC9A9"/>
<path d="M70.908 35.0087C66.7832 34.4208 61.5642 58.3285 61.5642 58.3285C61.5642 58.3285 68.4107 62.8077 74.8363 62.8077C74.8363 62.8077 81.7109 36.5764 70.908 35.0087Z" fill="#05AC72"/>
<path d="M45.4297 71.6823C45.4297 71.6823 42.0064 69.7507 39.2005 70.5625C36.3945 71.3744 36.3945 73.194 36.3945 73.194L46.2715 74.2299L45.4297 71.6823Z" fill="#FFC9A9"/>
<path d="M42.062 74.4542C42.062 74.6502 41.8937 74.7902 41.7253 74.7902H15.181C14.9846 74.7902 14.8443 74.6222 14.8443 74.4542C14.8443 74.2583 15.0127 74.1183 15.181 74.1183H41.6972C41.8937 74.0903 42.062 74.2583 42.062 74.4542Z" fill="#9398B2"/>
<path d="M39.9585 73.81L34.0661 55.2773C34.038 55.1934 33.9538 55.1094 33.8416 55.1094H8.64415C8.4758 55.1094 8.39162 55.2494 8.41968 55.4173L14.3122 73.95C14.3402 74.034 14.4244 74.118 14.5366 74.118H39.7341C39.9024 74.09 40.0147 73.95 39.9585 73.81Z" fill="#9398B2"/>
<path d="M39.9585 73.81L34.0661 55.2773C34.038 55.1934 33.9538 55.1094 33.8416 55.1094C33.6732 55.1094 33.561 55.2494 33.6171 55.4173L39.5096 73.95C39.5377 74.034 39.6218 74.118 39.7341 74.118C39.9024 74.09 40.0147 73.95 39.9585 73.81Z" fill="#726FA3"/>
<path d="M50.312 74.4542C50.312 74.6502 50.1437 74.7902 49.9753 74.7902H40.0983C39.9019 74.7902 39.7616 74.6222 39.7616 74.4542C39.7616 74.2583 39.93 74.1183 40.0983 74.1183H49.9753C50.1437 74.0903 50.312 74.2583 50.312 74.4542Z" fill="#726FA3"/>
<path d="M23.2632 63.8438C24.2173 63.8438 25.1993 64.5996 25.4519 65.5514C25.7325 66.5033 25.1713 67.2591 24.2453 67.2591C23.3194 67.2591 22.3092 66.5033 22.0567 65.5514C21.748 64.6276 22.3092 63.8438 23.2632 63.8438Z" fill="white"/>
<path d="M200.543 192.996C199.688 195.879 196.593 197.542 193.631 196.709L183.799 193.945C180.837 193.113 179.129 190.1 179.985 187.216C180.84 184.333 183.935 182.67 186.896 183.503L196.727 186.267C199.69 187.099 201.397 190.112 200.543 192.996" fill="#201E1D"/>
<path d="M183.031 192.197L164.083 186.87L166.353 179.212L185.302 184.539C185.302 184.539 182.735 185.968 182.407 188.101C182.078 190.235 183.031 192.197 183.031 192.197" fill="#FCD892"/>
<path d="M186.519 192.267L185.446 191.965L187.266 185.83L188.339 186.132L186.519 192.267Z" fill="#FAFBFB"/>
<path d="M188.754 192.895L187.682 192.594L189.501 186.458L190.573 186.76L188.754 192.895" fill="#FAFBFB"/>
<path d="M190.988 193.523L189.916 193.222L191.735 187.087L192.808 187.388L190.988 193.523Z" fill="#FAFBFB"/>
<path d="M193.296 194.114L192.223 193.813L194.043 187.678L195.116 187.979L193.296 194.114Z" fill="#FAFBFB"/>
<path d="M178.144 179.726L174.142 192.395L135.938 180.956C132.723 179.993 131.012 176.377 132.117 172.88L132.118 172.877C133.223 169.38 136.724 167.325 139.94 168.287L178.144 179.726Z" fill="#605C57"/>
<path d="M132.001 192.996C132.857 195.879 135.951 197.542 138.913 196.709L148.744 193.945C151.707 193.113 153.414 190.1 152.559 187.216C151.703 184.333 148.609 182.67 145.648 183.503L135.816 186.266C132.854 187.099 131.146 190.112 132.001 192.996" fill="#201E1D"/>
<path d="M149.513 192.197L168.462 186.87L166.191 179.212L147.242 184.539C147.242 184.539 149.808 185.968 150.138 188.101C150.466 190.235 149.513 192.197 149.513 192.197" fill="#FCD892"/>
<path d="M146.024 192.267L147.097 191.965L145.277 185.83L144.205 186.132L146.024 192.267Z" fill="#FAFBFB"/>
<path d="M143.79 192.895L144.862 192.594L143.042 186.458L141.97 186.76L143.79 192.895Z" fill="#FAFBFB"/>
<path d="M141.555 193.523L142.628 193.222L140.808 187.087L139.736 187.388L141.555 193.523Z" fill="#FAFBFB"/>
<path d="M139.247 194.114L140.32 193.813L138.5 187.678L137.428 187.979L139.247 194.114" fill="#FAFBFB"/>
<path d="M154.399 179.726L158.401 192.395L196.606 180.956C199.821 179.993 201.531 176.377 200.427 172.88L200.426 172.877C199.321 169.379 195.819 167.325 192.604 168.287L154.399 179.726" fill="#75716A"/>
<path d="M192.529 164.297C192.529 155.901 181.271 146.024 178.542 144.746C175.813 143.468 174.561 142.57 166.193 142.57C157.825 142.57 156.054 143.814 153.603 145.13C151.15 146.446 140.014 156.916 140.014 164.297C140.014 171.678 154.337 177.73 166.165 177.73C177.993 177.73 192.529 172.693 192.529 164.297" fill="#13EBA2"/>
<path d="M153.439 164.692C153.295 164.692 153.149 164.667 153.007 164.613L145.449 161.765C144.837 161.534 144.535 160.869 144.774 160.278C144.957 159.825 145.406 159.548 145.881 159.548C146.025 159.548 146.172 159.573 146.313 159.627L153.872 162.475C154.483 162.705 154.786 163.371 154.547 163.961C154.363 164.415 153.915 164.692 153.439 164.692" fill="#05AC72"/>
<path d="M179.105 164.692C178.63 164.692 178.181 164.415 177.997 163.961C177.758 163.371 178.06 162.705 178.672 162.475L186.229 159.627C186.372 159.574 186.518 159.548 186.662 159.548C187.137 159.548 187.586 159.825 187.77 160.278C188.009 160.869 187.707 161.534 187.095 161.765L179.537 164.613C179.395 164.667 179.249 164.692 179.105 164.692" fill="#05AC72"/>
<path fill-rule="evenodd" clip-rule="evenodd" d="M182.96 155.859C183.661 155.86 184.218 156.111 184.631 156.615C185.043 157.112 185.19 157.707 185.071 158.401L182.015 176.082C181.931 176.559 181.659 176.963 181.199 177.294C180.747 177.624 180.238 177.789 179.671 177.792H152.871C152.304 177.789 151.793 177.624 151.338 177.294C150.881 176.963 150.612 176.559 150.531 176.082L147.475 158.401C147.353 157.707 147.495 157.112 147.902 156.615C148.32 156.111 148.881 155.86 149.586 155.859H182.96" fill="#EAE8E7"/>
<path fill-rule="evenodd" clip-rule="evenodd" d="M164.627 164.785C165.074 164.364 165.623 164.154 166.275 164.154C166.923 164.154 167.472 164.364 167.921 164.785C168.365 165.2 168.581 165.7 168.568 166.286C168.555 166.855 168.325 167.338 167.878 167.735C167.428 168.127 166.893 168.325 166.275 168.327C165.652 168.325 165.119 168.127 164.676 167.735C164.223 167.338 163.989 166.855 163.976 166.286C163.963 165.7 164.181 165.2 164.627 164.785" fill="white"/>
<path d="M170.255 147.654C170.255 149.72 168.313 151.396 165.916 151.396C163.521 151.396 161.578 149.72 161.578 147.654V143.583C161.578 141.516 163.521 139.84 165.916 139.84C168.313 139.84 170.255 141.516 170.255 143.583V147.654Z" fill="#FCD892"/>
<path d="M165.979 148.183C164.119 148.183 162.492 147.474 161.578 146.411V143.971C161.578 141.904 163.521 140.229 165.916 140.229C168.313 140.229 170.255 141.904 170.255 143.971V146.554C169.321 147.538 167.755 148.183 165.979 148.183Z" fill="#E6B37A"/>
<path d="M158.914 139.271C158.914 139.271 158.123 139.077 156.075 135.955C155.399 133.591 154.475 128.539 156.075 127.011C154.219 122.101 158.259 119.817 159.339 119.374C158.624 120.652 158.801 122.847 158.801 122.847C158.801 122.847 162.713 115.489 172.408 117.895C169.769 119.244 169.717 121.222 169.717 121.222C169.717 121.222 176.855 120.034 178.469 125.231C176.64 124.871 175.499 124.792 174.763 125.28C176.745 126.257 177.448 130.818 175.656 134.98C173.864 139.142 172.68 139.271 172.68 139.271L172.089 130.411C172.089 130.411 170.045 131.502 167.225 131.502C164.403 131.502 159.12 130.07 159.12 130.07L158.914 139.271" fill="#292827"/>
<path d="M175.038 133.728C174.546 128.536 170.649 124.493 165.916 124.493C161.184 124.493 157.288 128.536 156.794 133.728C156.096 133.546 153.666 133.076 154.134 135.43C154.644 137.99 156.258 139.38 157.508 139.265C158.926 143.384 162.157 146.843 165.916 146.843C169.676 146.843 172.907 143.384 174.325 139.265C175.576 139.38 177.19 137.99 177.699 135.43C178.168 133.076 175.737 133.546 175.038 133.728Z" fill="#FCD892"/>
<path d="M165.917 124.493V135.912L168.177 138.094L165.917 140.275V146.843C170.983 146.843 175.092 140.56 175.092 134.843C175.092 129.127 170.983 124.493 165.917 124.493" fill="#F1C080"/>
<path d="M174.472 130.327C172.298 126.739 168.695 128.432 167.408 129.464C166.123 130.495 168.427 131.964 170.384 132.3C164.6 134.231 157.294 130.289 157.294 127.809C157.294 125.329 161.383 123.319 166.427 123.319C171.471 123.319 175.081 130.034 174.472 130.327Z" fill="#292827"/>
<path d="M162.936 135.583C162.936 136.234 162.39 136.761 161.715 136.761C161.042 136.761 160.495 136.234 160.495 135.583C160.495 134.933 161.042 134.405 161.715 134.405C162.39 134.405 162.936 134.933 162.936 135.583Z" fill="#292827"/>
<path d="M171.807 135.584C171.807 136.234 171.26 136.761 170.587 136.761C169.913 136.761 169.367 136.234 169.367 135.584C169.367 134.933 169.913 134.405 170.587 134.405C171.26 134.405 171.807 134.933 171.807 135.584Z" fill="#292827"/>
<path d="M165.917 143.695C167.53 143.695 168.909 142.783 169.481 141.492H162.353C162.924 142.783 164.303 143.695 165.917 143.695" fill="#F6F7F8"/>
</svg>
