<svg width="279" height="211" viewBox="0 0 279 211" fill="none" xmlns="http://www.w3.org/2000/svg">
<rect x="-2" y="-3" width="283" height="215.974" fill="#66CCFF" fill-opacity="0.25"/>
<mask id="mask0" mask-type="alpha" maskUnits="userSpaceOnUse" x="-2" y="-3" width="283" height="216">
<rect x="-2" y="-3" width="283" height="215.974" fill="#66CCFF" fill-opacity="0.25"/>
</mask>
<g mask="url(#mask0)">
<circle cx="33.1089" cy="105.519" r="46.812" fill="#6633FF"/>
<circle cx="224.613" cy="79.9849" r="46.812" fill="#6633FF"/>
<circle cx="126.733" cy="33.1732" r="30.8534" fill="#6633FF"/>
</g>
<path d="M279.559 83.4126H162.998V96.8089H279.559V83.4126Z" fill="#66CCFF"/>
<path d="M270.699 84.9492H203.938V95.2488H270.699V84.9492Z" fill="#66FFFF"/>
<path d="M176.644 83.4126H172.226V96.8089H176.644V83.4126Z" fill="#FFDB00"/>
<path d="M188.45 83.4126H184.032V96.8089H188.45V83.4126Z" fill="#FFDB00"/>
<path d="M257.098 69.1216H177.91V83.5502H257.098V69.1216Z" fill="#6633FF"/>
<path d="M192.707 69.1216H189.692V83.5502H192.707V69.1216Z" fill="#6699FF"/>
<path d="M200.716 69.1216H197.702V83.5502H200.716V69.1216Z" fill="#6699FF"/>
<path d="M232.636 70.7734H204.928V81.9218H232.636V70.7734Z" fill="#6699FF"/>
<path d="M242.37 69.1216H239.355V83.5502H242.37V69.1216Z" fill="#6699FF"/>
<path d="M250.401 69.1216H247.387V83.5502H250.401V69.1216Z" fill="#6699FF"/>
<path d="M184.446 146.196H264.301V135.966H184.446V146.196Z" fill="#66CCFF"/>
<path d="M242.462 146.196H244.211V135.966H242.462V146.196Z" fill="#FFA4E9"/>
<path d="M237.813 146.196H239.562V135.966H237.813V146.196Z" fill="#FFA4E9"/>
<path d="M209.369 146.196H211.118V135.966H209.369V146.196Z" fill="#FFA4E9"/>
<path d="M232.958 146.196H234.707V135.966H232.958V146.196Z" fill="#FFA4E9"/>
<path d="M266.971 96.6479H171.121V117.866H266.971C268.369 117.869 269.754 117.598 271.047 117.066C272.339 116.535 273.514 115.755 274.504 114.771C275.493 113.786 276.279 112.617 276.814 111.33C277.35 110.042 277.626 108.662 277.626 107.269C277.626 104.452 276.503 101.75 274.505 99.7587C272.507 97.7669 269.797 96.6479 266.971 96.6479Z" fill="#6633FF"/>
<path d="M171.121 114.724H267.109C269.086 114.724 270.983 113.941 272.381 112.547C273.779 111.154 274.565 109.263 274.565 107.292C274.565 105.321 273.779 103.431 272.381 102.037C270.983 100.643 269.086 99.8599 267.109 99.8599H171.121V114.724Z" fill="white"/>
<g style="mix-blend-mode:multiply">
<g style="mix-blend-mode:multiply">
<path d="M274.381 108.966H171.121V111.65H273.138C273.726 110.846 274.148 109.934 274.381 108.966Z" fill="#EAEAEA"/>
</g>
</g>
<path d="M179.659 158.583H275.278V146.173H179.659C178.019 146.179 176.448 146.831 175.288 147.987C174.129 149.143 173.474 150.709 173.468 152.344C173.462 153.159 173.618 153.968 173.926 154.723C174.234 155.478 174.689 156.165 175.264 156.745C175.839 157.325 176.523 157.785 177.278 158.101C178.032 158.416 178.841 158.58 179.659 158.583Z" fill="#6633FF"/>
<path d="M275.279 148.031H179.567C178.42 148.031 177.319 148.486 176.508 149.294C175.697 150.103 175.241 151.2 175.241 152.344C175.241 153.488 175.697 154.584 176.508 155.393C177.319 156.202 178.42 156.656 179.567 156.656H275.279V148.031Z" fill="white"/>
<g style="mix-blend-mode:multiply">
<g style="mix-blend-mode:multiply">
<path d="M175.356 151.358H275.279V149.798H176.092C175.742 150.262 175.492 150.793 175.356 151.358Z" fill="#EAEAEA"/>
</g>
</g>
<path d="M186.126 135.943H271.711V117.821H186.126C183.704 117.821 181.38 118.772 179.657 120.468C177.934 122.164 176.951 124.468 176.92 126.882C176.951 129.295 177.934 131.6 179.657 133.296C181.38 134.992 183.704 135.943 186.126 135.943Z" fill="#6666FF"/>
<path d="M271.712 120.527H186.011C184.305 120.527 182.669 121.203 181.463 122.405C180.256 123.608 179.579 125.238 179.579 126.939C179.579 128.639 180.256 130.27 181.463 131.472C182.669 132.675 184.305 133.35 186.011 133.35H271.712V120.527Z" fill="white"/>
<g style="mix-blend-mode:multiply">
<g style="mix-blend-mode:multiply">
<path d="M179.82 125.459H271.712V123.166H180.879C180.362 123.844 180.001 124.627 179.82 125.459Z" fill="#EAEAEA"/>
</g>
</g>
<path d="M247.405 159.481C246.788 158.623 244.064 157.931 241.285 157.931H69.773C66.9875 157.931 64.2514 158.623 63.6523 159.481L32.2825 202.37C31.356 203.698 33.3263 209.782 36.6986 209.782H274.359C277.731 209.782 279.702 203.723 278.769 202.37L247.405 159.481Z" fill="#F1F2F2"/>
<path d="M247.405 159.481C246.788 158.623 244.064 157.931 241.285 157.931H69.773C66.9875 157.931 64.2514 158.623 63.6523 159.481L32.2825 202.37C31.356 203.698 33.3263 204.791 36.6986 204.791H274.359C277.731 204.791 279.702 203.698 278.769 202.37L247.405 159.481Z" fill="#D2D3D4"/>
<path d="M169.527 207.126H141.53C140.737 207.126 139.977 206.811 139.416 206.251C138.855 205.69 138.541 204.93 138.541 204.137H172.511C172.511 204.928 172.196 205.688 171.637 206.248C171.078 206.809 170.319 207.124 169.527 207.126Z" fill="#D2D3D4"/>
<path d="M69.7733 157.913C68.7859 157.915 67.8004 158 66.8271 158.166C67.5745 158.629 69.1124 158.944 70.9653 158.944H240.087C241.94 158.944 243.484 158.629 244.231 158.166C243.258 158 242.272 157.915 241.285 157.913H69.7733Z" fill="#AAACAD"/>
<path d="M218.247 157.913H92.8667L92.3047 159.043C92.1626 159.333 92.8111 159.562 93.7499 159.562H217.345C218.284 159.562 218.933 159.333 218.797 159.043L218.247 157.913Z" fill="#3F3C3A"/>
<path d="M184.03 201.289L180.565 192.469C180.504 192.317 180.398 192.186 180.261 192.093C180.125 192.001 179.964 191.951 179.799 191.951H131.216C131.051 191.952 130.891 192.003 130.755 192.096C130.62 192.19 130.516 192.322 130.456 192.476L127.028 201.289C126.998 201.364 126.986 201.445 126.994 201.525C127.003 201.605 127.031 201.682 127.076 201.749C127.121 201.815 127.182 201.87 127.254 201.907C127.325 201.944 127.405 201.964 127.485 201.963H183.567C183.647 201.963 183.727 201.944 183.798 201.906C183.87 201.869 183.931 201.815 183.977 201.749C184.022 201.682 184.051 201.606 184.06 201.526C184.07 201.446 184.059 201.364 184.03 201.289Z" fill="#EDECEB"/>
<path d="M180.682 192.772L180.565 192.469C180.503 192.317 180.397 192.186 180.261 192.093C180.124 192.001 179.964 191.951 179.799 191.951H131.215C131.051 191.952 130.89 192.003 130.755 192.096C130.619 192.19 130.515 192.322 130.456 192.476L130.338 192.772H180.682Z" fill="#CFCFCE"/>
<g opacity="0.1">
<path opacity="0.1" d="M254.607 188.671H56.4505C56.2768 188.682 56.1031 188.647 55.9475 188.569C55.7919 188.491 55.6601 188.373 55.5655 188.227C55.471 188.081 55.4173 187.912 55.41 187.738C55.4027 187.564 55.4421 187.391 55.524 187.238L69.9088 163.965C70.2206 163.479 70.6516 163.081 71.1608 162.809C71.67 162.536 72.2404 162.398 72.8178 162.409H238.233C238.808 162.402 239.374 162.541 239.88 162.813C240.386 163.085 240.814 163.482 241.124 163.965L255.509 187.238C255.591 187.389 255.632 187.56 255.627 187.732C255.621 187.905 255.57 188.073 255.478 188.219C255.386 188.365 255.257 188.484 255.104 188.563C254.951 188.643 254.779 188.68 254.607 188.671Z" fill="#242424"/>
<path opacity="0.1" d="M254.607 188.751H56.4508C56.2549 188.753 56.0618 188.705 55.8906 188.609C55.7194 188.514 55.5762 188.375 55.475 188.208C55.3794 188.057 55.3286 187.883 55.3286 187.704C55.3286 187.526 55.3794 187.351 55.475 187.201L69.8536 163.928C70.1691 163.43 70.6075 163.021 71.1267 162.741C71.6459 162.461 72.2284 162.319 72.8182 162.329H238.234C238.824 162.318 239.406 162.46 239.926 162.74C240.445 163.02 240.883 163.429 241.198 163.928L255.583 187.201C255.677 187.352 255.727 187.526 255.727 187.704C255.727 187.882 255.677 188.057 255.583 188.208C255.482 188.375 255.339 188.514 255.168 188.609C254.996 188.705 254.803 188.753 254.607 188.751ZM72.8182 162.495C72.2584 162.485 71.7051 162.618 71.2118 162.883C70.7186 163.148 70.3018 163.536 70.0018 164.009L55.617 187.275C55.5396 187.403 55.4987 187.549 55.4987 187.698C55.4987 187.847 55.5396 187.994 55.617 188.121C55.7027 188.263 55.8243 188.38 55.9696 188.461C56.1149 188.541 56.2787 188.581 56.4447 188.578H254.607C254.772 188.58 254.935 188.539 255.079 188.459C255.223 188.379 255.344 188.262 255.429 188.121C255.509 187.995 255.552 187.848 255.552 187.698C255.552 187.548 255.509 187.402 255.429 187.275L241.044 164.002C240.744 163.529 240.328 163.141 239.834 162.876C239.341 162.611 238.788 162.478 238.228 162.489L72.8182 162.495Z" fill="#0D0D0D"/>
</g>
<path d="M80.7113 165.559H72.3485C72.1961 165.561 72.0459 165.524 71.9129 165.449C71.78 165.375 71.669 165.267 71.5913 165.136C71.5135 165.005 71.4718 164.855 71.4703 164.703C71.4687 164.551 71.5075 164.401 71.5826 164.268L71.6196 164.206C71.7023 164.073 71.8179 163.963 71.9553 163.888C72.0926 163.812 72.2472 163.773 72.404 163.774H80.7421C80.8898 163.771 81.0358 163.806 81.1664 163.874C81.297 163.943 81.408 164.044 81.4889 164.168C81.5698 164.291 81.618 164.433 81.6289 164.58C81.6398 164.728 81.6131 164.875 81.5513 165.009V165.065C81.4715 165.218 81.3505 165.345 81.202 165.432C81.0535 165.52 80.8835 165.564 80.7113 165.559Z" fill="#242424"/>
<path d="M78.3773 169.314H70.0763C69.9224 169.32 69.7698 169.285 69.6342 169.212C69.4986 169.139 69.3849 169.031 69.3049 168.899C69.225 168.768 69.1816 168.617 69.1793 168.463C69.177 168.309 69.2159 168.158 69.2919 168.024L70.1813 166.554C70.2644 166.421 70.38 166.311 70.5173 166.236C70.6546 166.16 70.8089 166.121 70.9657 166.121H79.1802C79.3278 166.118 79.4738 166.153 79.6045 166.222C79.7351 166.29 79.8461 166.391 79.927 166.515C80.0079 166.638 80.056 166.78 80.0669 166.928C80.0779 167.075 80.0511 167.222 79.9893 167.357L79.2049 168.827C79.1259 168.977 79.0066 169.102 78.8604 169.188C78.7142 169.274 78.5469 169.318 78.3773 169.314Z" fill="#242424"/>
<path d="M82.5337 173.23H67.7104C67.5559 173.238 67.402 173.203 67.2652 173.131C67.1285 173.059 67.0138 172.95 66.9334 172.818C66.853 172.686 66.8099 172.534 66.8086 172.38C66.8073 172.225 66.8479 172.073 66.926 171.939L67.9204 170.29C68.0031 170.157 68.1187 170.047 68.2561 169.971C68.3934 169.895 68.548 169.856 68.7048 169.857H83.3181C83.4668 169.852 83.6143 169.885 83.7466 169.953C83.879 170.021 83.9917 170.122 84.074 170.246C84.1564 170.369 84.2057 170.512 84.2171 170.661C84.2286 170.809 84.2019 170.958 84.1396 171.093L83.3305 172.736C83.2552 172.883 83.1412 173.006 83.0008 173.094C82.8604 173.181 82.6989 173.228 82.5337 173.23Z" fill="#242424"/>
<path d="M83.6823 177.393H65.2026C65.0558 177.396 64.911 177.36 64.7818 177.29C64.6526 177.221 64.5435 177.119 64.4648 176.995C64.3861 176.871 64.3405 176.729 64.3324 176.583C64.3242 176.436 64.3538 176.29 64.4182 176.158L65.5299 174.305C65.6126 174.172 65.7282 174.062 65.8656 173.986C66.0029 173.911 66.1575 173.872 66.3143 173.873H84.5532C84.7023 173.867 84.8506 173.899 84.9838 173.966C85.117 174.034 85.2306 174.134 85.3137 174.258C85.3968 174.382 85.4466 174.526 85.4584 174.674C85.4701 174.823 85.4434 174.973 85.3808 175.108L84.5161 176.961C84.4302 177.103 84.307 177.218 84.1599 177.294C84.0128 177.371 83.8476 177.405 83.6823 177.393Z" fill="#242424"/>
<path d="M75.0353 181.778H62.5652C62.4105 181.784 62.2568 181.749 62.1203 181.676C61.9838 181.603 61.8695 181.494 61.7893 181.362C61.7092 181.229 61.6661 181.077 61.6646 180.922C61.6631 180.768 61.7032 180.615 61.7808 180.481L63.0161 178.443C63.0983 178.309 63.2138 178.199 63.3513 178.123C63.4888 178.047 63.6435 178.009 63.8005 178.01H76.0791C76.2279 178.005 76.3756 178.037 76.508 178.105C76.6405 178.173 76.7532 178.274 76.8352 178.398C76.9171 178.522 76.9657 178.666 76.9761 178.814C76.9864 178.963 76.9583 179.111 76.8944 179.246L75.8506 181.29C75.773 181.439 75.6558 181.563 75.5119 181.649C75.368 181.735 75.203 181.78 75.0353 181.778Z" fill="#242424"/>
<path d="M68.9269 187.127H59.335C59.1812 187.133 59.0285 187.098 58.8929 187.025C58.7573 186.952 58.6437 186.844 58.5637 186.712C58.4838 186.581 58.4404 186.43 58.4381 186.276C58.4358 186.122 58.4746 185.97 58.5506 185.836L60.3541 182.853C60.4373 182.72 60.5529 182.611 60.6902 182.535C60.8275 182.46 60.9818 182.42 61.1385 182.421H70.5081C70.6563 182.416 70.8033 182.449 70.9349 182.518C71.0665 182.586 71.1782 182.687 71.2595 182.811C71.3408 182.935 71.3887 183.078 71.3988 183.226C71.409 183.374 71.3808 183.522 71.3172 183.656L69.7299 186.658C69.6519 186.802 69.5357 186.922 69.3941 187.005C69.2525 187.088 69.0909 187.13 68.9269 187.127Z" fill="#242424"/>
<path d="M82.4902 187.127H72.818C72.6693 187.133 72.5215 187.1 72.3891 187.032C72.2566 186.964 72.1439 186.863 72.062 186.739C71.98 186.615 71.9314 186.472 71.9211 186.323C71.9107 186.175 71.9388 186.026 72.0027 185.891L73.5591 182.908C73.636 182.761 73.7524 182.638 73.8953 182.553C74.0382 182.467 74.202 182.424 74.3683 182.427H83.8243C83.9697 182.42 84.1144 182.451 84.2448 182.516C84.3752 182.581 84.4872 182.677 84.5704 182.797C84.6535 182.916 84.7052 183.055 84.7205 183.199C84.7358 183.344 84.7144 183.49 84.6581 183.625L83.3178 186.602C83.2452 186.76 83.1284 186.893 82.9815 186.987C82.8347 187.08 82.6641 187.128 82.4902 187.127Z" fill="#242424"/>
<path d="M96.1211 187.127H86.4057C86.2605 187.134 86.116 187.104 85.9854 187.04C85.8549 186.976 85.7426 186.88 85.6588 186.761C85.5751 186.642 85.5227 186.504 85.5064 186.36C85.4901 186.216 85.5105 186.069 85.5657 185.935L86.8751 182.952C86.9473 182.792 87.0646 182.656 87.2127 182.562C87.3609 182.467 87.5333 182.418 87.7089 182.42H97.202C97.3423 182.415 97.4817 182.444 97.6084 182.505C97.735 182.565 97.8452 182.655 97.9296 182.768C98.0139 182.88 98.0698 183.011 98.0926 183.149C98.1154 183.288 98.1044 183.43 98.0605 183.563L96.9735 186.546C96.9078 186.719 96.7909 186.867 96.6385 186.97C96.4861 187.074 96.3055 187.129 96.1211 187.127Z" fill="#242424"/>
<path d="M197.581 187.127H184.401C184.19 187.131 183.985 187.061 183.822 186.929C183.658 186.796 183.546 186.611 183.505 186.404L182.986 183.421C182.969 183.295 182.98 183.166 183.018 183.044C183.055 182.922 183.119 182.81 183.204 182.715C183.289 182.619 183.393 182.544 183.511 182.493C183.628 182.442 183.754 182.418 183.882 182.421H196.778C196.975 182.417 197.168 182.479 197.327 182.596C197.485 182.713 197.601 182.88 197.655 183.069L198.452 186.052C198.483 186.182 198.484 186.318 198.455 186.448C198.425 186.579 198.366 186.701 198.282 186.805C198.198 186.909 198.091 186.992 197.969 187.048C197.848 187.104 197.715 187.131 197.581 187.127Z" fill="#242424"/>
<path d="M211.169 187.127H201.367C201.174 187.133 200.984 187.076 200.826 186.964C200.667 186.853 200.55 186.694 200.49 186.51L199.656 183.527C199.625 183.396 199.624 183.259 199.654 183.128C199.683 182.997 199.743 182.874 199.828 182.77C199.913 182.665 200.02 182.582 200.143 182.525C200.265 182.469 200.398 182.442 200.533 182.446H210.088C210.278 182.446 210.462 182.506 210.616 182.617C210.77 182.727 210.886 182.884 210.946 183.063L211.996 186.053C212.028 186.179 212.031 186.311 212.004 186.439C211.977 186.567 211.922 186.687 211.843 186.79C211.763 186.894 211.661 186.978 211.544 187.036C211.428 187.094 211.299 187.126 211.169 187.127Z" fill="#242424"/>
<path d="M238.234 187.127H228.568C228.393 187.13 228.221 187.082 228.073 186.989C227.925 186.895 227.807 186.761 227.734 186.602L226.394 183.619C226.338 183.485 226.316 183.338 226.331 183.194C226.347 183.049 226.398 182.91 226.482 182.791C226.565 182.671 226.677 182.575 226.807 182.51C226.938 182.445 227.082 182.415 227.228 182.421H236.684C236.85 182.42 237.013 182.464 237.155 182.549C237.298 182.634 237.414 182.756 237.493 182.902L239.043 185.886C239.11 186.02 239.141 186.169 239.132 186.318C239.124 186.468 239.076 186.613 238.994 186.738C238.913 186.864 238.799 186.966 238.666 187.034C238.533 187.102 238.384 187.134 238.234 187.127Z" fill="#242424"/>
<path d="M224.695 187.145H214.986C214.801 187.147 214.619 187.092 214.466 186.988C214.313 186.885 214.195 186.737 214.127 186.565L213.88 185.885C213.836 185.752 213.825 185.61 213.848 185.472C213.871 185.333 213.927 185.202 214.011 185.09C214.095 184.978 214.206 184.888 214.332 184.827C214.459 184.767 214.598 184.738 214.739 184.743H224.398C224.575 184.74 224.748 184.789 224.898 184.883C225.047 184.978 225.165 185.113 225.238 185.274L225.535 185.953C225.59 186.088 225.61 186.234 225.594 186.378C225.578 186.523 225.526 186.661 225.442 186.78C225.358 186.898 225.246 186.994 225.115 187.058C224.985 187.122 224.84 187.152 224.695 187.145Z" fill="#242424"/>
<path d="M251.748 187.146H242.162C241.997 187.146 241.835 187.102 241.692 187.019C241.55 186.935 241.433 186.815 241.353 186.67L240.988 185.991C240.925 185.857 240.897 185.709 240.907 185.561C240.917 185.413 240.965 185.27 241.046 185.146C241.127 185.022 241.239 184.921 241.371 184.852C241.502 184.784 241.649 184.751 241.798 184.755H251.315C251.472 184.753 251.627 184.792 251.765 184.868C251.902 184.944 252.017 185.054 252.1 185.188L252.514 185.867C252.586 185.999 252.622 186.148 252.619 186.298C252.616 186.449 252.573 186.596 252.496 186.725C252.419 186.854 252.309 186.961 252.178 187.035C252.046 187.109 251.898 187.147 251.748 187.146Z" fill="#242424"/>
<path d="M113.075 187.127H99.9075C99.7679 187.132 99.6293 187.103 99.5032 187.043C99.3772 186.982 99.2675 186.893 99.1833 186.781C99.0991 186.67 99.043 186.54 99.0196 186.402C98.9962 186.265 99.0063 186.123 99.049 185.99L100.099 183.007C100.16 182.828 100.275 182.671 100.429 182.561C100.583 182.45 100.768 182.39 100.957 182.39H113.848C113.981 182.385 114.114 182.412 114.236 182.467C114.357 182.522 114.465 182.604 114.55 182.708C114.635 182.811 114.694 182.932 114.725 183.062C114.755 183.193 114.755 183.328 114.725 183.458L113.953 186.441C113.904 186.637 113.791 186.811 113.632 186.936C113.473 187.06 113.277 187.127 113.075 187.127Z" fill="#242424"/>
<path d="M180.682 187.127H116.812C116.679 187.131 116.548 187.104 116.427 187.05C116.306 186.996 116.199 186.915 116.114 186.813C116.029 186.711 115.969 186.592 115.936 186.463C115.904 186.335 115.902 186.2 115.929 186.071L116.664 183.088C116.716 182.894 116.831 182.723 116.991 182.603C117.151 182.482 117.347 182.418 117.547 182.421H180.2C180.411 182.417 180.617 182.488 180.781 182.621C180.945 182.755 181.056 182.942 181.096 183.149L181.577 186.133C181.594 186.259 181.584 186.387 181.546 186.509C181.509 186.631 181.445 186.743 181.36 186.837C181.275 186.932 181.17 187.007 181.053 187.057C180.936 187.107 180.809 187.131 180.682 187.127Z" fill="#242424"/>
<path d="M90.4758 169.314H82.0822C81.9333 169.321 81.7853 169.289 81.6528 169.221C81.5202 169.153 81.4075 169.052 81.3259 168.927C81.2443 168.803 81.1965 168.659 81.1872 168.51C81.1779 168.361 81.2075 168.213 81.2731 168.079L82.0822 166.603C82.159 166.455 82.2754 166.332 82.4183 166.247C82.5612 166.162 82.725 166.118 82.8913 166.121H91.1676C91.3099 166.121 91.4501 166.157 91.5755 166.224C91.7009 166.291 91.8078 166.389 91.8866 166.507C91.9654 166.626 92.0138 166.762 92.0273 166.904C92.0409 167.045 92.0193 167.188 91.9643 167.319L91.3035 168.796C91.2293 168.952 91.112 169.084 90.9654 169.176C90.8187 169.268 90.6489 169.316 90.4758 169.314Z" fill="#242424"/>
<path d="M102.57 169.314H94.1326C93.9882 169.321 93.8445 169.291 93.7147 169.227C93.5849 169.163 93.4731 169.068 93.3896 168.95C93.306 168.832 93.2533 168.695 93.2364 168.552C93.2195 168.408 93.2388 168.263 93.2927 168.128L93.9103 166.658C93.9835 166.498 94.102 166.362 94.2512 166.268C94.4003 166.173 94.5738 166.125 94.7503 166.127H103.082C103.222 166.123 103.361 166.153 103.487 166.214C103.612 166.275 103.722 166.365 103.805 166.477C103.889 166.589 103.944 166.72 103.967 166.858C103.989 166.996 103.978 167.137 103.935 167.27L103.403 168.74C103.338 168.908 103.223 169.053 103.075 169.155C102.926 169.258 102.75 169.313 102.57 169.314Z" fill="#242424"/>
<path d="M114.49 169.314H106.004C105.864 169.32 105.726 169.292 105.6 169.233C105.473 169.173 105.363 169.084 105.279 168.973C105.195 168.862 105.139 168.733 105.115 168.595C105.092 168.458 105.102 168.317 105.145 168.184L105.664 166.708C105.729 166.533 105.846 166.383 106 166.278C106.154 166.173 106.336 166.118 106.522 166.121H114.904C115.039 166.117 115.173 166.144 115.296 166.201C115.418 166.257 115.526 166.342 115.611 166.447C115.695 166.552 115.754 166.676 115.782 166.808C115.811 166.94 115.808 167.077 115.775 167.208L115.367 168.678C115.309 168.864 115.192 169.027 115.034 169.141C114.876 169.256 114.685 169.317 114.49 169.314Z" fill="#242424"/>
<path d="M126.552 169.314H118.047C117.913 169.319 117.78 169.293 117.657 169.237C117.535 169.182 117.427 169.099 117.342 168.995C117.257 168.891 117.198 168.768 117.168 168.637C117.138 168.506 117.139 168.37 117.17 168.24L117.566 166.77C117.62 166.58 117.735 166.414 117.894 166.297C118.053 166.179 118.245 166.118 118.443 166.121H126.855C126.984 166.117 127.113 166.141 127.232 166.192C127.351 166.244 127.457 166.321 127.542 166.419C127.628 166.516 127.69 166.632 127.725 166.757C127.76 166.882 127.766 167.013 127.744 167.14L127.46 168.61C127.414 168.815 127.299 168.997 127.133 169.126C126.967 169.254 126.762 169.321 126.552 169.314Z" fill="#242424"/>
<path d="M138.596 169.314H130.048C129.92 169.319 129.792 169.294 129.674 169.244C129.556 169.193 129.451 169.117 129.366 169.02C129.281 168.924 129.218 168.81 129.183 168.687C129.147 168.564 129.139 168.434 129.159 168.307L129.43 166.838C129.471 166.633 129.582 166.449 129.745 166.318C129.908 166.187 130.111 166.117 130.32 166.121H138.757C138.881 166.117 139.004 166.139 139.118 166.187C139.233 166.234 139.336 166.304 139.421 166.394C139.506 166.484 139.572 166.591 139.612 166.708C139.653 166.825 139.669 166.949 139.659 167.072L139.498 168.548C139.468 168.764 139.359 168.962 139.193 169.103C139.027 169.244 138.814 169.319 138.596 169.314Z" fill="#242424"/>
<path d="M150.64 169.314H142.092C141.969 169.318 141.847 169.296 141.734 169.249C141.62 169.203 141.517 169.133 141.433 169.045C141.348 168.956 141.282 168.851 141.24 168.736C141.199 168.62 141.181 168.498 141.19 168.375L141.338 166.899C141.366 166.681 141.473 166.48 141.64 166.337C141.806 166.193 142.02 166.116 142.24 166.121H150.696C150.813 166.118 150.93 166.139 151.039 166.183C151.149 166.226 151.248 166.291 151.332 166.373C151.416 166.455 151.483 166.553 151.528 166.662C151.574 166.77 151.597 166.886 151.597 167.004L151.56 168.48C151.546 168.712 151.442 168.929 151.27 169.084C151.098 169.24 150.872 169.322 150.64 169.314Z" fill="#242424"/>
<path d="M162.715 169.314H154.155C154.037 169.317 153.921 169.297 153.812 169.255C153.703 169.213 153.603 169.15 153.518 169.069C153.434 168.988 153.366 168.891 153.32 168.783C153.273 168.676 153.248 168.56 153.247 168.443V166.973C153.255 166.741 153.354 166.522 153.523 166.362C153.691 166.202 153.916 166.116 154.148 166.121H162.61C162.836 166.115 163.056 166.197 163.223 166.349C163.391 166.5 163.494 166.711 163.512 166.936L163.598 168.406C163.601 168.524 163.58 168.641 163.536 168.751C163.493 168.86 163.429 168.96 163.346 169.045C163.264 169.129 163.166 169.197 163.058 169.243C162.949 169.289 162.833 169.313 162.715 169.314Z" fill="#242424"/>
<path d="M174.605 169.314H166.081C165.858 169.318 165.641 169.238 165.473 169.089C165.306 168.94 165.201 168.734 165.18 168.511L165.081 167.041C165.076 166.92 165.095 166.8 165.139 166.687C165.182 166.575 165.248 166.472 165.332 166.386C165.417 166.299 165.518 166.231 165.63 166.186C165.742 166.14 165.862 166.118 165.983 166.121H174.432C174.647 166.116 174.856 166.189 175.022 166.327C175.187 166.464 175.298 166.656 175.334 166.868L175.537 168.344C175.551 168.472 175.537 168.601 175.496 168.722C175.454 168.844 175.387 168.955 175.298 169.047C175.209 169.139 175.101 169.211 174.981 169.257C174.861 169.304 174.733 169.323 174.605 169.314Z" fill="#242424"/>
<path d="M186.655 169.314H178.119C177.907 169.316 177.702 169.244 177.538 169.11C177.374 168.975 177.263 168.787 177.224 168.579L177.001 167.109C176.985 166.983 176.996 166.856 177.034 166.735C177.072 166.614 177.136 166.503 177.221 166.409C177.306 166.315 177.411 166.24 177.528 166.191C177.644 166.141 177.77 166.117 177.897 166.121H186.328C186.532 166.118 186.73 166.184 186.892 166.308C187.054 166.433 187.168 166.609 187.217 166.807L187.544 168.277C187.57 168.406 187.565 168.539 187.532 168.666C187.498 168.793 187.436 168.911 187.351 169.011C187.265 169.111 187.158 169.19 187.038 169.242C186.917 169.295 186.786 169.319 186.655 169.314Z" fill="#242424"/>
<path d="M198.896 169.314H190.391C190.191 169.318 189.994 169.255 189.834 169.134C189.674 169.013 189.559 168.841 189.508 168.647L189.156 167.171C189.129 167.042 189.131 166.908 189.163 166.78C189.196 166.651 189.257 166.532 189.342 166.431C189.427 166.33 189.534 166.249 189.655 166.196C189.776 166.142 189.907 166.116 190.039 166.121H198.439C198.631 166.119 198.818 166.177 198.975 166.288C199.131 166.399 199.249 166.557 199.31 166.739L199.761 168.209C199.799 168.34 199.806 168.479 199.78 168.614C199.754 168.749 199.696 168.875 199.612 168.983C199.527 169.091 199.418 169.177 199.294 169.235C199.169 169.293 199.033 169.32 198.896 169.314Z" fill="#242424"/>
<path d="M210.768 169.314H202.306C202.115 169.317 201.928 169.259 201.772 169.148C201.617 169.036 201.501 168.878 201.441 168.697L200.966 167.221C200.929 167.088 200.924 166.949 200.95 166.814C200.977 166.679 201.035 166.553 201.12 166.445C201.205 166.336 201.314 166.25 201.438 166.191C201.563 166.133 201.699 166.105 201.837 166.109H210.193C210.375 166.106 210.553 166.158 210.704 166.258C210.855 166.359 210.972 166.502 211.039 166.671L211.62 168.141C211.67 168.275 211.686 168.42 211.666 168.562C211.647 168.705 211.593 168.84 211.508 168.956C211.424 169.072 211.312 169.166 211.183 169.228C211.054 169.291 210.911 169.32 210.768 169.314Z" fill="#242424"/>
<path d="M94.9479 173.23H86.2516C86.1017 173.239 85.9522 173.208 85.8178 173.141C85.6835 173.074 85.569 172.973 85.4859 172.848C85.4028 172.723 85.3539 172.579 85.3441 172.429C85.3343 172.279 85.364 172.129 85.4301 171.994L86.2145 170.345C86.2916 170.198 86.4079 170.074 86.5506 169.988C86.6933 169.902 86.857 169.857 87.0236 169.857H95.6026C95.7455 169.853 95.8874 169.883 96.0158 169.946C96.1442 170.009 96.2551 170.102 96.3387 170.218C96.4224 170.334 96.4762 170.469 96.4953 170.611C96.5145 170.753 96.4985 170.897 96.4488 171.031L95.7817 172.674C95.7126 172.838 95.5967 172.978 95.4484 173.077C95.3002 173.176 95.1261 173.229 94.9479 173.23Z" fill="#242424"/>
<path d="M107.369 173.23H98.6171C98.4749 173.234 98.3338 173.204 98.2061 173.141C98.0784 173.079 97.968 172.986 97.8845 172.87C97.801 172.755 97.747 172.621 97.7272 172.481C97.7074 172.34 97.7224 172.196 97.7709 172.062L98.3886 170.419C98.4575 170.252 98.5749 170.109 98.7257 170.009C98.8765 169.909 99.0537 169.856 99.2347 169.857H107.882C108.02 169.853 108.157 169.881 108.282 169.94C108.407 169.998 108.516 170.086 108.6 170.195C108.685 170.304 108.742 170.432 108.767 170.568C108.793 170.703 108.786 170.843 108.746 170.975L108.221 172.618C108.161 172.796 108.046 172.951 107.893 173.061C107.74 173.17 107.557 173.229 107.369 173.23Z" fill="#242424"/>
<path d="M119.61 173.23H110.821C110.684 173.235 110.548 173.208 110.423 173.15C110.299 173.093 110.19 173.006 110.105 172.899C110.02 172.791 109.962 172.665 109.935 172.53C109.908 172.396 109.913 172.257 109.95 172.124L110.463 170.475C110.522 170.294 110.638 170.136 110.794 170.024C110.949 169.913 111.137 169.855 111.328 169.858H119.975C120.107 169.854 120.239 169.88 120.359 169.935C120.48 169.989 120.587 170.07 120.672 170.172C120.757 170.273 120.818 170.393 120.85 170.522C120.882 170.65 120.885 170.784 120.858 170.914L120.469 172.557C120.419 172.747 120.308 172.916 120.153 173.038C119.998 173.16 119.807 173.227 119.61 173.23Z" fill="#242424"/>
<path d="M132.012 173.23H123.192C123.061 173.235 122.93 173.209 122.81 173.156C122.689 173.103 122.583 173.023 122.498 172.922C122.413 172.822 122.351 172.703 122.319 172.576C122.286 172.448 122.283 172.315 122.309 172.186L122.68 170.543C122.727 170.346 122.841 170.17 123.001 170.046C123.162 169.921 123.36 169.855 123.563 169.858H132.265C132.392 169.854 132.518 169.878 132.635 169.928C132.751 169.977 132.856 170.052 132.941 170.146C133.026 170.239 133.09 170.351 133.128 170.472C133.166 170.593 133.177 170.72 133.161 170.846L132.908 172.489C132.872 172.699 132.762 172.89 132.598 173.026C132.433 173.162 132.225 173.235 132.012 173.23Z" fill="#242424"/>
<path d="M144.365 173.23H135.527C135.401 173.233 135.276 173.21 135.161 173.161C135.045 173.112 134.941 173.039 134.856 172.946C134.771 172.854 134.707 172.744 134.669 172.625C134.63 172.505 134.617 172.379 134.631 172.254L134.866 170.605C134.9 170.393 135.009 170.201 135.174 170.064C135.339 169.927 135.547 169.853 135.761 169.858H144.464C144.585 169.855 144.705 169.877 144.816 169.923C144.928 169.968 145.03 170.036 145.114 170.122C145.199 170.209 145.264 170.311 145.308 170.424C145.351 170.537 145.371 170.657 145.366 170.778L145.254 172.421C145.233 172.642 145.13 172.847 144.966 172.997C144.801 173.146 144.587 173.229 144.365 173.23Z" fill="#242424"/>
<path d="M156.748 173.23H147.904C147.784 173.233 147.664 173.212 147.552 173.168C147.441 173.123 147.339 173.057 147.254 172.972C147.169 172.887 147.103 172.785 147.058 172.673C147.014 172.562 146.993 172.442 146.996 172.322L147.095 170.673C147.112 170.447 147.215 170.237 147.383 170.085C147.551 169.934 147.77 169.852 147.997 169.858H156.724C156.957 169.853 157.182 169.939 157.352 170.098C157.522 170.258 157.622 170.477 157.632 170.71V172.353C157.628 172.586 157.534 172.808 157.369 172.972C157.204 173.136 156.981 173.228 156.748 173.23Z" fill="#242424"/>
<path d="M169.17 173.23H160.294C160.064 173.233 159.842 173.148 159.674 172.991C159.506 172.835 159.405 172.619 159.392 172.39L159.349 170.741C159.349 170.623 159.373 170.507 159.418 170.399C159.464 170.29 159.53 170.192 159.614 170.11C159.698 170.027 159.798 169.963 159.907 169.919C160.016 169.876 160.133 169.855 160.251 169.858H168.978C169.199 169.853 169.414 169.931 169.58 170.076C169.747 170.221 169.854 170.423 169.88 170.642L170.04 172.285C170.05 172.405 170.034 172.526 169.995 172.64C169.955 172.754 169.893 172.859 169.811 172.947C169.729 173.036 169.63 173.107 169.52 173.155C169.409 173.204 169.29 173.229 169.17 173.23Z" fill="#242424"/>
<path d="M181.355 173.23H172.523C172.307 173.229 172.098 173.15 171.936 173.007C171.773 172.864 171.668 172.667 171.64 172.452L171.461 170.803C171.451 170.68 171.468 170.556 171.509 170.44C171.55 170.323 171.615 170.217 171.7 170.127C171.785 170.037 171.888 169.967 172.002 169.919C172.116 169.872 172.239 169.849 172.362 169.852H181.071C181.281 169.848 181.485 169.917 181.649 170.048C181.812 170.179 181.925 170.363 181.967 170.568L182.263 172.211C182.286 172.34 182.279 172.473 182.243 172.599C182.207 172.726 182.143 172.842 182.055 172.94C181.968 173.038 181.86 173.115 181.739 173.165C181.617 173.216 181.486 173.238 181.355 173.23Z" fill="#242424"/>
<path d="M193.733 173.23H184.925C184.719 173.233 184.517 173.165 184.355 173.036C184.193 172.908 184.08 172.728 184.036 172.526L183.715 170.877C183.694 170.748 183.701 170.617 183.737 170.493C183.773 170.368 183.836 170.253 183.921 170.155C184.007 170.058 184.113 169.98 184.232 169.929C184.352 169.877 184.481 169.853 184.61 169.857H193.294C193.492 169.855 193.685 169.918 193.844 170.037C194.002 170.155 194.117 170.322 194.171 170.512L194.61 172.155C194.64 172.286 194.64 172.421 194.61 172.552C194.579 172.682 194.52 172.804 194.435 172.908C194.35 173.011 194.243 173.094 194.121 173.15C194 173.206 193.867 173.233 193.733 173.23Z" fill="#242424"/>
<path d="M206.302 173.23H197.531C197.338 173.235 197.149 173.177 196.991 173.066C196.833 172.955 196.715 172.796 196.654 172.612L196.197 170.97C196.164 170.838 196.161 170.701 196.19 170.568C196.218 170.435 196.278 170.311 196.363 170.206C196.448 170.1 196.557 170.016 196.68 169.96C196.804 169.904 196.939 169.877 197.074 169.882H205.721C205.911 169.883 206.096 169.943 206.25 170.053C206.404 170.164 206.519 170.32 206.58 170.5L207.16 172.143C207.194 172.273 207.197 172.409 207.169 172.54C207.141 172.671 207.083 172.794 207 172.899C206.917 173.004 206.811 173.089 206.69 173.146C206.569 173.204 206.436 173.232 206.302 173.23Z" fill="#242424"/>
<path d="M219.198 171.711C219.292 171.88 219.337 172.072 219.327 172.265C219.317 172.458 219.253 172.644 219.142 172.802C219.031 172.961 218.878 173.085 218.7 173.16C218.522 173.236 218.327 173.26 218.136 173.23H210.854C210.366 173.215 209.891 173.061 209.487 172.786C209.082 172.512 208.764 172.128 208.569 171.68L208.47 171.414C208.389 171.233 208.357 171.033 208.379 170.836C208.401 170.639 208.476 170.451 208.595 170.292C208.714 170.133 208.874 170.009 209.057 169.933C209.24 169.856 209.441 169.83 209.637 169.858H216.66C217.157 169.877 217.64 170.028 218.06 170.295C218.48 170.562 218.821 170.935 219.05 171.377L219.198 171.711Z" fill="#242424"/>
<path d="M230.964 173.23H222.286C222.112 173.231 221.94 173.182 221.793 173.089C221.645 172.996 221.527 172.863 221.452 172.705L220.717 171.062C220.662 170.927 220.64 170.781 220.656 170.636C220.671 170.491 220.723 170.352 220.806 170.232C220.889 170.112 221 170.015 221.131 169.95C221.261 169.884 221.406 169.852 221.551 169.857H230.093C230.26 169.857 230.424 169.901 230.567 169.986C230.711 170.071 230.828 170.193 230.908 170.339L231.761 171.982C231.827 172.116 231.857 172.264 231.849 172.413C231.841 172.561 231.795 172.705 231.714 172.831C231.634 172.956 231.523 173.059 231.392 173.129C231.26 173.199 231.113 173.233 230.964 173.23Z" fill="#242424"/>
<path d="M96.4366 177.393H87.4253C87.2795 177.398 87.1348 177.367 87.0044 177.302C86.8741 177.236 86.7625 177.139 86.6799 177.019C86.5973 176.898 86.5464 176.759 86.532 176.614C86.5177 176.469 86.5402 176.323 86.5976 176.188L87.4314 174.336C87.5072 174.179 87.6258 174.047 87.7733 173.956C87.9209 173.864 88.0915 173.816 88.2652 173.817H97.1469C97.2883 173.813 97.4286 173.843 97.5556 173.905C97.6826 173.968 97.7926 174.06 97.8759 174.174C97.9592 174.289 98.0134 174.422 98.0338 174.562C98.0543 174.702 98.0402 174.845 97.993 174.978L97.2889 176.831C97.2203 177 97.1021 177.144 96.9499 177.244C96.7978 177.344 96.6188 177.396 96.4366 177.393Z" fill="#242424"/>
<path d="M109.209 177.393H100.148C100.007 177.399 99.867 177.37 99.7397 177.309C99.6124 177.249 99.5019 177.158 99.4178 177.044C99.3338 176.931 99.2787 176.799 99.2574 176.659C99.2362 176.52 99.2494 176.377 99.2958 176.244L99.9752 174.391C100.042 174.219 100.161 174.072 100.314 173.969C100.468 173.866 100.649 173.813 100.834 173.817H109.759C109.895 173.812 110.031 173.839 110.155 173.897C110.278 173.954 110.387 174.04 110.472 174.147C110.557 174.254 110.615 174.379 110.642 174.513C110.67 174.646 110.665 174.785 110.629 174.916L110.08 176.769C110.02 176.953 109.904 177.112 109.747 177.224C109.59 177.337 109.402 177.396 109.209 177.393Z" fill="#242424"/>
<path d="M121.797 177.393H112.699C112.563 177.399 112.428 177.372 112.305 177.316C112.181 177.26 112.073 177.175 111.988 177.07C111.902 176.964 111.843 176.84 111.814 176.708C111.785 176.575 111.788 176.438 111.822 176.306L112.353 174.453C112.415 174.271 112.533 174.112 112.691 174.001C112.848 173.89 113.037 173.832 113.23 173.836H122.229C122.36 173.833 122.489 173.859 122.608 173.912C122.728 173.965 122.833 174.045 122.918 174.144C123.003 174.243 123.064 174.361 123.098 174.487C123.131 174.613 123.136 174.745 123.112 174.873L122.717 176.726C122.664 176.927 122.544 177.103 122.376 177.224C122.208 177.346 122.004 177.406 121.797 177.393Z" fill="#242424"/>
<path d="M134.582 177.393H125.428C125.298 177.398 125.168 177.373 125.049 177.321C124.93 177.27 124.823 177.192 124.738 177.093C124.653 176.995 124.59 176.879 124.556 176.753C124.521 176.627 124.516 176.496 124.539 176.368L124.916 174.515C124.961 174.314 125.074 174.135 125.236 174.008C125.398 173.88 125.599 173.813 125.805 173.817H134.798C134.923 173.813 135.047 173.837 135.162 173.885C135.277 173.934 135.381 174.007 135.466 174.098C135.55 174.19 135.615 174.299 135.654 174.418C135.693 174.536 135.707 174.662 135.693 174.786L135.452 176.639C135.42 176.848 135.315 177.038 135.155 177.176C134.996 177.314 134.793 177.391 134.582 177.393Z" fill="#242424"/>
<path d="M147.255 177.393H138.114C137.99 177.397 137.866 177.375 137.751 177.327C137.636 177.28 137.533 177.209 137.448 177.118C137.362 177.027 137.297 176.92 137.257 176.802C137.216 176.685 137.201 176.56 137.213 176.436L137.435 174.583C137.465 174.367 137.574 174.17 137.74 174.028C137.906 173.887 138.119 173.812 138.337 173.817H147.348C147.467 173.815 147.586 173.836 147.696 173.881C147.807 173.925 147.907 173.991 147.991 174.076C148.076 174.16 148.142 174.26 148.186 174.371C148.231 174.481 148.252 174.6 148.25 174.719L148.163 176.572C148.148 176.8 148.044 177.012 147.875 177.165C147.706 177.319 147.484 177.4 147.255 177.393Z" fill="#242424"/>
<path d="M159.991 177.393H150.838C150.72 177.396 150.602 177.376 150.492 177.332C150.382 177.289 150.281 177.224 150.197 177.141C150.113 177.058 150.046 176.958 150.002 176.849C149.957 176.739 149.934 176.622 149.936 176.504L150.004 174.651C150.018 174.423 150.12 174.209 150.288 174.053C150.456 173.898 150.677 173.813 150.906 173.817H159.905C160.133 173.813 160.355 173.898 160.523 174.053C160.691 174.209 160.792 174.423 160.807 174.651L160.874 176.504C160.875 176.62 160.853 176.736 160.809 176.844C160.765 176.951 160.7 177.05 160.618 177.132C160.536 177.215 160.438 177.281 160.331 177.325C160.223 177.37 160.108 177.393 159.991 177.393Z" fill="#242424"/>
<path d="M172.733 177.393H163.611C163.384 177.399 163.163 177.316 162.996 177.163C162.828 177.01 162.725 176.798 162.709 176.572L162.623 174.719C162.62 174.6 162.642 174.481 162.686 174.371C162.731 174.26 162.797 174.16 162.881 174.076C162.965 173.991 163.066 173.925 163.176 173.881C163.287 173.836 163.405 173.815 163.525 173.817H172.542C172.759 173.812 172.971 173.888 173.136 174.029C173.301 174.17 173.409 174.367 173.438 174.583L173.66 176.436C173.672 176.562 173.656 176.689 173.614 176.808C173.572 176.928 173.505 177.037 173.417 177.128C173.329 177.219 173.222 177.29 173.104 177.335C172.986 177.381 172.86 177.401 172.733 177.393Z" fill="#242424"/>
<path d="M185.296 177.393H176.167C175.951 177.399 175.74 177.325 175.574 177.187C175.408 177.048 175.298 176.854 175.265 176.64L175.024 174.787C175.012 174.662 175.026 174.536 175.066 174.418C175.106 174.299 175.171 174.19 175.256 174.099C175.342 174.007 175.446 173.934 175.561 173.886C175.676 173.837 175.801 173.814 175.926 173.817H184.919C185.125 173.814 185.326 173.881 185.488 174.008C185.65 174.135 185.763 174.314 185.808 174.515L186.185 176.368C186.208 176.496 186.202 176.628 186.168 176.753C186.133 176.879 186.071 176.995 185.986 177.094C185.901 177.192 185.794 177.27 185.675 177.322C185.555 177.374 185.426 177.398 185.296 177.393Z" fill="#242424"/>
<path d="M198.025 177.393H188.934C188.73 177.397 188.53 177.332 188.368 177.207C188.207 177.082 188.092 176.906 188.044 176.707L187.655 174.855C187.63 174.726 187.634 174.593 187.668 174.467C187.701 174.34 187.762 174.223 187.847 174.123C187.932 174.023 188.038 173.944 188.158 173.891C188.278 173.838 188.408 173.813 188.539 173.817H197.507C197.7 173.813 197.888 173.871 198.046 173.982C198.204 174.093 198.322 174.252 198.384 174.435L198.909 176.287C198.946 176.421 198.951 176.561 198.924 176.696C198.896 176.832 198.837 176.959 198.751 177.067C198.664 177.175 198.554 177.261 198.428 177.318C198.301 177.374 198.164 177.4 198.025 177.393Z" fill="#242424"/>
<path d="M210.947 177.393H201.904C201.712 177.396 201.524 177.338 201.368 177.227C201.211 177.116 201.094 176.957 201.033 176.775L200.484 174.922C200.448 174.791 200.443 174.652 200.471 174.519C200.498 174.385 200.557 174.259 200.641 174.152C200.726 174.045 200.835 173.96 200.959 173.903C201.083 173.845 201.218 173.818 201.355 173.823H210.28C210.464 173.819 210.646 173.872 210.799 173.975C210.953 174.078 211.071 174.225 211.138 174.397L211.824 176.25C211.868 176.385 211.879 176.529 211.855 176.669C211.832 176.809 211.774 176.941 211.688 177.054C211.601 177.166 211.488 177.256 211.359 177.315C211.23 177.374 211.088 177.401 210.947 177.393Z" fill="#242424"/>
<path d="M223.521 177.393H214.479C214.297 177.397 214.118 177.345 213.966 177.244C213.813 177.144 213.695 177 213.627 176.831L212.923 174.978C212.875 174.844 212.861 174.701 212.882 174.56C212.903 174.42 212.957 174.286 213.041 174.172C213.125 174.057 213.236 173.965 213.364 173.903C213.492 173.841 213.633 173.812 213.775 173.817H222.657C222.83 173.815 223 173.863 223.147 173.955C223.293 174.047 223.411 174.179 223.484 174.336L224.324 176.189C224.381 176.321 224.403 176.465 224.39 176.608C224.377 176.751 224.328 176.889 224.248 177.008C224.169 177.128 224.061 177.225 223.934 177.293C223.807 177.36 223.665 177.394 223.521 177.393Z" fill="#242424"/>
<path d="M88.1786 181.778H78.877C78.7278 181.785 78.5793 181.753 78.446 181.686C78.3126 181.619 78.1991 181.518 78.1163 181.393C78.0336 181.269 77.9845 181.125 77.9739 180.976C77.9632 180.827 77.9914 180.678 78.0556 180.543L79.0747 178.499C79.1538 178.35 79.2723 178.226 79.4171 178.14C79.562 178.054 79.7277 178.009 79.8961 178.011H89.0495C89.1939 178.004 89.3376 178.034 89.4674 178.098C89.5972 178.162 89.709 178.257 89.7926 178.375C89.8762 178.493 89.9288 178.63 89.9457 178.773C89.9627 178.917 89.9433 179.062 89.8895 179.196L89.0186 181.235C88.9466 181.397 88.8288 181.535 88.6796 181.632C88.5304 181.728 88.3563 181.779 88.1786 181.778Z" fill="#242424"/>
<path d="M101.316 181.778H91.9645C91.8208 181.784 91.6781 181.753 91.549 181.69C91.4199 181.627 91.3085 181.533 91.2247 181.416C91.141 181.299 91.0874 181.163 91.0688 181.021C91.0503 180.878 91.0673 180.733 91.1183 180.599L91.9645 178.561C92.0376 178.398 92.1565 178.26 92.3068 178.163C92.457 178.066 92.6321 178.016 92.8107 178.017H102.013C102.153 178.011 102.291 178.038 102.417 178.096C102.544 178.155 102.654 178.243 102.739 178.354C102.824 178.464 102.881 178.593 102.905 178.73C102.929 178.867 102.92 179.008 102.878 179.141L102.18 181.186C102.115 181.362 101.997 181.513 101.842 181.619C101.687 181.726 101.503 181.781 101.316 181.778Z" fill="#242424"/>
<path d="M114.274 181.778H104.873C104.735 181.783 104.598 181.755 104.473 181.696C104.348 181.638 104.239 181.55 104.155 181.441C104.07 181.332 104.013 181.204 103.988 181.068C103.962 180.933 103.969 180.793 104.009 180.66L104.688 178.616C104.748 178.435 104.864 178.277 105.02 178.166C105.175 178.055 105.362 177.997 105.553 177.998H114.817C114.951 177.994 115.084 178.021 115.206 178.076C115.328 178.131 115.435 178.213 115.521 178.316C115.606 178.419 115.666 178.541 115.698 178.671C115.729 178.801 115.73 178.936 115.7 179.067L115.169 181.105C115.118 181.302 115.001 181.476 114.839 181.598C114.676 181.72 114.477 181.784 114.274 181.778Z" fill="#242424"/>
<path d="M127.399 181.778H117.967C117.834 181.783 117.702 181.758 117.581 181.704C117.459 181.65 117.352 181.569 117.267 181.467C117.182 181.365 117.121 181.245 117.089 181.116C117.057 180.986 117.056 180.852 117.084 180.722L117.591 178.678C117.643 178.485 117.758 178.315 117.918 178.195C118.078 178.075 118.274 178.013 118.474 178.017H127.738C127.866 178.014 127.993 178.039 128.11 178.089C128.227 178.14 128.331 178.216 128.417 178.311C128.502 178.406 128.565 178.518 128.603 178.64C128.64 178.762 128.651 178.891 128.634 179.017L128.276 181.062C128.234 181.264 128.125 181.446 127.965 181.576C127.805 181.707 127.605 181.778 127.399 181.778Z" fill="#242424"/>
<path d="M140.474 181.778H131.018C130.89 181.782 130.764 181.758 130.647 181.708C130.53 181.658 130.425 181.583 130.34 181.489C130.254 181.394 130.191 181.282 130.153 181.16C130.116 181.039 130.105 180.91 130.122 180.784L130.456 178.746C130.495 178.538 130.606 178.351 130.77 178.218C130.934 178.084 131.14 178.013 131.351 178.017H140.659C140.781 178.013 140.903 178.035 141.016 178.081C141.129 178.127 141.231 178.196 141.316 178.284C141.401 178.372 141.467 178.476 141.509 178.591C141.551 178.706 141.569 178.828 141.561 178.95L141.376 180.994C141.35 181.213 141.243 181.415 141.076 181.56C140.909 181.705 140.695 181.783 140.474 181.778Z" fill="#242424"/>
<path d="M153.574 181.778H144.112C143.99 181.782 143.869 181.76 143.756 181.715C143.643 181.669 143.54 181.601 143.455 181.514C143.37 181.427 143.303 181.323 143.26 181.209C143.217 181.095 143.198 180.974 143.204 180.852L143.37 178.814C143.392 178.592 143.497 178.386 143.665 178.238C143.832 178.09 144.049 178.011 144.272 178.017H153.592C153.709 178.014 153.824 178.034 153.933 178.075C154.041 178.117 154.14 178.18 154.224 178.261C154.308 178.341 154.375 178.437 154.421 178.544C154.468 178.651 154.493 178.765 154.494 178.882V180.926C154.49 181.043 154.463 181.157 154.415 181.263C154.366 181.369 154.297 181.465 154.212 181.544C154.126 181.623 154.026 181.685 153.916 181.725C153.807 181.765 153.69 181.783 153.574 181.778Z" fill="#242424"/>
<path d="M166.699 181.778H157.224C156.991 181.783 156.764 181.696 156.594 181.535C156.424 181.375 156.324 181.154 156.316 180.92V178.882C156.323 178.647 156.422 178.424 156.592 178.262C156.762 178.1 156.989 178.012 157.224 178.017H166.544C166.768 178.011 166.985 178.09 167.152 178.238C167.319 178.386 167.424 178.591 167.446 178.814L167.607 180.852C167.613 180.974 167.594 181.095 167.55 181.209C167.507 181.323 167.441 181.427 167.355 181.514C167.27 181.601 167.168 181.669 167.055 181.715C166.942 181.76 166.821 181.782 166.699 181.778Z" fill="#242424"/>
<path d="M179.614 181.778H170.158C169.936 181.783 169.721 181.704 169.554 181.558C169.387 181.412 169.281 181.208 169.256 180.988L169.077 178.95C169.069 178.828 169.087 178.706 169.129 178.591C169.171 178.476 169.237 178.372 169.322 178.284C169.407 178.196 169.509 178.127 169.622 178.081C169.735 178.035 169.857 178.013 169.979 178.017H179.287C179.498 178.012 179.705 178.083 179.869 178.216C180.033 178.35 180.144 178.538 180.182 178.746L180.509 180.79C180.527 180.916 180.516 181.044 180.479 181.166C180.441 181.287 180.377 181.399 180.292 181.493C180.207 181.587 180.102 181.661 179.985 181.711C179.867 181.76 179.741 181.783 179.614 181.778Z" fill="#242424"/>
<path d="M192.714 181.778H183.282C183.072 181.782 182.867 181.712 182.703 181.58C182.539 181.447 182.427 181.262 182.387 181.055L182.035 179.017C182.017 178.89 182.026 178.761 182.064 178.639C182.101 178.516 182.164 178.404 182.249 178.308C182.335 178.213 182.44 178.137 182.558 178.087C182.675 178.037 182.802 178.013 182.93 178.017H192.195C192.396 178.012 192.592 178.075 192.753 178.196C192.913 178.317 193.028 178.489 193.078 178.684L193.578 180.722C193.606 180.85 193.605 180.983 193.574 181.111C193.544 181.238 193.484 181.357 193.401 181.459C193.318 181.56 193.213 181.642 193.094 181.697C192.975 181.752 192.845 181.78 192.714 181.778Z" fill="#242424"/>
<path d="M206.018 181.778H196.617C196.414 181.782 196.216 181.717 196.054 181.593C195.893 181.47 195.778 181.296 195.728 181.099L195.197 179.061C195.167 178.93 195.168 178.795 195.199 178.664C195.231 178.534 195.291 178.413 195.376 178.31C195.462 178.207 195.569 178.125 195.691 178.07C195.813 178.014 195.946 177.988 196.08 177.992H205.344C205.536 177.989 205.723 178.048 205.878 178.159C206.034 178.27 206.15 178.428 206.209 178.61L206.888 180.654C206.929 180.787 206.937 180.928 206.912 181.065C206.887 181.202 206.829 181.331 206.744 181.442C206.659 181.552 206.548 181.64 206.422 181.698C206.295 181.757 206.157 181.784 206.018 181.778Z" fill="#242424"/>
<path d="M218.926 181.778H209.569C209.379 181.779 209.194 181.719 209.039 181.609C208.885 181.498 208.77 181.341 208.71 181.161L208.012 179.116C207.97 178.983 207.961 178.843 207.985 178.705C208.01 178.568 208.067 178.439 208.151 178.329C208.236 178.218 208.347 178.13 208.473 178.071C208.599 178.013 208.738 177.986 208.877 177.992H218.08C218.259 177.989 218.434 178.039 218.585 178.136C218.736 178.233 218.854 178.372 218.926 178.536L219.766 180.58C219.822 180.715 219.844 180.862 219.828 181.007C219.813 181.152 219.761 181.291 219.677 181.411C219.593 181.531 219.48 181.627 219.349 181.691C219.217 181.756 219.072 181.785 218.926 181.778Z" fill="#242424"/>
<path d="M248.511 181.778H222.842C222.665 181.781 222.49 181.732 222.341 181.636C222.191 181.541 222.074 181.403 222.002 181.241L221.131 179.203C221.077 179.069 221.058 178.923 221.075 178.78C221.092 178.636 221.144 178.499 221.228 178.381C221.311 178.263 221.423 178.168 221.553 178.104C221.683 178.041 221.827 178.011 221.971 178.017H247.294C247.451 178.015 247.606 178.054 247.743 178.13C247.881 178.205 247.996 178.316 248.079 178.449L249.314 180.487C249.391 180.623 249.43 180.776 249.427 180.932C249.424 181.088 249.379 181.24 249.297 181.372C249.214 181.504 249.098 181.612 248.96 181.683C248.821 181.755 248.666 181.788 248.511 181.778Z" fill="#242424"/>
<path d="M236.312 177.393H227.357C227.185 177.395 227.016 177.348 226.87 177.258C226.724 177.169 226.605 177.04 226.529 176.886L225.67 175.033C225.606 174.898 225.578 174.748 225.589 174.599C225.6 174.449 225.649 174.305 225.733 174.18C225.816 174.056 225.931 173.955 226.065 173.888C226.199 173.821 226.348 173.79 226.498 173.798H235.318C235.483 173.796 235.645 173.839 235.787 173.922C235.93 174.004 236.047 174.124 236.127 174.268L237.121 176.12C237.194 176.256 237.229 176.408 237.224 176.561C237.218 176.715 237.172 176.864 237.089 176.993C237.007 177.123 236.891 177.228 236.755 177.298C236.618 177.369 236.466 177.401 236.312 177.393Z" fill="#242424"/>
<path d="M222.805 169.314H214.393C214.213 169.318 214.036 169.267 213.885 169.169C213.735 169.071 213.617 168.93 213.546 168.765L212.929 167.295C212.878 167.161 212.86 167.017 212.879 166.875C212.897 166.733 212.95 166.598 213.033 166.482C213.116 166.366 213.227 166.272 213.356 166.209C213.484 166.146 213.626 166.116 213.769 166.121H222.101C222.272 166.119 222.441 166.166 222.587 166.256C222.734 166.345 222.852 166.474 222.928 166.628L223.626 168.098C223.686 168.232 223.711 168.379 223.698 168.525C223.685 168.672 223.636 168.812 223.553 168.934C223.471 169.056 223.359 169.155 223.228 169.221C223.097 169.288 222.952 169.32 222.805 169.314Z" fill="#242424"/>
<path d="M241.593 169.889H233.687C232.977 169.889 232.502 170.074 232.619 170.309L233.959 172.823C234.089 173.063 234.787 173.255 235.509 173.255H236.745C236.907 173.255 237.067 173.298 237.208 173.379C237.349 173.46 237.466 173.577 237.548 173.718L239.326 176.942C239.468 177.195 240.191 177.399 240.938 177.399H246.034C246.781 177.399 247.269 177.195 247.109 176.942L243.1 170.309C242.666 169.99 242.13 169.84 241.593 169.889Z" fill="#242424"/>
<path d="M240.97 169.314H226.61C226.441 169.316 226.276 169.271 226.131 169.184C225.987 169.096 225.871 168.97 225.794 168.82L225.072 167.35C225.01 167.215 224.983 167.066 224.994 166.918C225.006 166.77 225.055 166.627 225.137 166.503C225.22 166.379 225.332 166.278 225.465 166.21C225.597 166.142 225.745 166.11 225.893 166.115H240.056C240.213 166.114 240.367 166.153 240.505 166.228C240.642 166.304 240.757 166.414 240.84 166.547L241.73 168.017C241.806 168.149 241.846 168.299 241.845 168.452C241.845 168.605 241.804 168.755 241.727 168.887C241.65 169.018 241.539 169.127 241.406 169.202C241.273 169.278 241.123 169.316 240.97 169.314Z" fill="#242424"/>
<path d="M92.8176 165.559H84.3868C84.2381 165.565 84.0904 165.532 83.9579 165.464C83.8255 165.396 83.7128 165.295 83.6308 165.171C83.5488 165.047 83.5003 164.904 83.4899 164.755C83.4795 164.607 83.5076 164.458 83.5716 164.324V164.262C83.6505 164.115 83.7682 163.992 83.9119 163.907C84.0557 163.822 84.2199 163.778 84.3868 163.78H92.8423C92.9877 163.774 93.1324 163.805 93.2628 163.869C93.3932 163.934 93.5052 164.031 93.5884 164.15C93.6715 164.27 93.7232 164.408 93.7385 164.553C93.7539 164.698 93.7324 164.844 93.6761 164.978V165.04C93.5991 165.201 93.4769 165.336 93.3244 165.428C93.1718 165.52 92.9957 165.565 92.8176 165.559Z" fill="#242424"/>
<path d="M105.071 165.559H96.5849C96.441 165.564 96.298 165.533 96.169 165.469C96.0401 165.405 95.9291 165.31 95.8463 165.192C95.7635 165.074 95.7114 164.938 95.6948 164.795C95.6781 164.652 95.6975 164.507 95.751 164.373V164.311C95.8234 164.15 95.9414 164.012 96.0907 163.917C96.2399 163.821 96.4139 163.772 96.591 163.774H105.071C105.211 163.769 105.349 163.798 105.475 163.858C105.601 163.918 105.711 164.008 105.795 164.119C105.88 164.231 105.936 164.361 105.959 164.498C105.982 164.636 105.972 164.777 105.93 164.91V164.972C105.865 165.147 105.747 165.297 105.594 165.402C105.44 165.507 105.257 165.562 105.071 165.559Z" fill="#242424"/>
<path d="M117.146 165.559H108.641C108.501 165.564 108.363 165.536 108.237 165.477C108.11 165.417 108 165.329 107.916 165.218C107.831 165.107 107.774 164.978 107.75 164.84C107.725 164.703 107.734 164.562 107.776 164.429V164.367C107.837 164.186 107.953 164.029 108.109 163.918C108.264 163.808 108.45 163.748 108.641 163.749H117.164C117.298 163.746 117.431 163.773 117.553 163.829C117.674 163.885 117.782 163.968 117.866 164.072C117.951 164.175 118.011 164.297 118.041 164.427C118.071 164.558 118.071 164.694 118.041 164.824V164.886C117.991 165.083 117.874 165.257 117.712 165.38C117.549 165.502 117.349 165.565 117.146 165.559Z" fill="#242424"/>
<path d="M129.394 165.559H120.827C120.694 165.563 120.562 165.536 120.441 165.482C120.319 165.427 120.212 165.345 120.127 165.243C120.042 165.141 119.981 165.02 119.949 164.891C119.918 164.762 119.916 164.627 119.944 164.497V164.435C119.996 164.243 120.111 164.074 120.27 163.954C120.428 163.835 120.622 163.771 120.821 163.774H129.388C129.516 163.77 129.644 163.794 129.762 163.845C129.88 163.895 129.985 163.972 130.07 164.068C130.155 164.164 130.217 164.278 130.253 164.401C130.289 164.524 130.297 164.654 130.277 164.781V164.842C130.236 165.046 130.125 165.228 129.964 165.359C129.803 165.49 129.601 165.56 129.394 165.559Z" fill="#242424"/>
<path d="M141.475 165.559H132.883C132.756 165.562 132.629 165.537 132.512 165.487C132.395 165.436 132.29 165.36 132.205 165.265C132.12 165.17 132.056 165.058 132.019 164.936C131.981 164.814 131.971 164.685 131.988 164.559V164.503C132.027 164.295 132.139 164.108 132.302 163.975C132.466 163.842 132.672 163.77 132.883 163.774H141.469C141.591 163.771 141.713 163.794 141.826 163.841C141.939 163.887 142.041 163.957 142.126 164.045C142.211 164.134 142.276 164.239 142.318 164.353C142.36 164.468 142.378 164.591 142.37 164.713V164.775C142.346 164.994 142.24 165.195 142.075 165.341C141.909 165.486 141.695 165.564 141.475 165.559Z" fill="#242424"/>
<path d="M153.728 165.559H145.081C144.96 165.563 144.839 165.541 144.726 165.496C144.614 165.45 144.512 165.381 144.427 165.294C144.342 165.207 144.276 165.103 144.234 164.99C144.191 164.876 144.173 164.754 144.18 164.633V164.571C144.201 164.349 144.307 164.143 144.474 163.995C144.641 163.848 144.858 163.769 145.081 163.774H153.728C153.845 163.771 153.962 163.791 154.071 163.833C154.18 163.875 154.28 163.939 154.364 164.02C154.449 164.101 154.516 164.198 154.563 164.305C154.61 164.413 154.635 164.528 154.636 164.645V164.701C154.633 164.817 154.607 164.931 154.56 165.037C154.512 165.143 154.444 165.238 154.36 165.318C154.276 165.398 154.177 165.46 154.068 165.502C153.96 165.543 153.844 165.563 153.728 165.559Z" fill="#242424"/>
<path d="M165.76 165.559H157.156C157.04 165.563 156.925 165.543 156.817 165.502C156.708 165.46 156.609 165.398 156.525 165.318C156.44 165.238 156.372 165.143 156.325 165.037C156.278 164.931 156.252 164.817 156.249 164.701V164.639C156.251 164.522 156.276 164.408 156.323 164.301C156.37 164.194 156.438 164.098 156.522 164.018C156.607 163.937 156.706 163.874 156.815 163.833C156.924 163.791 157.04 163.771 157.156 163.774H165.754C165.978 163.768 166.196 163.847 166.364 163.995C166.532 164.143 166.639 164.348 166.662 164.571V164.633C166.669 164.754 166.65 164.876 166.608 164.99C166.565 165.103 166.5 165.207 166.415 165.294C166.33 165.381 166.228 165.45 166.115 165.496C166.003 165.541 165.882 165.563 165.76 165.559Z" fill="#242424"/>
<path d="M178.002 165.559H169.405C169.184 165.564 168.969 165.486 168.802 165.341C168.636 165.196 168.529 164.994 168.503 164.775V164.713C168.495 164.59 168.513 164.467 168.555 164.352C168.598 164.237 168.664 164.132 168.749 164.043C168.835 163.955 168.938 163.885 169.052 163.839C169.166 163.793 169.288 163.771 169.411 163.774H177.996C178.207 163.771 178.413 163.842 178.577 163.975C178.741 164.109 178.852 164.296 178.891 164.503V164.559C178.908 164.685 178.898 164.813 178.861 164.934C178.824 165.056 178.761 165.168 178.676 165.263C178.592 165.358 178.488 165.434 178.371 165.485C178.255 165.536 178.129 165.561 178.002 165.559Z" fill="#242424"/>
<path d="M190.057 165.559H181.521C181.312 165.563 181.108 165.494 180.944 165.363C180.78 165.232 180.668 165.048 180.626 164.842V164.781C180.607 164.654 180.616 164.524 180.653 164.401C180.689 164.277 180.753 164.164 180.838 164.068C180.923 163.972 181.029 163.895 181.147 163.845C181.265 163.794 181.393 163.77 181.521 163.774H190.045C190.244 163.771 190.438 163.834 190.597 163.954C190.755 164.074 190.87 164.243 190.922 164.435V164.497C190.95 164.625 190.948 164.758 190.918 164.886C190.887 165.014 190.828 165.133 190.745 165.236C190.662 165.338 190.557 165.42 190.438 165.476C190.319 165.531 190.189 165.56 190.057 165.559Z" fill="#242424"/>
<path d="M202.269 165.559H193.739C193.541 165.562 193.348 165.5 193.189 165.383C193.029 165.266 192.912 165.1 192.856 164.91V164.849C192.824 164.718 192.823 164.582 192.853 164.451C192.883 164.32 192.943 164.198 193.028 164.094C193.113 163.99 193.22 163.907 193.343 163.851C193.465 163.796 193.599 163.769 193.733 163.774H202.262C202.453 163.772 202.638 163.831 202.793 163.943C202.947 164.054 203.062 164.211 203.121 164.392V164.447C203.159 164.578 203.165 164.716 203.14 164.85C203.115 164.984 203.058 165.11 202.975 165.218C202.892 165.326 202.785 165.413 202.663 165.473C202.54 165.532 202.405 165.561 202.269 165.559Z" fill="#242424"/>
<path d="M214.294 165.559H205.808C205.618 165.56 205.433 165.5 205.279 165.389C205.124 165.278 205.009 165.122 204.949 164.941V164.88C204.907 164.747 204.897 164.605 204.92 164.468C204.943 164.33 205 164.2 205.084 164.089C205.168 163.977 205.278 163.888 205.404 163.828C205.53 163.767 205.668 163.738 205.808 163.743H214.257C214.434 163.742 214.608 163.792 214.757 163.887C214.906 163.983 215.024 164.119 215.097 164.281V164.342C215.156 164.475 215.181 164.62 215.169 164.765C215.157 164.91 215.109 165.049 215.029 165.171C214.949 165.292 214.84 165.391 214.711 165.459C214.583 165.527 214.439 165.561 214.294 165.559Z" fill="#242424"/>
<path d="M226.479 165.559H218.055C217.878 165.561 217.705 165.512 217.556 165.418C217.407 165.324 217.289 165.188 217.215 165.028V164.973C217.166 164.842 217.15 164.701 217.167 164.563C217.184 164.424 217.235 164.292 217.314 164.177C217.394 164.063 217.5 163.969 217.623 163.904C217.747 163.839 217.884 163.805 218.024 163.805H226.449C226.615 163.805 226.779 163.849 226.922 163.934C227.066 164.019 227.184 164.141 227.264 164.287L227.295 164.349C227.353 164.482 227.377 164.628 227.363 164.773C227.35 164.918 227.301 165.057 227.22 165.178C227.138 165.299 227.028 165.397 226.898 165.464C226.769 165.53 226.625 165.563 226.479 165.559Z" fill="#242424"/>
<path d="M238.499 165.559H230.136C229.971 165.561 229.808 165.518 229.665 165.434C229.523 165.35 229.406 165.229 229.327 165.084V165.022C229.263 164.888 229.235 164.74 229.245 164.592C229.255 164.444 229.303 164.301 229.385 164.177C229.466 164.053 229.578 163.952 229.709 163.884C229.841 163.815 229.988 163.782 230.136 163.787H238.493C238.649 163.785 238.804 163.824 238.941 163.9C239.079 163.976 239.194 164.086 239.277 164.219L239.314 164.281C239.389 164.417 239.425 164.57 239.42 164.725C239.415 164.88 239.368 165.031 239.285 165.161C239.202 165.292 239.085 165.398 238.946 165.468C238.808 165.538 238.653 165.569 238.499 165.559Z" fill="#242424"/>
<path d="M70.7674 158.506C69.5525 158.504 68.3878 158.021 67.5287 157.162C66.6696 156.302 66.1862 155.138 66.1846 153.923V52.303C66.2025 49.7552 67.2302 47.3184 69.0423 45.5273C70.8543 43.7361 73.3027 42.7366 75.8506 42.7481H234.935C237.483 42.7366 239.932 43.7361 241.744 45.5273C243.556 47.3184 244.583 49.7552 244.601 52.303V153.923C244.6 155.138 244.116 156.302 243.257 157.162C242.398 158.021 241.233 158.504 240.019 158.506H70.7674Z" fill="#F1F2F2"/>
<path d="M234.936 43.3659H75.8508C73.4646 43.3511 71.1701 44.284 69.4712 45.9597C67.7723 47.6354 66.808 49.9169 66.79 52.3031V153.923C66.79 154.978 67.2091 155.99 67.955 156.735C68.701 157.481 69.7127 157.9 70.7676 157.9H240C241.055 157.9 242.067 157.481 242.813 156.735C243.559 155.99 243.978 154.978 243.978 153.923V52.3031C243.96 49.9201 242.998 47.6415 241.303 45.9663C239.608 44.2911 237.319 43.356 234.936 43.3659Z" fill="#D2D3D4"/>
<path opacity="0.6" d="M154.901 46.3675C154.637 46.3614 154.377 46.4342 154.155 46.5765C153.933 46.7189 153.758 46.9244 153.652 47.1668C153.547 47.4091 153.517 47.6773 153.565 47.937C153.613 48.1967 153.738 48.4361 153.923 48.6246C154.108 48.8132 154.345 48.9422 154.604 48.9953C154.863 49.0484 155.131 49.0231 155.376 48.9226C155.62 48.8221 155.829 48.6511 155.975 48.4313C156.122 48.2116 156.199 47.9531 156.198 47.689C156.197 47.3432 156.06 47.0117 155.818 46.7649C155.576 46.5182 155.247 46.3756 154.901 46.3675Z" fill="#231F20"/>
<path d="M236.77 51.9634H74.0166V155.776H236.77V51.9634Z" fill="#939598"/>
<path d="M236.467 52.2661H74.3188V155.473H236.467V52.2661Z" fill="#6699FF"/>
<path opacity="0.57" d="M120.527 52.6304H85.7881L193.923 155.158H204.169H236.492L128.357 52.6304H120.527Z" fill="#8FB4FF"/>
<path opacity="0.57" d="M74.0532 72.25L161.184 155.158H175.963L74.0532 58.189V72.25Z" fill="#ADC8FF"/>
<path d="M65.0105 128.177C65.068 127.78 65.1203 127.359 65.3673 127.043C65.6143 126.727 66.1335 126.589 66.4123 126.877C67.095 127.564 66.805 127.633 67.738 127.463C69.1132 127.212 70.2348 125.62 71.3508 126.857C72.4365 128.06 71.5577 128.568 70.4347 129.093C69.5512 129.508 68.5654 129.872 67.8935 130.616C67.4508 131.106 66.149 133.219 66.149 133.793C66.0887 133.898 66.0238 134.007 65.9183 134.065C65.7287 134.168 65.4957 134.065 65.314 133.948C62.9951 132.457 64.6953 130.368 65.0105 128.177Z" fill="#E5AF90"/>
<path d="M19.8105 153.423C17.7124 157.047 15.2062 160.62 14.616 164.76C14.3971 166.294 14.5169 168.022 15.5983 169.139C16.6735 170.248 18.3659 170.435 19.9115 170.556C22.2558 163.92 24.6007 157.283 26.9451 150.647C28.1066 147.359 29.2677 144.071 30.4293 140.783C31.3045 138.306 33.6455 134.263 33.4417 131.713C30.334 131.674 27.4966 138.614 26.3048 140.859C24.0935 145.023 22.1747 149.338 19.8105 153.423Z" fill="#6666FF"/>
<path d="M58.743 184.078C58.3488 180.664 56.6411 177.953 53.4859 176.468C50.927 175.264 48.0503 174.981 45.2467 174.62C39.0022 173.817 33.041 173.014 26.7357 173.263C21.6934 173.462 18.5859 177.773 16.226 182.025C14.7388 184.705 15.1521 185.962 17.0242 188.207C18.7502 190.276 20.8456 192.037 23.1858 193.37C27.8199 196.009 34.9383 195.357 40.0415 194.786C44.8586 194.248 49.5732 192.806 53.8693 190.557C56.6341 189.11 59.1264 187.403 58.743 184.078Z" fill="#2C2872"/>
<path d="M27.4662 194.48C26.6215 196.437 25.8832 198.437 25.2551 200.471C24.9227 201.547 24.6181 202.653 24.6602 203.778C24.759 206.41 27.723 208.318 29.6612 205.884C30.5097 204.817 31.1903 203.62 31.6718 202.35C32.3821 200.477 30.8814 201.568 29.6139 200.993C28.1548 200.33 28.1898 199.815 28.8094 198.464C29.6082 196.722 30.5527 195.587 30.4397 193.584C30.408 193.031 30.25 192.389 29.734 192.173C29.3424 192.008 28.8733 192.168 28.5625 192.455C28.2518 192.742 28.0664 193.134 27.8924 193.518C27.7476 193.837 27.6057 194.158 27.4662 194.48Z" fill="#292949"/>
<path d="M41.6592 129.708C44.0397 129.393 46.4574 128.964 48.4526 129.828C50.1418 130.56 50.1127 132.68 50.4905 134.283C51.7404 139.587 52.6796 144.955 53.4151 150.351C53.7666 152.931 54.3739 155.694 54.3589 158.3C54.3472 160.39 53.8201 162.423 53.982 164.554C54.1064 166.192 54.8067 167.959 56.3147 168.628C57.0736 168.965 57.9457 168.981 58.7065 169.314C59.4673 169.648 60.1183 170.538 59.7354 171.271C59.5532 171.62 59.1895 171.83 58.844 172.022C56.9629 173.064 55.0817 174.107 53.2006 175.15C51.7639 175.946 50.3187 176.746 48.7703 177.299C46.5771 178.082 44.2317 178.349 41.9037 178.466C35.8908 178.77 29.8301 178.109 24.0266 176.517C20.9026 175.66 17.8837 174.14 18.6422 170.626C19.4222 167.01 20.9312 163.401 22.5575 160.09C24.5269 156.081 25.1113 151.25 26.5062 147.02C27.8011 143.094 29.1111 139.16 30.5449 135.282C31.249 133.378 32.4946 131.592 34.3354 130.63C36.6113 129.44 39.1918 130.035 41.6592 129.708Z" fill="#6666FF"/>
<path d="M47.6184 195.463C48.1608 195.492 48.7036 195.522 49.246 195.551C49.8354 195.583 50.4935 195.592 50.9324 195.192C51.4687 194.705 51.4081 193.783 50.9743 193.201C50.5409 192.618 49.8416 192.307 49.1553 192.084C47.4986 191.547 45.7468 191.381 44.0087 191.312C43.8344 191.305 43.6543 191.3 43.4922 191.366C43.2106 191.481 43.0504 191.782 42.9554 192.074C41.9694 195.106 45.5095 195.349 47.6184 195.463Z" fill="#E5AF90"/>
<path d="M26.8156 200.556C26.7863 200.801 26.7592 201.062 26.8627 201.285C26.9373 201.447 27.0744 201.572 27.2222 201.668C28.3326 202.392 29.8253 201.612 30.6752 200.584C31.5251 199.556 32.1003 198.255 33.1842 197.492C35.6657 195.744 33.3945 192.544 30.8011 193.278C27.7741 194.135 27.1387 197.853 26.8156 200.556Z" fill="#E5AF90"/>
<path d="M60.3782 184.396C62.5275 182.82 64.6823 181.034 65.4675 178.379C66.2531 175.725 65.1453 171.976 62.3718 170.446C58.9912 168.58 55.6696 170.873 53.2589 173.038C48.3207 177.468 42.9382 181.384 37.6763 185.436C35.8979 186.805 29.7279 191.847 29.7279 191.847C29.5586 192.558 32.8747 198.987 33.7538 198.752C43.3525 196.219 52.6893 190.034 60.3782 184.396Z" fill="#3B3387"/>
<path d="M11.8758 187.502C9.76999 186.474 7.65253 185.236 6.82023 182.767C5.98746 180.299 6.93391 176.236 9.54169 173.974C12.7216 171.216 15.9708 172.661 18.3447 174.215C23.2075 177.391 28.4792 179.934 33.64 182.646C35.3841 183.562 41.4441 187.035 41.4441 187.035C41.628 187.706 38.6492 195.042 37.8006 195.033C28.5344 194.979 19.4081 191.179 11.8758 187.502Z" fill="#3B3387"/>
<path d="M43.7926 196.754C45.757 197.714 47.7717 198.569 49.8269 199.314C50.9143 199.707 52.0344 200.074 53.1902 200.088C55.8949 200.121 57.9999 197.195 55.5996 195.094C54.5483 194.174 53.354 193.42 52.0753 192.864C50.1887 192.044 51.2334 193.63 50.58 194.894C49.8274 196.348 49.3012 196.287 47.9456 195.586C46.1991 194.683 45.0818 193.662 43.0214 193.675C42.4525 193.679 41.7863 193.808 41.5385 194.323C41.3504 194.715 41.491 195.201 41.7697 195.533C42.0485 195.864 42.4412 196.073 42.8263 196.27C43.1472 196.434 43.4692 196.595 43.7926 196.754Z" fill="#292949"/>
<path d="M38.1 132.805C38.1828 132.905 38.2786 132.996 38.3901 133.077C38.8577 133.418 39.4437 133.54 40.0094 133.653C40.7449 133.801 41.5141 133.947 42.2338 133.736C44.5733 133.05 43.5132 129.015 43.2597 127.34C44.7778 126.776 46.5276 125.918 46.7593 124.13C46.8324 123.567 46.7343 122.987 46.6363 122.42C46.2311 120.076 45.8263 117.732 45.4216 115.387C45.2815 114.577 45.133 113.742 44.7283 113.04C44.0178 111.808 42.6746 111.242 41.4077 110.963C38.1731 110.25 34.6777 110.941 32.2258 113.243C31.5727 113.856 30.9862 114.598 30.7114 115.51C30.2868 116.916 30.6554 118.488 31.0241 119.954C31.365 121.306 31.7059 122.659 32.0463 124.011C32.4385 125.567 32.995 127.339 34.3336 127.953C35.0445 128.28 35.8748 128.212 36.5219 128.684C37.8785 129.673 37.2078 131.726 38.1 132.805Z" fill="#E5AF90"/>
<path d="M42.3426 113.28C42.443 113.395 42.5316 113.517 42.6077 113.647C43.0048 114.329 43.0002 115.19 43.3921 115.875C44.0133 116.961 45.4986 117.387 45.9434 118.558C46.3069 119.516 45.8248 120.595 45.9686 121.61C46.1254 122.719 47.0279 123.616 47.1357 124.72C47.2299 125.68 46.9033 127.122 46.4978 127.988C46.6238 127.72 48.1983 127.486 48.5524 127.154C49.0952 126.645 49.1176 126.39 49.1717 125.701C49.2258 125.016 48.9566 124.407 49.1092 123.686C49.2968 122.801 49.8964 122.057 49.9748 121.139C50.0817 119.885 49.209 118.763 49.0116 117.52C48.713 115.639 49.9585 113.556 49.0252 111.901C48.4778 110.929 47.3452 110.468 46.5957 109.646C46.0274 109.022 45.7021 108.215 45.2513 107.5C44.8005 106.784 44.136 106.111 43.2997 106.036C42.835 105.995 42.3739 106.145 41.9073 106.152C41.1009 106.164 40.3467 105.754 39.5469 105.65C38.4026 105.502 36.7311 106.982 36.2887 108.027C35.85 109.064 36.3176 109.774 37.1128 110.451C38.4372 111.576 41.1662 111.934 42.3426 113.28Z" fill="#292949"/>
<path d="M25.8313 110.94C25.2762 111.541 24.5411 112.042 24.059 112.711C23.1184 114.016 23.2491 115.778 23.5276 117.356C23.7763 118.76 23.4101 120.125 23.8615 121.55C24.1646 122.508 24.7879 123.412 25.7129 123.829C26.8642 124.349 28.4659 124.153 29.1475 125.205C29.8877 126.349 28.9045 128.17 29.9157 129.089C30.4731 129.597 31.346 129.514 32.0517 129.79C32.8393 130.097 33.3593 130.821 33.9281 131.44C34.4974 132.058 35.2798 132.635 36.1134 132.488C35.8922 131.236 35.7278 130.242 34.9559 129.211C34.5064 128.611 33.3318 127.571 33.895 126.712C34.2213 126.026 35.2386 125.621 35.1141 124.874C35.0558 124.522 34.7484 124.275 34.4946 124.023C33.5114 123.045 33.1272 121.559 33.382 120.205C33.6364 118.851 34.4837 117.642 35.5948 116.808C36.8972 115.831 36.5936 115.53 36.7347 114.084C36.864 112.752 37.5257 112.314 38.5771 111.63C39.521 111.015 39.799 110.693 39.9842 109.669C40.1201 108.919 40.2916 108.02 39.7308 107.325C39.2847 106.773 38.6188 106.447 37.9751 106.138C36.6305 105.493 35.1325 104.832 33.6918 105.227C32.8919 105.446 32.2051 105.974 31.4019 106.182C30.8662 106.319 30.3026 106.308 29.7566 106.398C28.8254 106.552 27.9062 107.023 27.2682 107.716C26.625 108.414 26.7633 108.983 26.5028 109.844C26.375 110.266 26.1287 110.617 25.8313 110.94Z" fill="#292949"/>
<path d="M29.7362 105.26C29.7019 104.363 29.3856 103.251 28.5037 103.124C28.0203 103.056 27.5503 103.334 27.0617 103.333C26.0214 103.332 25.4372 102.182 24.7369 101.408C24.6319 101.292 24.5121 101.178 24.3602 101.143C24.1424 101.094 23.9297 101.22 23.7184 101.291C22.7482 101.615 21.7948 100.78 20.7866 100.612C19.5387 100.404 18.2263 101.43 18.1171 102.698C18.0721 103.22 18.203 103.743 18.1673 104.266C18.0233 106.381 15.2782 107.825 15.6209 109.917C15.8522 111.331 17.4855 112.398 17.2152 113.805C17.0429 114.704 16.0946 115.486 16.3941 116.351C16.5869 116.908 17.2705 117.174 17.8426 117.05C18.4148 116.925 18.8787 116.501 19.2345 116.034C19.8001 115.291 20.1619 114.412 20.6876 113.641C21.2133 112.869 21.9815 112.174 22.908 112.104C23.8052 112.037 24.735 112.562 25.5756 112.239C26.2485 111.98 26.6396 111.25 27.2879 110.935C27.8944 110.641 28.6101 110.758 29.2774 110.664C29.9443 110.57 30.6846 110.061 30.569 109.393C30.5411 109.231 30.4631 109.074 30.4826 108.911C30.5374 108.454 31.2693 108.331 31.3213 107.874C30.8704 107.409 30.4236 107.699 30.0372 107.052C29.7381 106.551 29.7581 105.823 29.7362 105.26Z" fill="#292949"/>
<path d="M2.26074 178.538L29.2293 168.96L63.0479 169.425L44.2693 178.538H2.26074Z" fill="#E6E6E6"/>
<path d="M2.14251 176.158L0.12793 149.534L41.8494 149.006L44.1186 177.474L2.14251 176.158Z" fill="#BABCBE"/>
<path d="M62.4051 169.292C56.3664 172 50.3277 174.707 44.289 177.415L44.2277 177.45V176.133H2.26074V178.513H43.8169C43.917 178.911 44.2413 179.207 44.6943 179.004C50.733 176.296 56.7717 173.589 62.8099 170.881C63.7032 170.48 63.3115 168.885 62.4051 169.292Z" fill="#BABCBE"/>
<path d="M56.7876 141.779C58.1291 139.13 59.6208 136.558 61.252 134.08C61.749 133.325 62.7864 131.071 63.656 130.8C64.6441 130.492 66.9318 131.648 67.8469 132.029C66.2827 138.385 64.2883 144.633 61.8829 150.717C61.5328 151.604 61.1529 152.517 60.4564 153.163C59.0172 154.498 56.6314 154.232 55.0295 153.1C53.4276 151.969 52.4256 150.185 51.4756 148.462C49.8123 145.445 47.8975 142.251 47.1266 138.85C46.6481 136.741 44.9462 133.174 46.9076 131.418C48.8652 129.665 50.5493 131.224 51.7048 132.94C52.6529 134.348 53.5252 135.815 54.3715 137.286C54.6882 137.837 57.0452 141.27 56.7876 141.779Z" fill="#6666FF"/>
</svg>
