<svg width="279" height="211" viewBox="0 0 279 211" fill="none" xmlns="http://www.w3.org/2000/svg">
<mask id="mask0" mask-type="alpha" maskUnits="userSpaceOnUse" x="0" y="0" width="279" height="211">
<rect x="-3.05176e-05" width="279" height="211" rx="30" fill="#F8F8F8"/>
</mask>
<g mask="url(#mask0)">
<rect x="-3.00003" y="-1" width="285" height="217.5" fill="#F0FF00" fill-opacity="0.3"/>
<mask id="mask1" mask-type="alpha" maskUnits="userSpaceOnUse" x="-3" y="0" width="285" height="218">
<rect x="-3.00003" y="0.0712891" width="285" height="217.5" fill="#F0FF00" fill-opacity="0.1"/>
</mask>
<g mask="url(#mask1)">
<circle cx="9.85725" cy="12.9284" r="38.5714" fill="#FFB400"/>
<circle cx="65.5713" cy="-6.35728" r="38.5714" fill="#FFB400"/>
<circle cx="117" cy="-25.6429" r="38.5714" fill="#FFB400"/>
<circle cx="258.429" cy="12.9284" r="38.5714" fill="#FFB400"/>
<circle cx="9.85725" cy="213.285" r="38.5714" fill="#FFB400"/>
<circle cx="274.5" cy="202.571" r="38.5714" fill="#FFB400"/>
<circle cx="225.214" cy="229.357" r="38.5714" fill="#FFB400"/>
<circle cx="185.571" cy="245.428" r="38.5714" fill="#FFB400"/>
</g>
<path d="M17.1786 5.42872H205.597C208.731 5.42872 211.737 6.67381 213.953 8.89008C216.169 11.1063 217.414 14.1122 217.414 17.2465V131.204H4.49982V18.0906C4.49982 16.4264 4.82789 14.7786 5.46527 13.2412C6.10265 11.7039 7.03683 10.3073 8.21438 9.13134C9.39194 7.95535 10.7898 7.02303 12.3279 6.3877C13.8661 5.75238 15.5144 5.4265 17.1786 5.42872Z" fill="#192632"/>
<path d="M198.345 150.348H23.6106C18.5488 150.348 13.6942 148.338 10.115 144.758C6.53569 141.179 4.52488 136.325 4.52488 131.263H217.456C217.456 133.771 216.962 136.255 216.001 138.572C215.04 140.89 213.632 142.995 211.857 144.767C210.082 146.54 207.975 147.945 205.657 148.903C203.338 149.861 200.854 150.352 198.345 150.348Z" fill="white"/>
<path d="M130.14 150.349H91.5042V182.501H130.14V150.349Z" fill="#E1E2E1"/>
<path d="M130.14 150.349H91.5042V160.537H130.14V150.349Z" fill="#BCBCBB"/>
<path d="M76.2932 182.502H145.36C148.046 182.502 150.623 183.569 152.522 185.469C154.422 187.368 155.489 189.945 155.489 192.631V194.733H66.1636V192.631C66.1636 189.945 67.2308 187.368 69.1305 185.469C71.0301 183.569 73.6066 182.502 76.2932 182.502Z" fill="white"/>
<path d="M16.7563 14.6045C15.8682 14.6156 15.0201 14.9762 14.396 15.6082C13.7719 16.2403 13.422 17.0928 13.422 17.981V20.3783L127.683 119.141H147.25L26.3541 14.6045H16.7563Z" fill="#003948"/>
<path d="M13.422 56.8359V115.79C13.433 116.671 13.7878 117.512 14.4107 118.135C15.0337 118.758 15.8754 119.113 16.7563 119.124H111.096L13.422 34.6606V56.8359Z" fill="#003948"/>
<path d="M204.888 14.6045H73.955L194.843 119.124H204.888C205.776 119.125 206.629 118.775 207.261 118.15C207.893 117.526 208.253 116.678 208.264 115.79V17.9388C208.253 17.0506 207.893 16.2026 207.261 15.5785C206.629 14.9544 205.776 14.6044 204.888 14.6045Z" fill="#003948"/>
<path opacity="0.57" d="M65.1923 14.6045H26.354L147.25 119.124H158.705H194.842L73.9459 14.6045H65.1923Z" fill="url(#paint0_linear)"/>
<path opacity="0.57" d="M13.422 34.6608L111.113 119.124H127.683L13.422 20.3359V34.6608Z" fill="url(#paint1_linear)"/>
<path d="M116.094 140.168C116.094 141.361 115.74 142.526 115.077 143.518C114.415 144.509 113.473 145.281 112.371 145.737C111.269 146.193 110.057 146.312 108.888 146.079C107.718 145.846 106.644 145.271 105.802 144.427C104.959 143.583 104.386 142.509 104.154 141.339C103.923 140.169 104.043 138.957 104.501 137.856C104.958 136.755 105.732 135.814 106.724 135.153C107.716 134.492 108.883 134.139 110.075 134.141C110.866 134.141 111.649 134.297 112.38 134.6C113.111 134.903 113.775 135.347 114.334 135.907C114.893 136.467 115.336 137.131 115.638 137.862C115.94 138.594 116.095 139.377 116.094 140.168Z" fill="#BCBCBB"/>
<rect x="13.1775" y="14.7144" width="194.994" height="104.672" fill="#FFDB00" fill-opacity="0.8"/>
<path opacity="0.57" d="M69.1677 14.7144H27.5274L157.145 119.386H169.427H208.171L78.5529 14.7144H69.1677Z" fill="#FDF286"/>
<path opacity="0.57" d="M13.1775 34.9442L117.104 119.386H134.732L13.1775 20.623V34.9442Z" fill="#FFF39B"/>
<path d="M250.889 87.0825C250.889 87.0825 246.279 83.6317 250.889 79.997C256.546 75.5561 262.769 80.4071 264.763 83.5327C266.093 85.6117 271.92 94.154 278.934 90.0101C278.934 90.0101 274.281 103.46 260.478 96.7421L250.889 87.0825Z" fill="#FFE700"/>
<path d="M249.545 81.3691C247.367 84.4523 250.889 87.0829 250.889 87.0829L260.478 96.7424C261.977 97.4779 263.377 97.9587 264.664 98.2699C261.652 86.5596 254.142 82.6703 249.545 81.3691Z" fill="#FFDB00"/>
<path d="M234.653 118.776C234.455 119.003 235.389 123.839 235.389 123.839C235.389 123.839 231.146 124.136 227.412 126.286C227.412 126.286 245.444 134.843 254.637 125.353C254.637 125.353 248.513 123.613 246.463 123.26L247.311 117.928L234.653 118.776Z" fill="#FFBB99"/>
<path d="M227.143 111.522C227.143 111.522 222.292 111.974 222.745 106.176C223.198 100.377 226.479 103.163 226.479 103.333C226.465 103.503 227.143 111.522 227.143 111.522Z" fill="#FFBB99"/>
<path d="M258.272 103.969C258.243 104.139 256.15 111.903 256.15 111.903C256.15 111.903 260.846 113.205 261.44 107.42" fill="#FFBB99"/>
<path d="M258.794 105.963C258.002 109.216 256.687 112.342 254.919 115.17C254.438 115.948 253.914 116.698 253.207 117.278C252.486 117.872 251.609 118.253 250.747 118.607C249.148 119.286 247.564 119.951 245.966 120.615C244.227 121.337 242.416 122.086 240.535 122.015C238.188 121.931 236.08 120.644 234.1 119.385C232.12 118.126 230.098 116.839 228.599 115.029C226.534 112.54 225.643 109.315 224.794 106.19L250.393 86.7573L258.794 105.963Z" fill="#FFD9C2"/>
<path d="M248.202 94.5783C248.626 104.337 253.59 108.113 257.678 109.57C258.116 108.396 258.498 107.194 258.795 105.963L250.394 86.7573L224.81 106.204C225.064 107.137 225.319 108.085 225.602 109.004C231.542 108.551 240.027 105.596 248.202 94.5783Z" fill="#FFBB99"/>
<path d="M249.178 89.7272C249.192 89.5575 249.545 83.2781 255.995 86.8986C262.444 90.5192 262.217 101.098 262.217 101.098C262.217 101.098 261.793 107.547 263.999 109.428C263.999 109.428 247.763 110.461 249.178 89.7272Z" fill="#FFDB00"/>
<path d="M255.981 86.8986C249.532 83.2781 249.178 89.5575 249.164 89.7272C249.136 90.1656 249.121 90.5899 249.107 91.0142C253.124 97.8593 258.187 99.4716 262.147 99.4292C261.921 96.3036 260.846 89.6282 255.981 86.8986Z" fill="#FFE700"/>
<path d="M248.414 91.863C248.414 91.863 253.279 84.5935 246.915 82.1185C239.589 79.29 229.986 79.7991 223.593 92.9095C220.284 99.6981 222.801 99.7971 216.876 106.727C216.876 106.727 233.338 113.445 248.414 91.863Z" fill="#FFDB00"/>
<path d="M221.387 99.1466C227.751 100.349 238.486 100.236 250.408 89.9113C251.229 87.5777 250.79 83.6319 246.915 82.1327C239.589 79.29 229.986 79.7991 223.593 92.9096C222.137 95.8937 221.811 97.5909 221.387 99.1466Z" fill="#FFE700"/>
<path d="M236.307 102.286C236.095 102.229 235.954 102.187 235.77 102.371C234.992 103.12 234.737 104.181 234.681 105.27C234.638 106.189 234.695 107.533 235.261 108.311C235.671 108.876 236.42 109.046 236.986 108.593C237.693 108.014 237.75 106.84 237.792 105.991C237.806 105.369 237.325 102.583 236.307 102.286Z" fill="#754C28"/>
<path d="M248.583 102.215C248.371 102.159 248.23 102.116 248.046 102.3C247.268 103.05 247.014 104.111 246.957 105.2C246.915 106.119 246.971 107.462 247.537 108.24C247.947 108.806 248.697 108.976 249.262 108.523C249.969 107.943 250.026 106.769 250.068 105.921C250.083 105.299 249.602 102.527 248.583 102.215Z" fill="#754C28"/>
<path d="M243.662 110.673C243.619 110.022 243.563 109.372 243.45 108.735C243.308 107.816 243.11 106.317 242.332 105.779C242.106 105.624 241.738 105.765 241.696 106.062C241.47 107.575 241.314 109.089 241.272 110.616C241.272 110.772 241.328 110.899 241.413 110.97C241.441 111.069 241.498 111.154 241.583 111.21C242.078 111.55 242.615 111.946 243.195 112.016C243.351 112.03 243.492 111.903 243.577 111.776C243.775 111.479 243.676 111.04 243.662 110.673Z" fill="#E81F33"/>
<path d="M246.108 113.544C245.019 113.176 243.86 113.19 242.728 113.133C241.441 113.063 240.168 113.006 238.881 112.935C238.584 112.921 238.316 113.261 238.415 113.544C238.924 115.057 239.687 116.415 240.706 117.631C240.762 117.702 240.833 117.744 240.89 117.772C241.116 117.942 241.37 117.999 241.724 117.857C242.657 117.461 243.563 116.57 244.383 115.976C245.118 115.453 246.08 115 246.434 114.138C246.547 113.883 246.335 113.614 246.108 113.544Z" fill="white"/>
<path d="M231.257 96.9541C230.833 97.2935 230.494 97.831 230.649 98.3401C230.833 98.9483 231.54 98.92 232.064 98.8068C233.167 98.5805 234.213 98.1138 235.316 97.8875C236.009 97.7461 237.127 97.7885 237.692 97.3218C238.074 97.0107 238.117 96.544 237.82 96.1763C237.721 96.0631 237.608 95.9783 237.48 95.9075C236.787 95.3984 235.727 95.5681 234.836 95.6813C234.044 95.7803 233.223 95.8793 232.502 96.2045C232.177 96.3601 231.54 96.7278 231.257 96.9541Z" fill="#754C28"/>
<path d="M253.123 97.6616C253.547 98.0011 253.887 98.5385 253.731 99.0476C253.547 99.6558 252.84 99.6275 252.317 99.5143C251.214 99.2881 250.167 98.8213 249.064 98.5951C248.371 98.4536 247.254 98.4961 246.688 98.0293C246.306 97.7182 246.264 97.2515 246.561 96.8838C246.66 96.7706 246.773 96.6858 246.9 96.6151C247.593 96.1059 248.654 96.2756 249.545 96.3888C250.337 96.4878 251.157 96.5868 251.878 96.9121C252.204 97.0535 252.84 97.4353 253.123 97.6616Z" fill="#754C28"/>
<path d="M254.113 160.993C255.075 160.993 255.994 161.332 256.716 161.969C261.751 166.424 285.822 168.135 275.681 147.331C267.62 130.798 257.847 125.707 253.336 124.179C251.978 123.712 250.465 124.024 249.404 124.985C241.427 132.226 233.861 127.46 230.792 124.886C229.731 123.995 228.274 123.712 226.945 124.151C222.476 125.65 212.632 130.699 204.543 147.317C194.402 168.121 218.473 166.41 223.508 161.955C224.23 161.318 225.149 160.979 226.111 160.979H254.113V160.993Z" fill="#FFC100"/>
<path d="M259.007 163.313C258.781 163.157 258.568 163.002 258.399 162.846C257.932 162.422 257.352 162.139 256.758 161.998C257.31 162.478 258.073 162.917 259.007 163.313Z" fill="#FFE700"/>
<path d="M206.241 148.208C214.344 131.591 224.174 126.527 228.643 125.042C229.378 124.802 230.156 124.774 230.877 124.958C230.849 124.943 230.835 124.915 230.807 124.901C229.746 124.01 228.289 123.727 226.96 124.166C222.491 125.665 212.647 130.714 204.558 147.332C199.862 156.977 202.507 161.786 207.202 163.723C203.638 161.361 202.139 156.623 206.241 148.208Z" fill="#FFE700"/>
<path d="M262.939 159.381H218.87V185.8H262.939V159.381Z" fill="#FFB400"/>
<path d="M274.239 155.52C274.239 143.386 259.248 138.803 240.904 138.803C222.561 138.803 207.838 143.4 207.838 155.52C207.838 158.773 208.913 161.856 210.822 164.642C215.758 165.279 221.373 163.878 223.523 161.969C224.244 161.333 225.163 160.993 226.125 160.993H254.1C255.061 160.993 255.981 161.333 256.702 161.969C259.163 164.147 266.163 165.66 271.509 164.232C273.263 161.559 274.239 158.617 274.239 155.52Z" fill="#FFB400"/>
<path d="M233.324 188.458L225.503 191.966L228.614 202.686L237.623 200.155L233.324 188.458Z" fill="#FFBB99"/>
<path d="M246.265 200.055C246.25 200.013 246.236 199.956 246.222 199.914L245.572 198.118C248.428 197.382 253.025 196.208 260.096 194.455C274.819 190.806 282.767 182.221 280.971 176.762C279.189 171.359 274.451 169.097 264.396 172.123C256.023 174.626 244.157 181.514 240.409 183.734L240.013 182.617C239.688 181.726 238.825 181.203 237.934 181.302C237.751 181.33 237.581 181.415 237.454 181.528L235.233 183.452C235.106 183.565 234.936 183.621 234.766 183.607L232.631 183.381C232.235 183.338 231.839 183.452 231.542 183.72C230.976 184.244 230.75 185.078 231.033 185.856" fill="#5B5B5B"/>
<path d="M231.287 185.432C231.457 185.446 231.626 185.39 231.754 185.276L233.818 183.494L232.63 183.367C232.234 183.325 231.838 183.438 231.541 183.707C231.089 184.131 230.848 184.753 230.933 185.389L231.287 185.432Z" fill="#7F7F7F"/>
<path d="M236.534 184.442L236.93 185.559C237.736 185.079 238.91 184.386 240.353 183.565L240.013 182.604C239.688 181.713 238.825 181.189 237.934 181.288C237.75 181.317 237.581 181.401 237.453 181.515L235.431 183.254C235.926 183.48 236.336 183.891 236.534 184.442Z" fill="#7F7F7F"/>
<path d="M245.882 198.967C245.67 199.023 245.472 199.066 245.274 199.122L246.264 200.056C246.25 200.013 246.236 199.957 246.222 199.914L245.882 198.967Z" fill="#7F7F7F"/>
<path d="M280.971 176.748C279.189 171.346 274.451 169.083 264.396 172.11C259.205 173.665 252.671 176.904 247.552 179.662C251.936 177.413 256.843 175.15 260.917 173.934C270.972 170.922 275.71 173.184 277.492 178.573C278.708 182.264 275.455 187.398 268.667 191.457C277.803 187.228 282.385 181.034 280.971 176.748Z" fill="#7F7F7F"/>
<path d="M224.823 191.513C224.569 191.598 224.343 191.725 224.116 191.867C223.112 192.517 218.615 195.091 212.349 193.946C205.207 192.63 202.068 199.716 203.892 202.969C211.006 215.697 220.496 208.499 222.518 206.377C222.815 206.066 223.183 205.797 223.579 205.614L228.472 203.308C228.585 203.252 228.699 203.223 228.812 203.181C229.236 203.04 230.523 202.304 229.335 198.288C227.935 193.521 227.935 193.521 227.935 193.521C227.935 193.521 227.185 190.721 224.823 191.513Z" fill="#D11934"/>
<path d="M223.296 192.348C223.664 192.15 223.947 191.98 224.116 191.867C224.343 191.725 224.569 191.598 224.823 191.513C227.185 190.707 227.935 193.536 227.935 193.536C227.935 193.536 227.935 193.536 229.335 198.302C230.509 202.318 229.236 203.068 228.812 203.195C228.699 203.238 228.585 203.266 228.472 203.322L226.959 204.044C224.654 198.995 223.692 194.922 223.296 192.348Z" fill="#D11934"/>
<path d="M225.63 192.772C224.88 193.422 224.145 194.073 223.395 194.723C223.325 194.78 222.9 195.162 223.155 194.837C223.311 194.624 223.183 194.695 223.226 194.879C223.282 195.261 223.226 195.713 223.226 196.095C223.226 198.132 223.226 200.154 223.226 202.191C223.226 202.601 222.688 202.841 222.405 202.53C220.722 200.692 219.025 198.839 217.342 197C217.611 196.93 217.88 196.859 218.148 196.788C217.795 199.419 217.441 202.035 217.088 204.666C217.003 205.274 216.069 205.019 216.154 204.411C216.508 201.781 216.861 199.164 217.215 196.534C217.257 196.166 217.795 196.081 218.021 196.322C219.704 198.16 221.401 200.013 223.084 201.851C222.816 201.965 222.533 202.078 222.264 202.191C222.264 200.055 222.264 197.934 222.264 195.798C222.264 195.162 222.137 194.61 222.603 194.144C223.339 193.408 224.187 192.758 224.965 192.079C225.418 191.683 226.097 192.362 225.63 192.772Z" fill="#E2D7D0"/>
<path d="M228.756 202.332C227.737 202.332 226.549 202.516 225.559 202.332C224.937 202.219 224.442 201.385 224.046 200.946C222.547 199.292 221.034 197.637 219.535 195.968C219.803 195.855 220.086 195.742 220.355 195.629C220.708 198.358 221.076 201.088 221.43 203.817C221.486 204.242 220.878 204.44 220.609 204.157C218.559 202.035 216.508 199.928 214.457 197.807C214.019 197.354 214.712 196.675 215.136 197.128C217.187 199.249 219.238 201.357 221.288 203.478C221.02 203.591 220.737 203.704 220.468 203.817C220.114 201.088 219.747 198.358 219.393 195.629C219.337 195.204 219.959 194.992 220.213 195.289C221.642 196.873 223.084 198.443 224.513 200.027C224.852 200.395 225.178 200.763 225.517 201.13C225.588 201.201 225.757 201.342 225.786 201.427C225.856 201.682 225.644 201.286 225.574 201.371C225.687 201.229 226.988 201.371 227.186 201.371C227.709 201.371 228.232 201.371 228.756 201.371C229.378 201.371 229.378 202.332 228.756 202.332Z" fill="#E2D7D0"/>
<path d="M203.892 202.969C202.351 200.225 204.345 194.752 209.281 193.889C211.501 195.699 213.255 198.5 214.019 201.852C214.698 204.878 214.457 207.848 213.495 210.309C210.37 210.182 206.905 208.386 203.892 202.969Z" fill="#E2D7D0"/>
<path d="M246.816 188.303L254.637 191.81L251.525 202.516L242.516 199.999L246.816 188.303Z" fill="#FFD9C2"/>
<path d="M240.904 184.272C240.904 184.272 225.8 174.952 215.744 171.939C205.688 168.927 200.951 171.19 199.169 176.578C197.372 182.037 205.321 190.622 220.043 194.271C234.766 197.92 238.74 199.037 238.74 199.037L240.904 184.272Z" fill="#919191"/>
<path d="M224.498 195.273C209.776 191.624 201.827 183.025 203.624 177.58C205.08 173.167 208.517 170.848 215.207 171.796C205.519 169.024 200.908 171.286 199.169 176.59C197.372 182.049 205.321 190.634 220.043 194.283C234.766 197.932 238.74 199.035 238.74 199.035L238.769 198.851C235.883 198.115 231.358 196.97 224.498 195.273Z" fill="#A5A5A5"/>
<path d="M255.316 191.358C255.57 191.442 255.797 191.57 256.023 191.711C257.027 192.362 261.524 194.936 267.79 193.79C274.932 192.475 278.072 199.56 276.247 202.813C269.133 215.542 259.643 208.343 257.621 206.222C257.324 205.911 256.956 205.642 256.56 205.458L251.667 203.153C251.554 203.096 251.441 203.068 251.327 203.025C250.903 202.884 249.616 202.149 250.804 198.132C252.204 193.366 252.204 193.366 252.204 193.366C252.204 193.366 252.954 190.551 255.316 191.358Z" fill="#E81F33"/>
<path d="M256.843 192.192C256.476 191.994 256.193 191.824 256.023 191.711C255.797 191.57 255.57 191.442 255.316 191.357C252.954 190.551 252.204 193.38 252.204 193.38C252.204 193.38 252.204 193.38 250.804 198.146C249.63 202.163 250.903 202.912 251.328 203.039C251.441 203.082 251.554 203.11 251.667 203.167L253.18 203.888C255.486 198.839 256.447 194.766 256.843 192.192Z" fill="#D11934"/>
<path d="M254.509 192.616C255.259 193.267 255.994 193.918 256.744 194.568C256.815 194.625 257.239 195.007 256.984 194.681C256.829 194.469 256.956 194.54 256.914 194.724C256.857 195.106 256.914 195.558 256.914 195.94C256.914 197.977 256.914 199.999 256.914 202.036C256.914 202.446 257.451 202.686 257.734 202.375C259.417 200.536 261.114 198.684 262.797 196.845C262.528 196.774 262.26 196.704 261.991 196.633C262.344 199.264 262.698 201.88 263.052 204.511C263.136 205.119 264.07 204.864 263.985 204.256C263.631 201.625 263.278 199.009 262.924 196.378C262.882 196.011 262.344 195.926 262.118 196.166C260.435 198.005 258.738 199.858 257.055 201.696C257.324 201.809 257.607 201.922 257.875 202.036C257.875 199.9 257.875 197.779 257.875 195.643C257.875 195.007 258.003 194.455 257.536 193.988C256.8 193.253 255.952 192.602 255.174 191.923C254.721 191.527 254.043 192.206 254.509 192.616Z" fill="#FFF9F5"/>
<path d="M251.384 202.177C252.402 202.177 253.59 202.361 254.58 202.177C255.203 202.064 255.698 201.229 256.094 200.791C257.593 199.136 259.106 197.481 260.605 195.812C260.336 195.699 260.054 195.586 259.785 195.473C259.431 198.203 259.064 200.932 258.71 203.662C258.653 204.086 259.262 204.284 259.53 204.001C261.581 201.88 263.632 199.772 265.682 197.651C266.121 197.198 265.428 196.52 265.004 196.972C262.953 199.094 260.902 201.201 258.851 203.322C259.12 203.435 259.403 203.549 259.672 203.662C260.025 200.932 260.393 198.203 260.747 195.473C260.803 195.049 260.181 194.837 259.926 195.134C258.498 196.718 257.055 198.287 255.627 199.871C255.287 200.239 254.962 200.607 254.623 200.975C254.552 201.045 254.382 201.187 254.354 201.272C254.283 201.526 254.495 201.13 254.566 201.215C254.453 201.074 253.152 201.215 252.954 201.215C252.431 201.215 251.907 201.215 251.384 201.215C250.762 201.201 250.762 202.177 251.384 202.177Z" fill="#FFF9F5"/>
<path d="M276.247 202.813C277.789 200.069 275.794 194.596 270.859 193.733C268.638 195.544 266.885 198.344 266.121 201.696C265.442 204.722 265.682 207.692 266.644 210.153C269.77 210.026 273.235 208.216 276.247 202.813Z" fill="#FFF9F5"/>
<path d="M246.462 201.102L250.252 189.844L246.816 188.303L242.516 199.999L246.462 201.102Z" fill="#FFBB99"/>
<path d="M244.907 183.282C245.034 183.395 245.204 183.452 245.374 183.437L247.509 183.211C247.905 183.169 248.301 183.282 248.598 183.551C249.164 184.074 249.39 184.908 249.107 185.686L242.885 202.983C242.87 203.025 242.842 203.082 242.828 203.124C242.39 204.086 241.117 204.312 240.339 203.605L238.359 201.964C238.302 201.922 238.232 201.894 238.161 201.894L235.46 201.88C234.413 201.922 233.579 200.932 233.847 199.9C233.861 199.857 233.876 199.801 233.89 199.758L240.113 182.462C240.438 181.571 241.301 181.047 242.192 181.146C242.375 181.175 242.545 181.259 242.672 181.373L244.907 183.282Z" fill="#7A7A7A"/>
<path d="M261.609 137.544C261.609 137.544 252.204 137.799 240.918 147.133C229.632 137.799 220.227 137.544 220.227 137.544L215.051 141.9L222.66 148.179L240.932 147.543L259.205 148.179L266.814 141.9L261.609 137.544Z" fill="#FFF9F5"/>
<path d="M243.775 148.18H238.061V177.597H243.775V148.18Z" fill="#C1B49A"/>
<path d="M238.061 177.597L213.212 169.861V140.443L238.061 148.18V177.597Z" fill="#754C28"/>
<path d="M243.761 177.597L268.61 169.861V140.443L243.761 148.18V177.597Z" fill="#C1B49A"/>
<path d="M243.761 177.597L268.61 169.86V163.482L243.761 171.218V177.597Z" fill="#754C28"/>
<path d="M238.061 148.179L213.212 140.443L213.82 139.75L238.061 147.048H243.761L267.535 139.566L268.61 140.443L243.761 148.179H238.061Z" fill="#754C28"/>
<path d="M243.761 177.597V148.18" stroke="#754C28" stroke-miterlimit="10"/>
<path d="M218.784 156.693C217.13 160.187 214.612 163.581 211.84 162.266C209.068 160.95 207.866 155.831 209.521 152.352C211.175 148.858 215.192 147.67 217.964 149C220.736 150.315 220.439 153.214 218.784 156.693Z" fill="#FFBB99"/>
<path d="M218.784 156.694C220.439 153.2 220.736 150.315 217.964 149C217.837 148.943 217.71 148.887 217.582 148.844C215.447 149.071 213.311 150.372 212.208 152.691C210.638 156.001 211.642 160.767 214.103 162.379C215.956 161.658 217.596 159.197 218.784 156.694Z" fill="#FFD9C2"/>
<path d="M262.697 156.693C264.352 160.187 266.869 163.581 269.641 162.266C272.413 160.95 273.616 155.831 271.961 152.352C270.306 148.858 266.29 147.67 263.518 149C260.746 150.329 261.043 153.214 262.697 156.693Z" fill="#FFBB99"/>
<path d="M262.697 156.694C261.043 153.2 260.746 150.315 263.518 149C263.645 148.943 263.772 148.887 263.899 148.844C266.035 149.071 268.171 150.372 269.274 152.691C270.844 156.001 269.839 160.767 267.379 162.379C265.526 161.658 263.885 159.197 262.697 156.694Z" fill="#FFD9C2"/>
</g>
<path d="M47.5901 150.187C40.9336 150.204 35.3444 155.195 34.5789 161.807L31.3422 189.761C30.6735 195.536 35.184 200.609 40.9981 200.621L176.606 200.909C181.684 200.92 185.914 197.025 186.322 191.963L188.694 162.495C189.243 155.682 183.849 149.852 177.014 149.869L47.5901 150.187Z" fill="#FFE700"/>
<path d="M48.9309 150.982C48.9309 148.783 50.7137 147 52.9129 147H86.6574C88.8566 147 90.6394 148.783 90.6394 150.982C90.6394 151.202 90.4611 151.38 90.2412 151.38H49.3291C49.1092 151.38 48.9309 151.202 48.9309 150.982Z" fill="#FFE700"/>
<path d="M50.1822 149.434C50.1822 148.358 51.0538 147.487 52.1289 147.487H62.8334C63.9085 147.487 64.7801 148.358 64.7801 149.434C64.7801 150.509 63.9085 151.38 62.8334 151.38H52.1289C51.0538 151.38 50.1822 150.509 50.1822 149.434Z" fill="black"/>
<path d="M66.0317 149.434C66.0317 148.358 66.9033 147.487 67.9785 147.487H78.6829C79.7581 147.487 80.6296 148.358 80.6296 149.434C80.6296 150.509 79.7581 151.38 78.6829 151.38H67.9785C66.9033 151.38 66.0317 150.509 66.0317 149.434Z" fill="#FFC100"/>
<path d="M82.445 149.434C82.445 148.358 83.3166 147.487 84.3918 147.487H87.1716C88.2468 147.487 89.1184 148.358 89.1184 149.434C89.1184 150.509 88.2468 151.38 87.1716 151.38H84.3918C83.3166 151.38 82.445 150.509 82.445 149.434Z" fill="#FFC100"/>
<path d="M39.338 187.395H53.9359V188.368H39.338V187.395Z" fill="#FFC100"/>
<path d="M40.1724 189.829H51.8508V190.802H40.1724V189.829Z" fill="#FFC100"/>
<path d="M41.0064 192.262H50.5993V193.236H41.0064V192.262Z" fill="#FFC100"/>
<path d="M38.0874 188.612C38.0874 189.822 37.2471 190.802 36.2105 190.802C35.1739 190.802 34.3336 189.822 34.3336 188.612C34.3336 187.402 35.1739 186.422 36.2105 186.422C37.2471 186.422 38.0874 187.402 38.0874 188.612Z" fill="#FFC100"/>
<path d="M58.9409 188.612C58.9409 189.822 58.1006 190.802 57.064 190.802C56.0274 190.802 55.1871 189.822 55.1871 188.612C55.1871 187.402 56.0274 186.422 57.064 186.422C58.1006 186.422 58.9409 187.402 58.9409 188.612Z" fill="#FFC100"/>
<path d="M57.2725 193.479C57.2725 194.151 56.8057 194.696 56.2298 194.696C55.654 194.696 55.1871 194.151 55.1871 193.479C55.1871 192.807 55.654 192.262 56.2298 192.262C56.8057 192.262 57.2725 192.807 57.2725 193.479Z" fill="#FFC100"/>
<path d="M36.4185 193.479C36.4185 194.151 35.9516 194.696 35.3757 194.696C34.7999 194.696 34.333 194.151 34.333 193.479C34.333 192.807 34.7999 192.262 35.3757 192.262C35.9516 192.262 36.4185 192.807 36.4185 193.479Z" fill="#FFC100"/>
<path d="M43.7178 153.327H69.16C67.8392 153.976 64.087 156.49 63.7379 160.87C63.0705 169.241 62 177.823 61.6524 180.825C57.7005 182.417 55.0334 182.923 49.3485 183.501C42.3562 183.676 38.8586 183.419 35.1676 180.825C35.1676 180.825 36.4737 166.467 36.8359 163.79C37.1981 161.114 37.8786 153.327 43.7178 153.327Z" fill="black"/>
<path d="M43.7595 154.55C42.2577 154.057 39.0879 155.663 38.9211 159.167C41.5901 156.24 41.8406 156.004 43.7595 154.55Z" fill="#3A3A3C"/>
<path d="M95.8532 200.658V183.745H96.6874L96.6656 200.658L95.8532 200.658Z" fill="#FFC100"/>
<path d="M112.119 200.658V183.745H112.954L112.932 200.658L112.119 200.658Z" fill="#FFC100"/>
<path d="M127.968 200.658V183.745H128.802L128.781 200.658L127.968 200.658Z" fill="#FFC100"/>
<path d="M143.4 200.658V183.745H144.235L144.213 200.658L143.4 200.658Z" fill="#FFC100"/>
<path d="M63.1118 183.988C63.1118 183.719 63.3297 183.501 63.5985 183.501H187.029L186.948 184.475H63.5985C63.3297 184.475 63.1118 184.257 63.1118 183.988Z" fill="#FFC100"/>
<path fill-rule="evenodd" clip-rule="evenodd" d="M90.5369 200.536C90.6045 199.889 90.6396 199.238 90.6396 198.589C90.6396 191.247 85.426 186.909 80.6295 186.909C75.1011 186.909 70.411 191.977 70.411 199.319C70.411 199.727 70.4254 200.133 70.4536 200.536H90.5369Z" fill="#FFC100" fill-opacity="0.47"/>
<path d="M88.971 198.589C88.971 203.965 85.2363 208.323 80.6293 208.323C76.0223 208.323 72.2876 203.965 72.2876 198.589C72.2876 193.213 76.0223 188.855 80.6293 188.855C85.2363 188.855 88.971 193.213 88.971 198.589Z" fill="black"/>
<path fill-rule="evenodd" clip-rule="evenodd" d="M165.612 201.022C165.68 200.375 165.715 199.725 165.715 199.076C165.715 191.733 160.501 187.395 155.705 187.395C150.177 187.395 145.486 192.463 145.486 199.806C145.486 200.213 145.501 200.619 145.529 201.022H165.612Z" fill="#FFC100" fill-opacity="0.47"/>
<path d="M164.046 199.562C164.046 204.938 160.311 209.296 155.704 209.296C151.097 209.296 147.363 204.938 147.363 199.562C147.363 194.187 151.097 189.829 155.704 189.829C160.311 189.829 164.046 194.187 164.046 199.562Z" fill="black"/>
<path d="M168.634 188.855C168.634 188.587 168.852 188.369 169.121 188.369H182.745C183.014 188.369 183.232 188.587 183.232 188.855C183.232 189.124 183.014 189.342 182.745 189.342H169.121C168.852 189.342 168.634 189.124 168.634 188.855Z" fill="#FFC100"/>
<path d="M168.634 193.235C168.634 192.966 168.852 192.749 169.121 192.749H182.745C183.014 192.749 183.232 192.966 183.232 193.235C183.232 193.504 183.014 193.722 182.745 193.722H169.121C168.852 193.722 168.634 193.504 168.634 193.235Z" fill="#FFC100"/>
<path d="M168.634 191.775C168.634 191.506 168.852 191.289 169.121 191.289H182.745C183.014 191.289 183.232 191.506 183.232 191.775C183.232 192.044 183.014 192.262 182.745 192.262H169.121C168.852 192.262 168.634 192.044 168.634 191.775Z" fill="#FFC100"/>
<path d="M168.634 190.315C168.634 190.047 168.852 189.829 169.121 189.829H182.745C183.014 189.829 183.232 190.047 183.232 190.315C183.232 190.584 183.014 190.802 182.745 190.802H169.121C168.852 190.802 168.634 190.584 168.634 190.315Z" fill="#FFC100"/>
<path d="M168.634 187.395C168.634 187.127 168.852 186.909 169.121 186.909H182.745C183.014 186.909 183.232 187.127 183.232 187.395C183.232 187.664 183.014 187.882 182.745 187.882H169.121C168.852 187.882 168.634 187.664 168.634 187.395Z" fill="#FFC100"/>
<path d="M83.9659 198.589C83.9659 200.739 82.472 202.482 80.6293 202.482C78.7865 202.482 77.2926 200.739 77.2926 198.589C77.2926 196.438 78.7865 194.695 80.6293 194.695C82.472 194.695 83.9659 196.438 83.9659 198.589Z" fill="#C4C4C4"/>
<path d="M159.041 199.562C159.041 201.713 157.547 203.456 155.704 203.456C153.861 203.456 152.368 201.713 152.368 199.562C152.368 197.412 153.861 195.669 155.704 195.669C157.547 195.669 159.041 197.412 159.041 199.562Z" fill="#C4C4C4"/>
<path d="M65.8858 160.342L64.1666 174.947C66.2775 171.502 69.5991 170.923 70.996 171.065H174.523C181.321 170.853 182.159 174.128 182.904 176.403C183.039 175.008 183.531 170.185 184.177 162.664C183.556 156.064 178.331 154.354 175.796 154.323H72.7344C67.7924 154.881 66.2997 158.108 65.8858 160.342Z" fill="black"/>
<path fill-rule="evenodd" clip-rule="evenodd" d="M72.7321 154.275H175.797C177.073 154.291 179.023 154.728 180.734 155.992C182.445 157.256 183.914 159.346 184.226 162.66L184.226 162.664L184.226 162.669C183.678 169.055 183.24 173.495 183.038 175.544C183.002 175.909 182.974 176.198 182.953 176.408L182.858 176.419C182.835 176.347 182.812 176.275 182.788 176.202C182.433 175.108 182.021 173.837 180.951 172.838C179.811 171.773 177.916 171.008 174.525 171.114L174.524 171.114H70.994L70.9915 171.114C69.6096 170.974 66.3079 171.547 64.2086 174.973L64.1187 174.942L65.8381 160.336L65.8384 160.334C66.0464 159.212 66.5258 157.837 67.5764 156.672C68.6277 155.507 70.2477 154.556 72.7294 154.276L72.7321 154.275ZM72.7376 154.373C70.2788 154.651 68.6822 155.592 67.6486 156.738C66.6143 157.884 66.1404 159.239 65.9344 160.35L64.2406 174.739C66.3657 171.44 69.6109 170.878 70.9989 171.017H174.523C177.929 170.911 179.852 171.678 181.017 172.767C182.106 173.784 182.525 175.075 182.879 176.167C182.896 175.991 182.917 175.779 182.941 175.534C183.143 173.484 183.581 169.046 184.129 162.665C183.819 159.381 182.365 157.318 180.676 156.07C178.984 154.821 177.055 154.388 175.796 154.373H72.7376Z" fill="black"/>
<path d="M69.7303 170.693C66.8058 170.693 64.8687 173.682 64.1527 174.944C62.5698 176.982 62.5322 181.763 62.3437 184.92C62.193 187.446 61.9292 189.256 61.8161 189.845C61.7282 190.294 61.4091 191.747 60.8363 193.97C60.2634 196.192 59.3162 198.067 58.9143 198.726C59.2534 198.754 60.1127 198.634 60.8363 197.927C61.2282 197.253 61.8287 195.71 62.0799 195.022C62.4693 193.745 63.2783 190.855 63.3989 189.508C63.7306 188.464 63.8637 185.06 63.8889 183.489C63.8637 182.212 64.017 179.095 64.831 176.838C66.5194 173.505 68.8007 172.447 69.7303 172.335C104.339 172.349 173.918 172.368 175.365 172.335C176.813 172.301 177.903 172.489 178.267 172.587C179.059 172.784 180.853 173.673 181.697 175.66C182.541 177.647 182.526 181.707 182.413 183.489H183.883C184.021 181.805 184.056 177.764 183.091 175.071C181.644 171.063 177.338 170.483 175.365 170.693H69.7303Z" fill="#FFC100"/>
<path d="M80.7622 170.689L81.9586 154.283L82.7277 154.283L81.6168 170.689L80.7622 170.689Z" fill="#3A3A3C"/>
<path d="M97.1696 170.721L98.366 154.315L99.1351 154.315L98.0241 170.721L97.1696 170.721Z" fill="#3A3A3C"/>
<path d="M114.517 170.721L115.714 154.315L116.483 154.315L115.372 170.721L114.517 170.721Z" fill="#3A3A3C"/>
<path d="M131.352 170.706L132.549 154.3L133.318 154.3L132.207 170.706L131.352 170.706Z" fill="#3A3A3C"/>
<path d="M148.785 170.638L149.981 154.232L150.751 154.232L149.64 170.638L148.785 170.638Z" fill="#3A3A3C"/>
<path d="M165.192 170.638L166.389 154.232L167.158 154.232L166.047 170.638L165.192 170.638Z" fill="#3A3A3C"/>
<path d="M93.4061 154.274H90.2033L86.3863 170.678H87.4392L93.4061 154.274Z" fill="#3A3A3C"/>
<path d="M109.157 154.274H107.402L103.585 170.678H104.638L109.157 154.274Z" fill="#3A3A3C"/>
<path d="M144.168 154.274H142.413L138.596 170.678H139.649L144.168 154.274Z" fill="#3A3A3C"/>
<path d="M126.312 154.274H123.109L119.292 170.678H120.345L126.312 154.274Z" fill="#3A3A3C"/>
<path d="M161.323 154.274H158.12L154.303 170.678H155.356L161.323 154.274Z" fill="#3A3A3C"/>
<defs>
<linearGradient id="paint0_linear" x1="167.163" y1="112.836" x2="-28.7592" y2="-46.4007" gradientUnits="userSpaceOnUse">
<stop stop-color="#06566B"/>
<stop offset="1" stop-color="#047E8E"/>
</linearGradient>
<linearGradient id="paint1_linear" x1="21035.2" y1="15560.7" x2="-2343.28" y2="-6417.4" gradientUnits="userSpaceOnUse">
<stop stop-color="#06566B"/>
<stop offset="1" stop-color="#047E8E"/>
</linearGradient>
</defs>
</svg>
