<svg width="285" height="219" viewBox="0 0 285 219" fill="none" xmlns="http://www.w3.org/2000/svg">
<rect width="285" height="217.5" fill="#F0FF00" fill-opacity="0.3"/>
<mask id="mask0" mask-type="alpha" maskUnits="userSpaceOnUse" x="0" y="1" width="285" height="218">
<rect y="1.07129" width="285" height="217.5" fill="#F0FF00" fill-opacity="0.1"/>
</mask>
<g mask="url(#mask0)">
<circle cx="12.8571" cy="13.9284" r="38.5714" fill="#FFB400"/>
<circle cx="68.5714" cy="-5.35728" r="38.5714" fill="#FFB400"/>
<circle cx="120" cy="-24.6429" r="38.5714" fill="#FFB400"/>
<circle cx="261.429" cy="13.9284" r="38.5714" fill="#FFB400"/>
<circle cx="12.8571" cy="214.285" r="38.5714" fill="#FFB400"/>
<circle cx="277.5" cy="203.571" r="38.5714" fill="#FFB400"/>
<circle cx="228.214" cy="230.357" r="38.5714" fill="#FFB400"/>
<circle cx="188.571" cy="246.428" r="38.5714" fill="#FFB400"/>
</g>
<path d="M20.1788 6.42872H208.597C211.731 6.42872 214.737 7.67381 216.953 9.89008C219.169 12.1063 220.415 15.1122 220.415 18.2465V132.204H7.5V19.0906C7.5 17.4264 7.82807 15.7786 8.46544 14.2412C9.10282 12.7039 10.037 11.3073 11.2146 10.1313C12.3921 8.95535 13.7899 8.02303 15.3281 7.3877C16.8663 6.75238 18.5146 6.4265 20.1788 6.42872Z" fill="#192632"/>
<path d="M201.345 151.348H26.6106C21.5488 151.348 16.6943 149.338 13.115 145.758C9.53572 142.179 7.5249 137.325 7.5249 132.263H220.456C220.456 134.771 219.962 137.255 219.001 139.572C218.04 141.89 216.632 143.995 214.857 145.767C213.082 147.54 210.975 148.945 208.657 149.903C206.338 150.861 203.854 151.352 201.345 151.348Z" fill="white"/>
<path d="M133.14 151.349H94.5044V183.501H133.14V151.349Z" fill="#E1E2E1"/>
<path d="M133.14 151.349H94.5044V161.537H133.14V151.349Z" fill="#BCBCBB"/>
<path d="M79.2931 183.502H148.36C151.046 183.502 153.623 184.569 155.522 186.469C157.422 188.368 158.489 190.945 158.489 193.631V195.733H69.1636V193.631C69.1636 190.945 70.2308 188.368 72.1305 186.469C74.0301 184.569 76.6066 183.502 79.2931 183.502Z" fill="white"/>
<path d="M19.7567 15.6045C18.8685 15.6156 18.0205 15.9762 17.3964 16.6082C16.7722 17.2403 16.4223 18.0928 16.4224 18.981V21.3783L130.684 120.141H150.25L29.3544 15.6045H19.7567Z" fill="#003948"/>
<path d="M16.4224 57.8359V116.79C16.4333 117.671 16.7881 118.512 17.4111 119.135C18.034 119.758 18.8758 120.113 19.7567 120.124H114.096L16.4224 35.6606V57.8359Z" fill="#003948"/>
<path d="M207.888 15.6045H76.9551L197.843 120.124H207.888C208.776 120.125 209.629 119.775 210.261 119.15C210.893 118.526 211.253 117.678 211.264 116.79V18.9388C211.253 18.0506 210.893 17.2026 210.261 16.5785C209.629 15.9544 208.776 15.6044 207.888 15.6045Z" fill="#003948"/>
<path opacity="0.57" d="M68.1924 15.6045H29.354L150.25 120.124H161.705H197.842L76.946 15.6045H68.1924Z" fill="url(#paint0_linear)"/>
<path opacity="0.57" d="M16.4224 35.6608L114.113 120.124H130.684L16.4224 21.3359V35.6608Z" fill="url(#paint1_linear)"/>
<path d="M119.094 141.168C119.094 142.361 118.74 143.526 118.077 144.518C117.415 145.509 116.473 146.281 115.371 146.737C114.269 147.193 113.057 147.312 111.888 147.079C110.718 146.846 109.644 146.271 108.802 145.427C107.959 144.583 107.386 143.509 107.154 142.339C106.923 141.169 107.043 139.957 107.501 138.856C107.958 137.755 108.732 136.814 109.724 136.153C110.717 135.492 111.883 135.139 113.075 135.141C113.866 135.141 114.649 135.297 115.38 135.6C116.111 135.903 116.775 136.347 117.334 136.907C117.893 137.467 118.336 138.131 118.638 138.862C118.94 139.594 119.095 140.377 119.094 141.168Z" fill="#BCBCBB"/>
<rect x="16.1777" y="15.7144" width="194.994" height="104.672" fill="#FFDB00" fill-opacity="0.8"/>
<path opacity="0.57" d="M72.1681 15.7144H30.5278L160.146 120.386H172.427H211.171L81.5533 15.7144H72.1681Z" fill="#FDF286"/>
<path opacity="0.57" d="M16.1777 35.9442L120.104 120.386H137.732L16.1777 21.623V35.9442Z" fill="#FFF39B"/>
<path d="M65.8208 151.096C51.1301 151.132 38.7952 162.148 37.1056 176.74C35.6299 189.485 45.5844 200.681 58.4157 200.708L166.239 200.937C178.028 200.962 187.848 191.92 188.793 180.171C190.067 164.355 177.546 150.821 161.679 150.86L65.8208 151.096Z" fill="#FFE700"/>
<path d="M52.8486 151.912C52.8486 149.751 54.6001 148 56.7607 148H89.9125C92.0731 148 93.8246 149.751 93.8246 151.912C93.8246 152.128 93.6495 152.303 93.4334 152.303H53.2398C53.0238 152.303 52.8486 152.128 52.8486 151.912Z" fill="#FFE700"/>
<path d="M54.0786 150.39C54.0786 149.334 54.9349 148.478 55.9912 148.478H66.5076C67.5639 148.478 68.4202 149.334 68.4202 150.39C68.4202 151.446 67.5639 152.303 66.5076 152.303H55.9912C54.9349 152.303 54.0786 151.446 54.0786 150.39Z" fill="#181818"/>
<path d="M69.6494 150.39C69.6494 149.334 70.5057 148.478 71.562 148.478H82.0784C83.1347 148.478 83.991 149.334 83.991 150.39C83.991 151.446 83.1347 152.303 82.0784 152.303H71.562C70.5057 152.303 69.6494 151.446 69.6494 150.39Z" fill="#FFC100"/>
<path d="M85.7744 150.39C85.7744 149.334 86.6307 148.478 87.687 148.478H90.418C91.4743 148.478 92.3306 149.334 92.3306 150.39C92.3306 151.446 91.4743 152.303 90.418 152.303H87.687C86.6307 152.303 85.7744 151.446 85.7744 150.39Z" fill="#FFC100"/>
<rect x="43.4248" y="187.686" width="14.3416" height="0.956284" fill="#FFC100"/>
<rect x="44.2446" y="190.077" width="11.4733" height="0.956284" fill="#FFC100"/>
<rect x="45.064" y="192.467" width="9.42448" height="0.956284" fill="#FFC100"/>
<ellipse cx="40.3522" cy="188.881" rx="1.84392" ry="2.15164" fill="#FFC100"/>
<ellipse cx="60.839" cy="188.881" rx="1.84392" ry="2.15164" fill="#FFC100"/>
<ellipse cx="60.0195" cy="193.663" rx="1.0244" ry="1.19536" fill="#FFC100"/>
<ellipse cx="39.5322" cy="193.663" rx="1.0244" ry="1.19536" fill="#FFC100"/>
<path d="M47.7272 154.216H72.7226C71.425 154.853 67.7388 157.324 67.3957 161.627C66.7401 169.851 65.6884 178.282 65.3469 181.231C61.4644 182.795 58.8441 183.292 53.259 183.861C46.3895 184.033 42.9533 183.78 39.3271 181.231C39.3271 181.231 40.6103 167.126 40.9662 164.496C41.322 161.866 41.9906 154.216 47.7272 154.216Z" fill="#181818"/>
<path d="M47.7686 155.417C46.2932 154.933 43.179 156.511 43.0151 159.953C45.6373 157.078 45.8835 156.845 47.7686 155.417Z" fill="#3A3A3C"/>
<path d="M98.9473 200.716V184.1H99.7668L99.7454 200.716L98.9473 200.716Z" fill="#FFC100"/>
<path d="M114.928 200.716V184.1H115.747L115.726 200.716L114.928 200.716Z" fill="#FFC100"/>
<path d="M130.498 200.716V184.1H131.318L131.296 200.716L130.498 200.716Z" fill="#FFC100"/>
<path d="M145.66 200.716V184.1H146.479L146.458 200.716L145.66 200.716Z" fill="#FFC100"/>
<path d="M66.7812 184.338C66.7812 184.074 66.9953 183.86 67.2594 183.86H188.522L188.443 184.817H67.2594C66.9953 184.817 66.7812 184.603 66.7812 184.338Z" fill="#FFC100"/>
<path fill-rule="evenodd" clip-rule="evenodd" d="M93.7242 200.596C93.7906 199.96 93.825 199.321 93.825 198.683C93.825 191.469 88.703 187.208 83.9908 187.208C78.5595 187.208 73.9517 192.187 73.9517 199.4C73.9517 199.8 73.9659 200.199 73.9936 200.596H93.7242Z" fill="#FFC100" fill-opacity="0.47"/>
<ellipse cx="83.9901" cy="198.683" rx="8.1952" ry="9.56284" fill="#181818"/>
<path fill-rule="evenodd" clip-rule="evenodd" d="M167.481 201.074C167.548 200.438 167.582 199.799 167.582 199.161C167.582 191.947 162.46 187.686 157.748 187.686C152.317 187.686 147.709 192.665 147.709 199.878C147.709 200.279 147.723 200.677 147.751 201.074H167.481Z" fill="#FFC100" fill-opacity="0.47"/>
<ellipse cx="157.747" cy="199.639" rx="8.1952" ry="9.56284" fill="#181818"/>
<rect x="170.45" y="188.642" width="14.3416" height="0.956284" rx="0.478142" fill="#FFC100"/>
<rect x="170.45" y="192.945" width="14.3416" height="0.956284" rx="0.478142" fill="#FFC100"/>
<rect x="170.45" y="191.511" width="14.3416" height="0.956284" rx="0.478142" fill="#FFC100"/>
<rect x="170.45" y="190.077" width="14.3416" height="0.956284" rx="0.478142" fill="#FFC100"/>
<rect x="170.45" y="187.208" width="14.3416" height="0.956284" rx="0.478142" fill="#FFC100"/>
<ellipse cx="83.9905" cy="198.683" rx="3.27808" ry="3.82514" fill="#C4C4C4"/>
<ellipse cx="157.747" cy="199.639" rx="3.27808" ry="3.82514" fill="#C4C4C4"/>
<path d="M69.5063 161.109L67.8174 175.457C69.8912 172.072 73.1544 171.504 74.5268 171.643H176.236C182.915 171.434 183.738 174.652 184.47 176.887C184.602 175.517 185.086 170.779 185.72 163.389C185.11 156.906 179.977 155.225 177.486 155.195H76.2347C71.3795 155.744 69.913 158.914 69.5063 161.109Z" fill="#181818" stroke="#181818"/>
<path d="M73.2828 171.277C70.4097 171.277 68.5066 174.213 67.8032 175.453C66.2481 177.455 66.2111 182.153 66.026 185.254C65.8779 187.735 65.6187 189.513 65.5076 190.092C65.4212 190.533 65.1078 191.962 64.545 194.145C63.9822 196.328 63.0517 198.17 62.6567 198.818C62.99 198.845 63.8341 198.727 64.545 198.032C64.9301 197.37 65.52 195.854 65.7668 195.179C66.1494 193.924 66.9442 191.085 67.0627 189.762C67.3885 188.736 67.5193 185.392 67.544 183.848C67.5193 182.594 67.6699 179.531 68.4696 177.314C70.1283 174.039 72.3695 173 73.2828 172.89C107.284 172.903 175.641 172.923 177.063 172.89C178.485 172.856 179.556 173.041 179.914 173.138C180.691 173.331 182.454 174.205 183.283 176.156C184.112 178.108 184.098 182.097 183.987 183.848H185.43C185.566 182.194 185.601 178.224 184.653 175.578C183.231 171.641 179.001 171.07 177.063 171.277H73.2828Z" fill="#FFC100"/>
<path d="M84.1216 171.273L85.297 155.155L86.0526 155.155L84.9611 171.273L84.1216 171.273Z" fill="#3A3A3C"/>
<path d="M100.241 171.304L101.416 155.187L102.172 155.187L101.08 171.304L100.241 171.304Z" fill="#3A3A3C"/>
<path d="M117.284 171.304L118.459 155.187L119.215 155.187L118.123 171.304L117.284 171.304Z" fill="#3A3A3C"/>
<path d="M133.823 171.289L134.998 155.171L135.754 155.171L134.662 171.289L133.823 171.289Z" fill="#3A3A3C"/>
<path d="M150.95 171.223L152.125 155.105L152.881 155.105L151.789 171.223L150.95 171.223Z" fill="#3A3A3C"/>
<path d="M167.069 171.223L168.244 155.105L169 155.105L167.908 171.223L167.069 171.223Z" fill="#3A3A3C"/>
<path d="M96.5435 155.146H93.397L89.647 171.262H90.6815L96.5435 155.146Z" fill="#3A3A3C"/>
<path d="M112.018 155.146H110.293L106.543 171.262H107.578L112.018 155.146Z" fill="#3A3A3C"/>
<path d="M146.414 155.146H144.69L140.94 171.262H141.974L146.414 155.146Z" fill="#3A3A3C"/>
<path d="M128.871 155.146H125.725L121.975 171.262H123.009L128.871 155.146Z" fill="#3A3A3C"/>
<path d="M163.267 155.146H160.12L156.37 171.262H157.405L163.267 155.146Z" fill="#3A3A3C"/>
<path d="M253.889 88.0825C253.889 88.0825 249.278 84.6317 253.889 80.997C259.546 76.5561 265.769 81.4071 267.763 84.5327C269.093 86.6117 274.919 95.154 281.934 91.0101C281.934 91.0101 277.281 104.46 263.478 97.7421L253.889 88.0825Z" fill="#FFE700"/>
<path d="M252.545 82.3691C250.367 85.4523 253.889 88.0829 253.889 88.0829L263.478 97.7424C264.977 98.4779 266.377 98.9587 267.664 99.2699C264.652 87.5596 257.142 83.6703 252.545 82.3691Z" fill="#FFDB00"/>
<path d="M237.653 119.776C237.455 120.003 238.389 124.839 238.389 124.839C238.389 124.839 234.146 125.136 230.412 127.286C230.412 127.286 248.444 135.843 257.637 126.353C257.637 126.353 251.513 124.613 249.463 124.26L250.311 118.928L237.653 119.776Z" fill="#FFBB99"/>
<path d="M230.144 112.522C230.144 112.522 225.293 112.974 225.745 107.176C226.198 101.377 229.479 104.163 229.479 104.333C229.465 104.503 230.144 112.522 230.144 112.522Z" fill="#FFBB99"/>
<path d="M261.271 104.969C261.243 105.139 259.15 112.903 259.15 112.903C259.15 112.903 263.845 114.205 264.439 108.42" fill="#FFBB99"/>
<path d="M261.794 106.963C261.002 110.216 259.687 113.342 257.919 116.17C257.438 116.948 256.915 117.698 256.207 118.278C255.486 118.872 254.609 119.253 253.747 119.607C252.148 120.286 250.564 120.951 248.966 121.615C247.227 122.337 245.416 123.086 243.535 123.015C241.188 122.931 239.08 121.644 237.1 120.385C235.12 119.126 233.098 117.839 231.599 116.029C229.534 113.54 228.643 110.315 227.794 107.19L253.393 87.7573L261.794 106.963Z" fill="#FFD9C2"/>
<path d="M251.202 95.5783C251.626 105.337 256.59 109.113 260.678 110.57C261.116 109.396 261.498 108.194 261.795 106.963L253.394 87.7573L227.81 107.204C228.064 108.137 228.319 109.085 228.602 110.004C234.542 109.551 243.027 106.596 251.202 95.5783Z" fill="#FFBB99"/>
<path d="M252.178 90.7272C252.192 90.5575 252.545 84.2781 258.995 87.8986C265.444 91.5192 265.217 102.098 265.217 102.098C265.217 102.098 264.793 108.547 266.999 110.428C266.999 110.428 250.763 111.461 252.178 90.7272Z" fill="#FFDB00"/>
<path d="M258.981 87.8986C252.532 84.2781 252.178 90.5575 252.164 90.7272C252.136 91.1656 252.122 91.5899 252.107 92.0142C256.124 98.8593 261.187 100.472 265.147 100.429C264.921 97.3036 263.846 90.6282 258.981 87.8986Z" fill="#FFE700"/>
<path d="M251.414 92.863C251.414 92.863 256.279 85.5935 249.915 83.1185C242.589 80.29 232.986 80.7991 226.593 93.9095C223.284 100.698 225.801 100.797 219.875 107.727C219.875 107.727 236.338 114.445 251.414 92.863Z" fill="#FFDB00"/>
<path d="M224.387 100.147C230.751 101.349 241.486 101.236 253.408 90.9113C254.229 88.5777 253.79 84.6319 249.915 83.1327C242.589 80.29 232.986 80.7991 226.593 93.9096C225.137 96.8937 224.811 98.5909 224.387 100.147Z" fill="#FFE700"/>
<path d="M239.307 103.286C239.095 103.229 238.953 103.187 238.77 103.371C237.992 104.12 237.737 105.181 237.681 106.27C237.638 107.189 237.695 108.533 238.26 109.311C238.671 109.876 239.42 110.046 239.986 109.593C240.693 109.014 240.75 107.84 240.792 106.991C240.806 106.369 240.325 103.583 239.307 103.286Z" fill="#754C28"/>
<path d="M251.583 103.215C251.371 103.159 251.23 103.116 251.046 103.3C250.268 104.05 250.013 105.111 249.957 106.2C249.914 107.119 249.971 108.462 250.537 109.24C250.947 109.806 251.696 109.976 252.262 109.523C252.969 108.943 253.026 107.769 253.068 106.921C253.082 106.299 252.602 103.527 251.583 103.215Z" fill="#754C28"/>
<path d="M246.662 111.673C246.62 111.022 246.563 110.372 246.45 109.735C246.309 108.816 246.111 107.317 245.333 106.779C245.106 106.624 244.739 106.765 244.696 107.062C244.47 108.575 244.314 110.089 244.272 111.616C244.272 111.772 244.329 111.899 244.413 111.97C244.442 112.069 244.498 112.154 244.583 112.21C245.078 112.55 245.616 112.946 246.195 113.016C246.351 113.03 246.492 112.903 246.577 112.776C246.775 112.479 246.676 112.04 246.662 111.673Z" fill="#E81F33"/>
<path d="M249.108 114.544C248.019 114.176 246.859 114.19 245.728 114.133C244.441 114.063 243.168 114.006 241.881 113.935C241.584 113.921 241.315 114.261 241.414 114.544C241.924 116.057 242.687 117.415 243.706 118.631C243.762 118.702 243.833 118.744 243.889 118.772C244.116 118.942 244.37 118.999 244.724 118.857C245.657 118.461 246.562 117.57 247.383 116.976C248.118 116.453 249.08 116 249.433 115.138C249.547 114.883 249.334 114.614 249.108 114.544Z" fill="white"/>
<path d="M234.257 97.9541C233.833 98.2935 233.494 98.831 233.649 99.3401C233.833 99.9483 234.54 99.92 235.064 99.8068C236.167 99.5805 237.213 99.1138 238.316 98.8875C239.009 98.7461 240.127 98.7885 240.692 98.3218C241.074 98.0107 241.117 97.544 240.82 97.1763C240.721 97.0631 240.608 96.9783 240.48 96.9075C239.787 96.3984 238.727 96.5681 237.836 96.6813C237.044 96.7803 236.223 96.8793 235.502 97.2045C235.177 97.3601 234.54 97.7278 234.257 97.9541Z" fill="#754C28"/>
<path d="M256.123 98.6616C256.547 99.0011 256.887 99.5385 256.731 100.048C256.547 100.656 255.84 100.627 255.317 100.514C254.214 100.288 253.167 99.8213 252.064 99.5951C251.371 99.4536 250.254 99.4961 249.688 99.0293C249.306 98.7182 249.264 98.2515 249.561 97.8838C249.66 97.7706 249.773 97.6858 249.9 97.6151C250.593 97.1059 251.654 97.2756 252.545 97.3888C253.337 97.4878 254.157 97.5868 254.878 97.9121C255.204 98.0535 255.84 98.4353 256.123 98.6616Z" fill="#754C28"/>
<path d="M257.114 161.993C258.075 161.993 258.995 162.332 259.716 162.969C264.751 167.424 288.822 169.135 278.681 148.331C270.62 131.798 260.847 126.707 256.336 125.179C254.978 124.712 253.465 125.024 252.404 125.985C244.427 133.226 236.861 128.46 233.792 125.886C232.731 124.995 231.275 124.712 229.945 125.151C225.476 126.65 215.633 131.699 207.543 148.317C197.402 169.121 221.474 167.41 226.508 162.955C227.23 162.318 228.149 161.979 229.111 161.979H257.114V161.993Z" fill="#FFC100"/>
<path d="M262.007 164.313C261.781 164.157 261.569 164.002 261.399 163.846C260.932 163.422 260.352 163.139 259.758 162.998C260.31 163.478 261.074 163.917 262.007 164.313Z" fill="#FFE700"/>
<path d="M209.241 149.208C217.344 132.591 227.174 127.527 231.643 126.042C232.378 125.802 233.156 125.774 233.877 125.958C233.849 125.943 233.835 125.915 233.807 125.901C232.746 125.01 231.289 124.727 229.96 125.166C225.491 126.665 215.647 131.714 207.558 148.332C202.862 157.977 205.507 162.786 210.202 164.723C206.638 162.361 205.139 157.623 209.241 149.208Z" fill="#FFE700"/>
<path d="M265.939 160.381H221.87V186.8H265.939V160.381Z" fill="#FFB400"/>
<path d="M277.239 156.52C277.239 144.386 262.248 139.803 243.904 139.803C225.561 139.803 210.838 144.4 210.838 156.52C210.838 159.773 211.913 162.856 213.823 165.642C218.758 166.279 224.373 164.878 226.523 162.969C227.244 162.333 228.163 161.993 229.125 161.993H257.1C258.061 161.993 258.981 162.333 259.702 162.969C262.163 165.147 269.164 166.66 274.51 165.232C276.263 162.559 277.239 159.617 277.239 156.52Z" fill="#FFB400"/>
<path d="M236.324 189.458L228.503 192.966L231.614 203.686L240.623 201.155L236.324 189.458Z" fill="#FFBB99"/>
<path d="M249.265 201.055C249.251 201.013 249.236 200.956 249.222 200.914L248.572 199.118C251.429 198.382 256.025 197.208 263.096 195.455C277.819 191.806 285.767 183.221 283.971 177.762C282.189 172.359 277.451 170.097 267.396 173.123C259.023 175.626 247.157 182.514 243.41 184.734L243.014 183.617C242.688 182.726 241.826 182.203 240.935 182.302C240.751 182.33 240.581 182.415 240.454 182.528L238.233 184.452C238.106 184.565 237.936 184.621 237.767 184.607L235.631 184.381C235.235 184.338 234.839 184.452 234.542 184.72C233.976 185.244 233.75 186.078 234.033 186.856" fill="#5B5B5B"/>
<path d="M234.287 186.432C234.457 186.446 234.626 186.39 234.754 186.276L236.819 184.494L235.631 184.367C235.235 184.325 234.839 184.438 234.542 184.707C234.089 185.131 233.849 185.753 233.933 186.389L234.287 186.432Z" fill="#7F7F7F"/>
<path d="M239.534 185.442L239.93 186.559C240.736 186.079 241.91 185.386 243.353 184.565L243.013 183.604C242.688 182.713 241.825 182.189 240.934 182.288C240.751 182.317 240.581 182.401 240.454 182.515L238.431 184.254C238.926 184.48 239.336 184.891 239.534 185.442Z" fill="#7F7F7F"/>
<path d="M248.883 199.967C248.67 200.023 248.472 200.066 248.274 200.122L249.264 201.056C249.25 201.013 249.236 200.957 249.222 200.914L248.883 199.967Z" fill="#7F7F7F"/>
<path d="M283.971 177.748C282.189 172.346 277.451 170.083 267.396 173.11C262.205 174.665 255.671 177.904 250.552 180.662C254.936 178.413 259.844 176.15 263.917 174.934C273.972 171.922 278.71 174.184 280.492 179.573C281.708 183.264 278.456 188.398 271.667 192.457C280.803 188.228 285.386 182.034 283.971 177.748Z" fill="#7F7F7F"/>
<path d="M227.824 192.513C227.569 192.598 227.343 192.725 227.117 192.867C226.112 193.517 221.615 196.091 215.35 194.946C208.208 193.63 205.068 200.716 206.892 203.969C214.006 216.697 223.496 209.499 225.518 207.377C225.815 207.066 226.183 206.797 226.579 206.614L231.473 204.308C231.586 204.252 231.699 204.223 231.812 204.181C232.236 204.04 233.523 203.304 232.335 199.288C230.935 194.521 230.935 194.521 230.935 194.521C230.935 194.521 230.186 191.721 227.824 192.513Z" fill="#D11934"/>
<path d="M226.296 193.348C226.664 193.15 226.946 192.98 227.116 192.867C227.342 192.725 227.569 192.598 227.823 192.513C230.185 191.707 230.935 194.536 230.935 194.536C230.935 194.536 230.935 194.536 232.335 199.302C233.509 203.318 232.236 204.068 231.812 204.195C231.698 204.238 231.585 204.266 231.472 204.322L229.959 205.044C227.654 199.995 226.692 195.922 226.296 193.348Z" fill="#D11934"/>
<path d="M228.63 193.772C227.881 194.422 227.145 195.073 226.396 195.723C226.325 195.78 225.901 196.162 226.155 195.837C226.311 195.624 226.183 195.695 226.226 195.879C226.282 196.261 226.226 196.713 226.226 197.095C226.226 199.132 226.226 201.154 226.226 203.191C226.226 203.601 225.688 203.841 225.406 203.53C223.723 201.692 222.025 199.839 220.342 198C220.611 197.93 220.88 197.859 221.149 197.788C220.795 200.419 220.441 203.035 220.088 205.666C220.003 206.274 219.07 206.019 219.154 205.411C219.508 202.781 219.862 200.164 220.215 197.534C220.258 197.166 220.795 197.081 221.021 197.322C222.704 199.16 224.401 201.013 226.084 202.851C225.816 202.965 225.533 203.078 225.264 203.191C225.264 201.055 225.264 198.934 225.264 196.798C225.264 196.162 225.137 195.61 225.604 195.144C226.339 194.408 227.188 193.758 227.965 193.079C228.418 192.683 229.097 193.362 228.63 193.772Z" fill="#E2D7D0"/>
<path d="M231.756 203.332C230.738 203.332 229.55 203.516 228.56 203.332C227.937 203.219 227.442 202.385 227.046 201.946C225.547 200.292 224.034 198.637 222.535 196.968C222.803 196.855 223.086 196.742 223.355 196.629C223.709 199.358 224.076 202.088 224.43 204.817C224.486 205.242 223.878 205.44 223.61 205.157C221.559 203.035 219.508 200.928 217.457 198.807C217.019 198.354 217.712 197.675 218.136 198.128C220.187 200.249 222.238 202.357 224.288 204.478C224.02 204.591 223.737 204.704 223.468 204.817C223.115 202.088 222.747 199.358 222.393 196.629C222.337 196.204 222.959 195.992 223.214 196.289C224.642 197.873 226.085 199.443 227.513 201.027C227.852 201.395 228.178 201.763 228.517 202.13C228.588 202.201 228.758 202.342 228.786 202.427C228.857 202.682 228.644 202.286 228.574 202.371C228.687 202.229 229.988 202.371 230.186 202.371C230.709 202.371 231.233 202.371 231.756 202.371C232.378 202.371 232.378 203.332 231.756 203.332Z" fill="#E2D7D0"/>
<path d="M206.893 203.969C205.351 201.225 207.345 195.752 212.281 194.889C214.502 196.699 216.255 199.5 217.019 202.852C217.698 205.878 217.457 208.848 216.496 211.309C213.37 211.182 209.905 209.386 206.893 203.969Z" fill="#E2D7D0"/>
<path d="M249.816 189.303L257.637 192.81L254.525 203.516L245.516 200.999L249.816 189.303Z" fill="#FFD9C2"/>
<path d="M243.904 185.272C243.904 185.272 228.8 175.952 218.744 172.939C208.689 169.927 203.951 172.19 202.169 177.578C200.373 183.037 208.321 191.622 223.044 195.271C237.766 198.92 241.74 200.037 241.74 200.037L243.904 185.272Z" fill="#919191"/>
<path d="M227.499 196.273C212.776 192.624 204.828 184.025 206.624 178.58C208.08 174.167 211.517 171.848 218.207 172.796C208.519 170.024 203.908 172.286 202.169 177.59C200.373 183.049 208.321 191.634 223.044 195.283C237.766 198.932 241.74 200.035 241.74 200.035L241.769 199.851C238.884 199.115 234.358 197.97 227.499 196.273Z" fill="#A5A5A5"/>
<path d="M258.316 192.358C258.57 192.442 258.797 192.57 259.023 192.711C260.027 193.362 264.524 195.936 270.79 194.79C277.932 193.475 281.072 200.56 279.247 203.813C272.133 216.542 262.643 209.343 260.621 207.222C260.324 206.911 259.956 206.642 259.56 206.458L254.667 204.153C254.554 204.096 254.44 204.068 254.327 204.025C253.903 203.884 252.616 203.149 253.804 199.132C255.204 194.366 255.204 194.366 255.204 194.366C255.204 194.366 255.954 191.551 258.316 192.358Z" fill="#E81F33"/>
<path d="M259.843 193.192C259.475 192.994 259.193 192.824 259.023 192.711C258.797 192.57 258.57 192.442 258.316 192.357C255.954 191.551 255.204 194.38 255.204 194.38C255.204 194.38 255.204 194.38 253.804 199.146C252.63 203.163 253.903 203.912 254.327 204.039C254.441 204.082 254.554 204.11 254.667 204.167L256.18 204.888C258.485 199.839 259.447 195.766 259.843 193.192Z" fill="#D11934"/>
<path d="M257.51 193.616C258.259 194.267 258.995 194.918 259.744 195.568C259.815 195.625 260.239 196.007 259.985 195.681C259.829 195.469 259.956 195.54 259.914 195.724C259.857 196.106 259.914 196.558 259.914 196.94C259.914 198.977 259.914 200.999 259.914 203.036C259.914 203.446 260.451 203.686 260.734 203.375C262.417 201.536 264.114 199.684 265.797 197.845C265.529 197.774 265.26 197.704 264.991 197.633C265.345 200.264 265.698 202.88 266.052 205.511C266.137 206.119 267.07 205.864 266.985 205.256C266.632 202.625 266.278 200.009 265.925 197.378C265.882 197.011 265.345 196.926 265.118 197.166C263.435 199.005 261.738 200.858 260.055 202.696C260.324 202.809 260.607 202.922 260.876 203.036C260.876 200.9 260.876 198.779 260.876 196.643C260.876 196.007 261.003 195.455 260.536 194.988C259.801 194.253 258.952 193.602 258.174 192.923C257.722 192.527 257.043 193.206 257.51 193.616Z" fill="#FFF9F5"/>
<path d="M254.384 203.177C255.402 203.177 256.59 203.361 257.58 203.177C258.203 203.064 258.698 202.229 259.094 201.791C260.593 200.136 262.106 198.481 263.605 196.812C263.337 196.699 263.054 196.586 262.785 196.473C262.431 199.203 262.064 201.932 261.71 204.662C261.654 205.086 262.262 205.284 262.53 205.001C264.581 202.88 266.632 200.772 268.683 198.651C269.121 198.198 268.428 197.52 268.004 197.972C265.953 200.094 263.902 202.201 261.852 204.322C262.12 204.435 262.403 204.549 262.672 204.662C263.025 201.932 263.393 199.203 263.747 196.473C263.803 196.049 263.181 195.837 262.926 196.134C261.498 197.718 260.055 199.287 258.627 200.871C258.288 201.239 257.962 201.607 257.623 201.975C257.552 202.045 257.382 202.187 257.354 202.272C257.283 202.526 257.496 202.13 257.566 202.215C257.453 202.074 256.152 202.215 255.954 202.215C255.431 202.215 254.907 202.215 254.384 202.215C253.762 202.201 253.762 203.177 254.384 203.177Z" fill="#FFF9F5"/>
<path d="M279.247 203.813C280.789 201.069 278.795 195.596 273.859 194.733C271.638 196.544 269.885 199.344 269.121 202.696C268.442 205.722 268.683 208.692 269.644 211.153C272.77 211.026 276.235 209.216 279.247 203.813Z" fill="#FFF9F5"/>
<path d="M249.462 202.102L253.252 190.844L249.816 189.303L245.516 200.999L249.462 202.102Z" fill="#FFBB99"/>
<path d="M247.907 184.282C248.034 184.395 248.204 184.452 248.374 184.437L250.509 184.211C250.905 184.169 251.301 184.282 251.598 184.551C252.164 185.074 252.39 185.908 252.107 186.686L245.884 203.983C245.87 204.025 245.842 204.082 245.828 204.124C245.389 205.086 244.117 205.312 243.339 204.605L241.359 202.964C241.302 202.922 241.232 202.894 241.161 202.894L238.46 202.88C237.413 202.922 236.579 201.932 236.847 200.9C236.861 200.857 236.876 200.801 236.89 200.758L243.113 183.462C243.438 182.571 244.3 182.047 245.191 182.146C245.375 182.175 245.545 182.259 245.672 182.373L247.907 184.282Z" fill="#7A7A7A"/>
<path d="M264.609 138.544C264.609 138.544 255.204 138.799 243.918 148.133C232.632 138.799 223.227 138.544 223.227 138.544L218.051 142.9L225.66 149.179L243.932 148.543L262.205 149.179L269.814 142.9L264.609 138.544Z" fill="#FFF9F5"/>
<path d="M246.775 149.18H241.062V178.597H246.775V149.18Z" fill="#C1B49A"/>
<path d="M241.061 178.597L216.212 170.861V141.443L241.061 149.18V178.597Z" fill="#754C28"/>
<path d="M246.761 178.597L271.61 170.861V141.443L246.761 149.18V178.597Z" fill="#C1B49A"/>
<path d="M246.761 178.597L271.61 170.86V164.482L246.761 172.218V178.597Z" fill="#754C28"/>
<path d="M241.061 149.179L216.212 141.443L216.821 140.75L241.061 148.048H246.761L270.535 140.566L271.61 141.443L246.761 149.179H241.061Z" fill="#754C28"/>
<path d="M246.761 178.597V149.18" stroke="#754C28" stroke-miterlimit="10"/>
<path d="M221.784 157.693C220.13 161.187 217.612 164.581 214.84 163.266C212.068 161.95 210.866 156.831 212.521 153.352C214.175 149.858 218.192 148.67 220.964 150C223.736 151.315 223.439 154.214 221.784 157.693Z" fill="#FFBB99"/>
<path d="M221.784 157.694C223.439 154.2 223.736 151.315 220.964 150C220.837 149.943 220.71 149.887 220.582 149.844C218.447 150.071 216.311 151.372 215.208 153.691C213.638 157.001 214.642 161.767 217.103 163.379C218.956 162.658 220.596 160.197 221.784 157.694Z" fill="#FFD9C2"/>
<path d="M265.697 157.693C267.352 161.187 269.869 164.581 272.641 163.266C275.413 161.95 276.615 156.831 274.961 153.352C273.306 149.858 269.289 148.67 266.517 150C263.745 151.329 264.042 154.214 265.697 157.693Z" fill="#FFBB99"/>
<path d="M265.697 157.694C264.042 154.2 263.745 151.315 266.517 150C266.645 149.943 266.772 149.887 266.899 149.844C269.035 150.071 271.17 151.372 272.274 153.691C273.843 157.001 272.839 161.767 270.378 163.379C268.526 162.658 266.885 160.197 265.697 157.694Z" fill="#FFD9C2"/>
<defs>
<linearGradient id="paint0_linear" x1="170.163" y1="113.836" x2="-25.7591" y2="-45.4007" gradientUnits="userSpaceOnUse">
<stop stop-color="#06566B"/>
<stop offset="1" stop-color="#047E8E"/>
</linearGradient>
<linearGradient id="paint1_linear" x1="21038.2" y1="15561.7" x2="-2340.28" y2="-6416.4" gradientUnits="userSpaceOnUse">
<stop stop-color="#06566B"/>
<stop offset="1" stop-color="#047E8E"/>
</linearGradient>
</defs>
</svg>
