<svg width="648" height="432" viewBox="0 0 648 432" fill="none" xmlns="http://www.w3.org/2000/svg">
<rect x="0.5" y="0.5" width="647" height="431" rx="9.5" stroke="#6699FF"/>
<path d="M18 56.611H629V336.912H18V56.611Z" fill="#05AC72"/>
<path fill-rule="evenodd" clip-rule="evenodd" d="M626.336 59.2754H20.6635V334.247H626.336V59.2754ZM18 56.611V336.912H629V56.611H18Z" fill="white"/>
<path fill-rule="evenodd" clip-rule="evenodd" d="M233.633 304.233H198.133V316.554H188.066V336.911H198.133H223.566H233.633V304.233Z" fill="#05AC72"/>
<path fill-rule="evenodd" clip-rule="evenodd" d="M188.066 304.233V316.554V336.911H233.633V304.233H198.133H188.066ZM200.808 306.911L190.741 306.911L190.741 319.233V334.233H230.958V306.911H200.808Z" fill="white"/>
<path d="M231.332 312.287H252.504V337.372H231.332V312.287Z" fill="#05AC72"/>
<path fill-rule="evenodd" clip-rule="evenodd" d="M249.832 313.698H234.004V334.351H249.832V313.698ZM231.332 310.907V337.142H252.504V310.907H241.918H231.332Z" fill="white"/>
<path fill-rule="evenodd" clip-rule="evenodd" d="M322.694 287.893H266.836V311.87H249.973V336.912H322.694L322.694 315.599V287.893Z" fill="#05AC72"/>
<path fill-rule="evenodd" clip-rule="evenodd" d="M285.016 310.949H249.973V336.912H322.694L322.694 287.893H285.016V310.949ZM287.676 290.557V313.613H252.633V334.247H320.034L320.034 290.557H287.676Z" fill="white"/>
<path d="M225.58 255.905H257.338V289.504H225.58V255.905Z" fill="#05AC72"/>
<path fill-rule="evenodd" clip-rule="evenodd" d="M254.666 258.572H228.252V286.838H254.666V258.572ZM225.58 255.905V289.504H257.338V255.905H225.58Z" fill="white"/>
<path d="M195.662 255.905H228.341V289.504H195.662V255.905Z" fill="#05AC72"/>
<path fill-rule="evenodd" clip-rule="evenodd" d="M225.68 258.572H198.323V286.838H225.68V258.572ZM195.662 255.905V289.504H228.341V255.905H195.662Z" fill="white"/>
<path d="M18 230.821H133.066V337.372H18V230.821Z" fill="#05AC72"/>
<path fill-rule="evenodd" clip-rule="evenodd" d="M130.402 233.484H20.6636V334.708H130.402V233.484ZM18 230.821V337.372H133.066V230.821H18Z" fill="white"/>
<path d="M320.162 226.448H443.052V336.911H320.162V226.448Z" fill="#05AC72"/>
<path fill-rule="evenodd" clip-rule="evenodd" d="M440.393 229.116H322.822V334.243H440.393V229.116ZM320.162 226.448V336.911H443.052V226.448H320.162Z" fill="white"/>
<path d="M440.521 226.448H536.947V336.911H440.521V226.448Z" fill="#05AC72"/>
<path fill-rule="evenodd" clip-rule="evenodd" d="M534.283 229.116H443.185V334.243H534.283V229.116ZM440.521 226.448V336.911H536.947V226.448H440.521Z" fill="white"/>
<path d="M533.727 226.448H629.001V336.911H533.727V226.448Z" fill="#05AC72"/>
<path fill-rule="evenodd" clip-rule="evenodd" d="M626.34 229.116H536.388V334.243H626.34V229.116ZM533.727 226.448V336.911H629.001V226.448H533.727Z" fill="white"/>
<path d="M533.727 55H629.001V195.611H533.727V55Z" fill="#05AC72"/>
<path fill-rule="evenodd" clip-rule="evenodd" d="M626.34 57.6631H536.388V192.947H626.34V57.6631ZM533.727 55V195.611H629.001V55H533.727Z" fill="white"/>
<path d="M440.521 55H535.796V195.611H440.521V55Z" fill="#05AC72"/>
<path fill-rule="evenodd" clip-rule="evenodd" d="M533.135 57.6631H443.183V192.947H533.135V57.6631ZM440.521 55V195.611H535.796V55H440.521Z" fill="white"/>
<path d="M377.006 55H443.054V195.611H377.006V55Z" fill="#05AC72"/>
<path fill-rule="evenodd" clip-rule="evenodd" d="M440.39 57.6631H379.669V192.947H440.39V57.6631ZM377.006 55V195.611H443.054V55H377.006Z" fill="white"/>
<path d="M18 56.611H288.635V233.352H18V56.611Z" fill="#05AC72"/>
<path fill-rule="evenodd" clip-rule="evenodd" d="M285.971 59.2727H20.6637V230.69H285.971V59.2727ZM18 56.611V233.352H288.635V56.611H18Z" fill="white"/>
<path d="M160.221 255.905H198.192V289.504H160.221V255.905Z" fill="#05AC72"/>
<path fill-rule="evenodd" clip-rule="evenodd" d="M195.53 258.572H162.883V286.838H195.53V258.572ZM160.221 255.905V289.504H198.192V255.905H160.221Z" fill="white"/>
<path fill-rule="evenodd" clip-rule="evenodd" d="M255.873 255.905H254.807V256.971V288.438V289.504H255.873H321.859H322.926V288.438V256.971V255.905H321.859H255.873ZM259.982 287.372H262.129V258.038H259.982V287.372ZM259.448 287.372V258.038H257.301V287.372H259.448ZM267.492 287.372H265.344V258.038H267.492V287.372ZM264.81 258.038V287.372H262.663V258.038H264.81ZM270.706 287.372H272.854V258.038H270.706V287.372ZM270.173 287.372V258.038H268.025V287.372H270.173ZM278.216 287.372H276.068V258.038H278.216V287.372ZM275.535 258.038V287.372H273.387V258.038H275.535ZM281.43 287.372H283.578V258.038H281.43V287.372ZM280.897 287.372V258.038H278.749V287.372H280.897ZM288.94 287.372H286.792V258.038H288.94V287.372ZM286.259 258.038V287.372H284.111V258.038H286.259ZM292.154 287.372H294.302V258.038H292.154V287.372ZM291.621 287.372V258.038H289.473V287.372H291.621ZM299.664 287.372H297.516V258.038H299.664V287.372ZM296.983 258.038V287.372H294.835V258.038H296.983ZM302.878 287.372H305.026V258.038H302.878V287.372ZM302.345 287.372V258.038H300.197V287.372H302.345ZM310.388 287.372H308.241V258.038H310.388V287.372ZM307.707 258.038V287.372H305.56V258.038H307.707ZM313.603 287.372H315.75V258.038H313.603V287.372ZM313.069 287.372V258.038H310.922V287.372H313.069ZM320.507 258.038V287.372H318.965V258.038H320.507ZM318.431 258.038V287.372H316.284V258.038H318.431Z" fill="white"/>
<path d="M285.873 56.611H323.845V108.851H285.873V56.611Z" fill="#05AC72"/>
<path fill-rule="evenodd" clip-rule="evenodd" d="M321.171 59.2763H288.547V106.186H321.171V59.2763ZM285.873 56.611V108.851H323.845V56.611H285.873Z" fill="white"/>
<path d="M285.873 104.018H323.845V137.157H285.873V104.018Z" fill="#05AC72"/>
<path fill-rule="evenodd" clip-rule="evenodd" d="M321.182 106.691H288.536V134.485H321.182V106.691ZM285.873 104.018V137.157H323.845V104.018H285.873Z" fill="white"/>
<path d="M285.873 133.935H323.845V167.074H285.873V133.935Z" fill="#05AC72"/>
<path fill-rule="evenodd" clip-rule="evenodd" d="M321.182 136.608H288.536V164.402H321.182V136.608ZM285.873 133.935V167.074H323.845V133.935H285.873Z" fill="white"/>
<path d="M285.873 164.083H323.845V197.222H285.873V164.083Z" fill="#05AC72"/>
<path fill-rule="evenodd" clip-rule="evenodd" d="M321.171 166.755H288.547V194.549H321.171V166.755ZM285.873 164.083V197.222H323.845V164.083H285.873Z" fill="white"/>
<path d="M341.795 56.611H379.767V106.78H341.795V56.611Z" fill="#05AC72"/>
<path fill-rule="evenodd" clip-rule="evenodd" d="M377.093 59.2795H344.469V104.111H377.093V59.2795ZM341.795 56.611V106.78H379.767V56.611H341.795Z" fill="white"/>
<path d="M341.795 104.018H379.767V136.467H341.795V104.018Z" fill="#05AC72"/>
<path fill-rule="evenodd" clip-rule="evenodd" d="M377.093 106.678H344.469V133.807H377.093V106.678ZM341.795 104.018V136.467H379.767V104.018H341.795Z" fill="white"/>
<path d="M341.795 133.935H379.767V166.844H341.795V133.935Z" fill="#05AC72"/>
<path fill-rule="evenodd" clip-rule="evenodd" d="M377.093 136.589H344.469V164.19H377.093V136.589ZM341.795 133.935V166.844H379.767V133.935H341.795Z" fill="white"/>
<path d="M341.795 163.162H379.767V195.61H341.795V163.162Z" fill="#05AC72"/>
<path fill-rule="evenodd" clip-rule="evenodd" d="M377.093 165.822H344.469V192.951H377.093V165.822ZM341.795 163.162V195.61H379.767V163.162H341.795Z" fill="white"/>
<path fill-rule="evenodd" clip-rule="evenodd" d="M261.824 287.548H287.599V313.553H261.824V287.548ZM264.356 290.08V311.022H285.068V290.08H264.356Z" fill="white"/>
<path fill-rule="evenodd" clip-rule="evenodd" d="M231.376 270.089L235.701 265.628C235.967 265.355 236.404 265.348 236.678 265.613L241.138 269.939C241.412 270.204 241.419 270.642 241.153 270.915C240.888 271.189 240.451 271.196 240.177 270.93L236.913 267.765L237.118 281.057L235.737 281.078L235.532 267.786L232.367 271.05C232.102 271.324 231.665 271.331 231.391 271.065C231.117 270.8 231.11 270.363 231.376 270.089Z" fill="white"/>
<path fill-rule="evenodd" clip-rule="evenodd" d="M251.435 277.164L247.041 281.558C246.771 281.827 246.334 281.827 246.064 281.558L241.671 277.164C241.401 276.894 241.401 276.457 241.671 276.188C241.94 275.918 242.378 275.918 242.647 276.188L245.862 279.403V266.109H247.243V279.403L250.458 276.188C250.728 275.918 251.165 275.918 251.435 276.188C251.704 276.457 251.704 276.894 251.435 277.164Z" fill="white"/>
<path d="M212.516 311.955C212.516 312.915 211.786 313.693 210.884 313.693C209.983 313.693 209.252 312.915 209.252 311.955C209.252 310.995 209.983 310.216 210.884 310.216C211.786 310.216 212.516 310.995 212.516 311.955Z" fill="white"/>
<path fill-rule="evenodd" clip-rule="evenodd" d="M209.251 316.498L207.028 324.459H209.149C209.141 324.501 209.138 324.544 209.138 324.587V330.416C209.138 330.825 209.469 331.157 209.878 331.157C210.286 331.157 210.618 330.825 210.618 330.416V324.587C210.618 324.544 210.614 324.501 210.607 324.459H210.77V324.461H211.122C211.115 324.502 211.111 324.545 211.111 324.589V330.418C211.111 330.827 211.443 331.158 211.851 331.158C212.26 331.158 212.592 330.827 212.592 330.418V324.589C212.592 324.545 212.588 324.502 212.581 324.461H214.702L212.479 316.5H212.798L214.14 321.07C214.262 321.486 214.732 321.679 215.115 321.471C215.403 321.314 215.544 320.977 215.454 320.663L213.915 315.334C213.887 315.237 213.84 315.151 213.778 315.079L213.787 315.077C213.617 314.69 212.985 313.966 211.796 314.056L211.795 314.05H210.77L210.77 314.048H209.935L209.933 314.055C208.744 313.964 208.113 314.688 207.942 315.076L207.951 315.077C207.889 315.15 207.842 315.236 207.814 315.332L206.275 320.662C206.185 320.975 206.326 321.312 206.614 321.469C206.997 321.677 207.467 321.484 207.589 321.069L208.932 316.498H209.251Z" fill="white"/>
<path fill-rule="evenodd" clip-rule="evenodd" d="M303.661 308.096C304.75 308.096 305.632 307.231 305.632 306.164C305.632 305.098 304.75 304.233 303.661 304.233C302.573 304.233 301.69 305.098 301.69 306.164C301.69 307.231 302.573 308.096 303.661 308.096ZM301.21 311.202V319.198L301.233 319.173V324.075C301.233 324.682 301.726 325.175 302.333 325.175C302.941 325.175 303.433 324.682 303.433 324.075V316.753L303.478 316.704V316.262H303.708V316.704L303.753 316.753V324.074C303.753 324.682 304.245 325.175 304.853 325.175C305.46 325.175 305.953 324.682 305.953 324.074V319.173L305.976 319.198V311.202H306.268L306.31 316.069C306.314 316.581 306.778 316.962 307.283 316.868C307.679 316.794 307.967 316.447 307.965 316.045L307.943 310.073C307.943 309.921 307.902 309.778 307.83 309.655L307.832 309.655C307.654 309.29 307.06 308.652 305.976 308.549V308.537H305.773C305.706 308.535 305.637 308.535 305.566 308.537H304.858V308.535H302.566V308.537H301.62C301.549 308.535 301.48 308.535 301.413 308.537H301.21V308.549C300.126 308.652 299.532 309.29 299.354 309.655L299.356 309.655C299.284 309.778 299.243 309.921 299.243 310.073L299.221 316.045C299.219 316.447 299.507 316.794 299.903 316.868C300.408 316.962 300.872 316.581 300.876 316.069L300.918 311.202H301.21Z" fill="white"/>
<path d="M143.878 136.697L143.164 134.351H139.57L138.855 136.697H136.604L140.082 126.799H142.638L146.13 136.697H143.878ZM142.665 132.598C142.004 130.472 141.631 129.269 141.546 128.991C141.465 128.712 141.406 128.492 141.37 128.33C141.222 128.905 140.797 130.328 140.096 132.598H142.665Z" fill="#FBFBFB"/>
<path d="M147.667 136.697L151.369 128.606H146.508V126.853H153.58V128.161L149.852 136.697H147.667Z" fill="#FBFBFB"/>
<path d="M161.415 131.768C161.415 133.49 161.131 134.764 160.565 135.591C160.003 136.418 159.136 136.832 157.963 136.832C156.825 136.832 155.967 136.405 155.387 135.551C154.812 134.697 154.524 133.436 154.524 131.768C154.524 130.029 154.805 128.748 155.367 127.925C155.929 127.098 156.794 126.685 157.963 126.685C159.1 126.685 159.958 127.116 160.538 127.979C161.122 128.842 161.415 130.105 161.415 131.768ZM156.594 131.768C156.594 132.977 156.697 133.845 156.904 134.371C157.115 134.892 157.468 135.153 157.963 135.153C158.448 135.153 158.799 134.888 159.014 134.357C159.23 133.827 159.338 132.964 159.338 131.768C159.338 130.559 159.228 129.692 159.008 129.166C158.792 128.635 158.444 128.37 157.963 128.37C157.473 128.37 157.122 128.635 156.911 129.166C156.7 129.692 156.594 130.559 156.594 131.768Z" fill="#FBFBFB"/>
<path d="M169.357 136.697H162.466V135.247L164.941 132.746C165.673 131.995 166.152 131.476 166.377 131.188C166.602 130.896 166.763 130.627 166.862 130.379C166.961 130.132 167.011 129.876 167.011 129.611C167.011 129.215 166.9 128.921 166.68 128.728C166.464 128.534 166.175 128.438 165.81 128.438C165.428 128.438 165.058 128.525 164.698 128.701C164.338 128.876 163.963 129.125 163.572 129.449L162.439 128.107C162.925 127.694 163.327 127.402 163.646 127.231C163.965 127.06 164.314 126.93 164.691 126.84C165.069 126.745 165.491 126.698 165.959 126.698C166.575 126.698 167.118 126.811 167.59 127.035C168.062 127.26 168.429 127.575 168.689 127.979C168.95 128.384 169.08 128.847 169.08 129.368C169.08 129.822 169 130.249 168.838 130.649C168.68 131.045 168.433 131.451 168.096 131.869C167.763 132.287 167.175 132.883 166.33 133.656L165.062 134.849V134.944H169.357V136.697Z" fill="#FBFBFB"/>
<path d="M66.0931 277.537L65.3785 275.191H61.7849L61.0702 277.537H58.8184L62.2973 267.64H64.8526L68.345 277.537H66.0931ZM64.8795 273.438C64.2188 271.312 63.8458 270.11 63.7604 269.831C63.6794 269.553 63.621 269.332 63.5851 269.17C63.4367 269.746 63.012 271.168 62.3108 273.438H64.8795Z" fill="#FBFBFB"/>
<path d="M69.8822 277.537L73.5837 269.447H68.7226V267.694H75.7951V269.002L72.0667 277.537H69.8822Z" fill="#FBFBFB"/>
<path d="M83.6294 272.609C83.6294 274.33 83.3463 275.605 82.7799 276.432C82.2181 277.259 81.3506 277.672 80.1775 277.672C79.0403 277.672 78.1818 277.245 77.602 276.391C77.0266 275.537 76.739 274.277 76.739 272.609C76.739 270.869 77.0199 269.588 77.5817 268.766C78.1436 267.939 79.0088 267.525 80.1775 267.525C81.3146 267.525 82.1731 267.957 82.753 268.82C83.3373 269.683 83.6294 270.946 83.6294 272.609ZM78.8088 272.609C78.8088 273.818 78.9122 274.686 79.119 275.211C79.3302 275.733 79.683 275.994 80.1775 275.994C80.6629 275.994 81.0135 275.728 81.2292 275.198C81.445 274.668 81.5529 273.805 81.5529 272.609C81.5529 271.4 81.4427 270.532 81.2225 270.006C81.0068 269.476 80.6584 269.211 80.1775 269.211C79.6875 269.211 79.3369 269.476 79.1257 270.006C78.9144 270.532 78.8088 271.4 78.8088 272.609Z" fill="#FBFBFB"/>
<path d="M89.8322 277.537H87.7489V271.834L87.7691 270.896L87.8028 269.872C87.4567 270.218 87.2163 270.445 87.0814 270.553L85.9487 271.463L84.9442 270.209L88.1197 267.68H89.8322V277.537Z" fill="#FBFBFB"/>
<path d="M400.704 118.746L399.99 116.4H396.396L395.682 118.746H393.43L396.909 108.849H399.464L402.956 118.746H400.704ZM399.491 114.647C398.83 112.521 398.457 111.319 398.372 111.04C398.291 110.762 398.232 110.541 398.196 110.379C398.048 110.955 397.623 112.377 396.922 114.647H399.491Z" fill="#FBFBFB"/>
<path d="M404.494 118.746L408.195 110.656H403.334V108.903H410.406V110.211L406.678 118.746H404.494Z" fill="#FBFBFB"/>
<path d="M416.555 118.746H414.472V113.043L414.492 112.105L414.526 111.081C414.18 111.427 413.939 111.654 413.804 111.762L412.672 112.672L411.667 111.418L414.843 108.889H416.555V118.746Z" fill="#FBFBFB"/>
<path d="M424.444 118.746H422.36V113.043L422.38 112.105L422.414 111.081C422.068 111.427 421.828 111.654 421.693 111.762L420.56 112.672L419.555 111.418L422.731 108.889H424.444V118.746Z" fill="#FBFBFB"/>
<path d="M571.923 118.747L571.209 116.4H567.615L566.9 118.747H564.648L568.127 108.849H570.683L574.175 118.747H571.923ZM570.71 114.647C570.049 112.521 569.676 111.319 569.59 111.04C569.51 110.762 569.451 110.541 569.415 110.38C569.267 110.955 568.842 112.377 568.141 114.647H570.71Z" fill="#FBFBFB"/>
<path d="M575.712 118.747L579.414 110.656H574.553V108.903H581.625V110.211L577.897 118.747H575.712Z" fill="#FBFBFB"/>
<path d="M587.774 118.747H585.691V113.043L585.711 112.106L585.745 111.081C585.399 111.427 585.158 111.654 585.023 111.762L583.891 112.672L582.886 111.418L586.061 108.89H587.774V118.747Z" fill="#FBFBFB"/>
<path d="M597.017 111.094C597.017 111.71 596.831 112.234 596.458 112.665C596.085 113.097 595.561 113.393 594.887 113.555V113.596C595.683 113.694 596.285 113.937 596.694 114.324C597.103 114.706 597.307 115.223 597.307 115.874C597.307 116.823 596.964 117.562 596.276 118.093C595.588 118.618 594.606 118.881 593.33 118.881C592.26 118.881 591.311 118.704 590.484 118.349V116.576C590.866 116.769 591.287 116.926 591.745 117.048C592.204 117.169 592.658 117.23 593.107 117.23C593.795 117.23 594.303 117.113 594.631 116.879C594.959 116.645 595.123 116.27 595.123 115.753C595.123 115.29 594.934 114.962 594.557 114.769C594.179 114.575 593.577 114.479 592.75 114.479H592.001V112.881H592.763C593.527 112.881 594.085 112.782 594.435 112.584C594.79 112.382 594.968 112.038 594.968 111.553C594.968 110.807 594.5 110.433 593.565 110.433C593.242 110.433 592.912 110.487 592.574 110.595C592.242 110.703 591.871 110.89 591.462 111.155L590.498 109.719C591.397 109.072 592.469 108.748 593.714 108.748C594.734 108.748 595.539 108.955 596.128 109.368C596.721 109.782 597.017 110.357 597.017 111.094Z" fill="#FBFBFB"/>
<path d="M571.923 275.236L571.209 272.89H567.615L566.9 275.236H564.648L568.127 265.339H570.683L574.175 275.236H571.923ZM570.71 271.137C570.049 269.011 569.676 267.809 569.59 267.53C569.51 267.251 569.451 267.031 569.415 266.869C569.267 267.445 568.842 268.867 568.141 271.137H570.71Z" fill="#FBFBFB"/>
<path d="M575.712 275.236L579.414 267.146H574.553V265.393H581.625V266.701L577.897 275.236H575.712Z" fill="#FBFBFB"/>
<path d="M587.774 275.236H585.691V269.532L585.711 268.595L585.745 267.57C585.399 267.916 585.158 268.143 585.023 268.251L583.891 269.162L582.886 267.908L586.061 265.379H587.774V275.236Z" fill="#FBFBFB"/>
<path d="M597.624 273.193H596.438V275.236H594.402V273.193H590.194V271.744L594.516 265.379H596.438V271.575H597.624V273.193ZM594.402 271.575V269.903C594.402 269.625 594.413 269.22 594.435 268.69C594.458 268.159 594.476 267.851 594.489 267.766H594.435C594.269 268.134 594.069 268.494 593.835 268.845L592.028 271.575H594.402Z" fill="#FBFBFB"/>
<path d="M479.41 275.236L478.695 272.89H475.101L474.387 275.236H472.135L475.614 265.339H478.169L481.661 275.236H479.41ZM478.196 271.137C477.535 269.011 477.162 267.809 477.077 267.53C476.996 267.251 476.937 267.031 476.901 266.869C476.753 267.445 476.328 268.867 475.627 271.137H478.196Z" fill="#FBFBFB"/>
<path d="M483.199 275.236L486.9 267.146H482.039V265.393H489.111V266.701L485.383 275.236H483.199Z" fill="#FBFBFB"/>
<path d="M495.26 275.236H493.177V269.532L493.197 268.595L493.231 267.57C492.885 267.916 492.644 268.143 492.51 268.251L491.377 269.162L490.372 267.908L493.548 265.379H495.26V275.236Z" fill="#FBFBFB"/>
<path d="M501.584 268.939C502.537 268.939 503.295 269.206 503.857 269.741C504.423 270.276 504.706 271.009 504.706 271.939C504.706 273.041 504.367 273.888 503.688 274.481C503.009 275.074 502.038 275.371 500.775 275.371C499.679 275.371 498.793 275.194 498.119 274.838V273.038C498.474 273.227 498.888 273.382 499.36 273.503C499.831 273.62 500.279 273.679 500.701 273.679C501.973 273.679 502.609 273.157 502.609 272.115C502.609 271.121 501.951 270.625 500.634 270.625C500.396 270.625 500.133 270.649 499.845 270.699C499.557 270.744 499.324 270.793 499.144 270.847L498.315 270.402L498.685 265.379H504.032V267.146H500.512L500.33 269.081L500.566 269.033C500.841 268.971 501.18 268.939 501.584 268.939Z" fill="#FBFBFB"/>
<path d="M372.169 275.236L371.455 272.89H367.861L367.146 275.236H364.895L368.373 265.339H370.929L374.421 275.236H372.169ZM370.956 271.137C370.295 269.011 369.922 267.809 369.837 267.53C369.756 267.251 369.697 267.031 369.661 266.869C369.513 267.444 369.088 268.867 368.387 271.137H370.956Z" fill="#FBFBFB"/>
<path d="M375.958 275.236L379.66 267.146H374.799V265.393H381.871V266.701L378.143 275.236H375.958Z" fill="#FBFBFB"/>
<path d="M388.02 275.236H385.937V269.532L385.957 268.595L385.991 267.57C385.645 267.916 385.404 268.143 385.269 268.251L384.137 269.161L383.132 267.907L386.308 265.379H388.02V275.236Z" fill="#FBFBFB"/>
<path d="M390.69 271.049C390.69 269.099 391.101 267.647 391.924 266.694C392.751 265.741 393.987 265.265 395.632 265.265C396.194 265.265 396.634 265.298 396.953 265.366V267.031C396.553 266.941 396.158 266.896 395.767 266.896C395.052 266.896 394.468 267.004 394.014 267.22C393.564 267.435 393.227 267.755 393.003 268.177C392.778 268.6 392.645 269.2 392.605 269.977H392.692C393.137 269.213 393.85 268.831 394.83 268.831C395.711 268.831 396.401 269.108 396.899 269.66C397.398 270.213 397.648 270.977 397.648 271.953C397.648 273.005 397.351 273.838 396.758 274.454C396.165 275.065 395.342 275.371 394.29 275.371C393.562 275.371 392.926 275.202 392.382 274.865C391.843 274.528 391.425 274.036 391.128 273.389C390.836 272.742 390.69 271.962 390.69 271.049ZM394.25 273.706C394.695 273.706 395.036 273.557 395.275 273.261C395.513 272.96 395.632 272.533 395.632 271.98C395.632 271.499 395.52 271.121 395.295 270.847C395.075 270.568 394.74 270.429 394.29 270.429C393.868 270.429 393.506 270.566 393.205 270.84C392.908 271.114 392.76 271.434 392.76 271.798C392.76 272.333 392.899 272.784 393.178 273.153C393.461 273.521 393.818 273.706 394.25 273.706Z" fill="#FBFBFB"/>
<path d="M478.72 118.747L478.005 116.4H474.412L473.697 118.747H471.445L474.924 108.849H477.48L480.972 118.747H478.72ZM477.506 114.647C476.846 112.521 476.473 111.319 476.387 111.04C476.306 110.762 476.248 110.541 476.212 110.38C476.064 110.955 475.639 112.377 474.938 114.647H477.506Z" fill="#FBFBFB"/>
<path d="M482.509 118.747L486.211 110.656H481.35V108.903H488.422V110.211L484.694 118.747H482.509Z" fill="#FBFBFB"/>
<path d="M494.571 118.747H492.488V113.043L492.508 112.106L492.541 111.081C492.195 111.427 491.955 111.654 491.82 111.762L490.687 112.672L489.683 111.418L492.858 108.89H494.571V118.747Z" fill="#FBFBFB"/>
<path d="M504.199 118.747H497.308V117.297L499.783 114.796C500.515 114.045 500.994 113.526 501.219 113.238C501.443 112.946 501.605 112.676 501.704 112.429C501.803 112.182 501.852 111.926 501.852 111.661C501.852 111.265 501.742 110.971 501.522 110.777C501.306 110.584 501.016 110.487 500.652 110.487C500.27 110.487 499.899 110.575 499.54 110.75C499.18 110.926 498.805 111.175 498.414 111.499L497.281 110.157C497.767 109.744 498.169 109.451 498.488 109.281C498.807 109.11 499.156 108.979 499.533 108.89C499.911 108.795 500.333 108.748 500.801 108.748C501.416 108.748 501.96 108.86 502.432 109.085C502.904 109.31 503.27 109.624 503.531 110.029C503.792 110.433 503.922 110.896 503.922 111.418C503.922 111.872 503.841 112.299 503.679 112.699C503.522 113.094 503.275 113.501 502.938 113.919C502.605 114.337 502.016 114.933 501.171 115.706L499.904 116.899V116.994H504.199V118.747Z" fill="#FBFBFB"/>
<path d="M353.425 77.4181L353.148 79.8992L355.663 79.198L355.886 80.897L353.593 81.0588L355.097 83.0613L353.566 83.8771L352.515 81.7668L351.591 83.8636L350 83.0613L351.49 81.0588L349.211 80.8836L349.474 79.198L351.935 79.8992L351.658 77.4181H353.425Z" fill="#FBFBFB"/>
<path d="M363.7 82.9804C363.7 84.7019 363.417 85.9761 362.85 86.8032C362.288 87.6302 361.421 88.0437 360.248 88.0437C359.111 88.0437 358.252 87.6167 357.672 86.7627C357.097 85.9087 356.809 84.6479 356.809 82.9804C356.809 81.2409 357.09 79.9599 357.652 79.1373C358.214 78.3103 359.079 77.8968 360.248 77.8968C361.385 77.8968 362.243 78.3283 362.823 79.1913C363.408 80.0543 363.7 81.3173 363.7 82.9804ZM358.879 82.9804C358.879 84.1895 358.983 85.0569 359.189 85.5828C359.401 86.1042 359.753 86.3649 360.248 86.3649C360.733 86.3649 361.084 86.0997 361.3 85.5693C361.515 85.039 361.623 84.176 361.623 82.9804C361.623 81.7713 361.513 80.9038 361.293 80.3779C361.077 79.8475 360.729 79.5823 360.248 79.5823C359.758 79.5823 359.407 79.8475 359.196 80.3779C358.985 80.9038 358.879 81.7713 358.879 82.9804Z" fill="#FBFBFB"/>
<path d="M365.729 87.9089L369.431 79.8183H364.57V78.0653H371.642V79.3733L367.914 87.9089H365.729Z" fill="#FBFBFB"/>
<path d="M297.964 114.93L297.687 117.411L300.202 116.709L300.425 118.409L298.132 118.57L299.636 120.573L298.105 121.389L297.054 119.278L296.13 121.375L294.539 120.573L296.029 118.57L293.75 118.395L294.013 116.709L296.474 117.411L296.197 114.93H297.964Z" fill="#FBFBFB"/>
<path d="M308.239 120.492C308.239 122.213 307.956 123.488 307.389 124.315C306.828 125.142 305.96 125.555 304.787 125.555C303.65 125.555 302.791 125.128 302.211 124.274C301.636 123.42 301.348 122.159 301.348 120.492C301.348 118.752 301.629 117.471 302.191 116.649C302.753 115.822 303.618 115.408 304.787 115.408C305.924 115.408 306.783 115.84 307.362 116.703C307.947 117.566 308.239 118.829 308.239 120.492ZM303.418 120.492C303.418 121.701 303.522 122.568 303.728 123.094C303.94 123.616 304.292 123.876 304.787 123.876C305.272 123.876 305.623 123.611 305.839 123.081C306.054 122.55 306.162 121.687 306.162 120.492C306.162 119.283 306.052 118.415 305.832 117.889C305.616 117.359 305.268 117.094 304.787 117.094C304.297 117.094 303.946 117.359 303.735 117.889C303.524 118.415 303.418 119.283 303.418 120.492Z" fill="#FBFBFB"/>
<path d="M316.404 123.377H315.217V125.42H313.181V123.377H308.974V121.928L313.295 115.563H315.217V121.759H316.404V123.377ZM313.181 121.759V120.087C313.181 119.809 313.192 119.404 313.215 118.874C313.237 118.343 313.255 118.035 313.269 117.95H313.215C313.048 118.319 312.848 118.678 312.615 119.029L310.808 121.759H313.181Z" fill="#FBFBFB"/>
<path d="M297.964 145.077L297.687 147.558L300.202 146.857L300.425 148.556L298.132 148.718L299.636 150.72L298.105 151.536L297.054 149.425L296.13 151.522L294.539 150.72L296.029 148.718L293.75 148.542L294.013 146.857L296.474 147.558L296.197 145.077H297.964Z" fill="#FBFBFB"/>
<path d="M308.239 150.639C308.239 152.361 307.956 153.635 307.389 154.462C306.828 155.289 305.96 155.702 304.787 155.702C303.65 155.702 302.791 155.275 302.211 154.421C301.636 153.567 301.348 152.307 301.348 150.639C301.348 148.9 301.629 147.619 302.191 146.796C302.753 145.969 303.618 145.555 304.787 145.555C305.924 145.555 306.783 145.987 307.362 146.85C307.947 147.713 308.239 148.976 308.239 150.639ZM303.418 150.639C303.418 151.848 303.522 152.716 303.728 153.242C303.94 153.763 304.292 154.024 304.787 154.024C305.272 154.024 305.623 153.758 305.839 153.228C306.054 152.698 306.162 151.835 306.162 150.639C306.162 149.43 306.052 148.562 305.832 148.037C305.616 147.506 305.268 147.241 304.787 147.241C304.297 147.241 303.946 147.506 303.735 148.037C303.524 148.562 303.418 149.43 303.418 150.639Z" fill="#FBFBFB"/>
<path d="M312.877 149.27C313.83 149.27 314.588 149.538 315.15 150.073C315.716 150.608 315.999 151.34 315.999 152.271C315.999 153.372 315.66 154.219 314.981 154.812C314.302 155.406 313.331 155.702 312.068 155.702C310.972 155.702 310.086 155.525 309.412 155.17V153.37C309.767 153.558 310.181 153.713 310.653 153.835C311.125 153.952 311.572 154.01 311.994 154.01C313.266 154.01 313.902 153.489 313.902 152.446C313.902 151.453 313.244 150.956 311.927 150.956C311.689 150.956 311.426 150.981 311.138 151.03C310.85 151.075 310.617 151.124 310.437 151.178L309.608 150.733L309.978 145.711H315.325V147.477H311.805L311.623 149.412L311.859 149.365C312.134 149.302 312.473 149.27 312.877 149.27Z" fill="#FBFBFB"/>
<path d="M297.964 175.454L297.687 177.935L300.202 177.234L300.425 178.933L298.132 179.095L299.636 181.097L298.105 181.913L297.054 179.803L296.13 181.9L294.539 181.097L296.029 179.095L293.75 178.92L294.013 177.234L296.474 177.935L296.197 175.454H297.964Z" fill="#FBFBFB"/>
<path d="M308.239 181.016C308.239 182.738 307.956 184.012 307.389 184.839C306.828 185.666 305.96 186.08 304.787 186.08C303.65 186.08 302.791 185.653 302.211 184.799C301.636 183.945 301.348 182.684 301.348 181.016C301.348 179.277 301.629 177.996 302.191 177.173C302.753 176.346 303.618 175.933 304.787 175.933C305.924 175.933 306.783 176.364 307.362 177.227C307.947 178.09 308.239 179.353 308.239 181.016ZM303.418 181.016C303.418 182.226 303.522 183.093 303.728 183.619C303.94 184.14 304.292 184.401 304.787 184.401C305.272 184.401 305.623 184.136 305.839 183.605C306.054 183.075 306.162 182.212 306.162 181.016C306.162 179.807 306.052 178.94 305.832 178.414C305.616 177.884 305.268 177.618 304.787 177.618C304.297 177.618 303.946 177.884 303.735 178.414C303.524 178.94 303.418 179.807 303.418 181.016Z" fill="#FBFBFB"/>
<path d="M309.223 181.758C309.223 179.807 309.634 178.356 310.457 177.403C311.284 176.45 312.52 175.973 314.165 175.973C314.727 175.973 315.168 176.007 315.487 176.075V177.74C315.087 177.65 314.691 177.605 314.3 177.605C313.585 177.605 313.001 177.713 312.547 177.929C312.098 178.144 311.761 178.463 311.536 178.886C311.311 179.308 311.178 179.909 311.138 180.686H311.226C311.671 179.922 312.383 179.54 313.363 179.54C314.244 179.54 314.934 179.816 315.433 180.369C315.932 180.922 316.181 181.686 316.181 182.662C316.181 183.713 315.884 184.547 315.291 185.163C314.698 185.774 313.875 186.08 312.824 186.08C312.095 186.08 311.459 185.911 310.915 185.574C310.376 185.237 309.958 184.745 309.661 184.098C309.369 183.45 309.223 182.671 309.223 181.758ZM312.783 184.415C313.228 184.415 313.57 184.266 313.808 183.97C314.046 183.668 314.165 183.241 314.165 182.689C314.165 182.208 314.053 181.83 313.828 181.556C313.608 181.277 313.273 181.138 312.824 181.138C312.401 181.138 312.039 181.275 311.738 181.549C311.441 181.823 311.293 182.142 311.293 182.507C311.293 183.041 311.432 183.493 311.711 183.862C311.994 184.23 312.352 184.415 312.783 184.415Z" fill="#FBFBFB"/>
<path d="M297.733 77.4181L297.457 79.8992L299.972 79.198L300.194 80.897L297.902 81.0588L299.405 83.0613L297.875 83.8771L296.823 81.7668L295.9 83.8636L294.308 83.0613L295.798 81.0588L293.52 80.8836L293.782 79.198L296.243 79.8992L295.967 77.4181H297.733Z" fill="#FBFBFB"/>
<path d="M308.008 82.9804C308.008 84.7019 307.725 85.9761 307.159 86.8032C306.597 87.6302 305.73 88.0437 304.556 88.0437C303.419 88.0437 302.561 87.6167 301.981 86.7627C301.406 85.9087 301.118 84.6479 301.118 82.9804C301.118 81.2409 301.399 79.9599 301.961 79.1373C302.523 78.3103 303.388 77.8968 304.556 77.8968C305.694 77.8968 306.552 78.3283 307.132 79.1913C307.716 80.0543 308.008 81.3173 308.008 82.9804ZM303.188 82.9804C303.188 84.1895 303.291 85.0569 303.498 85.5828C303.709 86.1042 304.062 86.3649 304.556 86.3649C305.042 86.3649 305.392 86.0997 305.608 85.5693C305.824 85.039 305.932 84.176 305.932 82.9804C305.932 81.7713 305.822 80.9038 305.601 80.3779C305.386 79.8475 305.037 79.5823 304.556 79.5823C304.066 79.5823 303.716 79.8475 303.505 80.3779C303.293 80.9038 303.188 81.7713 303.188 82.9804Z" fill="#FBFBFB"/>
<path d="M315.566 80.2565C315.566 80.8723 315.38 81.396 315.007 81.8275C314.634 82.2589 314.11 82.5556 313.436 82.7174V82.7579C314.231 82.8568 314.834 83.0995 315.243 83.486C315.652 83.8681 315.856 84.385 315.856 85.0367C315.856 85.9851 315.512 86.7245 314.825 87.2549C314.137 87.7808 313.155 88.0437 311.878 88.0437C310.809 88.0437 309.86 87.8662 309.033 87.5111V85.7379C309.415 85.9312 309.836 86.0885 310.294 86.2098C310.752 86.3312 311.206 86.3919 311.656 86.3919C312.344 86.3919 312.852 86.275 313.18 86.0413C313.508 85.8076 313.672 85.4323 313.672 84.9154C313.672 84.4524 313.483 84.1243 313.105 83.931C312.728 83.7377 312.126 83.6411 311.299 83.6411H310.55V82.0432H311.312C312.076 82.0432 312.634 81.9443 312.984 81.7465C313.339 81.5443 313.517 81.2004 313.517 80.715C313.517 79.9689 313.049 79.5958 312.114 79.5958C311.791 79.5958 311.46 79.6497 311.123 79.7576C310.791 79.8655 310.42 80.052 310.011 80.3172L309.047 78.8811C309.946 78.2339 311.018 77.9103 312.263 77.9103C313.283 77.9103 314.088 78.117 314.676 78.5305C315.27 78.9441 315.566 79.5194 315.566 80.2565Z" fill="#FBFBFB"/>
<path d="M353.425 175.454L353.148 177.935L355.663 177.234L355.886 178.933L353.593 179.095L355.097 181.097L353.566 181.913L352.515 179.803L351.591 181.9L350 181.097L351.49 179.095L349.211 178.92L349.474 177.234L351.935 177.935L351.658 175.454H353.425Z" fill="#FBFBFB"/>
<path d="M362.014 185.945H359.931V180.241L359.951 179.304L359.985 178.279C359.639 178.625 359.398 178.852 359.263 178.96L358.131 179.87L357.126 178.616L360.302 176.088H362.014V185.945Z" fill="#FBFBFB"/>
<path d="M371.588 181.016C371.588 182.738 371.305 184.012 370.739 184.839C370.177 185.666 369.309 186.08 368.136 186.08C366.999 186.08 366.14 185.653 365.561 184.799C364.985 183.945 364.698 182.684 364.698 181.016C364.698 179.277 364.979 177.996 365.54 177.173C366.102 176.346 366.967 175.933 368.136 175.933C369.273 175.933 370.132 176.364 370.712 177.227C371.296 178.09 371.588 179.353 371.588 181.016ZM366.767 181.016C366.767 182.226 366.871 183.093 367.078 183.619C367.289 184.14 367.642 184.401 368.136 184.401C368.622 184.401 368.972 184.136 369.188 183.605C369.404 183.075 369.512 182.212 369.512 181.016C369.512 179.807 369.401 178.94 369.181 178.414C368.965 177.884 368.617 177.618 368.136 177.618C367.646 177.618 367.296 177.884 367.084 178.414C366.873 178.94 366.767 179.807 366.767 181.016Z" fill="#FBFBFB"/>
<path d="M353.425 114.93L353.148 117.411L355.663 116.709L355.886 118.409L353.593 118.57L355.097 120.573L353.566 121.389L352.515 119.278L351.591 121.375L350 120.573L351.49 118.57L349.211 118.395L349.474 116.709L351.935 117.411L351.658 114.93H353.425Z" fill="#FBFBFB"/>
<path d="M363.7 120.492C363.7 122.213 363.417 123.488 362.85 124.315C362.288 125.142 361.421 125.555 360.248 125.555C359.111 125.555 358.252 125.128 357.672 124.274C357.097 123.42 356.809 122.159 356.809 120.492C356.809 118.752 357.09 117.471 357.652 116.649C358.214 115.822 359.079 115.408 360.248 115.408C361.385 115.408 362.244 115.84 362.823 116.703C363.408 117.566 363.7 118.829 363.7 120.492ZM358.879 120.492C358.879 121.701 358.983 122.568 359.189 123.094C359.401 123.616 359.753 123.876 360.248 123.876C360.733 123.876 361.084 123.611 361.3 123.081C361.515 122.55 361.623 121.687 361.623 120.492C361.623 119.283 361.513 118.415 361.293 117.889C361.077 117.359 360.729 117.094 360.248 117.094C359.758 117.094 359.407 117.359 359.196 117.889C358.985 118.415 358.879 119.283 358.879 120.492Z" fill="#FBFBFB"/>
<path d="M368.15 115.435C369.094 115.435 369.853 115.651 370.428 116.082C371.008 116.509 371.298 117.087 371.298 117.815C371.298 118.319 371.159 118.768 370.88 119.164C370.602 119.555 370.152 119.905 369.532 120.215C370.269 120.611 370.797 121.024 371.116 121.456C371.44 121.883 371.602 122.353 371.602 122.865C371.602 123.674 371.285 124.326 370.651 124.82C370.017 125.31 369.183 125.555 368.15 125.555C367.071 125.555 366.224 125.326 365.608 124.867C364.992 124.409 364.684 123.76 364.684 122.919C364.684 122.357 364.832 121.858 365.129 121.422C365.43 120.986 365.911 120.602 366.572 120.269C366.01 119.914 365.606 119.534 365.358 119.13C365.111 118.725 364.988 118.283 364.988 117.802C364.988 117.096 365.28 116.525 365.864 116.089C366.448 115.653 367.21 115.435 368.15 115.435ZM366.612 122.798C366.612 123.184 366.747 123.485 367.017 123.701C367.287 123.917 367.655 124.025 368.123 124.025C368.64 124.025 369.026 123.915 369.282 123.694C369.538 123.47 369.667 123.175 369.667 122.811C369.667 122.51 369.538 122.229 369.282 121.968C369.031 121.703 368.619 121.422 368.048 121.126C367.091 121.566 366.612 122.123 366.612 122.798ZM368.136 116.959C367.781 116.959 367.493 117.051 367.273 117.235C367.057 117.415 366.95 117.658 366.95 117.964C366.95 118.233 367.035 118.476 367.206 118.692C367.381 118.903 367.696 119.121 368.15 119.346C368.59 119.139 368.898 118.928 369.073 118.712C369.249 118.496 369.336 118.247 369.336 117.964C369.336 117.653 369.224 117.408 368.999 117.229C368.774 117.049 368.487 116.959 368.136 116.959Z" fill="#FBFBFB"/>
<path d="M353.425 145.077L353.148 147.558L355.663 146.857L355.886 148.556L353.593 148.718L355.097 150.72L353.566 151.536L352.515 149.425L351.591 151.522L350 150.72L351.49 148.718L349.211 148.542L349.474 146.857L351.935 147.558L351.658 145.077H353.425Z" fill="#FBFBFB"/>
<path d="M363.7 150.639C363.7 152.361 363.417 153.635 362.85 154.462C362.288 155.289 361.421 155.702 360.248 155.702C359.111 155.702 358.252 155.275 357.672 154.421C357.097 153.567 356.809 152.307 356.809 150.639C356.809 148.9 357.09 147.619 357.652 146.796C358.214 145.969 359.079 145.555 360.248 145.555C361.385 145.555 362.244 145.987 362.823 146.85C363.408 147.713 363.7 148.976 363.7 150.639ZM358.879 150.639C358.879 151.848 358.983 152.716 359.189 153.242C359.401 153.763 359.753 154.024 360.248 154.024C360.733 154.024 361.084 153.758 361.3 153.228C361.515 152.698 361.623 151.835 361.623 150.639C361.623 149.43 361.513 148.562 361.293 148.037C361.077 147.506 360.729 147.241 360.248 147.241C359.758 147.241 359.407 147.506 359.196 148.037C358.985 148.562 358.879 149.43 358.879 150.639Z" fill="#FBFBFB"/>
<path d="M371.602 149.918C371.602 151.859 371.193 153.309 370.375 154.266C369.556 155.224 368.318 155.702 366.66 155.702C366.075 155.702 365.633 155.671 365.331 155.608V153.936C365.709 154.03 366.105 154.078 366.518 154.078C367.215 154.078 367.788 153.976 368.237 153.774C368.687 153.567 369.031 153.246 369.269 152.81C369.507 152.37 369.644 151.765 369.68 150.996H369.599C369.338 151.419 369.037 151.716 368.696 151.886C368.354 152.057 367.927 152.143 367.415 152.143C366.556 152.143 365.88 151.868 365.385 151.32C364.891 150.767 364.644 150.001 364.644 149.021C364.644 147.965 364.943 147.131 365.54 146.52C366.143 145.904 366.961 145.596 367.995 145.596C368.723 145.596 369.359 145.767 369.903 146.108C370.451 146.45 370.871 146.947 371.163 147.598C371.456 148.246 371.602 149.019 371.602 149.918ZM368.035 147.268C367.604 147.268 367.266 147.416 367.024 147.713C366.781 148.01 366.66 148.437 366.66 148.994C366.66 149.47 366.77 149.848 366.99 150.127C367.21 150.405 367.545 150.545 367.995 150.545C368.417 150.545 368.779 150.408 369.08 150.133C369.381 149.855 369.532 149.536 369.532 149.176C369.532 148.641 369.39 148.189 369.107 147.821C368.828 147.452 368.471 147.268 368.035 147.268Z" fill="#FBFBFB"/>
<path fill-rule="evenodd" clip-rule="evenodd" d="M201.917 269.169L206.242 264.708C206.508 264.434 206.945 264.427 207.219 264.693L211.679 269.018C211.953 269.284 211.96 269.721 211.694 269.995C211.429 270.268 210.992 270.275 210.718 270.01L207.454 266.845L207.659 280.137L206.278 280.158L206.073 266.866L202.908 270.13C202.643 270.404 202.206 270.41 201.932 270.145C201.658 269.879 201.651 269.442 201.917 269.169Z" fill="white"/>
<path fill-rule="evenodd" clip-rule="evenodd" d="M221.977 276.243L217.584 280.637C217.314 280.907 216.877 280.907 216.607 280.637L212.214 276.243C211.944 275.974 211.944 275.537 212.214 275.267C212.483 274.997 212.921 274.997 213.19 275.267L216.405 278.482V265.189H217.786V278.482L221.001 275.267C221.271 274.997 221.708 274.997 221.977 275.267C222.247 275.537 222.247 275.974 221.977 276.243Z" fill="white"/>
<path fill-rule="evenodd" clip-rule="evenodd" d="M185.42 287.663V257.286H188.412V287.663H185.42Z" fill="white"/>
<path fill-rule="evenodd" clip-rule="evenodd" d="M164.939 287.203V256.826H167.931V287.203H164.939Z" fill="white"/>
<path d="M22.6474 348.513L22.371 350.995L24.8858 350.293L25.1083 351.992L22.816 352.154L24.3195 354.157L22.789 354.972L21.7372 352.862L20.8136 354.959L19.2224 354.157L20.7124 352.154L18.4336 351.979L18.6965 350.293L21.1574 350.995L20.881 348.513H22.6474Z" fill="black"/>
<path d="M34.7428 359.004H32.3561L30.0638 355.276L27.7715 359.004H25.5331L28.803 353.921L25.7421 349.147H28.0479L30.1717 352.694L32.255 349.147H34.5069L31.4122 354.035L34.7428 359.004Z" fill="black"/>
<path d="M43.9526 359.004H41.5659L39.2736 355.276L36.9812 359.004H34.7428L38.0128 353.921L34.9518 349.147H37.2577L39.3814 352.694L41.4648 349.147H43.7166L40.622 354.035L43.9526 359.004Z" fill="black"/>
<path d="M48.1327 353.577V352.1H54.8277V353.577H48.1327ZM48.1327 356.186V354.709H54.8277V356.186H48.1327Z" fill="black"/>
<path d="M66.2893 359.004L65.5747 356.658H61.9811L61.2664 359.004H59.0146L62.4935 349.107H65.0488L68.5412 359.004H66.2893ZM65.0757 354.905C64.415 352.779 64.0419 351.577 63.9565 351.298C63.8756 351.019 63.8172 350.799 63.7812 350.637C63.6329 351.213 63.2082 352.635 62.507 354.905H65.0757Z" fill="black"/>
<path d="M70.0784 359.004L73.7799 350.914H68.9188V349.161H75.9913V350.469L72.2629 359.004H70.0784Z" fill="black"/>
<path d="M85.646 359.004H83.2593L80.967 355.276L78.6746 359.004H76.4363L79.7062 353.921L76.6453 349.147H78.9511L81.0748 352.694L83.1582 349.147H85.41L82.3154 354.035L85.646 359.004Z" fill="black"/>
<path d="M94.8558 359.004H92.4691L90.1767 355.276L87.8844 359.004H85.646L88.916 353.921L85.855 349.147H88.1608L90.2846 352.694L92.3679 349.147H94.6198L91.5252 354.035L94.8558 359.004Z" fill="black"/>
<path d="M87.9594 297.674C87.9594 304.601 82.344 310.216 75.4172 310.216C68.4903 310.216 62.875 304.601 62.875 297.674C62.875 290.747 68.4903 285.132 75.4172 285.132C82.344 285.132 87.9594 290.747 87.9594 297.674Z" fill="#E14235"/>
<path d="M77.4497 303.312H75.1928V297.133L75.2147 296.118L75.2512 295.008C74.8763 295.383 74.6157 295.628 74.4697 295.745L73.2426 296.731L72.1543 295.373L75.5945 292.634H77.4497V303.312Z" fill="white"/>
<path d="M165.745 159.825C165.745 166.752 160.129 172.367 153.202 172.367C146.275 172.367 140.66 166.752 140.66 159.825C140.66 152.898 146.275 147.283 153.202 147.283C160.129 147.283 165.745 152.898 165.745 159.825Z" fill="#E14235"/>
<path d="M157.36 163.25H156.074V165.463H153.868V163.25H149.311V161.68L153.992 154.785H156.074V161.497H157.36V163.25ZM153.868 161.497V159.686C153.868 159.384 153.88 158.946 153.905 158.371C153.929 157.797 153.949 157.463 153.963 157.371H153.905C153.725 157.77 153.508 158.159 153.255 158.539L151.297 161.497H153.868Z" fill="white"/>
<path d="M422.571 140.034C422.571 146.961 416.955 152.576 410.029 152.576C403.102 152.576 397.486 146.961 397.486 140.034C397.486 133.107 403.102 127.492 410.029 127.492C416.955 127.492 422.571 133.107 422.571 140.034Z" fill="#E14235"/>
<path d="M410.368 138.85C411.4 138.85 412.22 139.14 412.829 139.719C413.443 140.299 413.749 141.092 413.749 142.1C413.749 143.293 413.382 144.211 412.646 144.854C411.911 145.497 410.859 145.818 409.491 145.818C408.303 145.818 407.344 145.626 406.613 145.241V143.291C406.998 143.495 407.446 143.663 407.957 143.795C408.468 143.921 408.953 143.985 409.411 143.985C410.789 143.985 411.478 143.42 411.478 142.29C411.478 141.214 410.764 140.676 409.338 140.676C409.08 140.676 408.795 140.703 408.483 140.756C408.171 140.805 407.918 140.859 407.723 140.917L406.825 140.435L407.227 134.994H413.019V136.907H409.206L409.009 139.003L409.265 138.952C409.562 138.884 409.929 138.85 410.368 138.85Z" fill="white"/>
<path d="M500.586 140.034C500.586 146.961 494.971 152.576 488.044 152.576C481.117 152.576 475.502 146.961 475.502 140.034C475.502 133.107 481.117 127.492 488.044 127.492C494.971 127.492 500.586 133.107 500.586 140.034Z" fill="#E14235"/>
<path d="M485.555 145.672L489.565 136.907H484.299V135.008H491.961V136.425L487.922 145.672H485.555Z" fill="white"/>
<path d="M593.789 140.034C593.789 146.961 588.174 152.576 581.247 152.576C574.32 152.576 568.705 146.961 568.705 140.034C568.705 133.107 574.32 127.492 581.247 127.492C588.174 127.492 593.789 133.107 593.789 140.034Z" fill="#E14235"/>
<path d="M578.758 145.672L582.768 136.907H577.502V135.008H585.164V136.425L581.125 145.672H578.758Z" fill="white"/>
<path d="M394.036 293.532C394.036 300.459 388.42 306.074 381.493 306.074C374.566 306.074 368.951 300.459 368.951 293.532C368.951 286.605 374.566 280.99 381.493 280.99C388.42 280.99 394.036 286.605 394.036 293.532Z" fill="#E14235"/>
<path d="M377.873 294.634C377.873 292.521 378.319 290.948 379.21 289.916C380.106 288.883 381.445 288.367 383.227 288.367C383.836 288.367 384.313 288.404 384.658 288.477V290.281C384.225 290.183 383.797 290.135 383.373 290.135C382.599 290.135 381.966 290.252 381.474 290.485C380.987 290.719 380.622 291.065 380.378 291.523C380.135 291.98 379.991 292.63 379.947 293.473H380.042C380.524 292.645 381.296 292.231 382.358 292.231C383.312 292.231 384.06 292.53 384.6 293.129C385.141 293.728 385.411 294.556 385.411 295.613C385.411 296.752 385.089 297.655 384.447 298.323C383.804 298.985 382.913 299.316 381.773 299.316C380.985 299.316 380.296 299.133 379.706 298.768C379.122 298.403 378.669 297.87 378.348 297.168C378.031 296.467 377.873 295.622 377.873 294.634ZM381.73 297.512C382.212 297.512 382.582 297.351 382.84 297.03C383.098 296.703 383.227 296.241 383.227 295.642C383.227 295.121 383.105 294.712 382.862 294.415C382.623 294.113 382.26 293.962 381.773 293.962C381.316 293.962 380.924 294.111 380.597 294.408C380.276 294.705 380.115 295.05 380.115 295.445C380.115 296.024 380.266 296.514 380.568 296.913C380.875 297.312 381.262 297.512 381.73 297.512Z" fill="white"/>
<path d="M286.334 300.205C286.334 307.132 280.719 312.748 273.792 312.748C266.865 312.748 261.25 307.132 261.25 300.205C261.25 293.279 266.865 287.663 273.792 287.663C280.719 287.663 286.334 293.279 286.334 300.205Z" fill="#E14235"/>
<path d="M273.924 295.026C274.947 295.026 275.77 295.26 276.393 295.728C277.021 296.19 277.335 296.816 277.335 297.605C277.335 298.15 277.184 298.637 276.882 299.066C276.58 299.489 276.093 299.869 275.421 300.205C276.22 300.634 276.792 301.081 277.138 301.549C277.489 302.012 277.664 302.52 277.664 303.075C277.664 303.952 277.321 304.658 276.634 305.194C275.947 305.724 275.044 305.99 273.924 305.99C272.756 305.99 271.838 305.741 271.171 305.245C270.503 304.748 270.17 304.044 270.17 303.134C270.17 302.525 270.331 301.985 270.652 301.512C270.978 301.04 271.499 300.624 272.215 300.263C271.606 299.879 271.168 299.467 270.9 299.029C270.633 298.591 270.499 298.111 270.499 297.59C270.499 296.826 270.815 296.207 271.448 295.735C272.081 295.263 272.906 295.026 273.924 295.026ZM272.259 303.002C272.259 303.421 272.405 303.747 272.697 303.981C272.989 304.215 273.389 304.332 273.895 304.332C274.455 304.332 274.874 304.212 275.151 303.974C275.429 303.73 275.568 303.411 275.568 303.017C275.568 302.691 275.429 302.386 275.151 302.104C274.879 301.817 274.433 301.512 273.815 301.191C272.777 301.668 272.259 302.272 272.259 303.002ZM273.91 296.677C273.525 296.677 273.213 296.777 272.975 296.977C272.741 297.171 272.624 297.434 272.624 297.765C272.624 298.058 272.717 298.321 272.902 298.554C273.092 298.783 273.432 299.019 273.924 299.263C274.401 299.039 274.735 298.81 274.925 298.576C275.115 298.343 275.21 298.072 275.21 297.765C275.21 297.43 275.088 297.164 274.844 296.969C274.601 296.775 274.289 296.677 273.91 296.677Z" fill="white"/>
<path d="M188.528 272.129C188.528 279.056 182.912 284.672 175.986 284.672C169.059 284.672 163.443 279.056 163.443 272.129C163.443 265.202 169.059 259.587 175.986 259.587C182.912 259.587 188.528 265.202 188.528 272.129Z" fill="#E14235"/>
<path d="M179.858 271.647C179.858 273.75 179.415 275.321 178.529 276.358C177.642 277.395 176.301 277.914 174.504 277.914C173.871 277.914 173.392 277.88 173.065 277.811V276C173.474 276.102 173.903 276.153 174.351 276.153C175.106 276.153 175.726 276.044 176.213 275.825C176.7 275.601 177.073 275.253 177.331 274.78C177.589 274.303 177.737 273.648 177.776 272.815H177.689C177.406 273.273 177.08 273.595 176.71 273.78C176.34 273.965 175.877 274.057 175.322 274.057C174.392 274.057 173.659 273.76 173.124 273.166C172.588 272.567 172.32 271.737 172.32 270.675C172.32 269.531 172.644 268.628 173.292 267.966C173.944 267.299 174.83 266.965 175.95 266.965C176.739 266.965 177.428 267.15 178.017 267.52C178.611 267.89 179.067 268.428 179.383 269.134C179.7 269.835 179.858 270.673 179.858 271.647ZM175.994 268.776C175.527 268.776 175.162 268.937 174.899 269.258C174.636 269.58 174.504 270.042 174.504 270.646C174.504 271.162 174.624 271.571 174.862 271.873C175.101 272.175 175.463 272.326 175.95 272.326C176.408 272.326 176.8 272.178 177.126 271.881C177.453 271.579 177.616 271.233 177.616 270.843C177.616 270.264 177.462 269.775 177.156 269.375C176.854 268.976 176.467 268.776 175.994 268.776Z" fill="white"/>
<path d="M501.278 293.532C501.278 300.459 495.662 306.074 488.736 306.074C481.809 306.074 476.193 300.459 476.193 293.532C476.193 286.605 481.809 280.99 488.736 280.99C495.662 280.99 501.278 286.605 501.278 293.532Z" fill="#E14235"/>
<path d="M492.65 299.17H485.185V297.599L487.866 294.89C488.66 294.077 489.178 293.514 489.422 293.202C489.665 292.886 489.841 292.594 489.948 292.326C490.055 292.058 490.108 291.781 490.108 291.493C490.108 291.065 489.989 290.746 489.75 290.537C489.517 290.327 489.203 290.222 488.808 290.222C488.394 290.222 487.993 290.317 487.603 290.507C487.214 290.697 486.807 290.967 486.383 291.318L485.156 289.865C485.682 289.417 486.118 289.1 486.464 288.915C486.809 288.73 487.187 288.589 487.596 288.491C488.005 288.389 488.463 288.338 488.969 288.338C489.636 288.338 490.225 288.46 490.736 288.703C491.248 288.947 491.645 289.288 491.927 289.726C492.209 290.164 492.351 290.666 492.351 291.23C492.351 291.722 492.263 292.185 492.088 292.618C491.917 293.047 491.649 293.487 491.284 293.94C490.924 294.393 490.286 295.038 489.371 295.876L487.998 297.169V297.271H492.65V299.17Z" fill="white"/>
<path d="M593.789 293.532C593.789 300.459 588.174 306.074 581.247 306.074C574.32 306.074 568.705 300.459 568.705 293.532C568.705 286.605 574.32 280.99 581.247 280.99C588.174 280.99 593.789 286.605 593.789 293.532Z" fill="#E14235"/>
<path d="M585.164 299.17H577.699V297.599L580.38 294.89C581.173 294.077 581.692 293.514 581.935 293.202C582.179 292.886 582.354 292.594 582.461 292.326C582.568 292.058 582.622 291.781 582.622 291.493C582.622 291.065 582.503 290.746 582.264 290.537C582.03 290.327 581.716 290.222 581.322 290.222C580.908 290.222 580.506 290.317 580.117 290.507C579.727 290.697 579.321 290.967 578.897 291.318L577.67 289.865C578.196 289.417 578.632 289.1 578.977 288.915C579.323 288.73 579.7 288.589 580.109 288.491C580.518 288.389 580.976 288.338 581.483 288.338C582.15 288.338 582.739 288.46 583.25 288.703C583.761 288.947 584.158 289.288 584.441 289.726C584.723 290.164 584.864 290.666 584.864 291.23C584.864 291.722 584.777 292.185 584.601 292.618C584.431 293.047 584.163 293.487 583.798 293.94C583.438 294.393 582.8 295.038 581.884 295.876L580.511 297.169V297.271H585.164V299.17Z" fill="white"/>
<path fill-rule="evenodd" clip-rule="evenodd" d="M332.245 82.9611H322.004V81.8104H343.636V82.9611H333.395V119.552H343.636V120.703H333.395V149.354H343.636V150.505H333.395V179.501H343.636V180.652H333.395V215.287H332.245V180.652H322.004V179.501H332.245V150.505H322.004V149.354H332.245V120.703H322.004V119.552H332.245V82.9611Z" fill="#E14235"/>
<path d="M345.479 211.605C345.479 218.532 339.864 224.147 332.937 224.147C326.01 224.147 320.395 218.532 320.395 211.605C320.395 204.678 326.01 199.062 332.937 199.062C339.864 199.062 345.479 204.678 345.479 211.605Z" fill="#E14235"/>
<path d="M336.435 208.953C336.435 209.62 336.233 210.187 335.829 210.655C335.425 211.122 334.857 211.444 334.127 211.619V211.663C334.989 211.77 335.641 212.033 336.084 212.452C336.528 212.865 336.749 213.425 336.749 214.131C336.749 215.159 336.377 215.96 335.632 216.534C334.887 217.104 333.823 217.389 332.44 217.389C331.281 217.389 330.253 217.197 329.357 216.812V214.891C329.771 215.1 330.227 215.271 330.723 215.402C331.22 215.534 331.712 215.6 332.199 215.6C332.944 215.6 333.494 215.473 333.849 215.22C334.205 214.967 334.383 214.56 334.383 214C334.383 213.498 334.178 213.143 333.769 212.934C333.36 212.724 332.708 212.62 331.812 212.62H331.001V210.888H331.826C332.654 210.888 333.258 210.781 333.638 210.567C334.022 210.348 334.215 209.975 334.215 209.45C334.215 208.641 333.708 208.237 332.695 208.237C332.345 208.237 331.987 208.296 331.622 208.412C331.261 208.529 330.86 208.731 330.417 209.019L329.372 207.463C330.346 206.762 331.507 206.411 332.856 206.411C333.961 206.411 334.833 206.635 335.471 207.083C336.114 207.531 336.435 208.154 336.435 208.953Z" fill="white"/>
<path d="M273.671 350.975H286.541V351.762H282.751V375.214H284.038C286.064 375.214 287.673 374.594 288.865 373.355C290.08 372.115 291.307 370.209 292.547 367.635H293.298L292.618 376H273.671V375.214H275.78V351.762H273.671V350.975ZM303.154 367.599H304.191V364.846C304.191 362.582 304.059 361.069 303.797 360.306C303.559 359.519 303.082 359.126 302.367 359.126C301.938 359.126 301.545 359.245 301.188 359.484C300.854 359.698 300.687 360.008 300.687 360.413C300.687 360.794 300.759 361.188 300.902 361.593H301.795C301.986 362.093 302.081 362.701 302.081 363.416C302.081 364.107 301.783 364.715 301.188 365.239C300.592 365.74 299.841 365.99 298.935 365.99C296.886 365.99 295.861 365.001 295.861 363.023C295.861 360.091 298.351 358.626 303.333 358.626C306.169 358.626 308.123 359.114 309.196 360.091C310.292 361.045 310.84 362.808 310.84 365.382V372.64C310.84 373.879 311.186 374.499 311.877 374.499C312.687 374.499 313.164 373.271 313.307 370.816L313.843 370.852C313.748 372.949 313.354 374.391 312.663 375.178C311.972 375.964 310.84 376.357 309.267 376.357C306.407 376.357 304.763 375.476 304.334 373.712C304.024 374.618 303.559 375.285 302.939 375.714C302.32 376.143 301.414 376.357 300.222 376.357C296.695 376.357 294.931 374.916 294.931 372.032C294.931 370.34 295.599 369.184 296.933 368.564C298.292 367.921 300.365 367.599 303.154 367.599ZM301.724 371.996C301.724 373.235 301.783 374.034 301.903 374.391C302.046 374.749 302.296 374.928 302.653 374.928C303.035 374.928 303.38 374.63 303.69 374.034C304.024 373.414 304.191 372.568 304.191 371.496V368.171H303.94C302.463 368.171 301.724 369.255 301.724 371.424V371.996ZM314.266 358.983H322.882V362.272C323.263 361.176 323.847 360.294 324.633 359.627C325.42 358.959 326.611 358.626 328.208 358.626C331.902 358.626 333.749 360.616 333.749 364.596V375.357H335.751V376H325.634V375.357H327.1V363.738C327.1 362.308 327.005 361.39 326.814 360.985C326.623 360.556 326.278 360.342 325.777 360.342C325.015 360.342 324.335 360.842 323.74 361.843C323.168 362.844 322.882 364.06 322.882 365.49V375.357H324.419V376H314.266V375.357H316.232V359.627H314.266V358.983ZM337.837 370.888V359.627H335.87V358.983H337.837V354.371L344.486 352.727V358.983H349.134V359.627H344.486V371.674C344.486 372.794 344.593 373.617 344.808 374.141C345.046 374.665 345.523 374.928 346.238 374.928C346.953 374.928 347.573 374.57 348.097 373.855C348.645 373.14 349.003 372.163 349.169 370.924L349.777 370.995C349.586 372.64 349.062 373.95 348.204 374.928C347.346 375.881 345.928 376.357 343.95 376.357C341.972 376.357 340.458 375.964 339.41 375.178C338.361 374.391 337.837 372.961 337.837 370.888ZM358.699 367.599H359.735V364.846C359.735 362.582 359.604 361.069 359.342 360.306C359.104 359.519 358.627 359.126 357.912 359.126C357.483 359.126 357.09 359.245 356.732 359.484C356.399 359.698 356.232 360.008 356.232 360.413C356.232 360.794 356.303 361.188 356.446 361.593H357.34C357.531 362.093 357.626 362.701 357.626 363.416C357.626 364.107 357.328 364.715 356.732 365.239C356.137 365.74 355.386 365.99 354.48 365.99C352.43 365.99 351.406 365.001 351.406 363.023C351.406 360.091 353.896 358.626 358.877 358.626C361.714 358.626 363.668 359.114 364.74 360.091C365.837 361.045 366.385 362.808 366.385 365.382V372.64C366.385 373.879 366.73 374.499 367.422 374.499C368.232 374.499 368.709 373.271 368.852 370.816L369.388 370.852C369.292 372.949 368.899 374.391 368.208 375.178C367.517 375.964 366.385 376.357 364.812 376.357C361.952 376.357 360.307 375.476 359.878 373.712C359.569 374.618 359.104 375.285 358.484 375.714C357.864 376.143 356.959 376.357 355.767 376.357C352.24 376.357 350.476 374.916 350.476 372.032C350.476 370.34 351.143 369.184 352.478 368.564C353.837 367.921 355.91 367.599 358.699 367.599ZM357.269 371.996C357.269 373.235 357.328 374.034 357.447 374.391C357.59 374.749 357.841 374.928 358.198 374.928C358.579 374.928 358.925 374.63 359.235 374.034C359.569 373.414 359.735 372.568 359.735 371.496V368.171H359.485C358.007 368.171 357.269 369.255 357.269 371.424V371.996ZM374.994 356.516C373.731 356.516 372.826 356.195 372.277 355.551C371.753 354.908 371.491 354.109 371.491 353.156C371.491 352.203 371.777 351.416 372.349 350.796C372.945 350.177 373.838 349.867 375.03 349.867C376.222 349.867 377.127 350.153 377.747 350.725C378.367 351.273 378.677 352.071 378.677 353.12C378.677 354.145 378.379 354.967 377.783 355.587C377.187 356.207 376.258 356.516 374.994 356.516ZM369.596 358.983H378.355V375.357H380.357V376H369.739V375.357H371.705V359.627H369.596V358.983ZM395.553 376.357C394.266 376.357 393.253 376.012 392.514 375.321C391.775 374.606 391.406 373.736 391.406 372.711C391.406 371.662 391.752 370.518 392.443 369.279C393.158 368.016 394.695 366.014 397.054 363.273L402.953 356.445H393.801C392.109 356.445 390.989 356.659 390.441 357.088C389.916 357.494 389.499 358.483 389.19 360.056H388.618L389.011 350.975H405.027V354.836L401.058 361.772C399.295 364.894 398.163 367.134 397.662 368.493C397.186 369.827 396.947 371.102 396.947 372.318C396.947 373.533 397.305 374.653 398.02 375.678L397.769 376.107C397.102 376.274 396.363 376.357 395.553 376.357Z" fill="#181818"/>
</svg>
