<svg width="648" height="432" viewBox="0 0 648 432" fill="none" xmlns="http://www.w3.org/2000/svg">
<rect x="0.5" y="0.5" width="647" height="431" rx="9.5" stroke="#6699FF"/>
<path d="M241.508 315.975H254.378V316.762H250.588V340.214H251.875C253.901 340.214 255.51 339.594 256.701 338.355C257.917 337.115 259.144 335.209 260.384 332.635H261.134L260.455 341H241.508V340.214H243.617V316.762H241.508V315.975ZM270.991 332.599H272.027V329.846C272.027 327.582 271.896 326.069 271.634 325.306C271.396 324.519 270.919 324.126 270.204 324.126C269.775 324.126 269.382 324.245 269.024 324.484C268.691 324.698 268.524 325.008 268.524 325.413C268.524 325.794 268.595 326.188 268.738 326.593H269.632C269.823 327.093 269.918 327.701 269.918 328.416C269.918 329.107 269.62 329.715 269.024 330.239C268.429 330.74 267.678 330.99 266.772 330.99C264.723 330.99 263.698 330.001 263.698 328.023C263.698 325.091 266.188 323.626 271.169 323.626C274.006 323.626 275.96 324.114 277.032 325.091C278.129 326.045 278.677 327.808 278.677 330.382V337.64C278.677 338.879 279.022 339.499 279.714 339.499C280.524 339.499 281.001 338.271 281.144 335.816L281.68 335.852C281.584 337.949 281.191 339.391 280.5 340.178C279.809 340.964 278.677 341.357 277.104 341.357C274.244 341.357 272.599 340.476 272.17 338.712C271.861 339.618 271.396 340.285 270.776 340.714C270.156 341.143 269.251 341.357 268.059 341.357C264.532 341.357 262.768 339.916 262.768 337.032C262.768 335.34 263.436 334.184 264.77 333.564C266.129 332.921 268.202 332.599 270.991 332.599ZM269.561 336.996C269.561 338.235 269.62 339.034 269.739 339.391C269.882 339.749 270.133 339.928 270.49 339.928C270.871 339.928 271.217 339.63 271.527 339.034C271.861 338.414 272.027 337.568 272.027 336.496V333.171H271.777C270.299 333.171 269.561 334.255 269.561 336.424V336.996ZM282.103 323.983H290.718V327.272C291.1 326.176 291.684 325.294 292.47 324.627C293.257 323.959 294.448 323.626 296.045 323.626C299.739 323.626 301.586 325.616 301.586 329.596V340.357H303.588V341H293.471V340.357H294.937V328.738C294.937 327.308 294.842 326.39 294.651 325.985C294.46 325.556 294.115 325.342 293.614 325.342C292.851 325.342 292.172 325.842 291.576 326.843C291.004 327.844 290.718 329.06 290.718 330.49V340.357H292.256V341H282.103V340.357H284.069V324.627H282.103V323.983ZM305.673 335.888V324.627H303.707V323.983H305.673V319.371L312.323 317.727V323.983H316.97V324.627H312.323V336.674C312.323 337.794 312.43 338.617 312.645 339.141C312.883 339.665 313.36 339.928 314.075 339.928C314.79 339.928 315.409 339.57 315.934 338.855C316.482 338.14 316.839 337.163 317.006 335.924L317.614 335.995C317.423 337.64 316.899 338.95 316.041 339.928C315.183 340.881 313.765 341.357 311.787 341.357C309.809 341.357 308.295 340.964 307.246 340.178C306.198 339.391 305.673 337.961 305.673 335.888ZM326.535 332.599H327.572V329.846C327.572 327.582 327.441 326.069 327.179 325.306C326.941 324.519 326.464 324.126 325.749 324.126C325.32 324.126 324.927 324.245 324.569 324.484C324.236 324.698 324.069 325.008 324.069 325.413C324.069 325.794 324.14 326.188 324.283 326.593H325.177C325.368 327.093 325.463 327.701 325.463 328.416C325.463 329.107 325.165 329.715 324.569 330.239C323.973 330.74 323.223 330.99 322.317 330.99C320.267 330.99 319.242 330.001 319.242 328.023C319.242 325.091 321.733 323.626 326.714 323.626C329.55 323.626 331.505 324.114 332.577 325.091C333.673 326.045 334.222 327.808 334.222 330.382V337.64C334.222 338.879 334.567 339.499 335.258 339.499C336.069 339.499 336.545 338.271 336.688 335.816L337.225 335.852C337.129 337.949 336.736 339.391 336.045 340.178C335.354 340.964 334.222 341.357 332.649 341.357C329.789 341.357 328.144 340.476 327.715 338.712C327.405 339.618 326.941 340.285 326.321 340.714C325.701 341.143 324.796 341.357 323.604 341.357C320.077 341.357 318.313 339.916 318.313 337.032C318.313 335.34 318.98 334.184 320.315 333.564C321.673 332.921 323.747 332.599 326.535 332.599ZM325.105 336.996C325.105 338.235 325.165 339.034 325.284 339.391C325.427 339.749 325.677 339.928 326.035 339.928C326.416 339.928 326.762 339.63 327.072 339.034C327.405 338.414 327.572 337.568 327.572 336.496V333.171H327.322C325.844 333.171 325.105 334.255 325.105 336.424V336.996ZM342.831 321.516C341.568 321.516 340.662 321.195 340.114 320.551C339.59 319.908 339.328 319.109 339.328 318.156C339.328 317.203 339.614 316.416 340.186 315.796C340.782 315.177 341.675 314.867 342.867 314.867C344.059 314.867 344.964 315.153 345.584 315.725C346.204 316.273 346.513 317.071 346.513 318.12C346.513 319.145 346.215 319.967 345.62 320.587C345.024 321.207 344.094 321.516 342.831 321.516ZM337.433 323.983H346.192V340.357H348.194V341H337.576V340.357H339.542V324.627H337.433V323.983ZM380.514 328.059C380.514 332.968 379.132 336.388 376.367 338.319C373.817 340.106 370.313 341 365.857 341H355.739V340.321H358.099V316.654H355.739V315.975H366.786C371.362 315.975 374.794 316.917 377.082 318.799C379.37 320.658 380.514 323.745 380.514 328.059ZM365.07 340.321H366.429C368.836 340.321 370.552 339.475 371.576 337.783C372.625 336.067 373.149 333.207 373.149 329.203V327.129C373.149 321.767 372.125 318.537 370.075 317.441C369.098 316.917 367.716 316.654 365.928 316.654H365.07V340.321ZM390.738 332.599H391.775V329.846C391.775 327.582 391.644 326.069 391.382 325.306C391.144 324.519 390.667 324.126 389.952 324.126C389.523 324.126 389.13 324.245 388.772 324.484C388.438 324.698 388.272 325.008 388.272 325.413C388.272 325.794 388.343 326.188 388.486 326.593H389.38C389.571 327.093 389.666 327.701 389.666 328.416C389.666 329.107 389.368 329.715 388.772 330.239C388.176 330.74 387.426 330.99 386.52 330.99C384.47 330.99 383.445 330.001 383.445 328.023C383.445 325.091 385.936 323.626 390.917 323.626C393.753 323.626 395.708 324.114 396.78 325.091C397.876 326.045 398.425 327.808 398.425 330.382V337.64C398.425 338.879 398.77 339.499 399.461 339.499C400.272 339.499 400.748 338.271 400.891 335.816L401.428 335.852C401.332 337.949 400.939 339.391 400.248 340.178C399.557 340.964 398.425 341.357 396.852 341.357C393.992 341.357 392.347 340.476 391.918 338.712C391.608 339.618 391.144 340.285 390.524 340.714C389.904 341.143 388.999 341.357 387.807 341.357C384.28 341.357 382.516 339.916 382.516 337.032C382.516 335.34 383.183 334.184 384.518 333.564C385.876 332.921 387.95 332.599 390.738 332.599ZM389.308 336.996C389.308 338.235 389.368 339.034 389.487 339.391C389.63 339.749 389.88 339.928 390.238 339.928C390.619 339.928 390.965 339.63 391.275 339.034C391.608 338.414 391.775 337.568 391.775 336.496V333.171H391.525C390.047 333.171 389.308 334.255 389.308 336.424V336.996ZM402.601 341.357V334.958H403.03C403.65 337.032 404.484 338.486 405.533 339.32C406.581 340.154 407.892 340.571 409.465 340.571C411.896 340.571 413.112 339.796 413.112 338.247C413.112 337.58 412.814 337.079 412.218 336.746C411.288 336.221 410.097 335.816 408.643 335.53C407.022 335.101 405.664 334.529 404.567 333.814C403.257 332.956 402.601 331.598 402.601 329.739C402.601 327.88 403.173 326.402 404.317 325.306C405.461 324.186 406.986 323.626 408.893 323.626C410.061 323.626 411.264 323.9 412.504 324.448C412.957 324.639 413.302 324.734 413.541 324.734C413.779 324.734 413.981 324.65 414.148 324.484C414.315 324.317 414.518 324.007 414.756 323.554H415.149V329.024H414.72C413.505 325.926 411.622 324.376 409.072 324.376C407.952 324.376 407.118 324.579 406.569 324.984C406.021 325.365 405.747 325.854 405.747 326.45C405.747 326.807 405.831 327.093 405.997 327.308C406.164 327.499 406.295 327.642 406.391 327.737C406.486 327.832 406.641 327.939 406.855 328.059C407.07 328.154 407.249 328.237 407.392 328.309C407.535 328.357 407.749 328.428 408.035 328.523C408.345 328.619 408.571 328.678 408.714 328.702C410.335 329.107 411.503 329.465 412.218 329.775C412.933 330.061 413.612 330.418 414.256 330.847C415.566 331.753 416.222 333.218 416.222 335.244C416.222 337.246 415.626 338.772 414.434 339.82C413.243 340.845 411.61 341.357 409.537 341.357C408.059 341.357 406.629 341.012 405.247 340.321C404.961 340.13 404.734 340.035 404.567 340.035C404.043 340.035 403.531 340.476 403.03 341.357H402.601ZM425.86 332.599H426.896V329.846C426.896 327.582 426.765 326.069 426.503 325.306C426.265 324.519 425.788 324.126 425.073 324.126C424.644 324.126 424.251 324.245 423.893 324.484C423.56 324.698 423.393 325.008 423.393 325.413C423.393 325.794 423.464 326.188 423.607 326.593H424.501C424.692 327.093 424.787 327.701 424.787 328.416C424.787 329.107 424.489 329.715 423.893 330.239C423.298 330.74 422.547 330.99 421.641 330.99C419.592 330.99 418.567 330.001 418.567 328.023C418.567 325.091 421.057 323.626 426.038 323.626C428.875 323.626 430.829 324.114 431.901 325.091C432.998 326.045 433.546 327.808 433.546 330.382V337.64C433.546 338.879 433.891 339.499 434.583 339.499C435.393 339.499 435.87 338.271 436.013 335.816L436.549 335.852C436.454 337.949 436.06 339.391 435.369 340.178C434.678 340.964 433.546 341.357 431.973 341.357C429.113 341.357 427.468 340.476 427.039 338.712C426.73 339.618 426.265 340.285 425.645 340.714C425.026 341.143 424.12 341.357 422.928 341.357C419.401 341.357 417.637 339.916 417.637 337.032C417.637 335.34 418.305 334.184 419.639 333.564C420.998 332.921 423.071 332.599 425.86 332.599ZM424.43 336.996C424.43 338.235 424.489 339.034 424.608 339.391C424.751 339.749 425.002 339.928 425.359 339.928C425.741 339.928 426.086 339.63 426.396 339.034C426.73 338.414 426.896 337.568 426.896 336.496V333.171H426.646C425.169 333.171 424.43 334.255 424.43 336.424V336.996ZM448.841 324.984C447.959 324.984 447.184 325.556 446.517 326.7C445.85 327.844 445.516 329.203 445.516 330.776V340.357H448.054V341H436.9V340.357H438.866V324.627H436.9V323.983H445.516V327.415C445.826 326.2 446.422 325.27 447.303 324.627C448.185 323.959 449.186 323.626 450.306 323.626C451.427 323.626 452.332 323.947 453.023 324.591C453.738 325.211 454.096 326.104 454.096 327.272C454.096 328.416 453.834 329.298 453.309 329.918C452.785 330.537 451.975 330.847 450.878 330.847C449.806 330.847 449.007 330.49 448.483 329.775C447.983 329.06 447.923 328.071 448.304 326.807H449.591C450.187 325.592 449.937 324.984 448.841 324.984Z" fill="#181818"/>
<path d="M66.6421 149.71H18L19.0674 278.599H66.6421V149.71Z" fill="#05AC72"/>
<path d="M79.4507 149.71H80.3656H123.823V148.644H144.866V95.0163H210.739H236.661H268.225H359.41H406.527V81H480.329H629V287.74H480.329H385.484H331.2H316.562H282.558V276.162H261.668L162.554 324H79.9082L79.4507 204.252V149.71Z" fill="#05AC72"/>
<path fill-rule="evenodd" clip-rule="evenodd" d="M404.613 80H630V289.721H280.621V278.136H261.491L162.358 326H77.9374L77.4744 204.756V148.747H121.855V147.68H142.902V94.0237H404.613V80ZM404.613 96.8953H360.358V148.899H380.669V148.747H404.613V96.8953ZM404.613 151.618H383.54V186.992C383.54 192.543 379.041 197.043 373.491 197.043H360.358V205.274H234.715V96.8953H211.659V189.879H122.744V203.317H211.659V275.265H259.727V262.461H283.492V271.607H289.619V262.461H317.502V267.948H343.608V253.595H255.914V226.792H481.3V286.85H627.129V82.8716H481.3V180.123H404.613V151.618ZM478.429 82.8716H407.485V177.251H478.429V82.8716ZM478.429 286.85V229.663H386.438V286.85H478.429ZM383.567 286.85V253.9H368.746V270.82H332.143V286.85H383.567ZM329.272 286.85V270.82H317.502V286.85H329.272ZM314.631 286.85V265.332H292.49V274.478H283.492V286.85H314.631ZM365.875 253.9H346.48V267.948H365.875V253.9ZM345.044 251.028H383.567V229.663H332.143V250.723H345.044V251.028ZM329.272 250.723V229.663H309.038V250.723H329.272ZM306.167 250.723V229.663H285.932V250.723H306.167ZM283.061 250.723V229.663H276.171V250.723H283.061ZM273.3 250.723V229.663H258.785V250.723H273.3ZM254.886 278.136H163.465V322.277L254.886 278.136ZM160.594 323.128V206.189H80.3511L80.7976 323.128H160.594ZM80.3456 203.317V151.618H124.727V150.551H208.788V180.3H119.873V203.317H80.3456ZM208.788 183.172H122.744V187.007H208.788V183.172ZM208.788 147.68V96.8953H145.773V147.68H208.788ZM163.465 206.189V275.265H208.788V230.273H185.337L184.726 206.189H163.465ZM187.599 206.189L188.136 227.401H208.788V206.189H187.599ZM262.598 275.265V265.332H280.621V275.265H262.598ZM237.586 96.8953V148.899H266.285V96.8953H237.586ZM269.156 96.8953V148.899H357.487V96.8953H269.156ZM357.487 151.771H334.431V177.251H357.487V151.771ZM357.487 180.123H331.56V151.771H307.131V202.403H357.487V180.123ZM304.26 202.403V151.771H237.586V202.403H304.26ZM360.358 180.123H380.669V186.992C380.669 190.957 377.455 194.171 373.491 194.171H360.358V180.123ZM380.669 177.251H360.358V151.771H380.669V177.251ZM16 148.747H67.5345V280.575H17.0914L16 148.747ZM18.8951 151.618L19.9389 277.704H64.6634V151.618H18.8951Z" fill="white"/>
<path fill-rule="evenodd" clip-rule="evenodd" d="M330.458 227H329V228.154V251.846V253H330.458H385.542H387V251.846V228.154V227H385.542H330.458ZM334.171 250.692H335.68V229.308H334.171V250.692ZM333.442 250.692V229.308H331.933V250.692H333.442ZM340.157 250.692H338.647V229.308H340.157V250.692ZM337.918 229.308V250.692H336.409V229.308H337.918ZM343.124 250.692H344.633V229.308H343.124V250.692ZM342.395 250.692V229.308H340.886V250.692H342.395ZM349.109 250.692H347.6V229.308H349.109V250.692ZM346.871 229.308V250.692H345.362V229.308H346.871ZM352.076 250.692H353.585V229.308H352.076V250.692ZM351.347 250.692V229.308H349.838V250.692H351.347ZM358.062 250.692H356.552V229.308H358.062V250.692ZM355.824 229.308V250.692H354.314V229.308H355.824ZM361.029 250.692H362.538V229.308H361.029V250.692ZM360.3 250.692V229.308H358.79V250.692H360.3ZM367.014 250.692H365.505V229.308H367.014V250.692ZM364.776 229.308V250.692H363.267V229.308H364.776ZM369.981 250.692H371.49V229.308H369.981V250.692ZM369.252 250.692V229.308H367.743V250.692H369.252ZM375.967 250.692H374.457V229.308H375.967V250.692ZM373.728 229.308V250.692H372.219V229.308H373.728ZM378.934 250.692H380.443V229.308H378.934V250.692ZM378.205 250.692V229.308H376.695V250.692H378.205ZM382.681 250.692H381.172V229.308H382.681V250.692ZM383.41 250.692H384.084V229.308H383.41V250.692Z" fill="white"/>
<path fill-rule="evenodd" clip-rule="evenodd" d="M478 180.083V178H481V180.083H478ZM478 188.417V184.25H481V188.417H478ZM478 196.75V192.583H481V196.75H478ZM478 205.083V200.917H481V205.083H478ZM478 213.417V209.25H481V213.417H478ZM478 221.75V217.583H481V221.75H478ZM478 228V225.917H481V228H478Z" fill="white"/>
<path fill-rule="evenodd" clip-rule="evenodd" d="M290.103 238.509L292.879 235.646C293.049 235.471 293.33 235.466 293.506 235.637L296.369 238.413C296.544 238.583 296.549 238.864 296.378 239.04C296.208 239.215 295.927 239.22 295.752 239.049L293.657 237.018L293.788 245.549L292.902 245.563L292.77 237.031L290.739 239.126C290.569 239.302 290.288 239.306 290.112 239.136C289.937 238.966 289.932 238.685 290.103 238.509Z" fill="white"/>
<path fill-rule="evenodd" clip-rule="evenodd" d="M302.881 243.063L300.288 245.871C300.129 246.043 299.871 246.043 299.712 245.871L297.119 243.063C296.96 242.891 296.96 242.612 297.119 242.44C297.278 242.267 297.536 242.267 297.695 242.44L299.593 244.494V236H300.407V244.494L302.305 242.44C302.464 242.267 302.722 242.267 302.881 242.44C303.04 242.612 303.04 242.891 302.881 243.063Z" fill="white"/>
<path fill-rule="evenodd" clip-rule="evenodd" d="M312.874 237.935L315.65 235.072C315.821 234.897 316.101 234.892 316.277 235.063L319.14 237.839C319.316 238.009 319.32 238.29 319.15 238.465C318.979 238.641 318.699 238.645 318.523 238.475L316.428 236.444L316.559 244.975L315.673 244.988L315.542 236.457L313.51 238.552C313.34 238.728 313.059 238.732 312.884 238.562C312.708 238.392 312.704 238.111 312.874 237.935Z" fill="white"/>
<path fill-rule="evenodd" clip-rule="evenodd" d="M325.861 242.77L322.836 245.858C322.65 246.047 322.35 246.047 322.164 245.858L319.139 242.77C318.954 242.58 318.954 242.273 319.139 242.084C319.325 241.894 319.626 241.894 319.811 242.084L322.025 244.343V235H322.975V244.343L325.189 242.084C325.374 241.894 325.675 241.894 325.861 242.084C326.046 242.273 326.046 242.58 325.861 242.77Z" fill="white"/>
<path d="M304 270C304 270.552 303.552 271 303 271C302.448 271 302 270.552 302 270C302 269.448 302.448 269 303 269C303.552 269 304 269.448 304 270Z" fill="white"/>
<path fill-rule="evenodd" clip-rule="evenodd" d="M301.951 273.719L300.507 279.302H301.885C301.88 279.331 301.878 279.361 301.878 279.392V283.48C301.878 283.767 302.093 283.999 302.359 283.999C302.624 283.999 302.84 283.767 302.84 283.48V279.392C302.84 279.361 302.837 279.331 302.832 279.302H302.938V279.303H303.168C303.163 279.332 303.16 279.362 303.16 279.393V283.481C303.16 283.768 303.376 284 303.641 284C303.907 284 304.122 283.768 304.122 283.481V279.393C304.122 279.362 304.12 279.332 304.115 279.303H305.493L304.049 273.72H304.256L305.128 276.925C305.208 277.217 305.514 277.352 305.762 277.206C305.949 277.096 306.041 276.86 305.982 276.64L304.982 272.902C304.964 272.835 304.933 272.774 304.893 272.723L304.899 272.722C304.788 272.451 304.378 271.943 303.605 272.006L303.604 272.002H302.938L302.938 272.001H302.396L302.395 272.005C301.622 271.942 301.212 272.45 301.101 272.721L301.107 272.723C301.067 272.773 301.036 272.834 301.018 272.901L300.018 276.639C299.959 276.859 300.051 277.095 300.238 277.205C300.486 277.351 300.792 277.216 300.872 276.924L301.744 273.719H301.951Z" fill="white"/>
<path fill-rule="evenodd" clip-rule="evenodd" d="M375.047 272.583C375.794 272.583 376.399 272.005 376.399 271.291C376.399 270.578 375.794 270 375.047 270C374.3 270 373.694 270.578 373.694 271.291C373.694 272.005 374.3 272.583 375.047 272.583ZM373.365 274.659V280.005L373.381 279.988V283.296C373.381 283.685 373.719 284 374.136 284C374.552 284 374.89 283.685 374.89 283.296V278.37L374.921 278.338V278.042H375.079V278.338L375.11 278.37V283.296C375.11 283.685 375.447 284 375.864 284C376.281 284 376.619 283.685 376.619 283.296V279.988L376.635 280.005V274.659H376.835L376.864 277.931C376.867 278.262 377.191 278.509 377.539 278.445C377.807 278.397 378.001 278.177 378 277.922L377.985 273.884C377.984 273.777 377.95 273.676 377.891 273.591C377.749 273.344 377.346 272.952 376.635 272.886V272.877H376.494C376.449 272.876 376.403 272.876 376.355 272.877H375.868V272.876H374.296V272.877H373.645C373.597 272.876 373.551 272.876 373.506 272.877H373.365V272.886C372.654 272.952 372.25 273.344 372.109 273.592C372.05 273.676 372.016 273.777 372.015 273.884L372 277.922C371.999 278.177 372.193 278.397 372.461 278.445C372.809 278.509 373.133 278.262 373.136 277.931L373.165 274.659H373.365Z" fill="white"/>
<path d="M130 269C130 274.523 125.523 279 120 279C114.477 279 110 274.523 110 269C110 263.477 114.477 259 120 259C125.523 259 130 263.477 130 269Z" fill="#E14235"/>
<path d="M121 274H119.295V268.792L119.312 267.936L119.339 267.001C119.056 267.317 118.859 267.524 118.749 267.622L117.822 268.453L117 267.308L119.599 265H121V274Z" fill="white"/>
<path d="M196 227C196 232.523 191.747 237 186.5 237C181.253 237 177 232.523 177 227C177 221.477 181.253 217 186.5 217C191.747 217 196 221.477 196 227Z" fill="#E14235"/>
<path d="M190 232H184.023V230.695L186.17 228.444C186.805 227.768 187.22 227.301 187.415 227.042C187.61 226.779 187.75 226.536 187.836 226.314C187.922 226.091 187.965 225.86 187.965 225.622C187.965 225.266 187.869 225.001 187.678 224.827C187.491 224.653 187.24 224.566 186.924 224.566C186.593 224.566 186.271 224.645 185.959 224.802C185.647 224.96 185.322 225.185 184.982 225.476L184 224.268C184.421 223.896 184.77 223.633 185.047 223.479C185.324 223.326 185.626 223.208 185.953 223.127C186.281 223.042 186.647 223 187.053 223C187.587 223 188.058 223.101 188.468 223.303C188.877 223.506 189.195 223.789 189.421 224.153C189.647 224.517 189.76 224.934 189.76 225.403C189.76 225.812 189.69 226.196 189.55 226.556C189.413 226.912 189.199 227.278 188.906 227.655C188.618 228.031 188.107 228.567 187.374 229.263L186.275 230.337V230.422H190V232Z" fill="white"/>
<path d="M176 187C176 192.523 171.523 197 166 197C160.477 197 156 192.523 156 187C156 181.477 160.477 177 166 177C171.523 177 176 181.477 176 187Z" fill="#E14235"/>
<path d="M168.745 185.084C168.745 185.631 168.581 186.096 168.253 186.479C167.925 186.862 167.464 187.126 166.872 187.269V187.305C167.571 187.393 168.101 187.609 168.46 187.952C168.82 188.291 169 188.75 169 189.329C169 190.172 168.698 190.828 168.093 191.299C167.488 191.766 166.625 192 165.502 192C164.561 192 163.727 191.842 163 191.527V189.952C163.336 190.124 163.706 190.263 164.109 190.371C164.512 190.479 164.911 190.533 165.306 190.533C165.911 190.533 166.358 190.429 166.646 190.222C166.935 190.014 167.079 189.681 167.079 189.222C167.079 188.81 166.913 188.519 166.581 188.347C166.249 188.176 165.719 188.09 164.992 188.09H164.334V186.671H165.004C165.676 186.671 166.166 186.583 166.474 186.407C166.787 186.228 166.943 185.922 166.943 185.491C166.943 184.828 166.532 184.497 165.709 184.497C165.425 184.497 165.134 184.545 164.838 184.641C164.545 184.737 164.219 184.902 163.86 185.138L163.012 183.862C163.802 183.287 164.745 183 165.84 183C166.737 183 167.445 183.184 167.962 183.551C168.484 183.918 168.745 184.429 168.745 185.084Z" fill="white"/>
<path d="M189 120C189 125.523 184.523 130 179 130C173.477 130 169 125.523 169 120C169 114.477 173.477 110 179 110C184.523 110 189 114.477 189 120Z" fill="#E14235"/>
<path d="M179.157 119.206C180.025 119.206 180.714 119.447 181.226 119.929C181.742 120.411 182 121.071 182 121.909C182 122.901 181.691 123.664 181.073 124.198C180.454 124.733 179.57 125 178.42 125C177.421 125 176.614 124.84 176 124.52V122.899C176.323 123.069 176.7 123.209 177.13 123.318C177.56 123.423 177.967 123.476 178.352 123.476C179.511 123.476 180.09 123.006 180.09 122.067C180.09 121.172 179.49 120.725 178.291 120.725C178.074 120.725 177.834 120.747 177.572 120.791C177.31 120.832 177.097 120.877 176.933 120.925L176.178 120.524L176.516 116H181.386V117.591H178.18L178.014 119.334L178.229 119.291C178.479 119.235 178.788 119.206 179.157 119.206Z" fill="white"/>
<path d="M263 120C263 125.523 258.523 130 253 130C247.477 130 243 125.523 243 120C243 114.477 247.477 110 253 110C258.523 110 263 114.477 263 120Z" fill="#E14235"/>
<path d="M250 121.151C250 119.414 250.355 118.121 251.064 117.273C251.777 116.424 252.843 116 254.262 116C254.746 116 255.126 116.03 255.401 116.09V117.573C255.056 117.493 254.715 117.453 254.378 117.453C253.762 117.453 253.258 117.549 252.866 117.741C252.479 117.933 252.188 118.217 251.994 118.594C251.8 118.97 251.686 119.504 251.651 120.197H251.727C252.11 119.516 252.725 119.176 253.57 119.176C254.329 119.176 254.924 119.422 255.355 119.915C255.785 120.407 256 121.087 256 121.956C256 122.893 255.744 123.635 255.233 124.183C254.721 124.728 254.012 125 253.105 125C252.477 125 251.928 124.85 251.459 124.55C250.994 124.249 250.634 123.811 250.378 123.235C250.126 122.658 250 121.964 250 121.151ZM253.07 123.517C253.453 123.517 253.748 123.385 253.953 123.121C254.159 122.853 254.262 122.472 254.262 121.98C254.262 121.552 254.165 121.215 253.971 120.971C253.781 120.723 253.492 120.599 253.105 120.599C252.74 120.599 252.428 120.721 252.169 120.965C251.913 121.209 251.785 121.494 251.785 121.818C251.785 122.294 251.905 122.696 252.145 123.025C252.39 123.353 252.698 123.517 253.07 123.517Z" fill="white"/>
<path d="M282 181.5C282 186.747 277.523 191 272 191C266.477 191 262 186.747 262 181.5C262 176.253 266.477 172 272 172C277.523 172 282 176.253 282 181.5Z" fill="#E14235"/>
<path d="M269.148 186L272.811 178.603H268V177H275V178.196L271.31 186H269.148Z" fill="white"/>
<path d="M341 177.5C341 182.747 336.523 187 331 187C325.477 187 321 182.747 321 177.5C321 172.253 325.477 168 331 168C336.523 168 341 172.253 341 177.5Z" fill="#E14235"/>
<path d="M334 176.849C334 178.578 333.647 179.869 332.942 180.721C332.236 181.574 331.169 182 329.738 182C329.234 182 328.853 181.972 328.593 181.916V180.427C328.919 180.511 329.26 180.553 329.616 180.553C330.217 180.553 330.711 180.463 331.099 180.283C331.486 180.099 331.783 179.813 331.988 179.424C332.194 179.032 332.312 178.494 332.343 177.809H332.273C332.048 178.185 331.789 178.45 331.494 178.602C331.2 178.754 330.831 178.83 330.39 178.83C329.649 178.83 329.066 178.586 328.64 178.097C328.213 177.605 328 176.923 328 176.05C328 175.109 328.258 174.367 328.773 173.823C329.293 173.274 329.998 173 330.89 173C331.517 173 332.066 173.152 332.535 173.456C333.008 173.761 333.37 174.203 333.622 174.783C333.874 175.36 334 176.048 334 176.849ZM330.924 174.489C330.552 174.489 330.262 174.621 330.052 174.885C329.843 175.149 329.738 175.53 329.738 176.026C329.738 176.45 329.833 176.787 330.023 177.035C330.213 177.283 330.502 177.407 330.89 177.407C331.254 177.407 331.566 177.285 331.826 177.041C332.085 176.793 332.215 176.508 332.215 176.188C332.215 175.712 332.093 175.31 331.849 174.981C331.609 174.653 331.3 174.489 330.924 174.489Z" fill="white"/>
<path d="M392 120C392 125.523 387.747 130 382.5 130C377.253 130 373 125.523 373 120C373 114.477 377.253 110 382.5 110C387.747 110 392 114.477 392 120Z" fill="#E14235"/>
<path d="M386 119.849C386 121.578 385.589 122.869 384.766 123.721C383.943 124.574 382.697 125 381.028 125C380.44 125 379.995 124.972 379.692 124.916V123.427C380.072 123.511 380.47 123.553 380.886 123.553C381.587 123.553 382.163 123.463 382.615 123.283C383.068 123.099 383.413 122.813 383.653 122.424C383.893 122.032 384.031 121.494 384.067 120.809H383.985C383.723 121.185 383.42 121.45 383.077 121.602C382.733 121.754 382.303 121.83 381.788 121.83C380.924 121.83 380.244 121.586 379.746 121.097C379.249 120.605 379 119.923 379 119.05C379 118.109 379.301 117.367 379.902 116.823C380.508 116.274 381.331 116 382.371 116C383.104 116 383.744 116.152 384.291 116.456C384.842 116.761 385.265 117.203 385.559 117.783C385.853 118.36 386 119.048 386 119.849ZM382.412 117.489C381.978 117.489 381.639 117.621 381.394 117.885C381.15 118.149 381.028 118.53 381.028 119.026C381.028 119.45 381.139 119.787 381.36 120.035C381.582 120.283 381.919 120.407 382.371 120.407C382.796 120.407 383.16 120.285 383.463 120.041C383.766 119.793 383.918 119.508 383.918 119.188C383.918 118.712 383.775 118.31 383.49 117.981C383.21 117.653 382.85 117.489 382.412 117.489Z" fill="white"/>
<path d="M449 127C449 132.523 444.523 137 439 137C433.477 137 429 132.523 429 127C429 121.477 433.477 117 439 117C444.523 117 449 121.477 449 127Z" fill="#E14235"/>
<path d="M437.208 131H435.415V126.371L435.432 125.61L435.461 124.778C435.163 125.059 434.956 125.244 434.84 125.331L433.865 126.07L433 125.052L435.734 123H437.208V131Z" fill="white"/>
<path d="M444 131H442.206V126.371L442.224 125.61L442.253 124.778C441.955 125.059 441.748 125.244 441.632 125.331L440.656 126.07L439.792 125.052L442.526 123H444V131Z" fill="white"/>
<path d="M566 195C566 200.523 561.523 205 556 205C550.477 205 546 200.523 546 195C546 189.477 550.477 185 556 185C561.523 185 566 189.477 566 195Z" fill="#E14235"/>
<path d="M553 191H555.518C556.666 191 557.498 191.162 558.015 191.487C558.535 191.808 558.795 192.321 558.795 193.025C558.795 193.503 558.681 193.895 558.452 194.201C558.227 194.508 557.926 194.692 557.55 194.754V194.808C558.063 194.922 558.432 195.133 558.657 195.443C558.886 195.753 559 196.166 559 196.68C559 197.409 558.732 197.979 558.197 198.387C557.666 198.796 556.943 199 556.028 199H553V191ZM554.716 194.168H555.712C556.177 194.168 556.513 194.097 556.72 193.955C556.93 193.813 557.035 193.577 557.035 193.249C557.035 192.943 556.921 192.724 556.692 192.592C556.467 192.457 556.109 192.39 555.618 192.39H554.716V194.168ZM554.716 195.514V197.599H555.834C556.306 197.599 556.655 197.51 556.88 197.331C557.105 197.152 557.218 196.879 557.218 196.51C557.218 195.846 556.738 195.514 555.779 195.514H554.716Z" fill="white"/>
<path d="M382 189.5C382 194.747 377.523 199 372 199C366.477 199 362 194.747 362 189.5C362 184.253 366.477 180 372 180C377.523 180 382 184.253 382 189.5Z" fill="#E14235"/>
<path d="M373.311 186.545C372.577 186.545 372.01 186.808 371.608 187.335C371.206 187.858 371.004 188.589 371.004 189.527C371.004 191.479 371.773 192.455 373.311 192.455C373.956 192.455 374.737 192.301 375.654 191.994V193.551C374.9 193.85 374.058 194 373.128 194C371.792 194 370.77 193.615 370.062 192.844C369.354 192.07 369 190.96 369 189.515C369 188.605 369.174 187.808 369.522 187.126C369.869 186.439 370.368 185.914 371.017 185.551C371.671 185.184 372.435 185 373.311 185C374.203 185 375.099 185.206 376 185.617L375.372 187.126C375.028 186.97 374.683 186.834 374.335 186.719C373.987 186.603 373.646 186.545 373.311 186.545Z" fill="white"/>
<path d="M50 212.5C50 217.747 45.5228 222 40 222C34.4772 222 30 217.747 30 212.5C30 207.253 34.4772 203 40 203C45.5228 203 50 207.253 50 212.5Z" fill="#E14235"/>
<path d="M44 212.414C44 213.895 43.6037 215.03 42.8112 215.818C42.0225 216.606 40.8818 217 39.3891 217H37V208H39.6488C41.0261 208 42.0956 208.388 42.8574 209.163C43.6191 209.939 44 211.023 44 212.414ZM42.1418 212.463C42.1418 210.53 41.3416 209.564 39.7411 209.564H38.789V215.424H39.5565C41.28 215.424 42.1418 214.437 42.1418 212.463Z" fill="white"/>
<path d="M199 293C199 298.523 194.747 303 189.5 303C184.253 303 180 298.523 180 293C180 287.477 184.253 283 189.5 283C194.747 283 199 287.477 199 293Z" fill="#E14235"/>
<path d="M191.873 298L191.197 295.866H187.803L187.127 298H185L188.287 289H190.701L194 298H191.873ZM190.726 294.272C190.102 292.339 189.749 291.246 189.669 290.993C189.592 290.739 189.537 290.539 189.503 290.392C189.363 290.915 188.962 292.208 188.299 294.272H190.726Z" fill="white"/>
<path d="M445 259C445 264.523 440.523 269 435 269C429.477 269 425 264.523 425 259C425 253.477 429.477 249 435 249C440.523 249 445 253.477 445 259Z" fill="#E14235"/>
<path d="M432.378 264H430.512V258.866L430.53 258.022L430.56 257.1C430.25 257.411 430.035 257.616 429.914 257.713L428.9 258.532L428 257.403L430.844 255.127H432.378V264Z" fill="white"/>
<path d="M441 264H434.829V262.695L437.045 260.444C437.701 259.768 438.13 259.301 438.331 259.042C438.532 258.779 438.677 258.536 438.766 258.314C438.854 258.091 438.899 257.86 438.899 257.622C438.899 257.266 438.8 257.001 438.603 256.827C438.41 256.653 438.15 256.566 437.824 256.566C437.482 256.566 437.15 256.645 436.828 256.802C436.506 256.96 436.17 257.185 435.819 257.476L434.805 256.268C435.24 255.896 435.6 255.633 435.886 255.479C436.172 255.326 436.484 255.208 436.822 255.127C437.16 255.042 437.538 255 437.957 255C438.508 255 438.995 255.101 439.418 255.303C439.841 255.506 440.169 255.789 440.402 256.153C440.636 256.517 440.752 256.934 440.752 257.403C440.752 257.812 440.68 258.196 440.535 258.556C440.394 258.912 440.173 259.278 439.871 259.655C439.573 260.031 439.046 260.567 438.289 261.263L437.154 262.337V262.422H441V264Z" fill="white"/>
<path d="M275 239C275 244.523 270.747 249 265.5 249C260.253 249 256 244.523 256 239C256 233.477 260.253 229 265.5 229C270.747 229 275 233.477 275 239Z" fill="#E14235"/>
<path d="M263.312 244H261.474V238.213L261.492 237.263L261.522 236.223C261.216 236.574 261.004 236.804 260.885 236.914L259.886 237.837L259 236.565L261.801 234H263.312V244Z" fill="white"/>
<path d="M272 241.927H270.953V244H269.157V241.927H265.446V240.457L269.258 234H270.953V240.286H272V241.927ZM269.157 240.286V238.59C269.157 238.307 269.167 237.896 269.187 237.358C269.207 236.82 269.223 236.508 269.235 236.421H269.187C269.04 236.795 268.864 237.16 268.658 237.516L267.064 240.286H269.157Z" fill="white"/>
<path d="M365 260C365 265.523 360.523 270 355 270C349.477 270 345 265.523 345 260C345 254.477 349.477 250 355 250C360.523 250 365 254.477 365 260Z" fill="#E14235"/>
<path d="M352.406 264.867H350.528V259.238L350.547 258.313L350.577 257.302C350.265 257.644 350.048 257.868 349.927 257.974L348.906 258.872L348 257.635L350.863 255.14H352.406V264.867Z" fill="white"/>
<path d="M360.739 257.315C360.739 257.923 360.571 258.44 360.234 258.866C359.898 259.291 359.426 259.584 358.818 259.744V259.784C359.535 259.881 360.078 260.121 360.447 260.502C360.816 260.879 361 261.389 361 262.033C361 262.969 360.69 263.698 360.07 264.222C359.45 264.741 358.565 265 357.414 265C356.45 265 355.595 264.825 354.849 264.474V262.725C355.194 262.915 355.573 263.071 355.986 263.19C356.399 263.31 356.808 263.37 357.214 263.37C357.834 263.37 358.291 263.255 358.587 263.024C358.883 262.793 359.031 262.423 359.031 261.913C359.031 261.456 358.861 261.132 358.52 260.941C358.18 260.751 357.637 260.655 356.892 260.655H356.217V259.079H356.904C357.592 259.079 358.095 258.981 358.411 258.786C358.731 258.586 358.891 258.247 358.891 257.768C358.891 257.031 358.47 256.663 357.627 256.663C357.335 256.663 357.037 256.717 356.734 256.823C356.434 256.929 356.099 257.114 355.731 257.375L354.862 255.958C355.672 255.319 356.638 255 357.761 255C358.68 255 359.406 255.204 359.936 255.612C360.471 256.02 360.739 256.588 360.739 257.315Z" fill="white"/>
<path d="M381 164C381 169.523 376.523 174 371 174C365.477 174 361 169.523 361 164C361 158.477 365.477 154 371 154C376.523 154 381 158.477 381 164Z" fill="#E14235"/>
<path d="M368.394 168.867H366.521V163.246L366.539 162.322L366.57 161.312C366.259 161.653 366.042 161.877 365.921 161.983L364.903 162.88L364 161.645L366.855 159.153H368.394V168.867Z" fill="white"/>
<path d="M377 164.01C377 165.707 376.745 166.962 376.236 167.777C375.731 168.592 374.952 169 373.897 169C372.875 169 372.103 168.579 371.582 167.738C371.065 166.896 370.806 165.653 370.806 164.01C370.806 162.296 371.059 161.033 371.564 160.223C372.069 159.408 372.846 159 373.897 159C374.919 159 375.691 159.425 376.212 160.276C376.737 161.126 377 162.371 377 164.01ZM372.667 164.01C372.667 165.202 372.76 166.056 372.945 166.575C373.135 167.089 373.453 167.346 373.897 167.346C374.333 167.346 374.648 167.084 374.842 166.561C375.036 166.039 375.133 165.188 375.133 164.01C375.133 162.818 375.034 161.963 374.836 161.445C374.642 160.922 374.329 160.661 373.897 160.661C373.457 160.661 373.141 160.922 372.952 161.445C372.762 161.963 372.667 162.818 372.667 164.01Z" fill="white"/>
<path d="M323 120C323 125.523 318.523 130 313 130C307.477 130 303 125.523 303 120C303 114.477 307.477 110 313 110C318.523 110 323 114.477 323 120Z" fill="#E14235"/>
<path d="M313.006 116C313.825 116 314.483 116.192 314.982 116.576C315.485 116.955 315.737 117.469 315.737 118.117C315.737 118.564 315.616 118.964 315.374 119.316C315.133 119.664 314.743 119.975 314.205 120.251C314.844 120.603 315.302 120.971 315.579 121.354C315.86 121.734 316 122.152 316 122.608C316 123.327 315.725 123.907 315.175 124.346C314.626 124.782 313.903 125 313.006 125C312.07 125 311.335 124.796 310.801 124.388C310.267 123.981 310 123.403 310 122.656C310 122.156 310.129 121.712 310.386 121.324C310.647 120.937 311.064 120.595 311.637 120.299C311.15 119.983 310.799 119.646 310.585 119.286C310.37 118.926 310.263 118.532 310.263 118.105C310.263 117.477 310.517 116.969 311.023 116.582C311.53 116.194 312.191 116 313.006 116ZM311.673 122.548C311.673 122.891 311.789 123.159 312.023 123.351C312.257 123.543 312.577 123.639 312.982 123.639C313.431 123.639 313.766 123.541 313.988 123.345C314.211 123.145 314.322 122.883 314.322 122.56C314.322 122.292 314.211 122.042 313.988 121.81C313.77 121.574 313.413 121.324 312.918 121.061C312.088 121.452 311.673 121.948 311.673 122.548ZM312.994 117.355C312.686 117.355 312.437 117.437 312.246 117.601C312.058 117.761 311.965 117.977 311.965 118.249C311.965 118.488 312.039 118.704 312.187 118.896C312.339 119.084 312.612 119.278 313.006 119.478C313.388 119.294 313.655 119.106 313.807 118.914C313.959 118.722 314.035 118.5 314.035 118.249C314.035 117.973 313.938 117.755 313.743 117.595C313.548 117.435 313.298 117.355 312.994 117.355Z" fill="white"/>
<path d="M144 166C144 171.523 139.523 176 134 176C128.477 176 124 171.523 124 166C124 160.477 128.477 156 134 156C139.523 156 144 160.477 144 166Z" fill="#E14235"/>
<path d="M137 169.135H136.042V171H134.397V169.135H131V167.811L134.49 162H136.042V167.657H137V169.135ZM134.397 167.657V166.131C134.397 165.876 134.407 165.507 134.425 165.023C134.443 164.538 134.457 164.257 134.468 164.179H134.425C134.29 164.516 134.129 164.844 133.94 165.164L132.481 167.657H134.397Z" fill="white"/>
</svg>
