<svg width="648" height="432" viewBox="0 0 648 432" fill="none" xmlns="http://www.w3.org/2000/svg">
<rect x="0.5" y="0.5" width="647" height="431" rx="9.5" stroke="#6699FF"/>
<path d="M280.095 83.5139V64.547H443.596H634.453V209.802V240.465V351.263H539.024H443.596H319.942H248.786H231.708H185.536H125.764H12.5469V272.393V210.908V209.011H31.3638V83.5139H125.764H280.095Z" fill="#05AC72"/>
<path fill-rule="evenodd" clip-rule="evenodd" d="M278.422 63H636V353.326H11V207.576H29.808V83.676H31.027V81.9815H278.422V63ZM33.1943 85.3705V207.576H124.164V85.3705H33.1943ZM127.551 85.3705V349.937H183.908V316.719H233.445V324.786H265.778V306.821H152.772V270.531H318.251V239.053H632.614V211.756H405.653V81.8233H441.846V66.389H281.808V85.3705H127.551ZM445.233 66.389V208.367H632.614V66.389H445.233ZM441.846 208.367V180.12H409.039V208.367H441.846ZM409.039 176.731H441.846V148.484H409.039V176.731ZM409.039 145.095H441.846V115.741H409.039V145.095ZM409.039 112.352H441.846V85.2123H409.039V112.352ZM632.614 242.442H540.616V349.937H632.614V242.442ZM537.23 349.937V242.442H445.233V349.937H537.23ZM441.846 349.937V242.442H321.637V349.937H441.846ZM318.251 349.937V306.821H298.245V328.175H250.514V349.937H318.251ZM247.128 349.937V328.175H233.445V349.937H247.128ZM230.058 349.937V320.108H187.294V349.937H230.058ZM294.859 306.821H269.164V324.786H294.859V306.821ZM318.251 303.432V273.92H251.62V303.432H318.251ZM248.234 303.432V273.92H221.196V303.432H248.234ZM217.809 303.432V273.92H190.771V303.432H217.809ZM187.385 303.432V273.92H179.707V303.432H187.385ZM176.321 303.432V273.92H156.158V303.432H176.321ZM124.164 349.937V274.395H14.3863V349.937H124.164ZM14.3863 271.006H124.164V210.965H14.3863V271.006ZM312.245 81.9815H386.754V211.756H312.245V81.9815ZM315.631 85.3705V112.352H347.806V85.3705H315.631ZM351.192 85.3705V112.352H383.368V85.3705H351.192ZM383.368 115.741H351.192V145.095H383.368V115.741ZM383.368 148.484H351.192V176.731H383.368V148.484ZM383.368 180.12H351.192V208.367H383.368V180.12ZM347.806 208.367V180.12H315.631V208.367H347.806ZM315.631 176.731H347.806V148.484H315.631V176.731ZM315.631 145.095H347.806V115.741H315.631V145.095ZM157.942 131.921H156.565V242.442H254.465V130.226H157.942V131.921ZM251.079 133.615H159.951V239.053H251.079V133.615Z" fill="white"/>
<path fill-rule="evenodd" clip-rule="evenodd" d="M195.792 285.382L199.612 281.443C199.847 281.201 200.233 281.195 200.475 281.429L204.415 285.25C204.656 285.484 204.662 285.87 204.428 286.112C204.193 286.354 203.807 286.36 203.566 286.125L200.683 283.33L200.863 295.069L199.644 295.088L199.463 283.348L196.668 286.231C196.433 286.473 196.047 286.479 195.805 286.245C195.564 286.01 195.558 285.624 195.792 285.382Z" fill="white"/>
<path fill-rule="evenodd" clip-rule="evenodd" d="M213.486 291.117L209.698 294.881C209.465 295.112 209.088 295.112 208.856 294.881L205.068 291.117C204.836 290.886 204.836 290.512 205.068 290.281C205.3 290.05 205.677 290.05 205.91 290.281L208.682 293.035V281.647H209.872V293.035L212.644 290.281C212.876 290.05 213.253 290.05 213.486 290.281C213.718 290.512 213.718 290.886 213.486 291.117Z" fill="white"/>
<path fill-rule="evenodd" clip-rule="evenodd" d="M225.812 285.383L229.632 281.443C229.866 281.201 230.252 281.195 230.494 281.43L234.434 285.25C234.676 285.484 234.682 285.871 234.447 286.112C234.213 286.354 233.827 286.36 233.585 286.126L230.702 283.33L230.883 295.07L229.663 295.088L229.483 283.349L226.687 286.232C226.453 286.473 226.067 286.479 225.825 286.245C225.583 286.01 225.577 285.624 225.812 285.383Z" fill="white"/>
<path fill-rule="evenodd" clip-rule="evenodd" d="M243.396 291.117L239.608 294.881C239.376 295.112 238.999 295.112 238.766 294.881L234.978 291.117C234.746 290.886 234.746 290.512 234.978 290.281C235.211 290.05 235.587 290.05 235.82 290.281L238.592 293.035V281.647H239.782V293.035L242.554 290.281C242.787 290.05 243.164 290.05 243.396 290.281C243.628 290.512 243.628 290.886 243.396 291.117Z" fill="white"/>
<path d="M210.051 327.542C210.051 328.396 209.474 329.089 208.762 329.089C208.05 329.089 207.473 328.396 207.473 327.542C207.473 326.688 208.05 325.995 208.762 325.995C209.474 325.995 210.051 326.688 210.051 327.542Z" fill="white"/>
<path fill-rule="evenodd" clip-rule="evenodd" d="M207.41 331.231L205.548 338.19H207.324C207.318 338.226 207.315 338.263 207.315 338.301V343.396C207.315 343.753 207.593 344.043 207.935 344.043C208.278 344.043 208.555 343.753 208.555 343.396V338.301C208.555 338.263 208.552 338.226 208.546 338.19H208.682V338.191H208.978C208.972 338.227 208.969 338.264 208.969 338.302V343.397C208.969 343.754 209.246 344.044 209.589 344.044C209.931 344.044 210.209 343.754 210.209 343.397V338.302C210.209 338.264 210.206 338.227 210.2 338.191H211.976L210.114 331.232H210.381L211.506 335.227C211.608 335.59 212.002 335.759 212.323 335.577C212.564 335.44 212.683 335.145 212.607 334.872L211.317 330.214C211.294 330.129 211.255 330.054 211.203 329.991L211.211 329.989C211.067 329.651 210.538 329.018 209.542 329.097L209.541 329.091H208.683L208.683 329.09H207.983L207.982 329.096C206.986 329.017 206.457 329.65 206.314 329.988L206.321 329.99C206.27 330.053 206.23 330.128 206.207 330.213L204.917 334.871C204.841 335.144 204.96 335.439 205.201 335.576C205.522 335.758 205.916 335.589 206.018 335.226L207.143 331.231H207.41Z" fill="white"/>
<path fill-rule="evenodd" clip-rule="evenodd" d="M306.801 328.063C307.764 328.063 308.544 327.254 308.544 326.256C308.544 325.257 307.764 324.448 306.801 324.448C305.838 324.448 305.057 325.257 305.057 326.256C305.057 327.254 305.838 328.063 306.801 328.063ZM304.633 330.97V338.451L304.653 338.428V343.058C304.653 343.602 305.089 344.044 305.626 344.044C306.164 344.044 306.599 343.602 306.599 343.058V336.164L306.639 336.118V335.704H306.842V336.118L306.882 336.164V343.058C306.882 343.602 307.317 344.044 307.855 344.044C308.392 344.044 308.828 343.602 308.828 343.058V338.428L308.848 338.451V330.97H309.106L309.144 335.549C309.147 336.013 309.565 336.358 310.014 336.269C310.36 336.201 310.609 335.893 310.608 335.536L310.589 329.885C310.588 329.735 310.544 329.594 310.468 329.476C310.286 329.13 309.765 328.58 308.848 328.487V328.475H308.663C308.607 328.474 308.55 328.473 308.491 328.475H307.86V328.474H305.833V328.475H304.99C304.931 328.473 304.874 328.474 304.818 328.475H304.633V328.487C303.716 328.58 303.195 329.13 303.014 329.476C302.937 329.594 302.893 329.735 302.893 329.885L302.873 335.536C302.872 335.893 303.121 336.201 303.467 336.269C303.916 336.358 304.334 336.013 304.338 335.549L304.375 330.97H304.633Z" fill="white"/>
<path d="M70.7214 140.214L70.0217 137.83H66.5037L65.8041 140.214H63.5996L67.0054 130.154H69.5069L72.9259 140.214H70.7214ZM69.5333 136.048C68.8865 133.887 68.5212 132.665 68.4376 132.382C68.3584 132.098 68.3012 131.875 68.266 131.71C68.1208 132.295 67.705 133.741 67.0186 136.048H69.5333Z" fill="#FBFBFB"/>
<path d="M76.9851 133.814C77.9179 133.814 78.6593 134.086 79.2094 134.629C79.7638 135.173 80.041 135.918 80.041 136.863C80.041 137.983 79.7088 138.844 79.0444 139.447C78.3799 140.05 77.4295 140.351 76.193 140.351C75.1194 140.351 74.2525 140.171 73.5925 139.81V137.98C73.9401 138.172 74.3449 138.33 74.807 138.453C75.269 138.572 75.7068 138.631 76.1204 138.631C77.3657 138.631 77.9883 138.101 77.9883 137.042C77.9883 136.032 77.3437 135.527 76.0544 135.527C75.8212 135.527 75.5638 135.552 75.2822 135.602C75.0006 135.648 74.7717 135.698 74.5957 135.753L73.7839 135.301L74.1469 130.196H79.381V131.991H75.9356L75.7574 133.958L75.9884 133.91C76.2568 133.846 76.589 133.814 76.9851 133.814Z" fill="#FBFBFB"/>
<path d="M87.8888 135.205C87.8888 136.955 87.6116 138.25 87.0571 139.091C86.5071 139.931 85.6579 140.351 84.5094 140.351C83.3962 140.351 82.5557 139.917 81.9881 139.049C81.4249 138.181 81.1433 136.9 81.1433 135.205C81.1433 133.437 81.4183 132.135 81.9683 131.299C82.5183 130.458 83.3654 130.038 84.5094 130.038C85.6227 130.038 86.4631 130.477 87.0307 131.354C87.6028 132.231 87.8888 133.515 87.8888 135.205ZM83.1696 135.205C83.1696 136.434 83.2708 137.316 83.4732 137.85C83.68 138.38 84.0254 138.645 84.5094 138.645C84.9846 138.645 85.3279 138.376 85.5391 137.837C85.7503 137.297 85.8559 136.42 85.8559 135.205C85.8559 133.976 85.7481 133.094 85.5325 132.56C85.3213 132.021 84.9802 131.751 84.5094 131.751C84.0298 131.751 83.6866 132.021 83.4798 132.56C83.273 133.094 83.1696 133.976 83.1696 135.205Z" fill="#FBFBFB"/>
<path d="M95.2877 132.436C95.2877 133.062 95.1051 133.595 94.7399 134.033C94.3747 134.472 93.8621 134.773 93.202 134.938V134.979C93.9809 135.079 94.5705 135.326 94.9709 135.719C95.3713 136.107 95.5716 136.633 95.5716 137.295C95.5716 138.259 95.2349 139.011 94.5617 139.55C93.8885 140.084 92.927 140.351 91.6774 140.351C90.6301 140.351 89.7017 140.171 88.892 139.81V138.008C89.2661 138.204 89.6775 138.364 90.1263 138.488C90.5751 138.611 91.0195 138.673 91.4596 138.673C92.1328 138.673 92.63 138.554 92.9512 138.316C93.2724 138.079 93.4331 137.697 93.4331 137.172C93.4331 136.701 93.2482 136.368 92.8786 136.171C92.509 135.975 91.9194 135.877 91.1097 135.877H90.3771V134.252H91.1229C91.871 134.252 92.4166 134.152 92.7598 133.951C93.1074 133.745 93.2812 133.396 93.2812 132.902C93.2812 132.144 92.8236 131.765 91.9084 131.765C91.5916 131.765 91.2681 131.82 90.9381 131.929C90.6125 132.039 90.2495 132.229 89.8491 132.498L88.9052 131.038C89.7853 130.381 90.8347 130.052 92.0536 130.052C93.0524 130.052 93.8401 130.262 94.4165 130.682C94.9973 131.102 95.2877 131.687 95.2877 132.436Z" fill="#FBFBFB"/>
<path d="M195.56 168.584L194.856 166.318H191.315L190.611 168.584H188.393L191.82 159.027H194.337L197.778 168.584H195.56ZM194.364 164.625C193.713 162.572 193.346 161.411 193.261 161.142C193.182 160.873 193.124 160.661 193.089 160.504C192.943 161.06 192.524 162.434 191.833 164.625H194.364Z" fill="#FBFBFB"/>
<path d="M201.863 162.503C202.802 162.503 203.548 162.761 204.102 163.278C204.66 163.794 204.939 164.502 204.939 165.4C204.939 166.463 204.604 167.282 203.936 167.854C203.267 168.427 202.31 168.714 201.066 168.714C199.986 168.714 199.113 168.542 198.449 168.199V166.461C198.799 166.644 199.206 166.793 199.671 166.91C200.136 167.023 200.577 167.08 200.993 167.08C202.246 167.08 202.873 166.576 202.873 165.569C202.873 164.61 202.224 164.131 200.927 164.131C200.692 164.131 200.433 164.154 200.149 164.202C199.866 164.246 199.636 164.293 199.459 164.345L198.642 163.916L199.007 159.066H204.274V160.771H200.807L200.628 162.64L200.86 162.594C201.13 162.533 201.465 162.503 201.863 162.503Z" fill="#FBFBFB"/>
<path d="M212.836 163.825C212.836 165.487 212.557 166.717 211.999 167.516C211.446 168.314 210.591 168.714 209.435 168.714C208.315 168.714 207.469 168.301 206.898 167.477C206.331 166.652 206.048 165.435 206.048 163.825C206.048 162.145 206.325 160.908 206.878 160.114C207.432 159.315 208.284 158.916 209.435 158.916C210.556 158.916 211.402 159.333 211.973 160.166C212.549 160.999 212.836 162.219 212.836 163.825ZM208.087 163.825C208.087 164.992 208.189 165.83 208.393 166.338C208.601 166.841 208.948 167.093 209.435 167.093C209.914 167.093 210.259 166.837 210.472 166.325C210.684 165.812 210.791 164.979 210.791 163.825C210.791 162.657 210.682 161.819 210.465 161.312C210.252 160.8 209.909 160.543 209.435 160.543C208.953 160.543 208.607 160.8 208.399 161.312C208.191 161.819 208.087 162.657 208.087 163.825Z" fill="#FBFBFB"/>
<path d="M220.88 166.611H219.711V168.584H217.705V166.611H213.56V165.211L217.818 159.066H219.711V165.049H220.88V166.611ZM217.705 165.049V163.434C217.705 163.165 217.716 162.774 217.738 162.262C217.761 161.75 217.778 161.453 217.792 161.37H217.738C217.575 161.726 217.377 162.073 217.147 162.412L215.367 165.049H217.705Z" fill="#FBFBFB"/>
<path d="M484.837 130.939L484.135 128.667H480.603L479.901 130.939H477.688L481.107 121.356H483.618L487.051 130.939H484.837ZM483.645 126.97C482.995 124.912 482.629 123.748 482.545 123.478C482.465 123.208 482.408 122.995 482.372 122.838C482.227 123.395 481.809 124.772 481.12 126.97H483.645Z" fill="#FBFBFB"/>
<path d="M491.126 124.842C492.062 124.842 492.807 125.101 493.359 125.619C493.916 126.137 494.194 126.846 494.194 127.747C494.194 128.813 493.86 129.633 493.193 130.208C492.526 130.782 491.572 131.069 490.331 131.069C489.253 131.069 488.383 130.897 487.72 130.554V128.811C488.069 128.994 488.475 129.144 488.939 129.261C489.403 129.374 489.843 129.431 490.258 129.431C491.508 129.431 492.133 128.926 492.133 127.917C492.133 126.955 491.486 126.474 490.192 126.474C489.957 126.474 489.699 126.498 489.416 126.546C489.134 126.589 488.904 126.637 488.727 126.689L487.912 126.259L488.277 121.396H493.531V123.106H490.072L489.893 124.979L490.125 124.933C490.395 124.873 490.728 124.842 491.126 124.842Z" fill="#FBFBFB"/>
<path d="M500.416 130.939H498.369V125.416L498.388 124.509L498.422 123.517C498.081 123.852 497.845 124.072 497.713 124.176L496.599 125.057L495.612 123.843L498.733 121.396H500.416V130.939Z" fill="#FBFBFB"/>
<path d="M504.067 130.939L507.705 123.106H502.928V121.409H509.879V122.675L506.214 130.939H504.067Z" fill="#FBFBFB"/>
<path d="M573.87 130.939L573.168 128.667H569.636L568.933 130.939H566.72L570.139 121.356H572.651L576.083 130.939H573.87ZM572.677 126.97C572.028 124.912 571.661 123.748 571.577 123.478C571.498 123.208 571.44 122.995 571.405 122.838C571.259 123.395 570.842 124.772 570.153 126.97H572.677Z" fill="#FBFBFB"/>
<path d="M580.158 124.842C581.095 124.842 581.839 125.101 582.392 125.619C582.948 126.137 583.227 126.846 583.227 127.747C583.227 128.813 582.893 129.633 582.226 130.208C581.559 130.782 580.605 131.069 579.363 131.069C578.285 131.069 577.415 130.897 576.753 130.554V128.811C577.101 128.994 577.508 129.144 577.972 129.261C578.436 129.374 578.875 129.431 579.29 129.431C580.541 129.431 581.166 128.926 581.166 127.917C581.166 126.955 580.519 126.474 579.224 126.474C578.99 126.474 578.732 126.498 578.449 126.546C578.166 126.589 577.936 126.637 577.76 126.689L576.945 126.259L577.309 121.396H582.564V123.106H579.105L578.926 124.979L579.158 124.933C579.427 124.873 579.761 124.842 580.158 124.842Z" fill="#FBFBFB"/>
<path d="M589.449 130.939H587.401V125.416L587.421 124.509L587.454 123.517C587.114 123.852 586.878 124.072 586.745 124.176L585.632 125.057L584.645 123.843L587.766 121.396H589.449V130.939Z" fill="#FBFBFB"/>
<path d="M595.479 121.271C596.406 121.271 597.153 121.48 597.718 121.898C598.288 122.312 598.573 122.871 598.573 123.576C598.573 124.063 598.436 124.498 598.162 124.881C597.889 125.26 597.447 125.599 596.837 125.9C597.562 126.282 598.081 126.683 598.394 127.101C598.712 127.514 598.871 127.969 598.871 128.465C598.871 129.248 598.56 129.879 597.937 130.358C597.314 130.832 596.495 131.069 595.479 131.069C594.419 131.069 593.586 130.847 592.981 130.404C592.375 129.96 592.073 129.331 592.073 128.517C592.073 127.973 592.219 127.49 592.51 127.068C592.806 126.646 593.279 126.274 593.928 125.952C593.376 125.608 592.978 125.24 592.735 124.849C592.492 124.457 592.371 124.028 592.371 123.563C592.371 122.879 592.658 122.327 593.232 121.905C593.807 121.483 594.555 121.271 595.479 121.271ZM593.968 128.4C593.968 128.774 594.1 129.065 594.366 129.274C594.631 129.483 594.993 129.588 595.452 129.588C595.96 129.588 596.34 129.481 596.592 129.268C596.844 129.05 596.97 128.765 596.97 128.413C596.97 128.121 596.844 127.849 596.592 127.597C596.345 127.34 595.94 127.068 595.379 126.781C594.438 127.207 593.968 127.747 593.968 128.4ZM595.466 122.747C595.117 122.747 594.834 122.836 594.617 123.014C594.405 123.188 594.299 123.423 594.299 123.719C594.299 123.98 594.383 124.215 594.551 124.424C594.723 124.629 595.033 124.84 595.479 125.057C595.912 124.857 596.214 124.653 596.387 124.444C596.559 124.235 596.645 123.993 596.645 123.719C596.645 123.419 596.535 123.182 596.314 123.008C596.093 122.834 595.81 122.747 595.466 122.747Z" fill="#FBFBFB"/>
<path d="M325.539 93.4249L325.27 95.8332L327.718 95.1526L327.935 96.8017L325.704 96.9588L327.167 98.9024L325.677 99.6942L324.653 97.6459L323.754 99.6811L322.205 98.9024L323.656 96.9588L321.438 96.7886L321.693 95.1526L324.089 95.8332L323.82 93.4249H325.539Z" fill="#FBFBFB"/>
<path d="M335.542 98.8238C335.542 100.495 335.266 101.732 334.715 102.534C334.168 103.337 333.323 103.738 332.181 103.738C331.074 103.738 330.239 103.324 329.674 102.495C329.114 101.666 328.834 100.442 328.834 98.8238C328.834 97.1354 329.108 95.8921 329.655 95.0937C330.202 94.2909 331.044 93.8896 332.181 93.8896C333.288 93.8896 334.124 94.3084 334.689 95.146C335.257 95.9837 335.542 97.2096 335.542 98.8238ZM330.849 98.8238C330.849 99.9974 330.95 100.839 331.151 101.35C331.357 101.856 331.7 102.109 332.181 102.109C332.654 102.109 332.995 101.852 333.205 101.337C333.415 100.822 333.52 99.9843 333.52 98.8238C333.52 97.6502 333.413 96.8082 333.199 96.2978C332.989 95.783 332.65 95.5256 332.181 95.5256C331.704 95.5256 331.363 95.783 331.158 96.2978C330.952 96.8082 330.849 97.6502 330.849 98.8238Z" fill="#FBFBFB"/>
<path d="M340.057 97.4954C340.985 97.4954 341.722 97.755 342.269 98.2741C342.82 98.7933 343.096 99.5044 343.096 100.408C343.096 101.476 342.766 102.299 342.105 102.875C341.444 103.451 340.499 103.738 339.27 103.738C338.202 103.738 337.34 103.566 336.684 103.221V101.474C337.029 101.657 337.432 101.808 337.891 101.926C338.351 102.039 338.786 102.096 339.197 102.096C340.436 102.096 341.055 101.59 341.055 100.578C341.055 99.6135 340.414 99.1314 339.132 99.1314C338.9 99.1314 338.644 99.1554 338.364 99.2034C338.084 99.247 337.856 99.295 337.681 99.3474L336.874 98.9154L337.235 94.0401H342.44V95.7546H339.014L338.836 97.6328L339.066 97.587C339.333 97.5259 339.663 97.4954 340.057 97.4954Z" fill="#FBFBFB"/>
<path d="M359.646 93.4249L359.372 95.8332L361.862 95.1526L362.083 96.8017L359.813 96.9588L361.302 98.9024L359.786 99.6942L358.744 97.6459L357.83 99.6811L356.254 98.9024L357.729 96.9588L355.473 96.7886L355.733 95.1526L358.17 95.8332L357.896 93.4249H359.646Z" fill="#FBFBFB"/>
<path d="M369.821 98.8238C369.821 100.495 369.541 101.732 368.98 102.534C368.424 103.337 367.565 103.738 366.403 103.738C365.277 103.738 364.426 103.324 363.852 102.495C363.282 101.666 362.998 100.442 362.998 98.8238C362.998 97.1354 363.276 95.8921 363.832 95.0937C364.389 94.2909 365.245 93.8896 366.403 93.8896C367.529 93.8896 368.379 94.3084 368.953 95.146C369.532 95.9837 369.821 97.2096 369.821 98.8238ZM365.047 98.8238C365.047 99.9974 365.15 100.839 365.355 101.35C365.564 101.856 365.913 102.109 366.403 102.109C366.884 102.109 367.231 101.852 367.444 101.337C367.658 100.822 367.765 99.9843 367.765 98.8238C367.765 97.6502 367.656 96.8082 367.438 96.2978C367.224 95.783 366.879 95.5256 366.403 95.5256C365.918 95.5256 365.57 95.783 365.361 96.2978C365.152 96.8082 365.047 97.6502 365.047 98.8238Z" fill="#FBFBFB"/>
<path d="M377.647 98.1236C377.647 100.008 377.242 101.415 376.432 102.345C375.621 103.274 374.395 103.738 372.753 103.738C372.174 103.738 371.735 103.708 371.437 103.647V102.024C371.811 102.116 372.203 102.161 372.612 102.161C373.302 102.161 373.87 102.063 374.315 101.867C374.76 101.666 375.101 101.354 375.337 100.931C375.572 100.503 375.708 99.9167 375.744 99.1707H375.664C375.406 99.5808 375.107 99.8687 374.769 100.034C374.431 100.2 374.008 100.283 373.5 100.283C372.65 100.283 371.98 100.017 371.491 99.4848C371.001 98.9482 370.756 98.2043 370.756 97.2532C370.756 96.228 371.052 95.4187 371.644 94.8254C372.241 94.2277 373.051 93.9288 374.075 93.9288C374.796 93.9288 375.426 94.0946 375.964 94.4262C376.507 94.7577 376.923 95.2398 377.213 95.8724C377.502 96.5007 377.647 97.2511 377.647 98.1236ZM374.115 95.5518C373.687 95.5518 373.353 95.6957 373.113 95.9837C372.873 96.2716 372.753 96.6861 372.753 97.2271C372.753 97.6895 372.862 98.056 373.08 98.3265C373.298 98.597 373.629 98.7322 374.075 98.7322C374.493 98.7322 374.851 98.5991 375.15 98.333C375.448 98.0625 375.597 97.7528 375.597 97.4038C375.597 96.8846 375.457 96.4461 375.176 96.0884C374.9 95.7306 374.546 95.5518 374.115 95.5518Z" fill="#FBFBFB"/>
<path d="M418.959 93.4249L418.684 95.8332L421.181 95.1526L421.402 96.8017L419.126 96.9588L420.618 98.9024L419.099 99.6942L418.055 97.6459L417.138 99.6811L415.558 98.9024L417.038 96.9588L414.775 96.7886L415.036 95.1526L417.479 95.8332L417.205 93.4249H418.959Z" fill="#FBFBFB"/>
<path d="M427.486 103.608H425.417V98.0713L425.437 97.1616L425.471 96.1669C425.127 96.5028 424.889 96.7232 424.755 96.8279L423.63 97.7113L422.633 96.4941L425.785 94.0401H427.486V103.608Z" fill="#FBFBFB"/>
<path d="M436.662 96.18C436.662 96.7777 436.477 97.286 436.106 97.7048C435.736 98.1236 435.216 98.4115 434.547 98.5686V98.6079C435.336 98.7038 435.934 98.9394 436.34 99.3146C436.746 99.6855 436.949 100.187 436.949 100.82C436.949 101.74 436.608 102.458 435.925 102.973C435.243 103.483 434.268 103.738 433.001 103.738C431.939 103.738 430.997 103.566 430.176 103.221V101.5C430.555 101.688 430.973 101.841 431.428 101.958C431.883 102.076 432.334 102.135 432.78 102.135C433.462 102.135 433.967 102.022 434.292 101.795C434.618 101.568 434.781 101.204 434.781 100.702C434.781 100.253 434.594 99.9341 434.219 99.7465C433.844 99.5589 433.246 99.4651 432.425 99.4651H431.682V97.9142H432.438C433.197 97.9142 433.75 97.8182 434.098 97.6263C434.451 97.4299 434.627 97.0962 434.627 96.625C434.627 95.9008 434.163 95.5387 433.235 95.5387C432.914 95.5387 432.586 95.591 432.251 95.6957C431.921 95.8004 431.553 95.9815 431.147 96.2389L430.189 94.845C431.082 94.2168 432.146 93.9026 433.382 93.9026C434.395 93.9026 435.194 94.1033 435.778 94.5047C436.367 94.9061 436.662 95.4645 436.662 96.18Z" fill="#FBFBFB"/>
<path d="M325.506 125.913L325.239 128.321L327.667 127.64L327.882 129.289L325.669 129.446L327.121 131.39L325.643 132.182L324.627 130.134L323.735 132.169L322.199 131.39L323.638 129.446L321.438 129.276L321.691 127.64L324.067 128.321L323.801 125.913H325.506Z" fill="#FBFBFB"/>
<path d="M335.427 131.311C335.427 132.982 335.154 134.219 334.607 135.022C334.065 135.825 333.227 136.226 332.094 136.226C330.996 136.226 330.167 135.812 329.607 134.983C329.052 134.154 328.774 132.93 328.774 131.311C328.774 129.623 329.045 128.38 329.588 127.581C330.13 126.779 330.966 126.377 332.094 126.377C333.192 126.377 334.021 126.796 334.581 127.634C335.145 128.471 335.427 129.697 335.427 131.311ZM330.773 131.311C330.773 132.485 330.873 133.327 331.072 133.838C331.276 134.344 331.617 134.597 332.094 134.597C332.563 134.597 332.901 134.339 333.11 133.824C333.318 133.31 333.422 132.472 333.422 131.311C333.422 130.138 333.316 129.296 333.103 128.785C332.895 128.271 332.559 128.013 332.094 128.013C331.621 128.013 331.283 128.271 331.079 128.785C330.875 129.296 330.773 130.138 330.773 131.311Z" fill="#FBFBFB"/>
<path d="M336.378 132.031C336.378 130.138 336.775 128.729 337.569 127.804C338.368 126.879 339.561 126.416 341.149 126.416C341.692 126.416 342.117 126.449 342.425 126.515V128.131C342.039 128.044 341.657 128 341.28 128C340.59 128 340.025 128.105 339.587 128.314C339.153 128.524 338.828 128.833 338.611 129.244C338.394 129.654 338.266 130.236 338.227 130.991H338.311C338.741 130.249 339.429 129.878 340.375 129.878C341.225 129.878 341.892 130.147 342.373 130.683C342.855 131.22 343.096 131.962 343.096 132.908C343.096 133.929 342.809 134.738 342.237 135.336C341.664 135.929 340.87 136.226 339.854 136.226C339.151 136.226 338.537 136.063 338.012 135.735C337.491 135.408 337.087 134.93 336.801 134.302C336.519 133.674 336.378 132.917 336.378 132.031ZM339.815 134.61C340.245 134.61 340.574 134.466 340.804 134.178C341.034 133.886 341.149 133.471 341.149 132.934C341.149 132.468 341.041 132.101 340.824 131.835C340.611 131.565 340.288 131.429 339.854 131.429C339.446 131.429 339.097 131.562 338.806 131.828C338.519 132.095 338.376 132.404 338.376 132.758C338.376 133.277 338.511 133.715 338.78 134.073C339.053 134.431 339.398 134.61 339.815 134.61Z" fill="#FBFBFB"/>
<path d="M359.648 125.913L359.374 128.321L361.866 127.64L362.087 129.289L359.815 129.446L361.305 131.39L359.789 132.182L358.746 130.134L357.831 132.169L356.254 131.39L357.731 129.446L355.473 129.276L355.733 127.64L358.172 128.321L357.898 125.913H359.648Z" fill="#FBFBFB"/>
<path d="M368.16 136.095H366.095V130.559L366.115 129.649L366.149 128.655C365.806 128.991 365.568 129.211 365.434 129.316L364.312 130.199L363.316 128.982L366.463 126.528H368.16V136.095Z" fill="#FBFBFB"/>
<path d="M377.647 131.311C377.647 132.982 377.366 134.219 376.805 135.022C376.248 135.825 375.389 136.226 374.226 136.226C373.099 136.226 372.249 135.812 371.674 134.983C371.104 134.154 370.819 132.93 370.819 131.311C370.819 129.623 371.097 128.38 371.654 127.581C372.211 126.779 373.068 126.377 374.226 126.377C375.353 126.377 376.204 126.796 376.778 127.634C377.357 128.471 377.647 129.697 377.647 131.311ZM372.87 131.311C372.87 132.485 372.972 133.327 373.177 133.838C373.387 134.344 373.736 134.597 374.226 134.597C374.707 134.597 375.055 134.339 375.268 133.824C375.482 133.31 375.589 132.472 375.589 131.311C375.589 130.138 375.48 129.296 375.262 128.785C375.048 128.271 374.703 128.013 374.226 128.013C373.741 128.013 373.393 128.271 373.184 128.785C372.975 129.296 372.87 130.138 372.87 131.311Z" fill="#FBFBFB"/>
<path d="M418.996 125.913L418.719 128.352L421.238 127.662L421.461 129.333L419.165 129.492L420.671 131.46L419.138 132.262L418.084 130.188L417.159 132.249L415.565 131.46L417.058 129.492L414.775 129.32L415.039 127.662L417.504 128.352L417.227 125.913H418.996Z" fill="#FBFBFB"/>
<path d="M427.599 136.226H425.513V130.619L425.533 129.697L425.567 128.69C425.22 129.03 424.979 129.253 424.844 129.359L423.709 130.254L422.703 129.021L425.884 126.536H427.599V136.226Z" fill="#FBFBFB"/>
<path d="M437.465 134.218H436.277V136.226H434.237V134.218H430.023V132.793L434.352 126.536H436.277V132.627H437.465V134.218ZM434.237 132.627V130.983C434.237 130.709 434.249 130.312 434.271 129.79C434.294 129.269 434.312 128.966 434.325 128.882H434.271C434.104 129.244 433.904 129.598 433.67 129.943L431.86 132.627H434.237Z" fill="#FBFBFB"/>
<path d="M325.506 158.4L325.239 160.808L327.667 160.128L327.882 161.777L325.669 161.934L327.121 163.878L325.643 164.669L324.627 162.621L323.735 164.656L322.199 163.878L323.638 161.934L321.438 161.764L321.691 160.128L324.067 160.808L323.801 158.4H325.506Z" fill="#FBFBFB"/>
<path d="M335.427 163.799C335.427 165.47 335.154 166.707 334.607 167.51C334.065 168.312 333.227 168.714 332.094 168.714C330.996 168.714 330.167 168.299 329.607 167.47C329.052 166.641 328.774 165.418 328.774 163.799C328.774 162.111 329.045 160.867 329.588 160.069C330.13 159.266 330.966 158.865 332.094 158.865C333.192 158.865 334.021 159.284 334.581 160.121C335.145 160.959 335.427 162.185 335.427 163.799ZM330.773 163.799C330.773 164.973 330.873 165.815 331.072 166.325C331.276 166.831 331.617 167.084 332.094 167.084C332.563 167.084 332.901 166.827 333.11 166.312C333.318 165.797 333.422 164.96 333.422 163.799C333.422 162.625 333.316 161.783 333.103 161.273C332.895 160.758 332.559 160.501 332.094 160.501C331.621 160.501 331.283 160.758 331.079 161.273C330.875 161.783 330.773 162.625 330.773 163.799Z" fill="#FBFBFB"/>
<path d="M337.387 168.583L340.961 160.73H336.267V159.028H343.096V160.298L339.496 168.583H337.387Z" fill="#FBFBFB"/>
<path d="M359.673 158.4L359.398 160.839L361.905 160.15L362.127 161.82L359.841 161.979L361.34 163.948L359.814 164.75L358.766 162.675L357.845 164.737L356.259 163.948L357.744 161.979L355.473 161.807L355.735 160.15L358.188 160.839L357.912 158.4H359.673Z" fill="#FBFBFB"/>
<path d="M368.236 168.714H366.159V163.106L366.179 162.185L366.213 161.177C365.868 161.518 365.628 161.741 365.494 161.847L364.365 162.742L363.363 161.509L366.529 159.023H368.236V168.714Z" fill="#FBFBFB"/>
<path d="M376.1 168.714H374.023V163.106L374.043 162.185L374.077 161.177C373.732 161.518 373.492 161.741 373.358 161.847L372.228 162.742L371.227 161.509L374.393 159.023H376.1V168.714Z" fill="#FBFBFB"/>
<path d="M418.975 158.4L418.7 160.808L421.206 160.128L421.428 161.777L419.143 161.934L420.641 163.878L419.116 164.669L418.068 162.621L417.147 164.656L415.562 163.878L417.047 161.934L414.775 161.764L415.037 160.128L417.49 160.808L417.215 158.4H418.975Z" fill="#FBFBFB"/>
<path d="M427.536 168.583H425.459V163.046L425.479 162.137L425.513 161.142C425.168 161.478 424.928 161.698 424.794 161.803L423.665 162.687L422.664 161.469L425.829 159.015H427.536V168.583Z" fill="#FBFBFB"/>
<path d="M433.838 162.471C434.788 162.471 435.543 162.73 436.103 163.249C436.667 163.769 436.949 164.48 436.949 165.383C436.949 166.452 436.611 167.274 435.935 167.85C435.258 168.426 434.291 168.714 433.032 168.714C431.939 168.714 431.057 168.541 430.385 168.197V166.449C430.738 166.633 431.151 166.783 431.621 166.901C432.091 167.014 432.537 167.071 432.958 167.071C434.226 167.071 434.86 166.565 434.86 165.553C434.86 164.589 434.203 164.107 432.891 164.107C432.654 164.107 432.391 164.131 432.105 164.179C431.818 164.222 431.585 164.27 431.406 164.323L430.579 163.891L430.949 159.015H436.278V160.73H432.77L432.589 162.608L432.824 162.562C433.097 162.501 433.435 162.471 433.838 162.471Z" fill="#FBFBFB"/>
<path d="M325.514 190.888L325.246 193.296L327.679 192.615L327.894 194.265L325.677 194.422L327.131 196.365L325.65 197.157L324.633 195.109L323.74 197.144L322.201 196.365L323.642 194.422L321.438 194.251L321.692 192.615L324.072 193.296L323.805 190.888H325.514Z" fill="#FBFBFB"/>
<path d="M335.453 196.287C335.453 197.958 335.179 199.194 334.631 199.997C334.087 200.8 333.248 201.201 332.113 201.201C331.013 201.201 330.183 200.787 329.622 199.958C329.066 199.129 328.787 197.905 328.787 196.287C328.787 194.598 329.059 193.355 329.603 192.557C330.146 191.754 330.983 191.352 332.113 191.352C333.213 191.352 334.044 191.771 334.605 192.609C335.17 193.447 335.453 194.672 335.453 196.287ZM330.79 196.287C330.79 197.46 330.89 198.302 331.09 198.813C331.294 199.319 331.635 199.572 332.113 199.572C332.583 199.572 332.922 199.314 333.131 198.8C333.34 198.285 333.444 197.447 333.444 196.287C333.444 195.113 333.337 194.271 333.124 193.761C332.916 193.246 332.579 192.988 332.113 192.988C331.64 192.988 331.3 193.246 331.096 193.761C330.892 194.271 330.79 195.113 330.79 196.287Z" fill="#FBFBFB"/>
<path d="M339.757 191.379C340.67 191.379 341.405 191.588 341.961 192.007C342.522 192.421 342.802 192.982 342.802 193.689C342.802 194.177 342.668 194.614 342.398 194.998C342.129 195.377 341.694 195.717 341.094 196.018C341.807 196.402 342.318 196.804 342.626 197.223C342.939 197.637 343.096 198.093 343.096 198.59C343.096 199.376 342.789 200.008 342.176 200.488C341.563 200.964 340.757 201.201 339.757 201.201C338.713 201.201 337.894 200.979 337.298 200.534C336.703 200.089 336.405 199.458 336.405 198.643C336.405 198.097 336.548 197.613 336.835 197.19C337.126 196.767 337.592 196.394 338.231 196.071C337.687 195.726 337.296 195.357 337.057 194.965C336.818 194.572 336.698 194.142 336.698 193.676C336.698 192.991 336.981 192.437 337.546 192.013C338.111 191.59 338.848 191.379 339.757 191.379ZM338.27 198.525C338.27 198.9 338.4 199.192 338.661 199.402C338.922 199.611 339.279 199.716 339.731 199.716C340.231 199.716 340.605 199.609 340.852 199.395C341.1 199.177 341.224 198.891 341.224 198.538C341.224 198.246 341.1 197.973 340.852 197.72C340.609 197.462 340.211 197.19 339.659 196.902C338.733 197.329 338.27 197.87 338.27 198.525ZM339.744 192.858C339.4 192.858 339.122 192.947 338.909 193.126C338.7 193.3 338.596 193.536 338.596 193.833C338.596 194.094 338.679 194.33 338.844 194.539C339.013 194.744 339.318 194.956 339.757 195.174C340.183 194.974 340.481 194.768 340.65 194.559C340.82 194.35 340.905 194.108 340.905 193.833C340.905 193.532 340.796 193.294 340.579 193.119C340.361 192.945 340.083 192.858 339.744 192.858Z" fill="#FBFBFB"/>
<path d="M359.638 190.888L359.365 193.327L361.851 192.638L362.071 194.308L359.805 194.467L361.291 196.436L359.778 197.238L358.738 195.163L357.825 197.224L356.252 196.436L357.725 194.467L355.473 194.295L355.733 192.638L358.165 193.327L357.892 190.888H359.638Z" fill="#FBFBFB"/>
<path d="M368.129 201.201H366.07V195.594L366.09 194.673L366.123 193.665C365.781 194.005 365.543 194.228 365.41 194.334L364.29 195.229L363.297 193.996L366.436 191.511H368.129V201.201Z" fill="#FBFBFB"/>
<path d="M377.647 201.201H370.835V199.776L373.281 197.317C374.005 196.579 374.479 196.069 374.701 195.786C374.923 195.499 375.083 195.234 375.181 194.991C375.278 194.748 375.327 194.496 375.327 194.235C375.327 193.846 375.219 193.557 375.001 193.367C374.788 193.177 374.501 193.082 374.141 193.082C373.763 193.082 373.397 193.168 373.041 193.34C372.686 193.513 372.315 193.758 371.928 194.076L370.809 192.757C371.288 192.35 371.686 192.063 372.002 191.895C372.317 191.727 372.661 191.599 373.035 191.511C373.408 191.418 373.826 191.372 374.288 191.372C374.896 191.372 375.434 191.482 375.901 191.703C376.367 191.924 376.729 192.233 376.987 192.631C377.245 193.029 377.373 193.484 377.373 193.996C377.373 194.443 377.294 194.863 377.134 195.256C376.978 195.645 376.734 196.045 376.4 196.456C376.072 196.866 375.49 197.452 374.654 198.212L373.401 199.385V199.478H377.647V201.201Z" fill="#FBFBFB"/>
<path d="M418.941 190.888L418.668 193.296L421.154 192.615L421.374 194.265L419.108 194.422L420.594 196.365L419.081 197.157L418.041 195.109L417.128 197.144L415.555 196.365L417.028 194.422L414.775 194.251L415.035 192.615L417.468 193.296L417.195 190.888H418.941Z" fill="#FBFBFB"/>
<path d="M427.432 201.07H425.373V195.534L425.393 194.625L425.426 193.63C425.084 193.966 424.846 194.186 424.713 194.291L423.593 195.174L422.6 193.957L425.739 191.503H427.432V201.07Z" fill="#FBFBFB"/>
<path d="M430.071 197.007C430.071 195.113 430.478 193.704 431.291 192.779C432.109 191.854 433.33 191.392 434.957 191.392C435.512 191.392 435.948 191.424 436.263 191.49V193.106C435.868 193.019 435.477 192.975 435.09 192.975C434.384 192.975 433.806 193.08 433.357 193.29C432.913 193.499 432.58 193.809 432.357 194.219C432.135 194.629 432.004 195.211 431.964 195.966H432.051C432.491 195.224 433.195 194.854 434.164 194.854C435.034 194.854 435.716 195.122 436.21 195.658C436.703 196.195 436.949 196.937 436.949 197.883C436.949 198.904 436.656 199.714 436.07 200.311C435.483 200.905 434.67 201.201 433.63 201.201C432.911 201.201 432.282 201.038 431.744 200.711C431.211 200.383 430.798 199.906 430.505 199.277C430.216 198.649 430.071 197.892 430.071 197.007ZM433.59 199.585C434.03 199.585 434.368 199.441 434.603 199.153C434.839 198.861 434.957 198.446 434.957 197.91C434.957 197.443 434.846 197.076 434.623 196.81C434.406 196.54 434.075 196.405 433.63 196.405C433.213 196.405 432.855 196.538 432.557 196.804C432.264 197.07 432.117 197.38 432.117 197.733C432.117 198.252 432.255 198.691 432.531 199.048C432.811 199.406 433.164 199.585 433.59 199.585Z" fill="#FBFBFB"/>
<path d="M371.375 276.875L370.674 274.607H367.148L366.447 276.875H364.238L367.651 267.306H370.158L373.584 276.875H371.375ZM370.184 272.912C369.536 270.856 369.17 269.694 369.086 269.424C369.007 269.155 368.95 268.942 368.914 268.785C368.769 269.342 368.352 270.717 367.664 272.912H370.184Z" fill="#FBFBFB"/>
<path d="M377.652 270.787C378.586 270.787 379.329 271.045 379.881 271.562C380.436 272.08 380.714 272.788 380.714 273.688C380.714 274.752 380.381 275.572 379.715 276.145C379.049 276.719 378.097 277.006 376.858 277.006C375.782 277.006 374.913 276.834 374.252 276.491V274.75C374.6 274.933 375.006 275.083 375.469 275.2C375.932 275.313 376.371 275.37 376.785 275.37C378.033 275.37 378.657 274.865 378.657 273.857C378.657 272.897 378.011 272.416 376.719 272.416C376.485 272.416 376.227 272.44 375.945 272.488C375.663 272.532 375.434 272.579 375.257 272.632L374.444 272.201L374.808 267.345H380.053V269.053H376.6L376.421 270.924L376.653 270.878C376.922 270.817 377.255 270.787 377.652 270.787Z" fill="#FBFBFB"/>
<path d="M388.631 276.875H381.872V275.474L384.299 273.055C385.018 272.33 385.487 271.828 385.708 271.549C385.928 271.267 386.087 271.006 386.184 270.767C386.281 270.528 386.329 270.28 386.329 270.024C386.329 269.642 386.221 269.357 386.005 269.17C385.794 268.983 385.509 268.89 385.152 268.89C384.777 268.89 384.414 268.974 384.061 269.144C383.708 269.313 383.34 269.555 382.956 269.868L381.845 268.57C382.321 268.171 382.716 267.888 383.029 267.723C383.342 267.558 383.684 267.432 384.054 267.345C384.425 267.254 384.839 267.208 385.298 267.208C385.902 267.208 386.435 267.317 386.898 267.534C387.361 267.751 387.721 268.055 387.976 268.446C388.232 268.838 388.36 269.285 388.36 269.789C388.36 270.228 388.281 270.641 388.122 271.028C387.968 271.41 387.725 271.804 387.394 272.208C387.068 272.612 386.49 273.188 385.661 273.935L384.418 275.089V275.18H388.631V276.875Z" fill="#FBFBFB"/>
<path d="M394.663 276.875H392.619V271.36L392.639 270.454L392.672 269.463C392.333 269.798 392.097 270.018 391.965 270.122L390.853 271.002L389.868 269.789L392.983 267.345H394.663V276.875Z" fill="#FBFBFB"/>
<path d="M482.337 276.876L481.627 274.61H478.057L477.347 276.876H475.109L478.566 267.319H481.105L484.574 276.876H482.337ZM481.131 272.917C480.475 270.864 480.104 269.703 480.019 269.434C479.939 269.165 479.881 268.953 479.845 268.796C479.698 269.352 479.276 270.726 478.579 272.917H481.131Z" fill="#FBFBFB"/>
<path d="M488.694 270.795C489.641 270.795 490.393 271.053 490.951 271.57C491.514 272.086 491.795 272.794 491.795 273.692C491.795 274.755 491.458 275.573 490.784 276.146C490.11 276.719 489.145 277.006 487.89 277.006C486.8 277.006 485.921 276.834 485.251 276.491V274.753C485.604 274.935 486.014 275.085 486.483 275.202C486.952 275.315 487.397 275.372 487.816 275.372C489.08 275.372 489.712 274.868 489.712 273.861C489.712 272.902 489.058 272.423 487.749 272.423C487.513 272.423 487.251 272.446 486.966 272.494C486.68 272.538 486.448 272.585 486.269 272.637L485.445 272.208L485.814 267.358H491.125V269.063H487.629L487.448 270.932L487.682 270.886C487.955 270.825 488.292 270.795 488.694 270.795Z" fill="#FBFBFB"/>
<path d="M499.813 276.876H492.968V275.476L495.426 273.061C496.154 272.336 496.629 271.834 496.853 271.557C497.076 271.275 497.237 271.014 497.335 270.775C497.433 270.537 497.482 270.289 497.482 270.033C497.482 269.651 497.373 269.367 497.154 269.18C496.94 268.994 496.652 268.901 496.29 268.901C495.91 268.901 495.542 268.985 495.185 269.154C494.827 269.324 494.455 269.565 494.066 269.877L492.941 268.582C493.423 268.182 493.823 267.9 494.14 267.735C494.457 267.57 494.803 267.444 495.178 267.358C495.553 267.266 495.973 267.221 496.437 267.221C497.049 267.221 497.589 267.329 498.058 267.546C498.527 267.763 498.891 268.067 499.15 268.458C499.409 268.848 499.539 269.295 499.539 269.799C499.539 270.237 499.458 270.65 499.298 271.036C499.141 271.418 498.896 271.811 498.561 272.214C498.23 272.618 497.645 273.193 496.806 273.939L495.546 275.092V275.183H499.813V276.876Z" fill="#FBFBFB"/>
<path d="M507.597 272.117C507.597 273.779 507.316 275.009 506.753 275.808C506.195 276.606 505.333 277.006 504.167 277.006C503.038 277.006 502.185 276.593 501.609 275.769C501.037 274.944 500.751 273.727 500.751 272.117C500.751 270.437 501.03 269.2 501.588 268.406C502.147 267.607 503.006 267.208 504.167 267.208C505.297 267.208 506.15 267.625 506.726 268.458C507.307 269.291 507.597 270.511 507.597 272.117ZM502.808 272.117C502.808 273.284 502.91 274.122 503.116 274.63C503.326 275.133 503.676 275.385 504.167 275.385C504.65 275.385 504.998 275.129 505.212 274.616C505.427 274.104 505.534 273.271 505.534 272.117C505.534 270.949 505.424 270.111 505.206 269.604C504.991 269.092 504.645 268.835 504.167 268.835C503.681 268.835 503.332 269.092 503.122 269.604C502.913 270.111 502.808 270.949 502.808 272.117Z" fill="#FBFBFB"/>
<path d="M576.589 276.875L575.89 274.6H572.378L571.679 276.875H569.479L572.879 267.28H575.376L578.789 276.875H576.589ZM575.402 272.901C574.757 270.84 574.392 269.674 574.309 269.404C574.229 269.134 574.172 268.92 574.137 268.764C573.992 269.321 573.577 270.7 572.892 272.901H575.402Z" fill="#FBFBFB"/>
<path d="M582.842 270.77C583.773 270.77 584.513 271.029 585.063 271.548C585.616 272.067 585.893 272.777 585.893 273.679C585.893 274.746 585.561 275.568 584.898 276.143C584.234 276.718 583.286 277.006 582.051 277.006C580.979 277.006 580.114 276.834 579.455 276.489V274.744C579.802 274.927 580.206 275.078 580.667 275.195C581.129 275.308 581.566 275.365 581.979 275.365C583.222 275.365 583.843 274.86 583.843 273.849C583.843 272.886 583.2 272.404 581.913 272.404C581.68 272.404 581.423 272.428 581.142 272.476C580.861 272.52 580.632 272.568 580.457 272.62L579.646 272.189L580.008 267.319H585.234V269.032H581.794L581.616 270.907L581.847 270.862C582.115 270.801 582.447 270.77 582.842 270.77Z" fill="#FBFBFB"/>
<path d="M592.08 276.875H590.044V271.345L590.064 270.437L590.097 269.443C589.759 269.779 589.524 269.999 589.392 270.103L588.285 270.986L587.303 269.77L590.407 267.319H592.08V276.875Z" fill="#FBFBFB"/>
<path d="M601.45 271.398C601.45 273.28 601.051 274.685 600.251 275.614C599.452 276.542 598.241 277.006 596.62 277.006C596.049 277.006 595.617 276.975 595.322 276.914V275.293C595.691 275.385 596.078 275.431 596.482 275.431C597.163 275.431 597.723 275.332 598.162 275.136C598.602 274.936 598.938 274.624 599.171 274.202C599.403 273.775 599.537 273.189 599.572 272.443H599.493C599.239 272.853 598.944 273.141 598.61 273.306C598.277 273.472 597.859 273.555 597.358 273.555C596.519 273.555 595.858 273.289 595.375 272.757C594.892 272.221 594.65 271.478 594.65 270.528C594.65 269.504 594.942 268.696 595.527 268.103C596.115 267.506 596.915 267.208 597.925 267.208C598.637 267.208 599.258 267.373 599.79 267.705C600.326 268.036 600.737 268.517 601.022 269.149C601.308 269.777 601.45 270.526 601.45 271.398ZM597.965 268.829C597.543 268.829 597.213 268.973 596.976 269.26C596.739 269.548 596.62 269.962 596.62 270.502C596.62 270.964 596.728 271.33 596.943 271.6C597.159 271.87 597.486 272.006 597.925 272.006C598.338 272.006 598.692 271.873 598.986 271.607C599.28 271.337 599.428 271.027 599.428 270.679C599.428 270.16 599.289 269.722 599.012 269.365C598.74 269.008 598.391 268.829 597.965 268.829Z" fill="#FBFBFB"/>
<path d="M62.4489 236.137L61.7513 233.872H58.2434L57.5458 236.137H55.3477L58.7436 226.58H61.2379L64.647 236.137H62.4489ZM61.2642 232.179C60.6193 230.126 60.2551 228.965 60.1717 228.696C60.0928 228.427 60.0357 228.214 60.0006 228.058C59.8558 228.614 59.4412 229.987 58.7568 232.179H61.2642Z" fill="#FBFBFB"/>
<path d="M68.6945 230.057C69.6247 230.057 70.364 230.315 70.9124 230.831C71.4653 231.348 71.7417 232.055 71.7417 232.954C71.7417 234.017 71.4104 234.835 70.7479 235.408C70.0854 235.981 69.1377 236.267 67.9048 236.267C66.8342 236.267 65.9699 236.096 65.3117 235.753V234.015C65.6584 234.197 66.062 234.347 66.5227 234.464C66.9834 234.577 67.42 234.633 67.8324 234.633C69.0741 234.633 69.6949 234.13 69.6949 233.123C69.6949 232.164 69.0521 231.684 67.7666 231.684C67.534 231.684 67.2774 231.708 66.9966 231.756C66.7158 231.799 66.4876 231.847 66.3121 231.899L65.5026 231.469L65.8646 226.619H71.0835V228.325H67.6481L67.4704 230.193L67.7008 230.148C67.9684 230.087 68.2997 230.057 68.6945 230.057Z" fill="#FBFBFB"/>
<path d="M79.5668 231.378C79.5668 233.04 79.2904 234.271 78.7376 235.069C78.1891 235.868 77.3424 236.267 76.1972 236.267C75.0872 236.267 74.2491 235.855 73.6832 235.03C73.1215 234.206 72.8407 232.988 72.8407 231.378C72.8407 229.699 73.115 228.462 73.6634 227.667C74.2119 226.869 75.0565 226.469 76.1972 226.469C77.3073 226.469 78.1453 226.886 78.7113 227.719C79.2816 228.553 79.5668 229.772 79.5668 231.378ZM74.8612 231.378C74.8612 232.546 74.9621 233.383 75.1639 233.891C75.3702 234.395 75.7146 234.646 76.1972 234.646C76.6711 234.646 77.0133 234.39 77.2239 233.878C77.4345 233.366 77.5398 232.533 77.5398 231.378C77.5398 230.211 77.4323 229.373 77.2173 228.865C77.0067 228.353 76.6667 228.097 76.1972 228.097C75.719 228.097 75.3767 228.353 75.1705 228.865C74.9643 229.373 74.8612 230.211 74.8612 231.378Z" fill="#FBFBFB"/>
<path d="M87.3196 236.137H80.5935V234.737L83.0089 232.322C83.724 231.597 84.1913 231.096 84.4107 230.818C84.63 230.536 84.788 230.276 84.8845 230.037C84.981 229.798 85.0293 229.551 85.0293 229.295C85.0293 228.913 84.9218 228.629 84.7068 228.442C84.4962 228.255 84.2132 228.162 83.8578 228.162C83.4849 228.162 83.1229 228.247 82.7719 228.416C82.4209 228.585 82.0546 228.826 81.6728 229.139L80.5672 227.843C81.041 227.444 81.4337 227.162 81.7452 226.997C82.0568 226.832 82.3968 226.706 82.7653 226.619C83.1339 226.528 83.5463 226.483 84.0026 226.483C84.6037 226.483 85.1346 226.591 85.5953 226.808C86.056 227.025 86.4136 227.329 86.6681 227.719C86.9225 228.11 87.0498 228.557 87.0498 229.061C87.0498 229.499 86.9708 229.911 86.8128 230.297C86.6593 230.679 86.418 231.072 86.0889 231.476C85.7642 231.879 85.1895 232.455 84.3646 233.201L83.1273 234.353V234.444H87.3196V236.137Z" fill="#FBFBFB"/>
<path d="M62.4843 304.722L61.7832 302.457H58.2579L57.5568 304.722H55.3477L58.7605 295.165H61.2673L64.6934 304.722H62.4843ZM61.2937 300.764C60.6456 298.711 60.2796 297.55 60.1958 297.281C60.1164 297.012 60.0591 296.799 60.0238 296.643C59.8783 297.198 59.4616 298.572 58.7738 300.764H61.2937Z" fill="#FBFBFB"/>
<path d="M68.7611 298.642C69.6959 298.642 70.4389 298.9 70.99 299.416C71.5456 299.933 71.8234 300.64 71.8234 301.539C71.8234 302.602 71.4905 303.42 70.8247 303.993C70.1589 304.566 69.2064 304.852 67.9674 304.852C66.8915 304.852 66.0228 304.681 65.3614 304.338V302.6C65.7098 302.782 66.1154 302.932 66.5784 303.049C67.0414 303.162 67.4801 303.218 67.8946 303.218C69.1425 303.218 69.7664 302.715 69.7664 301.708C69.7664 300.749 69.1204 300.269 67.8285 300.269C67.5948 300.269 67.3368 300.293 67.0546 300.341C66.7724 300.384 66.5431 300.432 66.3668 300.484L65.5532 300.054L65.917 295.204H71.162V296.91H67.7094L67.5309 298.778L67.7623 298.733C68.0313 298.672 68.3642 298.642 68.7611 298.642Z" fill="#FBFBFB"/>
<path d="M79.6876 299.963C79.6876 301.625 79.4098 302.856 78.8542 303.654C78.303 304.453 77.452 304.852 76.3012 304.852C75.1856 304.852 74.3434 304.44 73.7746 303.615C73.2102 302.791 72.928 301.573 72.928 299.963C72.928 298.284 73.2036 297.047 73.7547 296.252C74.3059 295.454 75.1547 295.054 76.3012 295.054C77.4167 295.054 78.2589 295.471 78.8278 296.304C79.401 297.138 79.6876 298.357 79.6876 299.963ZM74.9585 299.963C74.9585 301.131 75.0599 301.968 75.2627 302.476C75.47 302.98 75.8161 303.231 76.3012 303.231C76.7774 303.231 77.1213 302.975 77.333 302.463C77.5446 301.951 77.6504 301.118 77.6504 299.963C77.6504 298.796 77.5424 297.958 77.3264 297.45C77.1147 296.938 76.773 296.682 76.3012 296.682C75.8205 296.682 75.4766 296.938 75.2694 297.45C75.0621 297.958 74.9585 298.796 74.9585 299.963Z" fill="#FBFBFB"/>
<path d="M85.7726 304.722H83.7288V299.214L83.7487 298.31L83.7817 297.32C83.4422 297.654 83.2063 297.873 83.074 297.978L81.9628 298.856L80.9773 297.646L84.0926 295.204H85.7726V304.722Z" fill="#FBFBFB"/>
<path d="M91.9615 163.557C91.9615 170.392 86.4204 175.933 79.5852 175.933C72.75 175.933 67.209 170.392 67.209 163.557C67.209 156.722 72.75 151.181 79.5852 151.181C86.4204 151.181 91.9615 156.722 91.9615 163.557Z" fill="#E14235"/>
<path d="M83.7098 169.229H76.0048V167.659L78.7716 164.95C79.5909 164.137 80.1262 163.575 80.3775 163.263C80.6288 162.947 80.8097 162.655 80.9203 162.387C81.0309 162.119 81.0861 161.842 81.0861 161.555C81.0861 161.126 80.963 160.807 80.7167 160.598C80.4755 160.389 80.1513 160.284 79.7442 160.284C79.317 160.284 78.9023 160.379 78.5002 160.569C78.0981 160.759 77.6785 161.029 77.2412 161.379L75.9746 159.926C76.5174 159.478 76.9673 159.162 77.3241 158.977C77.681 158.792 78.0705 158.651 78.4927 158.553C78.9149 158.451 79.3873 158.4 79.91 158.4C80.5986 158.4 81.2068 158.522 81.7345 158.765C82.2622 159.009 82.6719 159.349 82.9634 159.788C83.2549 160.226 83.4007 160.727 83.4007 161.292C83.4007 161.784 83.3102 162.246 83.1292 162.679C82.9533 163.108 82.6769 163.548 82.2999 164.001C81.928 164.454 81.2696 165.099 80.3247 165.936L78.9073 167.229V167.331H83.7098V169.229Z" fill="white"/>
<path d="M219.333 188.309C219.333 195.145 213.907 200.686 207.214 200.686C200.521 200.686 195.096 195.145 195.096 188.309C195.096 181.474 200.521 175.933 207.214 175.933C213.907 175.933 219.333 181.474 219.333 188.309Z" fill="#E14235"/>
<path d="M211.081 193.982H203.889V192.412L206.472 189.703C207.237 188.89 207.736 188.327 207.971 188.016C208.205 187.699 208.374 187.407 208.477 187.14C208.58 186.872 208.632 186.594 208.632 186.307C208.632 185.879 208.517 185.56 208.287 185.351C208.062 185.141 207.76 185.037 207.38 185.037C206.981 185.037 206.594 185.131 206.219 185.321C205.843 185.511 205.452 185.781 205.043 186.132L203.861 184.679C204.368 184.231 204.788 183.914 205.121 183.729C205.454 183.544 205.817 183.403 206.212 183.306C206.606 183.204 207.047 183.153 207.534 183.153C208.177 183.153 208.745 183.274 209.237 183.518C209.73 183.761 210.112 184.102 210.384 184.54C210.656 184.978 210.792 185.48 210.792 186.044C210.792 186.536 210.708 186.998 210.539 187.432C210.375 187.86 210.117 188.301 209.765 188.753C209.418 189.206 208.803 189.851 207.921 190.688L206.599 191.981V192.083H211.081V193.982Z" fill="white"/>
<path d="M392.6 300.727C392.6 307.562 387.174 313.103 380.482 313.103C373.789 313.103 368.363 307.562 368.363 300.727C368.363 293.892 373.789 288.351 380.482 288.351C387.174 288.351 392.6 293.892 392.6 300.727Z" fill="#E14235"/>
<path d="M384.348 306.399H377.157V304.829L379.739 302.12C380.504 301.307 381.004 300.745 381.238 300.433C381.473 300.117 381.642 299.825 381.745 299.557C381.848 299.289 381.9 299.012 381.9 298.725C381.9 298.296 381.785 297.977 381.555 297.768C381.33 297.559 381.027 297.454 380.647 297.454C380.248 297.454 379.861 297.549 379.486 297.739C379.111 297.929 378.719 298.199 378.311 298.55L377.129 297.096C377.636 296.648 378.055 296.332 378.388 296.147C378.722 295.962 379.085 295.821 379.479 295.724C379.873 295.621 380.314 295.57 380.802 295.57C381.445 295.57 382.012 295.692 382.505 295.935C382.997 296.179 383.38 296.519 383.652 296.958C383.924 297.396 384.06 297.897 384.06 298.462C384.06 298.954 383.975 299.416 383.807 299.849C383.642 300.278 383.384 300.718 383.033 301.171C382.685 301.624 382.071 302.269 381.189 303.106L379.866 304.399V304.501H384.348V306.399Z" fill="white"/>
<path d="M183.752 290.413C183.752 297.249 178.211 302.79 171.376 302.79C164.541 302.79 159 297.249 159 290.413C159 283.578 164.541 278.037 171.376 278.037C178.211 278.037 183.752 283.578 183.752 290.413Z" fill="#E14235"/>
<path d="M171.81 289.115C172.78 289.115 173.551 289.405 174.122 289.984C174.699 290.564 174.987 291.358 174.987 292.366C174.987 293.56 174.642 294.478 173.951 295.121C173.26 295.764 172.272 296.086 170.987 296.086C169.871 296.086 168.969 295.893 168.283 295.509V293.558C168.645 293.762 169.065 293.93 169.546 294.062C170.026 294.188 170.481 294.252 170.911 294.252C172.206 294.252 172.853 293.687 172.853 292.556C172.853 291.48 172.183 290.942 170.843 290.942C170.6 290.942 170.333 290.968 170.04 291.022C169.747 291.071 169.509 291.124 169.326 291.183L168.482 290.7L168.86 285.257H174.301V287.171H170.719L170.534 289.268L170.774 289.217C171.053 289.149 171.398 289.115 171.81 289.115Z" fill="white"/>
<path d="M503.987 300.727C503.987 307.562 498.446 313.103 491.611 313.103C484.775 313.103 479.234 307.562 479.234 300.727C479.234 293.892 484.775 288.351 491.611 288.351C498.446 288.351 503.987 293.892 503.987 300.727Z" fill="#E14235"/>
<path d="M495.219 306.399H488.028V304.829L490.611 302.12C491.375 301.307 491.875 300.745 492.109 300.433C492.344 300.117 492.513 299.825 492.616 299.557C492.719 299.289 492.771 299.012 492.771 298.725C492.771 298.296 492.656 297.977 492.426 297.768C492.201 297.559 491.898 297.454 491.518 297.454C491.12 297.454 490.733 297.549 490.357 297.739C489.982 297.929 489.59 298.199 489.182 298.55L488 297.096C488.507 296.648 488.926 296.332 489.26 296.147C489.593 295.962 489.956 295.821 490.35 295.724C490.744 295.621 491.185 295.57 491.673 295.57C492.316 295.57 492.883 295.692 493.376 295.935C493.868 296.179 494.251 296.519 494.523 296.958C494.795 297.396 494.931 297.897 494.931 298.462C494.931 298.954 494.847 299.416 494.678 299.849C494.513 300.278 494.255 300.718 493.904 301.171C493.557 301.624 492.942 302.269 492.06 303.106L490.737 304.399V304.501H495.219V306.399Z" fill="white"/>
<path d="M597.84 300.727C597.84 307.562 592.299 313.103 585.464 313.103C578.629 313.103 573.088 307.562 573.088 300.727C573.088 293.892 578.629 288.351 585.464 288.351C592.299 288.351 597.84 293.892 597.84 300.727Z" fill="#E14235"/>
<path d="M589.589 306.399H581.884V304.829L584.651 302.12C585.47 301.307 586.005 300.745 586.256 300.433C586.508 300.117 586.689 299.825 586.799 299.557C586.91 299.289 586.965 299.012 586.965 298.725C586.965 298.296 586.842 297.977 586.596 297.768C586.354 297.559 586.03 297.454 585.623 297.454C585.196 297.454 584.781 297.549 584.379 297.739C583.977 297.929 583.557 298.199 583.12 298.55L581.854 297.096C582.396 296.648 582.846 296.332 583.203 296.147C583.56 295.962 583.949 295.821 584.372 295.724C584.794 295.621 585.266 295.57 585.789 295.57C586.478 295.57 587.086 295.692 587.613 295.935C588.141 296.179 588.551 296.519 588.842 296.958C589.134 297.396 589.28 297.897 589.28 298.462C589.28 298.954 589.189 299.416 589.008 299.849C588.832 300.278 588.556 300.718 588.179 301.171C587.807 301.624 587.148 302.269 586.204 303.106L584.786 304.399V304.501H589.589V306.399Z" fill="white"/>
<path d="M83.7095 252.769C83.7095 259.604 78.1685 265.145 71.3333 265.145C64.4981 265.145 58.957 259.604 58.957 252.769C58.957 245.934 64.4981 240.393 71.3333 240.393C78.1685 240.393 83.7095 245.934 83.7095 252.769Z" fill="#E14235"/>
<path d="M75.4578 257.926H68.2664V256.43L70.8488 253.85C71.6135 253.076 72.1131 252.541 72.3476 252.244C72.5822 251.943 72.751 251.664 72.8542 251.409C72.9574 251.154 73.009 250.89 73.009 250.617C73.009 250.209 72.8941 249.905 72.6643 249.705C72.4391 249.506 72.1365 249.406 71.7565 249.406C71.3578 249.406 70.9708 249.497 70.5955 249.678C70.2202 249.858 69.8285 250.116 69.4204 250.45L68.2383 249.066C68.7449 248.639 69.1648 248.338 69.4978 248.162C69.8309 247.985 70.1944 247.851 70.5885 247.758C70.9825 247.661 71.4235 247.612 71.9113 247.612C72.554 247.612 73.1216 247.728 73.6142 247.96C74.1067 248.192 74.4891 248.516 74.7611 248.934C75.0332 249.351 75.1693 249.828 75.1693 250.366C75.1693 250.834 75.0848 251.275 74.9159 251.688C74.7518 252.096 74.4938 252.515 74.1419 252.946C73.7948 253.377 73.1803 253.992 72.2984 254.789L70.9755 256.02V256.118H75.4578V257.926Z" fill="white"/>
<path d="M83.7095 321.096C83.7095 327.789 78.1685 333.215 71.3333 333.215C64.4981 333.215 58.957 327.789 58.957 321.096C58.957 314.403 64.4981 308.978 71.3333 308.978C78.1685 308.978 83.7095 314.403 83.7095 321.096Z" fill="#E14235"/>
<path d="M75.4578 326.511H68.2664V324.941L70.8488 322.232C71.6135 321.419 72.1131 320.856 72.3476 320.545C72.5822 320.228 72.751 319.936 72.8542 319.669C72.9574 319.401 73.009 319.123 73.009 318.836C73.009 318.408 72.8941 318.089 72.6643 317.879C72.4391 317.67 72.1365 317.565 71.7565 317.565C71.3578 317.565 70.9708 317.66 70.5955 317.85C70.2202 318.04 69.8285 318.31 69.4204 318.661L68.2383 317.208C68.7449 316.76 69.1648 316.443 69.4978 316.258C69.8309 316.073 70.1944 315.932 70.5885 315.835C70.9825 315.733 71.4235 315.682 71.9113 315.682C72.554 315.682 73.1216 315.803 73.6142 316.047C74.1067 316.29 74.4891 316.631 74.7611 317.069C75.0332 317.507 75.1693 318.008 75.1693 318.573C75.1693 319.065 75.0848 319.527 74.9159 319.961C74.7518 320.389 74.4938 320.83 74.1419 321.282C73.7948 321.735 73.1803 322.38 72.2984 323.217L70.9755 324.51V324.612H75.4578V326.511Z" fill="white"/>
<path d="M17.1854 362.092L16.9149 364.621L19.3755 363.906L19.5932 365.638L17.3503 365.803L18.8214 367.844L17.3239 368.675L16.2949 366.524L15.3911 368.661L13.8343 367.844L15.2922 365.803L13.0625 365.624L13.3198 363.906L15.7275 364.621L15.4571 362.092H17.1854Z" fill="black"/>
<path d="M29.0198 372.784H26.6846L24.4417 368.984L22.1989 372.784H20.0088L23.2082 367.603L20.2133 362.738H22.4693L24.5473 366.353L26.5856 362.738H28.7889L25.7611 367.72L29.0198 372.784Z" fill="black"/>
<path d="M38.0308 372.784H35.6956L33.4528 368.984L31.2099 372.784H29.0198L32.2192 367.603L29.2243 362.738H31.4804L33.5583 366.353L35.5967 362.738H37.8L34.7721 367.72L38.0308 372.784Z" fill="black"/>
<path d="M42.1208 367.253V365.748H48.6713V367.253H42.1208ZM42.1208 369.912V368.407H48.6713V369.912H42.1208Z" fill="black"/>
<path d="M59.8856 372.784L59.1863 370.393H55.6703L54.9711 372.784H52.7678L56.1716 362.697H58.6718L62.0889 372.784H59.8856ZM58.6982 368.606C58.0517 366.44 57.6867 365.214 57.6031 364.93C57.524 364.646 57.4668 364.422 57.4316 364.257C57.2865 364.843 56.8709 366.293 56.1848 368.606H58.6982Z" fill="black"/>
<path d="M66.1458 366.366C67.0781 366.366 67.8191 366.639 68.3689 367.184C68.923 367.729 69.2 368.476 69.2 369.424C69.2 370.546 68.868 371.41 68.204 372.015C67.5399 372.619 66.59 372.922 65.3542 372.922C64.2811 372.922 63.4148 372.741 62.7551 372.379V370.544C63.1025 370.737 63.5071 370.895 63.9689 371.018C64.4307 371.137 64.8682 371.197 65.2816 371.197C66.5262 371.197 67.1485 370.666 67.1485 369.603C67.1485 368.59 66.5042 368.084 65.2157 368.084C64.9826 368.084 64.7253 368.109 64.4439 368.16C64.1624 368.206 63.9337 368.256 63.7578 368.311L62.9464 367.857L63.3092 362.738H68.5404V364.539H65.0969L64.9188 366.511L65.1497 366.463C65.418 366.398 65.75 366.366 66.1458 366.366Z" fill="black"/>
<path d="M78.8246 372.784H76.4894L74.2465 368.984L72.0036 372.784H69.8135L73.0129 367.603L70.018 362.738H72.2741L74.352 366.353L76.3904 362.738H78.5937L75.5658 367.72L78.8246 372.784Z" fill="black"/>
<path d="M87.8356 372.784H85.5004L83.2575 368.984L81.0147 372.784H78.8246L82.0239 367.603L79.0291 362.738H81.2851L83.3631 366.353L85.4014 362.738H87.6047L84.5769 367.72L87.8356 372.784Z" fill="black"/>
<path fill-rule="evenodd" clip-rule="evenodd" d="M536.99 67.8425V65.5784H540.6V67.8425H536.99ZM536.99 76.8991V72.3708H540.6V76.8991H536.99ZM536.99 85.9557V81.4274H540.6V85.9557H536.99ZM536.99 95.0122V90.4839H540.6V95.0122H536.99ZM536.99 104.069V99.5405H540.6V104.069H536.99ZM536.99 113.125V108.597H540.6V113.125H536.99ZM536.99 122.182V117.654H540.6V122.182H536.99ZM536.99 131.239V126.71H540.6V131.239H536.99ZM536.99 140.295V135.767H540.6V140.295H536.99ZM536.99 149.352V144.823H540.6V149.352H536.99ZM536.99 158.408V153.88H540.6V158.408H536.99ZM536.99 167.465V162.937H540.6V167.465H536.99ZM536.99 176.521V171.993H540.6V176.521H536.99ZM536.99 185.578V181.05H540.6V185.578H536.99ZM536.99 194.634V190.106H540.6V194.634H536.99ZM536.99 203.691V199.163H540.6V203.691H536.99ZM536.99 210.483V208.219H540.6V210.483H536.99Z" fill="white"/>
<path d="M550.913 151.181C550.913 158.016 545.372 163.557 538.536 163.557C531.701 163.557 526.16 158.016 526.16 151.181C526.16 144.345 531.701 138.804 538.536 138.804C545.372 138.804 550.913 144.345 550.913 151.181Z" fill="#E14235"/>
<path d="M540.6 156.337H538.183V150.369L538.206 149.389L538.245 148.317C537.844 148.679 537.564 148.916 537.408 149.029L536.094 149.981L534.928 148.669L538.613 146.024H540.6V156.337Z" fill="white"/>
<path fill-rule="evenodd" clip-rule="evenodd" d="M251.987 303.244V303.695H318.692V303.244H318.394V273.457H316.783V303.244H316.226V273.457H313.982V303.244H313.425V273.457H311.182V303.244H310.624V273.457H308.381V303.244H307.824V273.457H305.58V303.244H305.023V273.457H302.779V303.244H302.222V273.457H299.978V303.244H299.421V273.457H297.177V303.244H296.62V273.457H294.376V303.244H293.819V273.457H291.575V303.244H291.018V273.457H288.775V303.244H288.217V273.457H285.974V303.244H285.417V273.457H283.173V303.244H282.616V273.457H280.372V303.244H279.815V273.457H277.571V303.244H277.014V273.457H274.77V303.244H274.213V273.457H271.969V303.244H271.412V273.457H269.169V303.244H268.611V273.457H266.368V303.244H265.811V273.457H263.567V303.244H263.01V273.457H260.766V303.244H260.209V273.457H257.965V303.244H257.408V273.457H255.164V303.244H254.607V273.457H252.363V303.244H251.987ZM316.226 271.269H313.982H313.425H311.182H310.624H308.381H307.824H305.58H305.023H302.779H302.222H299.978H299.421H297.177H296.62H294.376H293.819H291.575H291.018H288.775H288.217H285.974H285.417H283.173H282.616H280.372H279.815H277.571H277.014H274.77H274.213H271.969H271.412H269.169H268.611H266.368H265.811H263.567H263.01H260.766H260.209H257.965H257.408H255.164H254.607H252.363V270.818H251.806V271.269H250.872H249.758V272.363V304.789V305.884H250.872H319.807H320.921V304.789V272.363V271.269H319.807H318.951H318.394H316.783H316.226Z" fill="white"/>
<path d="M295.137 314.908C295.137 321.601 289.596 327.026 282.761 327.026C275.926 327.026 270.385 321.601 270.385 314.908C270.385 308.215 275.926 302.79 282.761 302.79C289.596 302.79 295.137 308.215 295.137 314.908Z" fill="#E14235"/>
<path d="M286.886 318.185H285.568V320.323H283.307V318.185H278.635V316.668L283.434 310.009H285.568V316.492H286.886V318.185ZM283.307 316.492V314.743C283.307 314.451 283.319 314.028 283.344 313.473C283.369 312.918 283.389 312.596 283.404 312.506H283.344C283.159 312.892 282.937 313.268 282.678 313.635L280.671 316.492H283.307Z" fill="white"/>
<path fill-rule="evenodd" clip-rule="evenodd" d="M303.135 97.5503H314.203V98.6793H304.265V127.921H314.203V129.05H304.265V160.098H314.203V161.227H304.265V193.235H314.203V194.364H304.265V226.372H395.52V195.775H385.016V194.646H395.52V162.921H385.016V161.792H395.463V129.05H385.016V127.921H395.463V98.6793H385.016V97.5503H407.039V98.6793H396.649V127.921H407.039V129.05H396.649V161.792H407.039V162.921H396.649V194.646H407.039V195.775H396.649V227.501H285.855V226.372H303.135V97.5503Z" fill="#E14235"/>
<path d="M298.231 226.985C298.231 233.82 292.69 239.361 285.855 239.361C279.02 239.361 273.479 233.82 273.479 226.985C273.479 220.15 279.02 214.609 285.855 214.609C292.69 214.609 298.231 220.15 298.231 226.985Z" fill="#E14235"/>
<path d="M289.157 224.336C289.157 224.994 288.959 225.553 288.565 226.015C288.17 226.476 287.616 226.793 286.903 226.966V227.009C287.744 227.114 288.382 227.374 288.814 227.787C289.247 228.195 289.464 228.748 289.464 229.444C289.464 230.458 289.1 231.248 288.372 231.815C287.644 232.377 286.605 232.658 285.255 232.658C284.123 232.658 283.119 232.468 282.244 232.088V230.193C282.648 230.4 283.093 230.568 283.578 230.698C284.063 230.827 284.544 230.892 285.019 230.892C285.747 230.892 286.284 230.767 286.631 230.518C286.979 230.268 287.152 229.867 287.152 229.314C287.152 228.82 286.952 228.469 286.553 228.262C286.153 228.056 285.516 227.953 284.641 227.953H283.849V226.245H284.655C285.464 226.245 286.054 226.139 286.425 225.928C286.8 225.712 286.988 225.344 286.988 224.826C286.988 224.028 286.494 223.63 285.504 223.63C285.162 223.63 284.812 223.687 284.456 223.803C284.104 223.918 283.711 224.117 283.279 224.401L282.258 222.866C283.21 222.174 284.344 221.828 285.661 221.828C286.741 221.828 287.592 222.049 288.215 222.491C288.843 222.933 289.157 223.548 289.157 224.336Z" fill="white"/>
<path d="M289.13 364.975H302V365.762H298.21V389.214H299.497C301.523 389.214 303.132 388.594 304.323 387.355C305.539 386.115 306.766 384.209 308.006 381.635H308.756L308.077 390H289.13V389.214H291.239V365.762H289.13V364.975ZM318.613 381.599H319.649V378.846C319.649 376.582 319.518 375.069 319.256 374.306C319.018 373.519 318.541 373.126 317.826 373.126C317.397 373.126 317.004 373.245 316.646 373.484C316.313 373.698 316.146 374.008 316.146 374.413C316.146 374.794 316.217 375.188 316.36 375.593H317.254C317.445 376.093 317.54 376.701 317.54 377.416C317.54 378.107 317.242 378.715 316.646 379.239C316.051 379.74 315.3 379.99 314.394 379.99C312.345 379.99 311.32 379.001 311.32 377.023C311.32 374.091 313.81 372.626 318.791 372.626C321.628 372.626 323.582 373.114 324.654 374.091C325.751 375.045 326.299 376.808 326.299 379.382V386.64C326.299 387.879 326.644 388.499 327.336 388.499C328.146 388.499 328.623 387.271 328.766 384.816L329.302 384.852C329.207 386.949 328.813 388.391 328.122 389.178C327.431 389.964 326.299 390.357 324.726 390.357C321.866 390.357 320.221 389.476 319.792 387.712C319.483 388.618 319.018 389.285 318.398 389.714C317.779 390.143 316.873 390.357 315.681 390.357C312.154 390.357 310.39 388.916 310.39 386.032C310.39 384.34 311.058 383.184 312.392 382.564C313.751 381.921 315.824 381.599 318.613 381.599ZM317.183 385.996C317.183 387.235 317.242 388.034 317.361 388.391C317.504 388.749 317.755 388.928 318.112 388.928C318.494 388.928 318.839 388.63 319.149 388.034C319.483 387.414 319.649 386.568 319.649 385.496V382.171H319.399C317.922 382.171 317.183 383.255 317.183 385.424V385.996ZM329.725 372.983H338.34V376.272C338.722 375.176 339.306 374.294 340.092 373.627C340.879 372.959 342.07 372.626 343.667 372.626C347.361 372.626 349.208 374.616 349.208 378.596V389.357H351.21V390H341.093V389.357H342.559V377.738C342.559 376.308 342.464 375.39 342.273 374.985C342.082 374.556 341.737 374.342 341.236 374.342C340.473 374.342 339.794 374.842 339.198 375.843C338.626 376.844 338.34 378.06 338.34 379.49V389.357H339.878V390H329.725V389.357H331.691V373.627H329.725V372.983ZM353.296 384.888V373.627H351.329V372.983H353.296V368.371L359.945 366.727V372.983H364.592V373.627H359.945V385.674C359.945 386.794 360.052 387.617 360.267 388.141C360.505 388.665 360.982 388.928 361.697 388.928C362.412 388.928 363.031 388.57 363.556 387.855C364.104 387.14 364.461 386.163 364.628 384.924L365.236 384.995C365.045 386.64 364.521 387.95 363.663 388.928C362.805 389.881 361.387 390.357 359.409 390.357C357.431 390.357 355.917 389.964 354.869 389.178C353.82 388.391 353.296 386.961 353.296 384.888ZM374.157 381.599H375.194V378.846C375.194 376.582 375.063 375.069 374.801 374.306C374.563 373.519 374.086 373.126 373.371 373.126C372.942 373.126 372.549 373.245 372.191 373.484C371.858 373.698 371.691 374.008 371.691 374.413C371.691 374.794 371.762 375.188 371.905 375.593H372.799C372.99 376.093 373.085 376.701 373.085 377.416C373.085 378.107 372.787 378.715 372.191 379.239C371.595 379.74 370.845 379.99 369.939 379.99C367.889 379.99 366.865 379.001 366.865 377.023C366.865 374.091 369.355 372.626 374.336 372.626C377.172 372.626 379.127 373.114 380.199 374.091C381.296 375.045 381.844 376.808 381.844 379.382V386.64C381.844 387.879 382.189 388.499 382.88 388.499C383.691 388.499 384.167 387.271 384.31 384.816L384.847 384.852C384.751 386.949 384.358 388.391 383.667 389.178C382.976 389.964 381.844 390.357 380.271 390.357C377.411 390.357 375.766 389.476 375.337 387.712C375.027 388.618 374.563 389.285 373.943 389.714C373.323 390.143 372.418 390.357 371.226 390.357C367.699 390.357 365.935 388.916 365.935 386.032C365.935 384.34 366.602 383.184 367.937 382.564C369.296 381.921 371.369 381.599 374.157 381.599ZM372.727 385.996C372.727 387.235 372.787 388.034 372.906 388.391C373.049 388.749 373.299 388.928 373.657 388.928C374.038 388.928 374.384 388.63 374.694 388.034C375.027 387.414 375.194 386.568 375.194 385.496V382.171H374.944C373.466 382.171 372.727 383.255 372.727 385.424V385.996ZM390.453 370.516C389.19 370.516 388.284 370.195 387.736 369.551C387.212 368.908 386.95 368.109 386.95 367.156C386.95 366.203 387.236 365.416 387.808 364.796C388.404 364.177 389.297 363.867 390.489 363.867C391.681 363.867 392.586 364.153 393.206 364.725C393.826 365.273 394.135 366.071 394.135 367.12C394.135 368.145 393.838 368.967 393.242 369.587C392.646 370.207 391.716 370.516 390.453 370.516ZM385.055 372.983H393.814V389.357H395.816V390H385.198V389.357H387.164V373.627H385.055V372.983ZM413.622 381.635C413.622 379.37 413.419 377.786 413.014 376.88C412.632 375.974 411.751 375.521 410.368 375.521C408.986 375.521 407.473 376.034 405.828 377.059L405.22 376.773V365.368L405.792 364.939C407.246 365.154 409.451 365.416 412.406 365.726C415.361 366.012 417.065 366.155 417.518 366.155C417.995 366.155 418.329 366.048 418.519 365.833C418.734 365.595 418.913 365.202 419.056 364.653L419.592 364.725C419.234 368.371 418.77 370.54 418.198 371.231C417.888 371.589 417.494 371.768 417.018 371.768C416.541 371.768 415.54 371.565 414.015 371.16L406.221 369.122L406.043 376.058C407.782 375.128 409.582 374.663 411.441 374.663C413.3 374.663 414.849 374.878 416.088 375.307C417.328 375.712 418.281 376.284 418.948 377.023C420.211 378.429 420.843 380.133 420.843 382.135C420.843 384.685 419.925 386.699 418.09 388.177C416.279 389.631 413.776 390.357 410.583 390.357C408.867 390.357 407.282 390 405.828 389.285C405.042 388.88 404.398 388.308 403.898 387.569C403.421 386.806 403.183 385.936 403.183 384.959C403.183 383.958 403.457 383.136 404.005 382.493C404.577 381.849 405.351 381.527 406.329 381.527C407.33 381.527 408.104 381.778 408.652 382.278C409.224 382.755 409.51 383.386 409.51 384.173C409.51 384.935 409.403 385.591 409.189 386.139H408.009C407.866 386.52 407.794 386.973 407.794 387.498C407.794 387.998 407.997 388.487 408.402 388.963C408.807 389.416 409.403 389.643 410.19 389.643C410.976 389.643 411.572 389.523 411.977 389.285C412.382 389.023 412.692 388.713 412.907 388.356C413.121 387.998 413.288 387.438 413.407 386.675C413.55 385.579 413.622 383.899 413.622 381.635Z" fill="#181818"/>
</svg>
