<svg width="648" height="432" viewBox="0 0 648 432" fill="none" xmlns="http://www.w3.org/2000/svg">
<rect x="0.5" y="0.5" width="647" height="431" rx="9.5" stroke="#6699FF"/>
<path d="M19 156.103H91.1042L90.7673 66.6871L166.072 66.3495L220.15 66.1071L301.689 65.7416L356.104 65.4977L382.89 65.3776L467.124 65V141.277V185.965H516.654V136.533H491.047V65H559.023H627V136.533V161.165V244.676V310.473H517.833V244.676H466.956V310.473H358.799H299.499H283.831H245.084V298.663H223.014C163.175 314.05 124.517 341.965 112.668 354H19V156.103Z" fill="#05AC72"/>
<path fill-rule="evenodd" clip-rule="evenodd" d="M469.231 63V183.798H515.321V137.846H489.731V63.0076H629V311.536H516.5V245.833H469.063V311.536H243.933V299.743H223.797C164.385 315.049 126.111 342.73 114.521 354.492L114.021 355H18V153.98H90.0496L89.7129 64.7L469.231 63ZM90.056 157.388H21.4062V351.592H112.602C125.235 339.082 163.904 311.612 223.158 296.388L223.366 296.334H243.933V281.172H286.061V286.9H312.958V273.294H211.272V245.833H203.042V242.425H544.11V159.034H625.594V137.846H518.727V187.207H467.211V218.373H381.647V66.8008L358.285 66.9055V218.373H219.016V218.207H110.129V242.425H187.89V245.833H106.723V201.19H90.056V157.388ZM110.129 214.798H164.974V67.7713L93.1319 68.0931L93.4622 155.681V197.781H110.129V214.798ZM168.38 67.7561V214.798H219.016V67.5293L168.38 67.7561ZM222.422 67.514V214.965H300.666L300.502 67.1643L222.422 67.514ZM303.908 67.149L304.073 214.965H354.879V66.9207L303.908 67.149ZM385.053 66.7856V139.175H465.825V66.4238L385.053 66.7856ZM465.825 142.583H385.053V214.965H463.804V183.798H465.825V142.583ZM625.594 134.438V66.4161H561.069V134.438H625.594ZM557.662 134.438V66.4161H493.137V134.438H557.662ZM625.594 162.442H547.516V242.425H625.594V162.442ZM625.594 245.833H519.906V308.127H625.594V245.833ZM214.678 245.833V269.885H216.827V245.833H214.678ZM220.234 245.833V269.885H236.525V245.833H220.234ZM239.931 245.833V269.885H246.626V245.833H239.931ZM250.033 245.833V269.885H272.553V245.833H250.033ZM275.959 245.833V269.885H298.48V245.833H275.959ZM301.886 245.833V269.885H357.572V245.833H301.886ZM360.979 245.833V308.127H465.656V245.833H360.979ZM357.572 308.127V273.294H341.786V290.309H301.718V308.127H357.572ZM298.311 308.127V290.309H286.061V308.127H298.311ZM282.654 308.127V284.581H247.339V308.127H282.654ZM338.38 273.294H316.364V286.9H338.38V273.294Z" fill="white"/>
<path fill-rule="evenodd" clip-rule="evenodd" d="M253.863 255.061L257.159 251.662C257.362 251.453 257.695 251.448 257.903 251.65L261.302 254.946C261.511 255.149 261.516 255.482 261.314 255.69C261.112 255.899 260.779 255.904 260.57 255.702L258.083 253.29L258.238 263.418L257.186 263.435L257.031 253.306L254.619 255.793C254.416 256.002 254.083 256.007 253.875 255.805C253.666 255.602 253.661 255.269 253.863 255.061Z" fill="white"/>
<path fill-rule="evenodd" clip-rule="evenodd" d="M268.841 260.476L265.384 263.845C265.172 264.052 264.828 264.052 264.616 263.845L261.159 260.476C260.947 260.27 260.947 259.934 261.159 259.728C261.371 259.521 261.715 259.521 261.927 259.728L264.457 262.193V252H265.543V262.193L268.073 259.728C268.285 259.521 268.629 259.521 268.841 259.728C269.053 259.934 269.053 260.27 268.841 260.476Z" fill="white"/>
<path fill-rule="evenodd" clip-rule="evenodd" d="M279.762 255.061L283.058 251.662C283.26 251.453 283.593 251.448 283.802 251.65L287.201 254.946C287.409 255.149 287.415 255.482 287.212 255.69C287.01 255.899 286.677 255.904 286.468 255.702L283.981 253.29L284.137 263.418L283.085 263.435L282.929 253.306L280.517 255.793C280.315 256.002 279.982 256.007 279.773 255.805C279.565 255.602 279.56 255.269 279.762 255.061Z" fill="white"/>
<path fill-rule="evenodd" clip-rule="evenodd" d="M294.841 260.476L291.384 263.845C291.172 264.052 290.828 264.052 290.616 263.845L287.159 260.476C286.947 260.27 286.947 259.934 287.159 259.728C287.371 259.521 287.715 259.521 287.927 259.728L290.457 262.193V252H291.543V262.193L294.073 259.728C294.285 259.521 294.629 259.521 294.841 259.728C295.053 259.934 295.053 260.27 294.841 260.476Z" fill="white"/>
<path d="M266 291.5C266 292.328 265.552 293 265 293C264.448 293 264 292.328 264 291.5C264 290.672 264.448 290 265 290C265.552 290 266 290.672 266 291.5Z" fill="white"/>
<path fill-rule="evenodd" clip-rule="evenodd" d="M263.951 294.719L262.507 300.302H263.885C263.88 300.331 263.878 300.361 263.878 300.392V304.48C263.878 304.767 264.093 304.999 264.359 304.999C264.624 304.999 264.84 304.767 264.84 304.48V300.392C264.84 300.361 264.837 300.331 264.832 300.302H264.938V300.303H265.168C265.163 300.332 265.16 300.362 265.16 300.393V304.481C265.16 304.768 265.376 305 265.641 305C265.907 305 266.122 304.768 266.122 304.481V300.393C266.122 300.362 266.12 300.332 266.115 300.303H267.493L266.049 294.72H266.256L267.128 297.925C267.208 298.217 267.514 298.352 267.762 298.206C267.949 298.096 268.041 297.86 267.982 297.64L266.982 293.902C266.964 293.835 266.933 293.774 266.893 293.723L266.899 293.722C266.788 293.451 266.378 292.943 265.605 293.006L265.604 293.002H264.938L264.938 293.001H264.396L264.395 293.005C263.622 292.942 263.212 293.45 263.101 293.721L263.107 293.723C263.067 293.773 263.036 293.834 263.018 293.901L262.018 297.639C261.959 297.859 262.051 298.095 262.238 298.205C262.486 298.351 262.792 298.216 262.872 297.924L263.744 294.719H263.951Z" fill="white"/>
<path fill-rule="evenodd" clip-rule="evenodd" d="M349.554 291.952C350.426 291.952 351.132 291.291 351.132 290.476C351.132 289.661 350.426 289 349.554 289C348.683 289 347.977 289.661 347.977 290.476C347.977 291.291 348.683 291.952 349.554 291.952ZM347.593 294.325V300.434L347.611 300.415V304.195C347.611 304.64 348.005 305 348.492 305C348.978 305 349.372 304.64 349.372 304.195V298.566L349.408 298.529V298.191H349.592V298.529L349.628 298.566V304.195C349.628 304.64 350.022 305 350.508 305C350.995 305 351.389 304.64 351.389 304.195V300.415L351.407 300.434V294.325H351.641L351.675 298.064C351.678 298.442 352.056 298.724 352.462 298.652C352.775 298.596 353.001 298.345 353 298.054L352.982 293.439C352.982 293.316 352.942 293.201 352.872 293.104C352.708 292.822 352.237 292.373 351.407 292.298V292.288H351.243C351.19 292.287 351.136 292.287 351.081 292.288H350.513V292.287H348.678V292.288H347.919C347.863 292.287 347.809 292.287 347.757 292.288H347.593V292.298C346.763 292.374 346.292 292.822 346.127 293.105C346.058 293.201 346.018 293.317 346.018 293.439L346 298.054C345.999 298.345 346.225 298.596 346.538 298.652C346.944 298.724 347.322 298.442 347.325 298.064L347.359 294.325H347.593Z" fill="white"/>
<path fill-rule="evenodd" clip-rule="evenodd" d="M299.583 244H298V245.287V271.713V273H299.583H359.417H361V271.713V245.287V244H359.417H299.583ZM303.617 270.426H305.256V246.574H303.617V270.426ZM302.825 270.426V246.574H301.186V270.426H302.825ZM310.118 270.426H308.479V246.574H310.118V270.426ZM307.687 246.574V270.426H306.048V246.574H307.687ZM313.341 270.426H314.981V246.574H313.341V270.426ZM312.549 270.426V246.574H310.91V270.426H312.549ZM319.843 270.426H318.203V246.574H319.843V270.426ZM317.412 246.574V270.426H315.772V246.574H317.412ZM323.065 270.426H324.705V246.574H323.065V270.426ZM322.274 270.426V246.574H320.634V270.426H322.274ZM329.567 270.426H327.928V246.574H329.567V270.426ZM327.136 246.574V270.426H325.496V246.574H327.136ZM332.79 270.426H334.429V246.574H332.79V270.426ZM331.998 270.426V246.574H330.359V270.426H331.998ZM339.291 270.426H337.652V246.574H339.291V270.426ZM336.86 246.574V270.426H335.221V246.574H336.86ZM342.514 270.426H344.153V246.574H342.514V270.426ZM341.722 270.426V246.574H340.083V270.426H341.722ZM349.015 270.426H347.376V246.574H349.015V270.426ZM346.584 246.574V270.426H344.945V246.574H346.584ZM352.238 270.426H353.878V246.574H352.238V270.426ZM351.446 270.426V246.574H349.807V270.426H351.446ZM356.309 270.426H354.669V246.574H356.309V270.426ZM357.1 270.426H357.833V246.574H357.1V270.426Z" fill="white"/>
<path d="M118.741 171.854L117.98 169.31H114.157L113.396 171.854H111L114.702 161.124H117.421L121.137 171.854H118.741ZM117.449 167.41C116.746 165.105 116.349 163.802 116.258 163.5C116.172 163.198 116.11 162.959 116.072 162.783C115.914 163.407 115.462 164.949 114.716 167.41H117.449Z" fill="#FBFBFB"/>
<path d="M127.213 171.854H124.996V165.67L125.018 164.654L125.054 163.544C124.685 163.919 124.43 164.165 124.286 164.282L123.081 165.268L122.012 163.909L125.391 161.168H127.213V171.854Z" fill="#FBFBFB"/>
<path d="M137.4 166.511C137.4 168.377 137.099 169.759 136.496 170.655C135.898 171.552 134.975 172 133.727 172C132.517 172 131.603 171.537 130.987 170.611C130.374 169.685 130.068 168.319 130.068 166.511C130.068 164.625 130.367 163.237 130.965 162.345C131.563 161.448 132.483 161 133.727 161C134.937 161 135.85 161.468 136.467 162.403C137.089 163.339 137.4 164.708 137.4 166.511ZM132.271 166.511C132.271 167.822 132.381 168.762 132.601 169.332C132.825 169.897 133.201 170.18 133.727 170.18C134.243 170.18 134.617 169.893 134.846 169.318C135.076 168.743 135.19 167.807 135.19 166.511C135.19 165.2 135.073 164.26 134.839 163.69C134.609 163.115 134.239 162.827 133.727 162.827C133.206 162.827 132.833 163.115 132.608 163.69C132.383 164.26 132.271 165.2 132.271 166.511Z" fill="#FBFBFB"/>
<path d="M144 171.854H141.783V165.67L141.805 164.654L141.841 163.544C141.472 163.919 141.217 164.165 141.073 164.282L139.868 165.268L138.799 163.909L142.178 161.168H144V171.854Z" fill="#FBFBFB"/>
<path d="M182.774 171.854L182.01 169.31H178.17L177.406 171.854H175L178.718 161.124H181.448L185.18 171.854H182.774ZM181.477 167.41C180.771 165.105 180.372 163.802 180.281 163.5C180.195 163.198 180.132 162.959 180.094 162.783C179.935 163.407 179.481 164.949 178.732 167.41H181.477Z" fill="#FBFBFB"/>
<path d="M191.282 171.854H189.056V165.67L189.078 164.654L189.114 163.544C188.744 163.919 188.487 164.165 188.343 164.282L187.133 165.268L186.059 163.909L189.452 161.168H191.282V171.854Z" fill="#FBFBFB"/>
<path d="M201.513 166.511C201.513 168.377 201.21 169.759 200.605 170.655C200.005 171.552 199.078 172 197.824 172C196.609 172 195.692 171.537 195.072 170.611C194.457 169.685 194.15 168.319 194.15 166.511C194.15 164.625 194.45 163.237 195.05 162.345C195.651 161.448 196.575 161 197.824 161C199.039 161 199.957 161.468 200.576 162.403C201.201 163.339 201.513 164.708 201.513 166.511ZM196.362 166.511C196.362 167.822 196.472 168.762 196.693 169.332C196.919 169.897 197.296 170.18 197.824 170.18C198.343 170.18 198.718 169.893 198.948 169.318C199.179 168.743 199.294 167.807 199.294 166.511C199.294 165.2 199.176 164.26 198.941 163.69C198.71 163.115 198.338 162.827 197.824 162.827C197.301 162.827 196.926 163.115 196.7 163.69C196.475 164.26 196.362 165.2 196.362 166.511Z" fill="#FBFBFB"/>
<path d="M210 171.854H202.637V170.282L205.281 167.571C206.064 166.757 206.575 166.194 206.816 165.882C207.056 165.566 207.229 165.273 207.334 165.005C207.44 164.737 207.493 164.46 207.493 164.172C207.493 163.743 207.375 163.424 207.14 163.215C206.909 163.005 206.599 162.9 206.21 162.9C205.802 162.9 205.406 162.995 205.022 163.185C204.637 163.375 204.236 163.646 203.818 163.997L202.608 162.542C203.127 162.094 203.557 161.777 203.898 161.592C204.239 161.407 204.611 161.266 205.014 161.168C205.418 161.066 205.869 161.015 206.369 161.015C207.027 161.015 207.608 161.136 208.112 161.38C208.617 161.624 209.008 161.965 209.287 162.403C209.565 162.842 209.705 163.344 209.705 163.909C209.705 164.401 209.618 164.864 209.445 165.298C209.277 165.726 209.013 166.167 208.653 166.621C208.297 167.074 207.668 167.719 206.765 168.557L205.411 169.851V169.953H210V171.854Z" fill="#FBFBFB"/>
<path d="M251.796 171.854L251.03 169.31H247.179L246.413 171.854H244L247.728 161.124H250.467L254.21 171.854H251.796ZM250.496 167.41C249.788 165.105 249.388 163.802 249.296 163.5C249.21 163.198 249.147 162.959 249.108 162.783C248.949 163.407 248.494 164.949 247.743 167.41H250.496Z" fill="#FBFBFB"/>
<path d="M260.329 171.854H258.097V165.67L258.118 164.654L258.155 163.544C257.784 163.919 257.526 164.165 257.382 164.282L256.168 165.268L255.091 163.909L258.494 161.168H260.329V171.854Z" fill="#FBFBFB"/>
<path d="M270.59 166.511C270.59 168.377 270.286 169.759 269.679 170.655C269.077 171.552 268.147 172 266.89 172C265.671 172 264.751 171.537 264.13 170.611C263.513 169.685 263.205 168.319 263.205 166.511C263.205 164.625 263.506 163.237 264.108 162.345C264.711 161.448 265.638 161 266.89 161C268.109 161 269.029 161.468 269.65 162.403C270.276 163.339 270.59 164.708 270.59 166.511ZM265.423 166.511C265.423 167.822 265.534 168.762 265.756 169.332C265.982 169.897 266.36 170.18 266.89 170.18C267.41 170.18 267.786 169.893 268.017 169.318C268.249 168.743 268.364 167.807 268.364 166.511C268.364 165.2 268.246 164.26 268.01 163.69C267.779 163.115 267.406 162.827 266.89 162.827C266.365 162.827 265.989 163.115 265.763 163.69C265.537 164.26 265.423 165.2 265.423 166.511Z" fill="#FBFBFB"/>
<path d="M278.689 163.558C278.689 164.226 278.489 164.793 278.09 165.261C277.69 165.729 277.129 166.05 276.406 166.226V166.27C277.259 166.377 277.904 166.64 278.342 167.059C278.781 167.473 279 168.034 279 168.74C279 169.768 278.632 170.57 277.895 171.145C277.158 171.715 276.105 172 274.737 172C273.591 172 272.574 171.808 271.688 171.423V169.5C272.097 169.71 272.548 169.88 273.039 170.012C273.53 170.144 274.017 170.209 274.499 170.209C275.236 170.209 275.78 170.083 276.132 169.829C276.483 169.576 276.659 169.169 276.659 168.609C276.659 168.107 276.457 167.751 276.052 167.542C275.647 167.332 275.002 167.227 274.116 167.227H273.314V165.495H274.13C274.949 165.495 275.546 165.388 275.922 165.173C276.303 164.954 276.493 164.581 276.493 164.055C276.493 163.246 275.992 162.842 274.99 162.842C274.643 162.842 274.289 162.9 273.928 163.017C273.571 163.134 273.174 163.336 272.736 163.624L271.702 162.067C272.666 161.365 273.815 161.015 275.149 161.015C276.242 161.015 277.105 161.239 277.736 161.687C278.371 162.135 278.689 162.759 278.689 163.558Z" fill="#FBFBFB"/>
<path d="M320.721 171.854L319.963 169.31H316.149L315.39 171.854H313L316.692 161.124H319.405L323.111 171.854H320.721ZM319.433 167.41C318.732 165.105 318.336 163.802 318.245 163.5C318.159 163.198 318.097 162.959 318.059 162.783C317.902 163.407 317.451 164.949 316.707 167.41H319.433Z" fill="#FBFBFB"/>
<path d="M329.173 171.854H326.961V165.67L326.983 164.654L327.019 163.544C326.651 163.919 326.396 164.165 326.253 164.282L325.051 165.268L323.984 163.909L327.355 161.168H329.173V171.854Z" fill="#FBFBFB"/>
<path d="M339.334 166.511C339.334 168.377 339.034 169.759 338.432 170.655C337.836 171.552 336.915 172 335.67 172C334.463 172 333.552 171.537 332.937 170.611C332.326 169.685 332.021 168.319 332.021 166.511C332.021 164.625 332.319 163.237 332.915 162.345C333.511 161.448 334.43 161 335.67 161C336.877 161 337.788 161.468 338.404 162.403C339.024 163.339 339.334 164.708 339.334 166.511ZM334.218 166.511C334.218 167.822 334.327 168.762 334.547 169.332C334.771 169.897 335.145 170.18 335.67 170.18C336.185 170.18 336.558 169.893 336.787 169.318C337.016 168.743 337.13 167.807 337.13 166.511C337.13 165.2 337.013 164.26 336.779 163.69C336.55 163.115 336.181 162.827 335.67 162.827C335.15 162.827 334.778 163.115 334.554 163.69C334.33 164.26 334.218 165.2 334.218 166.511Z" fill="#FBFBFB"/>
<path d="M348 169.639H346.741V171.854H344.579V169.639H340.114V168.068L344.701 161.168H346.741V167.885H348V169.639ZM344.579 167.885V166.072C344.579 165.77 344.591 165.332 344.615 164.757C344.639 164.182 344.658 163.848 344.672 163.755H344.615C344.439 164.155 344.226 164.545 343.978 164.925L342.061 167.885H344.579Z" fill="#FBFBFB"/>
<path d="M413.774 204.854L413.01 202.31H409.17L408.406 204.854H406L409.718 194.124H412.448L416.18 204.854H413.774ZM412.477 200.41C411.771 198.105 411.372 196.802 411.281 196.5C411.195 196.198 411.132 195.959 411.094 195.783C410.935 196.407 410.481 197.949 409.732 200.41H412.477Z" fill="#FBFBFB"/>
<path d="M422.282 204.854H420.056V198.67L420.078 197.654L420.114 196.544C419.744 196.919 419.487 197.165 419.343 197.282L418.133 198.268L417.059 196.909L420.452 194.168H422.282V204.854Z" fill="#FBFBFB"/>
<path d="M432.513 199.511C432.513 201.377 432.21 202.759 431.605 203.655C431.005 204.552 430.078 205 428.824 205C427.609 205 426.692 204.537 426.072 203.611C425.457 202.685 425.15 201.319 425.15 199.511C425.15 197.625 425.45 196.237 426.05 195.345C426.651 194.448 427.575 194 428.824 194C430.039 194 430.957 194.468 431.576 195.403C432.201 196.339 432.513 197.708 432.513 199.511ZM427.362 199.511C427.362 200.822 427.472 201.762 427.693 202.332C427.919 202.897 428.296 203.18 428.824 203.18C429.343 203.18 429.718 202.893 429.948 202.318C430.179 201.743 430.294 200.807 430.294 199.511C430.294 198.2 430.176 197.26 429.941 196.69C429.71 196.115 429.338 195.827 428.824 195.827C428.301 195.827 427.926 196.115 427.7 196.69C427.475 197.26 427.362 198.2 427.362 199.511Z" fill="#FBFBFB"/>
<path d="M433.565 200.315C433.565 198.2 434.004 196.626 434.883 195.593C435.767 194.56 437.088 194.044 438.846 194.044C439.446 194.044 439.917 194.08 440.258 194.153V195.959C439.83 195.861 439.408 195.813 438.99 195.813C438.226 195.813 437.602 195.93 437.117 196.163C436.636 196.397 436.276 196.743 436.036 197.201C435.796 197.659 435.654 198.31 435.611 199.153H435.705C436.18 198.324 436.941 197.91 437.988 197.91C438.93 197.91 439.667 198.21 440.2 198.809C440.733 199.409 441 200.237 441 201.294C441 202.435 440.683 203.338 440.049 204.006C439.415 204.669 438.536 205 437.412 205C436.634 205 435.954 204.817 435.373 204.452C434.797 204.086 434.35 203.553 434.033 202.851C433.721 202.15 433.565 201.304 433.565 200.315ZM437.369 203.195C437.844 203.195 438.209 203.034 438.464 202.712C438.719 202.386 438.846 201.923 438.846 201.324C438.846 200.802 438.726 200.393 438.486 200.096C438.25 199.794 437.892 199.643 437.412 199.643C436.961 199.643 436.574 199.791 436.252 200.088C435.935 200.386 435.777 200.732 435.777 201.126C435.777 201.706 435.926 202.196 436.223 202.595C436.526 202.995 436.908 203.195 437.369 203.195Z" fill="#FBFBFB"/>
<path d="M413.817 129.854L413.049 127.31H409.188L408.42 129.854H406L409.738 119.124H412.484L416.237 129.854H413.817ZM412.513 125.41C411.803 123.105 411.402 121.802 411.31 121.5C411.224 121.198 411.161 120.959 411.122 120.783C410.963 121.407 410.506 122.949 409.753 125.41H412.513Z" fill="#FBFBFB"/>
<path d="M422.373 129.854H420.135V123.67L420.156 122.654L420.193 121.544C419.821 121.919 419.562 122.165 419.418 122.282L418.2 123.268L417.121 121.909L420.533 119.168H422.373V129.854Z" fill="#FBFBFB"/>
<path d="M432.661 124.511C432.661 126.377 432.357 127.759 431.748 128.655C431.145 129.552 430.212 130 428.952 130C427.73 130 426.807 129.537 426.184 128.611C425.566 127.685 425.257 126.319 425.257 124.511C425.257 122.625 425.559 121.237 426.162 120.345C426.766 119.448 427.696 119 428.952 119C430.174 119 431.096 119.468 431.719 120.403C432.347 121.339 432.661 122.708 432.661 124.511ZM427.481 124.511C427.481 125.822 427.592 126.762 427.814 127.332C428.041 127.897 428.42 128.18 428.952 128.18C429.473 128.18 429.85 127.893 430.082 127.318C430.314 126.743 430.43 125.807 430.43 124.511C430.43 123.2 430.311 122.26 430.075 121.69C429.843 121.115 429.469 120.827 428.952 120.827C428.425 120.827 428.049 121.115 427.822 121.69C427.595 122.26 427.481 123.2 427.481 124.511Z" fill="#FBFBFB"/>
<path d="M437.646 123.027C438.67 123.027 439.483 123.317 440.087 123.897C440.696 124.477 441 125.271 441 126.28C441 127.474 440.635 128.392 439.906 129.035C439.177 129.678 438.133 130 436.776 130C435.598 130 434.646 129.808 433.922 129.423V127.471C434.303 127.676 434.748 127.844 435.255 127.975C435.762 128.102 436.243 128.165 436.697 128.165C438.063 128.165 438.747 127.6 438.747 126.47C438.747 125.393 438.039 124.854 436.624 124.854C436.368 124.854 436.086 124.881 435.776 124.935C435.467 124.984 435.216 125.037 435.023 125.096L434.132 124.613L434.53 119.168H440.276V121.083H436.494L436.298 123.181L436.552 123.13C436.846 123.061 437.211 123.027 437.646 123.027Z" fill="#FBFBFB"/>
<path d="M514.774 125.867L514.01 123.555H510.17L509.406 125.867H507L510.718 116.113H513.448L517.18 125.867H514.774ZM513.477 121.827C512.771 119.732 512.372 118.547 512.281 118.272C512.195 117.998 512.132 117.781 512.094 117.621C511.935 118.188 511.481 119.59 510.732 121.827H513.477Z" fill="#FBFBFB"/>
<path d="M523.282 125.867H521.056V120.246L521.078 119.322L521.114 118.312C520.744 118.653 520.487 118.877 520.343 118.983L519.133 119.88L518.059 118.645L521.452 116.153H523.282V125.867Z" fill="#FBFBFB"/>
<path d="M533.513 121.01C533.513 122.707 533.21 123.962 532.605 124.777C532.005 125.592 531.078 126 529.824 126C528.609 126 527.692 125.579 527.072 124.738C526.457 123.896 526.15 122.653 526.15 121.01C526.15 119.296 526.45 118.033 527.05 117.223C527.651 116.408 528.575 116 529.824 116C531.039 116 531.957 116.425 532.576 117.276C533.201 118.126 533.513 119.371 533.513 121.01ZM528.362 121.01C528.362 122.202 528.472 123.056 528.693 123.575C528.919 124.089 529.296 124.346 529.824 124.346C530.343 124.346 530.718 124.084 530.948 123.561C531.179 123.039 531.294 122.188 531.294 121.01C531.294 119.818 531.176 118.963 530.941 118.445C530.71 117.922 530.338 117.661 529.824 117.661C529.301 117.661 528.926 117.922 528.7 118.445C528.475 118.963 528.362 119.818 528.362 121.01Z" fill="#FBFBFB"/>
<path d="M535.682 125.867L539.637 117.894H534.442V116.166H542V117.455L538.016 125.867H535.682Z" fill="#FBFBFB"/>
<path d="M583.783 125.867L583.019 123.555H579.174L578.409 125.867H576L579.722 116.113H582.456L586.193 125.867H583.783ZM582.485 121.827C581.778 119.732 581.379 118.547 581.288 118.272C581.201 117.998 581.138 117.781 581.1 117.621C580.941 118.188 580.487 119.59 579.737 121.827H582.485Z" fill="#FBFBFB"/>
<path d="M592.303 125.867H590.074V120.246L590.095 119.322L590.131 118.312C589.761 118.653 589.504 118.877 589.359 118.983L588.148 119.88L587.073 118.645L590.47 116.153H592.303V125.867Z" fill="#FBFBFB"/>
<path d="M602.546 121.01C602.546 122.707 602.243 123.962 601.637 124.777C601.036 125.592 600.108 126 598.852 126C597.636 126 596.717 125.579 596.097 124.738C595.481 123.896 595.174 122.653 595.174 121.01C595.174 119.296 595.474 118.033 596.075 117.223C596.676 116.408 597.602 116 598.852 116C600.069 116 600.988 116.425 601.608 117.276C602.233 118.126 602.546 119.371 602.546 121.01ZM597.388 121.01C597.388 122.202 597.499 123.056 597.72 123.575C597.946 124.089 598.323 124.346 598.852 124.346C599.372 124.346 599.747 124.084 599.978 123.561C600.209 123.039 600.324 122.188 600.324 121.01C600.324 119.818 600.206 118.963 599.971 118.445C599.74 117.922 599.367 117.661 598.852 117.661C598.328 117.661 597.953 117.922 597.727 118.445C597.501 118.963 597.388 119.818 597.388 121.01Z" fill="#FBFBFB"/>
<path d="M607.307 116.027C608.317 116.027 609.129 116.239 609.745 116.664C610.365 117.085 610.675 117.654 610.675 118.372C610.675 118.868 610.526 119.311 610.228 119.701C609.93 120.086 609.449 120.432 608.785 120.738C609.574 121.127 610.139 121.535 610.481 121.96C610.827 122.381 611 122.844 611 123.349C611 124.146 610.661 124.788 609.983 125.276C609.305 125.759 608.413 126 607.307 126C606.153 126 605.246 125.774 604.587 125.322C603.928 124.87 603.599 124.23 603.599 123.402C603.599 122.848 603.758 122.357 604.075 121.927C604.397 121.497 604.912 121.118 605.619 120.791C605.018 120.441 604.585 120.066 604.32 119.668C604.056 119.269 603.924 118.833 603.924 118.359C603.924 117.663 604.236 117.101 604.861 116.671C605.486 116.241 606.302 116.027 607.307 116.027ZM605.662 123.282C605.662 123.663 605.806 123.96 606.095 124.173C606.383 124.385 606.778 124.492 607.278 124.492C607.831 124.492 608.244 124.383 608.519 124.166C608.793 123.945 608.93 123.654 608.93 123.296C608.93 122.999 608.793 122.722 608.519 122.465C608.249 122.204 607.809 121.927 607.198 121.635C606.174 122.069 605.662 122.618 605.662 123.282ZM607.292 117.528C606.912 117.528 606.605 117.619 606.369 117.801C606.138 117.978 606.023 118.217 606.023 118.518C606.023 118.784 606.114 119.023 606.297 119.236C606.484 119.444 606.821 119.659 607.307 119.88C607.778 119.677 608.107 119.468 608.295 119.256C608.482 119.043 608.576 118.797 608.576 118.518C608.576 118.213 608.456 117.971 608.216 117.794C607.975 117.617 607.667 117.528 607.292 117.528Z" fill="#FBFBFB"/>
<path d="M561.787 297.854L561.022 295.31H557.175L556.41 297.854H554L557.724 287.124H560.459L564.197 297.854H561.787ZM560.488 293.41C559.78 291.105 559.381 289.802 559.29 289.5C559.203 289.198 559.141 288.959 559.102 288.783C558.943 289.407 558.489 290.949 557.738 293.41H560.488Z" fill="#FBFBFB"/>
<path d="M570.309 297.854H568.079V291.67L568.101 290.654L568.137 289.544C567.767 289.919 567.509 290.165 567.365 290.282L566.153 291.268L565.077 289.909L568.476 287.168H570.309V297.854Z" fill="#FBFBFB"/>
<path d="M578.753 297.854H576.523V291.67L576.544 290.654L576.58 289.544C576.21 289.919 575.953 290.165 575.808 290.282L574.596 291.268L573.521 289.909L576.92 287.168H578.753V297.854Z" fill="#FBFBFB"/>
<path d="M589 292.511C589 294.377 588.697 295.759 588.091 296.655C587.489 297.552 586.561 298 585.305 298C584.088 298 583.169 297.537 582.548 296.611C581.933 295.685 581.625 294.319 581.625 292.511C581.625 290.625 581.925 289.237 582.527 288.345C583.128 287.448 584.054 287 585.305 287C586.522 287 587.441 287.468 588.062 288.403C588.687 289.339 589 290.708 589 292.511ZM583.84 292.511C583.84 293.822 583.951 294.762 584.172 295.332C584.398 295.897 584.776 296.18 585.305 296.18C585.825 296.18 586.2 295.893 586.431 295.318C586.662 294.743 586.777 293.807 586.777 292.511C586.777 291.2 586.659 290.26 586.424 289.69C586.193 289.115 585.82 288.827 585.305 288.827C584.781 288.827 584.405 289.115 584.179 289.69C583.953 290.26 583.84 291.2 583.84 292.511Z" fill="#FBFBFB"/>
<path d="M577.783 233.854L577.019 231.31H573.174L572.409 233.854H570L573.722 223.124H576.456L580.193 233.854H577.783ZM576.485 229.41C575.778 227.105 575.379 225.802 575.288 225.5C575.201 225.198 575.138 224.959 575.1 224.783C574.941 225.407 574.487 226.949 573.737 229.41H576.485Z" fill="#FBFBFB"/>
<path d="M586.303 233.854H584.074V227.67L584.095 226.654L584.131 225.544C583.761 225.919 583.504 226.165 583.359 226.282L582.148 227.268L581.073 225.909L584.47 223.168H586.303V233.854Z" fill="#FBFBFB"/>
<path d="M596.546 228.511C596.546 230.377 596.243 231.759 595.637 232.655C595.036 233.552 594.108 234 592.852 234C591.636 234 590.717 233.537 590.097 232.611C589.481 231.685 589.174 230.319 589.174 228.511C589.174 226.625 589.474 225.237 590.075 224.345C590.676 223.448 591.602 223 592.852 223C594.069 223 594.988 223.468 595.608 224.403C596.233 225.339 596.546 226.708 596.546 228.511ZM591.388 228.511C591.388 229.822 591.499 230.762 591.72 231.332C591.946 231.897 592.323 232.18 592.852 232.18C593.372 232.18 593.747 231.893 593.978 231.318C594.209 230.743 594.324 229.807 594.324 228.511C594.324 227.2 594.206 226.26 593.971 225.69C593.74 225.115 593.367 224.827 592.852 224.827C592.328 224.827 591.953 225.115 591.727 225.69C591.501 226.26 591.388 227.2 591.388 228.511Z" fill="#FBFBFB"/>
<path d="M605 227.729C605 229.834 604.562 231.405 603.687 232.443C602.812 233.481 601.487 234 599.712 234C599.087 234 598.614 233.966 598.291 233.898V232.085C598.695 232.187 599.119 232.239 599.561 232.239C600.306 232.239 600.92 232.129 601.4 231.91C601.881 231.685 602.249 231.337 602.504 230.864C602.759 230.387 602.906 229.732 602.944 228.898H602.858C602.579 229.356 602.256 229.678 601.891 229.863C601.525 230.048 601.069 230.141 600.52 230.141C599.602 230.141 598.878 229.844 598.349 229.249C597.82 228.65 597.556 227.819 597.556 226.757C597.556 225.612 597.875 224.708 598.515 224.045C599.159 223.378 600.035 223.044 601.141 223.044C601.92 223.044 602.6 223.229 603.182 223.599C603.769 223.97 604.219 224.508 604.531 225.215C604.844 225.916 605 226.754 605 227.729ZM601.184 224.856C600.722 224.856 600.362 225.017 600.102 225.339C599.842 225.66 599.712 226.123 599.712 226.728C599.712 227.244 599.83 227.653 600.066 227.955C600.302 228.258 600.66 228.409 601.141 228.409C601.593 228.409 601.98 228.26 602.302 227.963C602.624 227.661 602.785 227.315 602.785 226.925C602.785 226.345 602.634 225.855 602.331 225.456C602.033 225.056 601.651 224.856 601.184 224.856Z" fill="#FBFBFB"/>
<path d="M430 277.5C430 283.851 424.627 289 418 289C411.373 289 406 283.851 406 277.5C406 271.149 411.373 266 418 266C424.627 266 430 271.149 430 277.5Z" fill="#E14235"/>
<path d="M420 283H417.869V276.635L417.89 275.589L417.924 274.445C417.57 274.832 417.324 275.085 417.186 275.205L416.028 276.221L415 274.821L418.248 272H420V283Z" fill="white"/>
<path d="M144 123C144 129.627 138.627 135 132 135C125.373 135 120 129.627 120 123C120 116.373 125.373 111 132 111C138.627 111 144 116.373 144 123Z" fill="#E14235"/>
<path d="M136 128H128.031V126.55L130.893 124.049C131.74 123.298 132.294 122.779 132.554 122.491C132.814 122.199 133.001 121.929 133.115 121.682C133.229 121.434 133.287 121.178 133.287 120.913C133.287 120.517 133.159 120.223 132.904 120.03C132.655 119.836 132.32 119.74 131.899 119.74C131.457 119.74 131.028 119.827 130.612 120.003C130.196 120.178 129.762 120.428 129.31 120.751L128 119.409C128.561 118.996 129.027 118.704 129.396 118.533C129.765 118.362 130.168 118.232 130.604 118.142C131.041 118.047 131.53 118 132.07 118C132.782 118 133.411 118.112 133.957 118.337C134.503 118.562 134.927 118.877 135.228 119.281C135.53 119.686 135.68 120.149 135.68 120.67C135.68 121.124 135.587 121.551 135.4 121.951C135.218 122.347 134.932 122.754 134.542 123.172C134.157 123.59 133.476 124.186 132.499 124.959L131.033 126.152V126.247H136V128Z" fill="white"/>
<path d="M207 123C207 129.627 201.851 135 195.5 135C189.149 135 184 129.627 184 123C184 116.373 189.149 111 195.5 111C201.851 111 207 116.373 207 123Z" fill="#E14235"/>
<path d="M199 128H192.027V126.55L194.531 124.049C195.273 123.298 195.757 122.779 195.984 122.491C196.212 122.199 196.376 121.929 196.476 121.682C196.576 121.434 196.626 121.178 196.626 120.913C196.626 120.517 196.514 120.223 196.291 120.03C196.073 119.836 195.78 119.74 195.411 119.74C195.025 119.74 194.649 119.827 194.286 120.003C193.922 120.178 193.542 120.428 193.146 120.751L192 119.409C192.491 118.996 192.898 118.704 193.221 118.533C193.544 118.362 193.897 118.232 194.279 118.142C194.661 118.047 195.088 118 195.561 118C196.185 118 196.735 118.112 197.212 118.337C197.69 118.562 198.061 118.877 198.325 119.281C198.588 119.686 198.72 120.149 198.72 120.67C198.72 121.124 198.638 121.551 198.475 121.951C198.315 122.347 198.065 122.754 197.724 123.172C197.388 123.59 196.792 124.186 195.937 124.959L194.654 126.152V126.247H199V128Z" fill="white"/>
<path d="M275 123C275 129.627 269.627 135 263 135C256.373 135 251 129.627 251 123C251 116.373 256.373 111 263 111C269.627 111 275 116.373 275 123Z" fill="#E14235"/>
<path d="M267 128H260.027V126.55L262.531 124.049C263.273 123.298 263.757 122.779 263.984 122.491C264.212 122.199 264.376 121.929 264.476 121.682C264.576 121.434 264.626 121.178 264.626 120.913C264.626 120.517 264.514 120.223 264.291 120.03C264.073 119.836 263.78 119.74 263.411 119.74C263.025 119.74 262.649 119.827 262.286 120.003C261.922 120.178 261.542 120.428 261.146 120.751L260 119.409C260.491 118.996 260.898 118.704 261.221 118.533C261.544 118.362 261.897 118.232 262.279 118.142C262.661 118.047 263.088 118 263.561 118C264.185 118 264.735 118.112 265.212 118.337C265.69 118.562 266.061 118.877 266.325 119.281C266.588 119.686 266.72 120.149 266.72 120.67C266.72 121.124 266.638 121.551 266.475 121.951C266.315 122.347 266.065 122.754 265.724 123.172C265.388 123.59 264.792 124.186 263.937 124.959L262.654 126.152V126.247H267V128Z" fill="white"/>
<path d="M238 258.5C238 264.851 232.627 270 226 270C219.373 270 214 264.851 214 258.5C214 252.149 219.373 247 226 247C232.627 247 238 252.149 238 258.5Z" fill="#E14235"/>
<path d="M226.683 256.919C227.695 256.919 228.5 257.213 229.097 257.802C229.699 258.391 230 259.198 230 260.222C230 261.434 229.639 262.367 228.918 263.02C228.197 263.673 227.165 264 225.823 264C224.657 264 223.716 263.805 223 263.414V261.432C223.377 261.64 223.817 261.81 224.318 261.944C224.82 262.073 225.295 262.137 225.744 262.137C227.096 262.137 227.772 261.563 227.772 260.415C227.772 259.321 227.072 258.775 225.672 258.775C225.419 258.775 225.14 258.802 224.834 258.856C224.528 258.906 224.28 258.96 224.089 259.02L223.208 258.53L223.602 253H229.284V254.945H225.544L225.35 257.075L225.601 257.023C225.892 256.954 226.253 256.919 226.683 256.919Z" fill="white"/>
<path d="M339 281C339 287.627 333.627 293 327 293C320.373 293 315 287.627 315 281C315 274.373 320.373 269 327 269C333.627 269 339 274.373 339 281Z" fill="#E14235"/>
<path d="M331 283.927H329.722V286H327.53V283.927H323V282.457L327.653 276H329.722V282.286H331V283.927ZM327.53 282.286V280.59C327.53 280.307 327.542 279.896 327.566 279.358C327.59 278.82 327.61 278.508 327.624 278.421H327.566C327.387 278.795 327.172 279.16 326.92 279.516L324.975 282.286H327.53Z" fill="white"/>
<path d="M342 123C342 129.627 336.627 135 330 135C323.373 135 318 129.627 318 123C318 116.373 323.373 111 330 111C336.627 111 342 116.373 342 123Z" fill="#E14235"/>
<path d="M334 128H326.031V126.55L328.893 124.049C329.74 123.298 330.294 122.779 330.554 122.491C330.814 122.199 331.001 121.929 331.115 121.682C331.229 121.434 331.287 121.178 331.287 120.913C331.287 120.517 331.159 120.223 330.904 120.03C330.655 119.836 330.32 119.74 329.899 119.74C329.457 119.74 329.028 119.827 328.612 120.003C328.196 120.178 327.762 120.428 327.31 120.751L326 119.409C326.561 118.996 327.027 118.704 327.396 118.533C327.765 118.362 328.168 118.232 328.604 118.142C329.041 118.047 329.53 118 330.07 118C330.782 118 331.411 118.112 331.957 118.337C332.503 118.562 332.927 118.877 333.228 119.281C333.53 119.686 333.68 120.149 333.68 120.67C333.68 121.124 333.587 121.551 333.4 121.951C333.218 122.347 332.932 122.754 332.542 123.172C332.157 123.59 331.476 124.186 330.499 124.959L329.033 126.152V126.247H334V128Z" fill="white"/>
<path d="M435 95.5C435 101.851 429.627 107 423 107C416.373 107 411 101.851 411 95.5C411 89.1487 416.373 84 423 84C429.627 84 435 89.1487 435 95.5Z" fill="#E14235"/>
<path d="M427 101H420.027V99.4053L422.531 96.6534C423.273 95.8276 423.757 95.2565 423.984 94.94C424.212 94.6186 424.376 94.3219 424.476 94.0499C424.576 93.7779 424.626 93.4961 424.626 93.2043C424.626 92.7692 424.514 92.4453 424.291 92.2326C424.073 92.02 423.78 91.9137 423.411 91.9137C423.025 91.9137 422.649 92.0101 422.286 92.203C421.922 92.3958 421.542 92.6703 421.146 93.0263L420 91.5502C420.491 91.0953 420.898 90.7739 421.221 90.586C421.544 90.3981 421.897 90.2547 422.279 90.1558C422.661 90.0519 423.088 90 423.561 90C424.185 90 424.735 90.1236 425.212 90.3709C425.69 90.6181 426.061 90.9643 426.325 91.4093C426.588 91.8543 426.72 92.3637 426.72 92.9373C426.72 93.4367 426.638 93.9065 426.475 94.3466C426.315 94.7817 426.065 95.2293 425.724 95.6891C425.388 96.149 424.792 96.8042 423.937 97.6548L422.654 98.9676V99.0715H427V101Z" fill="white"/>
<path d="M539 95.5C539 101.851 533.627 107 527 107C520.373 107 515 101.851 515 95.5C515 89.1487 520.373 84 527 84C533.627 84 539 89.1487 539 95.5Z" fill="#E14235"/>
<path d="M530.703 92.5469C530.703 93.2153 530.511 93.7838 530.128 94.2522C529.746 94.7206 529.208 95.0426 528.517 95.2182V95.2621C529.333 95.3695 529.951 95.633 530.371 96.0526C530.79 96.4673 531 97.0284 531 97.7359C531 98.7654 530.647 99.568 529.942 100.144C529.236 100.715 528.229 101 526.919 101C525.821 101 524.848 100.807 524 100.422V98.497C524.392 98.7068 524.823 98.8776 525.293 99.0093C525.764 99.1411 526.23 99.2069 526.691 99.2069C527.396 99.2069 527.917 99.0801 528.254 98.8263C528.591 98.5726 528.759 98.1652 528.759 97.6041C528.759 97.1016 528.565 96.7454 528.178 96.5356C527.791 96.3258 527.173 96.2209 526.324 96.2209H525.556V94.4864H526.338C527.122 94.4864 527.694 94.379 528.053 94.1643C528.418 93.9448 528.6 93.5715 528.6 93.0446C528.6 92.2346 528.12 91.8297 527.161 91.8297C526.829 91.8297 526.49 91.8882 526.144 92.0053C525.803 92.1224 525.423 92.3249 525.003 92.6128L524.014 91.0539C524.936 90.3513 526.036 90 527.313 90C528.36 90 529.185 90.2244 529.79 90.6733C530.398 91.1222 530.703 91.7467 530.703 92.5469Z" fill="white"/>
<path d="M607 95.5C607 101.851 601.627 107 595 107C588.373 107 583 101.851 583 95.5C583 89.1487 588.373 84 595 84C601.627 84 607 89.1487 607 95.5Z" fill="#E14235"/>
<path d="M598.66 92.5469C598.66 93.2153 598.441 93.7838 598.004 94.2522C597.567 94.7206 596.953 95.0426 596.162 95.2182V95.2621C597.095 95.3695 597.801 95.633 598.281 96.0526C598.76 96.4673 599 97.0284 599 97.7359C599 98.7654 598.597 99.568 597.791 100.144C596.984 100.715 595.833 101 594.336 101C593.082 101 591.97 100.807 591 100.422V98.497C591.448 98.7068 591.941 98.8776 592.478 99.0093C593.016 99.1411 593.548 99.2069 594.075 99.2069C594.881 99.2069 595.477 99.0801 595.862 98.8263C596.246 98.5726 596.439 98.1652 596.439 97.6041C596.439 97.1016 596.217 96.7454 595.775 96.5356C595.332 96.3258 594.626 96.2209 593.656 96.2209H592.779V94.4864H593.672C594.568 94.4864 595.221 94.379 595.632 94.1643C596.049 93.9448 596.257 93.5715 596.257 93.0446C596.257 92.2346 595.709 91.8297 594.613 91.8297C594.233 91.8297 593.846 91.8882 593.451 92.0053C593.061 92.1224 592.626 92.3249 592.146 92.6128L591.016 91.0539C592.07 90.3513 593.327 90 594.787 90C595.983 90 596.926 90.2244 597.617 90.6733C598.312 91.1222 598.66 91.7467 598.66 92.5469Z" fill="white"/>
<path d="M602 195.5C602 201.851 596.851 207 590.5 207C584.149 207 579 201.851 579 195.5C579 189.149 584.149 184 590.5 184C596.851 184 602 189.149 602 195.5Z" fill="#E14235"/>
<path d="M594.66 192.547C594.66 193.215 594.441 193.784 594.004 194.252C593.567 194.721 592.953 195.043 592.162 195.218V195.262C593.095 195.369 593.801 195.633 594.281 196.053C594.76 196.467 595 197.028 595 197.736C595 198.765 594.597 199.568 593.791 200.144C592.984 200.715 591.833 201 590.336 201C589.082 201 587.97 200.807 587 200.422V198.497C587.448 198.707 587.941 198.878 588.478 199.009C589.016 199.141 589.548 199.207 590.075 199.207C590.881 199.207 591.477 199.08 591.862 198.826C592.246 198.573 592.439 198.165 592.439 197.604C592.439 197.102 592.217 196.745 591.775 196.536C591.332 196.326 590.626 196.221 589.656 196.221H588.779V194.486H589.672C590.568 194.486 591.221 194.379 591.632 194.164C592.049 193.945 592.257 193.572 592.257 193.045C592.257 192.235 591.709 191.83 590.613 191.83C590.233 191.83 589.846 191.888 589.451 192.005C589.061 192.122 588.626 192.325 588.146 192.613L587.016 191.054C588.07 190.351 589.327 190 590.787 190C591.983 190 592.926 190.224 593.617 190.673C594.312 191.122 594.66 191.747 594.66 192.547Z" fill="white"/>
<path d="M586 268C586 274.627 580.851 280 574.5 280C568.149 280 563 274.627 563 268C563 261.373 568.149 256 574.5 256C580.851 256 586 261.373 586 268Z" fill="#E14235"/>
<path d="M577.703 265.547C577.703 266.215 577.511 266.784 577.128 267.252C576.746 267.721 576.208 268.043 575.517 268.218V268.262C576.333 268.369 576.951 268.633 577.371 269.053C577.79 269.467 578 270.028 578 270.736C578 271.765 577.647 272.568 576.942 273.144C576.236 273.715 575.229 274 573.919 274C572.821 274 571.848 273.807 571 273.422V271.497C571.392 271.707 571.823 271.878 572.293 272.009C572.764 272.141 573.23 272.207 573.691 272.207C574.396 272.207 574.917 272.08 575.254 271.826C575.591 271.573 575.759 271.165 575.759 270.604C575.759 270.102 575.565 269.745 575.178 269.536C574.791 269.326 574.173 269.221 573.324 269.221H572.556V267.486H573.338C574.122 267.486 574.694 267.379 575.053 267.164C575.418 266.945 575.6 266.572 575.6 266.045C575.6 265.235 575.12 264.83 574.161 264.83C573.829 264.83 573.49 264.888 573.144 265.005C572.803 265.122 572.423 265.325 572.003 265.613L571.014 264.054C571.936 263.351 573.036 263 574.313 263C575.36 263 576.185 263.224 576.79 263.673C577.398 264.122 577.703 264.747 577.703 265.547Z" fill="white"/>
<path d="M438 174.5C438 180.851 432.851 186 426.5 186C420.149 186 415 180.851 415 174.5C415 168.149 420.149 163 426.5 163C432.851 163 438 168.149 438 174.5Z" fill="#E14235"/>
<path d="M431 180H423.031V178.405L425.893 175.653C426.74 174.828 427.294 174.256 427.554 173.94C427.814 173.619 428.001 173.322 428.115 173.05C428.229 172.778 428.287 172.496 428.287 172.204C428.287 171.769 428.159 171.445 427.904 171.233C427.655 171.02 427.32 170.914 426.899 170.914C426.457 170.914 426.028 171.01 425.612 171.203C425.196 171.396 424.762 171.67 424.31 172.026L423 170.55C423.561 170.095 424.027 169.774 424.396 169.586C424.765 169.398 425.168 169.255 425.604 169.156C426.041 169.052 426.53 169 427.07 169C427.782 169 428.411 169.124 428.957 169.371C429.503 169.618 429.927 169.964 430.228 170.409C430.53 170.854 430.68 171.364 430.68 171.937C430.68 172.437 430.587 172.906 430.4 173.347C430.218 173.782 429.932 174.229 429.542 174.689C429.157 175.149 428.476 175.804 427.499 176.655L426.033 177.968V178.071H431V180Z" fill="white"/>
<path d="M518 175.5C518 181.851 512.627 187 506 187C499.373 187 494 181.851 494 175.5C494 169.149 499.373 164 506 164C512.627 164 518 169.149 518 175.5Z" fill="#E14235"/>
<path d="M502 170H505.358C506.888 170 507.998 170.223 508.686 170.67C509.38 171.111 509.727 171.816 509.727 172.784C509.727 173.441 509.574 173.98 509.269 174.402C508.969 174.823 508.568 175.076 508.066 175.161V175.237C508.75 175.392 509.242 175.683 509.542 176.109C509.847 176.536 510 177.103 510 177.81C510 178.813 509.643 179.596 508.93 180.157C508.221 180.719 507.257 181 506.037 181H502V170ZM504.288 174.356H505.616C506.236 174.356 506.684 174.259 506.959 174.063C507.24 173.867 507.38 173.544 507.38 173.092C507.38 172.671 507.228 172.37 506.923 172.189C506.622 172.004 506.145 171.911 505.491 171.911H504.288V174.356ZM504.288 176.207V179.074H505.779C506.408 179.074 506.873 178.951 507.173 178.705C507.474 178.459 507.624 178.083 507.624 177.577C507.624 176.664 506.984 176.207 505.705 176.207H504.288Z" fill="white"/>
<path d="M112 284.5C112 290.851 106.851 296 100.5 296C94.1487 296 89 290.851 89 284.5C89 278.149 94.1487 273 100.5 273C106.851 273 112 278.149 112 284.5Z" fill="#E14235"/>
<path d="M103.4 290L102.575 287.392H98.4253L97.6001 290H95L99.017 279H101.967L106 290H103.4ZM101.999 285.444C101.236 283.081 100.805 281.745 100.706 281.435C100.613 281.126 100.545 280.881 100.504 280.701C100.333 281.34 99.8422 282.921 99.0326 285.444H101.999Z" fill="white"/>
<path fill-rule="evenodd" clip-rule="evenodd" d="M527 136V138.429H523.575V136H527ZM527 143.287V148.146H523.575V143.287H527ZM527 153.004V157.862H523.575V153.004H527ZM527 162.72V167.578H523.575V162.72H527ZM527 172.437V177.295H523.575V172.437H527ZM527 182.153V187.011H523.575V182.153H527ZM527 191.87V196H523.134V192.597H523.575V191.87H527ZM467.153 196H465V192.597H467.153V196ZM475.766 196H471.459V192.597H475.766V196ZM484.378 196H480.072V192.597H484.378V196ZM492.991 196H488.684V192.597H492.991V196ZM501.603 196H497.297V192.597H501.603V196ZM510.215 196H505.909V192.597H510.215V196ZM518.828 196H514.522V192.597H518.828V196Z" fill="white"/>
<path d="M275.19 325.975H288.059V326.762H284.27V350.214H285.557C287.583 350.214 289.192 349.594 290.383 348.355C291.599 347.115 292.826 345.209 294.065 342.635H294.816L294.137 351H275.19V350.214H277.299V326.762H275.19V325.975ZM304.672 342.599H305.709V339.846C305.709 337.582 305.578 336.069 305.316 335.306C305.078 334.519 304.601 334.126 303.886 334.126C303.457 334.126 303.064 334.245 302.706 334.484C302.373 334.698 302.206 335.008 302.206 335.413C302.206 335.794 302.277 336.188 302.42 336.593H303.314C303.505 337.093 303.6 337.701 303.6 338.416C303.6 339.107 303.302 339.715 302.706 340.239C302.11 340.74 301.36 340.99 300.454 340.99C298.404 340.99 297.38 340.001 297.38 338.023C297.38 335.091 299.87 333.626 304.851 333.626C307.687 333.626 309.642 334.114 310.714 335.091C311.811 336.045 312.359 337.808 312.359 340.382V347.64C312.359 348.879 312.704 349.499 313.395 349.499C314.206 349.499 314.682 348.271 314.825 345.816L315.362 345.852C315.266 347.949 314.873 349.391 314.182 350.178C313.491 350.964 312.359 351.357 310.786 351.357C307.926 351.357 306.281 350.476 305.852 348.712C305.542 349.618 305.078 350.285 304.458 350.714C303.838 351.143 302.933 351.357 301.741 351.357C298.214 351.357 296.45 349.916 296.45 347.032C296.45 345.34 297.117 344.184 298.452 343.564C299.811 342.921 301.884 342.599 304.672 342.599ZM303.243 346.996C303.243 348.235 303.302 349.034 303.421 349.391C303.564 349.749 303.815 349.928 304.172 349.928C304.553 349.928 304.899 349.63 305.209 349.034C305.542 348.414 305.709 347.568 305.709 346.496V343.171H305.459C303.981 343.171 303.243 344.255 303.243 346.424V346.996ZM315.785 333.983H324.4V337.272C324.782 336.176 325.365 335.294 326.152 334.627C326.938 333.959 328.13 333.626 329.727 333.626C333.421 333.626 335.268 335.616 335.268 339.596V350.357H337.27V351H327.153V350.357H328.619V338.738C328.619 337.308 328.523 336.39 328.333 335.985C328.142 335.556 327.796 335.342 327.296 335.342C326.533 335.342 325.854 335.842 325.258 336.843C324.686 337.844 324.4 339.06 324.4 340.49V350.357H325.937V351H315.785V350.357H317.751V334.627H315.785V333.983ZM339.355 345.888V334.627H337.389V333.983H339.355V329.371L346.005 327.727V333.983H350.652V334.627H346.005V346.674C346.005 347.794 346.112 348.617 346.327 349.141C346.565 349.665 347.042 349.928 347.757 349.928C348.472 349.928 349.091 349.57 349.616 348.855C350.164 348.14 350.521 347.163 350.688 345.924L351.296 345.995C351.105 347.64 350.581 348.95 349.723 349.928C348.865 350.881 347.447 351.357 345.469 351.357C343.49 351.357 341.977 350.964 340.928 350.178C339.88 349.391 339.355 347.961 339.355 345.888ZM360.217 342.599H361.254V339.846C361.254 337.582 361.123 336.069 360.861 335.306C360.622 334.519 360.146 334.126 359.431 334.126C359.002 334.126 358.609 334.245 358.251 334.484C357.917 334.698 357.751 335.008 357.751 335.413C357.751 335.794 357.822 336.188 357.965 336.593H358.859C359.049 337.093 359.145 337.701 359.145 338.416C359.145 339.107 358.847 339.715 358.251 340.239C357.655 340.74 356.904 340.99 355.999 340.99C353.949 340.99 352.924 340.001 352.924 338.023C352.924 335.091 355.415 333.626 360.396 333.626C363.232 333.626 365.186 334.114 366.259 335.091C367.355 336.045 367.903 337.808 367.903 340.382V347.64C367.903 348.879 368.249 349.499 368.94 349.499C369.751 349.499 370.227 348.271 370.37 345.816L370.906 345.852C370.811 347.949 370.418 349.391 369.727 350.178C369.036 350.964 367.903 351.357 366.33 351.357C363.471 351.357 361.826 350.476 361.397 348.712C361.087 349.618 360.622 350.285 360.003 350.714C359.383 351.143 358.477 351.357 357.286 351.357C353.758 351.357 351.995 349.916 351.995 347.032C351.995 345.34 352.662 344.184 353.997 343.564C355.355 342.921 357.429 342.599 360.217 342.599ZM358.787 346.996C358.787 348.235 358.847 349.034 358.966 349.391C359.109 349.749 359.359 349.928 359.717 349.928C360.098 349.928 360.444 349.63 360.754 349.034C361.087 348.414 361.254 347.568 361.254 346.496V343.171H361.004C359.526 343.171 358.787 344.255 358.787 346.424V346.996ZM376.513 331.516C375.25 331.516 374.344 331.195 373.796 330.551C373.272 329.908 373.01 329.109 373.01 328.156C373.01 327.203 373.296 326.416 373.868 325.796C374.463 325.177 375.357 324.867 376.549 324.867C377.74 324.867 378.646 325.153 379.266 325.725C379.885 326.273 380.195 327.071 380.195 328.12C380.195 329.145 379.897 329.967 379.302 330.587C378.706 331.207 377.776 331.516 376.513 331.516ZM371.115 333.983H379.874V350.357H381.875V351H371.258V350.357H373.224V334.627H371.115V333.983ZM393.211 326.905L389.278 327.405L389.207 326.69L397.286 325.582H400.182V350.321H402.97V351H389.457V350.321H393.211V326.905Z" fill="#181818"/>
</svg>
