<svg width="648" height="432" viewBox="0 0 648 432" fill="none" xmlns="http://www.w3.org/2000/svg">
<rect x="0.5" y="0.5" width="647" height="431" rx="9.5" stroke="#6699FF"/>
<path fill-rule="evenodd" clip-rule="evenodd" d="M623 57H281.48V76.7887H42V333H281.48H284.083H623V57Z" fill="#05AC72"/>
<path fill-rule="evenodd" clip-rule="evenodd" d="M281.48 76.7887H42V333H623V57H281.48V76.7887ZM284.083 59.6038V79.3925H44.603V330.396H620.397V59.6038H284.083Z" fill="white"/>
<path d="M42 77H196V198H42V77Z" fill="#05AC72"/>
<path fill-rule="evenodd" clip-rule="evenodd" d="M193.399 79.5966H44.6014V195.403H193.399V79.5966ZM42 77V198H196V77H42Z" fill="white"/>
<path d="M312 57H349V107H312V57Z" fill="#05AC72"/>
<path fill-rule="evenodd" clip-rule="evenodd" d="M346.431 59.6316H314.569V104.368H346.431V59.6316ZM312 57V107H349V57H312Z" fill="white"/>
<path d="M347 58H440V195H347V58Z" fill="#05AC72"/>
<path fill-rule="evenodd" clip-rule="evenodd" d="M437.402 60.6046H349.598V192.395H437.402V60.6046ZM347 58V195H440V58H347Z" fill="white"/>
<path d="M437 58H532V195H437V58Z" fill="#05AC72"/>
<path fill-rule="evenodd" clip-rule="evenodd" d="M529.39 60.6145H439.61V192.385H529.39V60.6145ZM437 58V195H532V58H437Z" fill="white"/>
<path d="M529 58H623V194H529V58Z" fill="#05AC72"/>
<path fill-rule="evenodd" clip-rule="evenodd" d="M620.389 60.6346H531.611V192.365H620.389V60.6346ZM529 58V195H623V58H529Z" fill="white"/>
<path d="M529 225H623V333H529V225Z" fill="#05AC72"/>
<path fill-rule="evenodd" clip-rule="evenodd" d="M620.389 227.609H531.611V330.391H620.389V227.609ZM529 225V333H623V225H529Z" fill="white"/>
<path d="M436 225H532V333H436V225Z" fill="#05AC72"/>
<path fill-rule="evenodd" clip-rule="evenodd" d="M529.405 227.609H438.595V330.391H529.405V227.609ZM436 225V333H532V225H436Z" fill="white"/>
<path d="M376 225H437V333H376V225Z" fill="#05AC72"/>
<path fill-rule="evenodd" clip-rule="evenodd" d="M434.415 227.609H378.585V330.391H434.415V227.609ZM376 225V333H437V225H376Z" fill="white"/>
<path d="M312 104H349V137H312V104Z" fill="#05AC72"/>
<path fill-rule="evenodd" clip-rule="evenodd" d="M346.431 106.661H314.569V134.339H346.431V106.661ZM312 104V137H349V104H312Z" fill="white"/>
<path d="M312 134H349V166H312V134Z" fill="#05AC72"/>
<path fill-rule="evenodd" clip-rule="evenodd" d="M346.431 136.581H314.569V163.419H346.431V136.581ZM312 134V166H349V134H312Z" fill="white"/>
<path d="M312 163H349V195H312V163Z" fill="#05AC72"/>
<path fill-rule="evenodd" clip-rule="evenodd" d="M346.431 165.581H314.569V192.419H346.431V165.581ZM312 163V195H349V163H312Z" fill="white"/>
<path d="M336 225H378V257H336V225Z" fill="#05AC72"/>
<path fill-rule="evenodd" clip-rule="evenodd" d="M375.375 227.581H338.625V254.419H375.375V227.581ZM336 225V257H378V225H336Z" fill="white"/>
<path d="M336 255H378V287H336V255Z" fill="#05AC72"/>
<path fill-rule="evenodd" clip-rule="evenodd" d="M375.375 257.581H338.625V284.419H375.375V257.581ZM336 255V287H378V255H336Z" fill="white"/>
<path d="M324 285H378V333H324V285Z" fill="#05AC72"/>
<path fill-rule="evenodd" clip-rule="evenodd" d="M375.429 287.609H326.571V330.391H375.429V287.609ZM324 285V333H378V285H324Z" fill="white"/>
<path d="M26 195H132V332H26V195Z" fill="#05AC72"/>
<path fill-rule="evenodd" clip-rule="evenodd" d="M129.415 197.604H28.5854V330.396H129.415V197.604ZM26 195V333H132V195H26Z" fill="white"/>
<path fill-rule="evenodd" clip-rule="evenodd" d="M238 301H203.721V313.066H194V333H203.721H228.279H238V301Z" fill="#05AC72"/>
<path fill-rule="evenodd" clip-rule="evenodd" d="M194 301V313.066V333H238V301H203.721H194ZM206.279 303.623L196.558 303.623L196.558 315.689V330.377H235.442V303.623H206.279Z" fill="white"/>
<path d="M236 309H257V333H236V309Z" fill="#05AC72"/>
<path fill-rule="evenodd" clip-rule="evenodd" d="M254.375 311.553H238.625V330.447H254.375V311.553ZM236 309V333H257V309H236Z" fill="white"/>
<path fill-rule="evenodd" clip-rule="evenodd" d="M326 285H271.464V308.478H255V333H326V312.13V308.478V285Z" fill="#05AC72"/>
<path fill-rule="evenodd" clip-rule="evenodd" d="M290.112 308.933H263.232H255V333H326V285H290.112V308.933ZM292.685 287.609V311.087H257.572V330.391H323.428V287.609H292.685Z" fill="white"/>
<path d="M229 253H260V287H229V253Z" fill="#05AC72"/>
<path fill-rule="evenodd" clip-rule="evenodd" d="M257.417 255.698H231.583V284.302H257.417V255.698ZM229 253V287H260V253H229Z" fill="white"/>
<path d="M198 253H231V287H198V253Z" fill="#05AC72"/>
<path fill-rule="evenodd" clip-rule="evenodd" d="M228.339 255.698H200.661V284.302H228.339V255.698ZM198 253V287H231V253H198Z" fill="white"/>
<path d="M164 253H201V287H164V253Z" fill="#05AC72"/>
<path fill-rule="evenodd" clip-rule="evenodd" d="M198.431 255.698H166.569V284.302H198.431V255.698ZM164 253V287H201V253H164Z" fill="white"/>
<path fill-rule="evenodd" clip-rule="evenodd" d="M267 285H292V311H267V285ZM269.455 287.466V308.534H289.545V287.466H269.455Z" fill="white"/>
<path fill-rule="evenodd" clip-rule="evenodd" d="M204.893 266.219L209.165 261.814C209.427 261.544 209.858 261.537 210.129 261.799L214.534 266.071C214.804 266.333 214.811 266.765 214.548 267.035C214.286 267.305 213.855 267.312 213.584 267.05L210.361 263.924L210.563 277.05L209.2 277.071L208.998 263.945L205.872 267.168C205.61 267.439 205.178 267.445 204.908 267.183C204.638 266.921 204.631 266.49 204.893 266.219Z" fill="white"/>
<path fill-rule="evenodd" clip-rule="evenodd" d="M224.801 273.302L220.48 277.793C220.215 278.069 219.785 278.069 219.52 277.793L215.199 273.302C214.934 273.026 214.934 272.579 215.199 272.303C215.464 272.028 215.894 272.028 216.159 272.303L219.321 275.59V262H220.679V275.59L223.841 272.303C224.106 272.028 224.536 272.028 224.801 272.303C225.066 272.579 225.066 273.026 224.801 273.302Z" fill="white"/>
<path fill-rule="evenodd" clip-rule="evenodd" d="M234.209 265.765L238.481 261.36C238.743 261.089 239.175 261.083 239.445 261.345L243.85 265.616C244.12 265.878 244.127 266.31 243.865 266.58C243.603 266.851 243.171 266.857 242.901 266.595L239.677 263.47L239.879 276.595L238.516 276.616L238.314 263.49L235.188 266.714C234.926 266.984 234.495 266.991 234.224 266.729C233.954 266.467 233.947 266.035 234.209 265.765Z" fill="white"/>
<path fill-rule="evenodd" clip-rule="evenodd" d="M253.801 272.595L249.48 276.806C249.215 277.065 248.785 277.065 248.52 276.806L244.199 272.595C243.934 272.337 243.934 271.918 244.199 271.659C244.464 271.401 244.894 271.401 245.159 271.659L248.321 274.741V262H249.679V274.741L252.841 271.659C253.106 271.401 253.536 271.401 253.801 271.659C254.066 271.918 254.066 272.337 253.801 272.595Z" fill="white"/>
<path d="M217 310C217 310.552 216.328 311 215.5 311C214.672 311 214 310.552 214 310C214 309.448 214.672 309 215.5 309C216.328 309 217 309.448 217 310Z" fill="white"/>
<path fill-rule="evenodd" clip-rule="evenodd" d="M213.927 314.149L211.76 321.128H213.827C213.82 321.164 213.816 321.202 213.816 321.24V326.35C213.816 326.708 214.139 326.999 214.538 326.999C214.936 326.999 215.259 326.708 215.259 326.35V321.24C215.259 321.202 215.256 321.164 215.249 321.128H215.408V321.129H215.751C215.744 321.166 215.741 321.203 215.741 321.241V326.351C215.741 326.709 216.064 327 216.462 327C216.861 327 217.184 326.709 217.184 326.351V321.241C217.184 321.203 217.18 321.166 217.173 321.129H219.24L217.073 314.15H217.384L218.693 318.157C218.812 318.521 219.27 318.69 219.643 318.508C219.924 318.37 220.062 318.075 219.974 317.8L218.473 313.128C218.446 313.043 218.4 312.968 218.34 312.905L218.349 312.903C218.183 312.564 217.567 311.929 216.408 312.008L216.407 312.003H215.408V312.018L215.407 312.001H214.593L214.592 312.007C213.433 311.928 212.817 312.562 212.651 312.902L212.66 312.903C212.6 312.967 212.554 313.042 212.527 313.127L211.026 317.799C210.938 318.073 211.076 318.369 211.357 318.506C211.73 318.689 212.188 318.519 212.307 318.155L213.616 314.149H213.927Z" fill="white"/>
<path fill-rule="evenodd" clip-rule="evenodd" d="M306.57 304.69C307.69 304.69 308.599 303.864 308.599 302.845C308.599 301.826 307.69 301 306.57 301C305.45 301 304.541 301.826 304.541 302.845C304.541 303.864 305.45 304.69 306.57 304.69ZM304.047 307.656V315.293L304.071 315.268V319.949C304.071 320.53 304.578 321 305.203 321C305.829 321 306.335 320.53 306.335 319.949V312.958L306.381 312.911V312.488H306.619V312.911L306.665 312.957V319.949C306.665 320.53 307.171 321 307.797 321C308.422 321 308.929 320.53 308.929 319.949V315.268L308.953 315.292V307.656H309.253L309.296 312.304C309.3 312.793 309.778 313.157 310.297 313.067C310.705 312.996 311.002 312.665 311 312.281L310.977 306.577C310.977 306.433 310.935 306.296 310.861 306.178L310.863 306.178C310.68 305.83 310.068 305.221 308.953 305.123V305.11H308.736C308.672 305.109 308.606 305.108 308.539 305.11H307.802V305.109H305.443V305.111H304.476C304.399 305.108 304.323 305.108 304.249 305.111H304.047V305.123C302.932 305.221 302.32 305.83 302.137 306.178L302.139 306.178C302.065 306.296 302.023 306.433 302.023 306.577L302 312.281C301.998 312.665 302.295 312.996 302.703 313.067C303.222 313.157 303.7 312.793 303.704 312.304L303.747 307.656H304.047Z" fill="white"/>
<path d="M70.2715 255.867L69.5572 253.555H65.9652L65.2509 255.867H63L66.4774 246.113H69.0315L72.5224 255.867H70.2715ZM69.0585 251.827C68.398 249.732 68.0251 248.547 67.9398 248.272C67.8589 247.998 67.8005 247.781 67.7646 247.621C67.6163 248.188 67.1917 249.59 66.4909 251.827H69.0585Z" fill="#FBFBFB"/>
<path d="M73.0143 251.741C73.0143 249.818 73.4254 248.388 74.2476 247.449C75.0743 246.509 76.3098 246.04 77.9541 246.04C78.5157 246.04 78.956 246.073 79.275 246.14V247.781C78.8751 247.692 78.4798 247.648 78.0889 247.648C77.3746 247.648 76.7905 247.754 76.3367 247.967C75.8875 248.179 75.5505 248.494 75.3259 248.91C75.1012 249.327 74.9687 249.918 74.9283 250.684H75.0159C75.4607 249.931 76.1728 249.555 77.1522 249.555C78.0328 249.555 78.7224 249.827 79.2211 250.372C79.7198 250.917 79.9691 251.67 79.9691 252.631C79.9691 253.668 79.6726 254.489 79.0796 255.096C78.4865 255.699 77.6643 256 76.613 256C75.8852 256 75.2495 255.834 74.7059 255.502C74.1667 255.169 73.7489 254.684 73.4524 254.047C73.1604 253.409 73.0143 252.64 73.0143 251.741ZM76.5726 254.359C77.0174 254.359 77.3588 254.213 77.597 253.92C77.8351 253.623 77.9541 253.203 77.9541 252.658C77.9541 252.184 77.8418 251.812 77.6172 251.542C77.397 251.267 77.0623 251.13 76.613 251.13C76.1907 251.13 75.8291 251.265 75.528 251.535C75.2315 251.805 75.0833 252.12 75.0833 252.478C75.0833 253.006 75.2225 253.451 75.5011 253.814C75.7841 254.177 76.1413 254.359 76.5726 254.359Z" fill="#FBFBFB"/>
<path d="M87.8 251.01C87.8 252.707 87.517 253.962 86.9509 254.777C86.3893 255.592 85.5222 256 84.3496 256C83.2129 256 82.3548 255.579 81.7752 254.738C81.2001 253.896 80.9126 252.653 80.9126 251.01C80.9126 249.296 81.1934 248.033 81.755 247.223C82.3166 246.408 83.1814 246 84.3496 246C85.4862 246 86.3443 246.425 86.9239 247.276C87.508 248.126 87.8 249.371 87.8 251.01ZM82.9815 251.01C82.9815 252.202 83.0849 253.056 83.2915 253.575C83.5027 254.089 83.8554 254.346 84.3496 254.346C84.8348 254.346 85.1852 254.084 85.4009 253.561C85.6165 253.039 85.7243 252.188 85.7243 251.01C85.7243 249.818 85.6143 248.963 85.3941 248.445C85.1785 247.922 84.8303 247.661 84.3496 247.661C83.8599 247.661 83.5094 247.922 83.2983 248.445C83.0871 248.963 82.9815 249.818 82.9815 251.01Z" fill="#FBFBFB"/>
<path d="M94 255.867H91.9176V250.246L91.9378 249.322L91.9715 248.312C91.6256 248.653 91.3852 248.877 91.2504 248.983L90.1183 249.88L89.1141 248.645L92.2883 246.153H94V255.867Z" fill="#FBFBFB"/>
<path d="M110.107 130.867L109.409 128.555H105.898L105.2 130.867H103L106.399 121.113H108.895L112.308 130.867H110.107ZM108.922 126.827C108.276 124.732 107.912 123.547 107.828 123.272C107.749 122.998 107.692 122.781 107.657 122.621C107.512 123.188 107.097 124.59 106.412 126.827H108.922Z" fill="#FBFBFB"/>
<path d="M112.788 126.741C112.788 124.818 113.19 123.388 113.994 122.449C114.802 121.509 116.009 121.04 117.617 121.04C118.166 121.04 118.596 121.073 118.908 121.14V122.781C118.517 122.692 118.131 122.648 117.748 122.648C117.05 122.648 116.479 122.754 116.036 122.967C115.597 123.179 115.267 123.494 115.048 123.91C114.828 124.327 114.699 124.918 114.659 125.684H114.745C115.179 124.931 115.876 124.555 116.833 124.555C117.694 124.555 118.368 124.827 118.855 125.372C119.343 125.917 119.586 126.67 119.586 127.631C119.586 128.668 119.296 129.489 118.717 130.096C118.137 130.699 117.333 131 116.306 131C115.594 131 114.973 130.834 114.442 130.502C113.915 130.169 113.506 129.684 113.217 129.047C112.931 128.409 112.788 127.64 112.788 126.741ZM116.266 129.359C116.701 129.359 117.035 129.213 117.268 128.92C117.5 128.623 117.617 128.203 117.617 127.658C117.617 127.184 117.507 126.812 117.287 126.542C117.072 126.267 116.745 126.13 116.306 126.13C115.893 126.13 115.54 126.265 115.245 126.535C114.956 126.805 114.811 127.12 114.811 127.478C114.811 128.006 114.947 128.451 115.219 128.814C115.496 129.177 115.845 129.359 116.266 129.359Z" fill="#FBFBFB"/>
<path d="M127.24 126.01C127.24 127.707 126.964 128.962 126.41 129.777C125.862 130.592 125.014 131 123.868 131C122.757 131 121.918 130.579 121.352 129.738C120.789 128.896 120.508 127.653 120.508 126.01C120.508 124.296 120.783 123.033 121.332 122.223C121.881 121.408 122.726 121 123.868 121C124.979 121 125.818 121.425 126.384 122.276C126.955 123.126 127.24 124.371 127.24 126.01ZM122.531 126.01C122.531 127.202 122.632 128.056 122.834 128.575C123.04 129.089 123.385 129.346 123.868 129.346C124.342 129.346 124.685 129.084 124.895 128.561C125.106 128.039 125.212 127.188 125.212 126.01C125.212 124.818 125.104 123.963 124.889 123.445C124.678 122.922 124.338 122.661 123.868 122.661C123.389 122.661 123.047 122.922 122.84 123.445C122.634 123.963 122.531 124.818 122.531 126.01Z" fill="#FBFBFB"/>
<path d="M135 130.867H128.268V129.439L130.685 126.973C131.401 126.234 131.869 125.722 132.089 125.439C132.308 125.151 132.466 124.885 132.563 124.641C132.659 124.398 132.708 124.145 132.708 123.884C132.708 123.494 132.6 123.204 132.385 123.013C132.174 122.823 131.891 122.728 131.535 122.728C131.162 122.728 130.8 122.814 130.448 122.987C130.097 123.159 129.73 123.405 129.348 123.724L128.242 122.402C128.716 121.994 129.109 121.707 129.421 121.538C129.733 121.37 130.073 121.241 130.442 121.153C130.811 121.06 131.223 121.013 131.68 121.013C132.282 121.013 132.813 121.124 133.274 121.346C133.735 121.567 134.093 121.877 134.348 122.276C134.603 122.674 134.73 123.131 134.73 123.645C134.73 124.092 134.651 124.513 134.493 124.907C134.339 125.297 134.098 125.698 133.768 126.11C133.443 126.522 132.868 127.109 132.042 127.87L130.804 129.047V129.14H135V130.867Z" fill="#FBFBFB"/>
<path d="M384.107 121.867L383.409 119.555H379.898L379.2 121.867H377L380.399 112.113H382.895L386.308 121.867H384.107ZM382.922 117.827C382.276 115.732 381.912 114.547 381.828 114.272C381.749 113.998 381.692 113.781 381.657 113.621C381.512 114.188 381.097 115.59 380.412 117.827H382.922Z" fill="#FBFBFB"/>
<path d="M386.788 117.741C386.788 115.818 387.19 114.388 387.994 113.449C388.802 112.509 390.009 112.04 391.617 112.04C392.166 112.04 392.596 112.073 392.908 112.14V113.781C392.517 113.692 392.131 113.648 391.748 113.648C391.05 113.648 390.479 113.754 390.036 113.967C389.597 114.179 389.267 114.494 389.048 114.91C388.828 115.327 388.699 115.918 388.659 116.684H388.745C389.179 115.931 389.876 115.555 390.833 115.555C391.694 115.555 392.368 115.827 392.855 116.372C393.343 116.917 393.586 117.67 393.586 118.631C393.586 119.668 393.296 120.489 392.717 121.096C392.137 121.699 391.333 122 390.306 122C389.594 122 388.973 121.834 388.442 121.502C387.915 121.169 387.506 120.684 387.217 120.047C386.931 119.409 386.788 118.64 386.788 117.741ZM390.266 120.359C390.701 120.359 391.035 120.213 391.268 119.92C391.5 119.623 391.617 119.203 391.617 118.658C391.617 118.184 391.507 117.812 391.287 117.542C391.072 117.267 390.745 117.13 390.306 117.13C389.893 117.13 389.54 117.265 389.245 117.535C388.956 117.805 388.811 118.12 388.811 118.478C388.811 119.006 388.947 119.451 389.219 119.814C389.496 120.177 389.845 120.359 390.266 120.359Z" fill="#FBFBFB"/>
<path d="M401.24 117.01C401.24 118.707 400.964 119.962 400.41 120.777C399.862 121.592 399.014 122 397.868 122C396.757 122 395.918 121.579 395.352 120.738C394.789 119.896 394.508 118.653 394.508 117.01C394.508 115.296 394.783 114.033 395.332 113.223C395.881 112.408 396.726 112 397.868 112C398.979 112 399.818 112.425 400.384 113.276C400.955 114.126 401.24 115.371 401.24 117.01ZM396.531 117.01C396.531 118.202 396.632 119.056 396.834 119.575C397.04 120.089 397.385 120.346 397.868 120.346C398.342 120.346 398.685 120.084 398.895 119.561C399.106 119.039 399.212 118.188 399.212 117.01C399.212 115.818 399.104 114.963 398.889 114.445C398.678 113.922 398.338 113.661 397.868 113.661C397.389 113.661 397.047 113.922 396.84 114.445C396.634 114.963 396.531 115.818 396.531 117.01Z" fill="#FBFBFB"/>
<path d="M403.223 121.867L406.839 113.894H402.09V112.166H409V113.455L405.357 121.867H403.223Z" fill="#FBFBFB"/>
<path d="M323.15 80L322.878 82.5685L325.355 81.8426L325.574 83.6015L323.316 83.769L324.797 85.842L323.29 86.6865L322.254 84.5019L321.344 86.6726L319.777 85.842L321.244 83.769L319 83.5876L319.259 81.8426L321.683 82.5685L321.411 80H323.15Z" fill="#FBFBFB"/>
<path d="M333.27 85.7582C333.27 87.5404 332.992 88.8596 332.434 89.7157C331.88 90.5719 331.026 91 329.871 91C328.75 91 327.905 90.558 327.334 89.6739C326.767 88.7898 326.484 87.4846 326.484 85.7582C326.484 83.9575 326.761 82.6313 327.314 81.7798C327.867 80.9236 328.719 80.4956 329.871 80.4956C330.991 80.4956 331.836 80.9423 332.407 81.8357C332.983 82.7291 333.27 84.0366 333.27 85.7582ZM328.522 85.7582C328.522 87.0099 328.624 87.908 328.828 88.4524C329.036 88.9922 329.384 89.2621 329.871 89.2621C330.349 89.2621 330.694 88.9875 330.906 88.4385C331.119 87.8894 331.225 86.996 331.225 85.7582C331.225 84.5066 331.117 83.6085 330.9 83.0641C330.687 82.515 330.344 82.2405 329.871 82.2405C329.388 82.2405 329.043 82.515 328.835 83.0641C328.627 83.6085 328.522 84.5066 328.522 85.7582Z" fill="#FBFBFB"/>
<path d="M340.714 82.9385C340.714 83.5759 340.531 84.118 340.163 84.5647C339.796 85.0114 339.28 85.3185 338.616 85.486V85.5279C339.4 85.6303 339.993 85.8816 340.396 86.2817C340.799 86.6772 341 87.2124 341 87.8871C341 88.8689 340.661 89.6343 339.984 90.1834C339.307 90.7278 338.339 91 337.082 91C336.028 91 335.094 90.8162 334.28 90.4486V88.6129C334.656 88.813 335.07 88.9759 335.522 89.1015C335.973 89.2272 336.42 89.29 336.863 89.29C337.54 89.29 338.041 89.169 338.364 88.927C338.687 88.6851 338.848 88.2965 338.848 87.7614C338.848 87.2821 338.663 86.9425 338.291 86.7424C337.919 86.5423 337.326 86.4423 336.511 86.4423H335.774V84.7881H336.524C337.277 84.7881 337.826 84.6857 338.171 84.481C338.521 84.2716 338.696 83.9156 338.696 83.4131C338.696 82.6407 338.235 82.2544 337.315 82.2544C336.996 82.2544 336.67 82.3103 336.338 82.422C336.011 82.5336 335.646 82.7267 335.243 83.0013L334.293 81.5146C335.178 80.8445 336.234 80.5095 337.461 80.5095C338.466 80.5095 339.258 80.7236 339.838 81.1516C340.422 81.5797 340.714 82.1753 340.714 82.9385Z" fill="#FBFBFB"/>
<path d="M323.278 116L322.998 118.569L325.551 117.843L325.777 119.602L323.449 119.769L324.976 121.842L323.422 122.687L322.354 120.502L321.416 122.673L319.801 121.842L321.314 119.769L319 119.588L319.267 117.843L321.765 118.569L321.485 116H323.278Z" fill="#FBFBFB"/>
<path d="M333.71 121.758C333.71 123.54 333.423 124.86 332.848 125.716C332.277 126.572 331.397 127 330.206 127C329.051 127 328.179 126.558 327.591 125.674C327.007 124.79 326.715 123.485 326.715 121.758C326.715 119.957 327 118.631 327.57 117.78C328.141 116.924 329.019 116.496 330.206 116.496C331.36 116.496 332.232 116.942 332.821 117.836C333.414 118.729 333.71 120.037 333.71 121.758ZM328.816 121.758C328.816 123.01 328.921 123.908 329.131 124.452C329.345 124.992 329.704 125.262 330.206 125.262C330.699 125.262 331.054 124.988 331.274 124.438C331.493 123.889 331.602 122.996 331.602 121.758C331.602 120.507 331.49 119.609 331.267 119.064C331.048 118.515 330.694 118.24 330.206 118.24C329.708 118.24 329.352 118.515 329.138 119.064C328.923 119.609 328.816 120.507 328.816 121.758Z" fill="#FBFBFB"/>
<path d="M342 124.746H340.795V126.86H338.728V124.746H334.457V123.245L338.844 116.656H340.795V123.07H342V124.746ZM338.728 123.07V121.339C338.728 121.051 338.739 120.632 338.762 120.083C338.785 119.534 338.803 119.215 338.817 119.127H338.762C338.593 119.508 338.39 119.881 338.153 120.244L336.318 123.07H338.728Z" fill="#FBFBFB"/>
<path d="M567.342 272.867L566.62 270.555H562.994L562.273 272.867H560L563.511 263.113H566.09L569.614 272.867H567.342ZM566.117 268.827C565.45 266.732 565.074 265.547 564.987 265.272C564.906 264.998 564.847 264.781 564.811 264.621C564.661 265.188 564.232 266.59 563.525 268.827H566.117Z" fill="#FBFBFB"/>
<path d="M570.111 268.741C570.111 266.818 570.526 265.388 571.356 264.449C572.191 263.509 573.438 263.04 575.098 263.04C575.665 263.04 576.11 263.073 576.432 263.14V264.781C576.028 264.692 575.629 264.648 575.234 264.648C574.513 264.648 573.924 264.754 573.465 264.967C573.012 265.179 572.672 265.494 572.445 265.91C572.218 266.327 572.084 266.918 572.043 267.684H572.132C572.581 266.931 573.3 266.555 574.289 266.555C575.178 266.555 575.874 266.827 576.378 267.372C576.881 267.917 577.133 268.67 577.133 269.631C577.133 270.668 576.833 271.489 576.235 272.096C575.636 272.699 574.806 273 573.744 273C573.009 273 572.368 272.834 571.819 272.502C571.274 272.169 570.853 271.684 570.553 271.047C570.258 270.409 570.111 269.64 570.111 268.741ZM573.704 271.359C574.153 271.359 574.497 271.213 574.738 270.92C574.978 270.623 575.098 270.203 575.098 269.658C575.098 269.184 574.985 268.812 574.758 268.542C574.536 268.267 574.198 268.13 573.744 268.13C573.318 268.13 572.953 268.265 572.649 268.535C572.349 268.805 572.2 269.12 572.2 269.478C572.2 270.006 572.34 270.451 572.622 270.814C572.907 271.177 573.268 271.359 573.704 271.359Z" fill="#FBFBFB"/>
<path d="M583.338 272.867H581.236V267.246L581.256 266.322L581.29 265.312C580.941 265.653 580.698 265.877 580.562 265.983L579.419 266.88L578.405 265.645L581.61 263.153H583.338V272.867Z" fill="#FBFBFB"/>
<path d="M593 268.01C593 269.707 592.714 270.962 592.143 271.777C591.576 272.592 590.7 273 589.516 273C588.369 273 587.502 272.579 586.917 271.738C586.336 270.896 586.046 269.653 586.046 268.01C586.046 266.296 586.33 265.033 586.897 264.223C587.464 263.408 588.337 263 589.516 263C590.664 263 591.53 263.425 592.115 264.276C592.705 265.126 593 266.371 593 268.01ZM588.135 268.01C588.135 269.202 588.239 270.056 588.448 270.575C588.661 271.089 589.017 271.346 589.516 271.346C590.006 271.346 590.36 271.084 590.578 270.561C590.795 270.039 590.904 269.188 590.904 268.01C590.904 266.818 590.793 265.963 590.571 265.445C590.353 264.922 590.002 264.661 589.516 264.661C589.022 264.661 588.668 264.922 588.455 265.445C588.242 265.963 588.135 266.818 588.135 268.01Z" fill="#FBFBFB"/>
<path d="M473.272 272.867L472.557 270.545H468.965L468.251 272.867H466L469.477 263.073H472.032L475.522 272.867H473.272ZM472.058 268.811C471.398 266.707 471.025 265.517 470.94 265.241C470.859 264.966 470.801 264.748 470.765 264.588C470.616 265.157 470.192 266.565 469.491 268.811H472.058Z" fill="#FBFBFB"/>
<path d="M476.014 268.724C476.014 266.794 476.425 265.357 477.248 264.414C478.074 263.471 479.31 263 480.954 263C481.516 263 481.956 263.033 482.275 263.1V264.748C481.875 264.659 481.48 264.614 481.089 264.614C480.375 264.614 479.791 264.721 479.337 264.935C478.887 265.148 478.551 265.464 478.326 265.882C478.101 266.3 477.969 266.894 477.928 267.663H478.016C478.461 266.907 479.173 266.529 480.152 266.529C481.033 266.529 481.722 266.803 482.221 267.35C482.72 267.897 482.969 268.653 482.969 269.618C482.969 270.658 482.673 271.483 482.08 272.093C481.487 272.698 480.664 273 479.613 273C478.885 273 478.249 272.833 477.706 272.5C477.167 272.166 476.749 271.679 476.452 271.039C476.16 270.398 476.014 269.627 476.014 268.724ZM479.573 271.352C480.017 271.352 480.359 271.205 480.597 270.912C480.835 270.614 480.954 270.191 480.954 269.644C480.954 269.169 480.842 268.795 480.617 268.524C480.397 268.248 480.062 268.11 479.613 268.11C479.191 268.11 478.829 268.246 478.528 268.517C478.232 268.788 478.083 269.104 478.083 269.464C478.083 269.994 478.223 270.441 478.501 270.805C478.784 271.17 479.141 271.352 479.573 271.352Z" fill="#FBFBFB"/>
<path d="M489.115 272.867H487.033V267.223L487.053 266.296L487.087 265.282C486.741 265.624 486.5 265.849 486.366 265.955L485.233 266.856L484.229 265.615L487.403 263.113H489.115V272.867Z" fill="#FBFBFB"/>
<path d="M497 272.867H494.918V267.223L494.938 266.296L494.972 265.282C494.626 265.624 494.385 265.849 494.25 265.955L493.118 266.856L492.114 265.615L495.288 263.113H497V272.867Z" fill="#FBFBFB"/>
<path d="M397.107 272.867L396.409 270.552H392.898L392.2 272.867H390L393.399 263.1H395.895L399.308 272.867H397.107ZM395.922 268.822C395.276 266.724 394.912 265.537 394.828 265.262C394.749 264.987 394.692 264.77 394.657 264.61C394.512 265.178 394.097 266.582 393.412 268.822H395.922Z" fill="#FBFBFB"/>
<path d="M399.788 268.735C399.788 266.81 400.19 265.377 400.994 264.437C401.802 263.497 403.009 263.027 404.617 263.027C405.166 263.027 405.596 263.06 405.908 263.126V264.77C405.517 264.681 405.131 264.637 404.748 264.637C404.05 264.637 403.479 264.743 403.036 264.956C402.597 265.169 402.267 265.484 402.048 265.901C401.828 266.318 401.699 266.91 401.659 267.677H401.745C402.179 266.923 402.876 266.546 403.833 266.546C404.694 266.546 405.368 266.819 405.855 267.365C406.343 267.91 406.586 268.664 406.586 269.627C406.586 270.665 406.296 271.487 405.717 272.095C405.137 272.698 404.333 273 403.306 273C402.594 273 401.973 272.834 401.442 272.501C400.915 272.168 400.506 271.683 400.217 271.044C399.931 270.405 399.788 269.636 399.788 268.735ZM403.266 271.357C403.701 271.357 404.035 271.21 404.268 270.917C404.5 270.62 404.617 270.199 404.617 269.653C404.617 269.179 404.507 268.806 404.287 268.536C404.072 268.261 403.745 268.123 403.306 268.123C402.893 268.123 402.54 268.258 402.245 268.529C401.956 268.8 401.811 269.114 401.811 269.474C401.811 270.002 401.947 270.447 402.219 270.811C402.496 271.175 402.845 271.357 403.266 271.357Z" fill="#FBFBFB"/>
<path d="M412.594 272.867H410.558V267.238L410.578 266.313L410.611 265.302C410.273 265.644 410.038 265.868 409.906 265.974L408.8 266.872L407.818 265.635L410.921 263.14H412.594V272.867Z" fill="#FBFBFB"/>
<path d="M422 272.867H415.268V271.436L417.685 268.968C418.401 268.227 418.869 267.715 419.089 267.431C419.308 267.143 419.466 266.877 419.563 266.633C419.659 266.389 419.708 266.136 419.708 265.874C419.708 265.484 419.6 265.193 419.385 265.003C419.174 264.812 418.891 264.717 418.535 264.717C418.162 264.717 417.8 264.803 417.448 264.976C417.097 265.149 416.73 265.395 416.348 265.715L415.242 264.391C415.716 263.982 416.109 263.694 416.421 263.526C416.733 263.357 417.073 263.228 417.442 263.14C417.811 263.047 418.223 263 418.68 263C419.282 263 419.813 263.111 420.274 263.333C420.735 263.554 421.093 263.865 421.348 264.264C421.603 264.663 421.73 265.12 421.73 265.635C421.73 266.083 421.651 266.504 421.493 266.899C421.339 267.289 421.098 267.691 420.768 268.103C420.443 268.516 419.868 269.103 419.042 269.866L417.804 271.044V271.137H422V272.867Z" fill="#FBFBFB"/>
<path d="M475.116 121.867L474.417 119.555H470.902L470.203 121.867H468L471.403 112.113H473.903L477.319 121.867H475.116ZM473.929 117.827C473.283 115.732 472.918 114.547 472.834 114.272C472.755 113.998 472.698 113.781 472.663 113.621C472.518 114.188 472.102 115.59 471.416 117.827H473.929Z" fill="#FBFBFB"/>
<path d="M477.8 117.741C477.8 115.818 478.203 114.388 479.007 113.449C479.816 112.509 481.026 112.04 482.635 112.04C483.184 112.04 483.615 112.073 483.927 112.14V113.781C483.536 113.692 483.149 113.648 482.767 113.648C482.068 113.648 481.496 113.754 481.052 113.967C480.612 114.179 480.282 114.494 480.063 114.91C479.843 115.327 479.713 115.918 479.674 116.684H479.759C480.195 115.931 480.891 115.555 481.85 115.555C482.712 115.555 483.387 115.827 483.875 116.372C484.363 116.917 484.607 117.67 484.607 118.631C484.607 119.668 484.317 120.489 483.736 121.096C483.156 121.699 482.351 122 481.322 122C480.61 122 479.988 121.834 479.456 121.502C478.928 121.169 478.519 120.684 478.229 120.047C477.943 119.409 477.8 118.64 477.8 117.741ZM481.283 120.359C481.718 120.359 482.052 120.213 482.285 119.92C482.518 119.623 482.635 119.203 482.635 118.658C482.635 118.184 482.525 117.812 482.305 117.542C482.09 117.267 481.762 117.13 481.322 117.13C480.909 117.13 480.555 117.265 480.261 117.535C479.97 117.805 479.825 118.12 479.825 118.478C479.825 119.006 479.962 119.451 480.234 119.814C480.511 120.177 480.861 120.359 481.283 120.359Z" fill="#FBFBFB"/>
<path d="M492.27 117.01C492.27 118.707 491.993 119.962 491.439 120.777C490.89 121.592 490.041 122 488.894 122C487.781 122 486.941 121.579 486.374 120.738C485.811 119.896 485.53 118.653 485.53 117.01C485.53 115.296 485.805 114.033 486.354 113.223C486.904 112.408 487.75 112 488.894 112C490.006 112 490.846 112.425 491.413 113.276C491.985 114.126 492.27 115.371 492.27 117.01ZM487.555 117.01C487.555 118.202 487.656 119.056 487.858 119.575C488.065 120.089 488.41 120.346 488.894 120.346C489.369 120.346 489.711 120.084 489.923 119.561C490.134 119.039 490.239 118.188 490.239 117.01C490.239 115.818 490.131 114.963 489.916 114.445C489.705 113.922 489.364 113.661 488.894 113.661C488.414 113.661 488.071 113.922 487.865 114.445C487.658 114.963 487.555 115.818 487.555 117.01Z" fill="#FBFBFB"/>
<path d="M496.623 112.027C497.547 112.027 498.29 112.239 498.852 112.664C499.42 113.085 499.703 113.654 499.703 114.372C499.703 114.868 499.567 115.311 499.294 115.701C499.022 116.086 498.582 116.432 497.975 116.738C498.696 117.127 499.213 117.535 499.525 117.96C499.842 118.381 500 118.844 500 119.349C500 120.146 499.69 120.788 499.07 121.276C498.45 121.759 497.635 122 496.623 122C495.568 122 494.739 121.774 494.137 121.322C493.534 120.87 493.233 120.23 493.233 119.402C493.233 118.848 493.378 118.357 493.669 117.927C493.963 117.497 494.434 117.118 495.08 116.791C494.53 116.441 494.135 116.066 493.893 115.668C493.651 115.269 493.53 114.833 493.53 114.359C493.53 113.663 493.816 113.101 494.387 112.671C494.959 112.241 495.704 112.027 496.623 112.027ZM495.12 119.282C495.12 119.663 495.251 119.96 495.515 120.173C495.779 120.385 496.14 120.492 496.597 120.492C497.103 120.492 497.481 120.383 497.731 120.166C497.982 119.945 498.107 119.654 498.107 119.296C498.107 118.999 497.982 118.722 497.731 118.465C497.485 118.204 497.083 117.927 496.524 117.635C495.588 118.069 495.12 118.618 495.12 119.282ZM496.61 113.528C496.263 113.528 495.981 113.619 495.766 113.801C495.555 113.978 495.449 114.217 495.449 114.518C495.449 114.784 495.533 115.023 495.7 115.236C495.871 115.444 496.179 115.659 496.623 115.88C497.054 115.677 497.355 115.468 497.527 115.256C497.698 115.043 497.784 114.797 497.784 114.518C497.784 114.213 497.674 113.971 497.454 113.794C497.234 113.617 496.953 113.528 496.61 113.528Z" fill="#FBFBFB"/>
<path d="M566.339 121.867L565.618 119.555H561.993L561.272 121.867H559L562.509 112.113H565.087L568.61 121.867H566.339ZM565.114 117.827C564.448 115.732 564.072 114.547 563.985 114.272C563.904 113.998 563.845 113.781 563.809 113.621C563.659 114.188 563.23 115.59 562.523 117.827H565.114Z" fill="#FBFBFB"/>
<path d="M569.107 117.741C569.107 115.818 569.522 114.388 570.351 113.449C571.186 112.509 572.433 112.04 574.092 112.04C574.659 112.04 575.103 112.073 575.425 112.14V113.781C575.022 113.692 574.623 113.648 574.228 113.648C573.507 113.648 572.918 113.754 572.46 113.967C572.006 114.179 571.666 114.494 571.44 114.91C571.213 115.327 571.079 115.918 571.038 116.684H571.127C571.576 115.931 572.294 115.555 573.283 115.555C574.171 115.555 574.867 115.827 575.371 116.372C575.874 116.917 576.126 117.67 576.126 118.631C576.126 119.668 575.826 120.489 575.228 121.096C574.629 121.699 573.8 122 572.739 122C572.004 122 571.363 121.834 570.814 121.502C570.27 121.169 569.848 120.684 569.549 120.047C569.254 119.409 569.107 118.64 569.107 117.741ZM572.698 120.359C573.147 120.359 573.491 120.213 573.732 119.92C573.972 119.623 574.092 119.203 574.092 118.658C574.092 118.184 573.979 117.812 573.752 117.542C573.53 117.267 573.192 117.13 572.739 117.13C572.312 117.13 571.947 117.265 571.644 117.535C571.344 117.805 571.195 118.12 571.195 118.478C571.195 119.006 571.335 119.451 571.616 119.814C571.902 120.177 572.263 120.359 572.698 120.359Z" fill="#FBFBFB"/>
<path d="M584.029 117.01C584.029 118.707 583.743 119.962 583.172 120.777C582.605 121.592 581.73 122 580.547 122C579.399 122 578.533 121.579 577.948 120.738C577.368 119.896 577.078 118.653 577.078 117.01C577.078 115.296 577.361 114.033 577.928 113.223C578.495 112.408 579.368 112 580.547 112C581.694 112 582.56 112.425 583.145 113.276C583.734 114.126 584.029 115.371 584.029 117.01ZM579.166 117.01C579.166 118.202 579.27 119.056 579.479 119.575C579.692 120.089 580.048 120.346 580.547 120.346C581.036 120.346 581.39 120.084 581.608 119.561C581.825 119.039 581.934 118.188 581.934 117.01C581.934 115.818 581.823 114.963 581.601 114.445C581.383 113.922 581.032 113.661 580.547 113.661C580.052 113.661 579.699 113.922 579.486 114.445C579.272 114.963 579.166 115.818 579.166 117.01Z" fill="#FBFBFB"/>
<path d="M592 116.299C592 118.213 591.587 119.641 590.762 120.585C589.937 121.528 588.688 122 587.015 122C586.425 122 585.979 121.969 585.675 121.907V120.259C586.056 120.352 586.455 120.399 586.872 120.399C587.575 120.399 588.153 120.299 588.606 120.1C589.06 119.896 589.406 119.579 589.647 119.15C589.887 118.715 590.025 118.12 590.062 117.362H589.98C589.717 117.779 589.413 118.071 589.069 118.239C588.724 118.408 588.293 118.492 587.776 118.492C586.91 118.492 586.228 118.221 585.729 117.681C585.23 117.136 584.981 116.381 584.981 115.415C584.981 114.374 585.283 113.553 585.886 112.95C586.493 112.343 587.318 112.04 588.361 112.04C589.096 112.04 589.737 112.208 590.286 112.545C590.839 112.882 591.263 113.371 591.558 114.013C591.853 114.651 592 115.413 592 116.299ZM588.402 113.688C587.967 113.688 587.627 113.834 587.382 114.126C587.137 114.419 587.015 114.839 587.015 115.389C587.015 115.858 587.126 116.23 587.348 116.505C587.57 116.78 587.908 116.917 588.361 116.917C588.788 116.917 589.153 116.782 589.456 116.512C589.76 116.237 589.912 115.922 589.912 115.568C589.912 115.041 589.769 114.596 589.484 114.233C589.202 113.869 588.842 113.688 588.402 113.688Z" fill="#FBFBFB"/>
<path d="M342.147 313.867L341.445 311.545H337.915L337.212 313.867H335L338.418 304.073H340.928L344.36 313.867H342.147ZM340.955 309.811C340.306 307.707 339.939 306.517 339.855 306.241C339.776 305.966 339.718 305.748 339.683 305.588C339.537 306.157 339.12 307.565 338.431 309.811H340.955Z" fill="#FBFBFB"/>
<path d="M344.843 309.724C344.843 307.794 345.247 306.357 346.055 305.414C346.868 304.471 348.082 304 349.698 304C350.25 304 350.683 304.033 350.997 304.1V305.748C350.604 305.659 350.215 305.614 349.831 305.614C349.129 305.614 348.555 305.721 348.109 305.935C347.667 306.148 347.336 306.464 347.115 306.882C346.894 307.3 346.764 307.894 346.724 308.663H346.81C347.248 307.907 347.947 307.529 348.91 307.529C349.776 307.529 350.454 307.803 350.944 308.35C351.434 308.897 351.679 309.653 351.679 310.618C351.679 311.658 351.387 312.483 350.805 313.093C350.222 313.698 349.414 314 348.38 314C347.665 314 347.04 313.833 346.506 313.5C345.976 313.166 345.565 312.679 345.274 312.039C344.987 311.398 344.843 310.627 344.843 309.724ZM348.341 312.352C348.778 312.352 349.113 312.205 349.347 311.912C349.581 311.614 349.698 311.191 349.698 310.644C349.698 310.169 349.588 309.795 349.367 309.524C349.151 309.248 348.822 309.11 348.38 309.11C347.965 309.11 347.61 309.246 347.314 309.517C347.022 309.788 346.877 310.104 346.877 310.464C346.877 310.994 347.014 311.441 347.287 311.805C347.566 312.17 347.917 312.352 348.341 312.352Z" fill="#FBFBFB"/>
<path d="M357.72 313.867H355.673V308.223L355.693 307.296L355.726 306.282C355.386 306.624 355.15 306.849 355.017 306.955L353.905 307.856L352.918 306.615L356.037 304.113H357.72V313.867Z" fill="#FBFBFB"/>
<path d="M363.933 307.636C364.869 307.636 365.613 307.9 366.165 308.43C366.722 308.959 367 309.684 367 310.604C367 311.694 366.667 312.532 366 313.119C365.333 313.706 364.379 314 363.138 314C362.061 314 361.191 313.824 360.528 313.473V311.692C360.877 311.879 361.284 312.032 361.747 312.152C362.211 312.268 362.65 312.326 363.065 312.326C364.315 312.326 364.94 311.81 364.94 310.778C364.94 309.795 364.293 309.304 362.999 309.304C362.765 309.304 362.507 309.328 362.224 309.377C361.942 309.421 361.712 309.47 361.535 309.524L360.721 309.083L361.085 304.113H366.338V305.861H362.88L362.701 307.776L362.933 307.729C363.202 307.667 363.536 307.636 363.933 307.636Z" fill="#FBFBFB"/>
<path d="M350.092 265L349.824 267.365L352.266 266.697L352.482 268.316L350.256 268.47L351.716 270.379L350.23 271.157L349.208 269.145L348.311 271.144L346.766 270.379L348.213 268.47L346 268.303L346.255 266.697L348.645 267.365L348.377 265H350.092Z" fill="#FBFBFB"/>
<path d="M358.434 275H356.411V269.563L356.43 268.67L356.463 267.693C356.127 268.023 355.893 268.239 355.762 268.342L354.662 269.21L353.687 268.014L356.771 265.604H358.434V275Z" fill="#FBFBFB"/>
<path d="M368 273.053H366.848V275H364.87V273.053H360.785V271.671L364.982 265.604H366.848V271.51H368V273.053ZM364.87 271.51V269.916C364.87 269.651 364.881 269.265 364.903 268.76C364.925 268.254 364.942 267.961 364.955 267.879H364.903C364.741 268.231 364.547 268.573 364.32 268.907L362.565 271.51H364.87Z" fill="#FBFBFB"/>
<path d="M323.321 174L323.037 176.335L325.616 175.675L325.844 177.274L323.494 177.426L325.035 179.311L323.466 180.079L322.387 178.093L321.44 180.066L319.809 179.311L321.337 177.426L319 177.261L319.27 175.675L321.793 176.335L321.509 174H323.321Z" fill="#FBFBFB"/>
<path d="M333.856 179.235C333.856 180.855 333.566 182.054 332.985 182.832C332.409 183.611 331.52 184 330.317 184C329.151 184 328.271 183.598 327.676 182.794C327.086 181.991 326.791 180.804 326.791 179.235C326.791 177.598 327.079 176.392 327.655 175.618C328.231 174.84 329.119 174.451 330.317 174.451C331.483 174.451 332.363 174.857 332.958 175.669C333.557 176.481 333.856 177.67 333.856 179.235ZM328.913 179.235C328.913 180.373 329.019 181.189 329.231 181.684C329.448 182.175 329.81 182.42 330.317 182.42C330.815 182.42 331.174 182.17 331.395 181.671C331.616 181.172 331.727 180.36 331.727 179.235C331.727 178.097 331.614 177.28 331.388 176.786C331.167 176.286 330.81 176.037 330.317 176.037C329.814 176.037 329.455 176.286 329.238 176.786C329.022 177.28 328.913 178.097 328.913 179.235Z" fill="#FBFBFB"/>
<path d="M334.866 179.933C334.866 178.097 335.287 176.731 336.131 175.834C336.979 174.937 338.246 174.489 339.933 174.489C340.509 174.489 340.961 174.52 341.288 174.584V176.151C340.878 176.066 340.472 176.024 340.071 176.024C339.338 176.024 338.739 176.126 338.274 176.329C337.813 176.532 337.467 176.832 337.237 177.23C337.006 177.627 336.87 178.192 336.829 178.924H336.919C337.375 178.205 338.106 177.845 339.11 177.845C340.014 177.845 340.721 178.105 341.233 178.626C341.744 179.146 342 179.865 342 180.783C342 181.773 341.696 182.558 341.087 183.137C340.479 183.712 339.636 184 338.557 184C337.811 184 337.159 183.841 336.601 183.524C336.048 183.207 335.619 182.744 335.315 182.135C335.015 181.525 334.866 180.791 334.866 179.933ZM338.516 182.433C338.972 182.433 339.322 182.293 339.567 182.014C339.811 181.731 339.933 181.329 339.933 180.808C339.933 180.356 339.818 180 339.587 179.742C339.361 179.48 339.018 179.349 338.557 179.349C338.124 179.349 337.753 179.478 337.444 179.736C337.14 179.994 336.988 180.294 336.988 180.637C336.988 181.14 337.131 181.566 337.417 181.912C337.707 182.259 338.073 182.433 338.516 182.433Z" fill="#FBFBFB"/>
<path d="M350.15 236L349.878 238.569L352.355 237.843L352.574 239.602L350.316 239.769L351.797 241.842L350.29 242.687L349.254 240.502L348.344 242.673L346.777 241.842L348.244 239.769L346 239.588L346.259 237.843L348.683 238.569L348.411 236H350.15Z" fill="#FBFBFB"/>
<path d="M358.61 246.86H356.558V240.956L356.578 239.985L356.612 238.924C356.271 239.283 356.034 239.518 355.901 239.629L354.785 240.572L353.796 239.273L356.924 236.656H358.61V246.86Z" fill="#FBFBFB"/>
<path d="M367.714 238.938C367.714 239.576 367.531 240.118 367.163 240.565C366.796 241.011 366.28 241.319 365.616 241.486V241.528C366.4 241.63 366.993 241.882 367.396 242.282C367.799 242.677 368 243.212 368 243.887C368 244.869 367.661 245.634 366.984 246.183C366.307 246.728 365.339 247 364.082 247C363.028 247 362.094 246.816 361.28 246.449V244.613C361.656 244.813 362.07 244.976 362.522 245.102C362.973 245.227 363.42 245.29 363.863 245.29C364.54 245.29 365.041 245.169 365.364 244.927C365.687 244.685 365.848 244.297 365.848 243.761C365.848 243.282 365.663 242.942 365.291 242.742C364.919 242.542 364.326 242.442 363.511 242.442H362.774V240.788H363.524C364.277 240.788 364.826 240.686 365.171 240.481C365.521 240.272 365.696 239.916 365.696 239.413C365.696 238.641 365.235 238.254 364.315 238.254C363.996 238.254 363.67 238.31 363.338 238.422C363.011 238.534 362.646 238.727 362.243 239.001L361.293 237.515C362.178 236.845 363.234 236.51 364.461 236.51C365.466 236.51 366.258 236.724 366.838 237.152C367.422 237.58 367.714 238.175 367.714 238.938Z" fill="#FBFBFB"/>
<path d="M323.167 145L322.893 147.569L325.38 146.843L325.6 148.602L323.333 148.769L324.82 150.842L323.307 151.687L322.267 149.502L321.353 151.673L319.78 150.842L321.253 148.769L319 148.588L319.26 146.843L321.693 147.569L321.42 145H323.167Z" fill="#FBFBFB"/>
<path d="M333.327 150.758C333.327 152.54 333.047 153.86 332.487 154.716C331.931 155.572 331.073 156 329.913 156C328.789 156 327.94 155.558 327.367 154.674C326.798 153.79 326.513 152.485 326.513 150.758C326.513 148.957 326.791 147.631 327.347 146.78C327.902 145.924 328.758 145.496 329.913 145.496C331.038 145.496 331.887 145.942 332.46 146.836C333.038 147.729 333.327 149.037 333.327 150.758ZM328.56 150.758C328.56 152.01 328.662 152.908 328.867 153.452C329.076 153.992 329.424 154.262 329.913 154.262C330.393 154.262 330.74 153.988 330.953 153.438C331.167 152.889 331.273 151.996 331.273 150.758C331.273 149.507 331.164 148.609 330.947 148.064C330.733 147.515 330.389 147.24 329.913 147.24C329.429 147.24 329.082 147.515 328.873 148.064C328.664 148.609 328.56 149.507 328.56 150.758Z" fill="#FBFBFB"/>
<path d="M337.913 149.341C338.856 149.341 339.604 149.618 340.16 150.172C340.72 150.726 341 151.484 341 152.447C341 153.587 340.664 154.464 339.993 155.079C339.322 155.693 338.362 156 337.113 156C336.029 156 335.153 155.816 334.487 155.449V153.585C334.838 153.78 335.247 153.941 335.713 154.067C336.18 154.188 336.622 154.248 337.04 154.248C338.298 154.248 338.927 153.708 338.927 152.629C338.927 151.6 338.276 151.086 336.973 151.086C336.738 151.086 336.478 151.112 336.193 151.163C335.909 151.21 335.678 151.261 335.5 151.317L334.68 150.856L335.047 145.656H340.333V147.485H336.853L336.673 149.488L336.907 149.439C337.178 149.374 337.513 149.341 337.913 149.341Z" fill="#FBFBFB"/>
<path fill-rule="evenodd" clip-rule="evenodd" d="M189 285V255H193V285H189Z" fill="white"/>
<path fill-rule="evenodd" clip-rule="evenodd" d="M169 285V255H172V285H169Z" fill="white"/>
<path fill-rule="evenodd" clip-rule="evenodd" d="M281.286 196.281V78H284V199H256.864V128.303H194V125.584H259.578V196.281H281.286Z" fill="white"/>
<path fill-rule="evenodd" clip-rule="evenodd" d="M259.13 284.17V284.613H322.87V284.17H322.585V254.916H321.046V284.17H320.514V254.916H318.37V284.17H317.837V254.916H315.693V284.17H315.161V254.916H313.017V284.17H312.485V254.916H310.341V284.17H309.808V254.916H307.664V284.17H307.132V254.916H304.988V284.17H304.455V254.916H302.312V284.17H301.779V254.916H299.635V284.17H299.103V254.916H296.959V284.17H296.426V254.916H294.282V284.17H293.75V254.916H291.606V284.17H291.074V254.916H288.93V284.17H288.397V254.916H286.253V284.17H285.721V254.916H283.577V284.17H283.045V254.916H280.901V284.17H280.368V254.916H278.224V284.17H277.692V254.916H275.548V284.17H275.016V254.916H272.872V284.17H272.339V254.916H270.195V284.17H269.663V254.916H267.519V284.17H266.986V269.543V254.916H264.842V284.17H264.31V254.916H262.166V284.17H261.634V254.916H259.49V284.17H259.13ZM320.514 253H318.37H317.837H315.693H315.161H313.017H312.485H310.341H309.808H307.664H307.132H304.988H304.455H302.312H301.779H299.635H299.103H296.959H296.426H294.282H293.75H291.606H291.074H288.93H288.397H286.253H285.721H283.577H283.045H280.901H280.368H278.224H277.692H275.548H275.016H272.872H272.339H270.195H269.663H267.519H266.986H264.842H264.31H262.166H261.634H259.49V253.026H258.957V253H258.065H257V254.075V285.925V287H258.065H323.935H325V285.925V254.075V253H323.935H323.118H322.585H321.046H320.514Z" fill="white"/>
<path d="M30.1906 344L29.9157 346.569L32.4166 345.843L32.6378 347.602L30.3582 347.769L31.8534 349.842L30.3314 350.687L29.2854 348.502L28.3668 350.673L26.7845 349.842L28.2663 347.769L26 347.588L26.2615 345.843L28.7088 346.569L28.4339 344H30.1906Z" fill="black"/>
<path d="M42.2191 354.86H39.8456L37.5659 351.001L35.2863 354.86H33.0603L36.3121 349.598L33.2681 344.656H35.5612L37.6732 348.327L39.745 344.656H41.9845L38.9069 349.716L42.2191 354.86Z" fill="black"/>
<path d="M51.378 354.86H49.0045L46.7248 351.001L44.4452 354.86H42.2191L45.471 349.598L42.427 344.656H44.7201L46.8321 348.327L48.9039 344.656H51.1434L48.0658 349.716L51.378 354.86Z" fill="black"/>
<path d="M55.5351 349.242V347.713H62.193V349.242H55.5351ZM55.5351 351.943V350.414H62.193V351.943H55.5351Z" fill="black"/>
<path d="M73.5914 354.86L72.8806 352.431H69.3069L68.5962 354.86H66.3568L69.8165 344.614H72.3577L75.8308 354.86H73.5914ZM72.3845 350.617C71.7274 348.416 71.3564 347.171 71.2715 346.883C71.191 346.594 71.1329 346.366 71.0971 346.199C70.9496 346.794 70.5272 348.267 69.8299 350.617H72.3845Z" fill="black"/>
<path d="M76.3202 350.526C76.3202 348.507 76.7292 347.004 77.5472 346.017C78.3697 345.031 79.5989 344.537 81.2349 344.537C81.7937 344.537 82.2317 344.572 82.5491 344.642V346.366C82.1513 346.273 81.7579 346.227 81.369 346.227C80.6583 346.227 80.0772 346.338 79.6258 346.562C79.1788 346.785 78.8435 347.115 78.62 347.553C78.3965 347.99 78.2647 348.611 78.2244 349.416H78.3116C78.7541 348.625 79.4626 348.23 80.4371 348.23C81.3132 348.23 81.9993 348.516 82.4955 349.088C82.9916 349.661 83.2397 350.452 83.2397 351.461C83.2397 352.55 82.9447 353.413 82.3547 354.051C81.7646 354.684 80.9466 355 79.9007 355C79.1765 355 78.544 354.826 78.0032 354.477C77.4668 354.128 77.0511 353.618 76.7561 352.948C76.4655 352.278 76.3202 351.471 76.3202 350.526ZM79.8604 353.276C80.303 353.276 80.6427 353.122 80.8796 352.815C81.1165 352.504 81.2349 352.062 81.2349 351.489C81.2349 350.991 81.1232 350.6 80.8997 350.317C80.6807 350.028 80.3477 349.884 79.9007 349.884C79.4805 349.884 79.1207 350.026 78.8212 350.31C78.5262 350.593 78.3787 350.924 78.3787 351.301C78.3787 351.854 78.5172 352.322 78.7944 352.704C79.076 353.085 79.4313 353.276 79.8604 353.276Z" fill="black"/>
<path d="M92.8411 354.86H90.4676L88.1879 351.001L85.9082 354.86H83.6822L86.9341 349.598L83.8901 344.656H86.1832L88.2952 348.327L90.367 344.656H92.6064L89.5289 349.716L92.8411 354.86Z" fill="black"/>
<path d="M102 354.86H99.6265L97.3468 351.001L95.0671 354.86H92.8411L96.093 349.598L93.049 344.656H95.342L97.4541 348.327L99.5259 344.656H101.765L98.6878 349.716L102 354.86Z" fill="black"/>
<path d="M132 149.5C132 156.404 126.404 162 119.5 162C112.596 162 107 156.404 107 149.5C107 142.596 112.596 137 119.5 137C126.404 137 132 142.596 132 149.5Z" fill="#E14235"/>
<path d="M121 155H118.869V149.213L118.89 148.263L118.924 147.223C118.57 147.574 118.324 147.804 118.186 147.914L117.028 148.837L116 147.565L119.248 145H121V155Z" fill="white"/>
<path d="M405 143.5C405 150.404 399.627 156 393 156C386.373 156 381 150.404 381 143.5C381 136.596 386.373 131 393 131C399.627 131 405 136.596 405 143.5Z" fill="#E14235"/>
<path d="M397 146.72H395.722V149H393.53V146.72H389V145.103L393.653 138H395.722V144.915H397V146.72ZM393.53 144.915V143.049C393.53 142.738 393.542 142.286 393.566 141.694C393.59 141.102 393.61 140.759 393.624 140.663H393.566C393.387 141.075 393.172 141.476 392.92 141.867L390.975 144.915H393.53Z" fill="white"/>
<path d="M497 144C497 150.627 491.404 156 484.5 156C477.596 156 472 150.627 472 144C472 137.373 477.596 132 484.5 132C491.404 132 497 137.373 497 144Z" fill="#E14235"/>
<path d="M488 146.927H486.882V149H484.964V146.927H481V145.457L485.072 139H486.882V145.286H488V146.927ZM484.964 145.286V143.59C484.964 143.307 484.974 142.896 484.995 142.358C485.017 141.82 485.034 141.508 485.046 141.421H484.995C484.839 141.795 484.65 142.16 484.43 142.516L482.728 145.286H484.964Z" fill="white"/>
<path d="M497 292.5C497 299.404 491.404 305 484.5 305C477.596 305 472 299.404 472 292.5C472 285.596 477.596 280 484.5 280C491.404 280 497 285.596 497 292.5Z" fill="#E14235"/>
<path d="M488 295.72H486.882V298H484.964V295.72H481V294.103L485.072 287H486.882V293.915H488V295.72ZM484.964 293.915V292.049C484.964 291.738 484.974 291.286 484.995 290.694C485.017 290.102 485.034 289.759 485.046 289.663H484.995C484.839 290.075 484.65 290.476 484.43 290.867L482.728 293.915H484.964Z" fill="white"/>
<path d="M419 292.5C419 299.404 413.404 305 406.5 305C399.596 305 394 299.404 394 292.5C394 285.596 399.596 280 406.5 280C413.404 280 419 285.596 419 292.5Z" fill="#E14235"/>
<path d="M410 295.72H408.882V298H406.964V295.72H403V294.103L407.072 287H408.882V293.915H410V295.72ZM406.964 293.915V292.049C406.964 291.738 406.974 291.286 406.995 290.694C407.017 290.102 407.034 289.759 407.046 289.663H406.995C406.839 290.075 406.65 290.476 406.43 290.867L404.728 293.915H406.964Z" fill="white"/>
<path d="M291 298C291 304.627 285.404 310 278.5 310C271.596 310 266 304.627 266 298C266 291.373 271.596 286 278.5 286C285.404 286 291 291.373 291 298Z" fill="#E14235"/>
<path d="M278.683 296.563C279.695 296.563 280.5 296.83 281.097 297.366C281.699 297.901 282 298.634 282 299.565C282 300.668 281.639 301.516 280.918 302.109C280.197 302.703 279.165 303 277.823 303C276.657 303 275.716 302.822 275 302.467V300.665C275.377 300.854 275.817 301.009 276.318 301.131C276.82 301.248 277.295 301.306 277.744 301.306C279.096 301.306 279.772 300.785 279.772 299.741C279.772 298.747 279.072 298.25 277.672 298.25C277.419 298.25 277.14 298.274 276.834 298.324C276.528 298.369 276.28 298.418 276.089 298.472L275.208 298.027L275.602 293H281.284V294.768H277.544L277.35 296.704L277.601 296.657C277.892 296.594 278.253 296.563 278.683 296.563Z" fill="white"/>
<path d="M193 270.5C193 277.404 187.404 283 180.5 283C173.596 283 168 277.404 168 270.5C168 263.596 173.596 258 180.5 258C187.404 258 193 263.596 193 270.5Z" fill="#E14235"/>
<path d="M177 271.296C177 269.173 177.473 267.593 178.419 266.556C179.37 265.519 180.791 265 182.682 265C183.328 265 183.835 265.037 184.202 265.11V266.923C183.742 266.825 183.287 266.776 182.837 266.776C182.016 266.776 181.344 266.893 180.822 267.128C180.305 267.363 179.917 267.71 179.659 268.17C179.401 268.63 179.248 269.283 179.202 270.129H179.302C179.814 269.298 180.633 268.882 181.76 268.882C182.773 268.882 183.566 269.183 184.14 269.785C184.713 270.386 185 271.218 185 272.28C185 273.424 184.659 274.332 183.977 275.002C183.295 275.667 182.349 276 181.14 276C180.302 276 179.571 275.817 178.946 275.45C178.326 275.083 177.845 274.547 177.504 273.843C177.168 273.138 177 272.289 177 271.296ZM181.093 274.187C181.605 274.187 181.997 274.026 182.271 273.703C182.545 273.375 182.682 272.911 182.682 272.309C182.682 271.785 182.553 271.374 182.295 271.076C182.041 270.773 181.656 270.621 181.14 270.621C180.654 270.621 180.238 270.77 179.891 271.069C179.55 271.367 179.38 271.714 179.38 272.111C179.38 272.693 179.54 273.185 179.86 273.586C180.186 273.987 180.597 274.187 181.093 274.187Z" fill="white"/>
<path d="M589 144C589 150.627 583.404 156 576.5 156C569.596 156 564 150.627 564 144C564 137.373 569.596 132 576.5 132C583.404 132 589 137.373 589 144Z" fill="#E14235"/>
<path d="M580 146.927H578.722V149H576.53V146.927H572V145.457L576.653 139H578.722V145.286H580V146.927ZM576.53 145.286V143.59C576.53 143.307 576.542 142.896 576.566 142.358C576.59 141.82 576.61 141.508 576.624 141.421H576.566C576.387 141.795 576.172 142.16 575.92 142.516L573.975 145.286H576.53Z" fill="white"/>
<path d="M589 292.5C589 299.404 583.404 305 576.5 305C569.596 305 564 299.404 564 292.5C564 285.596 569.596 280 576.5 280C583.404 280 589 285.596 589 292.5Z" fill="#E14235"/>
<path d="M580 295.72H578.722V298H576.53V295.72H572V294.103L576.653 287H578.722V293.915H580V295.72ZM576.53 293.915V292.049C576.53 291.738 576.542 291.286 576.566 290.694C576.59 290.102 576.61 289.759 576.624 289.663H576.566C576.387 290.075 576.172 290.476 575.92 290.867L573.975 293.915H576.53Z" fill="white"/>
<path d="M92 277.5C92 284.404 86.4036 290 79.5 290C72.5964 290 67 284.404 67 277.5C67 270.596 72.5964 265 79.5 265C86.4036 265 92 270.596 92 277.5Z" fill="#E14235"/>
<path d="M83 283H76.0273V281.55L78.5312 279.049C79.2726 278.298 79.757 277.779 79.9844 277.491C80.2118 277.199 80.3756 276.929 80.4756 276.682C80.5757 276.434 80.6257 276.178 80.6257 275.913C80.6257 275.517 80.5143 275.223 80.2914 275.03C80.0731 274.836 79.7797 274.74 79.4113 274.74C79.0247 274.74 78.6494 274.827 78.2856 275.003C77.9217 275.178 77.5419 275.428 77.1462 275.751L76 274.409C76.4912 273.996 76.8983 273.704 77.2212 273.533C77.5442 273.362 77.8967 273.232 78.2788 273.142C78.6608 273.047 79.0884 273 79.5614 273C80.1845 273 80.7349 273.112 81.2125 273.337C81.6901 273.562 82.0608 273.877 82.3246 274.281C82.5884 274.686 82.7203 275.149 82.7203 275.67C82.7203 276.124 82.6384 276.551 82.4747 276.951C82.3155 277.347 82.0653 277.754 81.7242 278.172C81.3876 278.59 80.7917 279.186 79.9366 279.959L78.654 281.152V281.247H83V283Z" fill="white"/>
<path fill-rule="evenodd" clip-rule="evenodd" d="M298 84H312.701V85.1393H299.14V119.547H312.701V120.686H299.14V148.599H312.701V149.738H299.14V176.512H312.701V177.651H299.14V209.324H331.618V240.428H338V241.567H331.618V268.455H338V269.594H331.618V286H330.479V210.464H298V84Z" fill="#E14235"/>
<path d="M311 210.5C311 217.404 305.404 223 298.5 223C291.596 223 286 217.404 286 210.5C286 203.596 291.596 198 298.5 198C305.404 198 311 203.596 311 210.5Z" fill="#E14235"/>
<path d="M301.703 207.547C301.703 208.215 301.511 208.784 301.128 209.252C300.746 209.721 300.208 210.043 299.517 210.218V210.262C300.333 210.369 300.951 210.633 301.371 211.053C301.79 211.467 302 212.028 302 212.736C302 213.765 301.647 214.568 300.942 215.144C300.236 215.715 299.229 216 297.919 216C296.821 216 295.848 215.807 295 215.422V213.497C295.392 213.707 295.823 213.878 296.293 214.009C296.764 214.141 297.23 214.207 297.691 214.207C298.396 214.207 298.917 214.08 299.254 213.826C299.591 213.573 299.759 213.165 299.759 212.604C299.759 212.102 299.565 211.745 299.178 211.536C298.791 211.326 298.173 211.221 297.324 211.221H296.556V209.486H297.338C298.122 209.486 298.694 209.379 299.053 209.164C299.418 208.945 299.6 208.572 299.6 208.045C299.6 207.235 299.12 206.83 298.161 206.83C297.829 206.83 297.49 206.888 297.144 207.005C296.803 207.122 296.423 207.325 296.003 207.613L295.014 206.054C295.936 205.351 297.036 205 298.313 205C299.36 205 300.185 205.224 300.79 205.673C301.398 206.122 301.703 206.747 301.703 207.547Z" fill="white"/>
<path d="M279.768 350.975H292.638V351.762H288.849V375.214H290.136C292.161 375.214 293.77 374.594 294.962 373.355C296.177 372.115 297.405 370.209 298.644 367.635H299.395L298.716 376H279.768V375.214H281.877V351.762H279.768V350.975ZM309.251 367.599H310.288V364.846C310.288 362.582 310.157 361.069 309.895 360.306C309.656 359.519 309.18 359.126 308.465 359.126C308.036 359.126 307.642 359.245 307.285 359.484C306.951 359.698 306.784 360.008 306.784 360.413C306.784 360.794 306.856 361.188 306.999 361.593H307.893C308.083 362.093 308.179 362.701 308.179 363.416C308.179 364.107 307.881 364.715 307.285 365.239C306.689 365.74 305.938 365.99 305.033 365.99C302.983 365.99 301.958 365.001 301.958 363.023C301.958 360.091 304.449 358.626 309.43 358.626C312.266 358.626 314.22 359.114 315.293 360.091C316.389 361.045 316.937 362.808 316.937 365.382V372.64C316.937 373.879 317.283 374.499 317.974 374.499C318.784 374.499 319.261 373.271 319.404 370.816L319.94 370.852C319.845 372.949 319.452 374.391 318.761 375.178C318.069 375.964 316.937 376.357 315.364 376.357C312.504 376.357 310.86 375.476 310.431 373.712C310.121 374.618 309.656 375.285 309.037 375.714C308.417 376.143 307.511 376.357 306.32 376.357C302.792 376.357 301.029 374.916 301.029 372.032C301.029 370.34 301.696 369.184 303.031 368.564C304.389 367.921 306.463 367.599 309.251 367.599ZM307.821 371.996C307.821 373.235 307.881 374.034 308 374.391C308.143 374.749 308.393 374.928 308.751 374.928C309.132 374.928 309.478 374.63 309.787 374.034C310.121 373.414 310.288 372.568 310.288 371.496V368.171H310.038C308.56 368.171 307.821 369.255 307.821 371.424V371.996ZM320.363 358.983H328.979V362.272C329.36 361.176 329.944 360.294 330.731 359.627C331.517 358.959 332.709 358.626 334.306 358.626C338 358.626 339.847 360.616 339.847 364.596V375.357H341.849V376H331.732V375.357H333.197V363.738C333.197 362.308 333.102 361.39 332.911 360.985C332.721 360.556 332.375 360.342 331.875 360.342C331.112 360.342 330.433 360.842 329.837 361.843C329.265 362.844 328.979 364.06 328.979 365.49V375.357H330.516V376H320.363V375.357H322.329V359.627H320.363V358.983ZM343.934 370.888V359.627H341.968V358.983H343.934V354.371L350.583 352.727V358.983H355.231V359.627H350.583V371.674C350.583 372.794 350.691 373.617 350.905 374.141C351.144 374.665 351.62 374.928 352.335 374.928C353.05 374.928 353.67 374.57 354.194 373.855C354.742 373.14 355.1 372.163 355.267 370.924L355.874 370.995C355.684 372.64 355.159 373.95 354.301 374.928C353.443 375.881 352.025 376.357 350.047 376.357C348.069 376.357 346.556 375.964 345.507 375.178C344.458 374.391 343.934 372.961 343.934 370.888ZM364.796 367.599H365.833V364.846C365.833 362.582 365.702 361.069 365.439 360.306C365.201 359.519 364.724 359.126 364.009 359.126C363.58 359.126 363.187 359.245 362.83 359.484C362.496 359.698 362.329 360.008 362.329 360.413C362.329 360.794 362.401 361.188 362.544 361.593H363.437C363.628 362.093 363.723 362.701 363.723 363.416C363.723 364.107 363.426 364.715 362.83 365.239C362.234 365.74 361.483 365.99 360.577 365.99C358.528 365.99 357.503 365.001 357.503 363.023C357.503 360.091 359.994 358.626 364.975 358.626C367.811 358.626 369.765 359.114 370.838 360.091C371.934 361.045 372.482 362.808 372.482 365.382V372.64C372.482 373.879 372.828 374.499 373.519 374.499C374.329 374.499 374.806 373.271 374.949 370.816L375.485 370.852C375.39 372.949 374.997 374.391 374.305 375.178C373.614 375.964 372.482 376.357 370.909 376.357C368.049 376.357 366.405 375.476 365.976 373.712C365.666 374.618 365.201 375.285 364.581 375.714C363.962 376.143 363.056 376.357 361.864 376.357C358.337 376.357 356.573 374.916 356.573 372.032C356.573 370.34 357.241 369.184 358.575 368.564C359.934 367.921 362.007 367.599 364.796 367.599ZM363.366 371.996C363.366 373.235 363.426 374.034 363.545 374.391C363.688 374.749 363.938 374.928 364.295 374.928C364.677 374.928 365.022 374.63 365.332 374.034C365.666 373.414 365.833 372.568 365.833 371.496V368.171H365.582C364.105 368.171 363.366 369.255 363.366 371.424V371.996ZM381.092 356.516C379.829 356.516 378.923 356.195 378.375 355.551C377.85 354.908 377.588 354.109 377.588 353.156C377.588 352.203 377.874 351.416 378.446 350.796C379.042 350.177 379.936 349.867 381.127 349.867C382.319 349.867 383.225 350.153 383.844 350.725C384.464 351.273 384.774 352.071 384.774 353.12C384.774 354.145 384.476 354.967 383.88 355.587C383.284 356.207 382.355 356.516 381.092 356.516ZM375.693 358.983H384.452V375.357H386.454V376H375.836V375.357H377.803V359.627H375.693V358.983ZM394.465 364.989C394.465 360.389 395.489 356.838 397.539 354.336C399.613 351.833 402.449 350.582 406.048 350.582C408.502 350.582 410.385 351.082 411.696 352.083C413.007 353.061 413.662 354.348 413.662 355.944C413.662 356.85 413.364 357.637 412.768 358.304C412.196 358.947 411.434 359.269 410.48 359.269C409.527 359.269 408.764 359.019 408.192 358.518C407.62 357.994 407.334 357.386 407.334 356.695C407.334 355.98 407.43 355.36 407.62 354.836H408.764C408.907 354.455 408.979 354.026 408.979 353.549C408.979 352.048 408.133 351.297 406.441 351.297C404.749 351.297 403.509 352.179 402.723 353.942C401.936 355.682 401.531 358.697 401.507 362.987C402.747 361.057 404.546 360.091 406.905 360.091C409.265 360.091 411.124 360.735 412.482 362.022C413.841 363.285 414.52 365.192 414.52 367.742C414.52 370.292 413.626 372.365 411.839 373.962C410.051 375.559 407.656 376.357 404.653 376.357C397.861 376.357 394.465 372.568 394.465 364.989ZM405.082 361.271C404.272 361.271 403.581 361.581 403.009 362.201C402.461 362.796 402.079 363.511 401.865 364.346C401.674 365.156 401.579 366.228 401.579 367.563C401.579 368.874 401.579 369.791 401.579 370.316C401.603 370.816 401.638 371.424 401.686 372.139C401.758 372.83 401.853 373.343 401.972 373.676C402.091 373.986 402.258 374.32 402.473 374.677C402.854 375.297 403.462 375.607 404.296 375.607C405.13 375.607 405.75 375.452 406.155 375.142C406.584 374.808 406.894 374.26 407.084 373.498C407.37 372.377 407.513 370.983 407.513 369.315C407.513 367.646 407.501 366.538 407.477 365.99C407.477 365.442 407.454 364.87 407.406 364.274C407.358 363.654 407.275 363.19 407.156 362.88C407.06 362.57 406.929 362.272 406.762 361.986C406.453 361.509 405.893 361.271 405.082 361.271Z" fill="#181818"/>
</svg>
