<svg width="648" height="432" viewBox="0 0 648 432" fill="none" xmlns="http://www.w3.org/2000/svg">
<rect x="0.5" y="0.5" width="647" height="431" rx="9.5" stroke="#6699FF"/>
<path d="M270.536 363.975H283.406V364.762H279.617V388.214H280.904C282.93 388.214 284.538 387.594 285.73 386.355C286.945 385.115 288.173 383.209 289.412 380.635H290.163L289.484 389H270.536V388.214H272.645V364.762H270.536V363.975ZM300.019 380.599H301.056V377.846C301.056 375.582 300.925 374.069 300.663 373.306C300.424 372.519 299.948 372.126 299.233 372.126C298.804 372.126 298.41 372.245 298.053 372.484C297.719 372.698 297.552 373.008 297.552 373.413C297.552 373.794 297.624 374.188 297.767 374.593H298.661C298.851 375.093 298.947 375.701 298.947 376.416C298.947 377.107 298.649 377.715 298.053 378.239C297.457 378.74 296.706 378.99 295.801 378.99C293.751 378.99 292.726 378.001 292.726 376.023C292.726 373.091 295.217 371.626 300.198 371.626C303.034 371.626 304.988 372.114 306.061 373.091C307.157 374.045 307.705 375.808 307.705 378.382V385.64C307.705 386.879 308.051 387.499 308.742 387.499C309.552 387.499 310.029 386.271 310.172 383.816L310.708 383.852C310.613 385.949 310.22 387.391 309.529 388.178C308.837 388.964 307.705 389.357 306.132 389.357C303.272 389.357 301.628 388.476 301.199 386.712C300.889 387.618 300.424 388.285 299.805 388.714C299.185 389.143 298.279 389.357 297.088 389.357C293.56 389.357 291.797 387.916 291.797 385.032C291.797 383.34 292.464 382.184 293.799 381.564C295.157 380.921 297.231 380.599 300.019 380.599ZM298.589 384.996C298.589 386.235 298.649 387.034 298.768 387.391C298.911 387.749 299.161 387.928 299.519 387.928C299.9 387.928 300.246 387.63 300.555 387.034C300.889 386.414 301.056 385.568 301.056 384.496V381.171H300.806C299.328 381.171 298.589 382.255 298.589 384.424V384.996ZM311.131 371.983H319.747V375.272C320.128 374.176 320.712 373.294 321.499 372.627C322.285 371.959 323.477 371.626 325.074 371.626C328.768 371.626 330.615 373.616 330.615 377.596V388.357H332.617V389H322.5V388.357H323.965V376.738C323.965 375.308 323.87 374.39 323.679 373.985C323.489 373.556 323.143 373.342 322.643 373.342C321.88 373.342 321.201 373.842 320.605 374.843C320.033 375.844 319.747 377.06 319.747 378.49V388.357H321.284V389H311.131V388.357H313.097V372.627H311.131V371.983ZM334.702 383.888V372.627H332.736V371.983H334.702V367.371L341.351 365.727V371.983H345.999V372.627H341.351V384.674C341.351 385.794 341.459 386.617 341.673 387.141C341.912 387.665 342.388 387.928 343.103 387.928C343.818 387.928 344.438 387.57 344.962 386.855C345.51 386.14 345.868 385.163 346.035 383.924L346.642 383.995C346.452 385.64 345.927 386.95 345.069 387.928C344.211 388.881 342.793 389.357 340.815 389.357C338.837 389.357 337.324 388.964 336.275 388.178C335.226 387.391 334.702 385.961 334.702 383.888ZM355.564 380.599H356.601V377.846C356.601 375.582 356.47 374.069 356.207 373.306C355.969 372.519 355.492 372.126 354.777 372.126C354.348 372.126 353.955 372.245 353.598 372.484C353.264 372.698 353.097 373.008 353.097 373.413C353.097 373.794 353.169 374.188 353.312 374.593H354.205C354.396 375.093 354.491 375.701 354.491 376.416C354.491 377.107 354.194 377.715 353.598 378.239C353.002 378.74 352.251 378.99 351.346 378.99C349.296 378.99 348.271 378.001 348.271 376.023C348.271 373.091 350.762 371.626 355.743 371.626C358.579 371.626 360.533 372.114 361.606 373.091C362.702 374.045 363.25 375.808 363.25 378.382V385.64C363.25 386.879 363.596 387.499 364.287 387.499C365.097 387.499 365.574 386.271 365.717 383.816L366.253 383.852C366.158 385.949 365.765 387.391 365.073 388.178C364.382 388.964 363.25 389.357 361.677 389.357C358.817 389.357 357.173 388.476 356.744 386.712C356.434 387.618 355.969 388.285 355.349 388.714C354.73 389.143 353.824 389.357 352.632 389.357C349.105 389.357 347.342 387.916 347.342 385.032C347.342 383.34 348.009 382.184 349.344 381.564C350.702 380.921 352.775 380.599 355.564 380.599ZM354.134 384.996C354.134 386.235 354.194 387.034 354.313 387.391C354.456 387.749 354.706 387.928 355.063 387.928C355.445 387.928 355.79 387.63 356.1 387.034C356.434 386.414 356.601 385.568 356.601 384.496V381.171H356.35C354.873 381.171 354.134 382.255 354.134 384.424V384.996ZM371.86 369.516C370.597 369.516 369.691 369.195 369.143 368.551C368.618 367.908 368.356 367.109 368.356 366.156C368.356 365.203 368.642 364.416 369.214 363.796C369.81 363.177 370.704 362.867 371.895 362.867C373.087 362.867 373.993 363.153 374.612 363.725C375.232 364.273 375.542 365.071 375.542 366.12C375.542 367.145 375.244 367.967 374.648 368.587C374.052 369.207 373.123 369.516 371.86 369.516ZM366.462 371.983H375.22V388.357H377.222V389H366.605V388.357H368.571V372.627H366.462V371.983ZM385.519 369.052C385.519 367.479 386.234 366.18 387.664 365.155C389.094 364.106 391.215 363.582 394.027 363.582C399.461 363.582 402.178 365.477 402.178 369.266C402.178 370.815 401.535 372.102 400.248 373.127C398.984 374.128 397.161 374.831 394.778 375.236V375.308C397.733 375.522 399.914 376.214 401.32 377.381C402.726 378.549 403.429 380.063 403.429 381.922C403.429 384.21 402.5 386.021 400.641 387.356C398.806 388.69 396.244 389.357 392.955 389.357C391.668 389.357 390.464 389.214 389.344 388.929C388.248 388.643 387.258 388.082 386.377 387.248C385.519 386.39 385.09 385.377 385.09 384.21C385.09 383.042 385.364 382.136 385.912 381.493C386.484 380.849 387.258 380.527 388.236 380.527C389.213 380.527 389.987 380.789 390.559 381.314C391.131 381.814 391.417 382.422 391.417 383.137C391.417 383.828 391.322 384.424 391.131 384.925H390.023C389.88 385.306 389.809 385.699 389.809 386.104C389.809 387.796 390.81 388.643 392.812 388.643C394.218 388.643 395.171 388.106 395.672 387.034C396.196 385.961 396.458 384.412 396.458 382.386C396.458 380.36 396.208 378.895 395.707 377.989C395.231 377.06 394.516 376.357 393.562 375.88C392.704 376.071 391.668 376.225 390.452 376.345L390.345 375.558C392.442 375.344 393.813 374.843 394.456 374.057C395.123 373.27 395.457 371.876 395.457 369.874C395.457 367.848 395.254 366.406 394.849 365.548C394.468 364.666 393.813 364.225 392.883 364.225C391.954 364.225 391.286 364.511 390.881 365.083C390.5 365.632 390.309 366.156 390.309 366.656C390.309 367.157 390.381 367.598 390.524 367.979H391.56C391.751 368.48 391.846 369.087 391.846 369.802C391.846 370.494 391.548 371.101 390.953 371.626C390.357 372.126 389.57 372.376 388.593 372.376C387.616 372.376 386.853 372.067 386.305 371.447C385.781 370.803 385.519 370.005 385.519 369.052Z" fill="#181818"/>
<path d="M278 58H344V213H278V58Z" fill="#05AC72"/>
<path fill-rule="evenodd" clip-rule="evenodd" d="M341.25 60.7482H280.75V210.252H341.25V60.7482ZM278 58V213H344V58H278Z" fill="white"/>
<path fill-rule="evenodd" clip-rule="evenodd" d="M27 59H53.9524V74.4269L27 59ZM279.3 211.821H53.9524V74.4269L279.3 203.41V211.821ZM631 241.15V211.821H279.3V244.675H246.294V332.208L568.412 352V241.15H631Z" fill="#05AC72"/>
<path d="M341 58H439V213H341V58Z" fill="#05AC72"/>
<path fill-rule="evenodd" clip-rule="evenodd" d="M436.263 60.7482H343.737V210.252H436.263V60.7482ZM341 58V213H439V58H341Z" fill="white"/>
<path d="M315 241H439V355H315V241Z" fill="#05AC72"/>
<path fill-rule="evenodd" clip-rule="evenodd" d="M436.247 243.74H316.753V352.26H436.247V243.74ZM314 241V355H439V241H314Z" fill="white"/>
<path d="M437 241H569V355H437V241Z" fill="#05AC72"/>
<path fill-rule="evenodd" clip-rule="evenodd" d="M566.25 243.74H439.75V352.26H566.25V243.74ZM437 241V355H569V241H437Z" fill="white"/>
<path d="M437 58H535V213H437V58Z" fill="#05AC72"/>
<path fill-rule="evenodd" clip-rule="evenodd" d="M532.263 60.7482H439.737V210.252H532.263V60.7482ZM437 58V213H535V58H437Z" fill="white"/>
<path d="M532 58H633V213H532V58Z" fill="#05AC72"/>
<path fill-rule="evenodd" clip-rule="evenodd" d="M630.24 60.7482H534.76V210.252H630.24V60.7482ZM532 58V213H633V58H532Z" fill="white"/>
<path fill-rule="evenodd" clip-rule="evenodd" d="M88.4374 58H23V217.71H56.5435V248H196.766L219.427 235.333H249.006V213.304H282V87.1884H249.006V58H200.616H88.4374Z" fill="#05AC72"/>
<path fill-rule="evenodd" clip-rule="evenodd" d="M56.5435 217.71V248H196.766L219.427 235.333H249.006V213.304H282V87.1884H249.006V58H23V217.71H56.5435ZM25.7495 214.957H59.293V245.246H196.051L218.711 232.58H246.257V210.551H279.251V89.942H246.257V60.7536H25.7495V214.957Z" fill="white"/>
<path fill-rule="evenodd" clip-rule="evenodd" d="M246 284V245H249V284H246Z" fill="white"/>
<path fill-rule="evenodd" clip-rule="evenodd" d="M248.523 58H194L216.145 69.5357L223.878 73.7186H245.897V92H282V58H263.949H248.523Z" fill="#05AC72"/>
<path fill-rule="evenodd" clip-rule="evenodd" d="M245.897 73.7186V92H282V58H194L216.145 69.5357L223.878 73.7186H245.897ZM224.575 70.9766H248.647V89.2581H279.25V60.7419H205.202L217.437 67.1154L224.575 70.9766Z" fill="white"/>
<path fill-rule="evenodd" clip-rule="evenodd" d="M249.192 304.365V304.815H314.808V304.365H314.514V274.635H312.93V304.365H312.382V274.635H310.175V304.365H309.627V274.635H307.42V304.365H306.872V274.635H304.665V304.365H304.116V274.635H301.909V304.365H301.361V274.635H299.154V304.365H298.606V274.635H296.399V304.365H295.851V274.635H293.644V304.365H293.096V274.635H290.889V304.365H290.341V274.635H288.134V304.365H287.586V274.635H285.379V304.365H284.831V274.635H282.624V304.365H282.076V274.635H279.869V304.365H279.321V274.635H277.114V304.365H276.566V274.635H274.359V304.365H273.811V274.635H271.604V304.365H271.056V274.635H268.848V304.365H268.3V274.635H266.093V304.365H265.545V274.635H263.338V304.365H262.79V274.635H260.583V304.365H260.035V274.635H257.828V304.365H257.28V274.635H255.073V304.365H254.525V274.635H252.318V304.365H251.77V274.635H249.563V304.365H249.192ZM312.382 272.45H310.175H309.627H307.42H306.872H304.665H304.116H301.909H301.361H299.154H298.606H296.399H295.851H293.644H293.096H290.889H290.341H288.134H287.586H285.379H284.831H282.624H282.076H279.869H279.321H277.114H276.566H274.359H273.811H271.604H271.056H268.848H268.3H266.093H265.545H263.338H262.79H260.583H260.035H257.828H257.28H255.073H254.525H252.318H251.77H249.563V272H249.015V272.45H248.096H247V273.542V305.908V307H248.096H315.904H317V305.908V273.542V272.45H315.904H315.062H314.514H312.93H312.382Z" fill="white"/>
<path d="M185 304H315V355H185V304Z" fill="#05AC72"/>
<path fill-rule="evenodd" clip-rule="evenodd" d="M312.246 306.742H187.754V352.258H312.246V306.742ZM185 304V355H315V304H185Z" fill="white"/>
<path fill-rule="evenodd" clip-rule="evenodd" d="M229 322H194.721V334.443H185V355H194.721H219.279H229V322Z" fill="#05AC72"/>
<path fill-rule="evenodd" clip-rule="evenodd" d="M194.721 334.443H185V355H229V322H194.721V334.443ZM197.437 324.705V337.148H187.716V352.295H226.284V324.705H197.437Z" fill="white"/>
<path d="M227 329H249V355H227V329Z" fill="#05AC72"/>
<path fill-rule="evenodd" clip-rule="evenodd" d="M246.25 331.766H229.75V352.234H246.25V331.766ZM227 329V355H249V329H227Z" fill="white"/>
<path fill-rule="evenodd" clip-rule="evenodd" d="M317 304H297.312V328.946H247V355H317V332.826V328.946V304Z" fill="#05AC72"/>
<path d="M216 273H249V307H216V273Z" fill="#05AC72"/>
<path fill-rule="evenodd" clip-rule="evenodd" d="M246.25 275.698H218.75V304.302H246.25V275.698ZM216 273V307H249V273H216Z" fill="white"/>
<path d="M185 273H219V307H185V273Z" fill="#05AC72"/>
<path fill-rule="evenodd" clip-rule="evenodd" d="M216.258 275.698H187.742V304.302H216.258V275.698ZM185 273V307H219V273H185Z" fill="white"/>
<path d="M148 273H187V307H148V273Z" fill="#05AC72"/>
<path fill-rule="evenodd" clip-rule="evenodd" d="M184.292 275.698H150.708V304.302H184.292V275.698ZM148 273V307H187V273H148Z" fill="white"/>
<path d="M268 304H299V331H268V304Z" fill="#05AC72"/>
<path fill-rule="evenodd" clip-rule="evenodd" d="M91 59H23V224.924H57.2764V248H91V224.924V224.375V59Z" fill="#05AC72"/>
<path d="M60.0406 245.253H88.2358H91V248H57.2764V224.924H23V59H91V61.7471H88.2358H25.7642V222.177H60.0406V245.253Z" fill="white"/>
<path d="M23 120H57V192H23V120Z" fill="#05AC72"/>
<path fill-rule="evenodd" clip-rule="evenodd" d="M54.2131 122.748H25.7869V189.252H54.2131V122.748ZM23 120V192H57V120H23Z" fill="white"/>
<path fill-rule="evenodd" clip-rule="evenodd" d="M288.177 328.946H246V355H317V304H288.177V328.946ZM290.951 306.772V331.717H248.773V352.228H314.227V306.772H290.951Z" fill="white"/>
<path fill-rule="evenodd" clip-rule="evenodd" d="M264 304H290V332H264V304ZM266.554 306.678V329.322H287.446V306.678H266.554Z" fill="white"/>
<path d="M298.321 139.801L297.307 136.332H292.209L291.195 139.801H288L292.936 125.169H296.561L301.516 139.801H298.321ZM296.599 133.741C295.662 130.598 295.132 128.821 295.011 128.409C294.897 127.997 294.814 127.671 294.763 127.432C294.552 128.282 293.95 130.385 292.955 133.741H296.599Z" fill="#FBFBFB"/>
<path d="M311.54 128.488C311.54 129.399 311.275 130.173 310.746 130.811C310.217 131.449 309.474 131.887 308.517 132.126V132.186C309.646 132.332 310.501 132.691 311.081 133.262C311.661 133.827 311.951 134.591 311.951 135.555C311.951 136.957 311.463 138.05 310.488 138.834C309.512 139.611 308.119 140 306.308 140C304.79 140 303.445 139.738 302.271 139.213V136.591C302.813 136.877 303.41 137.11 304.06 137.289C304.71 137.468 305.354 137.558 305.992 137.558C306.968 137.558 307.688 137.385 308.154 137.04C308.619 136.694 308.852 136.14 308.852 135.375C308.852 134.691 308.584 134.206 308.049 133.92C307.513 133.635 306.659 133.492 305.485 133.492H304.423V131.13H305.504C306.588 131.13 307.379 130.983 307.877 130.691C308.38 130.392 308.632 129.884 308.632 129.166C308.632 128.063 307.969 127.512 306.643 127.512C306.183 127.512 305.715 127.591 305.237 127.751C304.765 127.91 304.239 128.186 303.658 128.578L302.29 126.455C303.566 125.498 305.087 125.02 306.853 125.02C308.301 125.02 309.442 125.326 310.277 125.937C311.119 126.548 311.54 127.399 311.54 128.488Z" fill="#FBFBFB"/>
<path d="M323.2 132.515C323.2 135.06 322.798 136.944 321.995 138.166C321.198 139.389 319.967 140 318.303 140C316.689 140 315.471 139.369 314.649 138.106C313.832 136.844 313.424 134.98 313.424 132.515C313.424 129.944 313.823 128.05 314.62 126.834C315.417 125.611 316.645 125 318.303 125C319.916 125 321.134 125.638 321.957 126.914C322.786 128.189 323.2 130.056 323.2 132.515ZM316.361 132.515C316.361 134.302 316.508 135.585 316.801 136.362C317.101 137.133 317.601 137.518 318.303 137.518C318.991 137.518 319.489 137.126 319.795 136.342C320.101 135.558 320.254 134.282 320.254 132.515C320.254 130.728 320.098 129.445 319.785 128.668C319.479 127.884 318.985 127.492 318.303 127.492C317.608 127.492 317.11 127.884 316.81 128.668C316.511 129.445 316.361 130.728 316.361 132.515Z" fill="#FBFBFB"/>
<path d="M332 139.801H329.044V131.369L329.073 129.983L329.121 128.468C328.63 128.98 328.289 129.316 328.097 129.475L326.49 130.821L325.065 128.967L329.57 125.229H332V139.801Z" fill="#FBFBFB"/>
<path d="M489.497 304.801L488.466 301.332H483.281L482.249 304.801H479L484.02 290.169H487.707L492.747 304.801H489.497ZM487.746 298.741C486.793 295.598 486.254 293.821 486.131 293.409C486.014 292.997 485.93 292.671 485.878 292.432C485.664 293.282 485.051 295.385 484.04 298.741H487.746Z" fill="#FBFBFB"/>
<path d="M502.943 293.488C502.943 294.399 502.673 295.173 502.135 295.811C501.597 296.449 500.841 296.887 499.868 297.126V297.186C501.016 297.332 501.885 297.691 502.476 298.262C503.066 298.827 503.361 299.591 503.361 300.555C503.361 301.957 502.865 303.05 501.872 303.834C500.88 304.611 499.463 305 497.621 305C496.077 305 494.709 304.738 493.515 304.213V301.591C494.067 301.877 494.673 302.11 495.335 302.289C495.996 302.468 496.651 302.558 497.3 302.558C498.292 302.558 499.025 302.385 499.499 302.04C499.972 301.694 500.209 301.14 500.209 300.375C500.209 299.691 499.936 299.206 499.392 298.92C498.847 298.635 497.978 298.492 496.784 298.492H495.704V296.13H496.804C497.906 296.13 498.711 295.983 499.217 295.691C499.729 295.392 499.985 294.884 499.985 294.166C499.985 293.063 499.311 292.512 497.961 292.512C497.495 292.512 497.018 292.591 496.531 292.751C496.051 292.91 495.516 293.186 494.926 293.578L493.535 291.455C494.832 290.498 496.379 290.02 498.176 290.02C499.648 290.02 500.809 290.326 501.658 290.937C502.515 291.548 502.943 292.399 502.943 293.488Z" fill="#FBFBFB"/>
<path d="M514.802 297.515C514.802 300.06 514.394 301.944 513.576 303.166C512.766 304.389 511.514 305 509.821 305C508.18 305 506.941 304.369 506.105 303.106C505.274 301.844 504.859 299.98 504.859 297.515C504.859 294.944 505.265 293.05 506.075 291.834C506.886 290.611 508.135 290 509.821 290C511.462 290 512.701 290.638 513.537 291.914C514.381 293.189 514.802 295.056 514.802 297.515ZM507.846 297.515C507.846 299.302 507.995 300.585 508.294 301.362C508.598 302.133 509.108 302.518 509.821 302.518C510.521 302.518 511.027 302.126 511.339 301.342C511.65 300.558 511.806 299.282 511.806 297.515C511.806 295.728 511.647 294.445 511.329 293.668C511.018 292.884 510.515 292.492 509.821 292.492C509.114 292.492 508.608 292.884 508.303 293.668C507.998 294.445 507.846 295.728 507.846 297.515Z" fill="#FBFBFB"/>
<path d="M521.496 295.492C522.871 295.492 523.963 295.887 524.774 296.678C525.591 297.468 526 298.551 526 299.927C526 301.555 525.51 302.807 524.531 303.684C523.552 304.561 522.151 305 520.328 305C518.746 305 517.468 304.738 516.495 304.213V301.551C517.007 301.831 517.604 302.06 518.285 302.239C518.966 302.412 519.611 302.498 520.221 302.498C522.057 302.498 522.974 301.728 522.974 300.186C522.974 298.718 522.024 297.983 520.124 297.983C519.78 297.983 519.401 298.02 518.986 298.093C518.57 298.159 518.233 298.233 517.974 298.312L516.777 297.654L517.312 290.229H525.027V292.841H519.949L519.686 295.701L520.026 295.631C520.422 295.538 520.912 295.492 521.496 295.492Z" fill="#FBFBFB"/>
<path d="M363.439 304.801L362.414 301.332H357.257L356.231 304.801H353L357.992 290.169H361.659L366.67 304.801H363.439ZM361.698 298.741C360.749 295.598 360.214 293.821 360.092 293.409C359.976 292.997 359.892 292.671 359.84 292.432C359.627 293.282 359.018 295.385 358.012 298.741H361.698Z" fill="#FBFBFB"/>
<path d="M376.81 293.488C376.81 294.399 376.542 295.173 376.007 295.811C375.471 296.449 374.72 296.887 373.752 297.126V297.186C374.894 297.332 375.758 297.691 376.345 298.262C376.932 298.827 377.226 299.591 377.226 300.555C377.226 301.957 376.732 303.05 375.745 303.834C374.759 304.611 373.349 305 371.517 305C369.982 305 368.622 304.738 367.435 304.213V301.591C367.983 301.877 368.586 302.11 369.244 302.289C369.902 302.468 370.553 302.558 371.198 302.558C372.185 302.558 372.914 302.385 373.385 302.04C373.856 301.694 374.091 301.14 374.091 300.375C374.091 299.691 373.82 299.206 373.278 298.92C372.737 298.635 371.872 298.492 370.685 298.492H369.612V296.13H370.705C371.801 296.13 372.601 295.983 373.104 295.691C373.614 295.392 373.868 294.884 373.868 294.166C373.868 293.063 373.198 292.512 371.856 292.512C371.392 292.512 370.918 292.591 370.434 292.751C369.957 292.91 369.425 293.186 368.838 293.578L367.454 291.455C368.744 290.498 370.282 290.02 372.069 290.02C373.533 290.02 374.688 290.326 375.533 290.937C376.384 291.548 376.81 292.399 376.81 293.488Z" fill="#FBFBFB"/>
<path d="M388.603 297.515C388.603 300.06 388.197 301.944 387.384 303.166C386.578 304.389 385.333 305 383.65 305C382.018 305 380.786 304.369 379.954 303.106C379.128 301.844 378.716 299.98 378.716 297.515C378.716 294.944 379.119 293.05 379.925 291.834C380.731 290.611 381.973 290 383.65 290C385.281 290 386.513 290.638 387.345 291.914C388.184 293.189 388.603 295.056 388.603 297.515ZM381.686 297.515C381.686 299.302 381.834 300.585 382.131 301.362C382.434 302.133 382.94 302.518 383.65 302.518C384.346 302.518 384.849 302.126 385.159 301.342C385.469 300.558 385.623 299.282 385.623 297.515C385.623 295.728 385.465 294.445 385.149 293.668C384.84 292.884 384.34 292.492 383.65 292.492C382.947 292.492 382.444 292.884 382.14 293.668C381.837 294.445 381.686 295.728 381.686 297.515Z" fill="#FBFBFB"/>
<path d="M390.016 298.611C390.016 295.728 390.606 293.581 391.786 292.173C392.973 290.764 394.747 290.06 397.107 290.06C397.913 290.06 398.546 290.11 399.003 290.209V292.671C398.429 292.538 397.862 292.472 397.301 292.472C396.275 292.472 395.437 292.631 394.785 292.95C394.14 293.269 393.657 293.741 393.334 294.365C393.012 294.99 392.821 295.877 392.763 297.027H392.889C393.528 295.897 394.55 295.332 395.956 295.332C397.22 295.332 398.21 295.741 398.926 296.558C399.642 297.375 400 298.505 400 299.947C400 301.502 399.574 302.734 398.723 303.645C397.872 304.548 396.691 305 395.182 305C394.137 305 393.224 304.751 392.444 304.252C391.67 303.754 391.07 303.027 390.645 302.07C390.225 301.113 390.016 299.96 390.016 298.611ZM395.124 302.538C395.762 302.538 396.253 302.319 396.594 301.88C396.936 301.435 397.107 300.804 397.107 299.987C397.107 299.276 396.946 298.718 396.624 298.312C396.307 297.9 395.827 297.694 395.182 297.694C394.576 297.694 394.056 297.897 393.624 298.302C393.199 298.708 392.986 299.179 392.986 299.718C392.986 300.508 393.186 301.176 393.586 301.721C393.992 302.266 394.505 302.538 395.124 302.538Z" fill="#FBFBFB"/>
<path d="M375.439 139.801L374.414 136.332H369.257L368.231 139.801H365L369.992 125.169H373.659L378.67 139.801H375.439ZM373.698 133.741C372.749 130.598 372.214 128.821 372.092 128.409C371.976 127.997 371.892 127.671 371.84 127.432C371.627 128.282 371.018 130.385 370.012 133.741H373.698Z" fill="#FBFBFB"/>
<path d="M388.81 128.488C388.81 129.399 388.542 130.173 388.007 130.811C387.471 131.449 386.72 131.887 385.752 132.126V132.186C386.894 132.332 387.758 132.691 388.345 133.262C388.932 133.827 389.226 134.591 389.226 135.555C389.226 136.957 388.732 138.05 387.745 138.834C386.759 139.611 385.349 140 383.517 140C381.982 140 380.622 139.738 379.435 139.213V136.591C379.983 136.877 380.586 137.11 381.244 137.289C381.902 137.468 382.553 137.558 383.198 137.558C384.185 137.558 384.914 137.385 385.385 137.04C385.856 136.694 386.091 136.14 386.091 135.375C386.091 134.691 385.82 134.206 385.278 133.92C384.737 133.635 383.872 133.492 382.685 133.492H381.612V131.13H382.705C383.801 131.13 384.601 130.983 385.104 130.691C385.614 130.392 385.868 129.884 385.868 129.166C385.868 128.063 385.198 127.512 383.856 127.512C383.392 127.512 382.918 127.591 382.434 127.751C381.957 127.91 381.425 128.186 380.838 128.578L379.454 126.455C380.744 125.498 382.282 125.02 384.069 125.02C385.533 125.02 386.688 125.326 387.533 125.937C388.384 126.548 388.81 127.399 388.81 128.488Z" fill="#FBFBFB"/>
<path d="M400.603 132.515C400.603 135.06 400.197 136.944 399.384 138.166C398.578 139.389 397.333 140 395.65 140C394.018 140 392.786 139.369 391.954 138.106C391.128 136.844 390.716 134.98 390.716 132.515C390.716 129.944 391.119 128.05 391.925 126.834C392.731 125.611 393.973 125 395.65 125C397.281 125 398.513 125.638 399.345 126.914C400.184 128.189 400.603 130.056 400.603 132.515ZM393.686 132.515C393.686 134.302 393.834 135.585 394.131 136.362C394.434 137.133 394.94 137.518 395.65 137.518C396.346 137.518 396.849 137.126 397.159 136.342C397.469 135.558 397.623 134.282 397.623 132.515C397.623 130.728 397.465 129.445 397.149 128.668C396.84 127.884 396.34 127.492 395.65 127.492C394.947 127.492 394.444 127.884 394.14 128.668C393.837 129.445 393.686 130.728 393.686 132.515Z" fill="#FBFBFB"/>
<path d="M412 139.801H402.112V137.658L405.663 133.96C406.714 132.85 407.401 132.083 407.724 131.658C408.046 131.226 408.278 130.827 408.42 130.462C408.562 130.096 408.633 129.718 408.633 129.326C408.633 128.741 408.475 128.306 408.159 128.02C407.85 127.734 407.434 127.591 406.911 127.591C406.363 127.591 405.831 127.721 405.315 127.98C404.799 128.239 404.26 128.608 403.699 129.086L402.074 127.103C402.77 126.492 403.348 126.06 403.805 125.807C404.263 125.555 404.763 125.362 405.305 125.229C405.847 125.09 406.453 125.02 407.124 125.02C408.008 125.02 408.788 125.186 409.465 125.518C410.142 125.85 410.668 126.316 411.042 126.914C411.416 127.512 411.603 128.196 411.603 128.967C411.603 129.638 411.487 130.269 411.255 130.86C411.029 131.445 410.675 132.047 410.191 132.664C409.714 133.282 408.869 134.163 407.656 135.306L405.837 137.07V137.209H412V139.801Z" fill="#FBFBFB"/>
<path d="M472.469 139.801L471.441 136.332H466.269L465.241 139.801H462L467.007 125.169H470.684L475.71 139.801H472.469ZM470.723 133.741C469.772 130.598 469.235 128.821 469.112 128.409C468.996 127.997 468.912 127.671 468.86 127.432C468.646 128.282 468.035 130.385 467.026 133.741H470.723Z" fill="#FBFBFB"/>
<path d="M485.878 128.488C485.878 129.399 485.61 130.173 485.073 130.811C484.536 131.449 483.783 131.887 482.812 132.126V132.186C483.957 132.332 484.824 132.691 485.413 133.262C486.001 133.827 486.296 134.591 486.296 135.555C486.296 136.957 485.801 138.05 484.811 138.834C483.821 139.611 482.408 140 480.571 140C479.032 140 477.667 139.738 476.476 139.213V136.591C477.026 136.877 477.631 137.11 478.291 137.289C478.951 137.468 479.604 137.558 480.251 137.558C481.241 137.558 481.971 137.385 482.444 137.04C482.916 136.694 483.152 136.14 483.152 135.375C483.152 134.691 482.88 134.206 482.337 133.92C481.794 133.635 480.927 133.492 479.737 133.492H478.66V131.13H479.756C480.856 131.13 481.658 130.983 482.162 130.691C482.673 130.392 482.929 129.884 482.929 129.166C482.929 128.063 482.256 127.512 480.911 127.512C480.445 127.512 479.969 127.591 479.484 127.751C479.006 127.91 478.472 128.186 477.883 128.578L476.496 126.455C477.79 125.498 479.332 125.02 481.124 125.02C482.592 125.02 483.75 125.326 484.598 125.937C485.451 126.548 485.878 127.399 485.878 128.488Z" fill="#FBFBFB"/>
<path d="M497.706 132.515C497.706 135.06 497.299 136.944 496.483 138.166C495.675 139.389 494.427 140 492.738 140C491.102 140 489.866 139.369 489.032 138.106C488.204 136.844 487.79 134.98 487.79 132.515C487.79 129.944 488.194 128.05 489.003 126.834C489.811 125.611 491.056 125 492.738 125C494.375 125 495.61 125.638 496.445 126.914C497.286 128.189 497.706 130.056 497.706 132.515ZM490.769 132.515C490.769 134.302 490.917 135.585 491.215 136.362C491.519 137.133 492.027 137.518 492.738 137.518C493.437 137.518 493.941 137.126 494.252 136.342C494.562 135.558 494.718 134.282 494.718 132.515C494.718 130.728 494.559 129.445 494.242 128.668C493.932 127.884 493.43 127.492 492.738 127.492C492.033 127.492 491.529 127.884 491.225 128.668C490.921 129.445 490.769 130.728 490.769 132.515Z" fill="#FBFBFB"/>
<path d="M508.583 128.488C508.583 129.399 508.314 130.173 507.777 130.811C507.241 131.449 506.487 131.887 505.517 132.126V132.186C506.662 132.332 507.528 132.691 508.117 133.262C508.706 133.827 509 134.591 509 135.555C509 136.957 508.505 138.05 507.515 138.834C506.526 139.611 505.112 140 503.275 140C501.736 140 500.371 139.738 499.181 139.213V136.591C499.731 136.877 500.335 137.11 500.995 137.289C501.655 137.468 502.308 137.558 502.955 137.558C503.945 137.558 504.676 137.385 505.148 137.04C505.62 136.694 505.856 136.14 505.856 135.375C505.856 134.691 505.585 134.206 505.041 133.92C504.498 133.635 503.631 133.492 502.441 133.492H501.364V131.13H502.46C503.56 131.13 504.362 130.983 504.867 130.691C505.378 130.392 505.633 129.884 505.633 129.166C505.633 128.063 504.96 127.512 503.615 127.512C503.149 127.512 502.674 127.591 502.189 127.751C501.71 127.91 501.176 128.186 500.588 128.578L499.2 126.455C500.494 125.498 502.037 125.02 503.828 125.02C505.297 125.02 506.455 125.326 507.302 125.937C508.156 126.548 508.583 127.399 508.583 128.488Z" fill="#FBFBFB"/>
<path d="M569.589 139.801L568.549 136.332H563.318L562.278 139.801H559L564.064 125.169H567.783L572.867 139.801H569.589ZM567.823 133.741C566.861 130.598 566.318 128.821 566.194 128.409C566.076 127.997 565.991 127.671 565.938 127.432C565.723 128.282 565.104 130.385 564.084 133.741H567.823Z" fill="#FBFBFB"/>
<path d="M583.152 128.488C583.152 129.399 582.881 130.173 582.338 130.811C581.795 131.449 581.032 131.887 580.051 132.126V132.186C581.209 132.332 582.086 132.691 582.681 133.262C583.276 133.827 583.574 134.591 583.574 135.555C583.574 136.957 583.074 138.05 582.073 138.834C581.072 139.611 579.642 140 577.784 140C576.227 140 574.846 139.738 573.642 139.213V136.591C574.199 136.877 574.81 137.11 575.478 137.289C576.145 137.468 576.806 137.558 577.46 137.558C578.461 137.558 579.2 137.385 579.678 137.04C580.156 136.694 580.394 136.14 580.394 135.375C580.394 134.691 580.12 134.206 579.57 133.92C579.02 133.635 578.144 133.492 576.94 133.492H575.851V131.13H576.96C578.072 131.13 578.883 130.983 579.393 130.691C579.91 130.392 580.169 129.884 580.169 129.166C580.169 128.063 579.488 127.512 578.127 127.512C577.656 127.512 577.175 127.591 576.685 127.751C576.201 127.91 575.661 128.186 575.065 128.578L573.662 126.455C574.971 125.498 576.531 125.02 578.343 125.02C579.828 125.02 581 125.326 581.857 125.937C582.72 126.548 583.152 127.399 583.152 128.488Z" fill="#FBFBFB"/>
<path d="M595.115 132.515C595.115 135.06 594.703 136.944 593.879 138.166C593.061 139.389 591.798 140 590.091 140C588.435 140 587.186 139.369 586.342 138.106C585.504 136.844 585.085 134.98 585.085 132.515C585.085 129.944 585.494 128.05 586.312 126.834C587.13 125.611 588.389 125 590.091 125C591.746 125 592.996 125.638 593.84 126.914C594.69 128.189 595.115 130.056 595.115 132.515ZM588.098 132.515C588.098 134.302 588.249 135.585 588.55 136.362C588.857 137.133 589.371 137.518 590.091 137.518C590.797 137.518 591.308 137.126 591.622 136.342C591.936 135.558 592.093 134.282 592.093 132.515C592.093 130.728 591.932 129.445 591.612 128.668C591.298 127.884 590.791 127.492 590.091 127.492C589.377 127.492 588.867 127.884 588.56 128.668C588.252 129.445 588.098 130.728 588.098 132.515Z" fill="#FBFBFB"/>
<path d="M607 136.781H605.273V139.801H602.309V136.781H596.185V134.638L602.476 125.229H605.273V134.389H607V136.781ZM602.309 134.389V131.917C602.309 131.505 602.325 130.907 602.358 130.123C602.391 129.339 602.417 128.884 602.437 128.757H602.358C602.116 129.302 601.825 129.834 601.485 130.352L598.854 134.389H602.309Z" fill="#FBFBFB"/>
<path fill-rule="evenodd" clip-rule="evenodd" d="M175 305V274H178V305H175Z" fill="white"/>
<path fill-rule="evenodd" clip-rule="evenodd" d="M278.748 243.762V213H282V247H246V243.762H278.748Z" fill="white"/>
<path fill-rule="evenodd" clip-rule="evenodd" d="M630.634 241.639V210H633V244H567V241.639H630.634Z" fill="white"/>
<path d="M134.852 140.814L133.884 137.577H129.017L128.05 140.814H125L129.711 127.158H133.172L137.901 140.814H134.852ZM133.208 135.158C132.313 132.225 131.808 130.566 131.693 130.181C131.583 129.797 131.504 129.493 131.455 129.27C131.254 130.064 130.679 132.026 129.73 135.158H133.208Z" fill="#FBFBFB"/>
<path d="M147.99 140.814H138.659V138.814L142.01 135.363C143.002 134.327 143.65 133.611 143.955 133.214C144.259 132.811 144.478 132.439 144.612 132.098C144.746 131.757 144.813 131.403 144.813 131.037C144.813 130.491 144.664 130.085 144.366 129.819C144.073 129.552 143.681 129.419 143.188 129.419C142.67 129.419 142.168 129.54 141.681 129.781C141.194 130.023 140.686 130.367 140.157 130.814L138.623 128.963C139.28 128.392 139.825 127.989 140.257 127.753C140.689 127.518 141.161 127.338 141.672 127.214C142.183 127.084 142.756 127.019 143.389 127.019C144.223 127.019 144.959 127.174 145.598 127.484C146.237 127.794 146.733 128.228 147.087 128.786C147.44 129.344 147.616 129.983 147.616 130.702C147.616 131.329 147.507 131.918 147.287 132.47C147.074 133.016 146.74 133.577 146.283 134.153C145.833 134.73 145.035 135.552 143.891 136.619L142.174 138.265V138.395H147.99V140.814Z" fill="#FBFBFB"/>
<path d="M158.6 134.014C158.6 136.389 158.217 138.147 157.45 139.288C156.689 140.429 155.514 141 153.925 141C152.385 141 151.223 140.411 150.437 139.233C149.658 138.054 149.269 136.315 149.269 134.014C149.269 131.614 149.649 129.847 150.41 128.712C151.171 127.571 152.343 127 153.925 127C155.465 127 156.628 127.595 157.413 128.786C158.204 129.977 158.6 131.719 158.6 134.014ZM152.072 134.014C152.072 135.682 152.212 136.879 152.492 137.605C152.778 138.324 153.256 138.684 153.925 138.684C154.583 138.684 155.057 138.318 155.35 137.586C155.642 136.854 155.788 135.664 155.788 134.014C155.788 132.346 155.639 131.149 155.34 130.423C155.048 129.691 154.577 129.326 153.925 129.326C153.262 129.326 152.787 129.691 152.501 130.423C152.215 131.149 152.072 132.346 152.072 134.014Z" fill="#FBFBFB"/>
<path d="M167 140.814H164.179V132.944L164.206 131.651L164.252 130.237C163.783 130.715 163.457 131.028 163.275 131.177L161.741 132.433L160.38 130.702L164.681 127.214H167V140.814Z" fill="#FBFBFB"/>
<path d="M160 169C160 176.18 154.404 182 147.5 182C140.596 182 135 176.18 135 169C135 161.82 140.596 156 147.5 156C154.404 156 160 161.82 160 169Z" fill="#E14235"/>
<path d="M150 175H147.869V168.635L147.89 167.589L147.924 166.445C147.57 166.832 147.324 167.085 147.186 167.205L146.028 168.221L145 166.821L148.248 164H150V175Z" fill="white"/>
<path d="M324 169C324 176.18 318.18 182 311 182C303.82 182 298 176.18 298 169C298 161.82 303.82 156 311 156C318.18 156 324 161.82 324 169Z" fill="#E14235"/>
<path d="M314.66 166.547C314.66 167.215 314.441 167.784 314.004 168.252C313.567 168.721 312.953 169.043 312.162 169.218V169.262C313.095 169.369 313.801 169.633 314.281 170.053C314.76 170.467 315 171.028 315 171.736C315 172.765 314.597 173.568 313.791 174.144C312.984 174.715 311.833 175 310.336 175C309.082 175 307.97 174.807 307 174.422V172.497C307.448 172.707 307.941 172.878 308.478 173.009C309.016 173.141 309.548 173.207 310.075 173.207C310.881 173.207 311.477 173.08 311.862 172.826C312.246 172.573 312.439 172.165 312.439 171.604C312.439 171.102 312.217 170.745 311.775 170.536C311.332 170.326 310.626 170.221 309.656 170.221H308.779V168.486H309.672C310.568 168.486 311.221 168.379 311.632 168.164C312.049 167.945 312.257 167.572 312.257 167.045C312.257 166.235 311.709 165.83 310.613 165.83C310.233 165.83 309.846 165.888 309.451 166.005C309.061 166.122 308.626 166.325 308.146 166.613L307.016 165.054C308.07 164.351 309.327 164 310.787 164C311.983 164 312.926 164.224 313.617 164.673C314.312 165.122 314.66 165.747 314.66 166.547Z" fill="white"/>
<path d="M390 325.5C390 332.404 384.404 338 377.5 338C370.596 338 365 332.404 365 325.5C365 318.596 370.596 313 377.5 313C384.404 313 390 318.596 390 325.5Z" fill="#E14235"/>
<path d="M381 328.72H379.882V331H377.964V328.72H374V327.103L378.072 320H379.882V326.915H381V328.72ZM377.964 326.915V325.049C377.964 324.738 377.974 324.286 377.995 323.694C378.017 323.102 378.034 322.759 378.046 322.663H377.995C377.839 323.075 377.65 323.476 377.43 323.867L375.728 326.915H377.964Z" fill="white"/>
<path d="M516 325.5C516 332.404 510.18 338 503 338C495.82 338 490 332.404 490 325.5C490 318.596 495.82 313 503 313C510.18 313 516 318.596 516 325.5Z" fill="#E14235"/>
<path d="M507 328.72H505.722V331H503.53V328.72H499V327.103L503.653 320H505.722V326.915H507V328.72ZM503.53 326.915V325.049C503.53 324.738 503.542 324.286 503.566 323.694C503.59 323.102 503.61 322.759 503.624 322.663H503.566C503.387 323.075 503.172 323.476 502.92 323.867L500.975 326.915H503.53Z" fill="white"/>
<path d="M401 169C401 176.18 395.404 182 388.5 182C381.596 182 376 176.18 376 169C376 161.82 381.596 156 388.5 156C395.404 156 401 161.82 401 169Z" fill="#E14235"/>
<path d="M391.703 166.547C391.703 167.215 391.511 167.784 391.128 168.252C390.746 168.721 390.208 169.043 389.517 169.218V169.262C390.333 169.369 390.951 169.633 391.371 170.053C391.79 170.467 392 171.028 392 171.736C392 172.765 391.647 173.568 390.942 174.144C390.236 174.715 389.229 175 387.919 175C386.821 175 385.848 174.807 385 174.422V172.497C385.392 172.707 385.823 172.878 386.293 173.009C386.764 173.141 387.23 173.207 387.691 173.207C388.396 173.207 388.917 173.08 389.254 172.826C389.591 172.573 389.759 172.165 389.759 171.604C389.759 171.102 389.565 170.745 389.178 170.536C388.791 170.326 388.173 170.221 387.324 170.221H386.556V168.486H387.338C388.122 168.486 388.694 168.379 389.053 168.164C389.418 167.945 389.6 167.572 389.6 167.045C389.6 166.235 389.12 165.83 388.161 165.83C387.829 165.83 387.49 165.888 387.144 166.005C386.803 166.122 386.423 166.325 386.003 166.613L385.014 165.054C385.936 164.351 387.036 164 388.313 164C389.36 164 390.185 164.224 390.79 164.673C391.398 165.122 391.703 165.747 391.703 166.547Z" fill="white"/>
<path d="M499 169C499 176.18 493.18 182 486 182C478.82 182 473 176.18 473 169C473 161.82 478.82 156 486 156C493.18 156 499 161.82 499 169Z" fill="#E14235"/>
<path d="M489.66 166.547C489.66 167.215 489.441 167.784 489.004 168.252C488.567 168.721 487.953 169.043 487.162 169.218V169.262C488.095 169.369 488.801 169.633 489.281 170.053C489.76 170.467 490 171.028 490 171.736C490 172.765 489.597 173.568 488.791 174.144C487.984 174.715 486.833 175 485.336 175C484.082 175 482.97 174.807 482 174.422V172.497C482.448 172.707 482.941 172.878 483.478 173.009C484.016 173.141 484.548 173.207 485.075 173.207C485.881 173.207 486.477 173.08 486.862 172.826C487.246 172.573 487.439 172.165 487.439 171.604C487.439 171.102 487.217 170.745 486.775 170.536C486.332 170.326 485.626 170.221 484.656 170.221H483.779V168.486H484.672C485.568 168.486 486.221 168.379 486.632 168.164C487.049 167.945 487.257 167.572 487.257 167.045C487.257 166.235 486.709 165.83 485.613 165.83C485.233 165.83 484.846 165.888 484.451 166.005C484.061 166.122 483.626 166.325 483.146 166.613L482.016 165.054C483.07 164.351 484.327 164 485.787 164C486.983 164 487.926 164.224 488.617 164.673C489.312 165.122 489.66 165.747 489.66 166.547Z" fill="white"/>
<path d="M596 169C596 176.18 590.18 182 583 182C575.82 182 570 176.18 570 169C570 161.82 575.82 156 583 156C590.18 156 596 161.82 596 169Z" fill="#E14235"/>
<path d="M586.66 166.547C586.66 167.215 586.441 167.784 586.004 168.252C585.567 168.721 584.953 169.043 584.162 169.218V169.262C585.095 169.369 585.801 169.633 586.281 170.053C586.76 170.467 587 171.028 587 171.736C587 172.765 586.597 173.568 585.791 174.144C584.984 174.715 583.833 175 582.336 175C581.082 175 579.97 174.807 579 174.422V172.497C579.448 172.707 579.941 172.878 580.478 173.009C581.016 173.141 581.548 173.207 582.075 173.207C582.881 173.207 583.477 173.08 583.862 172.826C584.246 172.573 584.439 172.165 584.439 171.604C584.439 171.102 584.217 170.745 583.775 170.536C583.332 170.326 582.626 170.221 581.656 170.221H580.779V168.486H581.672C582.568 168.486 583.221 168.379 583.632 168.164C584.049 167.945 584.257 167.572 584.257 167.045C584.257 166.235 583.709 165.83 582.613 165.83C582.233 165.83 581.846 165.888 581.451 166.005C581.061 166.122 580.626 166.325 580.146 166.613L579.016 165.054C580.07 164.351 581.327 164 582.787 164C583.983 164 584.926 164.224 585.617 164.673C586.312 165.122 586.66 165.747 586.66 166.547Z" fill="white"/>
<path d="M52 169C52 176.18 46.4036 182 39.5 182C32.5964 182 27 176.18 27 169C27 161.82 32.5964 156 39.5 156C46.4036 156 52 161.82 52 169Z" fill="#E14235"/>
<path d="M44 175H36.0312V173.405L38.8928 170.653C39.7401 169.828 40.2937 169.256 40.5536 168.94C40.8135 168.619 41.0006 168.322 41.115 168.05C41.2294 167.778 41.2865 167.496 41.2865 167.204C41.2865 166.769 41.1592 166.445 40.9045 166.233C40.655 166.02 40.3197 165.914 39.8986 165.914C39.4568 165.914 39.0279 166.01 38.6121 166.203C38.1962 166.396 37.7622 166.67 37.3099 167.026L36 165.55C36.5614 165.095 37.0266 164.774 37.3957 164.586C37.7648 164.398 38.1676 164.255 38.6043 164.156C39.0409 164.052 39.5296 164 40.0702 164C40.7823 164 41.4113 164.124 41.9571 164.371C42.5029 164.618 42.9266 164.964 43.2281 165.409C43.5296 165.854 43.6803 166.364 43.6803 166.937C43.6803 167.437 43.5867 167.906 43.3996 168.347C43.2177 168.782 42.9318 169.229 42.5419 169.689C42.1572 170.149 41.4763 170.804 40.499 171.655L39.0331 172.968V173.071H44V175Z" fill="white"/>
</svg>
