<svg width="648" height="432" viewBox="0 0 648 432" fill="none" xmlns="http://www.w3.org/2000/svg">
<rect x="0.5" y="0.5" width="647" height="431" rx="9.5" stroke="#6699FF"/>
<path d="M277.92 357.975H290.79V358.762H287.001V382.214H288.288C290.314 382.214 291.922 381.594 293.114 380.355C294.329 379.115 295.557 377.209 296.796 374.635H297.547L296.868 383H277.92V382.214H280.03V358.762H277.92V357.975ZM307.403 374.599H308.44V371.846C308.44 369.582 308.309 368.069 308.047 367.306C307.808 366.519 307.332 366.126 306.617 366.126C306.188 366.126 305.794 366.245 305.437 366.484C305.103 366.698 304.936 367.008 304.936 367.413C304.936 367.794 305.008 368.188 305.151 368.593H306.045C306.235 369.093 306.331 369.701 306.331 370.416C306.331 371.107 306.033 371.715 305.437 372.239C304.841 372.74 304.09 372.99 303.185 372.99C301.135 372.99 300.11 372.001 300.11 370.023C300.11 367.091 302.601 365.626 307.582 365.626C310.418 365.626 312.372 366.114 313.445 367.091C314.541 368.045 315.089 369.808 315.089 372.382V379.64C315.089 380.879 315.435 381.499 316.126 381.499C316.936 381.499 317.413 380.271 317.556 377.816L318.092 377.852C317.997 379.949 317.604 381.391 316.913 382.178C316.221 382.964 315.089 383.357 313.516 383.357C310.656 383.357 309.012 382.476 308.583 380.712C308.273 381.618 307.808 382.285 307.189 382.714C306.569 383.143 305.663 383.357 304.472 383.357C300.944 383.357 299.181 381.916 299.181 379.032C299.181 377.34 299.848 376.184 301.183 375.564C302.541 374.921 304.615 374.599 307.403 374.599ZM305.973 378.996C305.973 380.235 306.033 381.034 306.152 381.391C306.295 381.749 306.545 381.928 306.903 381.928C307.284 381.928 307.63 381.63 307.939 381.034C308.273 380.414 308.44 379.568 308.44 378.496V375.171H308.19C306.712 375.171 305.973 376.255 305.973 378.424V378.996ZM318.515 365.983H327.131V369.272C327.512 368.176 328.096 367.294 328.883 366.627C329.669 365.959 330.861 365.626 332.458 365.626C336.152 365.626 337.999 367.616 337.999 371.596V382.357H340.001V383H329.884V382.357H331.349V370.738C331.349 369.308 331.254 368.39 331.063 367.985C330.873 367.556 330.527 367.342 330.027 367.342C329.264 367.342 328.585 367.842 327.989 368.843C327.417 369.844 327.131 371.06 327.131 372.49V382.357H328.668V383H318.515V382.357H320.481V366.627H318.515V365.983ZM342.086 377.888V366.627H340.12V365.983H342.086V361.371L348.736 359.727V365.983H353.383V366.627H348.736V378.674C348.736 379.794 348.843 380.617 349.057 381.141C349.296 381.665 349.772 381.928 350.487 381.928C351.202 381.928 351.822 381.57 352.346 380.855C352.894 380.14 353.252 379.163 353.419 377.924L354.026 377.995C353.836 379.64 353.311 380.95 352.453 381.928C351.596 382.881 350.177 383.357 348.199 383.357C346.221 383.357 344.708 382.964 343.659 382.178C342.61 381.391 342.086 379.961 342.086 377.888ZM362.948 374.599H363.985V371.846C363.985 369.582 363.854 368.069 363.592 367.306C363.353 366.519 362.877 366.126 362.162 366.126C361.733 366.126 361.339 366.245 360.982 366.484C360.648 366.698 360.481 367.008 360.481 367.413C360.481 367.794 360.553 368.188 360.696 368.593H361.59C361.78 369.093 361.876 369.701 361.876 370.416C361.876 371.107 361.578 371.715 360.982 372.239C360.386 372.74 359.635 372.99 358.73 372.99C356.68 372.99 355.655 372.001 355.655 370.023C355.655 367.091 358.146 365.626 363.127 365.626C365.963 365.626 367.917 366.114 368.99 367.091C370.086 368.045 370.634 369.808 370.634 372.382V379.64C370.634 380.879 370.98 381.499 371.671 381.499C372.481 381.499 372.958 380.271 373.101 377.816L373.637 377.852C373.542 379.949 373.149 381.391 372.457 382.178C371.766 382.964 370.634 383.357 369.061 383.357C366.201 383.357 364.557 382.476 364.128 380.712C363.818 381.618 363.353 382.285 362.734 382.714C362.114 383.143 361.208 383.357 360.017 383.357C356.489 383.357 354.726 381.916 354.726 379.032C354.726 377.34 355.393 376.184 356.728 375.564C358.086 374.921 360.16 374.599 362.948 374.599ZM361.518 378.996C361.518 380.235 361.578 381.034 361.697 381.391C361.84 381.749 362.09 381.928 362.448 381.928C362.829 381.928 363.174 381.63 363.484 381.034C363.818 380.414 363.985 379.568 363.985 378.496V375.171H363.734C362.257 375.171 361.518 376.255 361.518 378.424V378.996ZM379.244 363.516C377.981 363.516 377.075 363.195 376.527 362.551C376.002 361.908 375.74 361.109 375.74 360.156C375.74 359.203 376.026 358.416 376.598 357.796C377.194 357.177 378.088 356.867 379.28 356.867C380.471 356.867 381.377 357.153 381.996 357.725C382.616 358.273 382.926 359.071 382.926 360.12C382.926 361.145 382.628 361.967 382.032 362.587C381.436 363.207 380.507 363.516 379.244 363.516ZM373.846 365.983H382.604V382.357H384.606V383H373.989V382.357H375.955V366.627H373.846V365.983ZM392.652 363.052C392.652 361.455 393.344 360.144 394.726 359.119C396.108 358.094 398.182 357.582 400.946 357.582C403.711 357.582 405.832 358.094 407.31 359.119C408.811 360.144 409.562 361.681 409.562 363.731C409.562 364.398 409.502 365.006 409.383 365.554C409.264 366.078 408.99 366.639 408.561 367.234C408.156 367.806 407.751 368.319 407.346 368.772C406.964 369.224 406.297 369.82 405.344 370.559C403.914 371.703 402.412 372.847 400.839 373.991C399.266 375.111 398.349 375.767 398.086 375.957L395.906 377.53H404.486C406.13 377.53 407.298 377.173 407.989 376.458C408.68 375.743 409.169 374.623 409.455 373.097H410.063L409.705 383H392.903V378.853L396.513 375.528C398.968 373.288 400.708 371.298 401.733 369.558C402.758 367.794 403.27 365.864 403.27 363.767C403.27 361.645 403.044 360.204 402.591 359.441C402.138 358.654 401.375 358.261 400.303 358.261C399.23 358.261 398.48 358.535 398.051 359.083C397.622 359.632 397.407 360.156 397.407 360.656C397.407 361.157 397.479 361.598 397.622 361.979H398.694C398.885 362.48 398.98 363.087 398.98 363.802C398.98 364.494 398.682 365.101 398.086 365.626C397.491 366.126 396.704 366.376 395.727 366.376C394.75 366.376 393.987 366.067 393.439 365.447C392.915 364.803 392.652 364.005 392.652 363.052Z" fill="#181818"/>
<path d="M352 58H431V236H352V58Z" fill="#05AC72"/>
<path fill-rule="evenodd" clip-rule="evenodd" d="M430.188 59.2258H354.812V232.774H430.188V59.2258ZM352 56V236H433V56H352Z" fill="white"/>
<path d="M293 56H355V236H293V56Z" fill="#05AC72"/>
<path fill-rule="evenodd" clip-rule="evenodd" d="M351.771 59.2258H296.229V232.774H351.771V59.2258ZM293 56V236H355V56H293Z" fill="white"/>
<path d="M532 145H622V236H532V145Z" fill="#05AC72"/>
<path fill-rule="evenodd" clip-rule="evenodd" d="M618.786 148.204H535.214V232.796H618.786V148.204ZM532 145V236H622V145H532Z" fill="white"/>
<path fill-rule="evenodd" clip-rule="evenodd" d="M120.068 58.225L26 58V215.359L54.9076 217.384L57.6127 215.888V231.144V325.455L531.678 327.479V341H622V327.479V257.945V217.913H534.904V146.634H491.792V217.913H432.114H125.07V196.781H120.068V58.225Z" fill="#05AC72"/>
<path d="M535.861 337.776H619.773V220.953H532.634V147.47H490.064L491.756 144.879H535.861V217.729H623V341H532.634V327.459H55.6282V217.199H24V56H120.821V196.566H125.825V217.729H430.54V136.864V78.4598L433.767 81.6838V220.953H122.598V199.79H117.594V59.224H27.2274V213.975H58.8556V324.235H535.861V337.776Z" fill="white"/>
<path d="M471 56H622V148H471V56Z" fill="#05AC72"/>
<path fill-rule="evenodd" clip-rule="evenodd" d="M618.774 59.2394H474.226V144.761H618.774V59.2394ZM471 56V148H622V56H471Z" fill="white"/>
<path d="M441 262H565V341H441V262Z" fill="#05AC72"/>
<path fill-rule="evenodd" clip-rule="evenodd" d="M561.754 265.238H444.246V337.762H561.754V265.238ZM441 262V341H565V262H441Z" fill="white"/>
<path d="M328 262H445V341H328V262Z" fill="#05AC72"/>
<path fill-rule="evenodd" clip-rule="evenodd" d="M441.768 265.238H331.232V337.762H441.768V265.238ZM328 262V341H445V262H328Z" fill="white"/>
<path d="M232 264H262V296H232V264Z" fill="#05AC72"/>
<path fill-rule="evenodd" clip-rule="evenodd" d="M258.809 265.265H235.191V290.735H258.809V265.265ZM232 262V294H262V262H232Z" fill="white"/>
<path d="M263 204H296V236H263V204Z" fill="#05AC72"/>
<path fill-rule="evenodd" clip-rule="evenodd" d="M292.765 207.265H266.235V232.735H292.765V207.265ZM263 204V236H296V204H263Z" fill="white"/>
<path fill-rule="evenodd" clip-rule="evenodd" d="M260.81 262H259V263.42V292.58V294H260.81H329.19H331V292.58V263.42V262H329.19H260.81ZM265.419 291.16H267.293V264.84H265.419V291.16ZM264.514 291.16V264.84H262.641V291.16H264.514ZM272.85 291.16H270.976V264.84H272.85V291.16ZM270.071 264.84V291.16H268.198V264.84H270.071ZM276.533 291.16H278.406V264.84H276.533V291.16ZM275.628 291.16V264.84H273.754V291.16H275.628ZM283.963 291.16H282.089V264.84H283.963V291.16ZM281.185 264.84V291.16H279.311V264.84H281.185ZM287.646 291.16H289.52V264.84H287.646V291.16ZM286.741 291.16V264.84H284.868V291.16H286.741ZM295.076 291.16H293.203V264.84H295.076V291.16ZM292.298 264.84V291.16H290.425V264.84H292.298ZM298.76 291.16H300.633V264.84H298.76V291.16ZM297.855 291.16V264.84H295.981V291.16H297.855ZM306.19 291.16H304.316V264.84H306.19V291.16ZM303.412 264.84V291.16H301.538V264.84H303.412ZM309.873 291.16H311.747V264.84H309.873V291.16ZM308.968 291.16V264.84H307.095V291.16H308.968ZM317.303 291.16H315.43V264.84H317.303V291.16ZM314.525 264.84V291.16H312.651V264.84H314.525ZM320.987 291.16H322.86V264.84H320.987V291.16ZM320.082 291.16V264.84H318.208V291.16H320.082ZM325.638 291.16H323.765V264.84H325.638V291.16ZM326.543 291.16H327.381V264.84H326.543V291.16Z" fill="white"/>
<path fill-rule="evenodd" clip-rule="evenodd" d="M269.548 56H116V87.7367H148.903V204.968H121.806V221.808V223.751V238H221.274L244.452 223.751H265.677V209.502H296V83.2028H269.548V56Z" fill="#05AC72"/>
<path fill-rule="evenodd" clip-rule="evenodd" d="M148.903 87.7367V204.968H121.806V238H221.274L244.452 223.751H265.677V209.502H296V83.2028H269.548V56H116V87.7367H148.903ZM119.226 84.4982H152.129V208.206H125.032V234.762H220.365L243.543 220.512H262.452V206.263H292.774V86.4413H266.323V59.2384H119.226V84.4982Z" fill="white"/>
<path fill-rule="evenodd" clip-rule="evenodd" d="M268.637 56H211L232.325 66.1087L239.771 69.7741H266.491V86H296V56H278.358H268.637Z" fill="#05AC72"/>
<path fill-rule="evenodd" clip-rule="evenodd" d="M266.491 69.7741V86H296V56H211L232.325 66.1087L239.771 69.7741H266.491ZM240.507 66.5133H269.698V82.7391H292.792V59.2609H225.469L233.701 63.1634L240.507 66.5133Z" fill="white"/>
<path d="M203 265H235V296H203V265Z" fill="#05AC72"/>
<path fill-rule="evenodd" clip-rule="evenodd" d="M231.735 265.265H206.265V290.735H231.735V265.265ZM203 262V294H235V262H203Z" fill="white"/>
<path d="M164 264H207V296H164V264Z" fill="#05AC72"/>
<path fill-rule="evenodd" clip-rule="evenodd" d="M203.791 265.265H167.209V290.735H203.791V265.265ZM164 262V294H207V262H164Z" fill="white"/>
<path d="M201 304H245V341H201V304Z" fill="#05AC72"/>
<path fill-rule="evenodd" clip-rule="evenodd" d="M239.791 307.19H203.209V337.81H239.791V307.19ZM200 304V341H243V304H200Z" fill="white"/>
<path d="M242 310H267V341H242V310Z" fill="#05AC72"/>
<path fill-rule="evenodd" clip-rule="evenodd" d="M262.75 313.163H243.25V337.837H262.75V313.163ZM240 310V341H266V310H240Z" fill="white"/>
<path fill-rule="evenodd" clip-rule="evenodd" d="M331 296H307.686V313.713H263V341H331V325.681V313.713V296Z" fill="#05AC72"/>
<path fill-rule="evenodd" clip-rule="evenodd" d="M289.552 309.329H285.343H263V341H331V291H289.552V309.329ZM292.79 294.086V312.416H288.581H266.238V337.914H327.762V294.086H292.79Z" fill="white"/>
<path d="M78 83H154V207H78V83Z" fill="#05AC72"/>
<path fill-rule="evenodd" clip-rule="evenodd" d="M150.752 86.2124H81.2479V203.788H150.752V86.2124ZM78 83V207H154V83H78Z" fill="white"/>
<path fill-rule="evenodd" clip-rule="evenodd" d="M290 291H315V313H290V291ZM292.455 293.547V310.453H312.545V293.547H292.455Z" fill="white"/>
<path fill-rule="evenodd" clip-rule="evenodd" d="M209.625 274.831L213.864 270.46C214.124 270.192 214.553 270.185 214.821 270.445L219.193 274.684C219.461 274.944 219.468 275.373 219.207 275.641C218.947 275.909 218.519 275.916 218.251 275.656L215.052 272.554L215.252 285.58L213.899 285.601L213.699 272.575L210.597 275.774C210.337 276.042 209.908 276.048 209.64 275.788C209.372 275.528 209.365 275.1 209.625 274.831Z" fill="white"/>
<path fill-rule="evenodd" clip-rule="evenodd" d="M228.801 281.595L224.48 285.806C224.215 286.065 223.785 286.065 223.52 285.806L219.199 281.595C218.934 281.337 218.934 280.918 219.199 280.659C219.464 280.401 219.894 280.401 220.159 280.659L223.321 283.741V271H224.679V283.741L227.841 280.659C228.106 280.401 228.536 280.401 228.801 280.659C229.066 280.918 229.066 281.337 228.801 281.595Z" fill="white"/>
<path fill-rule="evenodd" clip-rule="evenodd" d="M237.365 274.831L241.605 270.46C241.865 270.192 242.293 270.185 242.561 270.445L246.933 274.684C247.201 274.944 247.208 275.373 246.948 275.641C246.687 275.909 246.259 275.916 245.991 275.656L242.792 272.554L242.992 285.58L241.639 285.601L241.439 272.575L238.337 275.774C238.077 276.042 237.648 276.048 237.38 275.788C237.112 275.528 237.105 275.1 237.365 274.831Z" fill="white"/>
<path fill-rule="evenodd" clip-rule="evenodd" d="M256.801 281.595L252.48 285.806C252.215 286.065 251.785 286.065 251.52 285.806L247.199 281.595C246.934 281.337 246.934 280.918 247.199 280.659C247.464 280.401 247.894 280.401 248.159 280.659L251.321 283.741V271H252.679V283.741L255.841 280.659C256.106 280.401 256.536 280.401 256.801 280.659C257.066 280.918 257.066 281.337 256.801 281.595Z" fill="white"/>
<path d="M224 315.5C224 316.328 223.328 317 222.5 317C221.672 317 221 316.328 221 315.5C221 314.672 221.672 314 222.5 314C223.328 314 224 314.672 224 315.5Z" fill="white"/>
<path fill-rule="evenodd" clip-rule="evenodd" d="M220.927 320.292L218.76 327.736H220.827C220.82 327.775 220.816 327.815 220.816 327.856V333.307C220.816 333.689 221.14 333.999 221.538 333.999C221.936 333.999 222.259 333.689 222.259 333.307V327.856C222.259 327.815 222.256 327.775 222.249 327.736H222.407V327.738H222.751C222.744 327.776 222.741 327.816 222.741 327.857V333.308C222.741 333.69 223.064 334 223.462 334C223.86 334 224.184 333.69 224.184 333.308V327.857C224.184 327.816 224.18 327.776 224.173 327.738H226.24L224.073 320.293H224.384L225.693 324.567C225.812 324.956 226.27 325.136 226.643 324.942C226.924 324.795 227.062 324.48 226.974 324.187L225.473 319.203C225.446 319.113 225.4 319.032 225.34 318.965L225.349 318.963C225.182 318.601 224.567 317.924 223.408 318.009L223.406 318.003H222.408L222.408 318.001H221.594L221.592 318.007C220.433 317.923 219.818 318.6 219.651 318.962L219.66 318.963C219.6 319.031 219.554 319.112 219.527 319.202L218.026 324.185C217.938 324.478 218.076 324.794 218.357 324.94C218.73 325.135 219.188 324.954 219.307 324.566L220.616 320.292H220.927Z" fill="white"/>
<path fill-rule="evenodd" clip-rule="evenodd" d="M297.57 318.059C298.69 318.059 299.598 317.15 299.598 316.029C299.598 314.909 298.69 314 297.57 314C296.45 314 295.542 314.909 295.542 316.029C295.542 317.15 296.45 318.059 297.57 318.059ZM295.048 321.322V329.722L295.071 329.695V334.893C295.071 335.504 295.578 336 296.203 336C296.829 336 297.336 335.504 297.336 334.893V327.153L297.381 327.102V326.637H297.618V327.102L297.664 327.153V334.893C297.664 335.504 298.171 336 298.796 336C299.422 336 299.929 335.504 299.929 334.893V329.695L299.952 329.722V321.322H300.253L300.296 326.463C300.3 326.983 300.786 327.371 301.309 327.271C301.711 327.195 302.001 326.849 302 326.449L301.977 320.104C301.977 319.935 301.925 319.776 301.836 319.643C301.624 319.255 301.018 318.639 299.952 318.535V318.522H299.741C299.674 318.519 299.604 318.519 299.533 318.522H298.802V318.52H296.443V318.522H295.467C295.396 318.519 295.326 318.519 295.258 318.522H295.048V318.535C293.981 318.639 293.375 319.256 293.164 319.644C293.075 319.777 293.023 319.935 293.023 320.104L293 326.449C292.999 326.849 293.289 327.195 293.691 327.271C294.214 327.371 294.7 326.983 294.704 326.463L294.747 321.322H295.048Z" fill="white"/>
<path d="M534.551 97.8272L533.612 94.8213H528.895L527.956 97.8272H525L529.567 85.1468H532.922L537.507 97.8272H534.551ZM532.957 92.5754C532.09 89.8516 531.6 88.3112 531.488 87.9542C531.382 87.5971 531.305 87.315 531.258 87.1076C531.063 87.8447 530.506 89.6673 529.585 92.5754H532.957Z" fill="#FBFBFB"/>
<path d="M547.288 97.8272H538.242V95.9701L541.49 92.7654C542.452 91.8038 543.08 91.1386 543.375 90.7701C543.671 90.3958 543.883 90.0503 544.013 89.7336C544.143 89.4168 544.207 89.0886 544.207 88.7488C544.207 88.2421 544.063 87.8649 543.774 87.6173C543.491 87.3697 543.11 87.2458 542.632 87.2458C542.13 87.2458 541.644 87.3581 541.171 87.5827C540.699 87.8073 540.207 88.1269 539.693 88.5415L538.206 86.8226C538.844 86.2928 539.372 85.9185 539.791 85.6997C540.21 85.4808 540.667 85.3138 541.163 85.1987C541.658 85.0777 542.213 85.0173 542.827 85.0173C543.635 85.0173 544.349 85.1612 544.969 85.4492C545.588 85.7371 546.069 86.1402 546.411 86.6585C546.754 87.1767 546.925 87.7699 546.925 88.4379C546.925 89.0195 546.819 89.5666 546.606 90.0791C546.4 90.5858 546.075 91.107 545.633 91.6425C545.196 92.1781 544.423 92.9411 543.314 93.9316L541.649 95.4605V95.5814H547.288V97.8272Z" fill="#FBFBFB"/>
<path d="M557.573 91.513C557.573 93.7185 557.201 95.3511 556.458 96.4106C555.72 97.4702 554.581 98 553.041 98C551.548 98 550.421 97.4529 549.66 96.3588C548.905 95.2647 548.527 93.6494 548.527 91.513C548.527 89.2844 548.896 87.6432 549.633 86.5894C550.371 85.5298 551.507 85 553.041 85C554.534 85 555.661 85.5528 556.422 86.6585C557.19 87.7641 557.573 89.3823 557.573 91.513ZM551.244 91.513C551.244 93.062 551.38 94.1734 551.652 94.8472C551.929 95.5152 552.392 95.8492 553.041 95.8492C553.678 95.8492 554.139 95.5094 554.422 94.8299C554.705 94.1504 554.847 93.0447 554.847 91.513C554.847 89.9639 554.702 88.8525 554.413 88.1787C554.13 87.4992 553.673 87.1595 553.041 87.1595C552.398 87.1595 551.938 87.4992 551.66 88.1787C551.383 88.8525 551.244 89.9639 551.244 91.513Z" fill="#FBFBFB"/>
<path d="M560.237 97.8272L565.097 87.4618H558.715V85.2159H568V86.8917L563.105 97.8272H560.237Z" fill="#FBFBFB"/>
<path d="M311.604 142.827L310.661 139.821H305.916L304.973 142.827H302L306.593 130.147H309.966L314.577 142.827H311.604ZM310.002 137.575C309.13 134.852 308.637 133.311 308.524 132.954C308.418 132.597 308.34 132.315 308.293 132.108C308.097 132.845 307.536 134.667 306.611 137.575H310.002Z" fill="#FBFBFB"/>
<path d="M324.412 142.827H315.316V140.97L318.582 137.765C319.55 136.804 320.181 136.139 320.478 135.77C320.775 135.396 320.988 135.05 321.119 134.734C321.25 134.417 321.315 134.089 321.315 133.749C321.315 133.242 321.169 132.865 320.879 132.617C320.594 132.37 320.211 132.246 319.73 132.246C319.226 132.246 318.737 132.358 318.262 132.583C317.787 132.807 317.292 133.127 316.775 133.542L315.28 131.823C315.921 131.293 316.452 130.918 316.873 130.7C317.295 130.481 317.755 130.314 318.253 130.199C318.751 130.078 319.309 130.017 319.926 130.017C320.739 130.017 321.457 130.161 322.08 130.449C322.703 130.737 323.187 131.14 323.531 131.658C323.875 132.177 324.047 132.77 324.047 133.438C324.047 134.019 323.941 134.567 323.727 135.079C323.519 135.586 323.193 136.107 322.748 136.643C322.309 137.178 321.531 137.941 320.416 138.932L318.742 140.46V140.581H324.412V142.827Z" fill="#FBFBFB"/>
<path d="M334.755 136.513C334.755 138.718 334.381 140.351 333.634 141.411C332.892 142.47 331.747 143 330.198 143C328.697 143 327.563 142.453 326.798 141.359C326.038 140.265 325.658 138.649 325.658 136.513C325.658 134.284 326.029 132.643 326.771 131.589C327.513 130.53 328.655 130 330.198 130C331.699 130 332.833 130.553 333.598 131.658C334.369 132.764 334.755 134.382 334.755 136.513ZM328.391 136.513C328.391 138.062 328.527 139.173 328.8 139.847C329.079 140.515 329.545 140.849 330.198 140.849C330.839 140.849 331.302 140.509 331.586 139.83C331.871 139.15 332.014 138.045 332.014 136.513C332.014 134.964 331.868 133.852 331.578 133.179C331.293 132.499 330.833 132.159 330.198 132.159C329.551 132.159 329.088 132.499 328.809 133.179C328.53 133.852 328.391 134.964 328.391 136.513Z" fill="#FBFBFB"/>
<path d="M340.879 134.759C342.137 134.759 343.137 135.102 343.878 135.787C344.626 136.473 345 137.411 345 138.603C345 140.014 344.552 141.1 343.656 141.86C342.76 142.62 341.478 143 339.811 143C338.363 143 337.194 142.773 336.304 142.318V140.011C336.773 140.253 337.319 140.452 337.942 140.607C338.565 140.757 339.155 140.832 339.713 140.832C341.392 140.832 342.232 140.164 342.232 138.828C342.232 137.555 341.363 136.919 339.624 136.919C339.309 136.919 338.962 136.951 338.582 137.014C338.203 137.072 337.894 137.135 337.657 137.204L336.562 136.634L337.052 130.199H344.11V132.462H339.464L339.223 134.941L339.535 134.88C339.897 134.8 340.345 134.759 340.879 134.759Z" fill="#FBFBFB"/>
<path d="M207.617 142.827L206.672 139.821H201.922L200.977 142.827H198L202.599 130.147H205.977L210.594 142.827H207.617ZM206.013 137.575C205.139 134.852 204.646 133.311 204.533 132.954C204.426 132.597 204.349 132.315 204.302 132.108C204.105 132.845 203.544 134.667 202.617 137.575H206.013Z" fill="#FBFBFB"/>
<path d="M220.443 142.827H211.334V140.97L214.605 137.765C215.574 136.804 216.206 136.139 216.503 135.77C216.801 135.396 217.014 135.05 217.145 134.734C217.276 134.417 217.341 134.089 217.341 133.749C217.341 133.242 217.196 132.865 216.905 132.617C216.619 132.37 216.236 132.246 215.755 132.246C215.25 132.246 214.759 132.358 214.284 132.583C213.809 132.807 213.313 133.127 212.796 133.542L211.298 131.823C211.94 131.293 212.472 130.918 212.894 130.7C213.316 130.481 213.776 130.314 214.275 130.199C214.774 130.078 215.333 130.017 215.951 130.017C216.765 130.017 217.484 130.161 218.108 130.449C218.732 130.737 219.216 131.14 219.561 131.658C219.905 132.177 220.078 132.77 220.078 133.438C220.078 134.019 219.971 134.567 219.757 135.079C219.549 135.586 219.222 136.107 218.776 136.643C218.337 137.178 217.558 137.941 216.441 138.932L214.765 140.46V140.581H220.443V142.827Z" fill="#FBFBFB"/>
<path d="M230.8 136.513C230.8 138.718 230.426 140.351 229.677 141.411C228.934 142.47 227.787 143 226.237 143C224.733 143 223.598 142.453 222.832 141.359C222.071 140.265 221.691 138.649 221.691 136.513C221.691 134.284 222.062 132.643 222.805 131.589C223.548 130.53 224.692 130 226.237 130C227.74 130 228.875 130.553 229.641 131.658C230.414 132.764 230.8 134.382 230.8 136.513ZM224.427 136.513C224.427 138.062 224.564 139.173 224.837 139.847C225.116 140.515 225.583 140.849 226.237 140.849C226.878 140.849 227.342 140.509 227.627 139.83C227.912 139.15 228.055 138.045 228.055 136.513C228.055 134.964 227.909 133.852 227.618 133.179C227.333 132.499 226.872 132.159 226.237 132.159C225.589 132.159 225.125 132.499 224.846 133.179C224.567 133.852 224.427 134.964 224.427 136.513Z" fill="#FBFBFB"/>
<path d="M239 142.827H236.246V135.52L236.273 134.319L236.317 133.006C235.86 133.449 235.542 133.74 235.363 133.878L233.866 135.045L232.538 133.438L236.736 130.199H239V142.827Z" fill="#FBFBFB"/>
<path d="M103.551 142.827L102.612 139.821H97.8946L96.9564 142.827H94L98.5673 130.147H101.922L106.507 142.827H103.551ZM101.957 137.575C101.09 134.852 100.6 133.311 100.488 132.954C100.382 132.597 100.305 132.315 100.258 132.108C100.063 132.845 99.5056 134.667 98.585 137.575H101.957Z" fill="#FBFBFB"/>
<path d="M116.288 142.827H107.242V140.97L110.49 137.765C111.452 136.804 112.08 136.139 112.375 135.77C112.671 135.396 112.883 135.05 113.013 134.734C113.143 134.417 113.207 134.089 113.207 133.749C113.207 133.242 113.063 132.865 112.774 132.617C112.491 132.37 112.11 132.246 111.632 132.246C111.13 132.246 110.644 132.358 110.171 132.583C109.699 132.807 109.207 133.127 108.693 133.542L107.206 131.823C107.844 131.293 108.372 130.918 108.791 130.7C109.21 130.481 109.667 130.314 110.163 130.199C110.658 130.078 111.213 130.017 111.827 130.017C112.635 130.017 113.349 130.161 113.969 130.449C114.588 130.737 115.069 131.14 115.411 131.658C115.754 132.177 115.925 132.77 115.925 133.438C115.925 134.019 115.819 134.567 115.606 135.079C115.4 135.586 115.075 136.107 114.633 136.643C114.196 137.178 113.423 137.941 112.314 138.932L110.649 140.46V140.581H116.288V142.827Z" fill="#FBFBFB"/>
<path d="M126.573 136.513C126.573 138.718 126.201 140.351 125.458 141.411C124.72 142.47 123.581 143 122.041 143C120.548 143 119.421 142.453 118.66 141.359C117.905 140.265 117.527 138.649 117.527 136.513C117.527 134.284 117.896 132.643 118.633 131.589C119.371 130.53 120.507 130 122.041 130C123.534 130 124.661 130.553 125.422 131.658C126.19 132.764 126.573 134.382 126.573 136.513ZM120.244 136.513C120.244 138.062 120.38 139.173 120.652 139.847C120.929 140.515 121.392 140.849 122.041 140.849C122.678 140.849 123.139 140.509 123.422 139.83C123.705 139.15 123.847 138.045 123.847 136.513C123.847 134.964 123.702 133.852 123.413 133.179C123.13 132.499 122.673 132.159 122.041 132.159C121.398 132.159 120.938 132.499 120.66 133.179C120.383 133.852 120.244 134.964 120.244 136.513Z" fill="#FBFBFB"/>
<path d="M137 142.827H127.954V140.97L131.202 137.765C132.164 136.804 132.793 136.139 133.088 135.77C133.383 135.396 133.595 135.05 133.725 134.734C133.855 134.417 133.92 134.089 133.92 133.749C133.92 133.242 133.775 132.865 133.486 132.617C133.203 132.37 132.822 132.246 132.344 132.246C131.843 132.246 131.356 132.358 130.884 132.583C130.412 132.807 129.919 133.127 129.406 133.542L127.918 131.823C128.556 131.293 129.084 130.918 129.503 130.7C129.922 130.481 130.379 130.314 130.875 130.199C131.371 130.078 131.925 130.017 132.539 130.017C133.347 130.017 134.061 130.161 134.681 130.449C135.301 130.737 135.781 131.14 136.124 131.658C136.466 132.177 136.637 132.77 136.637 133.438C136.637 134.019 136.531 134.567 136.318 135.079C136.112 135.586 135.787 136.107 135.345 136.643C134.908 137.178 134.135 137.941 133.026 138.932L131.362 140.46V140.581H137V142.827Z" fill="#FBFBFB"/>
<path d="M491.34 297.827L490.423 294.821H485.809L484.891 297.827H482L486.467 285.147H489.747L494.231 297.827H491.34ZM489.782 292.575C488.934 289.852 488.455 288.311 488.345 287.954C488.241 287.597 488.166 287.315 488.12 287.108C487.93 287.845 487.384 289.667 486.484 292.575H489.782Z" fill="#FBFBFB"/>
<path d="M503.796 297.827H494.95V295.97L498.127 292.765C499.067 291.804 499.682 291.139 499.97 290.77C500.259 290.396 500.467 290.05 500.594 289.734C500.721 289.417 500.784 289.089 500.784 288.749C500.784 288.242 500.643 287.865 500.36 287.617C500.083 287.37 499.711 287.246 499.243 287.246C498.753 287.246 498.277 287.358 497.815 287.583C497.353 287.807 496.871 288.127 496.369 288.542L494.915 286.823C495.538 286.293 496.055 285.918 496.465 285.7C496.874 285.481 497.322 285.314 497.806 285.199C498.291 285.078 498.833 285.017 499.434 285.017C500.224 285.017 500.923 285.161 501.528 285.449C502.134 285.737 502.605 286.14 502.939 286.658C503.274 287.177 503.441 287.77 503.441 288.438C503.441 289.019 503.338 289.567 503.13 290.079C502.928 290.586 502.61 291.107 502.178 291.643C501.751 292.178 500.995 292.941 499.91 293.932L498.282 295.46V295.581H503.796V297.827Z" fill="#FBFBFB"/>
<path d="M513.855 291.513C513.855 293.718 513.491 295.351 512.764 296.411C512.043 297.47 510.929 298 509.423 298C507.963 298 506.861 297.453 506.116 296.359C505.378 295.265 505.008 293.649 505.008 291.513C505.008 289.284 505.369 287.643 506.09 286.589C506.812 285.53 507.923 285 509.423 285C510.883 285 511.985 285.553 512.73 286.658C513.48 287.764 513.855 289.382 513.855 291.513ZM507.666 291.513C507.666 293.062 507.798 294.173 508.064 294.847C508.335 295.515 508.788 295.849 509.423 295.849C510.046 295.849 510.496 295.509 510.773 294.83C511.05 294.15 511.189 293.045 511.189 291.513C511.189 289.964 511.047 288.852 510.765 288.179C510.488 287.499 510.04 287.159 509.423 287.159C508.794 287.159 508.344 287.499 508.073 288.179C507.801 288.852 507.666 289.964 507.666 291.513Z" fill="#FBFBFB"/>
<path d="M524 290.589C524 293.076 523.475 294.934 522.425 296.16C521.374 297.387 519.784 298 517.655 298C516.905 298 516.336 297.96 515.95 297.879V295.737C516.434 295.858 516.942 295.918 517.473 295.918C518.368 295.918 519.103 295.789 519.681 295.53C520.258 295.265 520.699 294.853 521.005 294.294C521.311 293.73 521.487 292.955 521.533 291.971H521.429C521.094 292.512 520.708 292.892 520.269 293.111C519.831 293.33 519.282 293.439 518.624 293.439C517.522 293.439 516.654 293.088 516.019 292.385C515.384 291.677 515.067 290.695 515.067 289.44C515.067 288.087 515.451 287.018 516.218 286.235C516.991 285.446 518.042 285.052 519.369 285.052C520.304 285.052 521.12 285.271 521.819 285.708C522.523 286.146 523.062 286.782 523.437 287.617C523.812 288.447 524 289.437 524 290.589ZM519.421 287.194C518.867 287.194 518.434 287.384 518.122 287.764C517.811 288.144 517.655 288.691 517.655 289.405C517.655 290.016 517.796 290.499 518.079 290.856C518.362 291.214 518.792 291.392 519.369 291.392C519.911 291.392 520.376 291.216 520.763 290.865C521.149 290.508 521.343 290.099 521.343 289.639C521.343 288.953 521.161 288.375 520.797 287.902C520.439 287.43 519.981 287.194 519.421 287.194Z" fill="#FBFBFB"/>
<path d="M374.566 297.827L373.627 294.821H368.901L367.961 297.827H365L369.575 285.147H372.935L377.528 297.827H374.566ZM372.971 292.575C372.102 289.852 371.611 288.311 371.499 287.954C371.392 287.597 371.316 287.315 371.268 287.108C371.073 287.845 370.515 289.667 369.593 292.575H372.971Z" fill="#FBFBFB"/>
<path d="M387.325 297.827H378.264V295.97L381.517 292.765C382.481 291.804 383.11 291.139 383.406 290.77C383.701 290.396 383.914 290.05 384.044 289.734C384.174 289.417 384.239 289.089 384.239 288.749C384.239 288.242 384.094 287.865 383.805 287.617C383.521 287.37 383.14 287.246 382.661 287.246C382.159 287.246 381.671 287.358 381.198 287.583C380.725 287.807 380.232 288.127 379.718 288.542L378.228 286.823C378.866 286.293 379.395 285.918 379.815 285.7C380.235 285.481 380.693 285.314 381.189 285.199C381.686 285.078 382.241 285.017 382.856 285.017C383.666 285.017 384.381 285.161 385.002 285.449C385.622 285.737 386.104 286.14 386.447 286.658C386.79 287.177 386.961 287.77 386.961 288.438C386.961 289.019 386.855 289.567 386.642 290.079C386.435 290.586 386.11 291.107 385.667 291.643C385.229 292.178 384.455 292.941 383.344 293.932L381.677 295.46V295.581H387.325V297.827Z" fill="#FBFBFB"/>
<path d="M395.41 297.827H392.671V290.52L392.697 289.319L392.742 288.006C392.287 288.449 391.97 288.74 391.793 288.878L390.304 290.045L388.982 288.438L393.158 285.199H395.41V297.827Z" fill="#FBFBFB"/>
<path d="M408 291.513C408 293.718 407.628 295.351 406.883 296.411C406.144 297.47 405.003 298 403.461 298C401.965 298 400.836 297.453 400.074 296.359C399.317 295.265 398.939 293.649 398.939 291.513C398.939 289.284 399.308 287.643 400.047 286.589C400.786 285.53 401.924 285 403.461 285C404.956 285 406.085 285.553 406.847 286.658C407.616 287.764 408 289.382 408 291.513ZM401.661 291.513C401.661 293.062 401.797 294.173 402.069 294.847C402.346 295.515 402.81 295.849 403.461 295.849C404.099 295.849 404.56 295.509 404.844 294.83C405.127 294.15 405.269 293.045 405.269 291.513C405.269 289.964 405.124 288.852 404.835 288.179C404.551 287.499 404.093 287.159 403.461 287.159C402.816 287.159 402.355 287.499 402.078 288.179C401.8 288.852 401.661 289.964 401.661 291.513Z" fill="#FBFBFB"/>
<path d="M564.785 178.827L563.824 175.821H558.99L558.029 178.827H555L559.679 166.147H563.116L567.814 178.827H564.785ZM563.153 173.575C562.264 170.852 561.762 169.311 561.647 168.954C561.538 168.597 561.46 168.315 561.411 168.108C561.212 168.845 560.641 170.667 559.697 173.575H563.153Z" fill="#FBFBFB"/>
<path d="M577.834 178.827H568.566V176.97L571.894 173.765C572.88 172.804 573.524 172.139 573.826 171.77C574.128 171.396 574.346 171.05 574.479 170.734C574.612 170.417 574.678 170.089 574.678 169.749C574.678 169.242 574.53 168.865 574.234 168.617C573.944 168.37 573.554 168.246 573.064 168.246C572.55 168.246 572.052 168.358 571.568 168.583C571.084 168.807 570.58 169.127 570.054 169.542L568.53 167.823C569.183 167.293 569.724 166.918 570.153 166.7C570.583 166.481 571.051 166.314 571.559 166.199C572.067 166.078 572.635 166.017 573.264 166.017C574.092 166.017 574.824 166.161 575.458 166.449C576.093 166.737 576.586 167.14 576.937 167.658C577.287 168.177 577.462 168.77 577.462 169.438C577.462 170.019 577.354 170.567 577.136 171.079C576.924 171.586 576.592 172.107 576.139 172.643C575.691 173.178 574.899 173.941 573.763 174.932L572.058 176.46V176.581H577.834V178.827Z" fill="#FBFBFB"/>
<path d="M588.372 172.513C588.372 174.718 587.991 176.351 587.229 177.411C586.473 178.47 585.307 179 583.729 179C582.199 179 581.045 178.453 580.265 177.359C579.491 176.265 579.104 174.649 579.104 172.513C579.104 170.284 579.482 168.643 580.237 167.589C580.993 166.53 582.157 166 583.729 166C585.258 166 586.413 166.553 587.193 167.658C587.979 168.764 588.372 170.382 588.372 172.513ZM581.888 172.513C581.888 174.062 582.027 175.173 582.305 175.847C582.589 176.515 583.064 176.849 583.729 176.849C584.382 176.849 584.853 176.509 585.143 175.83C585.434 175.15 585.579 174.045 585.579 172.513C585.579 170.964 585.431 169.852 585.134 169.179C584.844 168.499 584.376 168.159 583.729 168.159C583.07 168.159 582.598 168.499 582.314 169.179C582.03 169.852 581.888 170.964 581.888 172.513Z" fill="#FBFBFB"/>
<path d="M594.357 166.035C595.627 166.035 596.648 166.311 597.422 166.864C598.202 167.411 598.592 168.151 598.592 169.084C598.592 169.729 598.405 170.305 598.03 170.811C597.655 171.312 597.05 171.761 596.216 172.159C597.207 172.666 597.918 173.195 598.347 173.748C598.782 174.295 599 174.897 599 175.553C599 176.59 598.574 177.425 597.721 178.058C596.869 178.686 595.747 179 594.357 179C592.906 179 591.766 178.706 590.938 178.119C590.11 177.532 589.696 176.699 589.696 175.623C589.696 174.903 589.895 174.264 590.294 173.705C590.699 173.146 591.346 172.654 592.235 172.228C591.479 171.773 590.935 171.286 590.603 170.768C590.27 170.25 590.104 169.683 590.104 169.066C590.104 168.162 590.497 167.431 591.283 166.872C592.069 166.314 593.093 166.035 594.357 166.035ZM592.289 175.467C592.289 175.962 592.471 176.348 592.833 176.625C593.196 176.901 593.692 177.039 594.321 177.039C595.016 177.039 595.536 176.898 595.88 176.616C596.225 176.328 596.397 175.951 596.397 175.484C596.397 175.099 596.225 174.739 595.88 174.405C595.542 174.065 594.989 173.705 594.221 173.325C592.933 173.889 592.289 174.603 592.289 175.467ZM594.339 167.987C593.861 167.987 593.474 168.105 593.178 168.341C592.888 168.571 592.743 168.882 592.743 169.274C592.743 169.619 592.858 169.93 593.087 170.207C593.323 170.477 593.746 170.757 594.357 171.045C594.949 170.78 595.364 170.509 595.599 170.233C595.835 169.956 595.953 169.637 595.953 169.274C595.953 168.876 595.802 168.563 595.5 168.332C595.197 168.102 594.81 167.987 594.339 167.987Z" fill="#FBFBFB"/>
<path d="M377.329 142.827L376.412 139.821H371.804L370.888 142.827H368L372.461 130.147H375.738L380.216 142.827H377.329ZM375.772 137.575C374.925 134.852 374.447 133.311 374.337 132.954C374.233 132.597 374.159 132.315 374.112 132.108C373.922 132.845 373.378 134.667 372.478 137.575H375.772Z" fill="#FBFBFB"/>
<path d="M389.769 142.827H380.934V140.97L384.107 137.765C385.046 136.804 385.66 136.139 385.948 135.77C386.236 135.396 386.444 135.05 386.571 134.734C386.697 134.417 386.761 134.089 386.761 133.749C386.761 133.242 386.62 132.865 386.337 132.617C386.061 132.37 385.689 132.246 385.222 132.246C384.732 132.246 384.256 132.358 383.795 132.583C383.334 132.807 382.853 133.127 382.352 133.542L380.899 131.823C381.522 131.293 382.037 130.918 382.447 130.7C382.856 130.481 383.303 130.314 383.787 130.199C384.271 130.078 384.813 130.017 385.412 130.017C386.202 130.017 386.899 130.161 387.504 130.449C388.11 130.737 388.579 131.14 388.914 131.658C389.248 132.177 389.415 132.77 389.415 133.438C389.415 134.019 389.311 134.567 389.104 135.079C388.902 135.586 388.585 136.107 388.153 136.643C387.726 137.178 386.971 137.941 385.888 138.932L384.262 140.46V140.581H389.769V142.827Z" fill="#FBFBFB"/>
<path d="M399.816 136.513C399.816 138.718 399.452 140.351 398.726 141.411C398.006 142.47 396.893 143 395.389 143C393.931 143 392.83 142.453 392.086 141.359C391.349 140.265 390.98 138.649 390.98 136.513C390.98 134.284 391.34 132.643 392.061 131.589C392.781 130.53 393.89 130 395.389 130C396.847 130 397.948 130.553 398.692 131.658C399.441 132.764 399.816 134.382 399.816 136.513ZM393.634 136.513C393.634 138.062 393.767 139.173 394.032 139.847C394.303 140.515 394.755 140.849 395.389 140.849C396.012 140.849 396.461 140.509 396.738 139.83C397.014 139.15 397.153 138.045 397.153 136.513C397.153 134.964 397.012 133.852 396.729 133.179C396.452 132.499 396.006 132.159 395.389 132.159C394.761 132.159 394.311 132.499 394.04 133.179C393.769 133.852 393.634 134.964 393.634 136.513Z" fill="#FBFBFB"/>
<path d="M401.078 137.463C401.078 134.964 401.605 133.104 402.66 131.883C403.72 130.662 405.305 130.052 407.415 130.052C408.135 130.052 408.7 130.095 409.11 130.181V132.315C408.597 132.2 408.089 132.142 407.588 132.142C406.671 132.142 405.922 132.28 405.34 132.557C404.764 132.833 404.331 133.242 404.043 133.783C403.755 134.325 403.585 135.093 403.533 136.09H403.646C404.216 135.111 405.13 134.621 406.386 134.621C407.516 134.621 408.401 134.975 409.04 135.684C409.68 136.392 410 137.371 410 138.621C410 139.968 409.62 141.036 408.859 141.825C408.098 142.608 407.043 143 405.695 143C404.761 143 403.945 142.784 403.248 142.352C402.556 141.92 402.02 141.29 401.64 140.46C401.265 139.631 401.078 138.632 401.078 137.463ZM405.643 140.866C406.213 140.866 406.651 140.676 406.957 140.296C407.262 139.911 407.415 139.363 407.415 138.655C407.415 138.039 407.271 137.555 406.983 137.204C406.7 136.847 406.271 136.668 405.695 136.668C405.153 136.668 404.689 136.844 404.303 137.195C403.922 137.547 403.732 137.955 403.732 138.422C403.732 139.107 403.911 139.686 404.268 140.158C404.631 140.63 405.089 140.866 405.643 140.866Z" fill="#FBFBFB"/>
<path d="M402 168.5C402 175.404 396.404 181 389.5 181C382.596 181 377 175.404 377 168.5C377 161.596 382.596 156 389.5 156C396.404 156 402 161.596 402 168.5Z" fill="#E14235"/>
<path d="M393 171.72H391.882V174H389.964V171.72H386V170.103L390.072 163H391.882V169.915H393V171.72ZM389.964 169.915V168.049C389.964 167.738 389.974 167.286 389.995 166.694C390.017 166.102 390.034 165.759 390.046 165.663H389.995C389.839 166.075 389.65 166.476 389.43 166.867L387.728 169.915H389.964Z" fill="white"/>
<path d="M589 195.5C589 202.404 583.627 208 577 208C570.373 208 565 202.404 565 195.5C565 188.596 570.373 183 577 183C583.627 183 589 188.596 589 195.5Z" fill="#E14235"/>
<path d="M581 198.927H579.722V201H577.53V198.927H573V197.457L577.653 191H579.722V197.286H581V198.927ZM577.53 197.286V195.59C577.53 195.307 577.542 194.896 577.566 194.358C577.59 193.82 577.61 193.508 577.624 193.421H577.566C577.387 193.795 577.172 194.16 576.92 194.516L574.975 197.286H577.53Z" fill="white"/>
<path d="M559 116C559 122.627 553.404 128 546.5 128C539.596 128 534 122.627 534 116C534 109.373 539.596 104 546.5 104C553.404 104 559 109.373 559 116Z" fill="#E14235"/>
<path d="M550 118.927H548.882V121H546.964V118.927H543V117.457L547.072 111H548.882V117.286H550V118.927ZM546.964 117.286V115.59C546.964 115.307 546.974 114.896 546.995 114.358C547.017 113.82 547.034 113.508 547.046 113.421H546.995C546.839 113.795 546.65 114.16 546.43 114.516L544.728 117.286H546.964Z" fill="white"/>
<path d="M517 312.5C517 319.404 511.404 325 504.5 325C497.596 325 492 319.404 492 312.5C492 305.596 497.596 300 504.5 300C511.404 300 517 305.596 517 312.5Z" fill="#E14235"/>
<path d="M508 315.72H506.882V318H504.964V315.72H501V314.103L505.072 307H506.882V313.915H508V315.72ZM504.964 313.915V312.049C504.964 311.738 504.974 311.286 504.995 310.694C505.017 310.102 505.034 309.759 505.046 309.663H504.995C504.839 310.075 504.65 310.476 504.43 310.867L502.728 313.915H504.964Z" fill="white"/>
<path d="M402 312.5C402 319.404 396.404 325 389.5 325C382.596 325 377 319.404 377 312.5C377 305.596 382.596 300 389.5 300C396.404 300 402 305.596 402 312.5Z" fill="#E14235"/>
<path d="M389.683 310.919C390.695 310.919 391.5 311.213 392.097 311.802C392.699 312.391 393 313.198 393 314.222C393 315.434 392.639 316.367 391.918 317.02C391.197 317.673 390.165 318 388.823 318C387.657 318 386.716 317.805 386 317.414V315.432C386.377 315.64 386.817 315.81 387.318 315.944C387.82 316.073 388.295 316.137 388.744 316.137C390.096 316.137 390.772 315.563 390.772 314.415C390.772 313.321 390.072 312.775 388.672 312.775C388.419 312.775 388.14 312.802 387.834 312.856C387.528 312.906 387.28 312.96 387.089 313.02L386.208 312.53L386.602 307H392.284V308.945H388.544L388.35 311.075L388.601 311.023C388.892 310.954 389.253 310.919 389.683 310.919Z" fill="white"/>
<path d="M314 303.5C314 310.404 308.627 316 302 316C295.373 316 290 310.404 290 303.5C290 296.596 295.373 291 302 291C308.627 291 314 296.596 314 303.5Z" fill="#E14235"/>
<path d="M299 304.296C299 302.173 299.414 300.593 300.241 299.556C301.073 298.519 302.317 298 303.972 298C304.537 298 304.98 298.037 305.301 298.11V299.923C304.899 299.825 304.501 299.776 304.108 299.776C303.389 299.776 302.801 299.893 302.344 300.128C301.892 300.363 301.553 300.71 301.327 301.17C301.1 301.63 300.967 302.283 300.926 303.129H301.015C301.462 302.298 302.179 301.882 303.165 301.882C304.051 301.882 304.745 302.183 305.247 302.785C305.749 303.386 306 304.218 306 305.28C306 306.424 305.702 307.332 305.105 308.002C304.508 308.667 303.68 309 302.622 309C301.89 309 301.25 308.817 300.703 308.45C300.16 308.083 299.739 307.547 299.441 306.843C299.147 306.138 299 305.289 299 304.296ZM302.581 307.187C303.029 307.187 303.373 307.026 303.612 306.703C303.852 306.375 303.972 305.911 303.972 305.309C303.972 304.785 303.859 304.374 303.633 304.076C303.411 303.773 303.074 303.621 302.622 303.621C302.197 303.621 301.833 303.77 301.53 304.069C301.232 304.367 301.082 304.714 301.082 305.111C301.082 305.693 301.223 306.185 301.503 306.586C301.788 306.987 302.147 307.187 302.581 307.187Z" fill="white"/>
<path d="M232 168.5C232 175.404 226.627 181 220 181C213.373 181 208 175.404 208 168.5C208 161.596 213.373 156 220 156C226.627 156 232 161.596 232 168.5Z" fill="#E14235"/>
<path d="M222 174H219.869V167.635L219.89 166.589L219.924 165.445C219.57 165.832 219.324 166.085 219.186 166.205L218.028 167.221L217 165.821L220.248 163H222V174Z" fill="white"/>
<path d="M336 168.5C336 175.404 330.404 181 323.5 181C316.596 181 311 175.404 311 168.5C311 161.596 316.596 156 323.5 156C330.404 156 336 161.596 336 168.5Z" fill="#E14235"/>
<path d="M326.703 165.547C326.703 166.215 326.511 166.784 326.128 167.252C325.746 167.721 325.208 168.043 324.517 168.218V168.262C325.333 168.369 325.951 168.633 326.371 169.053C326.79 169.467 327 170.028 327 170.736C327 171.765 326.647 172.568 325.942 173.144C325.236 173.715 324.229 174 322.919 174C321.821 174 320.848 173.807 320 173.422V171.497C320.392 171.707 320.823 171.878 321.293 172.009C321.764 172.141 322.23 172.207 322.691 172.207C323.396 172.207 323.917 172.08 324.254 171.826C324.591 171.573 324.759 171.165 324.759 170.604C324.759 170.102 324.565 169.745 324.178 169.536C323.791 169.326 323.173 169.221 322.324 169.221H321.556V167.486H322.338C323.122 167.486 323.694 167.379 324.053 167.164C324.418 166.945 324.6 166.572 324.6 166.045C324.6 165.235 324.12 164.83 323.161 164.83C322.829 164.83 322.49 164.888 322.144 165.005C321.803 165.122 321.423 165.325 321.003 165.613L320.014 164.054C320.936 163.351 322.036 163 323.313 163C324.36 163 325.185 163.224 325.79 163.673C326.398 164.122 326.703 164.747 326.703 165.547Z" fill="white"/>
<path fill-rule="evenodd" clip-rule="evenodd" d="M190 293V263H193V293H190Z" fill="white"/>
<path fill-rule="evenodd" clip-rule="evenodd" d="M170 292V263H172V292H170Z" fill="white"/>
<path d="M129 168.5C129 175.404 123.404 181 116.5 181C109.596 181 104 175.404 104 168.5C104 161.596 109.596 156 116.5 156C123.404 156 129 161.596 129 168.5Z" fill="#E14235"/>
<path d="M120 174H113.027V172.405L115.531 169.653C116.273 168.828 116.757 168.256 116.984 167.94C117.212 167.619 117.376 167.322 117.476 167.05C117.576 166.778 117.626 166.496 117.626 166.204C117.626 165.769 117.514 165.445 117.291 165.233C117.073 165.02 116.78 164.914 116.411 164.914C116.025 164.914 115.649 165.01 115.286 165.203C114.922 165.396 114.542 165.67 114.146 166.026L113 164.55C113.491 164.095 113.898 163.774 114.221 163.586C114.544 163.398 114.897 163.255 115.279 163.156C115.661 163.052 116.088 163 116.561 163C117.185 163 117.735 163.124 118.212 163.371C118.69 163.618 119.061 163.964 119.325 164.409C119.588 164.854 119.72 165.364 119.72 165.937C119.72 166.437 119.638 166.906 119.475 167.347C119.315 167.782 119.065 168.229 118.724 168.689C118.388 169.149 117.792 169.804 116.937 170.655L115.654 171.968V172.071H120V174Z" fill="white"/>
<path d="M64 168.5C64 175.404 58.6274 181 52 181C45.3726 181 40 175.404 40 168.5C40 161.596 45.3726 156 52 156C58.6274 156 64 161.596 64 168.5Z" fill="#E14235"/>
<path d="M54.6362 174L53.8861 171.392H50.1139L49.3638 174H47L50.6518 163H53.334L57 174H54.6362ZM53.3623 169.444C52.6688 167.081 52.2772 165.745 52.1875 165.435C52.1026 165.126 52.0413 164.881 52.0035 164.701C51.8478 165.34 51.402 166.921 50.666 169.444H53.3623Z" fill="white"/>
<path d="M486 202.5C486 209.404 480.627 215 474 215C467.373 215 462 209.404 462 202.5C462 195.596 467.373 190 474 190C480.627 190 486 195.596 486 202.5Z" fill="#E14235"/>
<path d="M471 198H474.358C475.888 198 476.998 198.203 477.686 198.609C478.38 199.01 478.727 199.651 478.727 200.531C478.727 201.128 478.574 201.618 478.269 202.001C477.969 202.384 477.568 202.615 477.066 202.692V202.761C477.75 202.902 478.242 203.166 478.542 203.554C478.847 203.942 479 204.457 479 205.1C479 206.012 478.643 206.723 477.93 207.234C477.221 207.745 476.257 208 475.037 208H471V198ZM473.288 201.96H474.616C475.236 201.96 475.684 201.871 475.959 201.694C476.24 201.516 476.38 201.222 476.38 200.811C476.38 200.428 476.228 200.155 475.923 199.99C475.622 199.822 475.145 199.737 474.491 199.737H473.288V201.96ZM473.288 203.643V206.249H474.779C475.408 206.249 475.873 206.137 476.173 205.914C476.474 205.69 476.624 205.348 476.624 204.888C476.624 204.058 475.984 203.643 474.705 203.643H473.288Z" fill="white"/>
<path d="M191 279C191 285.627 185.404 291 178.5 291C171.596 291 166 285.627 166 279C166 272.373 171.596 267 178.5 267C185.404 267 191 272.373 191 279Z" fill="#E14235"/>
<path d="M176.312 285L180.499 275.959H175V274H183V275.462L178.783 285H176.312Z" fill="white"/>
<path fill-rule="evenodd" clip-rule="evenodd" d="M488.673 217.627V146H492V221H433V217.627H488.673Z" fill="white"/>
<path fill-rule="evenodd" clip-rule="evenodd" d="M501 146V148.314H497.642V146H501ZM501 152.943V157.571H497.642V152.943H501ZM501 162.2V166.828H497.642V162.2H501ZM501 171.457V176.085H497.642V171.457H501ZM501 180.714V185.342H497.642V180.714H501ZM501 189.971V194.6H497.642V189.971H501ZM501 199.228V203.857H497.642V199.228H501ZM501 208.485V213.114H497.642V208.485H501ZM501 217.742V222.371H497.642V217.742H501ZM426 221.303V218.632H429.358V221.303H426ZM426 226.643H429.358V227.627H429.918V231H426V226.643ZM501 226.999V231H497.082V227.627H497.642V226.999H501ZM438.873 231H434.396V227.627H438.873V231ZM447.828 231H443.351V227.627H447.828V231ZM456.784 231H452.306V227.627H456.784V231ZM465.739 231H461.261V227.627H465.739V231ZM474.694 231H470.216V227.627H474.694V231ZM483.649 231H479.172V227.627H483.649V231ZM492.604 231H488.127V227.627H492.604V231Z" fill="white"/>
</svg>
