<svg width="495" height="491" viewBox="0 0 495 491" fill="none" xmlns="http://www.w3.org/2000/svg">
<rect x="0.5" y="0.5" width="494" height="490" rx="9.5" stroke="#6699FF"/>
<path fill-rule="evenodd" clip-rule="evenodd" d="M455 16.5417L426.531 12.6612L408.907 141.962C378.97 74.0768 311.079 26.691 232.12 26.691C125.463 26.691 39 113.154 39 219.811C39 326.468 125.463 412.931 232.12 412.931C292.393 412.931 346.217 385.319 381.633 342.055L370.628 422.793L399.097 426.674L455 16.5417ZM397.48 225.793L393 258.66C375.522 331.301 310.125 385.277 232.12 385.277C140.736 385.277 66.6538 311.196 66.6538 219.811C66.6538 128.427 140.736 54.3448 232.12 54.3448C323.505 54.3448 397.586 128.427 397.586 219.811C397.586 221.814 397.551 223.808 397.48 225.793Z" fill="#6699FF"/>
<path d="M426.531 12.6612L426.843 10.375L424.557 10.0634L424.245 12.3496L426.531 12.6612ZM455 16.5417L457.286 16.8533L457.598 14.5671L455.312 14.2555L455 16.5417ZM408.907 141.962L406.796 142.893L410.09 150.363L411.193 142.273L408.907 141.962ZM381.633 342.055L383.919 342.366L385.023 334.271L379.848 340.593L381.633 342.055ZM370.628 422.793L368.342 422.482L368.03 424.768L370.316 425.08L370.628 422.793ZM399.097 426.674L398.785 428.96L401.071 429.272L401.383 426.986L399.097 426.674ZM393 258.66L395.244 259.2L395.271 259.087L395.286 258.971L393 258.66ZM397.48 225.793L399.766 226.105L399.782 225.991L399.786 225.875L397.48 225.793ZM426.22 14.9473L454.689 18.8278L455.312 14.2555L426.843 10.375L426.22 14.9473ZM411.193 142.273L428.818 12.9728L424.245 12.3496L406.621 141.65L411.193 142.273ZM232.12 28.9983C310.132 28.9983 377.214 75.8139 406.796 142.893L411.018 141.031C380.725 72.3396 312.026 24.3837 232.12 24.3837V28.9983ZM41.3073 219.811C41.3073 114.428 126.737 28.9983 232.12 28.9983V24.3837C124.189 24.3837 36.6927 111.88 36.6927 219.811H41.3073ZM232.12 410.624C126.737 410.624 41.3073 325.194 41.3073 219.811H36.6927C36.6927 327.743 124.189 415.238 232.12 415.238V410.624ZM379.848 340.593C344.852 383.345 291.672 410.624 232.12 410.624V415.238C293.114 415.238 347.583 387.293 383.418 343.516L379.848 340.593ZM372.914 423.105L383.919 342.366L379.347 341.743L368.342 422.482L372.914 423.105ZM399.408 424.388L370.939 420.507L370.316 425.08L398.785 428.96L399.408 424.388ZM452.714 16.23L396.811 426.362L401.383 426.986L457.286 16.8533L452.714 16.23ZM395.286 258.971L399.766 226.105L395.194 225.482L390.714 258.348L395.286 258.971ZM232.12 387.585C311.215 387.585 377.522 332.853 395.244 259.2L390.757 258.12C373.523 329.748 309.034 382.97 232.12 382.97V387.585ZM64.3465 219.811C64.3465 312.47 139.461 387.585 232.12 387.585V382.97C142.01 382.97 68.9611 309.921 68.9611 219.811H64.3465ZM232.12 52.0376C139.461 52.0376 64.3465 127.152 64.3465 219.811H68.9611C68.9611 129.701 142.01 56.6521 232.12 56.6521V52.0376ZM399.894 219.811C399.894 127.152 324.779 52.0376 232.12 52.0376V56.6521C322.23 56.6521 395.279 129.701 395.279 219.811H399.894ZM399.786 225.875C399.858 223.863 399.894 221.841 399.894 219.811H395.279C395.279 221.786 395.244 223.753 395.174 225.711L399.786 225.875Z" fill="#FDEFF7"/>
<path d="M340.511 348.885C346.641 346.84 353.127 346.087 359.563 346.671C365.998 347.255 372.243 349.164 377.904 352.279C383.566 355.394 388.522 359.646 392.46 364.769C396.399 369.892 399.235 375.774 400.79 382.046L377.968 387.704C377.194 384.581 375.781 381.651 373.82 379.1C371.859 376.549 369.391 374.431 366.571 372.88C363.752 371.329 360.642 370.378 357.437 370.087C354.232 369.796 351.002 370.172 347.949 371.19L340.511 348.885Z" fill="#6699FF"/>
<path d="M219.429 311.869V127.286H244.81V311.869H219.429Z" fill="#6699FF" stroke="#FDEFF7" stroke-width="4.61458"/>
<rect x="176.976" y="170.202" width="110.288" height="98.752" fill="#6699FF" stroke="#FDEFF7" stroke-width="4.61458"/>
<path fill-rule="evenodd" clip-rule="evenodd" d="M340.797 195.684C340.429 194.869 340.141 194.009 339.944 193.115L284.755 207.968L281.49 195.836L349.294 177.587L349.296 177.594C350.408 177.288 351.579 177.125 352.789 177.125C360.052 177.125 365.94 183.013 365.94 190.277C365.94 196.509 361.605 201.73 355.784 203.085L355.789 203.103L343.671 206.364L340.797 195.684Z" fill="#6699FF"/>
<path fill-rule="evenodd" clip-rule="evenodd" d="M118.6 199.83C118.967 199.016 119.254 198.157 119.45 197.265L160.096 208.204L163.361 196.072L110.102 181.738L110.099 181.747C108.986 181.441 107.815 181.277 106.605 181.277C99.3413 181.277 93.4531 187.166 93.4531 194.429C93.4531 200.662 97.7896 205.883 103.61 207.238L103.606 207.252L115.724 210.514L118.6 199.83Z" fill="#6699FF"/>
<rect x="158.98" y="181.74" width="20.3041" height="47.5301" fill="#6699FF"/>
<path d="M379.095 219.809C379.095 258.789 363.61 296.172 336.047 323.735C308.484 351.298 271.101 366.783 232.121 366.783C193.141 366.783 155.757 351.298 128.194 323.735C100.631 296.172 85.1465 258.789 85.1465 219.809H147.321C147.321 242.299 156.255 263.868 172.158 279.771C188.061 295.674 209.631 304.608 232.121 304.608C254.611 304.608 276.18 295.674 292.083 279.771C307.986 263.868 316.92 242.299 316.92 219.809H379.095Z" fill="#6699FF" stroke="#FDEFF7" stroke-width="4.61458"/>
<path d="M115.129 130.846C129.168 112.384 147.378 97.5058 168.268 87.4292C189.159 77.3527 212.138 72.3634 235.327 72.8694C258.515 73.3753 281.255 79.3622 301.687 90.3404C322.118 101.319 339.661 116.976 352.882 136.034L301.796 171.473C294.168 160.478 284.046 151.444 272.258 145.11C260.47 138.775 247.35 135.321 233.971 135.029C220.592 134.737 207.333 137.616 195.28 143.43C183.227 149.244 172.72 157.828 164.62 168.48L115.129 130.846Z" fill="#6699FF" stroke="#FDEFF7" stroke-width="4.61458"/>
<rect x="104.344" y="412.343" width="214.232" height="58.6051" transform="rotate(4.00002 104.344 412.343)" fill="#6699FF"/>
<path d="M400.783 103.06L413.935 8.2302L263.269 5V15.1521C328.491 26.4298 357.618 47.6418 400.783 103.06Z" fill="#6699FF"/>
<circle cx="132.214" cy="153.128" r="9.22915" fill="#E14235"/>
<path d="M127.869 153.861C127.869 151.515 128.364 149.768 129.354 148.621C130.349 147.475 131.836 146.902 133.815 146.902C134.491 146.902 135.021 146.942 135.405 147.023V149.027C134.924 148.919 134.448 148.865 133.977 148.865C133.118 148.865 132.415 148.995 131.868 149.254C131.328 149.514 130.922 149.898 130.652 150.406C130.381 150.914 130.222 151.636 130.173 152.572H130.278C130.814 151.652 131.671 151.193 132.85 151.193C133.91 151.193 134.74 151.525 135.34 152.19C135.94 152.856 136.24 153.775 136.24 154.948C136.24 156.214 135.884 157.217 135.17 157.958C134.456 158.693 133.466 159.061 132.201 159.061C131.325 159.061 130.56 158.858 129.905 158.453C129.256 158.047 128.753 157.455 128.397 156.676C128.045 155.897 127.869 154.959 127.869 153.861ZM132.152 157.057C132.688 157.057 133.099 156.879 133.385 156.522C133.672 156.16 133.815 155.646 133.815 154.981C133.815 154.402 133.68 153.948 133.41 153.618C133.145 153.283 132.742 153.115 132.201 153.115C131.693 153.115 131.257 153.28 130.895 153.61C130.538 153.94 130.36 154.324 130.36 154.762C130.36 155.405 130.527 155.949 130.863 156.392C131.203 156.836 131.633 157.057 132.152 157.057Z" fill="#FFD9C2"/>
<circle cx="158.978" cy="181.739" r="9.22915" fill="#E14235"/>
<path d="M163.004 187.51H154.714V185.766L157.691 182.756C158.573 181.853 159.148 181.229 159.419 180.882C159.689 180.531 159.884 180.207 160.003 179.909C160.122 179.612 160.181 179.303 160.181 178.984C160.181 178.508 160.049 178.154 159.784 177.922C159.524 177.689 159.175 177.573 158.737 177.573C158.278 177.573 157.832 177.678 157.399 177.889C156.966 178.1 156.515 178.4 156.044 178.79L154.682 177.175C155.266 176.678 155.75 176.326 156.134 176.121C156.518 175.915 156.937 175.759 157.391 175.651C157.845 175.537 158.354 175.48 158.916 175.48C159.657 175.48 160.311 175.615 160.879 175.886C161.447 176.156 161.887 176.535 162.201 177.021C162.515 177.508 162.672 178.065 162.672 178.692C162.672 179.239 162.574 179.752 162.38 180.234C162.19 180.709 161.893 181.199 161.487 181.702C161.087 182.205 160.379 182.921 159.362 183.851L157.837 185.287V185.401H163.004V187.51Z" fill="#FFD9C2"/>
<circle cx="106.372" cy="194.661" r="9.22915" fill="#E14235"/>
<path d="M110.212 191.223C110.212 191.964 109.987 192.594 109.538 193.113C109.09 193.632 108.46 193.989 107.648 194.183V194.232C108.606 194.351 109.33 194.643 109.822 195.108C110.314 195.568 110.561 196.19 110.561 196.974C110.561 198.115 110.147 199.004 109.319 199.643C108.492 200.275 107.31 200.592 105.775 200.592C104.488 200.592 103.347 200.378 102.352 199.951V197.817C102.811 198.05 103.317 198.239 103.868 198.385C104.42 198.531 104.966 198.604 105.507 198.604C106.334 198.604 106.945 198.464 107.34 198.182C107.735 197.901 107.932 197.45 107.932 196.828C107.932 196.271 107.705 195.876 107.251 195.644C106.797 195.411 106.072 195.295 105.077 195.295H104.177V193.372H105.093C106.013 193.372 106.683 193.253 107.105 193.015C107.532 192.772 107.746 192.358 107.746 191.774C107.746 190.877 107.183 190.428 106.059 190.428C105.669 190.428 105.272 190.493 104.866 190.623C104.466 190.752 104.02 190.977 103.528 191.296L102.368 189.568C103.449 188.789 104.739 188.4 106.237 188.4C107.465 188.4 108.433 188.649 109.141 189.146C109.855 189.644 110.212 190.336 110.212 191.223Z" fill="#FFD9C2"/>
<circle cx="352.329" cy="190.505" r="9.22915" fill="#E14235"/>
<path d="M356.17 187.069C356.17 187.81 355.945 188.44 355.496 188.959C355.048 189.478 354.418 189.835 353.606 190.03V190.078C354.564 190.197 355.288 190.489 355.78 190.955C356.272 191.414 356.519 192.036 356.519 192.82C356.519 193.961 356.105 194.851 355.277 195.489C354.45 196.122 353.268 196.438 351.733 196.438C350.446 196.438 349.305 196.224 348.31 195.797V193.664C348.769 193.896 349.275 194.086 349.826 194.232C350.378 194.378 350.924 194.451 351.465 194.451C352.292 194.451 352.903 194.31 353.298 194.029C353.693 193.748 353.89 193.296 353.89 192.674C353.89 192.117 353.663 191.722 353.209 191.49C352.755 191.257 352.03 191.141 351.035 191.141H350.135V189.219H351.051C351.971 189.219 352.641 189.1 353.063 188.862C353.49 188.618 353.704 188.205 353.704 187.621C353.704 186.723 353.141 186.274 352.017 186.274C351.627 186.274 351.23 186.339 350.824 186.469C350.424 186.599 349.978 186.823 349.486 187.142L348.326 185.414C349.407 184.636 350.697 184.246 352.195 184.246C353.423 184.246 354.391 184.495 355.099 184.993C355.813 185.49 356.17 186.182 356.17 187.069Z" fill="#FFD9C2"/>
<circle cx="106.373" cy="143.898" r="9.22915" fill="#E14235"/>
<path d="M106.198 137.655C107.333 137.655 108.247 137.914 108.94 138.434C109.637 138.947 109.986 139.642 109.986 140.518C109.986 141.124 109.818 141.665 109.483 142.141C109.148 142.611 108.607 143.033 107.861 143.406C108.748 143.882 109.383 144.379 109.767 144.898C110.156 145.412 110.351 145.977 110.351 146.594C110.351 147.567 109.97 148.351 109.207 148.946C108.445 149.536 107.442 149.83 106.198 149.83C104.9 149.83 103.881 149.554 103.14 149.003C102.399 148.451 102.029 147.67 102.029 146.659C102.029 145.983 102.207 145.382 102.564 144.858C102.926 144.333 103.505 143.871 104.3 143.471C103.624 143.044 103.137 142.587 102.84 142.1C102.542 141.613 102.394 141.081 102.394 140.502C102.394 139.653 102.745 138.966 103.448 138.442C104.151 137.917 105.068 137.655 106.198 137.655ZM104.348 146.513C104.348 146.978 104.511 147.34 104.835 147.6C105.16 147.859 105.603 147.989 106.165 147.989C106.787 147.989 107.252 147.856 107.561 147.591C107.869 147.321 108.023 146.967 108.023 146.529C108.023 146.167 107.869 145.829 107.561 145.515C107.258 145.196 106.763 144.858 106.076 144.501C104.924 145.031 104.348 145.701 104.348 146.513ZM106.182 139.488C105.754 139.488 105.408 139.599 105.143 139.821C104.884 140.037 104.754 140.329 104.754 140.697C104.754 141.021 104.857 141.313 105.062 141.573C105.273 141.827 105.652 142.089 106.198 142.36C106.728 142.111 107.098 141.857 107.309 141.597C107.52 141.337 107.625 141.037 107.625 140.697C107.625 140.324 107.49 140.029 107.22 139.812C106.95 139.596 106.603 139.488 106.182 139.488Z" fill="#FFD9C2"/>
<circle cx="202.818" cy="283.261" r="9.22915" fill="#E14235"/>
<path d="M199.728 289.031L204.181 279.297H198.333V277.188H206.842V278.762L202.356 289.031H199.728Z" fill="#FFD9C2"/>
<circle cx="261.884" cy="283.261" r="9.22915" fill="#E14235"/>
<path d="M258.797 289.031L263.25 279.297H257.401V277.188H265.91V278.762L261.425 289.031H258.797Z" fill="#FFD9C2"/>
<circle cx="200.048" cy="446.613" r="9.22915" fill="#E14235"/>
<path d="M204.025 445.587C204.025 447.923 203.533 449.667 202.549 450.819C201.564 451.971 200.074 452.547 198.079 452.547C197.376 452.547 196.843 452.509 196.481 452.433V450.421C196.935 450.535 197.411 450.592 197.909 450.592C198.747 450.592 199.436 450.47 199.977 450.227C200.518 449.978 200.932 449.591 201.218 449.067C201.505 448.537 201.67 447.81 201.713 446.885H201.616C201.302 447.393 200.94 447.75 200.529 447.956C200.118 448.161 199.604 448.264 198.988 448.264C197.955 448.264 197.141 447.934 196.546 447.274C195.951 446.609 195.654 445.687 195.654 444.508C195.654 443.237 196.013 442.234 196.733 441.499C197.457 440.758 198.441 440.387 199.685 440.387C200.561 440.387 201.326 440.593 201.981 441.004C202.64 441.415 203.146 442.012 203.498 442.797C203.849 443.575 204.025 444.505 204.025 445.587ZM199.734 442.399C199.215 442.399 198.809 442.578 198.517 442.934C198.225 443.291 198.079 443.805 198.079 444.476C198.079 445.049 198.212 445.503 198.476 445.838C198.741 446.174 199.144 446.341 199.685 446.341C200.193 446.341 200.629 446.176 200.991 445.847C201.353 445.511 201.535 445.127 201.535 444.695C201.535 444.051 201.364 443.508 201.024 443.064C200.688 442.621 200.258 442.399 199.734 442.399Z" fill="#FFD9C2"/>
<circle cx="330.181" cy="175.739" r="9.22915" fill="#E14235"/>
<path d="M334.473 179.051H333.045V181.509H330.596V179.051H325.534V177.307L330.734 169.65H333.045V177.104H334.473V179.051ZM330.596 177.104V175.093C330.596 174.758 330.609 174.271 330.636 173.633C330.663 172.995 330.685 172.624 330.701 172.521H330.636C330.436 172.965 330.195 173.398 329.914 173.819L327.74 177.104H330.596Z" fill="#FFD9C2"/>
<circle cx="308.031" cy="172.971" r="9.22915" fill="#E14235"/>
<path d="M308.079 171.165C309.226 171.165 310.137 171.487 310.813 172.131C311.494 172.774 311.835 173.656 311.835 174.775C311.835 176.1 311.427 177.119 310.61 177.833C309.794 178.547 308.625 178.904 307.106 178.904C305.786 178.904 304.721 178.69 303.91 178.263V176.097C304.337 176.324 304.835 176.511 305.402 176.657C305.97 176.797 306.508 176.868 307.017 176.868C308.547 176.868 309.312 176.24 309.312 174.986C309.312 173.791 308.52 173.193 306.936 173.193C306.649 173.193 306.333 173.223 305.986 173.282C305.64 173.337 305.359 173.396 305.143 173.461L304.145 172.926L304.591 166.882H311.024V169.008H306.79L306.571 171.336L306.854 171.279C307.184 171.203 307.593 171.165 308.079 171.165Z" fill="#FFD9C2"/>
<circle cx="338.948" cy="151.284" r="9.22915" fill="#E14235"/>
<path d="M334.601 152.015C334.601 149.668 335.096 147.921 336.085 146.774C337.08 145.628 338.567 145.055 340.547 145.055C341.223 145.055 341.752 145.095 342.136 145.176V147.18C341.655 147.072 341.179 147.018 340.709 147.018C339.849 147.018 339.146 147.148 338.6 147.407C338.059 147.667 337.653 148.051 337.383 148.559C337.113 149.067 336.953 149.789 336.904 150.725H337.01C337.545 149.805 338.402 149.346 339.581 149.346C340.641 149.346 341.471 149.678 342.072 150.344C342.672 151.009 342.972 151.928 342.972 153.101C342.972 154.367 342.615 155.37 341.901 156.111C341.187 156.846 340.198 157.214 338.932 157.214C338.056 157.214 337.291 157.011 336.637 156.606C335.988 156.2 335.485 155.608 335.128 154.829C334.777 154.051 334.601 153.112 334.601 152.015ZM338.884 155.21C339.419 155.21 339.83 155.032 340.117 154.675C340.403 154.313 340.547 153.799 340.547 153.134C340.547 152.555 340.411 152.101 340.141 151.771C339.876 151.436 339.473 151.268 338.932 151.268C338.424 151.268 337.989 151.433 337.626 151.763C337.269 152.093 337.091 152.477 337.091 152.915C337.091 153.558 337.259 154.102 337.594 154.545C337.935 154.989 338.365 155.21 338.884 155.21Z" fill="#FFD9C2"/>
<circle cx="357.867" cy="27.1489" r="9.22915" fill="#E14235"/>
<path d="M359.799 32.9198H357.293V26.0574L357.317 24.9299L357.357 23.697C356.941 24.1134 356.652 24.3864 356.49 24.5162L355.127 25.6113L353.918 24.1025L357.739 21.0607H359.799V32.9198Z" fill="#FFD9C2"/>
<path d="M201.525 114.665C202.068 114.665 202.411 114.565 202.555 114.365C202.71 114.166 202.788 113.828 202.788 113.352V110.129H201.725V109.764H206.509V110.129H205.861V114.814H205.612C205.413 114.537 205.13 114.399 204.765 114.399C204.61 114.399 204.145 114.498 203.369 114.698C202.605 114.897 201.952 114.997 201.409 114.997C199.604 114.997 198.203 114.509 197.206 113.535C196.221 112.56 195.728 111.098 195.728 109.149C195.728 107.189 196.243 105.677 197.273 104.614C198.314 103.551 199.709 103.019 201.459 103.019C202.135 103.019 202.81 103.108 203.486 103.285C204.172 103.451 204.571 103.534 204.682 103.534C204.793 103.534 204.876 103.512 204.931 103.468C204.986 103.412 205.047 103.324 205.114 103.202H205.296L205.429 106.807H205.13C204.588 105.733 204.039 104.891 203.486 104.282C202.943 103.662 202.334 103.351 201.658 103.351C199.964 103.351 199.117 105.007 199.117 108.319V109.631C199.117 111.292 199.322 112.549 199.731 113.402C200.152 114.244 200.75 114.665 201.525 114.665ZM211.587 114.997C210.158 114.997 209.084 114.631 208.364 113.9C207.655 113.158 207.301 112.134 207.301 110.827C207.301 109.509 207.7 108.501 208.497 107.804C209.305 107.106 210.33 106.757 211.57 106.757C214.084 106.757 215.291 108.02 215.192 110.545H210.507V111.193C210.507 112.278 210.646 113.097 210.922 113.651C211.199 114.205 211.681 114.482 212.368 114.482C213.652 114.482 214.494 113.795 214.893 112.422L215.192 112.472C214.981 113.269 214.599 113.889 214.046 114.332C213.503 114.775 212.683 114.997 211.587 114.997ZM210.524 110.212H212.235V109.398C212.235 108.501 212.179 107.892 212.069 107.571C211.969 107.239 211.759 107.073 211.437 107.073C211.127 107.073 210.895 107.25 210.74 107.604C210.596 107.948 210.524 108.546 210.524 109.398V110.212ZM219.156 111.392C219.156 112.555 219.217 113.33 219.339 113.718C219.46 114.094 219.682 114.282 220.003 114.282C220.335 114.282 220.618 114.138 220.85 113.851C221.094 113.563 221.216 113.136 221.216 112.571V108.95C221.216 108.474 221.122 108.069 220.933 107.737C220.745 107.405 220.468 107.239 220.103 107.239C219.737 107.239 219.488 107.482 219.355 107.97C219.222 108.457 219.156 109.31 219.156 110.528V111.392ZM221.432 114.831L221.249 113.668C220.873 114.554 220.108 114.997 218.957 114.997C218.004 114.997 217.262 114.653 216.731 113.967C216.21 113.28 215.95 112.256 215.95 110.893C215.95 108.136 217.046 106.757 219.239 106.757C220.214 106.757 220.856 107.028 221.166 107.571V102.67H220.153V102.371H224.306V114.532H225.12V114.831H221.432ZM235.187 114.831H231.399L231.217 113.618C231.04 114.061 230.774 114.404 230.419 114.648C230.076 114.88 229.561 114.997 228.874 114.997C227.158 114.997 226.299 114.072 226.299 112.222V107.222H225.369V106.923H229.389V112.621C229.389 113.286 229.434 113.723 229.522 113.934C229.622 114.144 229.81 114.249 230.087 114.249C230.375 114.249 230.63 114.078 230.851 113.734C231.073 113.391 231.184 112.915 231.184 112.306V107.222H230.419V106.923H234.273V114.532H235.187V114.831ZM235.56 106.923H239.564V108.451C239.741 107.942 240.013 107.532 240.378 107.222C240.743 106.912 241.297 106.757 242.039 106.757C243.756 106.757 244.614 107.682 244.614 109.531V114.532H245.544V114.831H240.843V114.532H241.524V109.133C241.524 108.468 241.48 108.042 241.391 107.853C241.303 107.654 241.142 107.554 240.91 107.554C240.555 107.554 240.24 107.787 239.963 108.252C239.697 108.717 239.564 109.282 239.564 109.947V114.532H240.278V114.831H235.56V114.532H236.474V107.222H235.56V106.923ZM252.426 106.059L252.891 105.777C252.957 105.434 252.824 105.262 252.492 105.262C252.016 105.262 251.778 105.627 251.778 106.358C251.778 106.646 251.816 106.978 251.894 107.355C252.736 107.92 253.156 108.645 253.156 109.531C253.156 110.406 252.852 111.087 252.243 111.575C251.634 112.062 250.809 112.306 249.768 112.306C249.336 112.306 248.887 112.261 248.422 112.173C247.935 112.483 247.691 112.715 247.691 112.87C247.691 113.025 248.045 113.103 248.754 113.103H250.449C252.963 113.103 254.22 114.006 254.22 115.811C254.22 116.785 253.838 117.555 253.073 118.12C252.32 118.696 251.141 118.984 249.535 118.984C246.799 118.984 245.432 118.391 245.432 117.206C245.432 116.564 245.858 116.121 246.711 115.877L247.708 116.326C247.619 116.647 247.575 116.952 247.575 117.239C247.575 118.192 248.283 118.668 249.701 118.668C250.565 118.668 251.229 118.508 251.695 118.186C252.16 117.865 252.392 117.466 252.392 116.99C252.392 116.514 252.248 116.193 251.96 116.027C251.684 115.872 251.124 115.794 250.283 115.794H248.671C247.774 115.794 247.132 115.645 246.744 115.346C246.356 115.047 246.163 114.681 246.163 114.249C246.163 113.806 246.301 113.441 246.578 113.153C246.855 112.854 247.348 112.488 248.056 112.056C246.772 111.691 246.129 110.849 246.129 109.531C246.129 108.701 246.428 108.031 247.026 107.521C247.625 107.012 248.522 106.757 249.718 106.757C250.438 106.757 251.052 106.895 251.562 107.172C251.495 106.873 251.462 106.602 251.462 106.358C251.462 105.738 251.628 105.29 251.96 105.013C252.293 104.736 252.664 104.597 253.073 104.597C253.483 104.597 253.81 104.708 254.054 104.93C254.308 105.14 254.436 105.434 254.436 105.81C254.436 106.187 254.336 106.469 254.137 106.657C253.937 106.835 253.694 106.923 253.406 106.923C253.129 106.923 252.896 106.851 252.708 106.707C252.531 106.552 252.437 106.336 252.426 106.059ZM248.904 109.166V110.063C248.904 110.805 248.965 111.309 249.086 111.575C249.219 111.84 249.413 111.973 249.668 111.973C249.934 111.973 250.122 111.846 250.233 111.591C250.355 111.325 250.415 110.788 250.415 109.98V109.166C250.415 108.302 250.36 107.737 250.249 107.471C250.139 107.194 249.95 107.056 249.684 107.056C249.43 107.056 249.236 107.2 249.103 107.488C248.97 107.765 248.904 108.324 248.904 109.166ZM263.907 103.351C262.191 103.351 261.332 105.007 261.332 108.319V109.631C261.332 111.204 261.559 112.438 262.013 113.336C262.467 114.222 263.138 114.665 264.024 114.665C265.242 114.665 266.36 113.479 267.379 111.109H267.678L267.562 114.814H267.379C267.313 114.692 267.252 114.609 267.197 114.565C267.141 114.509 267.058 114.482 266.947 114.482C266.848 114.482 266.449 114.57 265.751 114.748C265.053 114.914 264.345 114.997 263.625 114.997C261.82 114.997 260.419 114.509 259.422 113.535C258.436 112.56 257.943 111.098 257.943 109.149C257.943 107.189 258.458 105.677 259.488 104.614C260.529 103.551 261.925 103.019 263.675 103.019C264.35 103.019 265.009 103.108 265.652 103.285C266.305 103.451 266.687 103.534 266.798 103.534C266.909 103.534 266.992 103.512 267.047 103.468C267.102 103.412 267.163 103.324 267.23 103.202H267.412L267.545 106.807H267.246C266.748 105.688 266.233 104.835 265.701 104.248C265.181 103.65 264.583 103.351 263.907 103.351Z" fill="#FBFBFB"/>
<path d="M202.246 226.337C202.789 226.337 203.132 226.237 203.276 226.038C203.431 225.839 203.508 225.501 203.508 225.025V221.802H202.445V221.436H207.23V221.802H206.582V226.487H206.333C206.133 226.21 205.851 226.071 205.485 226.071C205.33 226.071 204.865 226.171 204.09 226.37C203.326 226.57 202.672 226.669 202.13 226.669C200.324 226.669 198.923 226.182 197.927 225.207C196.941 224.233 196.448 222.771 196.448 220.822C196.448 218.861 196.963 217.35 197.993 216.286C199.034 215.223 200.43 214.692 202.179 214.692C202.855 214.692 203.531 214.78 204.206 214.957C204.893 215.124 205.292 215.207 205.402 215.207C205.513 215.207 205.596 215.184 205.651 215.14C205.707 215.085 205.768 214.996 205.834 214.874H206.017L206.15 218.479H205.851C205.308 217.405 204.76 216.563 204.206 215.954C203.664 215.334 203.054 215.024 202.379 215.024C200.684 215.024 199.837 216.68 199.837 219.991V221.303C199.837 222.965 200.042 224.222 200.452 225.074C200.873 225.916 201.471 226.337 202.246 226.337ZM212.307 226.669C210.879 226.669 209.804 226.304 209.085 225.573C208.376 224.831 208.021 223.806 208.021 222.5C208.021 221.182 208.42 220.174 209.217 219.476C210.026 218.778 211.05 218.429 212.291 218.429C214.805 218.429 216.012 219.692 215.912 222.217H211.228V222.865C211.228 223.95 211.366 224.77 211.643 225.324C211.92 225.877 212.402 226.154 213.088 226.154C214.373 226.154 215.215 225.468 215.613 224.094L215.912 224.144C215.702 224.942 215.32 225.562 214.766 226.005C214.223 226.448 213.404 226.669 212.307 226.669ZM211.244 221.885H212.955V221.071C212.955 220.174 212.9 219.565 212.789 219.243C212.689 218.911 212.479 218.745 212.158 218.745C211.848 218.745 211.615 218.922 211.46 219.277C211.316 219.62 211.244 220.218 211.244 221.071V221.885ZM219.876 223.064C219.876 224.227 219.937 225.002 220.059 225.39C220.181 225.767 220.403 225.955 220.724 225.955C221.056 225.955 221.338 225.811 221.571 225.523C221.815 225.235 221.936 224.809 221.936 224.244V220.622C221.936 220.146 221.842 219.742 221.654 219.41C221.466 219.077 221.189 218.911 220.823 218.911C220.458 218.911 220.209 219.155 220.076 219.642C219.943 220.129 219.876 220.982 219.876 222.2V223.064ZM222.152 226.503L221.97 225.34C221.593 226.226 220.829 226.669 219.677 226.669C218.725 226.669 217.983 226.326 217.451 225.639C216.93 224.953 216.67 223.928 216.67 222.566C216.67 219.808 217.767 218.429 219.96 218.429C220.934 218.429 221.576 218.701 221.887 219.243V214.343H220.873V214.044H225.026V226.204H225.84V226.503H222.152ZM235.908 226.503H232.12L231.937 225.29C231.76 225.733 231.494 226.077 231.14 226.32C230.797 226.553 230.282 226.669 229.595 226.669C227.878 226.669 227.02 225.744 227.02 223.895V218.895H226.09V218.596H230.11V224.294C230.11 224.958 230.154 225.396 230.243 225.606C230.342 225.816 230.531 225.922 230.808 225.922C231.096 225.922 231.35 225.75 231.572 225.407C231.793 225.063 231.904 224.587 231.904 223.978V218.895H231.14V218.596H234.994V226.204H235.908V226.503ZM236.281 218.596H240.284V220.124C240.462 219.614 240.733 219.205 241.098 218.895C241.464 218.584 242.018 218.429 242.76 218.429C244.476 218.429 245.335 219.354 245.335 221.204V226.204H246.265V226.503H241.564V226.204H242.245V220.805C242.245 220.141 242.2 219.714 242.112 219.526C242.023 219.327 241.863 219.227 241.63 219.227C241.276 219.227 240.96 219.459 240.683 219.925C240.417 220.39 240.284 220.955 240.284 221.619V226.204H240.999V226.503H236.281V226.204H237.195V218.895H236.281V218.596ZM253.146 217.732L253.611 217.449C253.678 217.106 253.545 216.934 253.213 216.934C252.736 216.934 252.498 217.3 252.498 218.031C252.498 218.319 252.537 218.651 252.614 219.027C253.456 219.592 253.877 220.318 253.877 221.204C253.877 222.079 253.572 222.76 252.963 223.247C252.354 223.734 251.529 223.978 250.488 223.978C250.056 223.978 249.608 223.934 249.142 223.845C248.655 224.155 248.411 224.388 248.411 224.543C248.411 224.698 248.766 224.775 249.475 224.775H251.169C253.683 224.775 254.94 225.678 254.94 227.483C254.94 228.458 254.558 229.228 253.794 229.792C253.041 230.368 251.861 230.656 250.255 230.656C247.52 230.656 246.152 230.064 246.152 228.879C246.152 228.236 246.579 227.793 247.431 227.55L248.428 227.998C248.34 228.319 248.295 228.624 248.295 228.912C248.295 229.864 249.004 230.341 250.422 230.341C251.285 230.341 251.95 230.18 252.415 229.859C252.88 229.538 253.113 229.139 253.113 228.663C253.113 228.187 252.969 227.865 252.681 227.699C252.404 227.544 251.845 227.467 251.003 227.467H249.392C248.495 227.467 247.852 227.317 247.465 227.018C247.077 226.719 246.883 226.354 246.883 225.922C246.883 225.479 247.022 225.113 247.298 224.825C247.575 224.526 248.068 224.161 248.777 223.729C247.492 223.363 246.85 222.522 246.85 221.204C246.85 220.373 247.149 219.703 247.747 219.194C248.345 218.684 249.242 218.429 250.438 218.429C251.158 218.429 251.773 218.568 252.282 218.845C252.216 218.546 252.183 218.274 252.183 218.031C252.183 217.411 252.349 216.962 252.681 216.685C253.013 216.408 253.384 216.27 253.794 216.27C254.204 216.27 254.53 216.381 254.774 216.602C255.029 216.813 255.156 217.106 255.156 217.483C255.156 217.859 255.056 218.141 254.857 218.33C254.658 218.507 254.414 218.596 254.126 218.596C253.849 218.596 253.617 218.524 253.428 218.38C253.251 218.225 253.157 218.009 253.146 217.732ZM249.624 220.838V221.735C249.624 222.477 249.685 222.981 249.807 223.247C249.94 223.513 250.134 223.646 250.388 223.646C250.654 223.646 250.842 223.518 250.953 223.264C251.075 222.998 251.136 222.461 251.136 221.652V220.838C251.136 219.974 251.081 219.41 250.97 219.144C250.859 218.867 250.671 218.728 250.405 218.728C250.15 218.728 249.956 218.872 249.824 219.16C249.691 219.437 249.624 219.997 249.624 220.838ZM258.332 214.874H263.299C264.838 214.874 265.99 215.085 266.754 215.506C267.529 215.915 267.917 216.613 267.917 217.599C267.917 219.116 267.003 220.024 265.176 220.323V220.356C267.391 220.633 268.498 221.597 268.498 223.247C268.498 224.454 268.044 225.301 267.136 225.789C266.228 226.265 264.921 226.503 263.216 226.503H258.332V226.187H259.411V215.19H258.332V214.874ZM262.651 220.622V226.187H263.432C264.041 226.187 264.467 225.977 264.711 225.556C264.954 225.135 265.076 224.515 265.076 223.696V222.815C265.076 222.084 264.927 221.536 264.628 221.171C264.329 220.805 263.797 220.622 263.033 220.622H262.651ZM262.651 215.19V220.307H263.083C263.659 220.307 264.057 220.135 264.279 219.792C264.511 219.437 264.628 218.9 264.628 218.18V217.399C264.628 216.58 264.528 216.01 264.329 215.688C264.129 215.356 263.747 215.19 263.182 215.19H262.651Z" fill="#FBFBFB"/>
<path d="M201.493 338.009C202.036 338.009 202.379 337.91 202.523 337.71C202.678 337.511 202.756 337.173 202.756 336.697V333.474H201.692V333.109H206.477V333.474H205.829V338.159H205.58C205.38 337.882 205.098 337.744 204.732 337.744C204.577 337.744 204.112 337.843 203.337 338.043C202.573 338.242 201.919 338.342 201.377 338.342C199.571 338.342 198.17 337.854 197.174 336.88C196.188 335.905 195.695 334.443 195.695 332.494C195.695 330.534 196.21 329.022 197.24 327.959C198.281 326.896 199.677 326.364 201.427 326.364C202.102 326.364 202.778 326.453 203.453 326.63C204.14 326.796 204.539 326.879 204.649 326.879C204.76 326.879 204.843 326.857 204.899 326.813C204.954 326.757 205.015 326.669 205.081 326.547H205.264L205.397 330.152H205.098C204.555 329.077 204.007 328.236 203.453 327.627C202.911 327.006 202.301 326.696 201.626 326.696C199.931 326.696 199.084 328.352 199.084 331.664V332.976C199.084 334.637 199.289 335.894 199.699 336.747C200.12 337.589 200.718 338.009 201.493 338.009ZM211.554 338.342C210.126 338.342 209.051 337.976 208.332 337.245C207.623 336.503 207.268 335.479 207.268 334.172C207.268 332.854 207.667 331.846 208.465 331.149C209.273 330.451 210.297 330.102 211.538 330.102C214.052 330.102 215.259 331.364 215.159 333.89H210.475V334.537C210.475 335.623 210.613 336.442 210.89 336.996C211.167 337.55 211.649 337.827 212.335 337.827C213.62 337.827 214.462 337.14 214.86 335.767L215.159 335.817C214.949 336.614 214.567 337.234 214.013 337.677C213.47 338.12 212.651 338.342 211.554 338.342ZM210.491 333.557H212.202V332.743C212.202 331.846 212.147 331.237 212.036 330.916C211.937 330.584 211.726 330.418 211.405 330.418C211.095 330.418 210.862 330.595 210.707 330.949C210.563 331.292 210.491 331.891 210.491 332.743V333.557ZM219.123 334.737C219.123 335.9 219.184 336.675 219.306 337.063C219.428 337.439 219.65 337.627 219.971 337.627C220.303 337.627 220.585 337.483 220.818 337.195C221.062 336.908 221.183 336.481 221.183 335.916V332.295C221.183 331.819 221.089 331.414 220.901 331.082C220.713 330.75 220.436 330.584 220.07 330.584C219.705 330.584 219.456 330.827 219.323 331.315C219.19 331.802 219.123 332.655 219.123 333.873V334.737ZM221.399 338.176L221.217 337.013C220.84 337.899 220.076 338.342 218.924 338.342C217.972 338.342 217.23 337.998 216.698 337.312C216.178 336.625 215.917 335.601 215.917 334.238C215.917 331.481 217.014 330.102 219.207 330.102C220.181 330.102 220.824 330.373 221.134 330.916V326.015H220.12V325.716H224.273V337.877H225.087V338.176H221.399ZM235.155 338.176H231.367L231.184 336.963C231.007 337.406 230.741 337.749 230.387 337.993C230.044 338.225 229.529 338.342 228.842 338.342C227.125 338.342 226.267 337.417 226.267 335.567V330.567H225.337V330.268H229.357V335.966C229.357 336.631 229.401 337.068 229.49 337.279C229.589 337.489 229.778 337.594 230.055 337.594C230.343 337.594 230.597 337.422 230.819 337.079C231.04 336.736 231.151 336.26 231.151 335.651V330.567H230.387V330.268H234.241V337.877H235.155V338.176ZM235.528 330.268H239.532V331.796C239.709 331.287 239.98 330.877 240.346 330.567C240.711 330.257 241.265 330.102 242.007 330.102C243.723 330.102 244.582 331.027 244.582 332.876V337.877H245.512V338.176H240.811V337.877H241.492V332.478C241.492 331.813 241.448 331.387 241.359 331.198C241.27 330.999 241.11 330.899 240.877 330.899C240.523 330.899 240.207 331.132 239.93 331.597C239.664 332.062 239.532 332.627 239.532 333.292V337.877H240.246V338.176H235.528V337.877H236.442V330.567H235.528V330.268ZM252.393 329.404L252.858 329.122C252.925 328.778 252.792 328.607 252.46 328.607C251.983 328.607 251.745 328.972 251.745 329.703C251.745 329.991 251.784 330.323 251.861 330.7C252.703 331.265 253.124 331.99 253.124 332.876C253.124 333.751 252.819 334.432 252.21 334.92C251.601 335.407 250.776 335.651 249.735 335.651C249.303 335.651 248.855 335.606 248.389 335.518C247.902 335.828 247.659 336.06 247.659 336.215C247.659 336.37 248.013 336.448 248.722 336.448H250.416C252.93 336.448 254.187 337.351 254.187 339.156C254.187 340.13 253.805 340.9 253.041 341.465C252.288 342.041 251.108 342.329 249.503 342.329C246.767 342.329 245.399 341.736 245.399 340.551C245.399 339.909 245.826 339.466 246.678 339.222L247.675 339.671C247.587 339.992 247.542 340.296 247.542 340.584C247.542 341.537 248.251 342.013 249.669 342.013C250.532 342.013 251.197 341.852 251.662 341.531C252.127 341.21 252.36 340.811 252.36 340.335C252.36 339.859 252.216 339.538 251.928 339.372C251.651 339.217 251.092 339.139 250.25 339.139H248.639C247.742 339.139 247.099 338.99 246.712 338.691C246.324 338.392 246.13 338.026 246.13 337.594C246.13 337.151 246.269 336.786 246.546 336.498C246.822 336.199 247.315 335.833 248.024 335.401C246.739 335.036 246.097 334.194 246.097 332.876C246.097 332.046 246.396 331.376 246.994 330.866C247.592 330.357 248.489 330.102 249.685 330.102C250.405 330.102 251.02 330.24 251.529 330.517C251.463 330.218 251.43 329.947 251.43 329.703C251.43 329.083 251.596 328.634 251.928 328.358C252.26 328.081 252.631 327.942 253.041 327.942C253.451 327.942 253.777 328.053 254.021 328.275C254.276 328.485 254.403 328.778 254.403 329.155C254.403 329.532 254.304 329.814 254.104 330.002C253.905 330.179 253.661 330.268 253.373 330.268C253.096 330.268 252.864 330.196 252.676 330.052C252.498 329.897 252.404 329.681 252.393 329.404ZM248.871 332.511V333.408C248.871 334.15 248.932 334.654 249.054 334.92C249.187 335.185 249.381 335.318 249.635 335.318C249.901 335.318 250.089 335.191 250.2 334.936C250.322 334.67 250.383 334.133 250.383 333.325V332.511C250.383 331.647 250.328 331.082 250.217 330.816C250.106 330.539 249.918 330.401 249.652 330.401C249.397 330.401 249.203 330.545 249.071 330.833C248.938 331.11 248.871 331.669 248.871 332.511ZM264.406 337.86L263.194 334.272H259.904L258.625 337.86H259.871V338.176H257.329V337.86H258.11L262.346 326.447H263.709L267.895 337.86H268.659V338.176H263.227V337.86H264.406ZM261.615 329.554L260.054 333.906H263.061L261.615 329.554Z" fill="#FBFBFB"/>
<path d="M372.633 364.706L375.491 369.203L377.956 364.479L372.633 364.706ZM383.016 411.083C383.47 411.165 383.47 411.164 383.47 411.164C383.47 411.164 383.47 411.164 383.47 411.164C383.47 411.163 383.47 411.163 383.47 411.162C383.471 411.16 383.471 411.157 383.472 411.154C383.473 411.147 383.475 411.137 383.477 411.123C383.482 411.096 383.489 411.056 383.499 411.002C383.518 410.896 383.546 410.738 383.582 410.533C383.654 410.122 383.759 409.521 383.89 408.76C384.151 407.237 384.515 405.072 384.924 402.503C385.744 397.366 386.747 390.61 387.485 384.14L386.568 384.035C385.833 390.486 384.831 397.227 384.013 402.358C383.604 404.922 383.241 407.084 382.98 408.604C382.85 409.364 382.745 409.963 382.673 410.373C382.637 410.577 382.609 410.734 382.59 410.84C382.581 410.893 382.574 410.933 382.569 410.96C382.566 410.974 382.565 410.984 382.563 410.991C382.563 410.994 382.562 410.997 382.562 410.998C382.562 410.999 382.562 411 382.562 411C382.562 411 382.562 411 382.562 411.001C382.561 411.001 382.561 411.001 383.016 411.083ZM387.485 384.14C388.528 374.988 381.157 369.028 376.555 366.233L376.076 367.022C380.654 369.803 387.543 375.482 386.568 384.035L387.485 384.14Z" fill="#FDEFF7"/>
<path d="M391.554 412.466L394.897 408.317L389.632 407.496L391.554 412.466ZM398.942 362.096L391.738 408.292L392.65 408.434L399.854 362.238L398.942 362.096Z" fill="#FDEFF7"/>
<path d="M430.316 52.5296L427.085 56.7672L432.371 57.446L430.316 52.5296ZM424.313 102.887L430.244 56.7077L429.329 56.5901L423.398 102.77L424.313 102.887Z" fill="#FDEFF7"/>
<path d="M265.345 396.317L270.454 397.831L269.211 392.65L265.345 396.317ZM356.369 345.481C343.432 360.058 331.376 370.032 317.709 377.55C304.037 385.071 288.731 390.145 269.276 394.899L269.495 395.796C288.984 391.033 304.379 385.936 318.154 378.359C331.932 370.779 344.069 360.731 357.059 346.094L356.369 345.481Z" fill="#FDEFF7"/>
<path d="M355.787 92.1308L354.243 87.0309L350.598 90.918L355.787 92.1308ZM263.278 44.0506C282.567 46.8417 297.526 51.4281 311.321 58.7109C325.12 65.996 337.774 75.9904 352.442 89.6269L353.07 88.951C338.377 75.2906 325.654 65.2344 311.752 57.8947C297.845 50.5526 282.779 45.94 263.41 43.1372L263.278 44.0506Z" fill="#FDEFF7"/>
<path d="M79.9482 320.175L84.7175 322.551L80.2751 325.493L79.9482 320.175ZM82.6263 323.383C93.2045 339.035 103.755 350.204 116.409 359.368C129.069 368.536 143.853 375.71 162.918 383.354L162.575 384.21C143.483 376.556 128.618 369.349 115.868 360.115C103.112 350.878 92.4896 339.625 81.8616 323.9L82.6263 323.383Z" fill="#FDEFF7"/>
<path d="M101.978 98.6718L100.637 103.829L96.8412 100.089L101.978 98.6718ZM99.3913 101.954C86.2577 115.533 77.5053 128.161 71.1489 142.433C64.7896 156.712 60.8193 172.658 57.2725 192.89L56.3635 192.731C59.9151 172.47 63.9011 156.439 70.3058 142.058C76.7132 127.671 85.5325 114.956 98.7279 101.312L99.3913 101.954Z" fill="#FDEFF7"/>
<path d="M414.165 216.348L416.65 211.634L411.325 211.839L414.165 216.348ZM384.708 128.925C395.082 144.666 401.911 157.248 406.338 170.008C410.763 182.764 412.794 195.72 413.544 212.217L414.466 212.175C413.714 195.621 411.673 182.571 407.21 169.705C402.747 156.843 395.872 144.188 385.478 128.417L384.708 128.925Z" fill="#FDEFF7"/>
<path d="M419.24 130.055L416.46 134.601L421.787 134.736L419.24 130.055ZM384.237 128.45C390.604 138.862 395.879 146.78 400.232 152.217C402.408 154.935 404.363 157.045 406.118 158.539C407.865 160.027 409.454 160.937 410.896 161.192C412.377 161.454 413.663 161.016 414.73 159.918C415.773 158.845 416.597 157.155 417.257 154.913C418.577 150.422 419.294 143.505 419.596 134.224L418.674 134.194C418.372 143.469 417.656 150.284 416.371 154.652C415.728 156.839 414.957 158.361 414.068 159.275C413.204 160.164 412.222 160.489 411.057 160.283C409.853 160.07 408.416 159.283 406.716 157.836C405.024 156.396 403.11 154.335 400.952 151.64C396.637 146.25 391.386 138.372 385.025 127.969L384.237 128.45Z" fill="#FDEFF7"/>
</svg>
