<svg width="495" height="491" viewBox="0 0 495 491" fill="none" xmlns="http://www.w3.org/2000/svg">
<rect x="0.5" y="0.5" width="494" height="490" rx="9.5" stroke="#6699FF"/>
<mask id="mask0" mask-type="alpha" maskUnits="userSpaceOnUse" x="127" y="7" width="242" height="478">
<rect x="127" y="7" width="242" height="478" fill="#C4C4C4"/>
</mask>
<g mask="url(#mask0)">
<mask id="mask1" mask-type="alpha" maskUnits="userSpaceOnUse" x="127" y="7" width="242" height="479">
<path d="M366.5 483C303.776 483 243.622 458.083 199.269 413.731C154.917 369.378 130 309.224 130 246.5C130 183.776 154.917 123.622 199.269 79.2693C243.622 34.9169 303.776 10 366.5 10L366.5 116.425C332.002 116.425 298.917 130.129 274.523 154.523C250.129 178.917 236.425 212.002 236.425 246.5C236.425 280.998 250.129 314.083 274.523 338.477C298.917 362.871 332.002 376.575 366.5 376.575L366.5 483Z" fill="#66CCFF" stroke="#FDEFF7" stroke-width="4.42884"/>
</mask>
<g mask="url(#mask1)">
<path d="M366.5 483C303.776 483 243.622 458.083 199.269 413.731C154.917 369.378 130 309.224 130 246.5C130 183.776 154.917 123.622 199.269 79.2693C243.622 34.9169 303.776 10 366.5 10L366.5 116.425C332.002 116.425 298.917 130.129 274.523 154.523C250.129 178.917 236.425 212.002 236.425 246.5C236.425 280.998 250.129 314.083 274.523 338.477C298.917 362.871 332.002 376.575 366.5 376.575L366.5 483Z" fill="#6699FF" stroke="#FDEFF7" stroke-width="4.42884"/>
<path d="M375.78 479.104L375.84 480.209L376.946 480.148L376.885 479.043L375.78 479.104ZM283.165 465.366L282.786 466.406V466.406L283.165 465.366ZM373.614 439.821L374.719 439.76L374.658 438.655L373.553 438.716L373.614 439.821ZM185.532 324.008L184.518 324.452L185.532 324.008ZM172.61 281.93L173.699 281.728L173.531 280.823H172.61V281.93ZM132.709 281.93V280.823H131.418L131.615 282.099L132.709 281.93ZM149.48 339.758L150.495 339.315L149.48 339.758ZM203.439 416.274L204.197 415.467L203.439 416.274ZM132.778 210.626L131.684 210.455L131.485 211.733H132.778V210.626ZM148.159 156.326L147.138 155.898L148.159 156.326ZM201.01 79.0412L200.24 78.2453L201.01 79.0412ZM280.02 28.806L279.626 27.7713L280.02 28.806ZM372.428 13.7356L373.534 13.7806L373.579 12.6743L372.473 12.6293L372.428 13.7356ZM370.828 53.0452L370.783 54.1515L371.889 54.1965L371.934 53.0902L370.828 53.0452ZM294.027 65.5705L294.421 66.6051L294.027 65.5705ZM228.36 107.322L229.129 108.118L228.36 107.322ZM184.434 171.555L185.455 171.984L184.434 171.555ZM172.694 210.626V211.733H173.611L173.782 210.831L172.694 210.626ZM375.719 477.998C344.385 479.725 313.027 475.074 283.544 464.326L282.786 466.406C312.55 477.257 344.208 481.953 375.84 480.209L375.719 477.998ZM372.508 439.882L374.674 479.164L376.885 479.043L374.719 439.76L372.508 439.882ZM296.261 429.444C321.022 438.471 347.359 442.377 373.675 440.927L373.553 438.716C347.536 440.15 321.499 436.288 297.019 427.363L296.261 429.444ZM229.62 388.409C248.828 406.456 271.499 420.416 296.261 429.444L297.019 427.363C272.539 418.439 250.126 404.637 231.137 386.795L229.62 388.409ZM184.518 324.452C195.069 348.603 210.413 370.362 229.62 388.409L231.137 386.795C212.147 368.953 196.978 347.442 186.547 323.565L184.518 324.452ZM171.522 282.133C174.224 296.651 178.576 310.851 184.518 324.452L186.547 323.565C180.673 310.119 176.371 296.08 173.699 281.728L171.522 282.133ZM172.61 280.823H132.709V283.037H172.61V280.823ZM150.495 339.315C142.446 320.89 136.847 301.541 133.803 281.762L131.615 282.099C134.687 302.067 140.34 321.6 148.466 340.201L150.495 339.315ZM204.197 415.467C181.327 393.979 163.057 368.072 150.495 339.315L148.466 340.201C161.148 369.233 179.592 395.387 202.681 417.081L204.197 415.467ZM283.544 464.326C254.061 453.577 227.067 436.955 204.197 415.467L202.681 417.081C225.769 438.774 253.021 455.555 282.786 466.406L283.544 464.326ZM133.872 210.796C136.758 192.274 141.888 174.125 149.18 156.755L147.138 155.898C139.777 173.433 134.598 191.756 131.684 210.455L133.872 210.796ZM149.18 156.755C161.327 127.82 179.222 101.652 201.78 79.8371L200.24 78.2453C177.467 100.269 159.401 126.687 147.138 155.898L149.18 156.755ZM201.78 79.8371C224.338 58.0217 251.089 41.0127 280.414 29.8407L279.626 27.7713C250.021 39.0501 223.014 56.2215 200.24 78.2453L201.78 79.8371ZM280.414 29.8407C309.74 18.6686 341.027 13.5659 372.383 14.8419L372.473 12.6293C340.818 11.3412 309.231 16.4925 279.626 27.7713L280.414 29.8407ZM371.321 13.6905L369.722 53.0002L371.934 53.0902L373.534 13.7806L371.321 13.6905ZM370.873 51.9389C344.539 50.8673 318.261 55.1528 293.632 64.5358L294.421 66.6051C318.77 57.3288 344.748 53.0921 370.783 54.1515L370.873 51.9389ZM293.632 64.5358C269.003 73.9188 246.535 88.204 227.59 106.526L229.129 108.118C247.859 90.0042 270.072 75.8815 294.421 66.6051L293.632 64.5358ZM227.59 106.526C208.644 124.848 193.615 146.825 183.413 171.127L185.455 171.984C195.541 147.959 210.399 126.231 229.129 108.118L227.59 106.526ZM183.413 171.127C178.091 183.805 174.14 196.978 171.606 210.421L173.782 210.831C176.287 197.541 180.193 184.518 185.455 171.984L183.413 171.127ZM132.778 211.733H172.694V209.519H132.778V211.733Z" fill="#FDEFF7"/>
<path d="M373.231 77.0084L374.338 77.0523L374.382 75.946L373.275 75.9021L373.231 77.0084ZM371.67 116.31L371.626 117.416L372.733 117.46L372.776 116.353L371.67 116.31ZM320.547 124.579L320.937 125.615L320.547 124.579ZM276.683 152.11L277.446 152.912L276.683 152.11ZM247.009 194.553L248.024 194.995L247.009 194.553ZM241.242 210.625V211.733H242.076L242.306 210.93L241.242 210.625ZM200.711 210.625L199.628 210.391L199.338 211.733H200.711V210.625ZM210.938 178.872L209.922 178.431L210.938 178.872ZM249.57 123.616L250.333 124.418L249.57 123.616ZM200.615 281.93V280.822H199.247L199.532 282.161L200.615 281.93ZM209.623 311.019L210.647 310.598L209.623 311.019ZM247.149 367.032L247.928 366.245H247.928L247.149 367.032ZM369.859 416.09L369.881 417.197L370.988 417.176L370.966 416.069L369.859 416.09ZM369.08 376.766L370.187 376.744L370.165 375.637L369.058 375.659L369.08 376.766ZM318.131 367.481L318.542 366.453H318.542L318.131 367.481ZM274.823 339.083L274.044 339.87L274.823 339.083ZM245.999 296.058L244.975 296.479L245.999 296.058ZM241.116 281.93L242.181 281.629L241.953 280.822H241.116V281.93ZM373.275 75.9021C350.445 74.9951 327.665 78.6799 306.285 86.7381L307.065 88.8102C328.168 80.8565 350.653 77.2195 373.187 78.1147L373.275 75.9021ZM372.776 116.353L374.338 77.0523L372.125 76.9644L370.564 116.266L372.776 116.353ZM320.937 125.615C337.115 119.518 354.351 116.73 371.626 117.416L371.714 115.203C354.143 114.505 336.611 117.341 320.156 123.543L320.937 125.615ZM277.446 152.912C289.971 140.995 304.76 131.712 320.937 125.615L320.156 123.543C303.701 129.745 288.659 139.186 275.92 151.308L277.446 152.912ZM248.024 194.995C254.917 179.14 264.922 164.83 277.446 152.912L275.92 151.308C263.181 163.43 253.004 177.985 245.993 194.112L248.024 194.995ZM242.306 210.93C243.858 205.511 245.767 200.187 248.024 194.995L245.993 194.112C243.697 199.393 241.756 204.808 240.177 210.32L242.306 210.93ZM200.711 211.733H241.242V209.518H200.711V211.733ZM209.922 178.431C205.438 188.746 201.995 199.453 199.628 210.391L201.793 210.86C204.129 200.063 207.527 189.495 211.953 179.314L209.922 178.431ZM248.807 122.814C232.254 138.564 219.032 157.477 209.922 178.431L211.953 179.314C220.944 158.631 233.995 139.964 250.333 124.418L248.807 122.814ZM306.285 86.7381C284.904 94.7962 265.359 107.064 248.807 122.814L250.333 124.418C266.671 108.872 285.963 96.7639 307.065 88.8102L306.285 86.7381ZM199.532 282.161C201.666 292.148 204.696 301.948 208.599 311.44L210.647 310.598C206.794 301.229 203.803 291.556 201.698 281.698L199.532 282.161ZM208.599 311.44C217.29 332.571 230.134 351.743 246.37 367.819L247.928 366.245C231.903 350.378 219.225 331.455 210.647 310.598L208.599 311.44ZM246.37 367.819C262.605 383.895 281.903 396.549 303.119 405.031L303.941 402.975C283 394.603 263.953 382.113 247.928 366.245L246.37 367.819ZM303.119 405.031C324.334 413.513 347.037 417.65 369.881 417.197L369.837 414.983C347.289 415.43 324.881 411.347 303.941 402.975L303.119 405.031ZM370.966 416.069L370.187 376.744L367.973 376.788L368.752 416.112L370.966 416.069ZM369.058 375.659C351.773 376.002 334.595 372.871 318.542 366.453L317.72 368.51C334.048 375.037 351.52 378.221 369.101 377.873L369.058 375.659ZM318.542 366.453C302.489 360.036 287.887 350.461 275.602 338.297L274.044 339.87C286.54 352.243 301.391 361.982 317.72 368.51L318.542 366.453ZM275.602 338.297C263.317 326.132 253.599 311.626 247.023 295.637L244.975 296.479C251.664 312.742 261.549 327.497 274.044 339.87L275.602 338.297ZM247.023 295.637C245.138 291.055 243.523 286.377 242.181 281.629L240.05 282.231C241.415 287.061 243.058 291.818 244.975 296.479L247.023 295.637ZM241.116 280.822H200.615V283.037H241.116V280.822Z" fill="#FDEFF7"/>
<path fill-rule="evenodd" clip-rule="evenodd" d="M130.624 209.298H131.731H172.998H174.105V210.405V237.421V238.528H172.998H131.731H130.624V237.421V210.405V209.298ZM132.838 211.513V236.314H134.31V211.513H132.838ZM136.89 236.314H134.753V211.513H136.89V236.314ZM137.333 236.314H139.469V211.513H137.333V236.314ZM142.048 236.314H139.912V211.513H142.048V236.314ZM142.491 236.314H144.627V211.513H142.491V236.314ZM145.07 236.314H147.207V211.513H145.07V236.314ZM149.785 236.314H147.65V211.513H149.785V236.314ZM152.365 236.314H150.228V211.513H152.365V236.314ZM152.808 236.314H154.945V211.513H152.808V236.314ZM155.387 236.314H157.522V211.513H155.387V236.314ZM160.102 236.314H157.965V211.513H160.102V236.314ZM162.681 236.314H160.545V211.513H162.681V236.314ZM163.124 236.314H165.26V211.513H163.124V236.314ZM165.703 236.314H167.84V211.513H165.703V236.314ZM170.418 236.314H168.282V211.513H170.418V236.314ZM171.89 236.314H170.861V211.513H171.89V236.314Z" fill="#FDEFF7"/>
<rect x="131.55" y="260.895" width="41.1882" height="20.8155" stroke="#FDEFF7" stroke-width="2.21442"/>
<path d="M283.459 423.876L266.63 459.307M247.586 403.06L226.991 438.27M226.991 385.566L202.633 416.125M202.633 355.672L172.738 380.473M182.925 320.02L149.93 339.728" stroke="#FDEFF7" stroke-width="2.21442"/>
</g>
<path d="M146.445 267.457L146.534 269.68H146.365C146.105 268.895 145.875 268.36 145.674 268.077C145.474 267.788 145.184 267.643 144.806 267.643H144.7V273.471H145.453V273.657H142.22V273.471H142.973V267.643H142.858C142.48 267.643 142.187 267.794 141.981 268.095C141.774 268.39 141.547 268.918 141.299 269.68H141.13L141.219 267.457H146.445ZM149.28 271.912V271.159C149.28 270.587 149.247 270.17 149.182 269.911C149.123 269.645 148.982 269.512 148.757 269.512C148.627 269.512 148.521 269.55 148.438 269.627C148.362 269.698 148.306 269.819 148.27 269.99C148.217 270.256 148.19 270.661 148.19 271.204V271.895C148.19 272.538 148.208 272.925 148.244 273.055C148.285 273.185 148.326 273.291 148.368 273.374C148.433 273.516 148.559 273.586 148.748 273.586C148.979 273.586 149.129 273.454 149.2 273.188C149.253 272.999 149.28 272.574 149.28 271.912ZM148.731 273.746C147.993 273.746 147.435 273.557 147.057 273.179C146.679 272.801 146.49 272.261 146.49 271.558C146.49 270.849 146.69 270.306 147.092 269.928C147.499 269.544 148.069 269.353 148.802 269.353C149.534 269.353 150.08 269.53 150.44 269.884C150.8 270.232 150.981 270.767 150.981 271.487C150.981 272.993 150.231 273.746 148.731 273.746ZM152.53 268.83C152.217 268.83 151.993 268.75 151.857 268.591C151.727 268.431 151.662 268.233 151.662 267.997C151.662 267.761 151.733 267.566 151.875 267.413C152.023 267.259 152.244 267.182 152.539 267.182C152.834 267.182 153.059 267.253 153.212 267.395C153.366 267.531 153.443 267.729 153.443 267.988C153.443 268.242 153.369 268.446 153.221 268.6C153.074 268.753 152.843 268.83 152.53 268.83ZM151.193 269.441H153.363V273.498H153.859V273.657H151.228V273.498H151.715V269.601H151.193V269.441ZM154.004 267.014H156.174V273.498H156.67V273.657H154.04V273.498H154.527V267.174H154.004V267.014ZM159.172 273.746C158.41 273.746 157.837 273.551 157.453 273.161C157.075 272.766 156.886 272.219 156.886 271.523C156.886 270.82 157.099 270.283 157.524 269.911C157.955 269.539 158.502 269.353 159.163 269.353C160.503 269.353 161.147 270.026 161.094 271.372H158.596V271.718C158.596 272.296 158.67 272.733 158.817 273.028C158.965 273.324 159.222 273.471 159.588 273.471C160.273 273.471 160.722 273.105 160.934 272.373L161.094 272.4C160.982 272.825 160.778 273.155 160.483 273.392C160.193 273.628 159.756 273.746 159.172 273.746ZM158.605 271.195H159.517V270.761C159.517 270.283 159.488 269.958 159.429 269.787C159.375 269.609 159.263 269.521 159.092 269.521C158.927 269.521 158.803 269.615 158.72 269.804C158.643 269.987 158.605 270.306 158.605 270.761V271.195ZM161.852 272.391V269.601H161.365V269.441H161.852V268.298L163.5 267.891V269.441H164.651V269.601H163.5V272.586C163.5 272.863 163.526 273.067 163.58 273.197C163.639 273.327 163.757 273.392 163.934 273.392C164.111 273.392 164.265 273.303 164.394 273.126C164.53 272.949 164.619 272.707 164.66 272.4L164.811 272.417C164.764 272.825 164.634 273.15 164.421 273.392C164.208 273.628 163.857 273.746 163.367 273.746C162.877 273.746 162.502 273.648 162.242 273.454C161.982 273.259 161.852 272.904 161.852 272.391Z" fill="#FBFBFB"/>
<path d="M148.746 309.545H146.936V304.588L146.953 303.773L146.982 302.883C146.682 303.184 146.473 303.381 146.355 303.475L145.371 304.266L144.498 303.176L147.258 300.978H148.746V309.545ZM155.602 309.545H153.791V304.588L153.809 303.773L153.838 302.883C153.537 303.184 153.328 303.381 153.211 303.475L152.227 304.266L151.354 303.176L154.113 300.978H155.602V309.545ZM162.457 309.545H160.646V304.588L160.664 303.773L160.693 302.883C160.393 303.184 160.184 303.381 160.066 303.475L159.082 304.266L158.209 303.176L160.969 300.978H162.457V309.545ZM170.49 302.894C170.49 303.43 170.328 303.885 170.004 304.26C169.68 304.635 169.225 304.893 168.639 305.033V305.068C169.33 305.154 169.854 305.365 170.209 305.701C170.564 306.033 170.742 306.482 170.742 307.049C170.742 307.873 170.443 308.516 169.846 308.977C169.248 309.434 168.395 309.662 167.285 309.662C166.355 309.662 165.531 309.508 164.812 309.199V307.658C165.145 307.826 165.51 307.963 165.908 308.068C166.307 308.174 166.701 308.227 167.092 308.227C167.689 308.227 168.131 308.125 168.416 307.922C168.701 307.719 168.844 307.393 168.844 306.943C168.844 306.541 168.68 306.256 168.352 306.088C168.023 305.92 167.5 305.836 166.781 305.836H166.131V304.447H166.793C167.457 304.447 167.941 304.361 168.246 304.189C168.555 304.014 168.709 303.715 168.709 303.293C168.709 302.644 168.303 302.32 167.49 302.32C167.209 302.32 166.922 302.367 166.629 302.461C166.34 302.555 166.018 302.717 165.662 302.947L164.824 301.699C165.605 301.137 166.537 300.855 167.619 300.855C168.506 300.855 169.205 301.035 169.717 301.394C170.232 301.754 170.49 302.254 170.49 302.894Z" fill="#FBFBFB"/>
<path d="M168.119 353.392H166.309V348.435L166.326 347.621L166.355 346.73C166.055 347.031 165.846 347.228 165.729 347.322L164.744 348.113L163.871 347.023L166.631 344.826H168.119V353.392ZM174.975 353.392H173.164V348.435L173.182 347.621L173.211 346.73C172.91 347.031 172.701 347.228 172.584 347.322L171.6 348.113L170.727 347.023L173.486 344.826H174.975V353.392ZM181.83 353.392H180.02V348.435L180.037 347.621L180.066 346.73C179.766 347.031 179.557 347.228 179.439 347.322L178.455 348.113L177.582 347.023L180.342 344.826H181.83V353.392ZM188.686 353.392H186.875V348.435L186.893 347.621L186.922 346.73C186.621 347.031 186.412 347.228 186.295 347.322L185.311 348.113L184.438 347.023L187.197 344.826H188.686V353.392Z" fill="#FBFBFB"/>
<path d="M192.378 388.821H190.567V383.864L190.585 383.05L190.614 382.159C190.313 382.46 190.104 382.657 189.987 382.751L189.003 383.542L188.13 382.452L190.89 380.255H192.378V388.821ZM199.233 388.821H197.423V383.864L197.44 383.05L197.47 382.159C197.169 382.46 196.96 382.657 196.843 382.751L195.858 383.542L194.985 382.452L197.745 380.255H199.233V388.821ZM207.554 384.538C207.554 386.034 207.308 387.142 206.815 387.861C206.327 388.579 205.573 388.939 204.554 388.939C203.565 388.939 202.819 388.568 202.315 387.825C201.815 387.083 201.565 385.987 201.565 384.538C201.565 383.027 201.81 381.913 202.298 381.198C202.786 380.48 203.538 380.12 204.554 380.12C205.542 380.12 206.288 380.495 206.792 381.245C207.3 381.995 207.554 383.093 207.554 384.538ZM203.364 384.538C203.364 385.589 203.454 386.343 203.634 386.8C203.817 387.253 204.124 387.48 204.554 387.48C204.976 387.48 205.28 387.249 205.468 386.788C205.655 386.327 205.749 385.577 205.749 384.538C205.749 383.487 205.653 382.734 205.462 382.277C205.274 381.816 204.972 381.585 204.554 381.585C204.128 381.585 203.823 381.816 203.64 382.277C203.456 382.734 203.364 383.487 203.364 384.538ZM214.421 383.911C214.421 385.599 214.065 386.859 213.354 387.691C212.644 388.523 211.567 388.939 210.126 388.939C209.618 388.939 209.233 388.911 208.972 388.857V387.404C209.3 387.486 209.644 387.527 210.003 387.527C210.608 387.527 211.106 387.439 211.497 387.263C211.888 387.083 212.187 386.804 212.394 386.425C212.601 386.042 212.72 385.517 212.751 384.849H212.681C212.454 385.216 212.192 385.474 211.896 385.622C211.599 385.771 211.228 385.845 210.782 385.845C210.036 385.845 209.448 385.607 209.019 385.13C208.589 384.65 208.374 383.984 208.374 383.132C208.374 382.214 208.634 381.489 209.153 380.958C209.677 380.423 210.388 380.155 211.286 380.155C211.919 380.155 212.472 380.304 212.944 380.601C213.421 380.898 213.786 381.329 214.04 381.896C214.294 382.458 214.421 383.13 214.421 383.911ZM211.321 381.609C210.946 381.609 210.653 381.737 210.442 381.995C210.231 382.253 210.126 382.624 210.126 383.109C210.126 383.523 210.222 383.851 210.413 384.093C210.604 384.335 210.896 384.456 211.286 384.456C211.653 384.456 211.968 384.337 212.229 384.099C212.491 383.857 212.622 383.579 212.622 383.267C212.622 382.802 212.499 382.409 212.253 382.089C212.011 381.769 211.7 381.609 211.321 381.609Z" fill="#FBFBFB"/>
<path d="M216.623 413.623H214.812V408.666L214.83 407.852L214.859 406.961C214.559 407.262 214.35 407.459 214.232 407.553L213.248 408.344L212.375 407.254L215.135 405.057H216.623V413.623ZM223.479 413.623H221.668V408.666L221.686 407.852L221.715 406.961C221.414 407.262 221.205 407.459 221.088 407.553L220.104 408.344L219.23 407.254L221.99 405.057H223.479V413.623ZM231.799 409.34C231.799 410.836 231.553 411.943 231.061 412.662C230.572 413.381 229.818 413.74 228.799 413.74C227.811 413.74 227.064 413.369 226.561 412.627C226.061 411.885 225.811 410.789 225.811 409.34C225.811 407.828 226.055 406.715 226.543 406C227.031 405.281 227.783 404.922 228.799 404.922C229.787 404.922 230.533 405.297 231.037 406.047C231.545 406.797 231.799 407.895 231.799 409.34ZM227.609 409.34C227.609 410.391 227.699 411.145 227.879 411.602C228.062 412.055 228.369 412.281 228.799 412.281C229.221 412.281 229.525 412.051 229.713 411.59C229.9 411.129 229.994 410.379 229.994 409.34C229.994 408.289 229.898 407.535 229.707 407.078C229.52 406.617 229.217 406.387 228.799 406.387C228.373 406.387 228.068 406.617 227.885 407.078C227.701 407.535 227.609 408.289 227.609 409.34ZM233.562 413.623L236.779 406.592H232.555V405.068H238.701V406.205L235.461 413.623H233.562Z" fill="#FBFBFB"/>
<path d="M246.297 434.882H244.486V429.925L244.504 429.11L244.533 428.22C244.232 428.52 244.023 428.718 243.906 428.811L242.922 429.602L242.049 428.513L244.809 426.315H246.297V434.882ZM253.152 434.882H251.342V429.925L251.359 429.11L251.389 428.22C251.088 428.52 250.879 428.718 250.762 428.811L249.777 429.602L248.904 428.513L251.664 426.315H253.152V434.882ZM261.473 430.599C261.473 432.095 261.227 433.202 260.734 433.921C260.246 434.64 259.492 434.999 258.473 434.999C257.484 434.999 256.738 434.628 256.234 433.886C255.734 433.143 255.484 432.048 255.484 430.599C255.484 429.087 255.729 427.974 256.217 427.259C256.705 426.54 257.457 426.181 258.473 426.181C259.461 426.181 260.207 426.556 260.711 427.306C261.219 428.056 261.473 429.153 261.473 430.599ZM257.283 430.599C257.283 431.649 257.373 432.403 257.553 432.86C257.736 433.313 258.043 433.54 258.473 433.54C258.895 433.54 259.199 433.309 259.387 432.849C259.574 432.388 259.668 431.638 259.668 430.599C259.668 429.548 259.572 428.794 259.381 428.337C259.193 427.876 258.891 427.645 258.473 427.645C258.047 427.645 257.742 427.876 257.559 428.337C257.375 428.794 257.283 429.548 257.283 430.599ZM265.504 429.409C266.332 429.409 266.99 429.642 267.479 430.106C267.971 430.571 268.217 431.208 268.217 432.017C268.217 432.974 267.922 433.71 267.332 434.225C266.742 434.741 265.898 434.999 264.801 434.999C263.848 434.999 263.078 434.845 262.492 434.536V432.972C262.801 433.136 263.16 433.27 263.57 433.376C263.98 433.477 264.369 433.528 264.736 433.528C265.842 433.528 266.395 433.075 266.395 432.169C266.395 431.306 265.822 430.874 264.678 430.874C264.471 430.874 264.242 430.895 263.992 430.938C263.742 430.977 263.539 431.02 263.383 431.067L262.662 430.681L262.984 426.315H267.631V427.85H264.572L264.414 429.532L264.619 429.491C264.857 429.436 265.152 429.409 265.504 429.409Z" fill="#FBFBFB"/>
<path d="M307.856 456.583H306.046V451.626L306.063 450.812L306.093 449.921C305.792 450.222 305.583 450.419 305.466 450.513L304.481 451.304L303.608 450.214L306.368 448.017H307.856V456.583ZM314.712 456.583H312.901V451.626L312.919 450.812L312.948 449.921C312.647 450.222 312.438 450.419 312.321 450.513L311.337 451.304L310.464 450.214L313.224 448.017H314.712V456.583ZM323.032 452.3C323.032 453.796 322.786 454.903 322.294 455.622C321.806 456.341 321.052 456.7 320.032 456.7C319.044 456.7 318.298 456.329 317.794 455.587C317.294 454.845 317.044 453.749 317.044 452.3C317.044 450.788 317.288 449.675 317.776 448.96C318.265 448.241 319.017 447.882 320.032 447.882C321.021 447.882 321.767 448.257 322.271 449.007C322.778 449.757 323.032 450.854 323.032 452.3ZM318.843 452.3C318.843 453.351 318.933 454.104 319.112 454.562C319.296 455.015 319.603 455.241 320.032 455.241C320.454 455.241 320.759 455.011 320.946 454.55C321.134 454.089 321.228 453.339 321.228 452.3C321.228 451.249 321.132 450.495 320.94 450.038C320.753 449.577 320.45 449.347 320.032 449.347C319.606 449.347 319.302 449.577 319.118 450.038C318.935 450.495 318.843 451.249 318.843 452.3ZM328.423 456.583H326.612V451.626L326.63 450.812L326.659 449.921C326.358 450.222 326.149 450.419 326.032 450.513L325.048 451.304L324.175 450.214L326.935 448.017H328.423V456.583Z" fill="#FBFBFB"/>
</g>
</svg>
