<svg width="495" height="491" viewBox="0 0 495 491" fill="none" xmlns="http://www.w3.org/2000/svg">
<rect x="0.5" y="0.5" width="494" height="490" rx="9.5" stroke="#6699FF"/>
<mask id="mask0" mask-type="alpha" maskUnits="userSpaceOnUse" x="124" y="7" width="247" height="478">
<rect x="124" y="7" width="246.538" height="478" fill="#C4C4C4"/>
</mask>
<g mask="url(#mask0)">
<mask id="mask1" mask-type="alpha" maskUnits="userSpaceOnUse" x="129" y="6" width="242" height="479">
<path d="M131.537 9.21643C194.336 9.21643 254.563 34.1631 298.968 78.5685C343.374 122.974 368.32 183.201 368.32 245.999C368.32 308.798 343.374 369.025 298.968 413.43C254.563 457.836 194.336 482.782 131.537 482.782L131.537 335.977C155.401 335.977 178.287 326.497 195.161 309.623C212.035 292.749 221.515 269.863 221.515 245.999C221.515 222.136 212.035 199.25 195.161 182.376C178.287 165.502 155.401 156.022 131.537 156.022L131.537 9.21643Z" fill="#66CCFF" stroke="#FDEFF7" stroke-width="4.43414"/>
</mask>
<g mask="url(#mask1)">
<path d="M131.537 9.21643C194.336 9.21643 254.563 34.1631 298.968 78.5685C343.374 122.974 368.32 183.201 368.32 245.999C368.32 308.798 343.374 369.025 298.968 413.43C254.563 457.836 194.336 482.782 131.537 482.782L131.537 335.977C155.401 335.977 178.287 326.497 195.161 309.623C212.035 292.749 221.515 269.863 221.515 245.999C221.515 222.136 212.035 199.25 195.161 182.376C178.287 165.502 155.401 156.022 131.537 156.022L131.537 9.21643Z" fill="#6699FF" stroke="#FDEFF7" stroke-width="4.43414"/>
<path d="M126.754 477.978L125.647 477.933L125.602 479.046L126.715 479.086L126.754 477.978ZM217.725 462.919L218.12 463.955L217.725 462.919ZM129.479 411.016L130.587 411.061L130.632 409.953L129.524 409.908L129.479 411.016ZM127.264 410.926L127.309 409.818L126.202 409.773L126.156 410.881L127.264 410.926ZM124.494 478.998L125.602 479.043V479.043L124.494 478.998ZM124.449 480.106L123.341 480.06L123.296 481.168L124.404 481.213L124.449 480.106ZM125.557 480.151L125.602 479.043L125.557 480.151ZM218.514 464.99L218.909 466.026L218.514 464.99ZM297.995 414.456L297.225 413.659L297.995 414.456ZM351.161 336.711L352.183 337.14L351.161 336.711ZM366.66 281.917L367.756 282.087L367.954 280.808H366.66V281.917ZM364.416 281.917V280.808H363.468L363.321 281.745L364.416 281.917ZM349.116 335.852L350.139 336.282L349.116 335.852ZM296.454 412.862L297.225 413.659L296.454 412.862ZM364.485 210.527L363.39 210.696L363.535 211.636H364.485V210.527ZM366.729 210.527V211.636H368.02L367.824 210.359L366.729 210.527ZM349.832 152.187L348.816 152.631L349.832 152.187ZM295.552 75.2151L294.793 76.023L295.552 75.2151ZM122.185 12.0114L122.246 13.1183H122.246L122.185 12.0114ZM121.078 12.0724L121.017 10.9656L119.91 11.0266L119.971 12.1335L121.078 12.0724ZM121.139 13.1793L120.032 13.2404L121.139 13.1793ZM124.889 81.2044L123.782 81.2655L123.843 82.3723L124.95 82.3113L124.889 81.2044ZM127.103 81.0824L127.164 82.1893L128.271 82.1282L128.21 81.0214L127.103 81.0824ZM123.414 14.1668L123.358 13.0597L122.246 13.1157L122.307 14.2278L123.414 14.1668ZM214.592 27.9139L214.971 26.8725L214.592 27.9139ZM294.034 76.8309L293.274 77.6388L294.034 76.8309ZM347.8 153.074L346.784 153.518L347.8 153.074ZM126.715 479.086C157.884 480.205 188.966 475.061 218.12 463.955L217.33 461.883C188.454 472.884 157.668 477.979 126.794 476.87L126.715 479.086ZM128.372 410.971L125.647 477.933L127.862 478.023L130.587 411.061L128.372 410.971ZM127.219 412.033L129.434 412.124L129.524 409.908L127.309 409.818L127.219 412.033ZM125.602 479.043L128.372 410.971L126.156 410.881L123.386 478.953L125.602 479.043ZM125.557 480.151L125.602 479.043L123.386 478.953L123.341 480.06L125.557 480.151ZM125.602 479.043L124.494 478.998L124.404 481.213L125.512 481.258L125.602 479.043ZM218.12 463.955C188.619 475.193 157.144 480.327 125.602 479.043L125.512 481.258C157.354 482.554 189.128 477.372 218.909 466.026L218.12 463.955ZM297.225 413.659C274.532 435.605 247.62 452.716 218.12 463.955L218.909 466.026C248.69 454.681 275.857 437.407 298.766 415.253L297.225 413.659ZM350.139 336.282C337.919 365.389 319.917 391.713 297.225 413.659L298.766 415.253C321.674 393.099 339.847 366.524 352.183 337.14L350.139 336.282ZM365.565 281.747C362.666 300.439 357.496 318.755 350.139 336.282L352.183 337.14C359.611 319.446 364.829 300.956 367.756 282.087L365.565 281.747ZM366.66 280.808H364.416V283.025H366.66V280.808ZM350.139 336.282C357.452 318.862 362.603 300.662 365.512 282.088L363.321 281.745C360.44 300.142 355.338 318.169 348.094 335.423L350.139 336.282ZM297.225 413.659C319.917 391.713 337.919 365.389 350.139 336.282L348.094 335.423C335.991 364.254 318.16 390.328 295.683 412.066L297.225 413.659ZM218.12 463.955C247.62 452.716 274.532 435.605 297.225 413.659L295.683 412.066C273.206 433.803 246.55 450.751 217.33 461.883L218.12 463.955ZM364.485 211.636H366.729V209.419H364.485V211.636ZM348.816 152.631C356.936 171.218 362.577 190.739 365.633 210.695L367.824 210.359C364.739 190.214 359.044 170.507 350.847 151.743L348.816 152.631ZM294.793 76.023C317.799 97.6396 336.178 123.702 348.816 152.631L350.847 151.743C338.09 122.539 319.536 96.2294 296.311 74.4073L294.793 76.023ZM214.971 26.8725C244.63 37.6852 271.786 54.4064 294.793 76.023L296.311 74.4073C273.085 52.5851 245.672 35.705 215.731 24.7895L214.971 26.8725ZM122.246 13.1183C153.767 11.3805 185.312 16.0597 214.971 26.8725L215.731 24.7895C185.79 13.874 153.944 9.1503 122.124 10.9046L122.246 13.1183ZM121.139 13.1793L122.246 13.1183L122.124 10.9046L121.017 10.9656L121.139 13.1793ZM122.246 13.1183L122.185 12.0114L119.971 12.1335L120.032 13.2404L122.246 13.1183ZM125.996 81.1434L122.246 13.1183L120.032 13.2404L123.782 81.2655L125.996 81.1434ZM127.042 79.9756L124.828 80.0976L124.95 82.3113L127.164 82.1893L127.042 79.9756ZM122.307 14.2278L125.996 81.1434L128.21 81.0214L124.521 14.1058L122.307 14.2278ZM214.971 26.8725C185.661 16.1869 154.508 11.4915 123.358 13.0597L123.469 15.2739C154.324 13.7206 185.18 18.3715 214.212 28.9554L214.971 26.8725ZM294.793 76.023C271.786 54.4064 244.63 37.6852 214.971 26.8725L214.212 28.9554C243.589 39.6654 270.487 56.2276 293.274 77.6388L294.793 76.023ZM348.816 152.631C336.178 123.702 317.799 97.6397 294.793 76.023L293.274 77.6388C316.062 99.0499 334.267 124.864 346.784 153.518L348.816 152.631ZM365.581 210.358C362.513 190.52 356.89 171.113 348.816 152.631L346.784 153.518C354.781 171.825 360.351 191.047 363.39 210.696L365.581 210.358Z" fill="#FDEFF7"/>
<path d="M297.477 280.985C289.211 320.248 267.31 355.317 235.657 379.974C204.004 404.632 164.643 417.286 124.551 415.693L126.114 376.345C156.909 377.568 187.144 367.848 211.457 348.908C235.771 329.968 252.593 303.031 258.942 272.873" stroke="#FDEFF7" stroke-width="2.21707"/>
<path d="M297.975 211.271C289.61 171.231 267.075 135.555 234.511 110.801C201.947 86.0464 161.543 73.8769 120.724 76.5291L123.278 115.825C154.631 113.788 185.667 123.136 210.68 142.15C235.693 161.165 253.003 188.568 259.428 219.324" stroke="#FDEFF7" stroke-width="2.21707"/>
<path fill-rule="evenodd" clip-rule="evenodd" d="M366.969 283.246H365.86H297.588H296.48V282.138V255.09V253.981H297.588H365.86H366.969V255.09V282.138V283.246ZM364.752 281.029V256.198H361.593V281.029H364.752ZM357.326 256.198H361.15V281.029H357.326V256.198ZM356.882 256.198H353.059V281.029H356.882V256.198ZM348.792 256.198H352.615V281.029H348.792V256.198ZM348.349 256.198H344.525V281.029H348.349L348.349 256.198ZM344.082 256.198H340.258V281.029H344.082L344.082 256.198ZM335.991 256.198H339.815V281.029H335.991V256.198ZM331.724 256.198H335.547L335.547 281.029H331.724V256.198ZM331.281 256.198H327.457V281.029H331.281V256.198ZM327.014 256.198H323.19V281.029H327.014V256.198ZM318.923 256.198H322.747V281.029H318.923V256.198ZM314.656 256.198H318.479V281.029H314.656V256.198ZM314.212 256.198H310.389V281.029H314.212V256.198ZM309.946 256.198H306.122V281.029H309.946V256.198ZM301.855 256.198H305.679V281.029H301.855V256.198ZM298.697 256.198H301.412V281.029H298.697V256.198Z" fill="#FDEFF7"/>
<rect x="366.768" y="231.588" width="69.1725" height="20.8404" transform="rotate(-180 366.768 231.588)" stroke="#FDEFF7" stroke-width="2.21707"/>
<path d="M285.179 316.724H356.791M223.545 388.557L246.824 450.413" stroke="#FDEFF7" stroke-width="2.21707"/>
<path d="M240.174 218.508V217.399H239.065V218.508H240.174ZM240.174 273.491H239.065V274.6H240.174V273.491ZM259.462 219.616C260.075 219.616 260.571 219.12 260.571 218.508C260.571 217.896 260.075 217.399 259.462 217.399V219.616ZM259.019 274.6C259.631 274.6 260.127 274.103 260.127 273.491C260.127 272.879 259.631 272.383 259.019 272.383V274.6ZM241.282 273.491V218.508H239.065V273.491H241.282ZM240.174 219.616H259.462V217.399H240.174V219.616ZM259.019 272.383H240.174V274.6H259.019V272.383Z" fill="#FDEFF7"/>
<path d="M245.938 120.735L293.383 73.2896" stroke="#FDEFF7" stroke-width="2.21707"/>
</g>
<circle cx="133.31" cy="135.589" r="8.86827" fill="#E14235"/>
<path d="M135.087 140.721H132.679V134.127L132.702 133.043L132.741 131.859C132.341 132.259 132.063 132.521 131.907 132.646L130.598 133.698L129.436 132.248L133.107 129.326H135.087V140.721Z" fill="#FFD9C2"/>
<circle cx="215.786" cy="175.054" r="8.86827" fill="#E14235"/>
<path d="M219.575 180.185H211.609V178.509L214.469 175.617C215.316 174.749 215.87 174.149 216.129 173.816C216.389 173.479 216.576 173.167 216.691 172.881C216.805 172.595 216.862 172.299 216.862 171.993C216.862 171.535 216.735 171.195 216.48 170.972C216.231 170.748 215.896 170.636 215.475 170.636C215.033 170.636 214.604 170.738 214.189 170.94C213.773 171.143 213.339 171.431 212.887 171.806L211.578 170.254C212.139 169.776 212.604 169.439 212.973 169.241C213.342 169.044 213.744 168.893 214.181 168.789C214.617 168.68 215.106 168.625 215.646 168.625C216.358 168.625 216.987 168.755 217.532 169.015C218.078 169.275 218.502 169.639 218.803 170.106C219.104 170.574 219.255 171.109 219.255 171.712C219.255 172.237 219.161 172.73 218.974 173.193C218.793 173.65 218.507 174.12 218.117 174.604C217.733 175.087 217.052 175.775 216.075 176.669L214.61 178.049V178.158H219.575V180.185Z" fill="#FFD9C2"/>
<circle cx="243.276" cy="285.907" r="8.86827" fill="#E14235"/>
<path d="M246.886 282.192C246.886 282.904 246.671 283.509 246.239 284.008C245.808 284.507 245.203 284.849 244.423 285.037V285.083C245.343 285.198 246.039 285.478 246.512 285.925C246.985 286.367 247.221 286.964 247.221 287.718C247.221 288.814 246.824 289.669 246.029 290.282C245.234 290.89 244.098 291.194 242.623 291.194C241.386 291.194 240.29 290.989 239.333 290.578V288.528C239.775 288.752 240.261 288.934 240.791 289.074C241.321 289.214 241.846 289.285 242.365 289.285C243.16 289.285 243.748 289.149 244.127 288.879C244.506 288.609 244.696 288.175 244.696 287.578C244.696 287.042 244.478 286.663 244.041 286.44C243.605 286.216 242.908 286.104 241.952 286.104H241.087V284.257H241.968C242.851 284.257 243.496 284.143 243.901 283.914C244.311 283.68 244.517 283.283 244.517 282.722C244.517 281.859 243.976 281.428 242.895 281.428C242.521 281.428 242.139 281.49 241.75 281.615C241.365 281.74 240.936 281.955 240.464 282.262L239.349 280.602C240.388 279.853 241.628 279.479 243.067 279.479C244.246 279.479 245.177 279.718 245.857 280.196C246.543 280.674 246.886 281.339 246.886 282.192Z" fill="#FFD9C2"/>
<circle cx="202.04" cy="332.465" r="8.86827" fill="#E14235"/>
<path d="M206.086 335.235H204.714V337.597H202.36V335.235H197.496V333.559L202.492 326.201H204.714V333.364H206.086V335.235ZM202.36 333.364V331.431C202.36 331.109 202.373 330.642 202.399 330.028C202.425 329.415 202.446 329.059 202.461 328.961H202.399C202.207 329.387 201.975 329.802 201.705 330.208L199.616 333.364H202.36Z" fill="#FFD9C2"/>
<circle cx="131.536" cy="365.279" r="8.86827" fill="#E14235"/>
<path d="M131.505 363.13C132.607 363.13 133.483 363.439 134.132 364.057C134.787 364.675 135.114 365.522 135.114 366.598C135.114 367.871 134.722 368.851 133.937 369.537C133.153 370.222 132.03 370.565 130.57 370.565C129.302 370.565 128.278 370.36 127.499 369.95V367.869C127.91 368.087 128.388 368.266 128.933 368.406C129.479 368.541 129.996 368.609 130.484 368.609C131.955 368.609 132.69 368.006 132.69 366.801C132.69 365.652 131.929 365.078 130.406 365.078C130.131 365.078 129.827 365.107 129.494 365.164C129.162 365.216 128.892 365.273 128.684 365.335L127.725 364.821L128.154 359.014H134.335V361.056H130.266L130.056 363.293L130.328 363.239C130.645 363.166 131.038 363.13 131.505 363.13Z" fill="#FFD9C2"/>
<path d="M324.478 217.31L324.567 219.535H324.399C324.138 218.749 323.908 218.214 323.707 217.93C323.506 217.641 323.216 217.496 322.838 217.496H322.731V223.331H323.485V223.517H320.248V223.331H321.002V217.496H320.887C320.508 217.496 320.216 217.647 320.009 217.948C319.802 218.244 319.574 218.773 319.326 219.535H319.157L319.246 217.31H324.478ZM327.317 221.77V221.016C327.317 220.443 327.284 220.026 327.219 219.766C327.16 219.5 327.018 219.367 326.793 219.367C326.663 219.367 326.557 219.405 326.474 219.482C326.397 219.553 326.341 219.674 326.306 219.846C326.252 220.112 326.226 220.517 326.226 221.061V221.753C326.226 222.397 326.244 222.784 326.279 222.914C326.32 223.044 326.362 223.151 326.403 223.234C326.468 223.375 326.595 223.446 326.785 223.446C327.015 223.446 327.166 223.313 327.237 223.047C327.29 222.858 327.317 222.432 327.317 221.77ZM326.767 223.606C326.028 223.606 325.469 223.417 325.091 223.038C324.712 222.66 324.523 222.119 324.523 221.416C324.523 220.706 324.724 220.162 325.126 219.784C325.534 219.399 326.105 219.207 326.838 219.207C327.571 219.207 328.118 219.385 328.478 219.739C328.839 220.088 329.019 220.623 329.019 221.345C329.019 222.852 328.268 223.606 326.767 223.606ZM330.571 218.684C330.258 218.684 330.033 218.604 329.897 218.445C329.767 218.285 329.702 218.087 329.702 217.851C329.702 217.614 329.773 217.419 329.915 217.265C330.063 217.111 330.284 217.035 330.58 217.035C330.875 217.035 331.1 217.106 331.254 217.247C331.408 217.383 331.484 217.582 331.484 217.842C331.484 218.096 331.411 218.3 331.263 218.454C331.115 218.607 330.884 218.684 330.571 218.684ZM329.232 219.296H331.405V223.358H331.901V223.517H329.267V223.358H329.755V219.456H329.232V219.296ZM332.047 216.866H334.219V223.358H334.716V223.517H332.082V223.358H332.57V217.026H332.047V216.866ZM337.22 223.606C336.458 223.606 335.884 223.411 335.5 223.021C335.121 222.625 334.932 222.078 334.932 221.38C334.932 220.677 335.145 220.139 335.571 219.766C336.002 219.394 336.549 219.207 337.211 219.207C338.554 219.207 339.198 219.881 339.145 221.229H336.644V221.575C336.644 222.155 336.718 222.592 336.866 222.888C337.013 223.183 337.271 223.331 337.637 223.331C338.323 223.331 338.772 222.965 338.985 222.231L339.145 222.258C339.032 222.684 338.828 223.015 338.533 223.251C338.243 223.488 337.806 223.606 337.22 223.606ZM336.653 221.052H337.566V220.617C337.566 220.139 337.537 219.813 337.478 219.642C337.424 219.465 337.312 219.376 337.141 219.376C336.975 219.376 336.851 219.47 336.768 219.66C336.691 219.843 336.653 220.162 336.653 220.617V221.052ZM339.904 222.249V219.456H339.416V219.296H339.904V218.152L341.554 217.744V219.296H342.706V219.456H341.554V222.444C341.554 222.722 341.58 222.926 341.633 223.056C341.693 223.186 341.811 223.251 341.988 223.251C342.165 223.251 342.319 223.163 342.449 222.985C342.585 222.808 342.674 222.565 342.715 222.258L342.866 222.276C342.819 222.684 342.689 223.009 342.476 223.251C342.263 223.488 341.911 223.606 341.421 223.606C340.93 223.606 340.554 223.508 340.294 223.313C340.034 223.118 339.904 222.764 339.904 222.249Z" fill="#FBFBFB"/>
<path d="M308.672 154.272C308.672 154.984 308.456 155.589 308.025 156.088C307.594 156.587 306.988 156.93 306.209 157.117V157.163C307.129 157.278 307.825 157.558 308.298 158.005C308.771 158.447 309.007 159.044 309.007 159.798C309.007 160.894 308.61 161.749 307.814 162.362C307.019 162.97 305.884 163.274 304.408 163.274C303.172 163.274 302.075 163.069 301.119 162.658V160.609C301.561 160.832 302.047 161.014 302.577 161.154C303.107 161.294 303.631 161.365 304.151 161.365C304.946 161.365 305.533 161.23 305.913 160.959C306.292 160.689 306.482 160.255 306.482 159.658C306.482 159.122 306.263 158.743 305.827 158.52C305.39 158.296 304.694 158.185 303.738 158.185H302.873V156.337H303.754C304.637 156.337 305.281 156.223 305.687 155.994C306.097 155.76 306.302 155.363 306.302 154.802C306.302 153.939 305.762 153.508 304.681 153.508C304.307 153.508 303.925 153.57 303.535 153.695C303.151 153.82 302.722 154.035 302.249 154.342L301.135 152.682C302.174 151.933 303.413 151.559 304.853 151.559C306.032 151.559 306.962 151.798 307.643 152.276C308.329 152.754 308.672 153.42 308.672 154.272ZM316.225 163.118H313.816V156.524L313.84 155.441L313.879 154.256C313.478 154.656 313.2 154.919 313.045 155.043L311.735 156.096L310.574 154.646L314.245 151.723H316.225V163.118ZM325.344 163.118H322.936V156.524L322.959 155.441L322.998 154.256C322.598 154.656 322.32 154.919 322.164 155.043L320.854 156.096L319.693 154.646L323.364 151.723H325.344V163.118ZM336.732 160.757H335.36V163.118H333.006V160.757H328.142V159.081L333.138 151.723H335.36V158.886H336.732V160.757ZM333.006 158.886V156.953C333.006 156.631 333.019 156.163 333.045 155.55C333.071 154.937 333.092 154.581 333.107 154.482H333.045C332.853 154.908 332.621 155.324 332.351 155.729L330.262 158.886H333.006Z" fill="#FBFBFB"/>
<path d="M175.535 435.396C175.535 436.108 175.32 436.713 174.888 437.212C174.457 437.711 173.852 438.054 173.072 438.241V438.288C173.992 438.402 174.688 438.683 175.161 439.13C175.634 439.571 175.87 440.169 175.87 440.922C175.87 442.019 175.473 442.874 174.678 443.487C173.883 444.095 172.747 444.399 171.272 444.399C170.035 444.399 168.939 444.193 167.982 443.783V441.733C168.424 441.956 168.91 442.138 169.44 442.279C169.97 442.419 170.495 442.489 171.014 442.489C171.809 442.489 172.397 442.354 172.776 442.084C173.155 441.814 173.345 441.38 173.345 440.782C173.345 440.247 173.127 439.868 172.69 439.644C172.254 439.421 171.557 439.309 170.601 439.309H169.736V437.462H170.617C171.5 437.462 172.145 437.347 172.55 437.119C172.96 436.885 173.166 436.487 173.166 435.926C173.166 435.064 172.625 434.632 171.544 434.632C171.17 434.632 170.788 434.695 170.399 434.819C170.014 434.944 169.585 435.16 169.113 435.466L167.998 433.806C169.037 433.058 170.277 432.684 171.716 432.684C172.895 432.684 173.826 432.923 174.506 433.401C175.192 433.879 175.535 434.544 175.535 435.396ZM183.088 444.243H180.679V437.649L180.703 436.565L180.742 435.381C180.342 435.781 180.064 436.043 179.908 436.168L178.598 437.22L177.437 435.77L181.108 432.847H183.088V444.243ZM192.207 444.243H189.799V437.649L189.822 436.565L189.861 435.381C189.461 435.781 189.183 436.043 189.027 436.168L187.718 437.22L186.556 435.77L190.228 432.847H192.207V444.243ZM202.893 435.396C202.893 436.108 202.678 436.713 202.246 437.212C201.815 437.711 201.21 438.054 200.43 438.241V438.288C201.35 438.402 202.046 438.683 202.519 439.13C202.992 439.571 203.229 440.169 203.229 440.922C203.229 442.019 202.831 442.874 202.036 443.487C201.241 444.095 200.106 444.399 198.63 444.399C197.393 444.399 196.297 444.193 195.341 443.783V441.733C195.782 441.956 196.268 442.138 196.798 442.279C197.328 442.419 197.853 442.489 198.373 442.489C199.168 442.489 199.755 442.354 200.134 442.084C200.514 441.814 200.703 441.38 200.703 440.782C200.703 440.247 200.485 439.868 200.048 439.644C199.612 439.421 198.916 439.309 197.96 439.309H197.094V437.462H197.975C198.859 437.462 199.503 437.347 199.908 437.119C200.319 436.885 200.524 436.487 200.524 435.926C200.524 435.064 199.984 434.632 198.903 434.632C198.529 434.632 198.147 434.695 197.757 434.819C197.372 434.944 196.944 435.16 196.471 435.466L195.356 433.806C196.396 433.058 197.635 432.684 199.074 432.684C200.254 432.684 201.184 432.923 201.865 433.401C202.55 433.879 202.893 434.544 202.893 435.396Z" fill="#FBFBFB"/>
<path d="M282.285 355.581C282.285 356.293 282.07 356.899 281.638 357.397C281.207 357.896 280.602 358.239 279.822 358.426V358.473C280.742 358.587 281.438 358.868 281.911 359.315C282.384 359.757 282.62 360.354 282.62 361.108C282.62 362.204 282.223 363.059 281.428 363.672C280.633 364.28 279.497 364.584 278.022 364.584C276.785 364.584 275.689 364.379 274.732 363.968V361.918C275.174 362.142 275.66 362.323 276.19 362.464C276.72 362.604 277.245 362.674 277.764 362.674C278.559 362.674 279.147 362.539 279.526 362.269C279.905 361.999 280.095 361.565 280.095 360.967C280.095 360.432 279.877 360.053 279.44 359.829C279.004 359.606 278.307 359.494 277.351 359.494H276.486V357.647H277.367C278.25 357.647 278.895 357.533 279.3 357.304C279.71 357.07 279.916 356.673 279.916 356.111C279.916 355.249 279.375 354.817 278.294 354.817C277.92 354.817 277.538 354.88 277.149 355.005C276.764 355.129 276.335 355.345 275.863 355.651L274.748 353.991C275.787 353.243 277.027 352.869 278.466 352.869C279.645 352.869 280.576 353.108 281.256 353.586C281.942 354.064 282.285 354.729 282.285 355.581ZM289.838 364.428H287.429V357.834L287.453 356.75L287.492 355.566C287.092 355.966 286.814 356.228 286.658 356.353L285.348 357.405L284.187 355.955L287.858 353.033H289.838V364.428ZM298.957 364.428H296.549V357.834L296.572 356.75L296.611 355.566C296.211 355.966 295.933 356.228 295.777 356.353L294.468 357.405L293.306 355.955L296.978 353.033H298.957V364.428ZM308.077 364.428H305.668V357.834L305.692 356.75L305.731 355.566C305.331 355.966 305.053 356.228 304.897 356.353L303.587 357.405L302.426 355.955L306.097 353.033H308.077V364.428Z" fill="#FBFBFB"/>
<path d="M281.955 377.308C281.955 378.02 281.739 378.625 281.308 379.124C280.877 379.623 280.271 379.966 279.492 380.153V380.2C280.412 380.314 281.108 380.595 281.581 381.042C282.054 381.483 282.29 382.081 282.29 382.834C282.29 383.931 281.893 384.786 281.098 385.399C280.303 386.007 279.167 386.311 277.692 386.311C276.455 386.311 275.358 386.105 274.402 385.695V383.645C274.844 383.868 275.33 384.05 275.86 384.191C276.39 384.331 276.915 384.401 277.434 384.401C278.229 384.401 278.817 384.266 279.196 383.996C279.575 383.726 279.765 383.292 279.765 382.694C279.765 382.159 279.547 381.78 279.11 381.556C278.674 381.333 277.977 381.221 277.021 381.221H276.156V379.374H277.037C277.92 379.374 278.565 379.259 278.97 379.031C279.38 378.797 279.586 378.399 279.586 377.838C279.586 376.976 279.045 376.544 277.964 376.544C277.59 376.544 277.208 376.607 276.819 376.731C276.434 376.856 276.005 377.072 275.532 377.378L274.418 375.718C275.457 374.97 276.696 374.596 278.136 374.596C279.315 374.596 280.245 374.835 280.926 375.313C281.612 375.791 281.955 376.456 281.955 377.308ZM289.508 386.155H287.099V379.561L287.123 378.477L287.162 377.293C286.762 377.693 286.484 377.955 286.328 378.08L285.018 379.132L283.857 377.682L287.528 374.759H289.508V386.155ZM298.627 386.155H296.219V379.561L296.242 378.477L296.281 377.293C295.881 377.693 295.603 377.955 295.447 378.08L294.138 379.132L292.976 377.682L296.647 374.759H298.627V386.155ZM309.758 386.155H301.792V384.479L304.652 381.587C305.499 380.72 306.053 380.119 306.313 379.787C306.572 379.449 306.759 379.137 306.874 378.851C306.988 378.566 307.045 378.269 307.045 377.963C307.045 377.506 306.918 377.165 306.663 376.942C306.414 376.718 306.079 376.607 305.658 376.607C305.216 376.607 304.787 376.708 304.372 376.911C303.956 377.113 303.522 377.402 303.07 377.776L301.761 376.225C302.322 375.747 302.787 375.409 303.156 375.212C303.525 375.014 303.927 374.863 304.364 374.759C304.8 374.65 305.289 374.596 305.829 374.596C306.541 374.596 307.17 374.726 307.715 374.985C308.261 375.245 308.685 375.609 308.986 376.077C309.287 376.544 309.438 377.08 309.438 377.682C309.438 378.207 309.345 378.701 309.157 379.163C308.976 379.621 308.69 380.091 308.3 380.574C307.916 381.057 307.235 381.746 306.258 382.64L304.793 384.019V384.128H309.758V386.155Z" fill="#FBFBFB"/>
</g>
</svg>
