<svg width="495" height="491" viewBox="0 0 495 491" fill="none" xmlns="http://www.w3.org/2000/svg">
<rect x="0.5" y="0.5" width="494" height="490" rx="9.5" stroke="#6699FF"/>
<rect x="5" y="23.0004" width="484" height="397.507" fill="#6699FF" stroke="#FDEFF7" stroke-width="4.48148"/>
<rect x="5" y="273.963" width="123.241" height="146.544" fill="#6699FF" stroke="#FDEFF7" stroke-width="4.48148"/>
<rect x="5" y="129.21" width="123.241" height="144.752" fill="#6699FF" stroke="#FDEFF7" stroke-width="4.48148"/>
<rect x="5" y="23.0004" width="176.57" height="106.211" fill="#6699FF" stroke="#FDEFF7" stroke-width="4.48148"/>
<path fill-rule="evenodd" clip-rule="evenodd" d="M489 23.0003H181.57V129.211H348.73V187.023H489V42.2715H489V23.0003Z" fill="#6699FF"/>
<path d="M181.57 23.0003V20.7596H179.33V23.0003H181.57ZM489 23.0003H491.241V20.7596H489V23.0003ZM181.57 129.211H179.33V131.452H181.57V129.211ZM348.73 129.211H350.971V126.971H348.73V129.211ZM348.73 187.023H346.489V189.264H348.73V187.023ZM489 187.023V189.264H491.241V187.023H489ZM489 42.2715H491.241V40.0308H489V42.2715ZM489 42.2715H486.759V44.5122H489V42.2715ZM181.57 25.2411H489V20.7596H181.57V25.2411ZM183.811 129.211V23.0003H179.33V129.211H183.811ZM348.73 126.971H181.57V131.452H348.73V126.971ZM350.971 187.023V129.211H346.489V187.023H350.971ZM489 184.783H348.73V189.264H489V184.783ZM486.759 42.2715V187.023H491.241V42.2715H486.759ZM489 44.5122H489V40.0308H489V44.5122ZM486.759 23.0003V42.2715H491.241V23.0003H486.759Z" fill="#FDEFF7"/>
<rect x="349.178" y="187.022" width="138.03" height="129.515" fill="#6699FF" stroke="#FDEFF7" stroke-width="4.48148"/>
<rect x="282.852" y="316.537" width="206.148" height="103.97" fill="#6699FF" stroke="#FDEFF7" stroke-width="4.48148"/>
<path fill-rule="evenodd" clip-rule="evenodd" d="M194.403 388.227H196.644H279.877H282.117V390.467V418.056V420.296H279.877H196.644H194.403V418.056V390.467V388.227ZM198.885 392.708V415.815H200.968V392.708H198.885ZM207.454 415.815H204.659V392.708H207.454V415.815ZM204.211 392.708V415.815H201.416V392.708H204.211ZM211.144 415.815H213.939V392.708H211.144V415.815ZM210.696 415.815V392.708H207.902V415.815H210.696ZM220.425 415.815H217.631V392.708H220.425V415.815ZM217.182 392.708V415.815H214.387V392.708H217.182ZM224.116 415.815H226.911V392.708H224.116V415.815ZM223.668 415.815V392.708H220.873V415.815H223.668ZM233.396 415.815H230.602V392.708H233.396V415.815ZM230.154 392.708V415.815H227.359V392.708H230.154ZM237.087 415.815H239.882V392.708H237.087V415.815ZM236.639 415.815V392.708H233.844V415.815H236.639ZM246.368 415.815H243.573V392.708H246.368V415.815ZM243.125 392.708V415.815H240.33V392.708H243.125ZM250.058 415.815H252.854V392.708H250.058V415.815ZM249.61 415.815V392.708H246.816V415.815H249.61ZM259.339 415.815H256.544V392.708H259.339V415.815ZM256.096 392.708V415.815H253.303V392.708H256.096ZM263.03 415.815H265.825V392.708H263.03V415.815ZM262.582 415.815V392.708H259.787V415.815H262.582ZM272.31 415.815H269.516V392.708H272.31V415.815ZM269.068 392.708V415.815H266.273V392.708H269.068ZM276.001 415.815H277.636V392.708H276.001V415.815ZM275.553 415.815V392.708H272.758V415.815H275.553Z" fill="#FDEFF7"/>
<path fill-rule="evenodd" clip-rule="evenodd" d="M194.565 361.352H196.806H280.039H282.28V363.592V391.181V393.422H280.039H196.806H194.565V391.181V363.592V361.352ZM199.047 365.833V388.94H201.13V365.833H199.047ZM207.616 388.94H204.822V365.833H207.616V388.94ZM204.373 365.833V388.94H201.578V365.833H204.373ZM211.306 388.94H214.101V365.833H211.306V388.94ZM210.858 388.94V365.833H208.064V388.94H210.858ZM220.587 388.94H217.793V365.833H220.587V388.94ZM217.345 365.833V388.94H214.549V365.833H217.345ZM224.278 388.94H227.073V365.833H224.278V388.94ZM223.83 388.94V365.833H221.035V388.94H223.83ZM233.558 388.94H230.764V365.833H233.558V388.94ZM230.316 365.833V388.94H227.521V365.833H230.316ZM237.249 388.94H240.044V365.833H237.249V388.94ZM236.801 388.94V365.833H234.006V388.94H236.801ZM246.53 388.94H243.735V365.833H246.53V388.94ZM243.287 365.833V388.94H240.493V365.833H243.287ZM250.22 388.94H253.017V365.833H250.22V388.94ZM249.772 388.94V365.833H246.978V388.94H249.772ZM259.501 388.94H256.706V365.833H259.501V388.94ZM256.258 365.833V388.94H253.465V365.833H256.258ZM263.192 388.94H265.987V365.833H263.192V388.94ZM262.744 388.94V365.833H259.949V388.94H262.744ZM272.472 388.94H269.678V365.833H272.472V388.94ZM269.23 365.833V388.94H266.435V365.833H269.23ZM276.164 388.94H277.798V365.833H276.164V388.94ZM275.715 388.94V365.833H272.92V388.94H275.715Z" fill="#FDEFF7"/>
<path fill-rule="evenodd" clip-rule="evenodd" d="M196.807 316.537H178.433V376.141H196.807V364.042H212.941V316.538H196.807V316.537Z" fill="#6699FF"/>
<path d="M178.433 316.537V314.297H176.192V316.537H178.433ZM196.807 316.537H199.047V314.297H196.807V316.537ZM178.433 376.141H176.192V378.382H178.433V376.141ZM196.807 376.141V378.382H199.047V376.141H196.807ZM196.807 364.042V361.801H194.566V364.042H196.807ZM212.941 364.042V366.283H215.182V364.042H212.941ZM212.941 316.538H215.182V314.297H212.941V316.538ZM196.807 316.538H194.566V318.779H196.807V316.538ZM178.433 318.778H196.807V314.297H178.433V318.778ZM180.673 376.141V316.537H176.192V376.141H180.673ZM196.807 373.9H178.433V378.382H196.807V373.9ZM194.566 364.042V376.141H199.047V364.042H194.566ZM212.941 361.801H196.807V366.283H212.941V361.801ZM210.701 316.538V364.042H215.182V316.538H210.701ZM196.807 318.779H212.941V314.297H196.807V318.779ZM194.566 316.537V316.538H199.047V316.537H194.566Z" fill="#FDEFF7"/>
<rect x="196.807" y="331.326" width="85.1482" height="32.2667" fill="#6699FF" stroke="#FDEFF7" stroke-width="4.48148"/>
<line x1="212.941" y1="331.327" x2="212.941" y2="364.49" stroke="#FDEFF7" stroke-width="4.48148"/>
<line x1="249.242" y1="332.223" x2="249.242" y2="365.386" stroke="#FDEFF7" stroke-width="4.48148"/>
<rect x="175.745" y="168.2" width="125.481" height="107.556" fill="#F2F2F2"/>
<path d="M180.422 433.413H193.328V434.201H189.528V457.72H190.819C192.85 457.72 194.463 457.099 195.659 455.856C196.878 454.613 198.108 452.701 199.351 450.12H200.104L199.423 458.509H180.422V457.72H182.537V434.201H180.422V433.413ZM209.989 450.084H211.028V447.323C211.028 445.053 210.897 443.535 210.634 442.77C210.395 441.981 209.917 441.587 209.2 441.587C208.77 441.587 208.375 441.706 208.017 441.945C207.682 442.161 207.515 442.471 207.515 442.878C207.515 443.26 207.587 443.654 207.73 444.061H208.626C208.817 444.563 208.913 445.172 208.913 445.889C208.913 446.582 208.614 447.192 208.017 447.718C207.419 448.22 206.666 448.471 205.758 448.471C203.703 448.471 202.675 447.479 202.675 445.495C202.675 442.555 205.173 441.085 210.168 441.085C213.012 441.085 214.972 441.575 216.048 442.555C217.147 443.511 217.697 445.28 217.697 447.861V455.139C217.697 456.382 218.043 457.003 218.736 457.003C219.549 457.003 220.027 455.772 220.171 453.311L220.708 453.346C220.613 455.45 220.218 456.896 219.525 457.684C218.832 458.473 217.697 458.868 216.119 458.868C213.251 458.868 211.602 457.983 211.172 456.215C210.861 457.123 210.395 457.792 209.774 458.222C209.152 458.652 208.244 458.868 207.049 458.868C203.511 458.868 201.743 457.422 201.743 454.529C201.743 452.832 202.412 451.673 203.75 451.052C205.113 450.407 207.192 450.084 209.989 450.084ZM208.555 454.494C208.555 455.736 208.614 456.537 208.734 456.896C208.877 457.254 209.128 457.433 209.487 457.433C209.869 457.433 210.216 457.135 210.526 456.537C210.861 455.916 211.028 455.067 211.028 453.992V450.657H210.777C209.296 450.657 208.555 451.745 208.555 453.92V454.494ZM221.132 441.444H229.773V444.742C230.155 443.642 230.741 442.758 231.529 442.089C232.318 441.42 233.513 441.085 235.115 441.085C238.819 441.085 240.672 443.081 240.672 447.072V457.864H242.679V458.509H232.533V457.864H234.003V446.212C234.003 444.778 233.908 443.858 233.716 443.451C233.525 443.021 233.179 442.806 232.677 442.806C231.912 442.806 231.231 443.308 230.633 444.312C230.06 445.316 229.773 446.535 229.773 447.969V457.864H231.314V458.509H221.132V457.864H223.104V442.089H221.132V441.444ZM244.771 453.382V442.089H242.799V441.444H244.771V436.819L251.439 435.169V441.444H256.1V442.089H251.439V454.171C251.439 455.294 251.547 456.119 251.762 456.645C252.001 457.171 252.479 457.433 253.196 457.433C253.913 457.433 254.534 457.075 255.06 456.358C255.61 455.641 255.968 454.661 256.136 453.418L256.745 453.49C256.554 455.139 256.028 456.454 255.168 457.433C254.307 458.39 252.885 458.868 250.901 458.868C248.917 458.868 247.4 458.473 246.348 457.684C245.296 456.896 244.771 455.462 244.771 453.382ZM265.692 450.084H266.732V447.323C266.732 445.053 266.6 443.535 266.337 442.77C266.098 441.981 265.62 441.587 264.903 441.587C264.473 441.587 264.079 441.706 263.72 441.945C263.386 442.161 263.218 442.471 263.218 442.878C263.218 443.26 263.29 443.654 263.433 444.061H264.33C264.521 444.563 264.617 445.172 264.617 445.889C264.617 446.582 264.318 447.192 263.72 447.718C263.123 448.22 262.37 448.471 261.462 448.471C259.406 448.471 258.378 447.479 258.378 445.495C258.378 442.555 260.876 441.085 265.871 441.085C268.716 441.085 270.675 441.575 271.751 442.555C272.85 443.511 273.4 445.28 273.4 447.861V455.139C273.4 456.382 273.747 457.003 274.44 457.003C275.253 457.003 275.731 455.772 275.874 453.311L276.412 453.346C276.316 455.45 275.922 456.896 275.229 457.684C274.536 458.473 273.4 458.868 271.823 458.868C268.955 458.868 267.305 457.983 266.875 456.215C266.564 457.123 266.098 457.792 265.477 458.222C264.856 458.652 263.947 458.868 262.752 458.868C259.215 458.868 257.446 457.422 257.446 454.529C257.446 452.832 258.115 451.673 259.454 451.052C260.816 450.407 262.896 450.084 265.692 450.084ZM264.258 454.494C264.258 455.736 264.318 456.537 264.437 456.896C264.581 457.254 264.832 457.433 265.19 457.433C265.573 457.433 265.919 457.135 266.23 456.537C266.564 455.916 266.732 455.067 266.732 453.992V450.657H266.481C264.999 450.657 264.258 451.745 264.258 453.92V454.494ZM282.034 438.97C280.768 438.97 279.859 438.647 279.31 438.002C278.784 437.356 278.521 436.556 278.521 435.6C278.521 434.644 278.808 433.855 279.381 433.233C279.979 432.612 280.875 432.301 282.07 432.301C283.265 432.301 284.174 432.588 284.795 433.162C285.416 433.712 285.727 434.512 285.727 435.564C285.727 436.592 285.428 437.416 284.831 438.038C284.233 438.659 283.301 438.97 282.034 438.97ZM276.621 441.444H285.404V457.864H287.412V458.509H276.764V457.864H278.736V442.089H276.621V441.444ZM295.732 438.504C295.732 436.926 296.449 435.624 297.883 434.596C299.317 433.544 301.445 433.018 304.265 433.018C309.714 433.018 312.439 434.919 312.439 438.719C312.439 440.272 311.794 441.563 310.503 442.591C309.236 443.595 307.408 444.3 305.018 444.706V444.778C307.982 444.993 310.169 445.686 311.579 446.857C312.989 448.028 313.694 449.546 313.694 451.41C313.694 453.705 312.762 455.521 310.898 456.86C309.057 458.198 306.488 458.868 303.189 458.868C301.899 458.868 300.692 458.724 299.568 458.437C298.469 458.151 297.477 457.589 296.593 456.752C295.732 455.892 295.302 454.876 295.302 453.705C295.302 452.534 295.577 451.625 296.127 450.98C296.7 450.335 297.477 450.012 298.457 450.012C299.437 450.012 300.214 450.275 300.787 450.801C301.361 451.303 301.648 451.912 301.648 452.629C301.648 453.322 301.552 453.92 301.361 454.422H300.25C300.106 454.804 300.034 455.199 300.034 455.605C300.034 457.302 301.038 458.151 303.046 458.151C304.456 458.151 305.412 457.613 305.914 456.537C306.44 455.462 306.703 453.908 306.703 451.876C306.703 449.845 306.452 448.375 305.95 447.467C305.472 446.535 304.755 445.829 303.799 445.351C302.938 445.543 301.899 445.698 300.68 445.817L300.572 445.029C302.676 444.814 304.05 444.312 304.695 443.523C305.364 442.734 305.699 441.336 305.699 439.328C305.699 437.297 305.496 435.851 305.09 434.99C304.707 434.106 304.05 433.664 303.118 433.664C302.186 433.664 301.516 433.951 301.11 434.524C300.728 435.074 300.536 435.6 300.536 436.102C300.536 436.604 300.608 437.046 300.752 437.428H301.791C301.982 437.93 302.078 438.54 302.078 439.257C302.078 439.95 301.779 440.559 301.182 441.085C300.584 441.587 299.795 441.838 298.816 441.838C297.836 441.838 297.071 441.527 296.521 440.906C295.995 440.26 295.732 439.46 295.732 438.504Z" fill="#181818"/>
<path d="M52.3597 356.501H40.3831V353.981L44.6839 349.634C45.9573 348.329 46.7894 347.427 47.18 346.927C47.5706 346.419 47.8519 345.95 48.0237 345.52C48.1956 345.091 48.2815 344.645 48.2815 344.184C48.2815 343.497 48.0901 342.985 47.7073 342.649C47.3323 342.313 46.8284 342.145 46.1956 342.145C45.5315 342.145 44.887 342.298 44.262 342.602C43.637 342.907 42.9847 343.341 42.305 343.903L40.3362 341.571C41.18 340.852 41.8792 340.344 42.4339 340.048C42.9886 339.751 43.594 339.524 44.2503 339.368C44.9065 339.204 45.6409 339.122 46.4534 339.122C47.5237 339.122 48.469 339.317 49.2894 339.708C50.1097 340.098 50.7464 340.645 51.1995 341.348C51.6526 342.052 51.8792 342.856 51.8792 343.762C51.8792 344.552 51.7386 345.294 51.4573 345.989C51.1839 346.677 50.7542 347.384 50.1683 348.11C49.5901 348.837 48.5667 349.872 47.0979 351.216L44.8948 353.29V353.454H52.3597V356.501ZM65.4026 343.2C65.4026 344.27 65.0784 345.18 64.43 345.93C63.7815 346.68 62.8714 347.196 61.6995 347.477V347.548C63.0823 347.719 64.1292 348.141 64.8401 348.813C65.5511 349.477 65.9065 350.376 65.9065 351.509C65.9065 353.157 65.3089 354.442 64.1136 355.364C62.9183 356.278 61.2112 356.735 58.9925 356.735C57.1331 356.735 55.4847 356.427 54.0472 355.809V352.727C54.7112 353.063 55.4417 353.337 56.2386 353.548C57.0354 353.759 57.8245 353.864 58.6058 353.864C59.8011 353.864 60.6839 353.661 61.2542 353.255C61.8245 352.848 62.1097 352.196 62.1097 351.298C62.1097 350.493 61.7815 349.923 61.1253 349.587C60.469 349.251 59.4222 349.083 57.9847 349.083H56.6839V346.305H58.0081C59.3362 346.305 60.305 346.134 60.9144 345.79C61.5315 345.438 61.8401 344.841 61.8401 343.997C61.8401 342.7 61.0276 342.052 59.4026 342.052C58.8401 342.052 58.2659 342.145 57.68 342.333C57.1019 342.52 56.4573 342.844 55.7464 343.305L54.0706 340.809C55.6331 339.684 57.4964 339.122 59.6604 339.122C61.4339 339.122 62.8323 339.481 63.8558 340.2C64.887 340.919 65.4026 341.919 65.4026 343.2ZM79.6878 347.934C79.6878 350.927 79.1956 353.141 78.2112 354.579C77.2347 356.016 75.7269 356.735 73.6878 356.735C71.7112 356.735 70.219 355.993 69.2112 354.509C68.2112 353.024 67.7112 350.833 67.7112 347.934C67.7112 344.911 68.1995 342.684 69.1761 341.255C70.1526 339.817 71.6565 339.098 73.6878 339.098C75.6644 339.098 77.1565 339.848 78.1644 341.348C79.18 342.848 79.6878 345.044 79.6878 347.934ZM71.3089 347.934C71.3089 350.036 71.4886 351.544 71.8479 352.458C72.2151 353.364 72.8284 353.817 73.6878 353.817C74.5315 353.817 75.1409 353.356 75.5159 352.434C75.8909 351.512 76.0784 350.012 76.0784 347.934C76.0784 345.833 75.887 344.325 75.5042 343.411C75.1292 342.489 74.5237 342.028 73.6878 342.028C72.8362 342.028 72.2269 342.489 71.8597 343.411C71.4925 344.325 71.3089 345.833 71.3089 347.934ZM90.469 356.501H86.8479V346.587L86.8831 344.958L86.9417 343.177C86.3401 343.778 85.9222 344.173 85.6878 344.36L83.719 345.942L81.9729 343.762L87.4925 339.368H90.469V356.501Z" fill="#FBFBFB"/>
<path d="M52.1351 210.853H40.1586V208.334L44.4593 203.986C45.7328 202.681 46.5648 201.779 46.9554 201.279C47.3461 200.771 47.6273 200.303 47.7992 199.873C47.9711 199.443 48.057 198.998 48.057 198.537C48.057 197.849 47.8656 197.338 47.4828 197.002C47.1078 196.666 46.6039 196.498 45.9711 196.498C45.307 196.498 44.6625 196.65 44.0375 196.955C43.4125 197.26 42.7601 197.693 42.0804 198.256L40.1117 195.924C40.9554 195.205 41.6547 194.697 42.2093 194.4C42.764 194.103 43.3695 193.877 44.0257 193.721C44.682 193.556 45.4164 193.474 46.2289 193.474C47.2992 193.474 48.2445 193.67 49.0648 194.06C49.8851 194.451 50.5218 194.998 50.975 195.701C51.4281 196.404 51.6547 197.209 51.6547 198.115C51.6547 198.904 51.514 199.646 51.2328 200.342C50.9593 201.029 50.5297 201.736 49.9437 202.463C49.3656 203.189 48.3422 204.224 46.8734 205.568L44.6703 207.642V207.806H52.1351V210.853ZM65.1781 197.553C65.1781 198.623 64.8539 199.533 64.2054 200.283C63.557 201.033 62.6468 201.549 61.475 201.83V201.9C62.8578 202.072 63.9047 202.494 64.6156 203.166C65.3265 203.83 65.682 204.728 65.682 205.861C65.682 207.51 65.0843 208.795 63.889 209.717C62.6937 210.631 60.9867 211.088 58.7679 211.088C56.9086 211.088 55.2601 210.779 53.8226 210.162V207.08C54.4867 207.416 55.2172 207.689 56.014 207.9C56.8109 208.111 57.6 208.217 58.3812 208.217C59.5765 208.217 60.4593 208.013 61.0297 207.607C61.6 207.201 61.8851 206.549 61.8851 205.65C61.8851 204.846 61.557 204.275 60.9007 203.939C60.2445 203.603 59.1976 203.435 57.7601 203.435H56.4593V200.658H57.7836C59.1117 200.658 60.0804 200.486 60.6898 200.142C61.307 199.791 61.6156 199.193 61.6156 198.349C61.6156 197.053 60.8031 196.404 59.1781 196.404C58.6156 196.404 58.0414 196.498 57.4554 196.685C56.8773 196.873 56.2328 197.197 55.5218 197.658L53.8461 195.162C55.4086 194.037 57.2718 193.474 59.4359 193.474C61.2093 193.474 62.6078 193.834 63.6312 194.553C64.6625 195.271 65.1781 196.271 65.1781 197.553ZM79.4632 202.287C79.4632 205.279 78.9711 207.494 77.9867 208.931C77.0101 210.369 75.5023 211.088 73.4632 211.088C71.4867 211.088 69.9945 210.346 68.9867 208.861C67.9867 207.377 67.4867 205.185 67.4867 202.287C67.4867 199.263 67.975 197.037 68.9515 195.607C69.9281 194.17 71.432 193.451 73.4632 193.451C75.4398 193.451 76.932 194.201 77.9398 195.701C78.9554 197.201 79.4632 199.396 79.4632 202.287ZM71.0843 202.287C71.0843 204.388 71.264 205.896 71.6234 206.81C71.9906 207.717 72.6039 208.17 73.4632 208.17C74.307 208.17 74.9164 207.709 75.2914 206.787C75.6664 205.865 75.8539 204.365 75.8539 202.287C75.8539 200.185 75.6625 198.678 75.2797 197.763C74.9047 196.842 74.2992 196.381 73.4632 196.381C72.6117 196.381 72.0023 196.842 71.6351 197.763C71.2679 198.678 71.0843 200.185 71.0843 202.287ZM93.2679 210.853H81.2914V208.334L85.5922 203.986C86.8656 202.681 87.6976 201.779 88.0882 201.279C88.4789 200.771 88.7601 200.303 88.932 199.873C89.1039 199.443 89.1898 198.998 89.1898 198.537C89.1898 197.849 88.9984 197.338 88.6156 197.002C88.2406 196.666 87.7367 196.498 87.1039 196.498C86.4398 196.498 85.7953 196.65 85.1703 196.955C84.5453 197.26 83.8929 197.693 83.2132 198.256L81.2445 195.924C82.0882 195.205 82.7875 194.697 83.3422 194.4C83.8968 194.103 84.5023 193.877 85.1586 193.721C85.8148 193.556 86.5492 193.474 87.3617 193.474C88.432 193.474 89.3773 193.67 90.1976 194.06C91.0179 194.451 91.6547 194.998 92.1078 195.701C92.5609 196.404 92.7875 197.209 92.7875 198.115C92.7875 198.904 92.6468 199.646 92.3656 200.342C92.0922 201.029 91.6625 201.736 91.0765 202.463C90.4984 203.189 89.475 204.224 88.0062 205.568L85.8031 207.642V207.806H93.2679V210.853Z" fill="#FBFBFB"/>
<path d="M78.5764 85.3709H66.5999V82.8514L70.9007 78.5037C72.1741 77.199 73.0061 76.2967 73.3967 75.7967C73.7874 75.2889 74.0686 74.8201 74.2405 74.3904C74.4124 73.9608 74.4983 73.5154 74.4983 73.0545C74.4983 72.367 74.3069 71.8553 73.9241 71.5194C73.5491 71.1834 73.0452 71.0154 72.4124 71.0154C71.7483 71.0154 71.1038 71.1678 70.4788 71.4725C69.8538 71.7772 69.2014 72.2108 68.5217 72.7733L66.553 70.4412C67.3967 69.7225 68.096 69.2147 68.6507 68.9178C69.2053 68.6209 69.8108 68.3944 70.4671 68.2381C71.1233 68.074 71.8577 67.992 72.6702 67.992C73.7405 67.992 74.6858 68.1873 75.5061 68.5779C76.3264 68.9686 76.9632 69.5154 77.4163 70.2186C77.8694 70.9217 78.096 71.7264 78.096 72.6326C78.096 73.4217 77.9553 74.1639 77.6741 74.8592C77.4007 75.5467 76.971 76.2537 76.385 76.9803C75.8069 77.7069 74.7835 78.742 73.3147 80.0858L71.1116 82.16V82.324H78.5764V85.3709ZM91.6194 72.0701C91.6194 73.1404 91.2952 74.0506 90.6467 74.8006C89.9983 75.5506 89.0882 76.0662 87.9163 76.3475V76.4178C89.2991 76.5897 90.346 77.0115 91.0569 77.6834C91.7678 78.3475 92.1233 79.2459 92.1233 80.3787C92.1233 82.0272 91.5257 83.3123 90.3303 84.2342C89.135 85.1483 87.428 85.6053 85.2092 85.6053C83.3499 85.6053 81.7014 85.2967 80.2639 84.6795V81.5975C80.928 81.9334 81.6585 82.2069 82.4553 82.4178C83.2522 82.6287 84.0413 82.7342 84.8225 82.7342C86.0178 82.7342 86.9007 82.5311 87.471 82.1248C88.0413 81.7186 88.3264 81.0662 88.3264 80.1678C88.3264 79.3631 87.9983 78.7928 87.3421 78.4569C86.6858 78.1209 85.6389 77.9529 84.2014 77.9529H82.9007V75.1756H84.2249C85.553 75.1756 86.5217 75.0037 87.1311 74.66C87.7483 74.3084 88.0569 73.7108 88.0569 72.867C88.0569 71.5701 87.2444 70.9217 85.6194 70.9217C85.0569 70.9217 84.4827 71.0154 83.8967 71.2029C83.3186 71.3904 82.6741 71.7147 81.9632 72.1756L80.2874 69.6795C81.8499 68.5545 83.7132 67.992 85.8772 67.992C87.6507 67.992 89.0491 68.3514 90.0725 69.0701C91.1038 69.7889 91.6194 70.7889 91.6194 72.0701ZM105.905 76.8045C105.905 79.7967 105.412 82.0115 104.428 83.449C103.451 84.8865 101.944 85.6053 99.9046 85.6053C97.928 85.6053 96.4358 84.8631 95.428 83.3787C94.428 81.8944 93.928 79.7029 93.928 76.8045C93.928 73.7811 94.4163 71.5545 95.3928 70.1248C96.3694 68.6873 97.8733 67.9686 99.9046 67.9686C101.881 67.9686 103.373 68.7186 104.381 70.2186C105.397 71.7186 105.905 73.9139 105.905 76.8045ZM97.5257 76.8045C97.5257 78.9061 97.7053 80.4139 98.0647 81.3279C98.4319 82.2342 99.0452 82.6873 99.9046 82.6873C100.748 82.6873 101.358 82.2264 101.733 81.3045C102.108 80.3826 102.295 78.8826 102.295 76.8045C102.295 74.7029 102.104 73.1951 101.721 72.2811C101.346 71.3592 100.74 70.8983 99.9046 70.8983C99.053 70.8983 98.4436 71.3592 98.0764 72.2811C97.7092 73.1951 97.5257 74.7029 97.5257 76.8045ZM119.041 72.0701C119.041 73.1404 118.717 74.0506 118.069 74.8006C117.42 75.5506 116.51 76.0662 115.338 76.3475V76.4178C116.721 76.5897 117.768 77.0115 118.479 77.6834C119.19 78.3475 119.545 79.2459 119.545 80.3787C119.545 82.0272 118.948 83.3123 117.752 84.2342C116.557 85.1483 114.85 85.6053 112.631 85.6053C110.772 85.6053 109.123 85.2967 107.686 84.6795V81.5975C108.35 81.9334 109.08 82.2069 109.877 82.4178C110.674 82.6287 111.463 82.7342 112.244 82.7342C113.44 82.7342 114.323 82.5311 114.893 82.1248C115.463 81.7186 115.748 81.0662 115.748 80.1678C115.748 79.3631 115.42 78.7928 114.764 78.4569C114.108 78.1209 113.061 77.9529 111.623 77.9529H110.323V75.1756H111.647C112.975 75.1756 113.944 75.0037 114.553 74.66C115.17 74.3084 115.479 73.7108 115.479 72.867C115.479 71.5701 114.666 70.9217 113.041 70.9217C112.479 70.9217 111.905 71.0154 111.319 71.2029C110.74 71.3904 110.096 71.7147 109.385 72.1756L107.709 69.6795C109.272 68.5545 111.135 67.992 113.299 67.992C115.073 67.992 116.471 68.3514 117.494 69.0701C118.526 69.7889 119.041 70.7889 119.041 72.0701Z" fill="#FBFBFB"/>
<path d="M408.413 97.5412H396.437V95.0216L400.737 90.674C402.011 89.3693 402.843 88.467 403.234 87.967C403.624 87.4591 403.905 86.9904 404.077 86.5607C404.249 86.131 404.335 85.6857 404.335 85.2248C404.335 84.5373 404.144 84.0256 403.761 83.6896C403.386 83.3537 402.882 83.1857 402.249 83.1857C401.585 83.1857 400.941 83.3381 400.316 83.6427C399.691 83.9474 399.038 84.381 398.359 84.9435L396.39 82.6115C397.234 81.8927 397.933 81.3849 398.487 81.0881C399.042 80.7912 399.648 80.5646 400.304 80.4084C400.96 80.2443 401.695 80.1623 402.507 80.1623C403.577 80.1623 404.523 80.3576 405.343 80.7482C406.163 81.1388 406.8 81.6857 407.253 82.3888C407.706 83.092 407.933 83.8966 407.933 84.8029C407.933 85.592 407.792 86.3341 407.511 87.0295C407.237 87.717 406.808 88.424 406.222 89.1506C405.644 89.8771 404.62 90.9123 403.152 92.256L400.948 94.3302V94.4943H408.413V97.5412ZM421.456 84.2404C421.456 85.3107 421.132 86.2209 420.484 86.9709C419.835 87.7209 418.925 88.2365 417.753 88.5177V88.5881C419.136 88.7599 420.183 89.1818 420.894 89.8537C421.605 90.5177 421.96 91.4162 421.96 92.549C421.96 94.1974 421.362 95.4826 420.167 96.4045C418.972 97.3185 417.265 97.7756 415.046 97.7756C413.187 97.7756 411.538 97.467 410.101 96.8498V93.7677C410.765 94.1037 411.495 94.3771 412.292 94.5881C413.089 94.799 413.878 94.9045 414.659 94.9045C415.855 94.9045 416.737 94.7013 417.308 94.2951C417.878 93.8888 418.163 93.2365 418.163 92.3381C418.163 91.5334 417.835 90.9631 417.179 90.6271C416.523 90.2912 415.476 90.1232 414.038 90.1232H412.737V87.3459H414.062C415.39 87.3459 416.359 87.174 416.968 86.8302C417.585 86.4787 417.894 85.881 417.894 85.0373C417.894 83.7404 417.081 83.092 415.456 83.092C414.894 83.092 414.32 83.1857 413.734 83.3732C413.155 83.5607 412.511 83.8849 411.8 84.3459L410.124 81.8498C411.687 80.7248 413.55 80.1623 415.714 80.1623C417.487 80.1623 418.886 80.5216 419.909 81.2404C420.941 81.9591 421.456 82.9591 421.456 84.2404ZM435.741 88.9748C435.741 91.967 435.249 94.1818 434.265 95.6193C433.288 97.0568 431.78 97.7756 429.741 97.7756C427.765 97.7756 426.273 97.0334 425.265 95.549C424.265 94.0646 423.765 91.8732 423.765 88.9748C423.765 85.9513 424.253 83.7248 425.23 82.2951C426.206 80.8576 427.71 80.1388 429.741 80.1388C431.718 80.1388 433.21 80.8888 434.218 82.3888C435.234 83.8888 435.741 86.0841 435.741 88.9748ZM427.362 88.9748C427.362 91.0763 427.542 92.5841 427.902 93.4982C428.269 94.4045 428.882 94.8576 429.741 94.8576C430.585 94.8576 431.195 94.3966 431.57 93.4748C431.945 92.5529 432.132 91.0529 432.132 88.9748C432.132 86.8732 431.941 85.3654 431.558 84.4513C431.183 83.5295 430.577 83.0685 429.741 83.0685C428.89 83.0685 428.28 83.5295 427.913 84.4513C427.546 85.3654 427.362 86.8732 427.362 88.9748ZM449.933 93.9904H447.87V97.5412H444.331V93.9904H437.019V91.4709L444.53 80.4084H447.87V91.1779H449.933V93.9904ZM444.331 91.1779V88.2716C444.331 87.7873 444.351 87.0841 444.39 86.1623C444.429 85.2404 444.46 84.7052 444.484 84.5568H444.39C444.101 85.1974 443.753 85.8224 443.347 86.4318L440.206 91.1779H444.331ZM408.413 130.541H396.437V128.022L400.737 123.674C402.011 122.369 402.843 121.467 403.234 120.967C403.624 120.459 403.905 119.99 404.077 119.561C404.249 119.131 404.335 118.686 404.335 118.225C404.335 117.537 404.144 117.026 403.761 116.69C403.386 116.354 402.882 116.186 402.249 116.186C401.585 116.186 400.941 116.338 400.316 116.643C399.691 116.947 399.038 117.381 398.359 117.944L396.39 115.611C397.234 114.893 397.933 114.385 398.487 114.088C399.042 113.791 399.648 113.565 400.304 113.408C400.96 113.244 401.695 113.162 402.507 113.162C403.577 113.162 404.523 113.358 405.343 113.748C406.163 114.139 406.8 114.686 407.253 115.389C407.706 116.092 407.933 116.897 407.933 117.803C407.933 118.592 407.792 119.334 407.511 120.029C407.237 120.717 406.808 121.424 406.222 122.151C405.644 122.877 404.62 123.912 403.152 125.256L400.948 127.33V127.494H408.413V130.541ZM421.456 117.24C421.456 118.311 421.132 119.221 420.484 119.971C419.835 120.721 418.925 121.236 417.753 121.518V121.588C419.136 121.76 420.183 122.182 420.894 122.854C421.605 123.518 421.96 124.416 421.96 125.549C421.96 127.197 421.362 128.483 420.167 129.404C418.972 130.319 417.265 130.776 415.046 130.776C413.187 130.776 411.538 130.467 410.101 129.85V126.768C410.765 127.104 411.495 127.377 412.292 127.588C413.089 127.799 413.878 127.904 414.659 127.904C415.855 127.904 416.737 127.701 417.308 127.295C417.878 126.889 418.163 126.236 418.163 125.338C418.163 124.533 417.835 123.963 417.179 123.627C416.523 123.291 415.476 123.123 414.038 123.123H412.737V120.346H414.062C415.39 120.346 416.359 120.174 416.968 119.83C417.585 119.479 417.894 118.881 417.894 118.037C417.894 116.74 417.081 116.092 415.456 116.092C414.894 116.092 414.32 116.186 413.734 116.373C413.155 116.561 412.511 116.885 411.8 117.346L410.124 114.85C411.687 113.725 413.55 113.162 415.714 113.162C417.487 113.162 418.886 113.522 419.909 114.24C420.941 114.959 421.456 115.959 421.456 117.24ZM435.741 121.975C435.741 124.967 435.249 127.182 434.265 128.619C433.288 130.057 431.78 130.776 429.741 130.776C427.765 130.776 426.273 130.033 425.265 128.549C424.265 127.065 423.765 124.873 423.765 121.975C423.765 118.951 424.253 116.725 425.23 115.295C426.206 113.858 427.71 113.139 429.741 113.139C431.718 113.139 433.21 113.889 434.218 115.389C435.234 116.889 435.741 119.084 435.741 121.975ZM427.362 121.975C427.362 124.076 427.542 125.584 427.902 126.498C428.269 127.404 428.882 127.858 429.741 127.858C430.585 127.858 431.195 127.397 431.57 126.475C431.945 125.553 432.132 124.053 432.132 121.975C432.132 119.873 431.941 118.365 431.558 117.451C431.183 116.529 430.577 116.069 429.741 116.069C428.89 116.069 428.28 116.529 427.913 117.451C427.546 118.365 427.362 119.873 427.362 121.975ZM443.804 119.596C445.46 119.596 446.777 120.061 447.753 120.99C448.737 121.92 449.23 123.194 449.23 124.811C449.23 126.725 448.64 128.197 447.46 129.229C446.28 130.26 444.593 130.776 442.398 130.776C440.491 130.776 438.952 130.467 437.78 129.85V126.721C438.398 127.049 439.116 127.319 439.937 127.529C440.757 127.733 441.534 127.834 442.269 127.834C444.48 127.834 445.585 126.928 445.585 125.115C445.585 123.389 444.441 122.526 442.152 122.526C441.737 122.526 441.28 122.569 440.78 122.654C440.28 122.733 439.874 122.819 439.562 122.912L438.12 122.139L438.765 113.408H448.058V116.479H441.941L441.624 119.842L442.034 119.76C442.511 119.651 443.101 119.596 443.804 119.596Z" fill="#FBFBFB"/>
<path d="M403.709 261.045H391.732V258.526L396.033 254.178C397.306 252.873 398.138 251.971 398.529 251.471C398.92 250.963 399.201 250.494 399.373 250.065C399.545 249.635 399.63 249.19 399.63 248.729C399.63 248.041 399.439 247.529 399.056 247.194C398.681 246.858 398.177 246.69 397.545 246.69C396.88 246.69 396.236 246.842 395.611 247.147C394.986 247.451 394.334 247.885 393.654 248.447L391.685 246.115C392.529 245.397 393.228 244.889 393.783 244.592C394.338 244.295 394.943 244.069 395.599 243.912C396.255 243.748 396.99 243.666 397.802 243.666C398.873 243.666 399.818 243.862 400.638 244.252C401.459 244.643 402.095 245.19 402.548 245.893C403.002 246.596 403.228 247.401 403.228 248.307C403.228 249.096 403.088 249.838 402.806 250.533C402.533 251.221 402.103 251.928 401.517 252.654C400.939 253.381 399.916 254.416 398.447 255.76L396.244 257.834V257.998H403.709V261.045ZM416.752 247.744C416.752 248.815 416.427 249.725 415.779 250.475C415.13 251.225 414.22 251.74 413.048 252.022V252.092C414.431 252.264 415.478 252.686 416.189 253.358C416.9 254.022 417.255 254.92 417.255 256.053C417.255 257.701 416.658 258.987 415.463 259.908C414.267 260.822 412.56 261.279 410.341 261.279C408.482 261.279 406.834 260.971 405.396 260.354V257.272C406.06 257.608 406.791 257.881 407.588 258.092C408.384 258.303 409.173 258.408 409.955 258.408C411.15 258.408 412.033 258.205 412.603 257.799C413.173 257.393 413.459 256.74 413.459 255.842C413.459 255.037 413.13 254.467 412.474 254.131C411.818 253.795 410.771 253.627 409.334 253.627H408.033V250.85H409.357C410.685 250.85 411.654 250.678 412.263 250.334C412.88 249.983 413.189 249.385 413.189 248.541C413.189 247.244 412.377 246.596 410.752 246.596C410.189 246.596 409.615 246.69 409.029 246.877C408.451 247.065 407.806 247.389 407.095 247.85L405.42 245.354C406.982 244.229 408.845 243.666 411.009 243.666C412.783 243.666 414.181 244.026 415.205 244.744C416.236 245.463 416.752 246.463 416.752 247.744ZM431.037 252.479C431.037 255.471 430.545 257.686 429.56 259.123C428.584 260.561 427.076 261.279 425.037 261.279C423.06 261.279 421.568 260.537 420.56 259.053C419.56 257.569 419.06 255.377 419.06 252.479C419.06 249.455 419.548 247.229 420.525 245.799C421.502 244.362 423.005 243.643 425.037 243.643C427.013 243.643 428.505 244.393 429.513 245.893C430.529 247.393 431.037 249.588 431.037 252.479ZM422.658 252.479C422.658 254.58 422.838 256.088 423.197 257.002C423.564 257.908 424.177 258.362 425.037 258.362C425.88 258.362 426.49 257.901 426.865 256.979C427.24 256.057 427.427 254.557 427.427 252.479C427.427 250.377 427.236 248.869 426.853 247.955C426.478 247.033 425.873 246.572 425.037 246.572C424.185 246.572 423.576 247.033 423.209 247.955C422.841 248.869 422.658 250.377 422.658 252.479ZM432.748 253.768C432.748 250.377 433.463 247.854 434.892 246.197C436.33 244.541 438.478 243.713 441.338 243.713C442.314 243.713 443.08 243.772 443.634 243.889V246.783C442.939 246.627 442.252 246.549 441.572 246.549C440.33 246.549 439.314 246.737 438.525 247.112C437.744 247.487 437.158 248.041 436.767 248.776C436.377 249.51 436.146 250.553 436.076 251.904H436.228C437.002 250.576 438.24 249.912 439.943 249.912C441.474 249.912 442.673 250.393 443.541 251.354C444.408 252.315 444.841 253.643 444.841 255.338C444.841 257.166 444.326 258.615 443.295 259.686C442.263 260.748 440.834 261.279 439.005 261.279C437.74 261.279 436.634 260.987 435.689 260.401C434.752 259.815 434.025 258.959 433.509 257.834C433.002 256.709 432.748 255.354 432.748 253.768ZM438.935 258.385C439.709 258.385 440.302 258.127 440.716 257.612C441.13 257.088 441.338 256.346 441.338 255.385C441.338 254.549 441.142 253.893 440.752 253.416C440.369 252.932 439.787 252.69 439.005 252.69C438.271 252.69 437.642 252.928 437.119 253.404C436.603 253.881 436.345 254.436 436.345 255.069C436.345 255.998 436.588 256.783 437.072 257.424C437.564 258.065 438.185 258.385 438.935 258.385Z" fill="#FBFBFB"/>
<path d="M371.441 374.427H359.465V371.908L363.766 367.56C365.039 366.255 365.871 365.353 366.262 364.853C366.652 364.345 366.934 363.877 367.105 363.447C367.277 363.017 367.363 362.572 367.363 362.111C367.363 361.423 367.172 360.912 366.789 360.576C366.414 360.24 365.91 360.072 365.277 360.072C364.613 360.072 363.969 360.224 363.344 360.529C362.719 360.834 362.066 361.267 361.387 361.83L359.418 359.498C360.262 358.779 360.961 358.271 361.516 357.974C362.07 357.677 362.676 357.451 363.332 357.294C363.988 357.13 364.723 357.048 365.535 357.048C366.605 357.048 367.551 357.244 368.371 357.634C369.191 358.025 369.828 358.572 370.281 359.275C370.734 359.978 370.961 360.783 370.961 361.689C370.961 362.478 370.82 363.22 370.539 363.916C370.266 364.603 369.836 365.31 369.25 366.037C368.672 366.763 367.648 367.798 366.18 369.142L363.977 371.216V371.38H371.441V374.427ZM384.484 361.127C384.484 362.197 384.16 363.107 383.512 363.857C382.863 364.607 381.953 365.123 380.781 365.404V365.474C382.164 365.646 383.211 366.068 383.922 366.74C384.633 367.404 384.988 368.302 384.988 369.435C384.988 371.084 384.391 372.369 383.195 373.291C382 374.205 380.293 374.662 378.074 374.662C376.215 374.662 374.566 374.353 373.129 373.736V370.654C373.793 370.99 374.523 371.263 375.32 371.474C376.117 371.685 376.906 371.791 377.688 371.791C378.883 371.791 379.766 371.587 380.336 371.181C380.906 370.775 381.191 370.123 381.191 369.224C381.191 368.419 380.863 367.849 380.207 367.513C379.551 367.177 378.504 367.009 377.066 367.009H375.766V364.232H377.09C378.418 364.232 379.387 364.06 379.996 363.716C380.613 363.365 380.922 362.767 380.922 361.923C380.922 360.627 380.109 359.978 378.484 359.978C377.922 359.978 377.348 360.072 376.762 360.259C376.184 360.447 375.539 360.771 374.828 361.232L373.152 358.736C374.715 357.611 376.578 357.048 378.742 357.048C380.516 357.048 381.914 357.408 382.938 358.127C383.969 358.845 384.484 359.845 384.484 361.127ZM398.77 365.861C398.77 368.853 398.277 371.068 397.293 372.505C396.316 373.943 394.809 374.662 392.77 374.662C390.793 374.662 389.301 373.919 388.293 372.435C387.293 370.951 386.793 368.759 386.793 365.861C386.793 362.837 387.281 360.611 388.258 359.181C389.234 357.744 390.738 357.025 392.77 357.025C394.746 357.025 396.238 357.775 397.246 359.275C398.262 360.775 398.77 362.97 398.77 365.861ZM390.391 365.861C390.391 367.962 390.57 369.47 390.93 370.384C391.297 371.291 391.91 371.744 392.77 371.744C393.613 371.744 394.223 371.283 394.598 370.361C394.973 369.439 395.16 367.939 395.16 365.861C395.16 363.759 394.969 362.252 394.586 361.337C394.211 360.416 393.605 359.955 392.77 359.955C391.918 359.955 391.309 360.416 390.941 361.337C390.574 362.252 390.391 363.759 390.391 365.861ZM402.297 374.427L408.73 360.365H400.281V357.318H412.574V359.591L406.094 374.427H402.297Z" fill="#FBFBFB"/>
</svg>
