<svg width="495" height="491" viewBox="0 0 495 491" fill="none" xmlns="http://www.w3.org/2000/svg">
<rect x="0.5" y="0.5" width="494" height="490" rx="9.5" stroke="#6699FF"/>
<rect x="6" y="96" width="483" height="250.892" fill="#6699FF" stroke="#FDEFF7" stroke-width="4.47222"/>
<path fill-rule="evenodd" clip-rule="evenodd" d="M195.461 315.526H197.697H280.758H282.994V317.762V344.511V346.747H280.758H197.697H195.461V344.511V317.762V315.526ZM199.933 319.998V342.275H202.011V319.998H199.933ZM208.484 342.275H205.695V319.998H208.484V342.275ZM205.248 319.998V342.275H202.459V319.998H205.248ZM212.168 342.275H214.956V319.998H212.168V342.275ZM211.721 342.275V319.998H208.932V342.275H211.721ZM221.428 342.275H218.639V319.998H221.428V342.275ZM218.192 319.998V342.275H215.403V319.998H218.192ZM225.113 342.275H227.901V319.998H225.113V342.275ZM224.666 342.275V319.998H221.875V342.275H224.666ZM234.373 342.275H231.584V319.998H234.373V342.275ZM231.137 319.998V342.275H228.348V319.998H231.137ZM238.057 342.275H240.844V319.998H238.057V342.275ZM237.61 342.275V319.998H234.82V342.275H237.61ZM247.318 342.275H244.529V319.998H247.318V342.275ZM244.081 319.998V342.275H241.291V319.998H244.081ZM251.002 342.275H253.79V319.998H251.002V342.275ZM250.554 342.275V319.998H247.765V342.275H250.554ZM260.263 342.275H257.473V319.998H260.263V342.275ZM257.025 319.998V342.275H254.237V319.998H257.025ZM263.947 342.275H266.734V319.998H263.947V342.275ZM263.499 342.275V319.998H260.71V342.275H263.499ZM273.208 342.275H270.417V319.998H273.208V342.275ZM269.97 319.998V342.275H267.181V319.998H269.97ZM276.89 342.275H278.522V319.998H276.89V342.275ZM276.443 342.275V319.998H273.655V342.275H276.443Z" fill="#FDEFF7"/>
<path fill-rule="evenodd" clip-rule="evenodd" d="M195.623 287.86H197.859H280.92H283.156V290.096V317.627V319.863H280.92H197.859H195.623V317.627V290.096V287.86ZM200.095 292.332V315.391H202.173V292.332H200.095ZM208.646 315.391H205.857V292.332H208.646V315.391ZM205.41 292.332V315.391H202.621V292.332H205.41ZM212.33 315.391H215.118V292.332H212.33V315.391ZM211.883 315.391V292.332H209.094V315.391H211.883ZM221.59 315.391H218.801V292.332H221.59V315.391ZM218.354 292.332V315.391H215.566V292.332H218.354ZM225.275 315.391H228.063V292.332H225.275V315.391ZM224.828 315.391V292.332H222.038V315.391H224.828ZM234.535 315.391H231.746V292.332H234.535V315.391ZM231.299 292.332V315.391H228.51V292.332H231.299ZM238.219 315.391H241.006V292.332H238.219V315.391ZM237.772 315.391V292.332H234.982V315.391H237.772ZM247.48 315.391H244.691V292.332H247.48V315.391ZM244.244 292.332V315.391H241.453V292.332H244.244ZM251.164 315.391H253.952V292.332H251.164V315.391ZM250.717 315.391V292.332H247.927V315.391H250.717ZM260.425 315.391H257.635V292.332H260.425V315.391ZM257.188 292.332V315.391H254.399V292.332H257.188ZM264.109 315.391H266.896V292.332H264.109V315.391ZM263.661 315.391V292.332H260.872V315.391H263.661ZM273.37 315.391H270.58V292.332H273.37V315.391ZM270.132 292.332V315.391H267.343V292.332H270.132ZM277.053 315.391H278.684V292.332H277.053V315.391ZM276.605 315.391V292.332H273.817V315.391H276.605Z" fill="#FDEFF7"/>
<rect x="213.064" y="257.895" width="67.9778" height="32.2" fill="#6699FF" stroke="#FDEFF7" stroke-width="4.47222"/>
<line x1="249.129" y1="258.79" x2="249.129" y2="291.885" stroke="#FDEFF7" stroke-width="4.47222"/>
<rect x="6" y="96" width="153.397" height="250.892" fill="#6699FF" stroke="#FDEFF7" stroke-width="4.47222"/>
<path fill-rule="evenodd" clip-rule="evenodd" d="M489.002 96H283.279V197.519H332.473V218.538H489V197.519H489.002V96Z" fill="#6699FF"/>
<path d="M283.279 96V93.7639H281.043V96H283.279ZM489.002 96H491.238V93.7639H489.002V96ZM283.279 197.519H281.043V199.756H283.279V197.519ZM332.473 197.519H334.709V195.283H332.473V197.519ZM332.473 218.538H330.236V220.775H332.473V218.538ZM489 218.538V220.775H491.236V218.538H489ZM489 197.519V195.283H486.764V197.519H489ZM489.002 197.519V199.756H491.238V197.519H489.002ZM283.279 98.2361H489.002V93.7639H283.279V98.2361ZM285.515 197.519V96H281.043V197.519H285.515ZM332.473 195.283H283.279V199.756H332.473V195.283ZM334.709 218.538V197.519H330.236V218.538H334.709ZM489 216.302H332.473V220.775H489V216.302ZM486.764 197.519V218.538H491.236V197.519H486.764ZM489.002 195.283H489V199.756H489.002V195.283ZM486.765 96V197.519H491.238V96H486.765Z" fill="#FDEFF7"/>
<rect x="159.396" y="96" width="123.881" height="101.519" fill="#6699FF" stroke="#FDEFF7" stroke-width="4.47222"/>
<path fill-rule="evenodd" clip-rule="evenodd" d="M488.999 346.891H281.041V240.452H332.471V218.538H488.998V240.452H488.999V346.891Z" fill="#6699FF"/>
<path d="M281.041 346.891V349.127H278.805V346.891H281.041ZM488.999 346.891H491.235V349.127H488.999V346.891ZM281.041 240.452H278.805V238.216H281.041V240.452ZM332.471 240.452H334.707V242.688H332.471V240.452ZM332.471 218.538H330.234V216.302H332.471V218.538ZM488.998 218.538V216.302H491.234V218.538H488.998ZM488.998 240.452V242.688H486.762V240.452H488.998ZM488.999 240.452V238.216H491.235V240.452H488.999ZM281.041 344.655H488.999V349.127H281.041V344.655ZM283.277 240.452V346.891H278.805V240.452H283.277ZM332.471 242.688H281.041V238.216H332.471V242.688ZM334.707 218.538V240.452H330.234V218.538H334.707ZM488.998 220.774H332.471V216.302H488.998V220.774ZM486.762 240.452V218.538H491.234V240.452H486.762ZM488.999 242.688H488.998V238.216H488.999V242.688ZM486.763 346.891V240.452H491.235V346.891H486.763Z" fill="#FDEFF7"/>
<path d="M68.2142 230.756H56.2377V228.236L60.5385 223.889C61.8119 222.584 62.6439 221.682 63.0345 221.182C63.4252 220.674 63.7064 220.205 63.8783 219.775C64.0502 219.346 64.1361 218.9 64.1361 218.439C64.1361 217.752 63.9447 217.24 63.5619 216.904C63.1869 216.568 62.683 216.4 62.0502 216.4C61.3861 216.4 60.7416 216.553 60.1166 216.857C59.4916 217.162 58.8392 217.596 58.1595 218.158L56.1908 215.826C57.0345 215.107 57.7338 214.6 58.2885 214.303C58.8431 214.006 59.4486 213.779 60.1049 213.623C60.7611 213.459 61.4955 213.377 62.308 213.377C63.3783 213.377 64.3236 213.572 65.1439 213.963C65.9642 214.354 66.601 214.9 67.0541 215.604C67.5072 216.307 67.7338 217.111 67.7338 218.018C67.7338 218.807 67.5931 219.549 67.3119 220.244C67.0385 220.932 66.6088 221.639 66.0228 222.365C65.4447 223.092 64.4213 224.127 62.9525 225.471L60.7494 227.545V227.709H68.2142V230.756ZM69.8314 223.479C69.8314 220.088 70.5463 217.564 71.976 215.908C73.4135 214.252 75.5619 213.424 78.4213 213.424C79.3978 213.424 80.1635 213.482 80.7181 213.6V216.494C80.0228 216.338 79.3353 216.26 78.6556 216.26C77.4135 216.26 76.3978 216.447 75.6088 216.822C74.8275 217.197 74.2416 217.752 73.851 218.486C73.4603 219.221 73.2299 220.264 73.1595 221.615H73.3119C74.0853 220.287 75.3236 219.623 77.0267 219.623C78.558 219.623 79.7572 220.104 80.6244 221.064C81.4916 222.025 81.9252 223.354 81.9252 225.049C81.9252 226.877 81.4095 228.326 80.3783 229.397C79.347 230.459 77.9174 230.99 76.0892 230.99C74.8236 230.99 73.7181 230.697 72.7728 230.111C71.8353 229.525 71.1088 228.67 70.5931 227.545C70.0853 226.42 69.8314 225.064 69.8314 223.479ZM76.0189 228.096C76.7924 228.096 77.3861 227.838 77.8002 227.322C78.2142 226.799 78.4213 226.057 78.4213 225.096C78.4213 224.26 78.226 223.604 77.8353 223.127C77.4525 222.643 76.8705 222.4 76.0892 222.4C75.3549 222.4 74.726 222.639 74.2025 223.115C73.6869 223.592 73.4291 224.147 73.4291 224.779C73.4291 225.709 73.6713 226.494 74.1556 227.135C74.6478 227.775 75.2689 228.096 76.0189 228.096ZM95.5424 222.189C95.5424 225.182 95.0502 227.397 94.0658 228.834C93.0892 230.272 91.5814 230.99 89.5424 230.99C87.5658 230.99 86.0736 230.248 85.0658 228.764C84.0658 227.279 83.5658 225.088 83.5658 222.189C83.5658 219.166 84.0541 216.939 85.0306 215.51C86.0072 214.072 87.5111 213.354 89.5424 213.354C91.5189 213.354 93.0111 214.104 94.0189 215.604C95.0345 217.104 95.5424 219.299 95.5424 222.189ZM87.1635 222.189C87.1635 224.291 87.3431 225.799 87.7025 226.713C88.0697 227.619 88.683 228.072 89.5424 228.072C90.3861 228.072 90.9955 227.611 91.3705 226.689C91.7455 225.768 91.933 224.268 91.933 222.189C91.933 220.088 91.7416 218.58 91.3588 217.666C90.9838 216.744 90.3783 216.283 89.5424 216.283C88.6908 216.283 88.0814 216.744 87.7142 217.666C87.347 218.58 87.1635 220.088 87.1635 222.189ZM106.324 230.756H102.703V220.842L102.738 219.213L102.796 217.432C102.195 218.033 101.777 218.428 101.542 218.615L99.5736 220.197L97.8275 218.018L103.347 213.623H106.324V230.756Z" fill="#FBFBFB"/>
<path d="M207.076 156.071H195.1V153.551L199.401 149.203C200.674 147.899 201.506 146.996 201.897 146.496C202.287 145.989 202.568 145.52 202.74 145.09C202.912 144.661 202.998 144.215 202.998 143.754C202.998 143.067 202.807 142.555 202.424 142.219C202.049 141.883 201.545 141.715 200.912 141.715C200.248 141.715 199.604 141.868 198.979 142.172C198.354 142.477 197.701 142.911 197.022 143.473L195.053 141.141C195.897 140.422 196.596 139.914 197.151 139.618C197.705 139.321 198.311 139.094 198.967 138.938C199.623 138.774 200.358 138.692 201.17 138.692C202.24 138.692 203.186 138.887 204.006 139.278C204.826 139.668 205.463 140.215 205.916 140.918C206.369 141.621 206.596 142.426 206.596 143.332C206.596 144.121 206.455 144.864 206.174 145.559C205.901 146.246 205.471 146.953 204.885 147.68C204.307 148.407 203.283 149.442 201.815 150.786L199.611 152.86V153.024H207.076V156.071ZM208.693 148.793C208.693 145.403 209.408 142.879 210.838 141.223C212.276 139.567 214.424 138.739 217.283 138.739C218.26 138.739 219.026 138.797 219.58 138.914V141.809C218.885 141.653 218.197 141.575 217.518 141.575C216.276 141.575 215.26 141.762 214.471 142.137C213.69 142.512 213.104 143.067 212.713 143.801C212.322 144.536 212.092 145.578 212.022 146.93H212.174C212.947 145.602 214.186 144.938 215.889 144.938C217.42 144.938 218.619 145.418 219.486 146.379C220.354 147.34 220.787 148.668 220.787 150.364C220.787 152.192 220.272 153.641 219.24 154.711C218.209 155.774 216.779 156.305 214.951 156.305C213.686 156.305 212.58 156.012 211.635 155.426C210.697 154.84 209.971 153.985 209.455 152.86C208.947 151.735 208.693 150.379 208.693 148.793ZM214.881 153.411C215.654 153.411 216.248 153.153 216.662 152.637C217.076 152.114 217.283 151.371 217.283 150.411C217.283 149.575 217.088 148.918 216.697 148.442C216.315 147.957 215.733 147.715 214.951 147.715C214.217 147.715 213.588 147.953 213.065 148.43C212.549 148.907 212.291 149.461 212.291 150.094C212.291 151.024 212.533 151.809 213.018 152.45C213.51 153.09 214.131 153.411 214.881 153.411ZM234.404 147.504C234.404 150.496 233.912 152.711 232.928 154.149C231.951 155.586 230.443 156.305 228.404 156.305C226.428 156.305 224.936 155.563 223.928 154.078C222.928 152.594 222.428 150.403 222.428 147.504C222.428 144.481 222.916 142.254 223.893 140.825C224.869 139.387 226.373 138.668 228.404 138.668C230.381 138.668 231.873 139.418 232.881 140.918C233.897 142.418 234.404 144.614 234.404 147.504ZM226.026 147.504C226.026 149.606 226.205 151.114 226.565 152.028C226.932 152.934 227.545 153.387 228.404 153.387C229.248 153.387 229.858 152.926 230.233 152.004C230.608 151.082 230.795 149.582 230.795 147.504C230.795 145.403 230.604 143.895 230.221 142.981C229.846 142.059 229.24 141.598 228.404 141.598C227.553 141.598 226.943 142.059 226.576 142.981C226.209 143.895 226.026 145.403 226.026 147.504ZM247.541 142.77C247.541 143.84 247.217 144.75 246.568 145.5C245.92 146.25 245.01 146.766 243.838 147.047V147.118C245.221 147.289 246.268 147.711 246.979 148.383C247.69 149.047 248.045 149.946 248.045 151.078C248.045 152.727 247.447 154.012 246.252 154.934C245.057 155.848 243.35 156.305 241.131 156.305C239.272 156.305 237.623 155.996 236.186 155.379V152.297C236.85 152.633 237.58 152.907 238.377 153.118C239.174 153.328 239.963 153.434 240.744 153.434C241.94 153.434 242.822 153.231 243.393 152.825C243.963 152.418 244.248 151.766 244.248 150.868C244.248 150.063 243.92 149.493 243.264 149.157C242.608 148.821 241.561 148.653 240.123 148.653H238.822V145.875H240.147C241.475 145.875 242.443 145.703 243.053 145.36C243.67 145.008 243.979 144.411 243.979 143.567C243.979 142.27 243.166 141.621 241.541 141.621C240.979 141.621 240.404 141.715 239.818 141.903C239.24 142.09 238.596 142.414 237.885 142.875L236.209 140.379C237.772 139.254 239.635 138.692 241.799 138.692C243.572 138.692 244.971 139.051 245.994 139.77C247.026 140.489 247.541 141.489 247.541 142.77Z" fill="#FBFBFB"/>
<path d="M180.292 359.848H193.172V360.635H189.38V384.106H190.668C192.695 384.106 194.305 383.485 195.498 382.245C196.714 381.005 197.943 379.097 199.183 376.521H199.934L199.254 384.893H180.292V384.106H182.403V360.635H180.292V359.848ZM209.798 376.485H210.836V373.73C210.836 371.464 210.705 369.949 210.442 369.186C210.204 368.399 209.727 368.006 209.011 368.006C208.582 368.006 208.188 368.125 207.831 368.363C207.497 368.578 207.33 368.888 207.33 369.294C207.33 369.675 207.401 370.069 207.544 370.474H208.439C208.63 370.975 208.725 371.583 208.725 372.299C208.725 372.991 208.427 373.599 207.831 374.124C207.234 374.624 206.483 374.875 205.577 374.875C203.525 374.875 202.5 373.885 202.5 371.905C202.5 368.972 204.992 367.505 209.977 367.505C212.816 367.505 214.771 367.994 215.845 368.972C216.942 369.926 217.491 371.691 217.491 374.267V381.53C217.491 382.77 217.836 383.39 218.528 383.39C219.339 383.39 219.816 382.162 219.959 379.705L220.496 379.741C220.4 381.84 220.007 383.283 219.315 384.07C218.623 384.857 217.491 385.25 215.916 385.25C213.054 385.25 211.408 384.368 210.979 382.603C210.669 383.509 210.204 384.177 209.584 384.606C208.963 385.036 208.057 385.25 206.865 385.25C203.334 385.25 201.569 383.807 201.569 380.921C201.569 379.228 202.237 378.071 203.573 377.451C204.933 376.807 207.008 376.485 209.798 376.485ZM208.367 380.886C208.367 382.126 208.427 382.925 208.546 383.283C208.689 383.64 208.94 383.819 209.297 383.819C209.679 383.819 210.025 383.521 210.335 382.925C210.669 382.305 210.836 381.458 210.836 380.385V377.057H210.585C209.107 377.057 208.367 378.143 208.367 380.313V380.886ZM220.919 367.862H229.541V371.154C229.923 370.057 230.507 369.174 231.295 368.506C232.082 367.839 233.274 367.505 234.872 367.505C238.569 367.505 240.418 369.496 240.418 373.48V384.249H242.421V384.893H232.296V384.249H233.763V372.621C233.763 371.19 233.668 370.271 233.477 369.866C233.286 369.437 232.94 369.222 232.439 369.222C231.676 369.222 230.996 369.723 230.4 370.725C229.828 371.726 229.541 372.943 229.541 374.374V384.249H231.08V384.893H220.919V384.249H222.887V368.506H220.919V367.862ZM244.508 379.776V368.506H242.541V367.862H244.508V363.247L251.163 361.601V367.862H255.814V368.506H251.163V380.564C251.163 381.685 251.27 382.507 251.485 383.032C251.724 383.557 252.201 383.819 252.916 383.819C253.632 383.819 254.252 383.462 254.777 382.746C255.325 382.03 255.683 381.053 255.85 379.812L256.458 379.884C256.267 381.53 255.743 382.841 254.884 383.819C254.025 384.773 252.606 385.25 250.626 385.25C248.647 385.25 247.132 384.857 246.083 384.07C245.033 383.283 244.508 381.852 244.508 379.776ZM265.387 376.485H266.424V373.73C266.424 371.464 266.293 369.949 266.031 369.186C265.792 368.399 265.315 368.006 264.6 368.006C264.17 368.006 263.777 368.125 263.419 368.363C263.085 368.578 262.918 368.888 262.918 369.294C262.918 369.675 262.99 370.069 263.133 370.474H264.027C264.218 370.975 264.313 371.583 264.313 372.299C264.313 372.991 264.015 373.599 263.419 374.124C262.823 374.624 262.071 374.875 261.165 374.875C259.114 374.875 258.088 373.885 258.088 371.905C258.088 368.972 260.58 367.505 265.566 367.505C268.404 367.505 270.36 367.994 271.433 368.972C272.53 369.926 273.079 371.691 273.079 374.267V381.53C273.079 382.77 273.425 383.39 274.116 383.39C274.927 383.39 275.404 382.162 275.548 379.705L276.084 379.741C275.989 381.84 275.595 383.283 274.904 384.07C274.212 384.857 273.079 385.25 271.505 385.25C268.642 385.25 266.997 384.368 266.567 382.603C266.257 383.509 265.792 384.177 265.172 384.606C264.552 385.036 263.645 385.25 262.453 385.25C258.923 385.25 257.158 383.807 257.158 380.921C257.158 379.228 257.826 378.071 259.161 377.451C260.521 376.807 262.596 376.485 265.387 376.485ZM263.956 380.886C263.956 382.126 264.015 382.925 264.134 383.283C264.278 383.64 264.528 383.819 264.886 383.819C265.267 383.819 265.613 383.521 265.923 382.925C266.257 382.305 266.424 381.458 266.424 380.385V377.057H266.174C264.695 377.057 263.956 378.143 263.956 380.313V380.886ZM281.695 365.394C280.431 365.394 279.525 365.072 278.976 364.428C278.451 363.784 278.189 362.985 278.189 362.031C278.189 361.077 278.475 360.289 279.048 359.669C279.644 359.049 280.538 358.739 281.731 358.739C282.924 358.739 283.83 359.025 284.45 359.598C285.07 360.146 285.38 360.945 285.38 361.995C285.38 363.021 285.082 363.843 284.486 364.464C283.89 365.084 282.959 365.394 281.695 365.394ZM276.293 367.862H285.058V384.249H287.062V384.893H276.436V384.249H278.404V368.506H276.293V367.862ZM295.079 373.873C295.079 369.27 296.104 365.716 298.155 363.211C300.231 360.707 303.069 359.455 306.671 359.455C309.127 359.455 311.012 359.956 312.323 360.957C313.635 361.935 314.291 363.223 314.291 364.821C314.291 365.728 313.993 366.515 313.397 367.183C312.824 367.827 312.061 368.149 311.107 368.149C310.153 368.149 309.39 367.898 308.817 367.397C308.245 366.873 307.959 366.264 307.959 365.573C307.959 364.857 308.054 364.237 308.245 363.712H309.39C309.533 363.331 309.604 362.901 309.604 362.424C309.604 360.922 308.758 360.17 307.064 360.17C305.371 360.17 304.13 361.053 303.343 362.818C302.556 364.559 302.151 367.576 302.127 371.87C303.367 369.938 305.168 368.972 307.529 368.972C309.891 368.972 311.751 369.616 313.111 370.904C314.47 372.168 315.15 374.076 315.15 376.628C315.15 379.18 314.255 381.255 312.467 382.853C310.678 384.451 308.281 385.25 305.275 385.25C298.477 385.25 295.079 381.458 295.079 373.873ZM305.705 370.152C304.894 370.152 304.202 370.462 303.629 371.082C303.081 371.679 302.699 372.394 302.485 373.229C302.294 374.04 302.198 375.113 302.198 376.449C302.198 377.761 302.198 378.679 302.198 379.204C302.222 379.705 302.258 380.313 302.306 381.029C302.377 381.72 302.473 382.233 302.592 382.567C302.711 382.877 302.878 383.211 303.093 383.569C303.474 384.189 304.083 384.499 304.917 384.499C305.752 384.499 306.372 384.344 306.778 384.034C307.207 383.7 307.517 383.151 307.708 382.388C307.994 381.267 308.137 379.872 308.137 378.202C308.137 376.533 308.125 375.423 308.102 374.875C308.102 374.326 308.078 373.754 308.03 373.158C307.982 372.537 307.899 372.072 307.78 371.762C307.684 371.452 307.553 371.154 307.386 370.868C307.076 370.391 306.515 370.152 305.705 370.152Z" fill="#181818"/>
<path d="M370.76 292.026H358.783V289.506L363.084 285.158C364.358 283.854 365.19 282.951 365.58 282.451C365.971 281.943 366.252 281.475 366.424 281.045C366.596 280.615 366.682 280.17 366.682 279.709C366.682 279.022 366.49 278.51 366.108 278.174C365.733 277.838 365.229 277.67 364.596 277.67C363.932 277.67 363.287 277.822 362.662 278.127C362.037 278.432 361.385 278.865 360.705 279.428L358.737 277.096C359.58 276.377 360.279 275.869 360.834 275.572C361.389 275.276 361.994 275.049 362.651 274.893C363.307 274.729 364.041 274.647 364.854 274.647C365.924 274.647 366.869 274.842 367.69 275.233C368.51 275.623 369.147 276.17 369.6 276.873C370.053 277.576 370.279 278.381 370.279 279.287C370.279 280.076 370.139 280.818 369.858 281.514C369.584 282.201 369.154 282.908 368.569 283.635C367.99 284.361 366.967 285.397 365.498 286.74L363.295 288.815V288.979H370.76V292.026ZM372.377 284.748C372.377 281.358 373.092 278.834 374.522 277.178C375.959 275.522 378.108 274.693 380.967 274.693C381.944 274.693 382.709 274.752 383.264 274.869V277.764C382.569 277.608 381.881 277.529 381.201 277.529C379.959 277.529 378.944 277.717 378.154 278.092C377.373 278.467 376.787 279.022 376.397 279.756C376.006 280.49 375.776 281.533 375.705 282.885H375.858C376.631 281.557 377.869 280.893 379.572 280.893C381.104 280.893 382.303 281.373 383.17 282.334C384.037 283.295 384.471 284.623 384.471 286.318C384.471 288.147 383.955 289.596 382.924 290.666C381.893 291.729 380.463 292.26 378.635 292.26C377.369 292.26 376.264 291.967 375.319 291.381C374.381 290.795 373.654 289.94 373.139 288.815C372.631 287.69 372.377 286.334 372.377 284.748ZM378.565 289.365C379.338 289.365 379.932 289.108 380.346 288.592C380.76 288.068 380.967 287.326 380.967 286.365C380.967 285.529 380.772 284.873 380.381 284.397C379.998 283.912 379.416 283.67 378.635 283.67C377.901 283.67 377.272 283.908 376.748 284.385C376.233 284.861 375.975 285.416 375.975 286.049C375.975 286.979 376.217 287.764 376.701 288.404C377.194 289.045 377.815 289.365 378.565 289.365ZM398.088 283.459C398.088 286.451 397.596 288.666 396.612 290.104C395.635 291.541 394.127 292.26 392.088 292.26C390.112 292.26 388.619 291.518 387.612 290.033C386.612 288.549 386.112 286.358 386.112 283.459C386.112 280.436 386.6 278.209 387.576 276.779C388.553 275.342 390.057 274.623 392.088 274.623C394.065 274.623 395.557 275.373 396.565 276.873C397.58 278.373 398.088 280.568 398.088 283.459ZM389.709 283.459C389.709 285.561 389.889 287.068 390.248 287.983C390.615 288.889 391.229 289.342 392.088 289.342C392.932 289.342 393.541 288.881 393.916 287.959C394.291 287.037 394.479 285.537 394.479 283.459C394.479 281.358 394.287 279.85 393.904 278.936C393.529 278.014 392.924 277.553 392.088 277.553C391.237 277.553 390.627 278.014 390.26 278.936C389.893 279.85 389.709 281.358 389.709 283.459ZM411.893 292.026H399.916V289.506L404.217 285.158C405.49 283.854 406.322 282.951 406.713 282.451C407.104 281.943 407.385 281.475 407.557 281.045C407.729 280.615 407.815 280.17 407.815 279.709C407.815 279.022 407.623 278.51 407.24 278.174C406.865 277.838 406.362 277.67 405.729 277.67C405.065 277.67 404.42 277.822 403.795 278.127C403.17 278.432 402.518 278.865 401.838 279.428L399.869 277.096C400.713 276.377 401.412 275.869 401.967 275.572C402.522 275.276 403.127 275.049 403.783 274.893C404.44 274.729 405.174 274.647 405.987 274.647C407.057 274.647 408.002 274.842 408.822 275.233C409.643 275.623 410.279 276.17 410.733 276.873C411.186 277.576 411.412 278.381 411.412 279.287C411.412 280.076 411.272 280.818 410.99 281.514C410.717 282.201 410.287 282.908 409.701 283.635C409.123 284.361 408.1 285.397 406.631 286.74L404.428 288.815V288.979H411.893V292.026Z" fill="#FBFBFB"/>
<path d="M370.76 156.071H358.783V153.551L363.084 149.203C364.358 147.899 365.19 146.996 365.58 146.496C365.971 145.989 366.252 145.52 366.424 145.09C366.596 144.661 366.682 144.215 366.682 143.754C366.682 143.067 366.49 142.555 366.108 142.219C365.733 141.883 365.229 141.715 364.596 141.715C363.932 141.715 363.287 141.868 362.662 142.172C362.037 142.477 361.385 142.911 360.705 143.473L358.736 141.141C359.58 140.422 360.279 139.914 360.834 139.618C361.389 139.321 361.994 139.094 362.65 138.938C363.307 138.774 364.041 138.692 364.854 138.692C365.924 138.692 366.869 138.887 367.69 139.278C368.51 139.668 369.147 140.215 369.6 140.918C370.053 141.621 370.279 142.426 370.279 143.332C370.279 144.121 370.139 144.864 369.858 145.559C369.584 146.246 369.154 146.953 368.568 147.68C367.99 148.407 366.967 149.442 365.498 150.786L363.295 152.86V153.024H370.76V156.071ZM372.377 148.793C372.377 145.403 373.092 142.879 374.522 141.223C375.959 139.567 378.108 138.739 380.967 138.739C381.943 138.739 382.709 138.797 383.264 138.914V141.809C382.568 141.653 381.881 141.575 381.201 141.575C379.959 141.575 378.943 141.762 378.154 142.137C377.373 142.512 376.787 143.067 376.397 143.801C376.006 144.536 375.775 145.578 375.705 146.93H375.858C376.631 145.602 377.869 144.938 379.572 144.938C381.104 144.938 382.303 145.418 383.17 146.379C384.037 147.34 384.471 148.668 384.471 150.364C384.471 152.192 383.955 153.641 382.924 154.711C381.893 155.774 380.463 156.305 378.635 156.305C377.369 156.305 376.264 156.012 375.318 155.426C374.381 154.84 373.654 153.985 373.139 152.86C372.631 151.735 372.377 150.379 372.377 148.793ZM378.565 153.411C379.338 153.411 379.932 153.153 380.346 152.637C380.76 152.114 380.967 151.371 380.967 150.411C380.967 149.575 380.772 148.918 380.381 148.442C379.998 147.957 379.416 147.715 378.635 147.715C377.9 147.715 377.272 147.953 376.748 148.43C376.233 148.907 375.975 149.461 375.975 150.094C375.975 151.024 376.217 151.809 376.701 152.45C377.193 153.09 377.815 153.411 378.565 153.411ZM398.088 147.504C398.088 150.496 397.596 152.711 396.611 154.149C395.635 155.586 394.127 156.305 392.088 156.305C390.111 156.305 388.619 155.563 387.611 154.078C386.611 152.594 386.111 150.403 386.111 147.504C386.111 144.481 386.6 142.254 387.576 140.825C388.553 139.387 390.057 138.668 392.088 138.668C394.065 138.668 395.557 139.418 396.565 140.918C397.58 142.418 398.088 144.614 398.088 147.504ZM389.709 147.504C389.709 149.606 389.889 151.114 390.248 152.028C390.615 152.934 391.229 153.387 392.088 153.387C392.932 153.387 393.541 152.926 393.916 152.004C394.291 151.082 394.479 149.582 394.479 147.504C394.479 145.403 394.287 143.895 393.904 142.981C393.529 142.059 392.924 141.598 392.088 141.598C391.236 141.598 390.627 142.059 390.26 142.981C389.893 143.895 389.709 145.403 389.709 147.504ZM412.279 152.52H410.217V156.071H406.678V152.52H399.365V150L406.877 138.938H410.217V149.707H412.279V152.52ZM406.678 149.707V146.801C406.678 146.317 406.697 145.614 406.736 144.692C406.775 143.77 406.807 143.235 406.83 143.086H406.736C406.447 143.727 406.1 144.352 405.693 144.961L402.553 149.707H406.678Z" fill="#FBFBFB"/>
</svg>
