<svg width="495" height="491" viewBox="0 0 495 491" fill="none" xmlns="http://www.w3.org/2000/svg">
<rect x="0.5" y="0.5" width="494" height="490" rx="9.5" stroke="#6699FF"/>
<rect x="7" y="24.0008" width="480.555" height="394.678" fill="#6699FF" stroke="#FDEFF7" stroke-width="4.44958"/>
<rect x="7" y="309.665" width="122.364" height="109.015" fill="#6699FF" stroke="#FDEFF7" stroke-width="4.44958"/>
<rect x="7" y="129.457" width="122.364" height="139.272" fill="#6699FF" stroke="#FDEFF7" stroke-width="4.44958"/>
<rect x="7" y="24.0008" width="480.555" height="105.455" fill="#6699FF" stroke="#FDEFF7" stroke-width="4.44958"/>
<rect x="348.729" y="129.457" width="139.272" height="145.501" fill="#6699FF" stroke="#FDEFF7" stroke-width="4.44958"/>
<rect x="282.873" y="315.45" width="204.681" height="103.23" fill="#6699FF" stroke="#FDEFF7" stroke-width="4.44958"/>
<path fill-rule="evenodd" clip-rule="evenodd" d="M195.055 386.627H197.279H279.92H282.145V388.852V416.244V418.468H279.92H197.279H195.055V416.244V388.852V386.627ZM199.504 391.076V414.019H201.573V391.076H199.504ZM208.013 414.019H205.237V391.076H208.013V414.019ZM204.792 391.076V414.019H202.018V391.076H204.792ZM211.677 414.019H214.452V391.076H211.677V414.019ZM211.232 414.019V391.076H208.457V414.019H211.232ZM220.891 414.019H218.116V391.076H220.891V414.019ZM217.671 391.076V414.019H214.897V391.076H217.671ZM224.556 414.019H227.331V391.076H224.556V414.019ZM224.111 414.019V391.076H221.336V414.019H224.111ZM233.77 414.019H230.995V391.076H233.77V414.019ZM230.55 391.076V414.019H227.776V391.076H230.55ZM237.435 414.019H240.21V391.076H237.435V414.019ZM236.99 414.019V391.076H234.215V414.019H236.99ZM246.649 414.019H243.874V391.076H246.649V414.019ZM243.429 391.076V414.019H240.655V391.076H243.429ZM250.314 414.019H253.088V391.076H250.314V414.019ZM249.869 414.019V391.076H247.094V414.019H249.869ZM259.528 414.019H256.754V391.076H259.528V414.019ZM256.309 391.076V414.019H253.533V391.076H256.309ZM263.192 414.019H265.967V391.076H263.192V414.019ZM262.747 414.019V391.076H259.973V414.019H262.747ZM272.407 414.019H269.632V391.076H272.407V414.019ZM269.188 391.076V414.019H266.412V391.076H269.188ZM276.072 414.019H277.695V391.076H276.072V414.019ZM275.627 414.019V391.076H272.852V414.019H275.627Z" fill="#FDEFF7"/>
<path fill-rule="evenodd" clip-rule="evenodd" d="M195.217 359.944H197.442H280.082H282.307V362.169V389.561V391.785H280.082H197.442H195.217V389.561V362.169V359.944ZM199.666 364.393V387.336H201.735V364.393H199.666ZM208.175 387.336H205.399V364.393H208.175V387.336ZM204.954 364.393V387.336H202.18V364.393H204.954ZM211.839 387.336H214.614V364.393H211.839V387.336ZM211.394 387.336V364.393H208.62V387.336H211.394ZM221.053 387.336H218.278V364.393H221.053V387.336ZM217.833 364.393V387.336H215.059V364.393H217.833ZM224.718 387.336H227.493V364.393H224.718V387.336ZM224.273 387.336V364.393H221.498V387.336H224.273ZM233.932 387.336H231.157V364.393H233.932V387.336ZM230.712 364.393V387.336H227.938V364.393H230.712ZM237.597 387.336H240.372V364.393H237.597V387.336ZM237.153 387.336V364.393H234.377V387.336H237.153ZM246.811 387.336H244.036V364.393H246.811V387.336ZM243.591 364.393V387.336H240.817V364.393H243.591ZM250.476 387.336H253.251V364.393H250.476V387.336ZM250.031 387.336V364.393H247.256V387.336H250.031ZM259.69 387.336H256.916V364.393H259.69V387.336ZM256.471 364.393V387.336H253.696V364.393H256.471ZM263.354 387.336H266.129V364.393H263.354V387.336ZM262.909 387.336V364.393H260.135V387.336H262.909ZM272.569 387.336H269.795V364.393H272.569V387.336ZM269.35 364.393V387.336H266.574V364.393H269.35ZM276.234 387.336H277.857V364.393H276.234V387.336ZM275.789 387.336V364.393H273.014V387.336H275.789Z" fill="#FDEFF7"/>
<path fill-rule="evenodd" clip-rule="evenodd" d="M197.443 315.448H179.199V374.628H197.443V362.614H213.46V315.448H197.443V315.448Z" fill="#6699FF"/>
<path d="M179.199 315.448V313.223H176.974V315.448H179.199ZM197.443 315.448H199.667V313.223H197.443V315.448ZM179.199 374.628H176.974V376.852H179.199V374.628ZM197.443 374.628V376.852H199.667V374.628H197.443ZM197.443 362.614V360.389H195.218V362.614H197.443ZM213.46 362.614V364.839H215.685V362.614H213.46ZM213.46 315.448H215.685V313.223H213.46V315.448ZM197.443 315.448H195.218V317.673H197.443V315.448ZM179.199 317.673H197.443V313.223H179.199V317.673ZM181.424 374.628V315.448H176.974V374.628H181.424ZM197.443 372.403H179.199V376.852H197.443V372.403ZM195.218 362.614V374.628H199.667V362.614H195.218ZM213.46 360.389H197.443V364.839H213.46V360.389ZM211.236 315.448V362.614H215.685V315.448H211.236ZM197.443 317.673H213.46V313.223H197.443V317.673ZM195.218 315.448V315.448H199.667V315.448H195.218Z" fill="#FDEFF7"/>
<rect x="197.441" y="330.132" width="84.5421" height="32.037" fill="#6699FF" stroke="#FDEFF7" stroke-width="4.44958"/>
<line x1="213.459" y1="330.133" x2="213.459" y2="363.06" stroke="#FDEFF7" stroke-width="4.44958"/>
<line x1="249.502" y1="331.024" x2="249.502" y2="363.951" stroke="#FDEFF7" stroke-width="4.44958"/>
<rect x="176.529" y="168.167" width="124.588" height="106.79" fill="#F2F2F2"/>
<rect x="348.729" y="274.958" width="137.047" height="40.4912" fill="#6699FF" stroke="#FDEFF7" stroke-width="4.44958"/>
<rect x="7" y="268.73" width="122.364" height="40.4912" fill="#6699FF" stroke="#FDEFF7" stroke-width="4.44958"/>
<path d="M39.4767 283.861L39.6368 287.881H39.3325C38.8626 286.461 38.4461 285.495 38.0831 284.982C37.72 284.459 37.1967 284.197 36.5132 284.197H36.321V294.737H37.6826V295.074H31.8358V294.737H33.1974V284.197H32.9892C32.3057 284.197 31.7771 284.47 31.4033 285.014C31.0296 285.548 30.6184 286.504 30.1699 287.881H29.8656L30.0257 283.861H39.4767ZM44.6033 291.918V290.557C44.6033 289.521 44.5446 288.768 44.4271 288.298C44.3203 287.817 44.064 287.577 43.6582 287.577C43.4233 287.577 43.2311 287.647 43.0816 287.785C42.9427 287.913 42.8413 288.132 42.7772 288.442C42.6811 288.923 42.6331 289.654 42.6331 290.637V291.886C42.6331 293.05 42.6651 293.75 42.7292 293.985C42.8039 294.219 42.8787 294.412 42.9534 294.561C43.0709 294.817 43.3005 294.946 43.6422 294.946C44.0587 294.946 44.331 294.705 44.4592 294.225C44.5553 293.883 44.6033 293.114 44.6033 291.918ZM43.6102 295.234C42.2753 295.234 41.2661 294.892 40.5827 294.209C39.8992 293.525 39.5575 292.548 39.5575 291.277C39.5575 289.996 39.9206 289.013 40.6468 288.33C41.3836 287.636 42.4141 287.289 43.7383 287.289C45.0625 287.289 46.0503 287.609 46.7018 288.25C47.3532 288.88 47.6789 289.846 47.6789 291.149C47.6789 293.872 46.3227 295.234 43.6102 295.234ZM50.4816 286.344C49.9156 286.344 49.5098 286.2 49.2642 285.911C49.0293 285.623 48.9118 285.265 48.9118 284.838C48.9118 284.411 49.04 284.058 49.2963 283.781C49.5632 283.503 49.9637 283.364 50.4976 283.364C51.0316 283.364 51.4374 283.492 51.715 283.749C51.9927 283.994 52.1315 284.352 52.1315 284.822C52.1315 285.281 51.998 285.65 51.7311 285.927C51.4641 286.205 51.0476 286.344 50.4816 286.344ZM48.0628 287.449H51.9874V294.785H52.8844V295.074H48.1269V294.785H49.0079V287.737H48.0628V287.449ZM53.1468 283.06H57.0714V294.785H57.9684V295.074H53.2109V294.785H54.0919V283.348H53.1468V283.06ZM62.4921 295.234C61.1145 295.234 60.0787 294.882 59.3845 294.177C58.7011 293.461 58.3593 292.473 58.3593 291.213C58.3593 289.943 58.7438 288.971 59.5127 288.298C60.2922 287.625 61.2801 287.289 62.4761 287.289C64.9002 287.289 66.0642 288.506 65.9681 290.941H61.4509V291.566C61.4509 292.612 61.5844 293.402 61.8514 293.936C62.1184 294.47 62.5829 294.737 63.245 294.737C64.4838 294.737 65.2954 294.075 65.6798 292.751L65.9681 292.799C65.7652 293.568 65.3968 294.166 64.8629 294.593C64.3396 295.02 63.5493 295.234 62.4921 295.234ZM61.4669 290.621H63.1168V289.836C63.1168 288.971 63.0634 288.383 62.9567 288.074C62.8605 287.753 62.6576 287.593 62.348 287.593C62.0489 287.593 61.8247 287.764 61.6752 288.106C61.5363 288.437 61.4669 289.013 61.4669 289.836V290.621ZM67.3397 292.783V287.737H66.4587V287.449H67.3397V285.383L70.3192 284.646V287.449H72.4016V287.737H70.3192V293.136C70.3192 293.637 70.3672 294.006 70.4633 294.241C70.5701 294.476 70.7837 294.593 71.1041 294.593C71.4244 294.593 71.7021 294.433 71.937 294.113C72.1826 293.792 72.3428 293.354 72.4176 292.799L72.6899 292.831C72.6045 293.568 72.3695 294.155 71.9851 294.593C71.6006 295.02 70.9652 295.234 70.0789 295.234C69.1925 295.234 68.5144 295.058 68.0445 294.705C67.5747 294.353 67.3397 293.712 67.3397 292.783ZM75.8014 283.861H80.5108C82.1233 283.861 83.3247 284.096 84.115 284.566C84.9052 285.025 85.3003 285.852 85.3003 287.048C85.3003 288.373 84.8198 289.286 83.8587 289.788C82.9616 290.247 81.7069 290.476 80.0943 290.476H79.9662V294.769H81.9685V295.074H75.8014V294.769H76.8426V284.165H75.8014V283.861ZM79.9662 284.165V290.172H80.3026C80.9433 290.172 81.3865 289.953 81.6321 289.515C81.8777 289.078 82.0005 288.367 82.0005 287.385V286.616C82.0005 285.708 81.8831 285.073 81.6481 284.71C81.4239 284.347 81.0074 284.165 80.3987 284.165H79.9662ZM91.2238 287.897C90.8287 287.897 90.4816 288.154 90.1826 288.666C89.8836 289.179 89.7341 289.788 89.7341 290.492V294.785H90.8714V295.074H85.8736V294.785H86.7546V287.737H85.8736V287.449H89.7341V288.987C89.8729 288.442 90.1399 288.026 90.535 287.737C90.9301 287.438 91.3787 287.289 91.8806 287.289C92.3825 287.289 92.7883 287.433 93.098 287.721C93.4183 287.999 93.5785 288.399 93.5785 288.923C93.5785 289.435 93.4611 289.83 93.2261 290.108C92.9912 290.386 92.6281 290.525 92.1369 290.525C91.6563 290.525 91.2986 290.364 91.0636 290.044C90.8394 289.724 90.8127 289.28 90.9835 288.714H91.5602C91.8272 288.17 91.715 287.897 91.2238 287.897ZM96.1594 286.344C95.5934 286.344 95.1876 286.2 94.942 285.911C94.707 285.623 94.5896 285.265 94.5896 284.838C94.5896 284.411 94.7177 284.058 94.974 283.781C95.241 283.503 95.6415 283.364 96.1754 283.364C96.7094 283.364 97.1152 283.492 97.3928 283.749C97.6705 283.994 97.8093 284.352 97.8093 284.822C97.8093 285.281 97.6758 285.65 97.4088 285.927C97.1419 286.205 96.7254 286.344 96.1594 286.344ZM93.7406 287.449H97.6651V294.785H98.5622V295.074H93.8047V294.785H94.6857V287.737H93.7406V287.449ZM102.733 291.309H103.198V290.076C103.198 289.061 103.139 288.383 103.021 288.042C102.915 287.689 102.701 287.513 102.381 287.513C102.188 287.513 102.012 287.566 101.852 287.673C101.703 287.769 101.628 287.908 101.628 288.09C101.628 288.261 101.66 288.437 101.724 288.618H102.124C102.21 288.843 102.253 289.115 102.253 289.435C102.253 289.745 102.119 290.017 101.852 290.252C101.585 290.476 101.249 290.589 100.843 290.589C99.9245 290.589 99.4653 290.145 99.4653 289.259C99.4653 287.946 100.581 287.289 102.813 287.289C104.084 287.289 104.96 287.508 105.44 287.946C105.931 288.373 106.177 289.163 106.177 290.316V293.568C106.177 294.123 106.332 294.401 106.642 294.401C107.005 294.401 107.218 293.851 107.282 292.751L107.523 292.767C107.48 293.707 107.304 294.353 106.994 294.705C106.684 295.058 106.177 295.234 105.472 295.234C104.191 295.234 103.454 294.839 103.262 294.049C103.123 294.454 102.915 294.753 102.637 294.946C102.359 295.138 101.954 295.234 101.42 295.234C99.8391 295.234 99.0488 294.588 99.0488 293.296C99.0488 292.537 99.3479 292.02 99.9459 291.742C100.555 291.454 101.484 291.309 102.733 291.309ZM102.092 293.28C102.092 293.835 102.119 294.193 102.172 294.353C102.237 294.513 102.349 294.593 102.509 294.593C102.68 294.593 102.835 294.46 102.973 294.193C103.123 293.915 103.198 293.536 103.198 293.055V291.566H103.086C102.423 291.566 102.092 292.052 102.092 293.023V293.28Z" fill="#FBFBFB"/>
<path d="M378.588 290.09L378.748 294.11H378.444C377.974 292.69 377.558 291.723 377.195 291.211C376.832 290.688 376.308 290.426 375.625 290.426H375.433V300.966H376.794V301.302H370.947V300.966H372.309V290.426H372.101C371.417 290.426 370.889 290.698 370.515 291.243C370.141 291.777 369.73 292.733 369.282 294.11H368.977L369.137 290.09H378.588ZM383.715 298.147V296.785C383.715 295.749 383.656 294.997 383.539 294.527C383.432 294.046 383.176 293.806 382.77 293.806C382.535 293.806 382.343 293.875 382.193 294.014C382.054 294.142 381.953 294.361 381.889 294.671C381.793 295.151 381.745 295.883 381.745 296.865V298.115C381.745 299.279 381.777 299.978 381.841 300.213C381.916 300.448 381.99 300.64 382.065 300.79C382.182 301.046 382.412 301.174 382.754 301.174C383.17 301.174 383.443 300.934 383.571 300.454C383.667 300.112 383.715 299.343 383.715 298.147ZM382.722 301.463C381.387 301.463 380.378 301.121 379.694 300.437C379.011 299.754 378.669 298.777 378.669 297.506C378.669 296.225 379.032 295.242 379.758 294.559C380.495 293.865 381.526 293.517 382.85 293.517C384.174 293.517 385.162 293.838 385.813 294.479C386.465 295.109 386.79 296.075 386.79 297.378C386.79 300.101 385.434 301.463 382.722 301.463ZM389.593 292.572C389.027 292.572 388.621 292.428 388.376 292.14C388.141 291.852 388.023 291.494 388.023 291.067C388.023 290.64 388.152 290.287 388.408 290.009C388.675 289.732 389.075 289.593 389.609 289.593C390.143 289.593 390.549 289.721 390.827 289.977C391.104 290.223 391.243 290.581 391.243 291.051C391.243 291.51 391.11 291.878 390.843 292.156C390.576 292.434 390.159 292.572 389.593 292.572ZM387.174 293.678H391.099V301.014H391.996V301.302H387.239V301.014H388.12V293.966H387.174V293.678ZM392.258 289.289H396.183V301.014H397.08V301.302H392.323V301.014H393.204V289.577H392.258V289.289ZM401.604 301.463C400.226 301.463 399.19 301.11 398.496 300.405C397.813 299.69 397.471 298.702 397.471 297.442C397.471 296.171 397.855 295.199 398.624 294.527C399.404 293.854 400.392 293.517 401.588 293.517C404.012 293.517 405.176 294.735 405.08 297.17H400.563V297.794C400.563 298.841 400.696 299.631 400.963 300.165C401.23 300.699 401.694 300.966 402.357 300.966C403.595 300.966 404.407 300.304 404.791 298.98L405.08 299.028C404.877 299.797 404.508 300.395 403.974 300.822C403.451 301.249 402.661 301.463 401.604 301.463ZM400.579 296.849H402.228V296.064C402.228 295.199 402.175 294.612 402.068 294.302C401.972 293.982 401.769 293.822 401.46 293.822C401.161 293.822 400.936 293.993 400.787 294.334C400.648 294.665 400.579 295.242 400.579 296.064V296.849ZM406.451 299.012V293.966H405.57V293.678H406.451V291.611L409.431 290.874V293.678H411.513V293.966H409.431V299.364C409.431 299.866 409.479 300.235 409.575 300.47C409.682 300.704 409.895 300.822 410.216 300.822C410.536 300.822 410.814 300.662 411.049 300.341C411.294 300.021 411.454 299.583 411.529 299.028L411.802 299.06C411.716 299.797 411.481 300.384 411.097 300.822C410.712 301.249 410.077 301.463 409.19 301.463C408.304 301.463 407.626 301.286 407.156 300.934C406.686 300.582 406.451 299.941 406.451 299.012ZM421.465 298.067L422.794 293.453L421.833 290.394H420.92V290.09H425.886V290.394H424.941L427.327 297.971L429.25 290.394H427.632V290.09H430.835V290.394H429.778L426.831 301.463H425.405L423.034 294.222L420.952 301.463H419.558L415.522 290.394H414.769V290.09H419.975V290.394H418.854L421.465 298.067ZM433.491 297.538H433.956V296.305C433.956 295.29 433.897 294.612 433.78 294.27C433.673 293.918 433.459 293.742 433.139 293.742C432.947 293.742 432.77 293.795 432.61 293.902C432.461 293.998 432.386 294.137 432.386 294.318C432.386 294.489 432.418 294.665 432.482 294.847H432.883C432.968 295.071 433.011 295.344 433.011 295.664C433.011 295.974 432.877 296.246 432.61 296.481C432.343 296.705 432.007 296.817 431.601 296.817C430.683 296.817 430.224 296.374 430.224 295.488C430.224 294.174 431.339 293.517 433.571 293.517C434.842 293.517 435.718 293.736 436.198 294.174C436.69 294.601 436.935 295.392 436.935 296.545V299.797C436.935 300.352 437.09 300.63 437.4 300.63C437.763 300.63 437.976 300.08 438.041 298.98L438.281 298.996C438.238 299.936 438.062 300.582 437.752 300.934C437.443 301.286 436.935 301.463 436.23 301.463C434.949 301.463 434.212 301.068 434.02 300.277C433.881 300.683 433.673 300.982 433.395 301.174C433.118 301.367 432.712 301.463 432.178 301.463C430.597 301.463 429.807 300.817 429.807 299.524C429.807 298.766 430.106 298.248 430.704 297.971C431.313 297.682 432.242 297.538 433.491 297.538ZM432.851 299.508C432.851 300.064 432.877 300.421 432.931 300.582C432.995 300.742 433.107 300.822 433.267 300.822C433.438 300.822 433.593 300.688 433.732 300.421C433.881 300.144 433.956 299.765 433.956 299.284V297.794H433.844C433.182 297.794 432.851 298.28 432.851 299.252V299.508ZM438.47 293.678H442.331V295.151C442.502 294.66 442.763 294.265 443.116 293.966C443.468 293.667 444.002 293.517 444.718 293.517C446.373 293.517 447.2 294.409 447.2 296.193V301.014H448.097V301.302H443.564V301.014H444.221V295.808C444.221 295.167 444.178 294.756 444.093 294.575C444.007 294.382 443.853 294.286 443.628 294.286C443.287 294.286 442.982 294.511 442.715 294.959C442.459 295.408 442.331 295.952 442.331 296.593V301.014H443.02V301.302H438.47V301.014H439.351V293.966H438.47V293.678ZM450.664 292.572C450.098 292.572 449.692 292.428 449.446 292.14C449.211 291.852 449.094 291.494 449.094 291.067C449.094 290.64 449.222 290.287 449.478 290.009C449.745 289.732 450.146 289.593 450.68 289.593C451.214 289.593 451.62 289.721 451.897 289.977C452.175 290.223 452.314 290.581 452.314 291.051C452.314 291.51 452.18 291.878 451.913 292.156C451.646 292.434 451.23 292.572 450.664 292.572ZM448.245 293.678H452.17V301.014H453.067V301.302H448.309V301.014H449.19V293.966H448.245V293.678ZM454.194 299.012V293.966H453.313V293.678H454.194V291.611L457.173 290.874V293.678H459.256V293.966H457.173V299.364C457.173 299.866 457.221 300.235 457.318 300.47C457.424 300.704 457.638 300.822 457.958 300.822C458.279 300.822 458.556 300.662 458.791 300.341C459.037 300.021 459.197 299.583 459.272 299.028L459.544 299.06C459.459 299.797 459.224 300.384 458.839 300.822C458.455 301.249 457.819 301.463 456.933 301.463C456.047 301.463 455.369 301.286 454.899 300.934C454.429 300.582 454.194 299.941 454.194 299.012ZM463.542 297.538H464.006V296.305C464.006 295.29 463.947 294.612 463.83 294.27C463.723 293.918 463.51 293.742 463.189 293.742C462.997 293.742 462.821 293.795 462.661 293.902C462.511 293.998 462.436 294.137 462.436 294.318C462.436 294.489 462.468 294.665 462.532 294.847H462.933C463.018 295.071 463.061 295.344 463.061 295.664C463.061 295.974 462.928 296.246 462.661 296.481C462.394 296.705 462.057 296.817 461.651 296.817C460.733 296.817 460.274 296.374 460.274 295.488C460.274 294.174 461.39 293.517 463.622 293.517C464.893 293.517 465.768 293.736 466.249 294.174C466.74 294.601 466.986 295.392 466.986 296.545V299.797C466.986 300.352 467.14 300.63 467.45 300.63C467.813 300.63 468.027 300.08 468.091 298.98L468.331 298.996C468.288 299.936 468.112 300.582 467.803 300.934C467.493 301.286 466.986 301.463 466.281 301.463C464.999 301.463 464.262 301.068 464.07 300.277C463.931 300.683 463.723 300.982 463.446 301.174C463.168 301.367 462.762 301.463 462.228 301.463C460.648 301.463 459.857 300.817 459.857 299.524C459.857 298.766 460.156 298.248 460.754 297.971C461.363 297.682 462.292 297.538 463.542 297.538ZM462.901 299.508C462.901 300.064 462.928 300.421 462.981 300.582C463.045 300.742 463.157 300.822 463.317 300.822C463.488 300.822 463.643 300.688 463.782 300.421C463.931 300.144 464.006 299.765 464.006 299.284V297.794H463.894C463.232 297.794 462.901 298.28 462.901 299.252V299.508Z" fill="#FBFBFB"/>
<path d="M53.9212 373.592H41.9447V371.072L46.2455 366.725C47.5189 365.42 48.3509 364.518 48.7416 364.018C49.1322 363.51 49.4134 363.041 49.5853 362.611C49.7572 362.182 49.8431 361.736 49.8431 361.275C49.8431 360.588 49.6517 360.076 49.2689 359.74C48.8939 359.404 48.39 359.236 47.7572 359.236C47.0931 359.236 46.4486 359.389 45.8236 359.693C45.1986 359.998 44.5462 360.432 43.8666 360.994L41.8978 358.662C42.7416 357.943 43.4408 357.436 43.9955 357.139C44.5501 356.842 45.1556 356.615 45.8119 356.459C46.4681 356.295 47.2025 356.213 48.015 356.213C49.0853 356.213 50.0306 356.408 50.8509 356.799C51.6712 357.189 52.308 357.736 52.7611 358.439C53.2142 359.143 53.4408 359.947 53.4408 360.854C53.4408 361.643 53.3001 362.385 53.0189 363.08C52.7455 363.768 52.3158 364.475 51.7298 365.201C51.1517 365.928 50.1283 366.963 48.6595 368.307L46.4564 370.381V370.545H53.9212V373.592ZM61.89 362.646C63.5462 362.646 64.8626 363.111 65.8392 364.041C66.8236 364.971 67.3158 366.244 67.3158 367.861C67.3158 369.775 66.7259 371.248 65.5462 372.279C64.3666 373.311 62.6791 373.826 60.4837 373.826C58.5775 373.826 57.0384 373.518 55.8666 372.9V369.771C56.4837 370.1 57.2025 370.369 58.0228 370.58C58.8431 370.783 59.6205 370.885 60.3548 370.885C62.5658 370.885 63.6712 369.979 63.6712 368.166C63.6712 366.439 62.5267 365.576 60.2376 365.576C59.8236 365.576 59.3666 365.619 58.8666 365.705C58.3666 365.783 57.9603 365.869 57.6478 365.963L56.2064 365.189L56.8509 356.459H66.1439V359.529H60.0267L59.7103 362.893L60.1205 362.811C60.597 362.701 61.1869 362.646 61.89 362.646ZM81.2494 365.025C81.2494 368.018 80.7572 370.232 79.7728 371.67C78.7962 373.107 77.2884 373.826 75.2494 373.826C73.2728 373.826 71.7806 373.084 70.7728 371.6C69.7728 370.115 69.2728 367.924 69.2728 365.025C69.2728 362.002 69.7611 359.775 70.7376 358.346C71.7142 356.908 73.2181 356.189 75.2494 356.189C77.2259 356.189 78.7181 356.939 79.7259 358.439C80.7416 359.939 81.2494 362.135 81.2494 365.025ZM72.8705 365.025C72.8705 367.127 73.0501 368.635 73.4095 369.549C73.7767 370.455 74.39 370.908 75.2494 370.908C76.0931 370.908 76.7025 370.447 77.0775 369.525C77.4525 368.604 77.64 367.104 77.64 365.025C77.64 362.924 77.4486 361.416 77.0658 360.502C76.6908 359.58 76.0853 359.119 75.2494 359.119C74.3978 359.119 73.7884 359.58 73.4212 360.502C73.0541 361.416 72.8705 362.924 72.8705 365.025ZM92.0306 373.592H88.4095V363.678L88.4447 362.049L88.5033 360.268C87.9017 360.869 87.4837 361.264 87.2494 361.451L85.2806 363.033L83.5345 360.854L89.0541 356.459H92.0306V373.592Z" fill="#FBFBFB"/>
<path d="M53.697 208.511H41.7204V205.992L46.0212 201.644C47.2946 200.339 48.1267 199.437 48.5173 198.937C48.9079 198.429 49.1892 197.961 49.3611 197.531C49.5329 197.101 49.6189 196.656 49.6189 196.195C49.6189 195.507 49.4275 194.996 49.0446 194.66C48.6696 194.324 48.1657 194.156 47.5329 194.156C46.8689 194.156 46.2243 194.308 45.5993 194.613C44.9743 194.918 44.322 195.351 43.6423 195.914L41.6736 193.582C42.5173 192.863 43.2165 192.355 43.7712 192.058C44.3259 191.761 44.9314 191.535 45.5876 191.379C46.2439 191.214 46.9782 191.132 47.7907 191.132C48.8611 191.132 49.8064 191.328 50.6267 191.718C51.447 192.109 52.0837 192.656 52.5368 193.359C52.99 194.062 53.2165 194.867 53.2165 195.773C53.2165 196.562 53.0759 197.304 52.7946 198C52.5212 198.687 52.0915 199.394 51.5056 200.121C50.9275 200.847 49.904 201.882 48.4353 203.226L46.2321 205.3V205.464H53.697V208.511ZM61.6657 197.566C63.322 197.566 64.6384 198.031 65.615 198.961C66.5993 199.89 67.0915 201.164 67.0915 202.781C67.0915 204.695 66.5017 206.168 65.322 207.199C64.1423 208.23 62.4548 208.746 60.2595 208.746C58.3532 208.746 56.8142 208.437 55.6423 207.82V204.691C56.2595 205.019 56.9782 205.289 57.7986 205.5C58.6189 205.703 59.3962 205.804 60.1306 205.804C62.3415 205.804 63.447 204.898 63.447 203.086C63.447 201.359 62.3025 200.496 60.0134 200.496C59.5993 200.496 59.1423 200.539 58.6423 200.625C58.1423 200.703 57.7361 200.789 57.4236 200.882L55.9821 200.109L56.6267 191.379H65.9196V194.449H59.8025L59.4861 197.812L59.8962 197.73C60.3728 197.621 60.9626 197.566 61.6657 197.566ZM81.0251 199.945C81.0251 202.937 80.5329 205.152 79.5486 206.589C78.572 208.027 77.0642 208.746 75.0251 208.746C73.0486 208.746 71.5564 208.004 70.5486 206.519C69.5486 205.035 69.0486 202.843 69.0486 199.945C69.0486 196.921 69.5368 194.695 70.5134 193.265C71.49 191.828 72.9939 191.109 75.0251 191.109C77.0017 191.109 78.4939 191.859 79.5017 193.359C80.5173 194.859 81.0251 197.054 81.0251 199.945ZM72.6462 199.945C72.6462 202.046 72.8259 203.554 73.1853 204.468C73.5525 205.375 74.1657 205.828 75.0251 205.828C75.8689 205.828 76.4782 205.367 76.8532 204.445C77.2282 203.523 77.4157 202.023 77.4157 199.945C77.4157 197.843 77.2243 196.336 76.8415 195.421C76.4665 194.5 75.8611 194.039 75.0251 194.039C74.1736 194.039 73.5642 194.5 73.197 195.421C72.8298 196.336 72.6462 197.843 72.6462 199.945ZM94.8298 208.511H82.8532V205.992L87.154 201.644C88.4275 200.339 89.2595 199.437 89.6501 198.937C90.0407 198.429 90.322 197.961 90.4939 197.531C90.6657 197.101 90.7517 196.656 90.7517 196.195C90.7517 195.507 90.5603 194.996 90.1775 194.66C89.8025 194.324 89.2986 194.156 88.6657 194.156C88.0017 194.156 87.3571 194.308 86.7321 194.613C86.1071 194.918 85.4548 195.351 84.7751 195.914L82.8064 193.582C83.6501 192.863 84.3493 192.355 84.904 192.058C85.4587 191.761 86.0642 191.535 86.7204 191.379C87.3767 191.214 88.1111 191.132 88.9236 191.132C89.9939 191.132 90.9392 191.328 91.7595 191.718C92.5798 192.109 93.2165 192.656 93.6696 193.359C94.1228 194.062 94.3493 194.867 94.3493 195.773C94.3493 196.562 94.2087 197.304 93.9275 198C93.654 198.687 93.2243 199.394 92.6384 200.121C92.0603 200.847 91.0368 201.882 89.5681 203.226L87.365 205.3V205.464H94.8298V208.511Z" fill="#FBFBFB"/>
<path d="M403.658 211.627H391.681V209.107L395.982 204.759C397.255 203.455 398.087 202.552 398.478 202.052C398.869 201.545 399.15 201.076 399.322 200.646C399.494 200.217 399.58 199.771 399.58 199.31C399.58 198.623 399.388 198.111 399.005 197.775C398.63 197.439 398.127 197.271 397.494 197.271C396.83 197.271 396.185 197.424 395.56 197.728C394.935 198.033 394.283 198.467 393.603 199.029L391.634 196.697C392.478 195.978 393.177 195.47 393.732 195.174C394.287 194.877 394.892 194.65 395.548 194.494C396.205 194.33 396.939 194.248 397.752 194.248C398.822 194.248 399.767 194.443 400.587 194.834C401.408 195.224 402.044 195.771 402.498 196.474C402.951 197.177 403.177 197.982 403.177 198.888C403.177 199.677 403.037 200.42 402.755 201.115C402.482 201.802 402.052 202.509 401.466 203.236C400.888 203.963 399.865 204.998 398.396 206.342L396.193 208.416V208.58H403.658V211.627ZM411.627 200.681C413.283 200.681 414.599 201.146 415.576 202.076C416.56 203.006 417.052 204.279 417.052 205.896C417.052 207.81 416.462 209.283 415.283 210.314C414.103 211.345 412.416 211.861 410.22 211.861C408.314 211.861 406.775 211.552 405.603 210.935V207.806C406.22 208.134 406.939 208.404 407.759 208.615C408.58 208.818 409.357 208.92 410.091 208.92C412.302 208.92 413.408 208.013 413.408 206.201C413.408 204.474 412.263 203.611 409.974 203.611C409.56 203.611 409.103 203.654 408.603 203.74C408.103 203.818 407.697 203.904 407.384 203.998L405.943 203.224L406.587 194.494H415.88V197.564H409.763L409.447 200.927L409.857 200.845C410.334 200.736 410.923 200.681 411.627 200.681ZM430.986 203.06C430.986 206.052 430.494 208.267 429.509 209.705C428.533 211.142 427.025 211.861 424.986 211.861C423.009 211.861 421.517 211.119 420.509 209.634C419.509 208.15 419.009 205.959 419.009 203.06C419.009 200.037 419.498 197.81 420.474 196.381C421.451 194.943 422.955 194.224 424.986 194.224C426.962 194.224 428.455 194.974 429.462 196.474C430.478 197.974 430.986 200.17 430.986 203.06ZM422.607 203.06C422.607 205.162 422.787 206.67 423.146 207.584C423.513 208.49 424.127 208.943 424.986 208.943C425.83 208.943 426.439 208.482 426.814 207.56C427.189 206.638 427.377 205.138 427.377 203.06C427.377 200.959 427.185 199.451 426.802 198.537C426.427 197.615 425.822 197.154 424.986 197.154C424.134 197.154 423.525 197.615 423.158 198.537C422.791 199.451 422.607 200.959 422.607 203.06ZM444.123 198.326C444.123 199.396 443.798 200.306 443.15 201.056C442.502 201.806 441.591 202.322 440.419 202.603V202.674C441.802 202.845 442.849 203.267 443.56 203.939C444.271 204.603 444.627 205.502 444.627 206.634C444.627 208.283 444.029 209.568 442.834 210.49C441.638 211.404 439.931 211.861 437.712 211.861C435.853 211.861 434.205 211.552 432.767 210.935V207.853C433.431 208.189 434.162 208.463 434.959 208.674C435.755 208.884 436.544 208.99 437.326 208.99C438.521 208.99 439.404 208.787 439.974 208.381C440.544 207.974 440.83 207.322 440.83 206.424C440.83 205.619 440.502 205.049 439.845 204.713C439.189 204.377 438.142 204.209 436.705 204.209H435.404V201.431H436.728C438.056 201.431 439.025 201.259 439.634 200.916C440.252 200.564 440.56 199.967 440.56 199.123C440.56 197.826 439.748 197.177 438.123 197.177C437.56 197.177 436.986 197.271 436.4 197.459C435.822 197.646 435.177 197.97 434.466 198.431L432.791 195.935C434.353 194.81 436.216 194.248 438.38 194.248C440.154 194.248 441.552 194.607 442.576 195.326C443.607 196.045 444.123 197.045 444.123 198.326Z" fill="#FBFBFB"/>
<path d="M370.73 372.258H358.753V369.738L363.054 365.391C364.327 364.086 365.159 363.184 365.55 362.684C365.941 362.176 366.222 361.707 366.394 361.277C366.566 360.848 366.652 360.402 366.652 359.941C366.652 359.254 366.46 358.742 366.077 358.406C365.702 358.07 365.198 357.902 364.566 357.902C363.902 357.902 363.257 358.055 362.632 358.359C362.007 358.664 361.355 359.098 360.675 359.66L358.706 357.328C359.55 356.609 360.249 356.102 360.804 355.805C361.359 355.508 361.964 355.281 362.62 355.125C363.277 354.961 364.011 354.879 364.823 354.879C365.894 354.879 366.839 355.074 367.659 355.465C368.48 355.855 369.116 356.402 369.57 357.105C370.023 357.809 370.249 358.613 370.249 359.52C370.249 360.309 370.109 361.051 369.827 361.746C369.554 362.434 369.124 363.141 368.538 363.867C367.96 364.594 366.937 365.629 365.468 366.973L363.265 369.047V369.211H370.73V372.258ZM378.698 361.312C380.355 361.312 381.671 361.777 382.648 362.707C383.632 363.637 384.124 364.91 384.124 366.527C384.124 368.441 383.534 369.914 382.355 370.945C381.175 371.977 379.487 372.492 377.292 372.492C375.386 372.492 373.847 372.184 372.675 371.566V368.438C373.292 368.766 374.011 369.035 374.831 369.246C375.652 369.449 376.429 369.551 377.163 369.551C379.374 369.551 380.48 368.645 380.48 366.832C380.48 365.105 379.335 364.242 377.046 364.242C376.632 364.242 376.175 364.285 375.675 364.371C375.175 364.449 374.769 364.535 374.456 364.629L373.015 363.855L373.659 355.125H382.952V358.195H376.835L376.519 361.559L376.929 361.477C377.405 361.367 377.995 361.312 378.698 361.312ZM398.058 363.691C398.058 366.684 397.566 368.898 396.581 370.336C395.605 371.773 394.097 372.492 392.058 372.492C390.081 372.492 388.589 371.75 387.581 370.266C386.581 368.781 386.081 366.59 386.081 363.691C386.081 360.668 386.57 358.441 387.546 357.012C388.523 355.574 390.027 354.855 392.058 354.855C394.034 354.855 395.527 355.605 396.534 357.105C397.55 358.605 398.058 360.801 398.058 363.691ZM389.679 363.691C389.679 365.793 389.859 367.301 390.218 368.215C390.585 369.121 391.198 369.574 392.058 369.574C392.902 369.574 393.511 369.113 393.886 368.191C394.261 367.27 394.448 365.77 394.448 363.691C394.448 361.59 394.257 360.082 393.874 359.168C393.499 358.246 392.894 357.785 392.058 357.785C391.206 357.785 390.597 358.246 390.23 359.168C389.862 360.082 389.679 361.59 389.679 363.691ZM412.249 368.707H410.187V372.258H406.648V368.707H399.335V366.188L406.847 355.125H410.187V365.895H412.249V368.707ZM406.648 365.895V362.988C406.648 362.504 406.667 361.801 406.706 360.879C406.745 359.957 406.777 359.422 406.8 359.273H406.706C406.417 359.914 406.07 360.539 405.663 361.148L402.523 365.895H406.648Z" fill="#FBFBFB"/>
<path d="M195.215 66.7234H204.794C207.763 66.7234 209.984 67.1292 211.457 67.9408C212.953 68.731 213.7 70.0766 213.7 71.9775C213.7 74.9035 211.938 76.6549 208.414 77.2315V77.2956C212.686 77.8296 214.821 79.6877 214.821 82.87C214.821 85.1981 213.946 86.8319 212.194 87.7717C210.443 88.6901 207.923 89.1493 204.634 89.1493H195.215V88.5406H197.297V67.3321H195.215V66.7234ZM203.544 77.8082V88.5406H205.05C206.225 88.5406 207.047 88.1348 207.517 87.3232C207.987 86.5116 208.222 85.3155 208.222 83.735V82.0371C208.222 80.6274 207.933 79.5702 207.357 78.8654C206.78 78.1606 205.755 77.8082 204.281 77.8082H203.544ZM203.544 67.3321V77.1995H204.377C205.488 77.1995 206.257 76.8684 206.684 76.2063C207.132 75.5229 207.357 74.487 207.357 73.0988V71.593C207.357 70.0125 207.164 68.9126 206.78 68.2932C206.396 67.6525 205.659 67.3321 204.569 67.3321H203.544ZM223.669 81.6206H224.598V79.1537C224.598 77.1247 224.481 75.7685 224.246 75.085C224.032 74.3802 223.605 74.0278 222.964 74.0278C222.58 74.0278 222.228 74.1346 221.907 74.3482C221.608 74.5404 221.459 74.8181 221.459 75.1812C221.459 75.5229 221.523 75.8753 221.651 76.2384H222.452C222.623 76.6869 222.708 77.2315 222.708 77.8723C222.708 78.4916 222.441 79.0363 221.907 79.5062C221.373 79.9547 220.701 80.1789 219.889 80.1789C218.052 80.1789 217.134 79.2926 217.134 77.5199C217.134 74.8928 219.366 73.5793 223.829 73.5793C226.371 73.5793 228.122 74.0171 229.084 74.8928C230.066 75.7471 230.557 77.3276 230.557 79.6343V86.1378C230.557 87.2484 230.867 87.8037 231.486 87.8037C232.213 87.8037 232.64 86.7038 232.768 84.5039L233.248 84.536C233.163 86.4155 232.811 87.7076 232.191 88.4124C231.572 89.1173 230.557 89.4697 229.148 89.4697C226.585 89.4697 225.111 88.6794 224.727 87.0989C224.449 87.9105 224.032 88.5086 223.477 88.893C222.922 89.2774 222.11 89.4697 221.042 89.4697C217.881 89.4697 216.301 88.1775 216.301 85.5932C216.301 84.0768 216.899 83.0409 218.095 82.4856C219.312 81.9089 221.17 81.6206 223.669 81.6206ZM222.388 85.5611C222.388 86.6718 222.441 87.3873 222.548 87.7076C222.676 88.028 222.9 88.1882 223.221 88.1882C223.563 88.1882 223.872 87.9212 224.15 87.3873C224.449 86.8319 224.598 86.0737 224.598 85.1126V82.1332H224.374C223.05 82.1332 222.388 83.105 222.388 85.0486V85.5611ZM233.435 65.1215H241.284V88.5726H243.078V89.1493H233.563V88.5726H235.325V65.6982H233.435V65.1215ZM254.176 89.1493V88.5726H255.65L252.03 81.14L251.421 81.3002V88.5726H252.895V89.1493H243.7V88.5726H245.462V65.6982H243.572V65.1215H251.421V80.6595L251.933 80.4673L259.142 74.4763H256.13V73.8997H262.442V74.4763H260.199L256.387 77.7121L261.929 88.5726H263.082V89.1493H254.176ZM273.101 82.838V80.1149C273.101 78.0431 272.984 76.5374 272.749 75.5976C272.535 74.6365 272.023 74.156 271.211 74.156C270.741 74.156 270.357 74.2948 270.058 74.5725C269.78 74.8288 269.577 75.2666 269.449 75.886C269.257 76.8471 269.161 78.3101 269.161 80.275V82.7739C269.161 85.102 269.225 86.5009 269.353 86.9708C269.502 87.4407 269.652 87.8251 269.801 88.1241C270.036 88.6367 270.495 88.893 271.179 88.893C272.012 88.893 272.557 88.4124 272.813 87.4513C273.005 86.7679 273.101 85.2301 273.101 82.838ZM271.115 89.4697C268.445 89.4697 266.427 88.7862 265.06 87.4193C263.693 86.0524 263.009 84.0981 263.009 81.5565C263.009 78.9936 263.736 77.0286 265.188 75.6617C266.662 74.2734 268.723 73.5793 271.371 73.5793C274.02 73.5793 275.995 74.22 277.298 75.5015C278.601 76.7617 279.252 78.6945 279.252 81.3002C279.252 86.7465 276.54 89.4697 271.115 89.4697ZM280.212 73.8997H287.933V76.8471C288.275 75.8646 288.798 75.0744 289.503 74.4763C290.208 73.8783 291.276 73.5793 292.707 73.5793C296.017 73.5793 297.673 75.3627 297.673 78.9295V88.5726H299.467V89.1493H290.4V88.5726H291.714V78.1606C291.714 76.8791 291.628 76.0568 291.457 75.6938C291.286 75.3093 290.977 75.1171 290.528 75.1171C289.845 75.1171 289.236 75.5656 288.702 76.4626C288.19 77.3597 287.933 78.4489 287.933 79.7304V88.5726H289.311V89.1493H280.212V88.5726H281.974V74.4763H280.212V73.8997Z" fill="#FBFBFB"/>
<path d="M181.765 431.763H194.58V432.546H190.807V455.898H192.088C194.105 455.898 195.707 455.281 196.894 454.047C198.104 452.812 199.326 450.914 200.56 448.351H201.308L200.631 456.681H181.765V455.898H183.865V432.546H181.765V431.763ZM211.122 448.315H212.154V445.575C212.154 443.32 212.024 441.813 211.763 441.054C211.525 440.271 211.051 439.879 210.339 439.879C209.912 439.879 209.52 439.998 209.164 440.235C208.832 440.449 208.666 440.757 208.666 441.161C208.666 441.54 208.737 441.932 208.879 442.335H209.769C209.959 442.834 210.054 443.439 210.054 444.151C210.054 444.839 209.757 445.444 209.164 445.966C208.571 446.464 207.823 446.714 206.921 446.714C204.881 446.714 203.86 445.729 203.86 443.759C203.86 440.84 206.34 439.381 211.3 439.381C214.124 439.381 216.07 439.867 217.138 440.84C218.229 441.789 218.775 443.545 218.775 446.108V453.335C218.775 454.569 219.119 455.186 219.807 455.186C220.614 455.186 221.089 453.963 221.231 451.519L221.765 451.555C221.67 453.643 221.279 455.079 220.591 455.862C219.902 456.645 218.775 457.037 217.209 457.037C214.361 457.037 212.724 456.159 212.297 454.402C211.988 455.304 211.525 455.969 210.908 456.396C210.291 456.823 209.389 457.037 208.203 457.037C204.691 457.037 202.935 455.601 202.935 452.729C202.935 451.045 203.599 449.894 204.928 449.277C206.281 448.636 208.345 448.315 211.122 448.315ZM209.698 452.694C209.698 453.928 209.757 454.723 209.876 455.079C210.018 455.435 210.268 455.613 210.624 455.613C211.003 455.613 211.347 455.316 211.656 454.723C211.988 454.106 212.154 453.263 212.154 452.195V448.885H211.905C210.434 448.885 209.698 449.965 209.698 452.124V452.694ZM222.186 439.737H230.765V443.012C231.145 441.92 231.726 441.042 232.509 440.377C233.292 439.713 234.479 439.381 236.069 439.381C239.747 439.381 241.586 441.362 241.586 445.325V456.04H243.58V456.681H233.506V456.04H234.966V444.471C234.966 443.047 234.871 442.133 234.681 441.73C234.491 441.303 234.147 441.089 233.648 441.089C232.889 441.089 232.213 441.588 231.619 442.584C231.05 443.581 230.765 444.791 230.765 446.215V456.04H232.296V456.681H222.186V456.04H224.144V440.377H222.186V439.737ZM245.656 451.59V440.377H243.698V439.737H245.656V435.145L252.277 433.507V439.737H256.905V440.377H252.277V452.373C252.277 453.489 252.384 454.308 252.598 454.83C252.835 455.352 253.309 455.613 254.021 455.613C254.733 455.613 255.35 455.257 255.872 454.545C256.418 453.833 256.774 452.86 256.94 451.626L257.545 451.697C257.356 453.335 256.834 454.64 255.979 455.613C255.125 456.562 253.713 457.037 251.743 457.037C249.774 457.037 248.267 456.645 247.222 455.862C246.178 455.079 245.656 453.655 245.656 451.59ZM266.429 448.315H267.461V445.575C267.461 443.32 267.331 441.813 267.07 441.054C266.832 440.271 266.358 439.879 265.646 439.879C265.219 439.879 264.827 439.998 264.471 440.235C264.139 440.449 263.973 440.757 263.973 441.161C263.973 441.54 264.044 441.932 264.186 442.335H265.076C265.266 442.834 265.361 443.439 265.361 444.151C265.361 444.839 265.064 445.444 264.471 445.966C263.878 446.464 263.13 446.714 262.228 446.714C260.188 446.714 259.167 445.729 259.167 443.759C259.167 440.84 261.647 439.381 266.607 439.381C269.431 439.381 271.377 439.867 272.445 440.84C273.536 441.789 274.082 443.545 274.082 446.108V453.335C274.082 454.569 274.426 455.186 275.114 455.186C275.921 455.186 276.396 453.963 276.538 451.519L277.072 451.555C276.977 453.643 276.586 455.079 275.898 455.862C275.209 456.645 274.082 457.037 272.516 457.037C269.668 457.037 268.031 456.159 267.603 454.402C267.295 455.304 266.832 455.969 266.215 456.396C265.598 456.823 264.696 457.037 263.51 457.037C259.998 457.037 258.242 455.601 258.242 452.729C258.242 451.045 258.906 449.894 260.235 449.277C261.588 448.636 263.652 448.315 266.429 448.315ZM265.005 452.694C265.005 453.928 265.064 454.723 265.183 455.079C265.325 455.435 265.574 455.613 265.93 455.613C266.31 455.613 266.654 455.316 266.963 454.723C267.295 454.106 267.461 453.263 267.461 452.195V448.885H267.212C265.741 448.885 265.005 449.965 265.005 452.124V452.694ZM282.655 437.28C281.397 437.28 280.495 436.96 279.949 436.319C279.427 435.679 279.166 434.884 279.166 433.934C279.166 432.985 279.451 432.202 280.021 431.585C280.614 430.968 281.504 430.659 282.69 430.659C283.877 430.659 284.779 430.944 285.396 431.514C286.013 432.06 286.321 432.855 286.321 433.899C286.321 434.919 286.025 435.738 285.431 436.355C284.838 436.972 283.913 437.28 282.655 437.28ZM277.28 439.737H286.001V456.04H287.994V456.681H277.422V456.04H279.38V440.377H277.28V439.737ZM305.724 448.351C305.724 446.097 305.522 444.518 305.119 443.617C304.739 442.715 303.861 442.264 302.485 442.264C301.108 442.264 299.601 442.774 297.964 443.795L297.359 443.51V432.155L297.928 431.727C299.376 431.941 301.571 432.202 304.514 432.511C307.456 432.795 309.153 432.938 309.604 432.938C310.079 432.938 310.411 432.831 310.601 432.617C310.814 432.38 310.992 431.988 311.135 431.443L311.669 431.514C311.313 435.145 310.85 437.304 310.28 437.992C309.972 438.348 309.58 438.526 309.106 438.526C308.631 438.526 307.634 438.325 306.115 437.921L298.355 435.892L298.177 442.798C299.91 441.872 301.701 441.41 303.553 441.41C305.404 441.41 306.946 441.623 308.18 442.05C309.414 442.454 310.363 443.023 311.028 443.759C312.286 445.159 312.914 446.856 312.914 448.849C312.914 451.389 312.001 453.394 310.173 454.865C308.37 456.313 305.878 457.037 302.698 457.037C300.99 457.037 299.411 456.681 297.964 455.969C297.181 455.565 296.54 454.996 296.042 454.26C295.567 453.501 295.33 452.635 295.33 451.662C295.33 450.665 295.603 449.846 296.148 449.205C296.718 448.565 297.489 448.244 298.462 448.244C299.459 448.244 300.23 448.493 300.776 448.992C301.346 449.466 301.63 450.095 301.63 450.878C301.63 451.638 301.523 452.29 301.31 452.836H300.135C299.993 453.216 299.922 453.667 299.922 454.189C299.922 454.687 300.123 455.174 300.527 455.648C300.93 456.099 301.523 456.325 302.307 456.325C303.09 456.325 303.683 456.206 304.086 455.969C304.49 455.708 304.798 455.399 305.012 455.043C305.226 454.687 305.392 454.13 305.51 453.37C305.653 452.279 305.724 450.605 305.724 448.351Z" fill="#181818"/>
</svg>
