<svg width="495" height="491" viewBox="0 0 495 491" fill="none" xmlns="http://www.w3.org/2000/svg">
<rect x="0.5" y="0.5" width="494" height="490" rx="9.5" stroke="#6699FF"/>
<rect x="6" y="21" width="482.622" height="393.694" fill="#6699FF" stroke="#FDEFF7" stroke-width="4.46872"/>
<rect x="6" y="21" width="185.005" height="282.87" fill="#6699FF" stroke="#FDEFF7" stroke-width="4.46872"/>
<rect x="6" y="303.87" width="147.915" height="110.824" fill="#6699FF" stroke="#FDEFF7" stroke-width="4.46872"/>
<path fill-rule="evenodd" clip-rule="evenodd" d="M289.764 22.7872H488.622V64.3463H488.623V267.226H218.712V64.3463H289.764V22.7872ZM488.623 267.227H331.771V414.694H488.623V267.227Z" fill="#6699FF"/>
<path d="M488.622 22.7872H490.856V20.5528H488.622V22.7872ZM289.764 22.7872V20.5528H287.53V22.7872H289.764ZM488.622 64.3463H486.388V66.5807H488.622V64.3463ZM488.623 64.3463H490.857V62.112H488.623V64.3463ZM488.623 267.226V269.461H490.857V267.226H488.623ZM218.712 267.226H216.478V269.461H218.712V267.226ZM218.712 64.3463V62.112H216.478V64.3463H218.712ZM289.764 64.3463V66.5807H291.998V64.3463H289.764ZM331.771 267.227V264.992H329.536V267.227H331.771ZM488.623 267.227H490.857V264.992H488.623V267.227ZM331.771 414.694H329.536V416.929H331.771V414.694ZM488.623 414.694V416.929H490.857V414.694H488.623ZM488.622 20.5528H289.764V25.0216H488.622V20.5528ZM490.856 64.3463V22.7872H486.388V64.3463H490.856ZM488.623 62.112H488.622V66.5807H488.623V62.112ZM490.857 267.226V64.3463H486.388V267.226H490.857ZM218.712 269.461H488.623V264.992H218.712V269.461ZM216.478 64.3463V267.226H220.946V64.3463H216.478ZM289.764 62.112H218.712V66.5807H289.764V62.112ZM287.53 22.7872V64.3463H291.998V22.7872H287.53ZM331.771 269.461H488.623V264.992H331.771V269.461ZM334.005 414.694V267.227H329.536V414.694H334.005ZM488.623 412.46H331.771V416.929H488.623V412.46ZM486.388 267.227V414.694H490.857V267.227H486.388Z" fill="#FDEFF7"/>
<path fill-rule="evenodd" clip-rule="evenodd" d="M217.817 336.94H220.052H288.87H291.104V339.174V385.649V387.883H288.87H220.052H217.817V385.649V339.174V336.94ZM222.286 341.408V383.414H223.627V341.408H222.286ZM228.99 383.414H226.755V341.408H228.99V383.414ZM226.308 341.408V383.414H224.074V341.408H226.308ZM232.117 383.414H234.352V341.408H232.117V383.414ZM231.67 383.414V341.408H229.437V383.414H231.67ZM239.715 383.414H237.48V341.408H239.715V383.414ZM237.033 341.408V383.414H234.799V341.408H237.033ZM242.842 383.414H245.077V341.408H242.842V383.414ZM242.395 383.414V341.408H240.162V383.414H242.395ZM250.44 383.414H248.205V341.408H250.44V383.414ZM247.758 341.408V383.414H245.524V341.408H247.758ZM253.567 383.414H255.802V341.408H253.567V383.414ZM253.12 383.414V341.408H250.887V383.414H253.12ZM261.164 383.414H258.93V341.408H261.164V383.414ZM258.483 341.408V383.414H256.248V341.408H258.483ZM264.293 383.414H266.526V341.408H264.293V383.414ZM263.846 383.414V341.408H261.611V383.414H263.846ZM271.889 383.414H269.655V341.408H271.889V383.414ZM269.208 341.408V383.414H266.973V341.408H269.208ZM275.018 383.414H277.251V341.408H275.018V383.414ZM274.571 383.414V341.408H272.336V383.414H274.571ZM282.614 383.414H280.38V341.408H282.614V383.414ZM279.933 341.408V383.414H277.698V341.408H279.933ZM285.742 383.414H286.636V341.408H285.742V383.414ZM285.296 383.414V341.408H283.061V383.414H285.296Z" fill="#FDEFF7"/>
<rect x="219.605" y="314.595" width="67.9245" height="24.578" fill="#6699FF" stroke="#FDEFF7" stroke-width="4.46872"/>
<path fill-rule="evenodd" clip-rule="evenodd" d="M219.605 303.87H191.005V362.41H219.605V339.173H233.905V303.87H219.605V303.87Z" fill="#6699FF"/>
<path d="M191.005 303.87V301.635H188.771V303.87H191.005ZM219.605 303.87H221.839V301.635H219.605V303.87ZM191.005 362.41H188.771V364.644H191.005V362.41ZM219.605 362.41V364.644H221.839V362.41H219.605ZM219.605 339.173V336.939H217.37V339.173H219.605ZM233.905 339.173V341.407H236.139V339.173H233.905ZM233.905 303.87H236.139V301.636H233.905V303.87ZM219.605 303.87H217.37V306.104H219.605V303.87ZM191.005 306.104H219.605V301.635H191.005V306.104ZM193.239 362.41V303.87H188.771V362.41H193.239ZM219.605 360.176H191.005V364.644H219.605V360.176ZM217.37 339.173V362.41H221.839V339.173H217.37ZM233.905 336.939H219.605V341.407H233.905V336.939ZM231.67 303.87V339.173H236.139V303.87H231.67ZM219.605 306.104H233.905V301.636H219.605V306.104ZM217.37 303.87V303.87H221.839V303.87H217.37Z" fill="#FDEFF7"/>
<line x1="261.163" y1="313.701" x2="261.163" y2="338.279" stroke="#FDEFF7" stroke-width="4.46872"/>
<rect x="156.148" y="406.204" width="173.386" height="16.5343" fill="#6699FF"/>
<path d="M183.575 435.713H196.445V436.499H192.656V459.951H193.943C195.969 459.951 197.577 459.332 198.769 458.092C199.984 456.853 201.212 454.946 202.451 452.372H203.202L202.523 460.738H183.575V459.951H185.685V436.499H183.575V435.713ZM213.058 452.336H214.095V449.584C214.095 447.32 213.964 445.806 213.702 445.044C213.463 444.257 212.987 443.864 212.272 443.864C211.843 443.864 211.45 443.983 211.092 444.221C210.758 444.436 210.592 444.746 210.592 445.151C210.592 445.532 210.663 445.925 210.806 446.331H211.7C211.89 446.831 211.986 447.439 211.986 448.154C211.986 448.845 211.688 449.453 211.092 449.977C210.496 450.477 209.745 450.728 208.84 450.728C206.79 450.728 205.765 449.739 205.765 447.761C205.765 444.829 208.256 443.363 213.237 443.363C216.073 443.363 218.027 443.852 219.1 444.829C220.196 445.782 220.744 447.546 220.744 450.12V457.377C220.744 458.617 221.09 459.236 221.781 459.236C222.592 459.236 223.068 458.009 223.211 455.554L223.747 455.59C223.652 457.687 223.259 459.129 222.568 459.915C221.877 460.702 220.744 461.095 219.171 461.095C216.311 461.095 214.667 460.213 214.238 458.45C213.928 459.355 213.463 460.023 212.844 460.452C212.224 460.881 211.318 461.095 210.127 461.095C206.599 461.095 204.836 459.653 204.836 456.769C204.836 455.077 205.503 453.921 206.838 453.302C208.196 452.658 210.27 452.336 213.058 452.336ZM211.628 456.734C211.628 457.973 211.688 458.771 211.807 459.129C211.95 459.486 212.2 459.665 212.558 459.665C212.939 459.665 213.285 459.367 213.594 458.771C213.928 458.152 214.095 457.306 214.095 456.233V452.908H213.845C212.367 452.908 211.628 453.993 211.628 456.162V456.734ZM224.17 443.721H232.786V447.01C233.167 445.913 233.751 445.032 234.538 444.364C235.324 443.697 236.516 443.363 238.113 443.363C241.807 443.363 243.654 445.353 243.654 449.333V460.094H245.656V460.738H235.539V460.094H237.004V448.476C237.004 447.046 236.909 446.128 236.718 445.723C236.528 445.294 236.182 445.079 235.682 445.079C234.919 445.079 234.24 445.58 233.644 446.581C233.072 447.582 232.786 448.797 232.786 450.227V460.094H234.323V460.738H224.17V460.094H226.137V444.364H224.17V443.721ZM247.741 455.625V444.364H245.775V443.721H247.741V439.109L254.391 437.465V443.721H259.038V444.364H254.391V456.412C254.391 457.532 254.498 458.354 254.712 458.879C254.951 459.403 255.427 459.665 256.142 459.665C256.857 459.665 257.477 459.308 258.001 458.593C258.549 457.878 258.907 456.901 259.074 455.661L259.682 455.733C259.491 457.377 258.967 458.688 258.109 459.665C257.251 460.619 255.832 461.095 253.854 461.095C251.876 461.095 250.363 460.702 249.314 459.915C248.265 459.129 247.741 457.699 247.741 455.625ZM268.603 452.336H269.64V449.584C269.64 447.32 269.509 445.806 269.247 445.044C269.008 444.257 268.532 443.864 267.817 443.864C267.388 443.864 266.994 443.983 266.637 444.221C266.303 444.436 266.136 444.746 266.136 445.151C266.136 445.532 266.208 445.925 266.351 446.331H267.245C267.435 446.831 267.531 447.439 267.531 448.154C267.531 448.845 267.233 449.453 266.637 449.977C266.041 450.477 265.29 450.728 264.385 450.728C262.335 450.728 261.31 449.739 261.31 447.761C261.31 444.829 263.801 443.363 268.782 443.363C271.618 443.363 273.572 443.852 274.645 444.829C275.741 445.782 276.289 447.546 276.289 450.12V457.377C276.289 458.617 276.635 459.236 277.326 459.236C278.136 459.236 278.613 458.009 278.756 455.554L279.292 455.59C279.197 457.687 278.804 459.129 278.112 459.915C277.421 460.702 276.289 461.095 274.716 461.095C271.856 461.095 270.212 460.213 269.783 458.45C269.473 459.355 269.008 460.023 268.389 460.452C267.769 460.881 266.863 461.095 265.672 461.095C262.144 461.095 260.381 459.653 260.381 456.769C260.381 455.077 261.048 453.921 262.383 453.302C263.741 452.658 265.815 452.336 268.603 452.336ZM267.173 456.734C267.173 457.973 267.233 458.771 267.352 459.129C267.495 459.486 267.745 459.665 268.103 459.665C268.484 459.665 268.829 459.367 269.139 458.771C269.473 458.152 269.64 457.306 269.64 456.233V452.908H269.39C267.912 452.908 267.173 453.993 267.173 456.162V456.734ZM284.899 441.254C283.636 441.254 282.73 440.932 282.182 440.289C281.657 439.645 281.395 438.847 281.395 437.894C281.395 436.94 281.681 436.154 282.253 435.534C282.849 434.914 283.743 434.605 284.935 434.605C286.126 434.605 287.032 434.891 287.651 435.463C288.271 436.011 288.581 436.809 288.581 437.858C288.581 438.883 288.283 439.705 287.687 440.325C287.091 440.944 286.162 441.254 284.899 441.254ZM279.501 443.721H288.259V460.094H290.261V460.738H279.644V460.094H281.61V444.364H279.501V443.721ZM301.596 436.642L297.664 437.143L297.592 436.428L305.672 435.32H308.568V460.058H311.356V460.738H297.843V460.058H301.596V436.642Z" fill="#181818"/>
<circle cx="265.185" cy="137.633" r="8.93744" fill="#E14235"/>
<path d="M267.057 143.696H264.63V137.051L264.653 135.959L264.693 134.765C264.289 135.168 264.009 135.433 263.852 135.558L262.532 136.619L261.362 135.158L265.062 132.212H267.057V143.696Z" fill="#FFD9C2"/>
<circle cx="409.078" cy="96.0741" r="8.93744" fill="#E14235"/>
<path d="M412.977 102.137H404.949V100.448L407.832 97.5336C408.686 96.659 409.243 96.0542 409.505 95.719C409.767 95.3786 409.955 95.0644 410.071 94.7764C410.186 94.4884 410.244 94.1899 410.244 93.8809C410.244 93.4201 410.115 93.0771 409.859 92.8519C409.607 92.6267 409.269 92.5141 408.845 92.5141C408.4 92.5141 407.968 92.6162 407.549 92.8205C407.13 93.0247 406.693 93.3153 406.237 93.6924L404.918 92.1292C405.483 91.6474 405.952 91.307 406.324 91.108C406.696 90.909 407.101 90.7572 407.541 90.6524C407.981 90.5425 408.473 90.4875 409.018 90.4875C409.736 90.4875 410.369 90.6184 410.919 90.8802C411.469 91.1421 411.896 91.5086 412.199 91.98C412.503 92.4513 412.655 92.9907 412.655 93.5981C412.655 94.127 412.561 94.6245 412.372 95.0906C412.189 95.5514 411.901 96.0254 411.508 96.5124C411.121 96.9994 410.435 97.6933 409.45 98.594L407.973 99.9844V100.094H412.977V102.137Z" fill="#FFD9C2"/>
<circle cx="353.666" cy="218.964" r="8.93744" fill="#E14235"/>
<path d="M357.385 216.111C357.385 216.828 357.168 217.439 356.733 217.941C356.298 218.444 355.688 218.79 354.903 218.978V219.025C355.83 219.14 356.531 219.423 357.008 219.874C357.484 220.319 357.723 220.921 357.723 221.68C357.723 222.785 357.322 223.647 356.521 224.265C355.72 224.877 354.575 225.184 353.088 225.184C351.842 225.184 350.737 224.977 349.773 224.563V222.497C350.218 222.722 350.708 222.906 351.242 223.047C351.776 223.189 352.305 223.259 352.829 223.259C353.63 223.259 354.222 223.123 354.604 222.851C354.986 222.578 355.178 222.141 355.178 221.539C355.178 221 354.958 220.617 354.518 220.392C354.078 220.167 353.376 220.054 352.413 220.054H351.541V218.193H352.428C353.318 218.193 353.968 218.077 354.376 217.847C354.79 217.611 354.997 217.211 354.997 216.645C354.997 215.776 354.452 215.341 353.363 215.341C352.986 215.341 352.601 215.404 352.208 215.53C351.821 215.655 351.389 215.873 350.912 216.182L349.789 214.509C350.836 213.754 352.085 213.377 353.536 213.377C354.725 213.377 355.662 213.618 356.348 214.1C357.039 214.582 357.385 215.252 357.385 216.111Z" fill="#FFD9C2"/>
<circle cx="409.078" cy="353.472" r="8.93744" fill="#E14235"/>
<path d="M413.236 357.155H411.854V359.535H409.482V357.155H404.58V355.466L409.615 348.05H411.854V355.269H413.236V357.155ZM409.482 355.269V353.321C409.482 352.997 409.495 352.525 409.521 351.907C409.547 351.289 409.568 350.931 409.584 350.831H409.521C409.327 351.261 409.094 351.68 408.822 352.088L406.717 355.269H409.482Z" fill="#FFD9C2"/>
<circle cx="247.31" cy="405.756" r="8.93744" fill="#E14235"/>
<path d="M247.361 404.482C248.471 404.482 249.353 404.793 250.008 405.417C250.668 406.04 250.997 406.893 250.997 407.977C250.997 409.26 250.602 410.247 249.811 410.939C249.021 411.63 247.889 411.976 246.418 411.976C245.14 411.976 244.108 411.769 243.323 411.355V409.258C243.737 409.478 244.218 409.658 244.768 409.8C245.318 409.936 245.839 410.004 246.331 410.004C247.813 410.004 248.554 409.396 248.554 408.182C248.554 407.024 247.787 406.446 246.253 406.446C245.975 406.446 245.669 406.474 245.334 406.532C244.999 406.584 244.726 406.642 244.517 406.705L243.551 406.186L243.983 400.334H250.212V402.392H246.112L245.899 404.647L246.174 404.592C246.494 404.518 246.889 404.482 247.361 404.482Z" fill="#FFD9C2"/>
<path d="M78.5693 173.762H62.5134V170.384L68.2791 164.556C69.9862 162.807 71.1017 161.597 71.6254 160.927C72.149 160.246 72.5261 159.617 72.7565 159.041C72.9869 158.465 73.1021 157.868 73.1021 157.25C73.1021 156.329 72.8455 155.643 72.3323 155.192C71.8296 154.742 71.154 154.517 70.3057 154.517C69.4154 154.517 68.5514 154.721 67.7135 155.129C66.8756 155.538 66.0011 156.119 65.0899 156.873L62.4505 153.747C63.5817 152.783 64.519 152.103 65.2627 151.705C66.0063 151.307 66.818 151.003 67.6978 150.793C68.5776 150.573 69.5621 150.463 70.6513 150.463C72.0862 150.463 73.3535 150.725 74.4532 151.249C75.5529 151.773 76.4065 152.506 77.014 153.448C77.6215 154.391 77.9252 155.47 77.9252 156.685C77.9252 157.743 77.7367 158.738 77.3596 159.67C76.9931 160.591 76.417 161.539 75.6315 162.513C74.8565 163.487 73.4844 164.875 71.5154 166.677L68.5618 169.457V169.677H78.5693V173.762ZM92.8972 173.762H88.0427V160.471L88.0898 158.287L88.1683 155.899C87.3619 156.706 86.8015 157.235 86.4873 157.486L83.848 159.607L81.5072 156.685L88.9067 150.793H92.8972V173.762ZM115.206 162.278C115.206 166.289 114.546 169.258 113.226 171.185C111.917 173.113 109.896 174.076 107.162 174.076C104.512 174.076 102.512 173.081 101.161 171.091C99.8202 169.101 99.1499 166.163 99.1499 162.278C99.1499 158.224 99.8045 155.239 101.114 153.323C102.423 151.396 104.439 150.432 107.162 150.432C109.812 150.432 111.812 151.438 113.163 153.448C114.525 155.459 115.206 158.402 115.206 162.278ZM103.973 162.278C103.973 165.095 104.214 167.116 104.696 168.342C105.188 169.557 106.01 170.164 107.162 170.164C108.293 170.164 109.11 169.546 109.613 168.31C110.116 167.075 110.367 165.064 110.367 162.278C110.367 159.46 110.11 157.439 109.597 156.213C109.095 154.978 108.283 154.36 107.162 154.36C106.021 154.36 105.204 154.978 104.711 156.213C104.219 157.439 103.973 159.46 103.973 162.278ZM129.659 173.762H124.805V160.471L124.852 158.287L124.931 155.899C124.124 156.706 123.564 157.235 123.25 157.486L120.61 159.607L118.269 156.685L125.669 150.793H129.659V173.762Z" fill="#FBFBFB"/>
<path d="M60.8929 372.279H45.2829V368.995L50.8885 363.329C52.5482 361.628 53.6327 360.452 54.1418 359.8C54.6509 359.139 55.0175 358.528 55.2415 357.968C55.4656 357.407 55.5776 356.827 55.5776 356.226C55.5776 355.33 55.3281 354.663 54.8291 354.225C54.3404 353.788 53.6836 353.569 52.8588 353.569C51.9933 353.569 51.1532 353.767 50.3386 354.164C49.524 354.561 48.6737 355.127 47.7879 355.86L45.2218 352.82C46.3216 351.883 47.2329 351.222 47.9559 350.835C48.6788 350.448 49.468 350.152 50.3233 349.949C51.1787 349.735 52.1358 349.628 53.1948 349.628C54.5898 349.628 55.8219 349.883 56.8911 350.392C57.9603 350.901 58.7902 351.614 59.3808 352.53C59.9714 353.446 60.2667 354.495 60.2667 355.676C60.2667 356.705 60.0834 357.672 59.7168 358.578C59.3604 359.475 58.8004 360.396 58.0367 361.343C57.2832 362.29 55.9492 363.639 54.0349 365.391L51.1634 368.094V368.308H60.8929V372.279ZM74.8227 372.279H70.1031V359.357L70.1489 357.234L70.2253 354.913C69.4412 355.697 68.8964 356.211 68.591 356.455L66.0249 358.517L63.7491 355.676L70.9431 349.949H74.8227V372.279ZM96.5117 361.114C96.5117 365.014 95.8702 367.901 94.5872 369.774C93.3144 371.648 91.3491 372.585 88.6915 372.585C86.1153 372.585 84.1704 371.617 82.8568 369.683C81.5534 367.748 80.9018 364.892 80.9018 361.114C80.9018 357.173 81.5382 354.271 82.811 352.408C84.0838 350.534 86.044 349.597 88.6915 349.597C91.2677 349.597 93.2126 350.575 94.5261 352.53C95.8499 354.485 96.5117 357.346 96.5117 361.114ZM85.5909 361.114C85.5909 363.853 85.8251 365.818 86.2935 367.01C86.772 368.191 87.5714 368.781 88.6915 368.781C89.7912 368.781 90.5854 368.181 91.0742 366.979C91.563 365.778 91.8074 363.823 91.8074 361.114C91.8074 358.375 91.5579 356.41 91.0589 355.218C90.5702 354.017 89.781 353.416 88.6915 353.416C87.5816 353.416 86.7873 354.017 86.3087 355.218C85.8301 356.41 85.5909 358.375 85.5909 361.114ZM114.504 372.279H98.8945V368.995L104.5 363.329C106.16 361.628 107.244 360.452 107.753 359.8C108.262 359.139 108.629 358.528 108.853 357.968C109.077 357.407 109.189 356.827 109.189 356.226C109.189 355.33 108.94 354.663 108.441 354.225C107.952 353.788 107.295 353.569 106.47 353.569C105.605 353.569 104.765 353.767 103.95 354.164C103.136 354.561 102.285 355.127 101.399 355.86L98.8334 352.82C99.9331 351.883 100.844 351.222 101.567 350.835C102.29 350.448 103.08 350.152 103.935 349.949C104.79 349.735 105.747 349.628 106.806 349.628C108.201 349.628 109.433 349.883 110.503 350.392C111.572 350.901 112.402 351.614 112.992 352.53C113.583 353.446 113.878 354.495 113.878 355.676C113.878 356.705 113.695 357.672 113.328 358.578C112.972 359.475 112.412 360.396 111.648 361.343C110.895 362.29 109.561 363.639 107.646 365.391L104.775 368.094V368.308H114.504V372.279Z" fill="#FBFBFB"/>
</svg>
