<svg width="495" height="491" viewBox="0 0 495 491" fill="none" xmlns="http://www.w3.org/2000/svg">
<rect x="0.5" y="0.5" width="494" height="490" rx="9.5" stroke="#6699FF"/>
<path fill-rule="evenodd" clip-rule="evenodd" d="M30.5974 24H460.378V175.609H489V287.861H460.378V418.003H30.5974V259.239H6V173.372H30.5974V24Z" fill="#6699FF"/>
<path d="M460.378 24H462.614V21.7639H460.378V24ZM30.5974 24V21.7639H28.3613V24H30.5974ZM460.378 175.609H458.142V177.845H460.378V175.609ZM489 175.609H491.237V173.373H489V175.609ZM489 287.861V290.098H491.237V287.861H489ZM460.378 287.861V285.625H458.142V287.861H460.378ZM460.378 418.003V420.239H462.614V418.003H460.378ZM30.5974 418.003H28.3613V420.239H30.5974V418.003ZM30.5974 259.239H32.8335V257.003H30.5974V259.239ZM6 259.239H3.76389V261.475H6V259.239ZM6 173.372V171.136H3.76389V173.372H6ZM30.5974 173.372V175.608H32.8335V173.372H30.5974ZM460.378 21.7639H30.5974V26.2361H460.378V21.7639ZM462.614 175.609V24H458.142V175.609H462.614ZM460.378 177.845H489V173.373H460.378V177.845ZM486.764 175.609V287.861H491.237V175.609H486.764ZM489 285.625H460.378V290.098H489V285.625ZM462.614 418.003V287.861H458.142V418.003H462.614ZM30.5974 420.239H460.378V415.767H30.5974V420.239ZM28.3613 259.239V418.003H32.8335V259.239H28.3613ZM6 261.475H30.5974V257.003H6V261.475ZM3.76389 173.372V259.239H8.23611V173.372H3.76389ZM30.5974 171.136H6V175.608H30.5974V171.136ZM28.3613 24V173.372H32.8335V24H28.3613Z" fill="#FDEFF7"/>
<rect x="6" y="173.372" width="144.9" height="76.0278" fill="#6699FF" stroke="#FDEFF7" stroke-width="4.47222"/>
<rect x="61.0088" y="51.7277" width="373.878" height="86.7611" fill="#6699FF" stroke="#FDEFF7" stroke-width="4.47222"/>
<rect x="188.913" y="174.714" width="89.8917" height="87.2083" fill="#6699FF" stroke="#FDEFF7" stroke-width="4.47222"/>
<rect x="319.057" y="261.922" width="115.831" height="123.433" fill="#6699FF" stroke="#FDEFF7" stroke-width="4.47222"/>
<line x1="371.381" y1="384.436" x2="372.774" y2="261.898" stroke="#FDEFF7" stroke-width="4.47222"/>
<line x1="319.057" y1="302.173" x2="373.618" y2="302.173" stroke="#FDEFF7" stroke-width="4.47222"/>
<line x1="371.845" y1="322.297" x2="434.903" y2="322.744" stroke="#FDEFF7" stroke-width="4.47222"/>
<rect x="63.2439" y="264.157" width="85.4194" height="126.564" fill="#6699FF" stroke="#FDEFF7" stroke-width="4.47222"/>
<line x1="63.6914" y1="299.936" x2="148.664" y2="299.936" stroke="#FDEFF7" stroke-width="4.47222"/>
<line x1="97.6804" y1="264.157" x2="97.6805" y2="299.041" stroke="#FDEFF7" stroke-width="4.47222"/>
<line x1="63.2434" y1="264.604" x2="63.2434" y2="248.952" stroke="#FDEFF7" stroke-width="4.47222"/>
<path fill-rule="evenodd" clip-rule="evenodd" d="M213.959 337.233H216.195H278.768H281.004V339.469V362.369V364.605H278.768H216.195H213.959V362.369V339.469V337.233ZM218.431 341.705V360.133H219.445V341.705H218.431ZM224.321 360.133H222.33V341.705H224.321V360.133ZM221.883 341.705V360.133H219.892V341.705H221.883ZM227.206 360.133H229.197V341.705H227.206L227.206 360.133ZM226.759 360.133V341.705H224.768V360.133H226.759ZM234.073 360.133H232.082V341.705H234.073V360.133ZM231.635 341.705V360.133H229.644L229.644 341.705H231.635ZM236.958 360.133H238.948V341.705H236.958V360.133ZM236.511 360.133V341.705H234.52V360.133H236.511ZM243.824 360.133H241.833V341.705H243.824V360.133ZM241.386 341.705V360.133H239.395V341.705H241.386ZM246.709 360.133H248.7V341.705H246.709V360.133ZM246.262 360.133V341.705H244.271V360.133H246.262ZM253.576 360.133H251.585V341.705H253.576V360.133ZM251.138 341.705V360.133H249.147V341.705H251.138ZM256.461 360.133H258.452V341.705H256.461V360.133ZM256.014 360.133V341.705H254.023V360.133H256.014ZM263.328 360.133H261.337V341.705H263.328V360.133ZM260.89 341.705V360.133H258.899V341.705H260.89ZM266.213 360.133H268.203V341.705H266.213V360.133ZM265.766 360.133V341.705H263.775V360.133H265.766ZM273.079 360.133H271.088V341.705H273.079V360.133ZM270.641 341.705V360.133H268.65V341.705H270.641ZM275.964 360.133H276.532V341.705H275.964V360.133ZM275.517 360.133V341.705H273.526V360.133H275.517Z" fill="#FDEFF7"/>
<path fill-rule="evenodd" clip-rule="evenodd" d="M213.959 359.862H216.195H278.768H281.004V362.099V384.999V387.235H278.768H216.195H213.959V384.999V362.099V359.862ZM218.431 364.335V382.763H219.445V364.335H218.431ZM224.321 382.763H222.33V364.335H224.321V382.763ZM221.883 364.335V382.763H219.892V364.335H221.883ZM227.206 382.763H229.197V364.335H227.206L227.206 382.763ZM226.759 382.763V364.335H224.768V382.763H226.759ZM234.073 382.763H232.082V364.335H234.073V382.763ZM231.635 364.335V382.763H229.644L229.644 364.335H231.635ZM236.958 382.763H238.948V364.335H236.958V382.763ZM236.511 382.763V364.335H234.52V382.763H236.511ZM243.824 382.763H241.833V364.335H243.824V382.763ZM241.386 364.335V382.763H239.395V364.335H241.386ZM246.709 382.763H248.7V364.335H246.709V382.763ZM246.262 382.763V364.335H244.271V382.763H246.262ZM253.576 382.763H251.585V364.335H253.576V382.763ZM251.138 364.335V382.763H249.147V364.335H251.138ZM256.461 382.763H258.452V364.335H256.461V382.763ZM256.014 382.763V364.335H254.023V382.763H256.014ZM263.328 382.763H261.337V364.335H263.328V382.763ZM260.89 364.335V382.763H258.899V364.335H260.89ZM266.213 382.763H268.203V364.335H266.213V382.763ZM265.766 382.763V364.335H263.775V382.763H265.766ZM273.079 382.763H271.088V364.335H273.079V382.763ZM270.641 364.335V382.763H268.65V364.335H270.641ZM275.964 382.763H276.532V364.335H275.964V382.763ZM275.517 382.763V364.335H273.526V382.763H275.517Z" fill="#FDEFF7"/>
<rect x="228.717" y="313.799" width="47.8528" height="25.9389" fill="#6699FF" stroke="#FDEFF7" stroke-width="4.47222"/>
<line x1="252.867" y1="315.141" x2="252.867" y2="339.738" stroke="#FDEFF7" stroke-width="4.47222"/>
<path d="M181.444 430.958H194.324V431.745H190.532V455.216H191.82C193.847 455.216 195.457 454.595 196.65 453.355C197.866 452.115 199.095 450.207 200.335 447.631H201.086L200.406 456.003H181.444V455.216H183.555V431.745H181.444V430.958ZM210.95 447.595H211.988V444.84C211.988 442.574 211.857 441.06 211.594 440.296C211.356 439.509 210.879 439.116 210.163 439.116C209.734 439.116 209.34 439.235 208.983 439.473C208.649 439.688 208.482 439.998 208.482 440.404C208.482 440.785 208.553 441.179 208.696 441.584H209.591C209.782 442.085 209.877 442.693 209.877 443.409C209.877 444.101 209.579 444.709 208.983 445.234C208.386 445.734 207.635 445.985 206.729 445.985C204.677 445.985 203.652 444.995 203.652 443.015C203.652 440.082 206.144 438.615 211.129 438.615C213.968 438.615 215.923 439.104 216.997 440.082C218.094 441.036 218.643 442.801 218.643 445.377V452.64C218.643 453.88 218.988 454.5 219.68 454.5C220.491 454.5 220.968 453.272 221.111 450.815L221.648 450.851C221.552 452.95 221.159 454.393 220.467 455.18C219.775 455.967 218.643 456.36 217.068 456.36C214.206 456.36 212.56 455.478 212.131 453.713C211.821 454.619 211.356 455.287 210.736 455.716C210.115 456.146 209.209 456.36 208.017 456.36C204.486 456.36 202.721 454.917 202.721 452.031C202.721 450.338 203.389 449.181 204.725 448.561C206.085 447.917 208.16 447.595 210.95 447.595ZM209.519 451.996C209.519 453.236 209.579 454.035 209.698 454.393C209.841 454.75 210.092 454.929 210.449 454.929C210.831 454.929 211.177 454.631 211.487 454.035C211.821 453.415 211.988 452.568 211.988 451.495V448.167H211.737C210.259 448.167 209.519 449.253 209.519 451.423V451.996ZM222.071 438.972H230.693V442.264C231.075 441.167 231.659 440.284 232.447 439.616C233.234 438.949 234.426 438.615 236.024 438.615C239.721 438.615 241.57 440.606 241.57 444.59V455.359H243.573V456.003H233.448V455.359H234.915V443.731C234.915 442.3 234.82 441.382 234.629 440.976C234.438 440.547 234.092 440.332 233.591 440.332C232.828 440.332 232.148 440.833 231.552 441.835C230.98 442.836 230.693 444.053 230.693 445.484V455.359H232.232V456.003H222.071V455.359H224.039V439.616H222.071V438.972ZM245.66 450.886V439.616H243.693V438.972H245.66V434.357L252.315 432.711V438.972H256.966V439.616H252.315V451.674C252.315 452.795 252.422 453.618 252.637 454.142C252.876 454.667 253.353 454.929 254.068 454.929C254.784 454.929 255.404 454.572 255.929 453.856C256.477 453.14 256.835 452.163 257.002 450.922L257.61 450.994C257.419 452.64 256.895 453.951 256.036 454.929C255.177 455.883 253.758 456.36 251.778 456.36C249.799 456.36 248.284 455.967 247.235 455.18C246.185 454.393 245.66 452.962 245.66 450.886ZM266.539 447.595H267.576V444.84C267.576 442.574 267.445 441.06 267.183 440.296C266.944 439.509 266.467 439.116 265.752 439.116C265.322 439.116 264.929 439.235 264.571 439.473C264.237 439.688 264.07 439.998 264.07 440.404C264.07 440.785 264.142 441.179 264.285 441.584H265.179C265.37 442.085 265.465 442.693 265.465 443.409C265.465 444.101 265.167 444.709 264.571 445.234C263.975 445.734 263.223 445.985 262.317 445.985C260.266 445.985 259.24 444.995 259.24 443.015C259.24 440.082 261.732 438.615 266.718 438.615C269.556 438.615 271.512 439.104 272.585 440.082C273.682 441.036 274.231 442.801 274.231 445.377V452.64C274.231 453.88 274.577 454.5 275.268 454.5C276.079 454.5 276.556 453.272 276.7 450.815L277.236 450.851C277.141 452.95 276.747 454.393 276.056 455.18C275.364 455.967 274.231 456.36 272.657 456.36C269.794 456.36 268.149 455.478 267.719 453.713C267.409 454.619 266.944 455.287 266.324 455.716C265.704 456.146 264.797 456.36 263.605 456.36C260.075 456.36 258.31 454.917 258.31 452.031C258.31 450.338 258.978 449.181 260.313 448.561C261.673 447.917 263.748 447.595 266.539 447.595ZM265.108 451.996C265.108 453.236 265.167 454.035 265.286 454.393C265.43 454.75 265.68 454.929 266.038 454.929C266.419 454.929 266.765 454.631 267.075 454.035C267.409 453.415 267.576 452.568 267.576 451.495V448.167H267.326C265.847 448.167 265.108 449.253 265.108 451.423V451.996ZM282.847 436.504C281.583 436.504 280.677 436.182 280.128 435.538C279.603 434.894 279.341 434.095 279.341 433.141C279.341 432.187 279.627 431.4 280.2 430.779C280.796 430.159 281.69 429.849 282.883 429.849C284.076 429.849 284.982 430.135 285.602 430.708C286.222 431.256 286.532 432.055 286.532 433.105C286.532 434.131 286.234 434.953 285.638 435.574C285.042 436.194 284.111 436.504 282.847 436.504ZM277.445 438.972H286.21V455.359H288.214V456.003H277.588V455.359H279.556V439.616H277.445V438.972ZM296.266 436.039C296.266 434.441 296.958 433.129 298.341 432.103C299.725 431.078 301.8 430.565 304.567 430.565C307.334 430.565 309.456 431.078 310.935 432.103C312.438 433.129 313.189 434.667 313.189 436.718C313.189 437.386 313.13 437.995 313.01 438.543C312.891 439.068 312.617 439.628 312.187 440.225C311.782 440.797 311.376 441.31 310.971 441.763C310.589 442.216 309.922 442.813 308.967 443.552C307.536 444.697 306.034 445.842 304.459 446.987C302.885 448.108 301.967 448.764 301.705 448.954L299.522 450.529H308.109C309.755 450.529 310.923 450.171 311.615 449.455C312.307 448.74 312.796 447.619 313.082 446.092H313.69L313.332 456.003H296.517V451.852L300.13 448.525C302.587 446.283 304.328 444.291 305.354 442.55C306.38 440.785 306.892 438.853 306.892 436.754C306.892 434.631 306.666 433.188 306.213 432.425C305.759 431.638 304.996 431.244 303.923 431.244C302.849 431.244 302.098 431.519 301.669 432.067C301.239 432.616 301.025 433.141 301.025 433.642C301.025 434.142 301.096 434.584 301.239 434.965H302.313C302.504 435.466 302.599 436.074 302.599 436.79C302.599 437.482 302.301 438.09 301.705 438.615C301.108 439.116 300.321 439.366 299.343 439.366C298.365 439.366 297.602 439.056 297.053 438.436C296.529 437.792 296.266 436.993 296.266 436.039Z" fill="#181818"/>
<path d="M113.533 276.817L113.667 280.185H113.413C113.019 278.995 112.67 278.186 112.366 277.756C112.062 277.318 111.624 277.099 111.051 277.099H110.89V285.927H112.031V286.209H107.134V285.927H108.274V277.099H108.1C107.527 277.099 107.084 277.327 106.771 277.783C106.458 278.23 106.114 279.031 105.738 280.185H105.483L105.617 276.817H113.533ZM117.827 283.566V282.425C117.827 281.558 117.778 280.927 117.68 280.533C117.59 280.131 117.376 279.93 117.036 279.93C116.839 279.93 116.678 279.988 116.553 280.104C116.436 280.211 116.351 280.395 116.298 280.654C116.217 281.057 116.177 281.669 116.177 282.492V283.539C116.177 284.514 116.204 285.1 116.257 285.296C116.32 285.493 116.383 285.654 116.445 285.779C116.544 285.994 116.736 286.101 117.022 286.101C117.371 286.101 117.599 285.9 117.706 285.498C117.787 285.211 117.827 284.567 117.827 283.566ZM116.995 286.343C115.877 286.343 115.032 286.057 114.46 285.484C113.887 284.912 113.601 284.093 113.601 283.029C113.601 281.956 113.905 281.133 114.513 280.56C115.13 279.979 115.994 279.688 117.103 279.688C118.212 279.688 119.039 279.957 119.585 280.493C120.13 281.021 120.403 281.83 120.403 282.922C120.403 285.202 119.267 286.343 116.995 286.343ZM122.751 278.897C122.277 278.897 121.937 278.776 121.731 278.534C121.534 278.293 121.436 277.993 121.436 277.635C121.436 277.278 121.543 276.983 121.758 276.75C121.981 276.517 122.317 276.401 122.764 276.401C123.211 276.401 123.551 276.508 123.784 276.723C124.016 276.929 124.133 277.229 124.133 277.622C124.133 278.007 124.021 278.315 123.797 278.548C123.574 278.78 123.225 278.897 122.751 278.897ZM120.725 279.822H124.012V285.967H124.763V286.209H120.778V285.967H121.516V280.064H120.725V279.822ZM124.983 276.146H128.27V285.967H129.021V286.209H125.037V285.967H125.775V276.388H124.983V276.146ZM132.81 286.343C131.657 286.343 130.789 286.048 130.208 285.457C129.635 284.858 129.349 284.031 129.349 282.975C129.349 281.911 129.671 281.097 130.315 280.533C130.968 279.97 131.795 279.688 132.797 279.688C134.827 279.688 135.802 280.708 135.722 282.747H131.938V283.27C131.938 284.147 132.05 284.809 132.274 285.256C132.497 285.703 132.886 285.927 133.441 285.927C134.479 285.927 135.158 285.372 135.48 284.263L135.722 284.304C135.552 284.948 135.243 285.448 134.796 285.806C134.358 286.164 133.696 286.343 132.81 286.343ZM131.952 282.479H133.334V281.821C133.334 281.097 133.289 280.605 133.199 280.346C133.119 280.077 132.949 279.943 132.69 279.943C132.439 279.943 132.251 280.086 132.126 280.372C132.01 280.65 131.952 281.133 131.952 281.821V282.479ZM136.871 284.29V280.064H136.133V279.822H136.871V278.092L139.366 277.474V279.822H141.11V280.064H139.366V284.585C139.366 285.006 139.406 285.314 139.487 285.511C139.576 285.708 139.755 285.806 140.024 285.806C140.292 285.806 140.524 285.672 140.721 285.404C140.927 285.135 141.061 284.769 141.124 284.304L141.352 284.33C141.28 284.948 141.083 285.44 140.761 285.806C140.439 286.164 139.907 286.343 139.165 286.343C138.422 286.343 137.854 286.195 137.461 285.9C137.067 285.605 136.871 285.068 136.871 284.29Z" fill="#FBFBFB"/>
<path d="M335.802 277.264L335.936 280.632H335.681C335.288 279.442 334.939 278.632 334.635 278.203C334.33 277.765 333.892 277.546 333.32 277.546H333.159V286.374H334.299V286.656H329.402V286.374H330.542V277.546H330.368C329.796 277.546 329.353 277.774 329.04 278.23C328.727 278.677 328.382 279.478 328.007 280.632H327.752L327.886 277.264H335.802ZM340.096 284.013V282.872C340.096 282.005 340.047 281.374 339.948 280.98C339.859 280.578 339.644 280.377 339.304 280.377C339.107 280.377 338.946 280.435 338.821 280.551C338.705 280.658 338.62 280.842 338.566 281.101C338.486 281.504 338.446 282.116 338.446 282.939V283.986C338.446 284.961 338.472 285.547 338.526 285.743C338.589 285.94 338.651 286.101 338.714 286.226C338.812 286.441 339.005 286.548 339.291 286.548C339.64 286.548 339.868 286.347 339.975 285.945C340.056 285.658 340.096 285.014 340.096 284.013ZM339.264 286.79C338.146 286.79 337.301 286.504 336.728 285.931C336.156 285.359 335.87 284.54 335.87 283.476C335.87 282.403 336.174 281.58 336.782 281.007C337.399 280.426 338.262 280.135 339.371 280.135C340.48 280.135 341.308 280.403 341.853 280.94C342.399 281.468 342.672 282.277 342.672 283.369C342.672 285.649 341.536 286.79 339.264 286.79ZM345.019 279.344C344.545 279.344 344.205 279.223 344 278.981C343.803 278.74 343.704 278.44 343.704 278.082C343.704 277.725 343.812 277.429 344.026 277.197C344.25 276.964 344.585 276.848 345.033 276.848C345.48 276.848 345.82 276.955 346.052 277.17C346.285 277.376 346.401 277.675 346.401 278.069C346.401 278.454 346.289 278.762 346.066 278.995C345.842 279.227 345.493 279.344 345.019 279.344ZM342.993 280.269H346.28V286.414H347.032V286.656H343.047V286.414H343.785V280.511H342.993V280.269ZM347.252 276.593H350.539V286.414H351.29V286.656H347.305V286.414H348.043V276.835H347.252V276.593ZM355.079 286.79C353.925 286.79 353.057 286.495 352.476 285.904C351.904 285.305 351.617 284.478 351.617 283.422C351.617 282.358 351.939 281.544 352.583 280.98C353.236 280.417 354.064 280.135 355.066 280.135C357.096 280.135 358.071 281.155 357.99 283.194H354.207V283.717C354.207 284.594 354.319 285.256 354.542 285.703C354.766 286.15 355.155 286.374 355.71 286.374C356.747 286.374 357.427 285.819 357.749 284.71L357.99 284.75C357.82 285.394 357.512 285.895 357.065 286.253C356.626 286.611 355.964 286.79 355.079 286.79ZM354.22 282.926H355.602V282.268C355.602 281.544 355.557 281.052 355.468 280.793C355.388 280.524 355.218 280.39 354.958 280.39C354.708 280.39 354.52 280.533 354.395 280.819C354.278 281.097 354.22 281.58 354.22 282.268V282.926ZM359.139 284.737V280.511H358.401V280.269H359.139V278.539L361.635 277.921V280.269H363.379V280.511H361.635V285.032C361.635 285.453 361.675 285.761 361.755 285.958C361.845 286.155 362.024 286.253 362.292 286.253C362.56 286.253 362.793 286.119 362.99 285.851C363.195 285.582 363.33 285.216 363.392 284.75L363.62 284.777C363.549 285.394 363.352 285.886 363.03 286.253C362.708 286.611 362.176 286.79 361.433 286.79C360.691 286.79 360.123 286.642 359.729 286.347C359.336 286.052 359.139 285.515 359.139 284.737Z" fill="#FBFBFB"/>
<circle cx="355.28" cy="95.1082" r="8.94444" fill="#E14235"/>
<path d="M357.154 101.164H354.724V94.5131L354.748 93.4203L354.787 92.2254C354.384 92.629 354.103 92.8936 353.946 93.0194L352.625 94.0807L351.454 92.6185L355.157 89.6705H357.154V101.164Z" fill="#FFD9C2"/>
<circle cx="234.083" cy="218.541" r="8.94444" fill="#E14235"/>
<path d="M237.985 224.598H229.95V222.908L232.835 219.991C233.69 219.116 234.248 218.511 234.51 218.176C234.772 217.835 234.961 217.52 235.076 217.232C235.191 216.944 235.249 216.645 235.249 216.336C235.249 215.875 235.12 215.531 234.864 215.306C234.612 215.081 234.274 214.968 233.849 214.968C233.404 214.968 232.972 215.07 232.552 215.275C232.133 215.479 231.695 215.77 231.239 216.147L229.919 214.583C230.485 214.101 230.954 213.76 231.326 213.561C231.698 213.362 232.104 213.21 232.544 213.105C232.985 212.995 233.477 212.94 234.022 212.94C234.74 212.94 235.375 213.071 235.925 213.333C236.475 213.595 236.902 213.962 237.206 214.434C237.51 214.905 237.662 215.445 237.662 216.053C237.662 216.582 237.568 217.08 237.379 217.547C237.196 218.008 236.908 218.482 236.514 218.969C236.127 219.457 235.44 220.151 234.455 221.053L232.977 222.444V222.554H237.985V224.598Z" fill="#FFD9C2"/>
<circle cx="371.827" cy="202.442" r="8.94444" fill="#E14235"/>
<path d="M375.549 199.574C375.549 200.292 375.332 200.902 374.897 201.405C374.462 201.908 373.851 202.254 373.065 202.443V202.49C373.993 202.605 374.695 202.888 375.172 203.339C375.649 203.785 375.887 204.387 375.887 205.147C375.887 206.253 375.486 207.115 374.684 207.734C373.883 208.347 372.737 208.653 371.249 208.653C370.002 208.653 368.896 208.446 367.931 208.032V205.965C368.377 206.19 368.867 206.374 369.402 206.515C369.936 206.657 370.465 206.727 370.99 206.727C371.791 206.727 372.384 206.591 372.766 206.319C373.149 206.046 373.34 205.608 373.34 205.006C373.34 204.466 373.12 204.083 372.68 203.858C372.239 203.633 371.537 203.52 370.573 203.52H369.7V201.657H370.589C371.48 201.657 372.129 201.541 372.538 201.311C372.952 201.075 373.159 200.674 373.159 200.108C373.159 199.238 372.614 198.803 371.524 198.803C371.147 198.803 370.762 198.866 370.368 198.992C369.981 199.118 369.548 199.335 369.071 199.644L367.947 197.97C368.995 197.215 370.245 196.838 371.697 196.838C372.887 196.838 373.825 197.079 374.511 197.561C375.203 198.043 375.549 198.714 375.549 199.574Z" fill="#FFD9C2"/>
<circle cx="78.4503" cy="211.386" r="8.94444" fill="#E14235"/>
<path d="M82.6111 215.06H81.2275V217.442H78.8534V215.06H73.9479V213.37L78.9871 205.948H81.2275V213.173H82.6111V215.06ZM78.8534 213.173V211.223C78.8534 210.898 78.8665 210.427 78.8927 209.808C78.9189 209.19 78.9399 208.831 78.9556 208.731H78.8927C78.6988 209.161 78.4656 209.58 78.1931 209.989L76.0862 213.173H78.8534Z" fill="#FFD9C2"/>
<circle cx="104.836" cy="341.976" r="8.94444" fill="#E14235"/>
<path d="M104.885 340.687C105.996 340.687 106.88 340.999 107.535 341.623C108.195 342.246 108.525 343.101 108.525 344.185C108.525 345.469 108.129 346.457 107.338 347.149C106.547 347.841 105.415 348.187 103.942 348.187C102.663 348.187 101.631 347.98 100.845 347.566V345.467C101.259 345.687 101.741 345.868 102.291 346.009C102.841 346.146 103.363 346.214 103.856 346.214C105.339 346.214 106.08 345.606 106.08 344.39C106.08 343.232 105.313 342.653 103.777 342.653C103.499 342.653 103.193 342.681 102.857 342.739C102.522 342.791 102.249 342.849 102.04 342.912L101.073 342.393L101.505 336.536H107.739V338.596H103.635L103.423 340.852L103.698 340.797C104.018 340.724 104.414 340.687 104.885 340.687Z" fill="#FFD9C2"/>
<circle cx="346.336" cy="346.001" r="8.94444" fill="#E14235"/>
<path d="M342.124 347.175C342.124 344.9 342.603 343.207 343.562 342.096C344.527 340.985 345.968 340.43 347.886 340.43C348.541 340.43 349.055 340.469 349.427 340.547V342.489C348.96 342.384 348.499 342.332 348.043 342.332C347.21 342.332 346.529 342.458 345.999 342.709C345.475 342.961 345.082 343.333 344.82 343.826C344.558 344.318 344.403 345.018 344.356 345.925H344.458C344.977 345.034 345.808 344.588 346.95 344.588C347.978 344.588 348.782 344.911 349.364 345.555C349.946 346.2 350.236 347.091 350.236 348.228C350.236 349.454 349.891 350.427 349.199 351.145C348.507 351.857 347.548 352.214 346.322 352.214C345.473 352.214 344.731 352.017 344.097 351.624C343.468 351.231 342.98 350.657 342.635 349.902C342.294 349.148 342.124 348.238 342.124 347.175ZM346.274 350.272C346.793 350.272 347.192 350.099 347.469 349.753C347.747 349.402 347.886 348.904 347.886 348.259C347.886 347.699 347.755 347.258 347.493 346.939C347.236 346.614 346.846 346.451 346.322 346.451C345.829 346.451 345.407 346.611 345.056 346.931C344.71 347.251 344.537 347.623 344.537 348.047C344.537 348.671 344.699 349.198 345.024 349.627C345.355 350.057 345.771 350.272 346.274 350.272Z" fill="#FFD9C2"/>
<circle cx="403.58" cy="295.465" r="8.94444" fill="#E14235"/>
<path d="M400.587 301.52L404.903 292.086H399.235V290.042H407.482V291.567L403.134 301.52H400.587Z" fill="#FFD9C2"/>
</svg>
