<svg width="495" height="491" viewBox="0 0 495 491" fill="none" xmlns="http://www.w3.org/2000/svg">
<rect x="0.5" y="0.5" width="494" height="490" rx="9.5" stroke="#6699FF"/>
<rect x="5" y="22" width="484.101" height="397.59" fill="#6699FF" stroke="#FDEFF7" stroke-width="4.48242"/>
<rect x="5" y="309.772" width="123.266" height="109.819" fill="#6699FF" stroke="#FDEFF7" stroke-width="4.48242"/>
<path fill-rule="evenodd" clip-rule="evenodd" d="M181.607 22H5V123.75V128.233V268.532H128.266V128.233H181.607V22Z" fill="#6699FF"/>
<path d="M5 22V19.7588H2.75879V22H5ZM181.607 22H183.848V19.7588H181.607V22ZM5 268.532H2.75879V270.773H5V268.532ZM128.266 268.532V270.773H130.508V268.532H128.266ZM128.266 128.233V125.992H126.025V128.233H128.266ZM181.607 128.233V130.475H183.848V128.233H181.607ZM5 24.2412H181.607V19.7588H5V24.2412ZM7.24121 123.75V22H2.75879V123.75H7.24121ZM7.24121 128.233V123.75H2.75879V128.233H7.24121ZM7.24121 268.532V128.233H2.75879V268.532H7.24121ZM128.266 266.291H5V270.773H128.266V266.291ZM126.025 128.233V268.532H130.508V128.233H126.025ZM181.607 125.992H128.266V130.475H181.607V125.992ZM179.366 22V128.233H183.848V22H179.366Z" fill="#FDEFF7"/>
<rect x="181.607" y="22" width="307.494" height="106.233" fill="#6699FF" stroke="#FDEFF7" stroke-width="4.48242"/>
<rect x="349.249" y="128.233" width="140.3" height="146.575" fill="#6699FF" stroke="#FDEFF7" stroke-width="4.48242"/>
<rect x="282.909" y="315.6" width="206.191" height="103.992" fill="#6699FF" stroke="#FDEFF7" stroke-width="4.48242"/>
<path fill-rule="evenodd" clip-rule="evenodd" d="M194.444 387.299H196.686H279.936H282.177V389.54V417.134V419.376H279.936H196.686H194.444V417.134V389.54V387.299ZM198.927 391.782V414.893H201.01V391.782H198.927ZM207.496 414.893H204.702V391.782H207.496V414.893ZM204.254 391.782V414.893H201.458V391.782H204.254ZM211.189 414.893H213.984V391.782H211.189V414.893ZM210.741 414.893V391.782H207.944V414.893H210.741ZM220.471 414.893H217.676V391.782H220.471V414.893ZM217.228 391.782V414.893H214.433V391.782H217.228ZM224.163 414.893H226.958V391.782H224.163V414.893ZM223.715 414.893V391.782H220.919V414.893H223.715ZM233.444 414.893H230.65V391.782H233.444V414.893ZM230.202 391.782V414.893H227.406V391.782H230.202ZM237.137 414.893H239.932V391.782H237.137V414.893ZM236.689 414.893V391.782H233.893V414.893H236.689ZM246.419 414.893H243.624V391.782H246.419V414.893ZM243.176 391.782V414.893H240.38V391.782H243.176ZM250.11 414.893H252.907V391.782H250.11V414.893ZM249.662 414.893V391.782H246.867V414.893H249.662ZM259.394 414.893H256.598V391.782H259.394V414.893ZM256.149 391.782V414.893H253.356V391.782H256.149ZM263.084 414.893H265.88V391.782H263.084V414.893ZM262.636 414.893V391.782H259.842V414.893H262.636ZM272.367 414.893H269.572V391.782H272.367V414.893ZM269.124 391.782V414.893H266.328V391.782H269.124ZM276.059 414.893H277.694V391.782H276.059V414.893ZM275.61 414.893V391.782H272.816V414.893H275.61Z" fill="#FDEFF7"/>
<path fill-rule="evenodd" clip-rule="evenodd" d="M194.606 360.422H196.848H280.098H282.339V362.663V390.257V392.499H280.098H196.848H194.606V390.257V362.663V360.422ZM199.089 364.905V388.016H201.172V364.905H199.089ZM207.658 388.016H204.864V364.905H207.658V388.016ZM204.416 364.905V388.016H201.62V364.905H204.416ZM211.352 388.016H214.147V364.905H211.352V388.016ZM210.903 388.016V364.905H208.106V388.016H210.903ZM220.633 388.016H217.838V364.905H220.633V388.016ZM217.39 364.905V388.016H214.595V364.905H217.39ZM224.325 388.016H227.12V364.905H224.325V388.016ZM223.877 388.016V364.905H221.081V388.016H223.877ZM233.606 388.016H230.813V364.905H233.606V388.016ZM230.364 364.905V388.016H227.568V364.905H230.364ZM237.299 388.016H240.094V364.905H237.299V388.016ZM236.851 388.016V364.905H234.055V388.016H236.851ZM246.581 388.016H243.786V364.905H246.581V388.016ZM243.338 364.905V388.016H240.542V364.905H243.338ZM250.273 388.016H253.069V364.905H250.273V388.016ZM249.824 388.016V364.905H247.029V388.016H249.824ZM259.556 388.016H256.76V364.905H259.556V388.016ZM256.312 364.905V388.016H253.518V364.905H256.312ZM263.246 388.016H266.042V364.905H263.246V388.016ZM262.798 388.016V364.905H260.004V388.016H262.798ZM272.529 388.016H269.734V364.905H272.529V388.016ZM269.286 364.905V388.016H266.49V364.905H269.286ZM276.221 388.016H277.856V364.905H276.221V388.016ZM275.773 388.016V364.905H272.978V388.016H275.773Z" fill="#FDEFF7"/>
<path fill-rule="evenodd" clip-rule="evenodd" d="M196.849 315.6H178.471V375.216H196.849V363.114H212.986V315.6H196.849V315.6Z" fill="#6699FF"/>
<path d="M178.471 315.6V313.359H176.229V315.6H178.471ZM196.849 315.6H199.09V313.359H196.849V315.6ZM178.471 375.216H176.229V377.457H178.471V375.216ZM196.849 375.216V377.457H199.09V375.216H196.849ZM196.849 363.114V360.873H194.607V363.114H196.849ZM212.986 363.114V365.355H215.227V363.114H212.986ZM212.986 315.6H215.227V313.359H212.986V315.6ZM196.849 315.6H194.607V317.842H196.849V315.6ZM178.471 317.841H196.849V313.359H178.471V317.841ZM180.712 375.216V315.6H176.229V375.216H180.712ZM196.849 372.975H178.471V377.457H196.849V372.975ZM194.607 363.114V375.216H199.09V363.114H194.607ZM212.986 360.873H196.849V365.355H212.986V360.873ZM210.744 315.6V363.114H215.227V315.6H210.744ZM196.849 317.842H212.986V313.359H196.849V317.842ZM194.607 315.6V315.6H199.09V315.6H194.607Z" fill="#FDEFF7"/>
<rect x="196.848" y="330.391" width="85.1659" height="32.2734" fill="#6699FF" stroke="#FDEFF7" stroke-width="4.48242"/>
<line x1="212.984" y1="330.392" x2="212.984" y2="363.562" stroke="#FDEFF7" stroke-width="4.48242"/>
<line x1="249.291" y1="331.288" x2="249.291" y2="364.458" stroke="#FDEFF7" stroke-width="4.48242"/>
<rect x="175.78" y="167.231" width="125.508" height="107.578" fill="#F2F2F2"/>
<rect x="349.249" y="274.809" width="138.058" height="40.79" fill="#6699FF" stroke="#FDEFF7" stroke-width="4.48242"/>
<rect x="5" y="268.534" width="123.266" height="40.79" fill="#6699FF" stroke="#FDEFF7" stroke-width="4.48242"/>
<path d="M179.934 432.489H192.843V433.278H189.042V456.801H190.333C192.365 456.801 193.979 456.18 195.174 454.937C196.393 453.694 197.624 451.781 198.867 449.199H199.62L198.939 457.59H179.934V456.801H182.049V433.278H179.934V432.489ZM209.507 449.163H210.547V446.402C210.547 444.131 210.415 442.613 210.152 441.848C209.913 441.059 209.435 440.665 208.718 440.665C208.288 440.665 207.893 440.784 207.535 441.023C207.2 441.238 207.033 441.549 207.033 441.956C207.033 442.338 207.104 442.733 207.248 443.139H208.144C208.336 443.641 208.431 444.251 208.431 444.968C208.431 445.661 208.132 446.271 207.535 446.797C206.937 447.299 206.184 447.55 205.276 447.55C203.22 447.55 202.192 446.558 202.192 444.573C202.192 441.633 204.69 440.163 209.686 440.163C212.531 440.163 214.491 440.653 215.567 441.633C216.667 442.589 217.217 444.358 217.217 446.94V454.22C217.217 455.463 217.563 456.084 218.257 456.084C219.069 456.084 219.548 454.853 219.691 452.391L220.229 452.427C220.133 454.53 219.739 455.977 219.046 456.766C218.352 457.554 217.217 457.949 215.639 457.949C212.77 457.949 211.121 457.064 210.69 455.295C210.38 456.204 209.913 456.873 209.292 457.303C208.67 457.734 207.762 457.949 206.566 457.949C203.028 457.949 201.259 456.503 201.259 453.61C201.259 451.913 201.929 450.753 203.267 450.132C204.63 449.486 206.71 449.163 209.507 449.163ZM208.073 453.574C208.073 454.817 208.132 455.618 208.252 455.977C208.395 456.335 208.646 456.515 209.005 456.515C209.387 456.515 209.734 456.216 210.045 455.618C210.38 454.997 210.547 454.148 210.547 453.072V449.737H210.296C208.814 449.737 208.073 450.825 208.073 453V453.574ZM220.653 440.521H229.295V443.82C229.678 442.721 230.263 441.836 231.052 441.167C231.841 440.497 233.036 440.163 234.638 440.163C238.344 440.163 240.196 442.159 240.196 446.151V456.945H242.205V457.59H232.056V456.945H233.527V445.291C233.527 443.856 233.431 442.936 233.24 442.529C233.048 442.099 232.702 441.884 232.2 441.884C231.435 441.884 230.753 442.386 230.156 443.39C229.582 444.394 229.295 445.613 229.295 447.048V456.945H230.837V457.59H220.653V456.945H222.625V441.167H220.653V440.521ZM244.296 452.462V441.167H242.324V440.521H244.296V435.895L250.966 434.246V440.521H255.628V441.167H250.966V453.251C250.966 454.375 251.074 455.2 251.289 455.726C251.528 456.252 252.006 456.515 252.723 456.515C253.44 456.515 254.062 456.156 254.588 455.439C255.138 454.722 255.496 453.741 255.664 452.498L256.273 452.57C256.082 454.22 255.556 455.534 254.695 456.515C253.835 457.471 252.412 457.949 250.428 457.949C248.444 457.949 246.926 457.554 245.874 456.766C244.822 455.977 244.296 454.542 244.296 452.462ZM265.222 449.163H266.262V446.402C266.262 444.131 266.13 442.613 265.867 441.848C265.628 441.059 265.15 440.665 264.433 440.665C264.003 440.665 263.608 440.784 263.25 441.023C262.915 441.238 262.748 441.549 262.748 441.956C262.748 442.338 262.819 442.733 262.963 443.139H263.859C264.051 443.641 264.146 444.251 264.146 444.968C264.146 445.661 263.847 446.271 263.25 446.797C262.652 447.299 261.899 447.55 260.991 447.55C258.935 447.55 257.907 446.558 257.907 444.573C257.907 441.633 260.405 440.163 265.401 440.163C268.246 440.163 270.206 440.653 271.282 441.633C272.382 442.589 272.932 444.358 272.932 446.94V454.22C272.932 455.463 273.278 456.084 273.972 456.084C274.784 456.084 275.263 454.853 275.406 452.391L275.944 452.427C275.848 454.53 275.454 455.977 274.761 456.766C274.067 457.554 272.932 457.949 271.354 457.949C268.485 457.949 266.836 457.064 266.405 455.295C266.095 456.204 265.628 456.873 265.007 457.303C264.385 457.734 263.477 457.949 262.282 457.949C258.743 457.949 256.974 456.503 256.974 453.61C256.974 451.913 257.644 450.753 258.982 450.132C260.345 449.486 262.425 449.163 265.222 449.163ZM263.788 453.574C263.788 454.817 263.847 455.618 263.967 455.977C264.11 456.335 264.361 456.515 264.72 456.515C265.102 456.515 265.449 456.216 265.76 455.618C266.095 454.997 266.262 454.148 266.262 453.072V449.737H266.011C264.529 449.737 263.788 450.825 263.788 453V453.574ZM281.568 438.047C280.301 438.047 279.392 437.724 278.842 437.079C278.316 436.433 278.053 435.632 278.053 434.676C278.053 433.72 278.34 432.931 278.914 432.309C279.512 431.688 280.408 431.377 281.604 431.377C282.799 431.377 283.707 431.664 284.329 432.238C284.95 432.788 285.261 433.588 285.261 434.64C285.261 435.668 284.962 436.493 284.365 437.115C283.767 437.736 282.835 438.047 281.568 438.047ZM276.153 440.521H284.938V456.945H286.947V457.59H276.296V456.945H278.269V441.167H276.153V440.521ZM300.289 457.59V456.909H303.66V451.172H293.942V450.49L304.054 432.489H310.258V450.311H313.808V447.191H314.489V453.825H313.808V451.172H310.258V456.909H312.732V457.59H300.289ZM295.089 450.311H303.66V435.214L295.089 450.311Z" fill="#181818"/>
<path d="M52.374 372.596H40.3974V370.077L44.6982 365.729C45.9716 364.424 46.8037 363.522 47.1943 363.022C47.5849 362.514 47.8662 362.045 48.0381 361.616C48.2099 361.186 48.2959 360.741 48.2959 360.28C48.2959 359.592 48.1045 359.08 47.7216 358.745C47.3466 358.409 46.8427 358.241 46.2099 358.241C45.5459 358.241 44.9013 358.393 44.2763 358.698C43.6513 359.002 42.999 359.436 42.3193 359.998L40.3506 357.666C41.1943 356.948 41.8935 356.44 42.4482 356.143C43.0029 355.846 43.6084 355.62 44.2646 355.463C44.9209 355.299 45.6552 355.217 46.4677 355.217C47.5381 355.217 48.4834 355.413 49.3037 355.803C50.124 356.194 50.7607 356.741 51.2138 357.444C51.667 358.147 51.8935 358.952 51.8935 359.858C51.8935 360.647 51.7529 361.389 51.4716 362.084C51.1982 362.772 50.7685 363.479 50.1826 364.205C49.6045 364.932 48.581 365.967 47.1123 367.311L44.9091 369.385V369.549H52.374V372.596ZM66.4716 369.045H64.4091V372.596H60.8701V369.045H53.5576V366.526L61.0693 355.463H64.4091V366.233H66.4716V369.045ZM60.8701 366.233V363.327C60.8701 362.842 60.8896 362.139 60.9287 361.217C60.9677 360.295 60.999 359.76 61.0224 359.612H60.9287C60.6396 360.252 60.292 360.877 59.8857 361.487L56.7451 366.233H60.8701ZM79.7021 364.03C79.7021 367.022 79.2099 369.237 78.2256 370.674C77.249 372.112 75.7412 372.83 73.7021 372.83C71.7256 372.83 70.2334 372.088 69.2256 370.604C68.2256 369.12 67.7256 366.928 67.7256 364.03C67.7256 361.006 68.2138 358.78 69.1904 357.35C70.167 355.913 71.6709 355.194 73.7021 355.194C75.6787 355.194 77.1709 355.944 78.1787 357.444C79.1943 358.944 79.7021 361.139 79.7021 364.03ZM71.3232 364.03C71.3232 366.131 71.5029 367.639 71.8623 368.553C72.2295 369.459 72.8427 369.913 73.7021 369.913C74.5459 369.913 75.1552 369.452 75.5302 368.53C75.9052 367.608 76.0927 366.108 76.0927 364.03C76.0927 361.928 75.9013 360.42 75.5185 359.506C75.1435 358.584 74.5381 358.123 73.7021 358.123C72.8506 358.123 72.2412 358.584 71.874 359.506C71.5068 360.42 71.3232 361.928 71.3232 364.03ZM90.4834 372.596H86.8623V362.682L86.8974 361.053L86.956 359.272C86.3545 359.873 85.9365 360.268 85.7021 360.455L83.7334 362.038L81.9873 359.858L87.5068 355.463H90.4834V372.596Z" fill="#FBFBFB"/>
<path d="M320.646 84.375H308.669V81.8555L312.97 77.5079C314.244 76.2032 315.076 75.3008 315.466 74.8008C315.857 74.293 316.138 73.8243 316.31 73.3946C316.482 72.9649 316.568 72.5196 316.568 72.0586C316.568 71.3711 316.376 70.8594 315.994 70.5235C315.619 70.1875 315.115 70.0196 314.482 70.0196C313.818 70.0196 313.173 70.1719 312.548 70.4766C311.923 70.7813 311.271 71.2149 310.591 71.7774L308.623 69.4454C309.466 68.7266 310.165 68.2188 310.72 67.9219C311.275 67.625 311.88 67.3985 312.537 67.2422C313.193 67.0782 313.927 66.9961 314.74 66.9961C315.81 66.9961 316.755 67.1914 317.576 67.5821C318.396 67.9727 319.033 68.5196 319.486 69.2227C319.939 69.9258 320.165 70.7305 320.165 71.6368C320.165 72.4258 320.025 73.168 319.744 73.8633C319.47 74.5508 319.04 75.2579 318.455 75.9844C317.876 76.711 316.853 77.7461 315.384 79.0899L313.181 81.1641V81.3282H320.646V84.375ZM334.744 80.8243H332.681V84.375H329.142V80.8243H321.83V78.3047L329.341 67.2422H332.681V78.0118H334.744V80.8243ZM329.142 78.0118V75.1055C329.142 74.6211 329.162 73.918 329.201 72.9961C329.24 72.0743 329.271 71.5391 329.294 71.3907H329.201C328.912 72.0313 328.564 72.6563 328.158 73.2657L325.017 78.0118H329.142ZM347.974 75.8086C347.974 78.8008 347.482 81.0157 346.498 82.4532C345.521 83.8907 344.013 84.6094 341.974 84.6094C339.998 84.6094 338.505 83.8672 337.498 82.3829C336.498 80.8985 335.998 78.7071 335.998 75.8086C335.998 72.7852 336.486 70.5586 337.462 69.1289C338.439 67.6914 339.943 66.9727 341.974 66.9727C343.951 66.9727 345.443 67.7227 346.451 69.2227C347.466 70.7227 347.974 72.918 347.974 75.8086ZM339.595 75.8086C339.595 77.9102 339.775 79.418 340.134 80.3321C340.501 81.2383 341.115 81.6914 341.974 81.6914C342.818 81.6914 343.427 81.2305 343.802 80.3086C344.177 79.3868 344.365 77.8868 344.365 75.8086C344.365 73.7071 344.173 72.1993 343.79 71.2852C343.415 70.3633 342.81 69.9024 341.974 69.9024C341.123 69.9024 340.513 70.3633 340.146 71.2852C339.779 72.1993 339.595 73.7071 339.595 75.8086ZM362.165 80.8243H360.103V84.375H356.564V80.8243H349.251V78.3047L356.763 67.2422H360.103V78.0118H362.165V80.8243ZM356.564 78.0118V75.1055C356.564 74.6211 356.583 73.918 356.623 72.9961C356.662 72.0743 356.693 71.5391 356.716 71.3907H356.623C356.333 72.0313 355.986 72.6563 355.58 73.2657L352.439 78.0118H356.564Z" fill="#FBFBFB"/>
<path d="M405.139 210.781H393.162V208.262L397.463 203.914C398.736 202.61 399.568 201.707 399.959 201.207C400.35 200.699 400.631 200.231 400.803 199.801C400.975 199.371 401.061 198.926 401.061 198.465C401.061 197.778 400.869 197.266 400.486 196.93C400.111 196.594 399.607 196.426 398.975 196.426C398.311 196.426 397.666 196.578 397.041 196.883C396.416 197.188 395.764 197.621 395.084 198.184L393.115 195.852C393.959 195.133 394.658 194.625 395.213 194.328C395.768 194.031 396.373 193.805 397.029 193.649C397.686 193.485 398.42 193.403 399.232 193.403C400.303 193.403 401.248 193.598 402.068 193.988C402.889 194.379 403.525 194.926 403.978 195.629C404.432 196.332 404.658 197.137 404.658 198.043C404.658 198.832 404.518 199.574 404.236 200.27C403.963 200.957 403.533 201.664 402.947 202.391C402.369 203.117 401.346 204.153 399.877 205.496L397.674 207.571V207.735H405.139V210.781ZM419.236 207.231H417.174V210.781H413.635V207.231H406.322V204.711L413.834 193.649H417.174V204.418H419.236V207.231ZM413.635 204.418V201.512C413.635 201.028 413.654 200.324 413.693 199.403C413.732 198.481 413.764 197.946 413.787 197.797H413.693C413.404 198.438 413.057 199.063 412.65 199.672L409.51 204.418H413.635ZM432.467 202.215C432.467 205.207 431.975 207.422 430.99 208.86C430.014 210.297 428.506 211.016 426.467 211.016C424.49 211.016 422.998 210.274 421.99 208.789C420.99 207.305 420.49 205.113 420.49 202.215C420.49 199.192 420.978 196.965 421.955 195.535C422.932 194.098 424.436 193.379 426.467 193.379C428.443 193.379 429.936 194.129 430.943 195.629C431.959 197.129 432.467 199.324 432.467 202.215ZM424.088 202.215C424.088 204.317 424.268 205.824 424.627 206.738C424.994 207.645 425.607 208.098 426.467 208.098C427.311 208.098 427.92 207.637 428.295 206.715C428.67 205.793 428.857 204.293 428.857 202.215C428.857 200.113 428.666 198.606 428.283 197.692C427.908 196.77 427.303 196.309 426.467 196.309C425.615 196.309 425.006 196.77 424.639 197.692C424.271 198.606 424.088 200.113 424.088 202.215ZM440.529 199.836C442.186 199.836 443.502 200.301 444.478 201.231C445.463 202.16 445.955 203.434 445.955 205.051C445.955 206.965 445.365 208.438 444.186 209.469C443.006 210.5 441.318 211.016 439.123 211.016C437.217 211.016 435.678 210.707 434.506 210.09V206.961C435.123 207.289 435.842 207.559 436.662 207.77C437.482 207.973 438.26 208.074 438.994 208.074C441.205 208.074 442.311 207.168 442.311 205.356C442.311 203.629 441.166 202.766 438.877 202.766C438.463 202.766 438.006 202.809 437.506 202.895C437.006 202.973 436.6 203.059 436.287 203.153L434.846 202.379L435.49 193.649H444.783V196.719H438.666L438.35 200.082L438.76 200C439.236 199.891 439.826 199.836 440.529 199.836Z" fill="#FBFBFB"/>
<path d="M371.521 380.215H359.545V377.696L363.846 373.348C365.119 372.043 365.951 371.141 366.342 370.641C366.732 370.133 367.014 369.664 367.186 369.235C367.357 368.805 367.443 368.36 367.443 367.899C367.443 367.211 367.252 366.7 366.869 366.364C366.494 366.028 365.99 365.86 365.357 365.86C364.693 365.86 364.049 366.012 363.424 366.317C362.799 366.621 362.146 367.055 361.467 367.618L359.498 365.286C360.342 364.567 361.041 364.059 361.596 363.762C362.15 363.465 362.756 363.239 363.412 363.082C364.068 362.918 364.803 362.836 365.615 362.836C366.686 362.836 367.631 363.032 368.451 363.422C369.271 363.813 369.908 364.36 370.361 365.063C370.814 365.766 371.041 366.571 371.041 367.477C371.041 368.266 370.9 369.008 370.619 369.704C370.346 370.391 369.916 371.098 369.33 371.825C368.752 372.551 367.728 373.586 366.26 374.93L364.057 377.004V377.168H371.521V380.215ZM385.619 376.664H383.557V380.215H380.018V376.664H372.705V374.145L380.217 363.082H383.557V373.852H385.619V376.664ZM380.018 373.852V370.946C380.018 370.461 380.037 369.758 380.076 368.836C380.115 367.914 380.146 367.379 380.17 367.231H380.076C379.787 367.871 379.439 368.496 379.033 369.106L375.893 373.852H380.018ZM398.85 371.649C398.85 374.641 398.357 376.856 397.373 378.293C396.396 379.731 394.889 380.45 392.85 380.45C390.873 380.45 389.381 379.707 388.373 378.223C387.373 376.739 386.873 374.547 386.873 371.649C386.873 368.625 387.361 366.399 388.338 364.969C389.314 363.532 390.818 362.813 392.85 362.813C394.826 362.813 396.318 363.563 397.326 365.063C398.342 366.563 398.85 368.758 398.85 371.649ZM390.471 371.649C390.471 373.75 390.65 375.258 391.01 376.172C391.377 377.079 391.99 377.532 392.85 377.532C393.693 377.532 394.303 377.071 394.678 376.149C395.053 375.227 395.24 373.727 395.24 371.649C395.24 369.547 395.049 368.039 394.666 367.125C394.291 366.204 393.686 365.743 392.85 365.743C391.998 365.743 391.389 366.204 391.021 367.125C390.654 368.039 390.471 369.547 390.471 371.649ZM400.561 372.938C400.561 369.547 401.275 367.024 402.705 365.368C404.143 363.711 406.291 362.883 409.15 362.883C410.127 362.883 410.893 362.942 411.447 363.059V365.954C410.752 365.797 410.064 365.719 409.385 365.719C408.143 365.719 407.127 365.907 406.338 366.282C405.557 366.657 404.971 367.211 404.58 367.946C404.189 368.68 403.959 369.723 403.889 371.075H404.041C404.814 369.746 406.053 369.082 407.756 369.082C409.287 369.082 410.486 369.563 411.353 370.524C412.221 371.485 412.654 372.813 412.654 374.508C412.654 376.336 412.139 377.786 411.107 378.856C410.076 379.918 408.646 380.45 406.818 380.45C405.553 380.45 404.447 380.157 403.502 379.571C402.564 378.985 401.838 378.129 401.322 377.004C400.814 375.879 400.561 374.524 400.561 372.938ZM406.748 377.555C407.521 377.555 408.115 377.297 408.529 376.782C408.943 376.258 409.15 375.516 409.15 374.555C409.15 373.719 408.955 373.063 408.564 372.586C408.182 372.102 407.6 371.86 406.818 371.86C406.084 371.86 405.455 372.098 404.932 372.575C404.416 373.051 404.158 373.606 404.158 374.239C404.158 375.168 404.4 375.954 404.885 376.594C405.377 377.235 405.998 377.555 406.748 377.555Z" fill="#FBFBFB"/>
<path d="M52.1489 120.754H40.1723V118.234L44.4731 113.887C45.7465 112.582 46.5786 111.68 46.9692 111.18C47.3598 110.672 47.6411 110.203 47.813 109.774C47.9848 109.344 48.0708 108.899 48.0708 108.438C48.0708 107.75 47.8794 107.238 47.4965 106.902C47.1215 106.566 46.6176 106.399 45.9848 106.399C45.3208 106.399 44.6762 106.551 44.0512 106.856C43.4262 107.16 42.7739 107.594 42.0942 108.156L40.1255 105.824C40.9692 105.106 41.6684 104.598 42.2231 104.301C42.7778 104.004 43.3833 103.777 44.0395 103.621C44.6958 103.457 45.4301 103.375 46.2426 103.375C47.313 103.375 48.2583 103.57 49.0786 103.961C49.8989 104.352 50.5356 104.899 50.9887 105.602C51.4419 106.305 51.6684 107.109 51.6684 108.016C51.6684 108.805 51.5278 109.547 51.2465 110.242C50.9731 110.93 50.5434 111.637 49.9575 112.363C49.3794 113.09 48.3559 114.125 46.8872 115.469L44.684 117.543V117.707H52.1489V120.754ZM66.2465 117.203H64.184V120.754H60.645V117.203H53.3325V114.684L60.8442 103.621H64.184V114.391H66.2465V117.203ZM60.645 114.391V111.484C60.645 111 60.6645 110.297 60.7036 109.375C60.7426 108.453 60.7739 107.918 60.7973 107.77H60.7036C60.4145 108.41 60.0669 109.035 59.6606 109.645L56.52 114.391H60.645ZM79.477 112.188C79.477 115.18 78.9848 117.395 78.0005 118.832C77.0239 120.27 75.5161 120.988 73.477 120.988C71.5005 120.988 70.0083 120.246 69.0005 118.762C68.0005 117.277 67.5005 115.086 67.5005 112.188C67.5005 109.164 67.9887 106.938 68.9653 105.508C69.9419 104.07 71.4458 103.352 73.477 103.352C75.4536 103.352 76.9458 104.102 77.9536 105.602C78.9692 107.102 79.477 109.297 79.477 112.188ZM71.0981 112.188C71.0981 114.289 71.2778 115.797 71.6372 116.711C72.0044 117.617 72.6176 118.07 73.477 118.07C74.3208 118.07 74.9301 117.609 75.3051 116.688C75.6801 115.766 75.8676 114.266 75.8676 112.188C75.8676 110.086 75.6762 108.578 75.2934 107.664C74.9184 106.742 74.313 106.281 73.477 106.281C72.6255 106.281 72.0161 106.742 71.6489 107.664C71.2817 108.578 71.0981 110.086 71.0981 112.188ZM92.6137 107.453C92.6137 108.524 92.2895 109.434 91.6411 110.184C90.9926 110.934 90.0825 111.449 88.9106 111.731V111.801C90.2934 111.973 91.3403 112.395 92.0512 113.066C92.7622 113.731 93.1176 114.629 93.1176 115.762C93.1176 117.41 92.52 118.695 91.3247 119.617C90.1294 120.531 88.4223 120.988 86.2036 120.988C84.3442 120.988 82.6958 120.68 81.2583 120.063V116.981C81.9223 117.316 82.6528 117.59 83.4497 117.801C84.2465 118.012 85.0356 118.117 85.8169 118.117C87.0122 118.117 87.895 117.914 88.4653 117.508C89.0356 117.102 89.3208 116.449 89.3208 115.551C89.3208 114.746 88.9926 114.176 88.3364 113.84C87.6801 113.504 86.6333 113.336 85.1958 113.336H83.895V110.559H85.2192C86.5473 110.559 87.5161 110.387 88.1255 110.043C88.7426 109.691 89.0512 109.094 89.0512 108.25C89.0512 106.953 88.2387 106.305 86.6137 106.305C86.0512 106.305 85.477 106.399 84.8911 106.586C84.313 106.774 83.6684 107.098 82.9575 107.559L81.2817 105.063C82.8442 103.938 84.7075 103.375 86.8715 103.375C88.645 103.375 90.0434 103.734 91.0669 104.453C92.0981 105.172 92.6137 106.172 92.6137 107.453ZM52.1489 153.754H40.1723V151.234L44.4731 146.887C45.7465 145.582 46.5786 144.68 46.9692 144.18C47.3598 143.672 47.6411 143.203 47.813 142.774C47.9848 142.344 48.0708 141.899 48.0708 141.438C48.0708 140.75 47.8794 140.238 47.4965 139.902C47.1215 139.566 46.6176 139.399 45.9848 139.399C45.3208 139.399 44.6762 139.551 44.0512 139.856C43.4262 140.16 42.7739 140.594 42.0942 141.156L40.1255 138.824C40.9692 138.106 41.6684 137.598 42.2231 137.301C42.7778 137.004 43.3833 136.777 44.0395 136.621C44.6958 136.457 45.4301 136.375 46.2426 136.375C47.313 136.375 48.2583 136.57 49.0786 136.961C49.8989 137.352 50.5356 137.899 50.9887 138.602C51.4419 139.305 51.6684 140.109 51.6684 141.016C51.6684 141.805 51.5278 142.547 51.2465 143.242C50.9731 143.93 50.5434 144.637 49.9575 145.363C49.3794 146.09 48.3559 147.125 46.8872 148.469L44.684 150.543V150.707H52.1489V153.754ZM66.2465 150.203H64.184V153.754H60.645V150.203H53.3325V147.684L60.8442 136.621H64.184V147.391H66.2465V150.203ZM60.645 147.391V144.484C60.645 144 60.6645 143.297 60.7036 142.375C60.7426 141.453 60.7739 140.918 60.7973 140.77H60.7036C60.4145 141.41 60.0669 142.035 59.6606 142.645L56.52 147.391H60.645ZM79.477 145.188C79.477 148.18 78.9848 150.395 78.0005 151.832C77.0239 153.27 75.5161 153.988 73.477 153.988C71.5005 153.988 70.0083 153.246 69.0005 151.762C68.0005 150.277 67.5005 148.086 67.5005 145.188C67.5005 142.164 67.9887 139.938 68.9653 138.508C69.9419 137.07 71.4458 136.352 73.477 136.352C75.4536 136.352 76.9458 137.102 77.9536 138.602C78.9692 140.102 79.477 142.297 79.477 145.188ZM71.0981 145.188C71.0981 147.289 71.2778 148.797 71.6372 149.711C72.0044 150.617 72.6176 151.07 73.477 151.07C74.3208 151.07 74.9301 150.609 75.3051 149.688C75.6801 148.766 75.8676 147.266 75.8676 145.188C75.8676 143.086 75.6762 141.578 75.2934 140.664C74.9184 139.742 74.313 139.281 73.477 139.281C72.6255 139.281 72.0161 139.742 71.6489 140.664C71.2817 141.578 71.0981 143.086 71.0981 145.188ZM93.2817 153.754H81.3051V151.234L85.6059 146.887C86.8794 145.582 87.7114 144.68 88.102 144.18C88.4926 143.672 88.7739 143.203 88.9458 142.774C89.1176 142.344 89.2036 141.899 89.2036 141.438C89.2036 140.75 89.0122 140.238 88.6294 139.902C88.2544 139.566 87.7505 139.399 87.1176 139.399C86.4536 139.399 85.809 139.551 85.184 139.856C84.559 140.16 83.9067 140.594 83.227 141.156L81.2583 138.824C82.102 138.106 82.8012 137.598 83.3559 137.301C83.9106 137.004 84.5161 136.777 85.1723 136.621C85.8286 136.457 86.563 136.375 87.3755 136.375C88.4458 136.375 89.3911 136.57 90.2114 136.961C91.0317 137.352 91.6684 137.899 92.1215 138.602C92.5747 139.305 92.8012 140.109 92.8012 141.016C92.8012 141.805 92.6606 142.547 92.3794 143.242C92.1059 143.93 91.6762 144.637 91.0903 145.363C90.5122 146.09 89.4887 147.125 88.02 148.469L85.8169 150.543V150.707H93.2817V153.754Z" fill="#FBFBFB"/>
<path d="M37.7172 283.65L37.8785 287.7H37.5719C37.0986 286.269 36.6791 285.296 36.3133 284.779C35.9475 284.252 35.4204 283.989 34.7319 283.989H34.5382V294.607H35.9099V294.946H30.02V294.607H31.3916V283.989H31.1818C30.4933 283.989 29.9608 284.263 29.5843 284.812C29.2078 285.35 28.7936 286.312 28.3418 287.7H28.0352L28.1965 283.65H37.7172ZM42.8817 291.767V290.395C42.8817 289.352 42.8225 288.593 42.7042 288.12C42.5966 287.636 42.3384 287.394 41.9296 287.394C41.6929 287.394 41.4993 287.464 41.3487 287.603C41.2088 287.733 41.1066 287.953 41.0421 288.265C40.9453 288.749 40.8969 289.486 40.8969 290.476V291.734C40.8969 292.907 40.9291 293.612 40.9937 293.848C41.069 294.085 41.1443 294.279 41.2196 294.429C41.3379 294.687 41.5692 294.817 41.9135 294.817C42.333 294.817 42.6074 294.574 42.7364 294.09C42.8333 293.746 42.8817 292.972 42.8817 291.767ZM41.8812 295.107C40.5365 295.107 39.5199 294.763 38.8314 294.074C38.1429 293.386 37.7986 292.401 37.7986 291.121C37.7986 289.83 38.1644 288.841 38.8959 288.152C39.6382 287.453 40.6763 287.103 42.0103 287.103C43.3443 287.103 44.3394 287.426 44.9956 288.071C45.6518 288.706 45.9799 289.68 45.9799 290.992C45.9799 293.735 44.6137 295.107 41.8812 295.107ZM48.8033 286.151C48.2332 286.151 47.8244 286.006 47.577 285.715C47.3403 285.425 47.2219 285.065 47.2219 284.634C47.2219 284.204 47.351 283.849 47.6092 283.569C47.8782 283.29 48.2816 283.15 48.8195 283.15C49.3574 283.15 49.7662 283.279 50.0459 283.537C50.3256 283.784 50.4654 284.145 50.4654 284.618C50.4654 285.081 50.331 285.452 50.062 285.732C49.7931 286.011 49.3735 286.151 48.8033 286.151ZM46.3667 287.265H50.3202V294.655H51.2239V294.946H46.4312V294.655H47.3188V287.555H46.3667V287.265ZM51.4882 282.843H55.4417V294.655H56.3454V294.946H51.5528V294.655H52.4403V283.134H51.4882V282.843ZM60.9025 295.107C59.5147 295.107 58.4712 294.752 57.772 294.042C57.0835 293.321 56.7392 292.326 56.7392 291.057C56.7392 289.776 57.1265 288.798 57.901 288.12C58.6864 287.442 59.6815 287.103 60.8863 287.103C63.3284 287.103 64.501 288.33 64.4041 290.782H59.8536V291.412C59.8536 292.466 59.9881 293.262 60.257 293.8C60.5259 294.338 60.9939 294.607 61.6609 294.607C62.9088 294.607 63.7264 293.94 64.1137 292.606L64.4041 292.654C64.1997 293.429 63.8286 294.031 63.2907 294.462C62.7636 294.892 61.9675 295.107 60.9025 295.107ZM59.8697 290.46H61.5318V289.669C61.5318 288.798 61.478 288.206 61.3704 287.894C61.2736 287.571 61.0692 287.41 60.7572 287.41C60.456 287.41 60.2301 287.582 60.0795 287.926C59.9396 288.26 59.8697 288.841 59.8697 289.669V290.46ZM65.7858 292.638V287.555H64.8983V287.265H65.7858V285.183L68.7873 284.441V287.265H70.885V287.555H68.7873V292.993C68.7873 293.499 68.8357 293.87 68.9325 294.107C69.0401 294.343 69.2552 294.462 69.578 294.462C69.9007 294.462 70.1804 294.3 70.4171 293.977C70.6645 293.655 70.8259 293.214 70.9012 292.654L71.1755 292.686C71.0894 293.429 70.8528 294.02 70.4655 294.462C70.0782 294.892 69.4381 295.107 68.5452 295.107C67.6523 295.107 66.9692 294.929 66.4959 294.574C66.0225 294.219 65.7858 293.574 65.7858 292.638ZM74.3099 283.65H79.0541C80.6785 283.65 81.8888 283.887 82.6849 284.36C83.481 284.823 83.879 285.656 83.879 286.861C83.879 288.195 83.3949 289.115 82.4267 289.621C81.523 290.083 80.259 290.314 78.6346 290.314H78.5055V294.639H80.5226V294.946H74.3099V294.639H75.3588V283.957H74.3099V283.65ZM78.5055 283.957V290.008H78.8443C79.4898 290.008 79.9363 289.787 80.1837 289.346C80.4311 288.905 80.5548 288.19 80.5548 287.2V286.425C80.5548 285.511 80.4365 284.871 80.1998 284.505C79.9739 284.139 79.5544 283.957 78.9412 283.957H78.5055ZM89.8462 287.716C89.4481 287.716 89.0985 287.975 88.7973 288.491C88.4961 289.007 88.3455 289.621 88.3455 290.331V294.655H89.4912V294.946H84.4565V294.655H85.344V287.555H84.4565V287.265H88.3455V288.814C88.4853 288.265 88.7543 287.845 89.1523 287.555C89.5503 287.254 90.0022 287.103 90.5078 287.103C91.0134 287.103 91.4222 287.248 91.7342 287.539C92.0569 287.819 92.2183 288.222 92.2183 288.749C92.2183 289.265 92.0999 289.664 91.8633 289.943C91.6266 290.223 91.2608 290.363 90.766 290.363C90.2819 290.363 89.9215 290.201 89.6848 289.879C89.4589 289.556 89.432 289.11 89.6041 288.539H90.185C90.454 287.991 90.341 287.716 89.8462 287.716ZM94.8182 286.151C94.248 286.151 93.8392 286.006 93.5918 285.715C93.3551 285.425 93.2368 285.065 93.2368 284.634C93.2368 284.204 93.3659 283.849 93.624 283.569C93.893 283.29 94.2964 283.15 94.8343 283.15C95.3722 283.15 95.781 283.279 96.0607 283.537C96.3404 283.784 96.4802 284.145 96.4802 284.618C96.4802 285.081 96.3458 285.452 96.0768 285.732C95.8079 286.011 95.3883 286.151 94.8182 286.151ZM92.3815 287.265H96.335V294.655H97.2387V294.946H92.4461V294.655H93.3336V287.555H92.3815V287.265ZM101.44 291.153H101.908V289.911C101.908 288.889 101.849 288.206 101.731 287.862C101.623 287.507 101.408 287.329 101.085 287.329C100.892 287.329 100.714 287.383 100.553 287.49C100.402 287.587 100.327 287.727 100.327 287.91C100.327 288.082 100.359 288.26 100.424 288.443H100.827C100.913 288.668 100.956 288.943 100.956 289.265C100.956 289.577 100.822 289.852 100.553 290.088C100.284 290.314 99.9451 290.427 99.5363 290.427C98.6111 290.427 98.1485 289.981 98.1485 289.088C98.1485 287.765 99.2727 287.103 101.521 287.103C102.801 287.103 103.683 287.324 104.167 287.765C104.662 288.195 104.91 288.991 104.91 290.153V293.429C104.91 293.988 105.066 294.268 105.378 294.268C105.744 294.268 105.959 293.714 106.023 292.606L106.265 292.622C106.222 293.569 106.045 294.219 105.733 294.574C105.421 294.929 104.91 295.107 104.2 295.107C102.909 295.107 102.167 294.709 101.973 293.913C101.833 294.322 101.623 294.623 101.344 294.817C101.064 295.01 100.655 295.107 100.117 295.107C98.525 295.107 97.729 294.456 97.729 293.154C97.729 292.391 98.0302 291.869 98.6326 291.589C99.2458 291.299 100.182 291.153 101.44 291.153ZM100.795 293.138C100.795 293.698 100.822 294.058 100.876 294.219C100.94 294.381 101.053 294.462 101.214 294.462C101.387 294.462 101.543 294.327 101.682 294.058C101.833 293.778 101.908 293.396 101.908 292.912V291.412H101.795C101.128 291.412 100.795 291.901 100.795 292.88V293.138Z" fill="#FBFBFB"/>
<path d="M379.329 289.925L379.491 293.976H379.184C378.711 292.545 378.291 291.571 377.925 291.055C377.56 290.528 377.032 290.264 376.344 290.264H376.15V300.882H377.522V301.221H371.632V300.882H373.004V290.264H372.794C372.105 290.264 371.573 290.539 371.196 291.087C370.82 291.625 370.406 292.588 369.954 293.976H369.647L369.809 289.925H379.329ZM384.494 298.042V296.67C384.494 295.627 384.435 294.869 384.316 294.395C384.209 293.911 383.95 293.669 383.542 293.669C383.305 293.669 383.111 293.739 382.961 293.879C382.821 294.008 382.719 294.228 382.654 294.54C382.557 295.025 382.509 295.761 382.509 296.751V298.01C382.509 299.182 382.541 299.887 382.606 300.124C382.681 300.36 382.756 300.554 382.832 300.705C382.95 300.963 383.181 301.092 383.525 301.092C383.945 301.092 384.219 300.85 384.348 300.366C384.445 300.022 384.494 299.247 384.494 298.042ZM383.493 301.382C382.148 301.382 381.132 301.038 380.443 300.35C379.755 299.661 379.411 298.677 379.411 297.397C379.411 296.106 379.776 295.116 380.508 294.427C381.25 293.728 382.288 293.379 383.622 293.379C384.956 293.379 385.951 293.701 386.608 294.347C387.264 294.982 387.592 295.955 387.592 297.268C387.592 300.011 386.226 301.382 383.493 301.382ZM390.415 292.427C389.845 292.427 389.436 292.281 389.189 291.991C388.952 291.7 388.834 291.34 388.834 290.91C388.834 290.479 388.963 290.124 389.221 289.845C389.49 289.565 389.894 289.425 390.431 289.425C390.969 289.425 391.378 289.554 391.658 289.812C391.938 290.06 392.077 290.42 392.077 290.894C392.077 291.356 391.943 291.727 391.674 292.007C391.405 292.287 390.986 292.427 390.415 292.427ZM387.979 293.54H391.932V300.931H392.836V301.221H388.043V300.931H388.931V293.83H387.979V293.54ZM393.1 289.119H397.054V300.931H397.957V301.221H393.165V300.931H394.052V289.409H393.1V289.119ZM402.514 301.382C401.127 301.382 400.083 301.027 399.384 300.317C398.695 299.597 398.351 298.602 398.351 297.332C398.351 296.052 398.738 295.073 399.513 294.395C400.298 293.717 401.293 293.379 402.498 293.379C404.94 293.379 406.113 294.605 406.016 297.058H401.466V297.687C401.466 298.741 401.6 299.537 401.869 300.075C402.138 300.613 402.606 300.882 403.273 300.882C404.521 300.882 405.338 300.215 405.726 298.881L406.016 298.93C405.812 299.704 405.441 300.307 404.903 300.737C404.376 301.167 403.579 301.382 402.514 301.382ZM401.482 296.735H403.144V295.944C403.144 295.073 403.09 294.481 402.982 294.169C402.886 293.847 402.681 293.685 402.369 293.685C402.068 293.685 401.842 293.857 401.691 294.202C401.552 294.535 401.482 295.116 401.482 295.944V296.735ZM407.398 298.913V293.83H406.51V293.54H407.398V291.458L410.399 290.716V293.54H412.497V293.83H410.399V299.268C410.399 299.774 410.448 300.145 410.544 300.382C410.652 300.619 410.867 300.737 411.19 300.737C411.513 300.737 411.792 300.576 412.029 300.253C412.276 299.93 412.438 299.489 412.513 298.93L412.787 298.962C412.701 299.704 412.465 300.296 412.077 300.737C411.69 301.167 411.05 301.382 410.157 301.382C409.264 301.382 408.581 301.205 408.108 300.85C407.635 300.495 407.398 299.849 407.398 298.913ZM422.522 297.961L423.861 293.314L422.893 290.232H421.973V289.925H426.976V290.232H426.023L428.428 297.865L430.364 290.232H428.734V289.925H431.962V290.232H430.897L427.928 301.382H426.491L424.103 294.089L422.005 301.382H420.602L416.535 290.232H415.777V289.925H421.021V290.232H419.892L422.522 297.961ZM434.637 297.429H435.105V296.186C435.105 295.164 435.046 294.481 434.928 294.137C434.82 293.782 434.605 293.605 434.282 293.605C434.089 293.605 433.911 293.658 433.75 293.766C433.599 293.863 433.524 294.003 433.524 294.185C433.524 294.358 433.556 294.535 433.621 294.718H434.024C434.11 294.944 434.153 295.218 434.153 295.541C434.153 295.853 434.019 296.127 433.75 296.364C433.481 296.59 433.142 296.703 432.733 296.703C431.808 296.703 431.345 296.256 431.345 295.363C431.345 294.04 432.47 293.379 434.718 293.379C435.998 293.379 436.88 293.599 437.364 294.04C437.859 294.471 438.107 295.267 438.107 296.428V299.704C438.107 300.264 438.263 300.543 438.575 300.543C438.94 300.543 439.156 299.989 439.22 298.881L439.462 298.897C439.419 299.844 439.242 300.495 438.93 300.85C438.618 301.205 438.107 301.382 437.397 301.382C436.106 301.382 435.364 300.984 435.17 300.188C435.03 300.597 434.82 300.898 434.541 301.092C434.261 301.286 433.852 301.382 433.314 301.382C431.722 301.382 430.926 300.732 430.926 299.43C430.926 298.666 431.227 298.144 431.83 297.865C432.443 297.574 433.379 297.429 434.637 297.429ZM433.992 299.414C433.992 299.973 434.019 300.334 434.073 300.495C434.137 300.656 434.25 300.737 434.411 300.737C434.584 300.737 434.74 300.602 434.879 300.334C435.03 300.054 435.105 299.672 435.105 299.188V297.687H434.992C434.325 297.687 433.992 298.177 433.992 299.156V299.414ZM439.653 293.54H443.542V295.025C443.714 294.53 443.978 294.132 444.333 293.83C444.688 293.529 445.226 293.379 445.946 293.379C447.614 293.379 448.448 294.277 448.448 296.073V300.931H449.351V301.221H444.785V300.931H445.446V295.686C445.446 295.041 445.403 294.627 445.317 294.444C445.231 294.25 445.075 294.153 444.849 294.153C444.505 294.153 444.198 294.379 443.929 294.831C443.671 295.283 443.542 295.831 443.542 296.477V300.931H444.236V301.221H439.653V300.931H440.541V293.83H439.653V293.54ZM451.937 292.427C451.366 292.427 450.958 292.281 450.71 291.991C450.473 291.7 450.355 291.34 450.355 290.91C450.355 290.479 450.484 290.124 450.742 289.845C451.011 289.565 451.415 289.425 451.953 289.425C452.491 289.425 452.899 289.554 453.179 289.812C453.459 290.06 453.599 290.42 453.599 290.894C453.599 291.356 453.464 291.727 453.195 292.007C452.926 292.287 452.507 292.427 451.937 292.427ZM449.5 293.54H453.453V300.931H454.357V301.221H449.564V300.931H450.452V293.83H449.5V293.54ZM455.493 298.913V293.83H454.605V293.54H455.493V291.458L458.494 290.716V293.54H460.592V293.83H458.494V299.268C458.494 299.774 458.543 300.145 458.639 300.382C458.747 300.619 458.962 300.737 459.285 300.737C459.608 300.737 459.887 300.576 460.124 300.253C460.371 299.93 460.533 299.489 460.608 298.93L460.882 298.962C460.796 299.704 460.56 300.296 460.172 300.737C459.785 301.167 459.145 301.382 458.252 301.382C457.359 301.382 456.676 301.205 456.203 300.85C455.729 300.495 455.493 299.849 455.493 298.913ZM464.909 297.429H465.377V296.186C465.377 295.164 465.318 294.481 465.2 294.137C465.092 293.782 464.877 293.605 464.554 293.605C464.361 293.605 464.183 293.658 464.022 293.766C463.871 293.863 463.796 294.003 463.796 294.185C463.796 294.358 463.828 294.535 463.893 294.718H464.296C464.382 294.944 464.425 295.218 464.425 295.541C464.425 295.853 464.291 296.127 464.022 296.364C463.753 296.59 463.414 296.703 463.005 296.703C462.08 296.703 461.618 296.256 461.618 295.363C461.618 294.04 462.742 293.379 464.99 293.379C466.27 293.379 467.152 293.599 467.637 294.04C468.131 294.471 468.379 295.267 468.379 296.428V299.704C468.379 300.264 468.535 300.543 468.847 300.543C469.213 300.543 469.428 299.989 469.492 298.881L469.734 298.897C469.691 299.844 469.514 300.495 469.202 300.85C468.89 301.205 468.379 301.382 467.669 301.382C466.378 301.382 465.636 300.984 465.442 300.188C465.302 300.597 465.092 300.898 464.813 301.092C464.533 301.286 464.124 301.382 463.586 301.382C461.994 301.382 461.198 300.732 461.198 299.43C461.198 298.666 461.499 298.144 462.102 297.865C462.715 297.574 463.651 297.429 464.909 297.429ZM464.264 299.414C464.264 299.973 464.291 300.334 464.345 300.495C464.409 300.656 464.522 300.737 464.684 300.737C464.856 300.737 465.012 300.602 465.151 300.334C465.302 300.054 465.377 299.672 465.377 299.188V297.687H465.264C464.597 297.687 464.264 298.177 464.264 299.156V299.414Z" fill="#FBFBFB"/>
</svg>
