<svg width="457" height="405" viewBox="0 0 457 405" fill="none" xmlns="http://www.w3.org/2000/svg">
<circle cx="348.646" cy="107.646" r="107.646" fill="#FAF5CB" fill-opacity="0.8"/>
<ellipse cx="169" cy="212" rx="168" ry="169" fill="#FAF5CB" fill-opacity="0.8"/>
<path d="M83.6119 280.079C83.6119 280.079 104.305 252.422 90.5758 225.86C76.7475 199.397 88.8846 174.029 68.1919 157.813C47.4992 141.597 47.4992 101.903 3.52731 93.248C3.52731 93.248 -5.12779 120.009 9.59584 143.289C24.22 166.568 14.769 206.66 35.4617 225.86C56.0549 245.061 38.7446 269.434 83.6119 280.079Z" fill="#13EBA2" stroke="#DAEAFF" stroke-width="0.896449" stroke-miterlimit="10"/>
<path d="M105.797 234.714C105.797 234.714 134.548 203.675 122.51 178.605C110.473 153.535 135.543 134.533 115.646 106.976C95.7492 79.4192 101.818 49.2755 71.5746 27.6875C71.5746 27.6875 57.7463 68.1775 71.5746 93.2475C85.4029 118.317 68.2916 146.869 85.4029 162.19C102.514 177.51 75.355 208.848 105.797 234.714Z" fill="#056644" stroke="#DAEAFF" stroke-width="0.896449" stroke-miterlimit="10"/>
<path d="M127.683 277.791C127.683 277.791 155.34 277.791 153.549 251.925C151.858 226.059 175.933 227.054 177.724 203.277C179.415 179.501 196.725 181.192 188.07 147.169C188.07 147.169 161.408 141.796 159.12 170.05C156.832 198.303 133.652 202.979 136.338 221.682C139.024 240.584 114.054 241.28 127.683 277.791Z" fill="#05AC72" stroke="#DAEAFF" stroke-width="0.896449" stroke-miterlimit="10"/>
<path d="M25.9116 125.183C25.9116 125.183 77.6433 202.78 90.5762 326.538" stroke="#DAEAFF" stroke-width="0.896449" stroke-miterlimit="10"/>
<path d="M105.299 334.298C105.299 334.298 114.75 157.117 81.1245 62.3086" stroke="#DAEAFF" stroke-width="0.896449" stroke-miterlimit="10"/>
<path d="M117.337 323.454C117.337 323.454 136.338 213.226 177.724 166.667" stroke="#DAEAFF" stroke-width="0.896449" stroke-miterlimit="10"/>
<path d="M101.817 302.064H60.4321L76.1506 403.737H101.817H127.484L143.203 302.064H101.817Z" fill="#BDBDBD" stroke="#DAEAFF" stroke-width="0.896449" stroke-miterlimit="10"/>
<path d="M376.393 293.908C376.393 293.908 391.813 273.314 381.566 253.517C371.319 233.819 380.273 214.917 364.853 202.78C349.433 190.643 349.433 161.096 316.702 154.729C316.702 154.729 310.236 174.626 321.179 192.036C332.122 209.346 325.059 239.191 340.479 253.517C355.899 267.843 342.966 285.949 376.393 293.908Z" fill="#056644" stroke="#DAEAFF" stroke-width="0.896449" stroke-miterlimit="10"/>
<path d="M392.907 260.182C392.907 260.182 414.296 237.002 405.343 218.398C396.389 199.795 414.993 185.569 400.269 165.075C385.446 144.581 389.923 122.098 367.439 106.081C367.439 106.081 357.193 136.225 367.439 154.828C377.686 173.432 364.952 194.821 377.686 206.162C390.42 217.503 370.225 240.882 392.907 260.182Z" fill="#05AC72" stroke="#DAEAFF" stroke-width="0.896449" stroke-miterlimit="10"/>
<path d="M409.222 292.216C409.222 292.216 429.816 292.216 428.522 273.016C427.229 253.716 445.236 254.512 446.529 236.804C447.822 219.096 460.656 220.389 454.189 195.02C454.189 195.02 434.292 191.041 432.601 212.132C430.91 233.222 413.6 236.605 415.689 250.632C417.679 264.46 399.075 265.057 409.222 292.216Z" fill="#13EBA2" stroke="#DAEAFF" stroke-width="0.896449" stroke-miterlimit="10"/>
<path d="M333.416 178.605C333.416 178.605 371.916 236.406 381.566 328.627" stroke="#DAEAFF" stroke-width="0.896449" stroke-miterlimit="10"/>
<path d="M392.51 334.297C392.51 334.297 399.573 202.382 374.503 131.648" stroke="#DAEAFF" stroke-width="0.896449" stroke-miterlimit="10"/>
<path d="M401.463 326.24C401.463 326.24 415.59 244.165 446.43 209.445" stroke="#DAEAFF" stroke-width="0.896449" stroke-miterlimit="10"/>
<path d="M391.515 302.064H350.129L365.848 403.737H391.515H417.182L432.9 302.064H391.515Z" fill="#BDBDBD" stroke="#DAEAFF" stroke-width="0.896449" stroke-miterlimit="10"/>
<path d="M276.213 296.892V403.737H270.244L261.987 296.892H276.213Z" fill="#686695"/>
<path d="M276.213 296.892V403.737H282.082L290.34 296.892H276.213Z" fill="#726FA3"/>
<path d="M276.213 291.619C251.74 174.128 216.822 101.107 216.822 101.107C156.435 82.9014 106.991 101.107 106.991 101.107C106.991 101.107 141.91 174.128 166.383 291.619H276.213Z" fill="#9398B2"/>
<path d="M112.86 99.2168C108.981 100.311 106.891 101.008 106.891 101.008C106.891 101.008 141.81 174.029 166.283 291.519H172.949C149.669 180.993 117.536 109.265 112.86 99.2168Z" fill="#726FA3"/>
<path d="M248.556 291.619H166.283V296.892H248.556V291.619Z" fill="#726FA3"/>
<path d="M353.015 291.619H248.656V296.892H353.015V291.619Z" fill="#9398B2"/>
<path d="M166.283 296.892L154.644 403.737H160.513L186.18 296.892H166.283Z" fill="#726FA3"/>
<path d="M353.214 296.892L364.853 403.737H359.083L333.317 296.892H353.214Z" fill="#9398B2"/>
<path d="M248.656 296.892V403.737H242.687L234.529 296.892H248.656Z" fill="#726FA3"/>
<path d="M248.656 296.892V403.737H254.625L262.783 296.892H248.656Z" fill="#9398B2"/>
<path d="M276.809 190.543L315.607 234.615L307.151 241.778L247.759 200.989C247.759 200.989 219.506 111.951 250.147 109.464C250.147 109.464 264.871 151.944 276.809 190.543Z" fill="#FFC9A9"/>
<path d="M250.147 109.464C264.772 107.375 283.276 192.334 283.276 192.334C283.276 192.334 259.002 208.251 236.22 208.251C236.22 208.251 211.846 115.035 250.147 109.464Z" fill="#FFC100"/>
<path d="M334.112 348.723C334.112 348.723 324.86 369.018 327.149 373.096C329.437 377.175 361.172 388.715 359.58 394.585C357.989 400.554 315.807 388.318 310.137 384.139C304.566 379.861 316.106 341.958 316.106 341.958L334.112 348.723Z" fill="#FFC100"/>
<path d="M266.761 237.4C266.761 237.4 352.019 245.16 360.475 257.098C368.931 269.036 332.62 358.572 332.62 358.572L311.231 351.608L326.153 275.503C326.153 275.503 212.642 304.055 212.642 243.966L266.761 237.4Z" fill="#16224B"/>
<path d="M336.499 258.689L324.461 283.859L311.13 351.707L332.519 358.671C332.519 358.671 348.039 320.469 356.396 290.624C350.228 277.591 342.169 262.47 336.499 258.689Z" fill="#09143B"/>
<path d="M363.658 359.865C363.658 359.865 367.837 382.846 372.015 384.935C376.193 387.024 408.824 378.17 410.913 383.94C413.002 389.71 371.418 403.937 364.454 403.638C357.391 403.34 344.756 366.531 344.756 366.531L363.658 359.865Z" fill="#FFDB00"/>
<path d="M175.037 244.065C175.037 244.065 176.629 275.104 203.39 285.053C230.151 295.001 310.137 292.514 310.137 292.514L346.448 377.573L368.832 371.107C368.832 371.107 344.459 267.643 336.5 258.69C328.541 249.736 245.472 244.065 245.472 244.065H175.037Z" fill="#16224B"/>
<path d="M163.895 109.464C163.895 109.464 206.474 100.809 251.838 109.464C251.838 109.464 266.662 162.489 266.662 237.5C266.662 237.5 247.959 258.093 175.037 244.165C175.037 244.066 167.874 156.52 163.895 109.464Z" fill="#FFDB00"/>
<path d="M246.267 28.1851C246.267 28.1851 257.509 30.7717 255.718 48.1814C254.027 65.5911 244.875 71.4607 238.508 68.7746C232.141 66.0886 232.837 19.3311 246.267 28.1851Z" fill="#333333"/>
<path d="M252.833 52.3602C251.341 62.607 246.864 91.0594 232.24 90.1641C216.522 89.1693 194.436 59.6225 201.102 33.1598C207.668 6.59752 259.399 6.7965 252.833 52.3602Z" fill="#FFC9A9"/>
<path d="M205.678 47.0869L197.023 106.479C197.023 106.479 217.417 122.396 228.062 109.762L226.57 69.6698L205.678 47.0869Z" fill="#FFC9A9"/>
<path d="M241.254 53.27C241.705 48.1249 239.141 43.6978 235.529 43.3818C231.916 43.0657 228.623 46.9804 228.172 52.1255C227.722 57.2705 230.286 61.6976 233.898 62.0137C237.511 62.3297 240.804 58.415 241.254 53.27Z" stroke="#164A62" stroke-width="1.7929" stroke-miterlimit="10"/>
<path d="M258.421 53.3295C258.872 48.1845 256.308 43.7573 252.696 43.4413C249.083 43.1252 245.79 47.04 245.339 52.185C244.889 57.3301 247.453 61.7572 251.065 62.0732C254.678 62.3893 257.971 58.4746 258.421 53.3295Z" stroke="#164A62" stroke-width="1.7929" stroke-miterlimit="10"/>
<path d="M241.294 52.7578H245.273" stroke="#164A62" stroke-width="1.7929" stroke-miterlimit="10"/>
<path d="M228.162 52.7573L203.39 49.2754" stroke="#164A62" stroke-width="1.7929" stroke-miterlimit="10"/>
<path d="M243.582 55.8418C243.582 55.8418 243.284 60.5175 246.964 63.701C249.551 65.8897 246.069 67.6804 242.786 67.2825" stroke="#EFA59C" stroke-width="0.896449" stroke-miterlimit="10"/>
<path d="M210.454 27.3897C210.454 27.3897 216.721 33.3587 238.11 37.1391C259.499 40.9195 264.772 33.8561 256.813 23.7088C248.854 13.5614 215.527 -0.167391 208.563 18.7346C208.563 18.7346 201.5 17.8392 195.829 27.4892C186.378 43.5061 195.431 74.7441 203.49 74.7441C211.349 74.6446 214.433 40.82 210.454 27.3897Z" fill="#333333"/>
<path d="M163.895 109.464C175.734 108.37 191.651 198.303 191.651 198.303L254.127 239.788L251.143 248.941C251.143 248.941 188.766 228.248 168.273 216.907C147.779 205.566 130.767 112.449 163.895 109.464Z" fill="#FFC9A9"/>
<path d="M163.895 109.464C178.519 107.375 197.023 192.334 197.023 192.334C197.023 192.334 172.749 208.251 149.967 208.251C149.967 208.251 125.594 115.035 163.895 109.464Z" fill="#FFDB00"/>
<path d="M254.227 239.788C254.227 239.788 266.364 232.924 276.312 235.809C286.261 238.694 286.261 245.16 286.261 245.16L251.242 248.841L254.227 239.788Z" fill="#FFC9A9"/>
<path d="M266.165 249.636C266.165 250.333 266.761 250.83 267.358 250.83H361.47C362.167 250.83 362.664 250.233 362.664 249.636C362.664 248.94 362.067 248.443 361.47 248.443H267.458C266.761 248.343 266.165 248.94 266.165 249.636Z" fill="#9398B2"/>
<path d="M273.626 247.349L294.518 181.49C294.617 181.192 294.916 180.894 295.313 180.894H384.65C385.247 180.894 385.545 181.391 385.446 181.988L364.554 247.846C364.455 248.145 364.156 248.443 363.758 248.443H274.422C273.825 248.344 273.427 247.846 273.626 247.349Z" fill="#9398B2"/>
<path d="M273.626 247.349L294.518 181.49C294.617 181.192 294.916 180.894 295.313 180.894C295.91 180.894 296.308 181.391 296.109 181.988L275.218 247.846C275.118 248.145 274.82 248.443 274.422 248.443C273.825 248.344 273.427 247.846 273.626 247.349Z" fill="#726FA3"/>
<path d="M236.917 249.636C236.917 250.333 237.513 250.83 238.11 250.83H273.129C273.825 250.83 274.322 250.233 274.322 249.636C274.322 248.94 273.726 248.443 273.129 248.443H238.11C237.513 248.343 236.917 248.94 236.917 249.636Z" fill="#726FA3"/>
<path d="M332.819 211.933C329.436 211.933 325.954 214.619 325.059 218.001C324.064 221.384 326.054 224.07 329.337 224.07C332.62 224.07 336.201 221.384 337.096 218.001C338.191 214.718 336.201 211.933 332.819 211.933Z" fill="white"/>
<path d="M244.949 363.422H135V385.295H244.949V363.422Z" fill="#FFB400"/>
<path d="M236.588 365.945H173.619V382.794H236.588V365.945Z" fill="#FFDB00"/>
<path d="M147.873 363.422H143.704V385.295H147.873V363.422Z" fill="#FFDB00"/>
<path d="M159.006 363.422H154.836V385.295H159.006V363.422Z" fill="#FFDB00"/>
<path d="M233.365 347.643H146.562V363.422H233.365V347.643Z" fill="#FFDB00"/>
<path d="M162.766 347.643H159.478V363.422H162.766V347.643Z" fill="#FFE700"/>
<path d="M171.556 347.643H168.268V363.422H171.556V347.643Z" fill="#FFE700"/>
<path d="M206.544 349.438H176.177V361.626H206.544V349.438Z" fill="#FFE700"/>
<path d="M217.225 347.643H213.937V363.422H217.225V347.643Z" fill="#FFE700"/>
<path d="M226.015 347.643H222.727V363.422H226.015V347.643Z" fill="#FFE700"/>
<path d="M225.005 322.798H154.922V331.757H225.005V322.798Z" fill="#FFE700"/>
<path d="M174.114 322.798H172.588V331.757H174.114V322.798Z" fill="#F0FF00"/>
<path d="M178.176 322.798H176.65V331.757H178.176V322.798Z" fill="#F0FF00"/>
<path d="M203.127 322.798H201.601V331.757H203.127V322.798Z" fill="#F0FF00"/>
<path d="M182.409 322.798H180.884V331.757H182.409V322.798Z" fill="#F0FF00"/>
<path d="M152.58 403.94H236.696V385.338H152.58C150.1 385.338 147.723 386.318 145.969 388.062C144.216 389.806 143.231 392.172 143.231 394.639C143.231 397.106 144.216 399.471 145.969 401.216C147.723 402.96 150.1 403.94 152.58 403.94Z" fill="#FFE700"/>
<path d="M236.696 388.097H152.472C150.736 388.097 149.072 388.783 147.845 390.004C146.617 391.225 145.928 392.881 145.928 394.607C145.928 396.334 146.617 397.99 147.845 399.211C149.072 400.432 150.736 401.118 152.472 401.118H236.696V388.097Z" fill="white"/>
<g style="mix-blend-mode:multiply">
<g style="mix-blend-mode:multiply">
<path d="M146.089 393.121H236.696V390.77H147.185C146.671 391.476 146.299 392.274 146.089 393.121Z" fill="#EAEAEA"/>
</g>
</g>
<path d="M229.217 312H145.294V322.798H229.217C230.656 322.798 232.035 322.231 233.054 321.221C234.073 320.211 234.649 318.84 234.655 317.409C234.655 315.975 234.082 314.599 233.062 313.584C232.042 312.57 230.659 312 229.217 312V312Z" fill="#FFDB00"/>
<path d="M145.294 321.173H229.282C229.804 321.212 230.329 321.143 230.823 320.971C231.317 320.799 231.77 320.528 232.154 320.174C232.538 319.819 232.844 319.39 233.054 318.912C233.263 318.435 233.371 317.92 233.371 317.399C233.371 316.878 233.263 316.362 233.054 315.885C232.844 315.408 232.538 314.978 232.154 314.624C231.77 314.27 231.317 313.998 230.823 313.826C230.329 313.654 229.804 313.586 229.282 313.625H145.294V321.173Z" fill="white"/>
<g style="mix-blend-mode:multiply">
<g style="mix-blend-mode:multiply">
<path d="M232.978 318.243H145.294V319.612H232.355C232.665 319.209 232.878 318.741 232.978 318.243Z" fill="#EAEAEA"/>
</g>
</g>
<path d="M223.544 331.757H148.325V347.643H223.544C225.643 347.643 227.659 346.819 229.151 345.35C230.644 343.881 231.494 341.885 231.517 339.796C231.531 338.746 231.335 337.703 230.941 336.728C230.547 335.753 229.962 334.866 229.22 334.118C228.478 333.37 227.594 332.776 226.62 332.371C225.645 331.965 224.6 331.757 223.544 331.757Z" fill="#FFB400"/>
<path d="M148.41 345.27H223.629C224.393 345.317 225.159 345.208 225.88 344.949C226.6 344.69 227.26 344.288 227.818 343.766C228.376 343.244 228.821 342.614 229.125 341.915C229.428 341.215 229.585 340.462 229.585 339.7C229.585 338.938 229.428 338.184 229.125 337.485C228.821 336.785 228.376 336.155 227.818 335.633C227.26 335.112 226.6 334.709 225.88 334.45C225.159 334.192 224.393 334.083 223.629 334.13H148.41V345.27Z" fill="white"/>
<g style="mix-blend-mode:multiply">
<g style="mix-blend-mode:multiply">
<path d="M229.088 340.95H148.41V342.96H228.142C228.601 342.367 228.924 341.681 229.088 340.95Z" fill="#EAEAEA"/>
</g>
</g>
</svg>
