<svg width="114" height="114" viewBox="0 0 114 114" fill="none" xmlns="http://www.w3.org/2000/svg">
<circle cx="57" cy="57" r="56" fill="white" stroke="#FAF5CB" stroke-width="2"/>
<path d="M45.6667 92C52.1067 92 57.3333 86.7733 57.3333 80.3333V68.6666H45.6667C39.2267 68.6666 34 73.8933 34 80.3333C34 86.7733 39.2267 92 45.6667 92Z" fill="#0ACF83"/>
<path d="M34 57C34 50.56 39.2267 45.3334 45.6667 45.3334H57.3333V68.6667H45.6667C39.2267 68.6667 34 63.44 34 57Z" fill="#A259FF"/>
<path d="M34 33.6667C34 27.2267 39.2267 22 45.6667 22H57.3333V45.3333H45.6667C39.2267 45.3333 34 40.1067 34 33.6667Z" fill="#F24E1E"/>
<path d="M57.3335 22H69.0002C75.4402 22 80.6668 27.2267 80.6668 33.6667C80.6668 40.1067 75.4402 45.3333 69.0002 45.3333H57.3335V22Z" fill="#FF7262"/>
<path d="M80.6668 57C80.6668 63.44 75.4402 68.6667 69.0002 68.6667C62.5602 68.6667 57.3335 63.44 57.3335 57C57.3335 50.56 62.5602 45.3334 69.0002 45.3334C75.4402 45.3334 80.6668 50.56 80.6668 57Z" fill="#1ABCFE"/>
</svg>
