<svg width="199" height="193" viewBox="0 0 199 193" fill="none" xmlns="http://www.w3.org/2000/svg">
<rect x="36.2705" y="34.2664" width="16.665" height="31.2428" fill="#F1F1F1"/>
<rect x="31.3691" y="25.1958" width="26.468" height="9.0705" fill="#FFA300"/>
<path fill-rule="evenodd" clip-rule="evenodd" d="M172.079 40.2242L140.873 0L109.859 40.2242L110.243 40.2242V84.658H172.08V40.2242H172.079Z" fill="#F1F1F1"/>
<path fill-rule="evenodd" clip-rule="evenodd" d="M181.354 40.4581L141.084 0L100.97 40.4581H114.51L141.163 14.1097L168.5 40.4581H181.354Z" fill="#FFA300"/>
<path d="M19.8875 188.465H179.034C179.55 190.327 179.476 191.167 179.034 192.496H19.8875C19.4574 190.672 19.5697 189.855 19.8875 188.465Z" fill="#FFC55E"/>
<ellipse cx="143.124" cy="40.3135" rx="15.6847" ry="16.1253" fill="#E7E7E7"/>
<ellipse cx="143.124" cy="40.3135" rx="12.7438" ry="13.1018" fill="#9FD6ED"/>
<path d="M142.633 26.2034H143.614V56.4384H142.633V26.2034Z" fill="#E7E7E7"/>
<path d="M157.828 39.8098L157.828 40.8176L128.419 40.8176L128.419 39.8098L157.828 39.8098Z" fill="#E7E7E7"/>
<path fill-rule="evenodd" clip-rule="evenodd" d="M179.785 92.721L100.627 6.0473L21.9575 92.721H22.5464V188.465H176.645V92.721H179.785Z" fill="#F1F1F1"/>
<path fill-rule="evenodd" clip-rule="evenodd" d="M199 92.721L99.3061 6.0473L0 92.721H22.6784L99.5001 24.0833L176.477 92.721H199Z" fill="#FFA300"/>
<path d="M22.498 101.791C25.1694 101.791 176.597 101.791 176.597 101.791C179.02 101.791 179.02 106.83 176.597 106.83C176.597 106.83 24.921 106.83 22.498 106.83C20.075 106.83 19.8265 101.791 22.498 101.791Z" fill="#FFA300"/>
<rect x="99.0093" y="112.877" width="61.7586" height="46.3603" fill="#E7E7E7"/>
<rect x="102.93" y="115.901" width="53.9163" height="40.3133" fill="#FFA300"/>
<rect x="141.162" y="117.917" width="13.7241" height="30.235" fill="#FFA300"/>
<path d="M142.642 119.424H148.014V122.96H142.642V119.424Z" fill="#9FD6ED" stroke="#F1F1F1"/>
<path d="M142.642 122.951H148.014V135.053H142.642V122.951Z" fill="#9FD6ED" stroke="#F1F1F1"/>
<path d="M148.033 122.951H153.405V135.053H148.033V122.951Z" fill="#9FD6ED" stroke="#F1F1F1"/>
<path d="M148.033 119.424H153.405V122.96H148.033V119.424Z" fill="#9FD6ED" stroke="#F1F1F1"/>
<path d="M142.642 135.045H153.405V146.643H142.642V135.045Z" fill="#9FD6ED" stroke="#F1F1F1"/>
<rect x="105.871" y="117.917" width="13.7241" height="30.235" fill="#FFA300"/>
<path d="M107.352 119.424H112.723V122.96H107.352V119.424Z" fill="#9FD6ED" stroke="#F1F1F1"/>
<path d="M107.352 122.951H112.723V135.053H107.352V122.951Z" fill="#9FD6ED" stroke="#F1F1F1"/>
<path d="M112.743 122.951H118.115V135.053H112.743V122.951Z" fill="#9FD6ED" stroke="#F1F1F1"/>
<path d="M107.352 135.045H118.115V146.643H107.352V135.045Z" fill="#9FD6ED" stroke="#F1F1F1"/>
<path d="M112.743 119.424H118.115V122.96H112.743V119.424Z" fill="#9FD6ED" stroke="#F1F1F1"/>
<rect x="123.517" y="117.917" width="13.7241" height="30.235" fill="#FFA300"/>
<path d="M124.998 119.424H130.369V122.96H124.998V119.424Z" fill="#9FD6ED" stroke="#F1F1F1"/>
<path d="M124.998 122.951H130.369V135.053H124.998V122.951Z" fill="#9FD6ED" stroke="#F1F1F1"/>
<path d="M130.388 122.951H135.76V135.053H130.388V122.951Z" fill="#9FD6ED" stroke="#F1F1F1"/>
<path d="M124.998 135.045H135.761V146.643H124.998V135.045Z" fill="#9FD6ED" stroke="#F1F1F1"/>
<path d="M130.388 119.424H133.074H135.76V122.96H130.388V119.424Z" fill="#9FD6ED" stroke="#F1F1F1"/>
<rect x="104.891" y="151.175" width="49.9951" height="3.0235" fill="#E7E7E7"/>
<rect x="84.3052" y="45.3523" width="33.6437" height="47.3682" fill="#E7E7E7"/>
<rect x="86.8931" y="49.4717" width="28.4678" height="39.1302" fill="#FFA300"/>
<path d="M91.2754 53.4311H101.274V71.3784H91.2754V53.4311Z" fill="#9FD6ED" stroke="#F1F1F1"/>
<path d="M100.957 53.6151H110.956V71.5624H100.957V53.6151Z" fill="#9FD6ED" stroke="#F1F1F1"/>
<path d="M91.2754 70.5667H110.979V85.0129H91.2754V70.5667Z" fill="#9FD6ED" stroke="#F1F1F1"/>
<path d="M23.02 183.526H29.3089V188.365H23.02V183.526Z" fill="#E7E7E7" stroke="#FFC100" stroke-width="0.2"/>
<path d="M29.3153 183.526H42.6349V188.365H29.3153V183.526Z" fill="#E7E7E7" stroke="#FFC100" stroke-width="0.2"/>
<path d="M23.0297 178.699H35.1902V183.53H23.0297V178.699Z" fill="#E7E7E7" stroke="#FFC100" stroke-width="0.2"/>
<path d="M35.1908 178.707H47.5515V183.545H35.1908V178.707Z" fill="#E7E7E7" stroke="#FFC100" stroke-width="0.2"/>
<path d="M47.5595 178.718H60.4956V183.529H47.5595V178.718Z" fill="#E7E7E7" stroke="#FFC100" stroke-width="0.2"/>
<path d="M60.5116 178.718L73.0201 178.718V183.529L60.5116 183.529V178.718Z" fill="#E7E7E7" stroke="#FFC100" stroke-width="0.2"/>
<path d="M73.0282 178.718L85.816 178.718V183.529L73.0282 183.529V178.718Z" fill="#E7E7E7" stroke="#FFC100" stroke-width="0.2"/>
<path d="M85.8021 178.718L98.4938 178.718V183.529L85.8021 183.529V178.718Z" fill="#E7E7E7" stroke="#FFC100" stroke-width="0.2"/>
<path d="M98.4716 178.718L110.673 178.718V183.529L98.4716 183.529V178.718Z" fill="#E7E7E7" stroke="#FFC100" stroke-width="0.2"/>
<path d="M110.663 178.718L122.437 178.718V183.529L110.663 183.529V178.718Z" fill="#E7E7E7" stroke="#FFC100" stroke-width="0.2"/>
<path d="M122.439 178.718L133.818 178.718V183.529L122.439 183.529V178.718Z" fill="#E7E7E7" stroke="#FFC100" stroke-width="0.2"/>
<path d="M133.818 178.718L145.017 178.718V183.529L133.818 183.529V178.718Z" fill="#E7E7E7" stroke="#FFC100" stroke-width="0.2"/>
<path d="M145.035 178.699L155.95 178.699V183.51L145.035 183.51V178.699Z" fill="#E7E7E7" stroke="#FFC100" stroke-width="0.2"/>
<path d="M155.954 178.699L166.368 178.699V183.51L155.954 183.51V178.699Z" fill="#E7E7E7" stroke="#FFC100" stroke-width="0.2"/>
<path d="M166.302 178.699H176.535V183.51L166.302 183.51V178.699Z" fill="#E7E7E7" stroke="#FFC100" stroke-width="0.2"/>
<path d="M42.2533 183.526H55.5648V188.365H42.2533V183.526Z" fill="#E7E7E7" stroke="#FFC100" stroke-width="0.2"/>
<path d="M55.5409 183.526H68.5208V188.365H55.5409V183.526Z" fill="#E7E7E7" stroke="#FFC100" stroke-width="0.2"/>
<path d="M68.5346 183.526H80.774V188.365H68.5346V183.526Z" fill="#E7E7E7" stroke="#FFC100" stroke-width="0.2"/>
<path d="M80.7855 183.526H93.0288V188.365H80.7855V183.526Z" fill="#E7E7E7" stroke="#FFC100" stroke-width="0.2"/>
<path d="M92.3568 183.526H104.791V188.365H92.3568V183.526Z" fill="#E7E7E7" stroke="#FFC100" stroke-width="0.2"/>
<path d="M104.793 183.526H117.615V188.365H104.793V183.526Z" fill="#E7E7E7" stroke="#FFC100" stroke-width="0.2"/>
<path d="M117.63 183.526H129.79V188.365H117.63V183.526Z" fill="#E7E7E7" stroke="#FFC100" stroke-width="0.2"/>
<path d="M129.796 183.526H142.043V188.365H129.796V183.526Z" fill="#E7E7E7" stroke="#FFC100" stroke-width="0.2"/>
<path d="M142.058 183.507H153.988V188.346H142.058V183.507Z" fill="#E7E7E7" stroke="#FFC100" stroke-width="0.2"/>
<path d="M153.975 183.507H165.357V188.346H153.975V183.507Z" fill="#E7E7E7" stroke="#FFC100" stroke-width="0.2"/>
<path d="M165.349 183.507H176.535V188.346H165.349V183.507Z" fill="#E7E7E7" stroke="#FFC100" stroke-width="0.2"/>
<path d="M23.0199 179.083L23.0199 174.244L29.3089 174.244L29.3089 179.083L23.0199 179.083Z" fill="#E7E7E7" stroke="#FFC100" stroke-width="0.2"/>
<path d="M29.3153 174.243H42.6349V179.082H29.3153V174.243Z" fill="#E7E7E7" stroke="#FFC100" stroke-width="0.2"/>
<path d="M23.0297 169.416H35.1902V174.247H23.0297V169.416Z" fill="#E7E7E7" stroke="#FFC100" stroke-width="0.2"/>
<path d="M35.1908 169.424H47.5515V174.263H35.1908V169.424Z" fill="#E7E7E7" stroke="#FFC100" stroke-width="0.2"/>
<path d="M47.5595 169.435H60.4956V174.247H47.5595V169.435Z" fill="#E7E7E7" stroke="#FFC100" stroke-width="0.2"/>
<path d="M60.5116 169.435L73.0201 169.435V174.247L60.5116 174.247V169.435Z" fill="#E7E7E7" stroke="#FFC100" stroke-width="0.2"/>
<path d="M73.0282 169.435L85.816 169.435V174.247L73.0282 174.247V169.435Z" fill="#E7E7E7" stroke="#FFC100" stroke-width="0.2"/>
<path d="M85.8021 169.435L98.4938 169.435V174.247L85.8021 174.247V169.435Z" fill="#E7E7E7" stroke="#FFC100" stroke-width="0.2"/>
<path d="M98.4716 169.435L110.673 169.435V174.247L98.4716 174.247V169.435Z" fill="#E7E7E7" stroke="#FFC100" stroke-width="0.2"/>
<path d="M110.663 169.435L122.437 169.435V174.247L110.663 174.247V169.435Z" fill="#E7E7E7" stroke="#FFC100" stroke-width="0.2"/>
<path d="M122.439 169.435L133.818 169.435V174.247L122.439 174.247V169.435Z" fill="#E7E7E7" stroke="#FFC100" stroke-width="0.2"/>
<path d="M133.818 169.435L145.017 169.435V174.247L133.818 174.247V169.435Z" fill="#E7E7E7" stroke="#FFC100" stroke-width="0.2"/>
<path d="M145.031 169.435L155.767 169.435V174.247L145.031 174.247V169.435Z" fill="#E7E7E7" stroke="#FFC100" stroke-width="0.2"/>
<path d="M155.775 169.416L166.368 169.416V174.227L155.775 174.227V169.416Z" fill="#E7E7E7" stroke="#FFC100" stroke-width="0.2"/>
<path d="M166.302 169.416H176.535V174.227L166.302 174.227V169.416Z" fill="#E7E7E7" stroke="#FFC100" stroke-width="0.2"/>
<path d="M42.2533 174.243H55.5648V179.082H42.2533V174.243Z" fill="#E7E7E7" stroke="#FFC100" stroke-width="0.2"/>
<path d="M55.5409 174.243H68.5208V179.082H55.5409V174.243Z" fill="#E7E7E7" stroke="#FFC100" stroke-width="0.2"/>
<path d="M68.5346 174.243H80.774V179.082H68.5346V174.243Z" fill="#E7E7E7" stroke="#FFC100" stroke-width="0.2"/>
<path d="M80.7855 174.243H93.0288V179.082H80.7855V174.243Z" fill="#E7E7E7" stroke="#FFC100" stroke-width="0.2"/>
<path d="M92.3568 174.243H104.791V179.082H92.3568V174.243Z" fill="#E7E7E7" stroke="#FFC100" stroke-width="0.2"/>
<path d="M104.793 174.243H117.615V179.082H104.793V174.243Z" fill="#E7E7E7" stroke="#FFC100" stroke-width="0.2"/>
<path d="M117.63 174.243H129.79V179.082H117.63V174.243Z" fill="#E7E7E7" stroke="#FFC100" stroke-width="0.2"/>
<path d="M129.796 174.243H142.043V179.082H129.796V174.243Z" fill="#E7E7E7" stroke="#FFC100" stroke-width="0.2"/>
<path d="M142.052 174.224H153.989V179.063H142.052V174.224Z" fill="#E7E7E7" stroke="#FFC100" stroke-width="0.2"/>
<path d="M153.975 174.224H165.357V179.063H153.975V174.224Z" fill="#E7E7E7" stroke="#FFC100" stroke-width="0.2"/>
<path d="M165.349 174.224H176.535V179.063H165.349V174.224Z" fill="#E7E7E7" stroke="#FFC100" stroke-width="0.2"/>
<path d="M44.1138 123.963H80.3847V187.961H44.1138V123.963Z" fill="#E7E7E7"/>
<rect x="47.0547" y="127.995" width="30.3892" height="56.4387" fill="#FFA300"/>
<rect x="49.5151" y="132.526" width="10.7635" height="9.07833" fill="#9FD6ED" stroke="#F1F1F1"/>
<rect x="64.2202" y="132.526" width="10.7635" height="9.07833" fill="#9FD6ED" stroke="#F1F1F1"/>
<rect x="64.2202" y="144.621" width="10.7635" height="9.07833" fill="#9FD6ED" stroke="#F1F1F1"/>
<rect x="49.5151" y="144.621" width="10.7635" height="9.07833" fill="#9FD6ED" stroke="#F1F1F1"/>
<rect x="49.5151" y="156.714" width="10.7635" height="9.07833" fill="#9FD6ED" stroke="#F1F1F1"/>
<rect x="64.2202" y="156.714" width="10.7635" height="9.07833" fill="#9FD6ED" stroke="#F1F1F1"/>
<rect x="64.2202" y="168.808" width="10.7635" height="9.07833" fill="#9FD6ED" stroke="#F1F1F1"/>
<rect x="49.5151" y="168.808" width="10.7635" height="9.07833" fill="#9FD6ED" stroke="#F1F1F1"/>
<path d="M42.1528 184.434H82.3449V187.457H42.1528V184.434Z" fill="#F1F1F1"/>
<path d="M40.1914 187.457H84.3047V190.466H40.1914V187.457Z" fill="#F1F1F1"/>
<path d="M38.2319 189.976H86.2664V193H38.2319V189.976Z" fill="#F1F1F1"/>
<rect x="42.1528" y="186.449" width="40.1921" height="1.00783" fill="#E7E7E7"/>
<path d="M38.2319 189.976H86.2664L86.2664 191.488H38.2319V189.976Z" fill="#E7E7E7"/>
<ellipse cx="104.352" cy="79.0729" rx="1.74729" ry="1.46976" fill="#9BCF51"/>
<ellipse cx="107.234" cy="80.6827" rx="2.99535" ry="2.51958" fill="#769F39"/>
<ellipse cx="103.694" cy="80.9627" rx="2.17843" ry="1.67972" fill="#85BB33"/>
<path d="M100.971 81.5222H110.774L109.957 84.5061H101.788L100.971 81.5222Z" fill="#A4682C"/>
<path d="M36.2715 40.3129H46.0744C47.0547 40.3129 47.0547 41.3208 46.0744 41.3208H36.2715V40.3129Z" fill="#E7E7E7"/>
<path d="M36.2715 47.3684H43.1336C44.1138 47.3684 44.1138 48.3763 43.1336 48.3763H36.2715V47.3684Z" fill="#E7E7E7"/>
</svg>
