<svg width="222" height="201" viewBox="0 0 222 201" fill="none" xmlns="http://www.w3.org/2000/svg">
<path d="M94.7135 197.378H206.362C206.724 199.051 206.672 199.806 206.362 201H94.7135C94.4117 199.361 94.4906 198.627 94.7135 197.378Z" fill="#FFC55E"/>
<path d="M3.44893 197.307H97.3305C97.3305 198.658 97.3305 198.996 97.3305 200.009H3.44893C3.19319 198.786 3.26001 198.239 3.44893 197.307Z" fill="#FFC55E"/>
<path d="M5.46729 65.7689H103.891V197.307H5.46729V65.7689Z" fill="#F1F1F1"/>
<path d="M31.1106 27.9289H181.173L211.064 65.7686H0L31.1106 27.9289Z" fill="#FFC154"/>
<rect x="4.396" y="119.513" width="185.911" height="1.80189" fill="#C4C4C4"/>
<rect x="30.6206" y="76.5804" width="17.8621" height="31.5331" fill="#FFA300"/>
<path d="M32.396 78.1317H39.6891V81.8616H32.396V78.1317Z" fill="#9FD6ED" stroke="#F1F1F1"/>
<path d="M32.396 81.8105H39.6891V94.4748H32.396V81.8105Z" fill="#9FD6ED" stroke="#F1F1F1"/>
<path d="M39.4131 81.8105H46.7062V94.4748H39.4131V81.8105Z" fill="#9FD6ED" stroke="#F1F1F1"/>
<path d="M32.396 94.4236H46.7063V106.562H32.396V94.4236Z" fill="#9FD6ED" stroke="#F1F1F1"/>
<path d="M39.4131 78.1317H46.7062V81.8616H39.4131V78.1317Z" fill="#9FD6ED" stroke="#F1F1F1"/>
<rect x="30.6206" y="138.746" width="17.8621" height="31.5331" fill="#FFA300"/>
<path d="M32.396 140.296H39.6891V144.026H32.396V140.296Z" fill="#9FD6ED" stroke="#F1F1F1"/>
<path d="M32.396 143.976H39.6891V156.64H32.396V143.976Z" fill="#9FD6ED" stroke="#F1F1F1"/>
<path d="M39.4131 143.976H46.7062V156.64H39.4131V143.976Z" fill="#9FD6ED" stroke="#F1F1F1"/>
<path d="M32.396 156.589H46.7063V168.728H32.396V156.589Z" fill="#9FD6ED" stroke="#F1F1F1"/>
<path d="M39.4131 140.296H46.7062V144.026H39.4131V140.296Z" fill="#9FD6ED" stroke="#F1F1F1"/>
<rect x="60.1479" y="138.746" width="17.8621" height="31.5331" fill="#FFA300"/>
<path d="M61.9243 140.296H69.2174V144.026H61.9243V140.296Z" fill="#9FD6ED" stroke="#F1F1F1"/>
<path d="M61.9243 143.976H69.2174V156.64H61.9243V143.976Z" fill="#9FD6ED" stroke="#F1F1F1"/>
<path d="M68.9404 143.976H76.2335V156.64H68.9404V143.976Z" fill="#9FD6ED" stroke="#F1F1F1"/>
<path d="M61.9243 156.589H76.2347V168.728H61.9243V156.589Z" fill="#9FD6ED" stroke="#F1F1F1"/>
<path d="M68.9404 140.296H76.2335V144.026H68.9404V140.296Z" fill="#9FD6ED" stroke="#F1F1F1"/>
<rect x="89.6763" y="138.746" width="17.8621" height="31.5331" fill="#FFA300"/>
<path d="M91.4507 140.296H98.7438V144.026H91.4507V140.296Z" fill="#9FD6ED" stroke="#F1F1F1"/>
<path d="M91.4507 143.976H98.7438V156.64H91.4507V143.976Z" fill="#9FD6ED" stroke="#F1F1F1"/>
<path d="M98.4678 143.976H105.761V156.64H98.4678V143.976Z" fill="#9FD6ED" stroke="#F1F1F1"/>
<path d="M91.4507 156.589H105.761V168.728H91.4507V156.589Z" fill="#9FD6ED" stroke="#F1F1F1"/>
<path d="M98.4678 140.296H105.761V144.026H98.4678V140.296Z" fill="#9FD6ED" stroke="#F1F1F1"/>
<rect x="60.1479" y="76.5804" width="17.8621" height="31.5331" fill="#FFA300"/>
<path d="M61.9243 78.1317H69.2174V81.8616H61.9243V78.1317Z" fill="#9FD6ED" stroke="#F1F1F1"/>
<path d="M61.9243 81.8105H69.2174V94.4748H61.9243V81.8105Z" fill="#9FD6ED" stroke="#F1F1F1"/>
<path d="M68.9404 81.8105H76.2335V94.4748H68.9404V81.8105Z" fill="#9FD6ED" stroke="#F1F1F1"/>
<path d="M61.9243 94.4236H76.2347V106.562H61.9243V94.4236Z" fill="#9FD6ED" stroke="#F1F1F1"/>
<path d="M68.9404 78.1317H76.2335V81.8616H68.9404V78.1317Z" fill="#9FD6ED" stroke="#F1F1F1"/>
<rect x="89.6763" y="76.5804" width="17.8621" height="31.5331" fill="#FFA300"/>
<path d="M91.4507 78.1317H98.7438V81.8616H91.4507V78.1317Z" fill="#9FD6ED" stroke="#F1F1F1"/>
<path d="M91.4507 81.8105H98.7438V94.4748H91.4507V81.8105Z" fill="#9FD6ED" stroke="#F1F1F1"/>
<path d="M98.4678 81.8105H105.761V94.4748H98.4678V81.8105Z" fill="#9FD6ED" stroke="#F1F1F1"/>
<path d="M91.4507 94.4236H105.761V106.562H91.4507V94.4236Z" fill="#9FD6ED" stroke="#F1F1F1"/>
<path d="M98.4678 78.1317H105.761V81.8616H98.4678V78.1317Z" fill="#9FD6ED" stroke="#F1F1F1"/>
<path fill-rule="evenodd" clip-rule="evenodd" d="M221.999 65.7685L150.687 0.900528L78.7383 65.7685H221.999ZM205.596 65.769H97.3298V198.208H205.596V65.769Z" fill="#E7E7E7"/>
<path fill-rule="evenodd" clip-rule="evenodd" d="M222 65.769L150.492 0L77.645 65.769H96.1489H96.4824L150.492 15.227L204.789 65.769H222Z" fill="#FFA300"/>
<ellipse cx="151.926" cy="44.7702" rx="15.3103" ry="12.6132" fill="#F1F1F1"/>
<ellipse cx="151.925" cy="44.7703" rx="12.4396" ry="10.2482" fill="#9FD6ED"/>
<path d="M151.447 33.7343H152.404V57.3841H151.447V33.7343Z" fill="#F1F1F1"/>
<path d="M166.279 44.3762L166.279 45.1645L137.572 45.1645L137.572 44.3762L166.279 44.3762Z" fill="#F1F1F1"/>
<rect x="96.7129" y="121.324" width="109.36" height="1.80189" fill="#C4C4C4"/>
<rect x="96.7129" y="123.135" width="108.266" height="5.40567" fill="#F1F1F1"/>
<rect x="187.005" y="160.672" width="14.2167" height="3.66209" fill="#FFA300"/>
<rect x="191.38" y="123.135" width="5.46798" height="37.5364" fill="#F1F1F1"/>
<rect x="190.286" y="164.333" width="7.65517" height="33.8743" fill="#F1F1F1"/>
<rect x="101.704" y="161.565" width="14.2167" height="3.57489" fill="#FFA300"/>
<rect x="106.078" y="123.135" width="5.46798" height="38.4301" fill="#F1F1F1"/>
<rect x="104.984" y="165.14" width="7.65517" height="33.0678" fill="#F1F1F1"/>
<rect x="133.418" y="139.647" width="34.5683" height="57.6605" fill="#DADADA"/>
<path d="M136.485 142.46H165.183V194.19H136.485V142.46Z" fill="#F1F1F1"/>
<ellipse cx="160.769" cy="168.324" rx="1.10378" ry="1.07773" fill="#C4C4C4"/>
<path d="M145.415 183.513H156.253V185.781H145.415V183.513Z" stroke="#C4C4C4" stroke-width="0.2"/>
<rect x="144.311" y="185.669" width="13.0453" height="4.11091" stroke="#FFA300" stroke-width="0.2"/>
<mask id="path-61-inside-1" fill="white">
<path fill-rule="evenodd" clip-rule="evenodd" d="M157.799 156.121C157.809 155.966 157.813 155.808 157.813 155.65C157.813 151.61 154.689 148.335 150.835 148.335C146.98 148.335 143.856 151.61 143.856 155.65C143.856 155.808 143.861 155.966 143.87 156.121H157.799Z"/>
</mask>
<path fill-rule="evenodd" clip-rule="evenodd" d="M157.799 156.121C157.809 155.966 157.813 155.808 157.813 155.65C157.813 151.61 154.689 148.335 150.835 148.335C146.98 148.335 143.856 151.61 143.856 155.65C143.856 155.808 143.861 155.966 143.87 156.121H157.799Z" fill="#9FD6ED"/>
<path d="M157.799 156.121V156.321H157.987L157.999 156.134L157.799 156.121ZM143.87 156.121L143.671 156.134L143.682 156.321H143.87V156.121ZM157.613 155.65C157.613 155.804 157.609 155.957 157.6 156.109L157.999 156.134C158.008 155.974 158.013 155.812 158.013 155.65H157.613ZM150.835 148.535C154.57 148.535 157.613 151.711 157.613 155.65H158.013C158.013 151.508 154.808 148.135 150.835 148.135V148.535ZM144.056 155.65C144.056 151.711 147.1 148.535 150.835 148.535V148.135C146.861 148.135 143.656 151.508 143.656 155.65H144.056ZM144.07 156.109C144.061 155.957 144.056 155.804 144.056 155.65H143.656C143.656 155.812 143.661 155.974 143.671 156.134L144.07 156.109ZM143.87 156.321H157.799V155.921H143.87V156.321Z" fill="#FFA300" mask="url(#path-61-inside-1)"/>
<path d="M150.79 155.808L156.009 151.005L156.287 151.283L151.271 156.047L150.79 155.808Z" fill="#FFA300" stroke="#FFA300" stroke-width="0.1"/>
<path d="M150.403 156.038L145.423 151.359L145.7 151.081L150.921 156.038L150.403 156.038Z" fill="#FFA300" stroke="#FFA300" stroke-width="0.1"/>
<path d="M150.5 148.589H150.891V155.831L150.5 155.831V148.589Z" fill="#FFA300" stroke="#FFA300" stroke-width="0.1"/>
<rect x="119.202" y="68.472" width="23.9862" height="42.3444" fill="#FFA300"/>
<path d="M121.415 70.3824H131.551V76.0794H121.415V70.3824Z" fill="#9FD6ED" stroke="#F1F1F1"/>
<path d="M121.415 75.9521H131.551V92.6726H121.415V75.9521Z" fill="#9FD6ED" stroke="#F1F1F1"/>
<path d="M130.837 75.3225H140.973V92.6717H130.837V75.3225Z" fill="#9FD6ED" stroke="#F1F1F1"/>
<path d="M121.415 92.2608H140.975V108.904H121.415V92.2608Z" fill="#9FD6ED" stroke="#F1F1F1"/>
<path d="M130.837 70.3824H140.973V75.734H130.837V70.3824Z" fill="#9FD6ED" stroke="#F1F1F1"/>
<rect x="159.665" y="68.472" width="23.9862" height="42.3444" fill="#FFA300"/>
<path d="M161.878 70.3824H172.014V76.0794H161.878V70.3824Z" fill="#9FD6ED" stroke="#F1F1F1"/>
<path d="M161.878 75.7281H172.014V92.6719H161.878V75.7281Z" fill="#9FD6ED" stroke="#F1F1F1"/>
<path d="M171.301 75.3225H181.438V92.6717H171.301V75.3225Z" fill="#9FD6ED" stroke="#F1F1F1"/>
<path d="M161.878 92.2608H181.438V108.904H161.878V92.2608Z" fill="#9FD6ED" stroke="#F1F1F1"/>
<path d="M171.301 70.3824H181.438V75.734H171.301V70.3824Z" fill="#9FD6ED" stroke="#F1F1F1"/>
<path d="M13.1885 191.66H24.3753L22.2778 197.42H15.286L13.1885 191.66Z" fill="#A4682C"/>
<path d="M18.6177 178.717H19.1112V191.728H18.6177V178.717Z" fill="#E2984E"/>
<ellipse cx="19.1094" cy="177.091" rx="3.94829" ry="3.25275" fill="#9BCF51"/>
<path d="M23.6757 176.768C23.6757 178.836 21.641 180.512 19.1311 180.512C16.6211 180.512 14.5864 178.836 14.5864 176.768C14.5864 174.701 16.6211 180.512 19.1311 180.512C21.641 180.512 23.6757 174.701 23.6757 176.768Z" fill="#769F39"/>
<path d="M9.14856 60.2936C9.14856 60.2936 70.1376 60.2936 72.5771 60.2936C75.0166 60.2936 75.0166 62.3034 72.5771 62.3034C70.1376 62.3034 9.14856 62.3034 9.14856 62.3034C6.70893 62.3034 6.70895 60.2936 9.14856 60.2936Z" fill="#FFA300"/>
<path d="M38.2571 54.265C38.2571 54.265 93.7017 54.265 95.9194 54.265C98.1371 54.265 98.1371 56.2748 95.9194 56.2748C93.7017 56.2748 38.2571 56.2748 38.2571 56.2748C36.0393 56.2748 36.0393 54.265 38.2571 54.265Z" fill="#FFA300"/>
<path d="M20.8468 48.2354C20.8468 48.2354 65.2024 48.2354 66.9766 48.2354C68.7508 48.2354 68.7508 50.2452 66.9766 50.2452C65.2024 50.2452 20.8468 50.2452 20.8468 50.2452C19.0725 50.2452 19.0726 48.2354 20.8468 48.2354Z" fill="#FFA300"/>
<path d="M76.4239 48.2354C76.4239 48.2354 103.037 48.2354 104.102 48.2354C105.166 48.2354 105.166 50.2452 104.102 50.2452C103.037 50.2452 76.4239 50.2452 76.4239 50.2452C75.3593 50.2452 75.3594 48.2354 76.4239 48.2354Z" fill="#FFA300"/>
<path d="M59.8135 42.2058C59.8135 42.2058 101.951 42.2058 103.637 42.2058C105.322 42.2058 105.322 44.2156 103.637 44.2156C101.951 44.2156 59.8135 44.2156 59.8135 44.2156C58.1279 44.2156 58.1279 42.2058 59.8135 42.2058Z" fill="#FFA300"/>
<path d="M20.3811 42.2058C20.3811 42.2058 49.2122 42.2058 50.3654 42.2058C51.5187 42.2058 51.5187 44.2156 50.3654 44.2156C49.2122 44.2156 20.3811 44.2156 20.3811 44.2156C19.2278 44.2156 19.2278 42.2058 20.3811 42.2058Z" fill="#FFA300"/>
<path d="M30.8713 36.1762C30.8713 36.1762 84.098 36.1762 86.227 36.1762C88.3561 36.1762 88.3561 38.186 86.227 38.186C84.098 38.186 30.8713 38.186 30.8713 38.186C28.7421 38.186 28.7421 36.1762 30.8713 36.1762Z" fill="#FFA300"/>
<path d="M98.0483 36.1762C98.0483 36.1762 113.573 36.1762 114.194 36.1762C114.815 36.1762 114.815 38.186 114.194 38.186C113.573 38.186 98.0483 38.186 98.0483 38.186C97.4273 38.186 97.4273 36.1762 98.0483 36.1762Z" fill="#FFA300"/>
<path d="M74.4522 30.1471C74.4522 30.1471 116.59 30.1471 118.275 30.1471C119.961 30.1471 119.961 32.1569 118.275 32.1569C116.59 32.1569 74.4522 32.1569 74.4522 32.1569C72.7666 32.1569 72.7666 30.1471 74.4522 30.1471Z" fill="#FFA300"/>
<path d="M30.2724 30.1471C30.2724 30.1471 63.5392 30.1471 64.8698 30.1471C66.2005 30.1471 66.2005 32.1569 64.8698 32.1569C63.5392 32.1569 30.2724 32.1569 30.2724 32.1569C28.9417 32.1569 28.9417 30.1471 30.2724 30.1471Z" fill="#FFA300"/>
<path d="M10.3571 54.265C10.3571 54.265 30.3171 54.265 31.1155 54.265C31.9139 54.265 31.9139 56.2748 31.1155 56.2748C30.3171 56.2748 10.3571 56.2748 10.3571 56.2748C9.55869 56.2748 9.5587 54.265 10.3571 54.265Z" fill="#FFA300"/>
</svg>
