<svg width="189" height="191" viewBox="0 0 189 191" fill="none" xmlns="http://www.w3.org/2000/svg">
<path d="M9.70512 183.812C11.9102 183.812 177.705 183.812 181.894 183.812C186.082 183.812 186.082 191 181.894 191C177.705 191 11.4352 191 9.70512 191C7.97505 191 7.50009 183.812 9.70512 183.812Z" fill="#FFC55E"/>
<path d="M37.3022 13.6634L180.295 32.4962V183.831H37.3022V13.6634Z" fill="#E5E5E5"/>
<path d="M27.356 0L189 21.1401V34.7788L27.356 12.9568V0Z" fill="#FFA300"/>
<rect x="58.4409" y="39.7472" width="19.7289" height="42.2314" fill="#FFA300"/>
<path d="M60.3491 41.6546H68.509V47.3338H60.3491V41.6546Z" fill="#9FD6ED" stroke="#F1F1F1"/>
<path d="M60.3491 47.2087H68.509V63.8819H60.3491V47.2087Z" fill="#9FD6ED" stroke="#F1F1F1"/>
<path d="M68.0991 46.5819H76.259V63.8822H68.0991V46.5819Z" fill="#9FD6ED" stroke="#F1F1F1"/>
<path d="M60.3491 63.4744H76.2596V80.0708H60.3491V63.4744Z" fill="#9FD6ED" stroke="#F1F1F1"/>
<path d="M68.0991 41.6546H76.259V46.9893H68.0991V41.6546Z" fill="#9FD6ED" stroke="#F1F1F1"/>
<rect x="99.4731" y="39.7472" width="19.7289" height="42.2314" fill="#FFA300"/>
<path d="M101.382 41.6546H109.542V47.3338H101.382V41.6546Z" fill="#9FD6ED" stroke="#F1F1F1"/>
<path d="M101.382 47.2087H109.542V63.8819H101.382V47.2087Z" fill="#9FD6ED" stroke="#F1F1F1"/>
<path d="M109.133 46.5819H117.293V63.8822H109.133V46.5819Z" fill="#9FD6ED" stroke="#F1F1F1"/>
<path d="M101.382 63.4744H117.292V80.0708H101.382V63.4744Z" fill="#9FD6ED" stroke="#F1F1F1"/>
<path d="M109.133 41.6546H117.293V46.9893H109.133V41.6546Z" fill="#9FD6ED" stroke="#F1F1F1"/>
<rect x="99.4731" y="98.1259" width="19.7289" height="42.2314" fill="#FFA300"/>
<path d="M101.382 100.033H109.542V105.713H101.382V100.033Z" fill="#9FD6ED" stroke="#F1F1F1"/>
<path d="M101.382 105.587H109.542V122.261H101.382V105.587Z" fill="#9FD6ED" stroke="#F1F1F1"/>
<path d="M109.133 104.961H117.293V122.261H109.133V104.961Z" fill="#9FD6ED" stroke="#F1F1F1"/>
<path d="M101.382 121.853H117.292V138.449H101.382V121.853Z" fill="#9FD6ED" stroke="#F1F1F1"/>
<path d="M109.133 100.033H117.293V105.368H109.133V100.033Z" fill="#9FD6ED" stroke="#F1F1F1"/>
<rect x="140.505" y="39.7472" width="19.7289" height="42.2314" fill="#FFA300"/>
<path d="M142.415 41.6546H150.574V47.3338H142.415V41.6546Z" fill="#9FD6ED" stroke="#F1F1F1"/>
<path d="M142.415 47.2087H150.574V63.8819H142.415V47.2087Z" fill="#9FD6ED" stroke="#F1F1F1"/>
<path d="M150.165 46.5819H158.324V63.8822H150.165V46.5819Z" fill="#9FD6ED" stroke="#F1F1F1"/>
<path d="M142.415 63.4744H158.325V80.0708H142.415V63.4744Z" fill="#9FD6ED" stroke="#F1F1F1"/>
<path d="M150.165 41.6546H158.324V46.9893H150.165V41.6546Z" fill="#9FD6ED" stroke="#F1F1F1"/>
<rect x="140.505" y="98.1259" width="19.7289" height="42.2314" fill="#FFA300"/>
<path d="M142.415 100.033H150.574V105.713H142.415V100.033Z" fill="#9FD6ED" stroke="#F1F1F1"/>
<path d="M142.415 105.587H150.574V122.261H142.415V105.587Z" fill="#9FD6ED" stroke="#F1F1F1"/>
<path d="M150.165 104.961H158.324V122.261H150.165V104.961Z" fill="#9FD6ED" stroke="#F1F1F1"/>
<path d="M142.415 121.853H158.325V138.449H142.415V121.853Z" fill="#9FD6ED" stroke="#F1F1F1"/>
<path d="M150.165 100.033H158.324V105.368H150.165V100.033Z" fill="#9FD6ED" stroke="#F1F1F1"/>
<path fill-rule="evenodd" clip-rule="evenodd" d="M93.2569 92.3221L47.1876 47.1999L0.707031 92.3221H12.4348V183.831H82.0662V92.3221H93.2569Z" fill="#F1F1F1"/>
<path fill-rule="evenodd" clip-rule="evenodd" d="M93.4453 92.5364L47.2499 46.5787L0 92.5364H11.3456L47.0605 56.5494L82.9664 92.5364H93.4453Z" fill="#FFA300"/>
<rect x="32.4238" y="97.8076" width="28.4073" height="86.0234" fill="#FFC55E"/>
<rect x="26.1118" y="93.1574" width="41.0328" height="5.4249" fill="#FFA300"/>
<rect x="34.8154" y="126.694" width="23.6249" height="57.4844" fill="#E7E7E7"/>
<rect x="36.731" y="130.287" width="19.7939" height="50.2989" fill="#FFA300"/>
<rect x="38.5078" y="134.38" width="6.66214" height="7.98194" fill="#9FD6ED" stroke="#F1F1F1"/>
<rect x="48.0859" y="134.38" width="6.66214" height="7.98194" fill="#9FD6ED" stroke="#F1F1F1"/>
<rect x="48.0859" y="145.158" width="6.66214" height="7.98194" fill="#9FD6ED" stroke="#F1F1F1"/>
<rect x="38.5078" y="145.158" width="6.66214" height="7.98194" fill="#9FD6ED" stroke="#F1F1F1"/>
<rect x="38.5078" y="155.936" width="6.66214" height="7.98194" fill="#9FD6ED" stroke="#F1F1F1"/>
<rect x="48.0859" y="155.936" width="6.66214" height="7.98194" fill="#9FD6ED" stroke="#F1F1F1"/>
<rect x="48.0859" y="166.714" width="6.66214" height="7.98194" fill="#9FD6ED" stroke="#F1F1F1"/>
<rect x="38.5078" y="166.714" width="6.66214" height="7.98194" fill="#9FD6ED" stroke="#F1F1F1"/>
<rect x="35.3154" y="108.563" width="22.6249" height="17.6315" fill="#9FD6ED" stroke="#E7E7E7"/>
<ellipse cx="46.9463" cy="76.7411" rx="6.82867" ry="6.82143" fill="#E5E5E5"/>
<ellipse cx="46.9467" cy="76.7412" rx="5.54829" ry="5.54241" fill="#9FD6ED"/>
<path d="M46.7324 70.7725H47.1592V83.5627H46.7324V70.7725Z" fill="#E5E5E5"/>
<path d="M53.3481 76.5279L53.3481 76.9542L40.5444 76.9542L40.5444 76.5279L53.3481 76.5279Z" fill="#E5E5E5"/>
<path d="M27.5151 183.326H64.5709V186.035H27.5151V183.326Z" fill="#F1F1F1"/>
<path d="M25.7075 186.035H66.3785V188.73H25.7075V186.035Z" fill="#F1F1F1"/>
<path d="M23.9009 188.292H68.1871V191H23.9009V188.292Z" fill="#F1F1F1"/>
<rect x="27.5156" y="185.132" width="37.0558" height="0.902842" fill="#E7E7E7"/>
<path d="M23.9009 188.292H68.1871L68.1871 189.646H23.9009V188.292Z" fill="#E7E7E7"/>
<ellipse cx="112.156" cy="75.2832" rx="1.64904" ry="1.34778" fill="#9BCF51"/>
<ellipse cx="114.876" cy="76.7594" rx="2.82692" ry="2.31048" fill="#769F39"/>
<ellipse cx="111.535" cy="77.0162" rx="2.05594" ry="1.54032" fill="#85BB33"/>
<path d="M108.965 77.5294H118.217L117.446 80.0966H109.736L108.965 77.5294Z" fill="#A4682C"/>
<path d="M160.363 174.894H175.415L172.593 184.292H163.186L160.363 174.894Z" fill="#A4682C"/>
<path d="M167.669 153.778H168.333V175.005H167.669V153.778Z" fill="#E2984E"/>
<ellipse cx="168.333" cy="151.124" rx="5.31248" ry="5.30685" fill="#9BCF51"/>
<path d="M174.476 150.599C174.476 153.973 171.738 156.707 168.361 156.707C164.984 156.707 162.246 153.973 162.246 150.599C162.246 147.225 164.984 156.707 168.361 156.707C171.738 156.707 174.476 147.225 174.476 150.599Z" fill="#769F39"/>
<rect x="101.217" y="145.826" width="63.7572" height="37.5051" stroke="white"/>
<rect x="101.217" y="145.826" width="9.79287" height="37.5051" stroke="white"/>
<rect x="110.468" y="145.826" width="9.79287" height="37.5051" stroke="white"/>
<rect x="119.719" y="145.826" width="9.79287" height="37.5051" stroke="white"/>
<rect x="128.97" y="145.826" width="9.79287" height="37.5051" stroke="white"/>
<rect x="138.221" y="145.826" width="9.79287" height="37.5051" stroke="white"/>
<rect x="147.472" y="145.826" width="9.79287" height="37.5051" stroke="white"/>
<path d="M156.724 145.826H164.975V183.331H156.724V145.826Z" stroke="white"/>
</svg>
