<svg width="216" height="198" viewBox="0 0 216 198" fill="none" xmlns="http://www.w3.org/2000/svg">
<path fill-rule="evenodd" clip-rule="evenodd" d="M190.106 74.7084L100.615 0L10.6177 74.7084H11.6282V194.333H189.094V74.7084H190.106Z" fill="#E5E5E5"/>
<path fill-rule="evenodd" clip-rule="evenodd" d="M201.229 70.5834L99.6033 0L0 70.5834L7.07841 78.8334H7.6295L99.6036 13.292L191.825 78.6598L201.229 70.5834Z" fill="#FFA300"/>
<path fill-rule="evenodd" clip-rule="evenodd" d="M194.121 63.2495L145.265 21.0835L96.9758 63.2495H91.1166V68.3657L85.9521 72.8752H91.1166V194.333H204.371V72.8752H205.274L204.371 72.096V63.2495H194.121Z" fill="#F1F1F1"/>
<path fill-rule="evenodd" clip-rule="evenodd" d="M216 70.246L145.216 21.0835L75.8403 70.246L82.9187 78.4961H83.3019L145.216 34.3755L206.876 78.0812L216 70.246Z" fill="#FFA300"/>
<path d="M7.43378 194.333H207.855C208.504 196.027 208.411 196.791 207.855 198H7.43378C6.89208 196.341 7.03362 195.598 7.43378 194.333Z" fill="#FFC55E"/>
<path d="M24.8392 133.833H78.0783L85.9851 145.541H16.4053L24.8392 133.833Z" fill="#F1F1F1"/>
<rect x="16.4053" y="145.301" width="69.5798" height="1.43352" fill="#C4C4C4"/>
<rect x="23.96" y="146.39" width="5.03693" height="2.28302" fill="#F1F1F1"/>
<rect x="23.96" y="192.051" width="5.03693" height="2.28302" fill="#F1F1F1"/>
<rect x="25.2188" y="148.674" width="2.51846" height="43.3774" fill="#F1F1F1"/>
<rect x="74.3296" y="146.39" width="5.03693" height="2.28302" fill="#F1F1F1"/>
<rect x="74.3296" y="192.051" width="5.03693" height="2.28302" fill="#F1F1F1"/>
<rect x="75.5889" y="148.674" width="2.51846" height="43.3774" fill="#F1F1F1"/>
<rect x="39.4365" y="156.75" width="24.2688" height="37.5834" fill="#DADADA"/>
<path d="M41.5894 158.583H61.7371V192.302H41.5894V158.583Z" fill="#F1F1F1"/>
<ellipse cx="58.6377" cy="175.443" rx="0.774912" ry="0.702468" fill="#C4C4C4"/>
<path d="M47.8881 185.377H55.4372V186.786H47.8881V185.377Z" stroke="#C4C4C4" stroke-width="0.2"/>
<rect x="47.1137" y="186.783" width="9.09894" height="2.60987" stroke="#FFA300" stroke-width="0.2"/>
<mask id="path-19-inside-1" fill="white">
<path fill-rule="evenodd" clip-rule="evenodd" d="M56.5525 167.489C56.5592 167.387 56.5626 167.285 56.5626 167.181C56.5626 164.548 54.369 162.413 51.6631 162.413C48.9572 162.413 46.7637 164.548 46.7637 167.181C46.7637 167.285 46.7671 167.387 46.7737 167.489H56.5525Z"/>
</mask>
<path fill-rule="evenodd" clip-rule="evenodd" d="M56.5525 167.489C56.5592 167.387 56.5626 167.285 56.5626 167.181C56.5626 164.548 54.369 162.413 51.6631 162.413C48.9572 162.413 46.7637 164.548 46.7637 167.181C46.7637 167.285 46.7671 167.387 46.7737 167.489H56.5525Z" fill="#9FD6ED"/>
<path d="M56.5525 167.489V167.689H56.7398L56.7521 167.502L56.5525 167.489ZM46.7737 167.489L46.5742 167.502L46.5864 167.689H46.7737V167.489ZM56.3626 167.181C56.3626 167.28 56.3593 167.379 56.3529 167.476L56.7521 167.502C56.759 167.396 56.7626 167.289 56.7626 167.181H56.3626ZM51.6631 162.613C54.2637 162.613 56.3626 164.663 56.3626 167.181H56.7626C56.7626 164.432 54.4743 162.213 51.6631 162.213V162.613ZM46.9637 167.181C46.9637 164.663 49.0625 162.613 51.6631 162.613V162.213C48.8519 162.213 46.5637 164.432 46.5637 167.181H46.9637ZM46.9733 167.476C46.9669 167.379 46.9637 167.28 46.9637 167.181H46.5637C46.5637 167.289 46.5672 167.396 46.5742 167.502L46.9733 167.476ZM46.7737 167.689H56.5525V167.289H46.7737V167.689Z" fill="#FFA300" mask="url(#path-19-inside-1)"/>
<path d="M51.661 167.28L55.296 164.175L55.4674 164.335L51.9665 167.421L51.661 167.28Z" fill="#FFA300" stroke="#FFA300" stroke-width="0.1"/>
<path d="M51.3666 167.419L47.8877 164.384L48.0584 164.225L51.6816 167.419L51.3666 167.419Z" fill="#FFA300" stroke="#FFA300" stroke-width="0.1"/>
<path d="M51.4436 162.596H51.6886V167.281L51.4436 167.281V162.596Z" fill="#FFA300" stroke="#FFA300" stroke-width="0.1"/>
<path d="M37.4141 77.9165H66.2333V107.25H37.4141V77.9165Z" fill="#FFA300"/>
<path d="M39.0425 80.2692H51.009V105.09H39.0425V80.2692Z" fill="#9FD6ED" stroke="#E7E7E7"/>
<path d="M52.5757 80.269H64.5422V105.09H52.5757V80.269Z" fill="#9FD6ED" stroke="#E7E7E7"/>
<rect x="119.322" y="115.501" width="52.5824" height="1.83333" fill="#E7E7E7"/>
<rect x="119.322" y="174.167" width="52.5824" height="1.83333" fill="#E7E7E7"/>
<rect x="120.333" y="72.417" width="50.56" height="43.0834" fill="#FFA300"/>
<path d="M121.845 75.667H132.47V92.3248H121.845V75.667Z" fill="#9FD6ED" stroke="#E7E7E7"/>
<path d="M133.979 75.667H144.605V92.3248H133.979V75.667Z" fill="#9FD6ED" stroke="#E7E7E7"/>
<path d="M121.845 94.9175H144.608V113.167H121.845V94.9175Z" fill="#9FD6ED" stroke="#E7E7E7"/>
<path d="M146.114 75.667H156.739V92.3248H146.114V75.667Z" fill="#9FD6ED" stroke="#E7E7E7"/>
<path d="M158.249 75.667H168.874V92.3248H158.249V75.667Z" fill="#9FD6ED" stroke="#E7E7E7"/>
<path d="M146.114 94.9175H168.877V113.167H146.114V94.9175Z" fill="#9FD6ED" stroke="#E7E7E7"/>
<rect x="120.333" y="131.084" width="50.56" height="43.0834" fill="#FFA300"/>
<path d="M121.845 134.334H132.47V150.991H121.845V134.334Z" fill="#9FD6ED" stroke="#E7E7E7"/>
<path d="M133.979 134.333H144.605V150.991H133.979V134.333Z" fill="#9FD6ED" stroke="#E7E7E7"/>
<path d="M121.845 153.584H144.608V171.834H121.845V153.584Z" fill="#9FD6ED" stroke="#E7E7E7"/>
<path d="M146.114 134.334H156.739V150.991H146.114V134.334Z" fill="#9FD6ED" stroke="#E7E7E7"/>
<path d="M158.249 134.333H168.874V150.991H158.249V134.333Z" fill="#9FD6ED" stroke="#E7E7E7"/>
<path d="M146.114 153.584H168.877V171.834H146.114V153.584Z" fill="#9FD6ED" stroke="#E7E7E7"/>
<path d="M184.039 187.84H195.499L193.35 194.333H186.187L184.039 187.84Z" fill="#A4682C"/>
<path d="M189.411 167.062H190.127V187.84H189.411V167.062Z" fill="#E2984E"/>
<ellipse cx="190.104" cy="167.751" rx="4.0448" ry="3.66667" fill="#9BCF51"/>
<path d="M194.782 167.388C194.782 169.719 192.698 171.608 190.126 171.608C187.555 171.608 185.471 169.719 185.471 167.388C185.471 165.057 187.555 171.608 190.126 171.608C192.698 171.608 194.782 165.057 194.782 167.388Z" fill="#769F39"/>
<path d="M96.0645 187.84H107.525L105.376 194.333H98.2133L96.0645 187.84Z" fill="#A4682C"/>
<path d="M101.625 173.25H102.131V187.917H101.625V173.25Z" fill="#E2984E"/>
<ellipse cx="102.132" cy="171.417" rx="4.0448" ry="3.66667" fill="#9BCF51"/>
<path d="M106.809 171.055C106.809 173.386 104.724 175.275 102.153 175.275C99.5815 175.275 97.4971 173.386 97.4971 171.055C97.4971 168.724 99.5815 175.275 102.153 175.275C104.724 175.275 106.809 168.724 106.809 171.055Z" fill="#769F39"/>
<path d="M88.5699 122.475C89.6957 122.475 205.66 122.475 206.786 122.475C207.912 122.475 207.912 124.516 206.786 124.516C205.66 124.516 89.6957 124.516 88.5699 124.516C87.4442 124.516 87.4441 122.475 88.5699 122.475Z" fill="#FFC55E"/>
<path d="M22.7112 136.763H80.0643L81.4365 138.804H21.2241L22.7112 136.763Z" fill="#C4C4C4"/>
<path d="M19.7615 140.845H82.832L84.199 142.886H18.2822L19.7615 140.845Z" fill="#C4C4C4"/>
</svg>
