<svg width="249" height="174" viewBox="0 0 249 174" fill="none" xmlns="http://www.w3.org/2000/svg">
<path d="M9.63306 68.606H99.2151V164.058H9.63306V68.606Z" fill="#E5E5E5"/>
<rect x="27.9346" y="79.543" width="89.7077" height="67.6115" fill="#F1F1F1"/>
<rect x="33.6299" y="83.9527" width="78.3162" height="58.7926" fill="#FFA300"/>
<rect x="89.1643" y="86.8922" width="19.935" height="44.0945" fill="#FFA300"/>
<path d="M91.0876 88.8621H99.3432V94.4763H91.0876V88.8621Z" fill="#9FD6ED" stroke="#E5E5E5"/>
<path d="M91.0876 94.4605H99.3432V112.568H91.0876V94.4605Z" fill="#9FD6ED" stroke="#E5E5E5"/>
<path d="M98.9197 94.0069H107.175V112.114H98.9197V94.0069Z" fill="#9FD6ED" stroke="#F1F1F1"/>
<path d="M98.9197 88.8621H107.175V94.4763H98.9197V88.8621Z" fill="#9FD6ED" stroke="#F1F1F1"/>
<path d="M91.0876 111.645H107.175V129.017H91.0876V111.645Z" fill="#9FD6ED" stroke="#E5E5E5"/>
<rect x="37.9019" y="86.8922" width="19.935" height="44.0945" fill="#FFA300"/>
<path d="M39.8264 88.8621H48.082V94.4763H39.8264V88.8621Z" fill="#9FD6ED" stroke="#E5E5E5"/>
<path d="M39.8264 94.4605H48.082V112.114H39.8264V94.4605Z" fill="#9FD6ED" stroke="#E5E5E5"/>
<path d="M47.6577 94.0069H55.9133V112.114H47.6577V94.0069Z" fill="#9FD6ED" stroke="#E5E5E5"/>
<path d="M39.8264 111.645H55.9136V129.017H39.8264V111.645Z" fill="#9FD6ED" stroke="#E5E5E5"/>
<path d="M47.6577 88.8621H55.9133V94.4763H47.6577V88.8621Z" fill="#9FD6ED" stroke="#E5E5E5"/>
<rect x="63.533" y="86.8922" width="19.935" height="44.0945" fill="#FFA300"/>
<path d="M65.4565 88.8621H73.7121V94.4763H65.4565V88.8621Z" fill="#9FD6ED" stroke="#E5E5E5"/>
<path d="M65.4565 94.4605H73.7121V112.114H65.4565V94.4605Z" fill="#9FD6ED" stroke="#E5E5E5"/>
<path d="M73.2886 94.0069H81.5441V112.114H73.2886V94.0069Z" fill="#9FD6ED" stroke="#E5E5E5"/>
<path d="M65.4565 111.645H81.5437V129.017H65.4565V111.645Z" fill="#9FD6ED" stroke="#E5E5E5"/>
<path d="M73.2886 88.8621H77.4164H81.5441V94.4763H73.2886V88.8621Z" fill="#9FD6ED" stroke="#E5E5E5"/>
<rect x="36.478" y="135.396" width="72.6205" height="4.40944" fill="#F1F1F1"/>
<path d="M27.4526 25.8514H137.744V69.6H0V63.1372C12.2369 51.443 17.4703 43.2163 27.4526 25.8514Z" fill="#FFC154"/>
<path fill-rule="evenodd" clip-rule="evenodd" d="M225.662 64.6287L165.678 0L105.256 64.6287H98.251V171.017H232.142V64.6287H225.662Z" fill="#F1F1F1"/>
<path fill-rule="evenodd" clip-rule="evenodd" d="M249 76.0629L165.679 0L82.8396 76.0629H95.2929L165.679 11.4344L236.475 76.0629H249Z" fill="#FFA300"/>
<rect x="134.855" y="47.7258" width="60.6846" height="45.7372" fill="#E7E7E7"/>
<rect x="138.708" y="50.7086" width="52.9786" height="39.7715" fill="#FFA300"/>
<rect x="176.275" y="52.6972" width="13.4855" height="29.8286" fill="#FFA300"/>
<path d="M177.738 54.1916H182.999V57.6658H177.738V54.1916Z" fill="#9FD6ED" stroke="#F1F1F1"/>
<path d="M177.738 57.6715H182.999V69.5973H177.738V57.6715Z" fill="#9FD6ED" stroke="#F1F1F1"/>
<path d="M183.036 57.6715H188.297V69.5973H183.036V57.6715Z" fill="#9FD6ED" stroke="#F1F1F1"/>
<path d="M183.036 54.1916H188.297V57.6658H183.036V54.1916Z" fill="#9FD6ED" stroke="#F1F1F1"/>
<path d="M177.738 69.603H188.297V81.0315H177.738V69.603Z" fill="#9FD6ED" stroke="#F1F1F1"/>
<rect x="141.598" y="52.6972" width="13.4855" height="29.8286" fill="#FFA300"/>
<path d="M143.062 54.1916H148.323V57.6658H143.062V54.1916Z" fill="#9FD6ED" stroke="#F1F1F1"/>
<path d="M143.062 57.6715H148.323V69.5973H143.062V57.6715Z" fill="#9FD6ED" stroke="#F1F1F1"/>
<path d="M148.359 57.6715H153.62V69.5973H148.359V57.6715Z" fill="#9FD6ED" stroke="#F1F1F1"/>
<path d="M143.062 69.603H153.62V81.0315H143.062V69.603Z" fill="#9FD6ED" stroke="#F1F1F1"/>
<path d="M148.359 54.1916H153.62V57.6658H148.359V54.1916Z" fill="#9FD6ED" stroke="#F1F1F1"/>
<rect x="158.937" y="52.6972" width="13.4855" height="29.8286" fill="#FFA300"/>
<path d="M160.4 54.1916H165.662V57.6658H160.4V54.1916Z" fill="#9FD6ED" stroke="#F1F1F1"/>
<path d="M160.4 57.6715H165.662V69.5973H160.4V57.6715Z" fill="#9FD6ED" stroke="#F1F1F1"/>
<path d="M165.698 57.6715H170.959V69.5973H165.698V57.6715Z" fill="#9FD6ED" stroke="#F1F1F1"/>
<path d="M160.4 69.603H170.959V81.0315H160.4V69.603Z" fill="#9FD6ED" stroke="#F1F1F1"/>
<path d="M165.698 54.1916H168.329H170.959V57.6658H165.698V54.1916Z" fill="#9FD6ED" stroke="#F1F1F1"/>
<rect x="140.635" y="85.5085" width="49.1256" height="2.98286" fill="#E7E7E7"/>
<rect x="147.377" y="104.4" width="35.6402" height="63.6343" fill="#E7E7E7"/>
<rect x="150.267" y="108.377" width="29.8607" height="55.68" fill="#FFA300"/>
<rect x="152.694" y="112.854" width="10.559" height="8.94287" fill="#9FD6ED" stroke="#F1F1F1"/>
<rect x="167.142" y="112.854" width="10.559" height="8.94287" fill="#9FD6ED" stroke="#F1F1F1"/>
<rect x="167.142" y="124.785" width="10.559" height="8.94287" fill="#9FD6ED" stroke="#F1F1F1"/>
<rect x="152.694" y="124.785" width="10.559" height="8.94287" fill="#9FD6ED" stroke="#F1F1F1"/>
<rect x="152.694" y="136.717" width="10.559" height="8.94287" fill="#9FD6ED" stroke="#F1F1F1"/>
<rect x="167.142" y="136.717" width="10.559" height="8.94287" fill="#9FD6ED" stroke="#F1F1F1"/>
<rect x="167.142" y="148.649" width="10.559" height="8.94287" fill="#9FD6ED" stroke="#F1F1F1"/>
<rect x="152.694" y="148.649" width="10.559" height="8.94287" fill="#9FD6ED" stroke="#F1F1F1"/>
<rect x="114.163" y="111.86" width="14.412" height="30.8172" stroke="black"/>
<rect x="108.847" y="104.4" width="25.0444" height="45.7372" fill="#E7E7E7"/>
<rect x="110.773" y="108.377" width="21.1915" height="37.7829" fill="#FFA300"/>
<path d="M114.163 111.86H121.35V115.334H114.163V111.86Z" fill="#9FD6ED" stroke="#F1F1F1"/>
<path d="M121.387 111.86H128.575V115.334H121.387V111.86Z" fill="#9FD6ED" stroke="#F1F1F1"/>
<path d="M114.163 115.34H121.35V128.757H114.163V115.34Z" fill="#9FD6ED" stroke="#F1F1F1"/>
<path d="M121.387 115.34H128.575V128.757H121.387V115.34Z" fill="#9FD6ED" stroke="#F1F1F1"/>
<path d="M114.163 128.763H128.575V142.677H114.163V128.763Z" fill="#9FD6ED" stroke="#F1F1F1"/>
<rect x="198.429" y="104.4" width="25.0444" height="45.7372" fill="#E7E7E7"/>
<rect x="200.355" y="108.377" width="21.1915" height="37.7829" fill="#FFA300"/>
<path d="M203.746 111.86H210.933V115.334H203.746V111.86Z" fill="#9FD6ED" stroke="#F1F1F1"/>
<path d="M210.97 111.86H218.158V115.334H210.97V111.86Z" fill="#9FD6ED" stroke="#F1F1F1"/>
<path d="M203.746 115.34H210.933V128.757H203.746V115.34Z" fill="#9FD6ED" stroke="#F1F1F1"/>
<path d="M210.97 115.34H218.158V128.757H210.97V115.34Z" fill="#9FD6ED" stroke="#F1F1F1"/>
<path d="M203.746 128.763H218.158V142.677H203.746V128.763Z" fill="#9FD6ED" stroke="#F1F1F1"/>
<path d="M93.6884 170.023H236.636C237.099 171.86 237.033 172.689 236.636 174H93.6884C93.302 172.2 93.403 171.395 93.6884 170.023Z" fill="#FFC55E"/>
<path d="M4.98275 163.063H98.2512C98.2512 165.052 98.2512 165.549 98.2512 167.04H4.98275C4.72867 165.24 4.79506 164.435 4.98275 163.063Z" fill="#FFC55E"/>
<ellipse cx="52.979" cy="140.118" rx="3.85299" ry="4.89495" fill="#85BB33"/>
<ellipse cx="48.1617" cy="137.543" rx="4.81624" ry="5.30286" fill="#9BCF51"/>
<path d="M42.6197 136.714C42.6197 138.742 41.0385 140.385 39.0878 140.385C37.1372 140.385 35.5559 138.742 35.5559 136.714C35.5559 134.686 37.1372 133.043 39.0878 133.043C41.0385 133.043 42.6197 134.686 42.6197 136.714Z" fill="#9BCF51"/>
<ellipse cx="45.2724" cy="139.697" rx="5.77949" ry="6.46286" fill="#769F39"/>
<ellipse cx="35.3197" cy="140.271" rx="5.13732" ry="4.48704" fill="#85BB33"/>
<path d="M26.9712 140.194H57.7951L55.2265 147.154H29.54L26.9712 140.194Z" fill="#A4682C"/>
<ellipse cx="162.99" cy="84.1418" rx="3.09042" ry="2.61" fill="#9BCF51"/>
<ellipse cx="168.086" cy="87.0002" rx="5.29786" ry="4.47429" fill="#769F39"/>
<ellipse cx="161.825" cy="87.4976" rx="3.85299" ry="2.98286" fill="#85BB33"/>
<path d="M157.009 88.4921H174.347L172.902 93.4635H158.454L157.009 88.4921Z" fill="#A4682C"/>
<rect x="98.7512" y="145.666" width="39.4564" height="23.8572" stroke="white"/>
<rect x="98.7512" y="145.666" width="5.74274" height="23.8572" stroke="white"/>
<rect x="104.531" y="145.666" width="5.74274" height="23.8572" stroke="white"/>
<rect x="110.31" y="145.666" width="5.74274" height="23.8572" stroke="white"/>
<rect x="116.09" y="145.666" width="5.74274" height="23.8572" stroke="white"/>
<rect x="121.869" y="145.666" width="5.74274" height="23.8572" stroke="white"/>
<rect x="127.649" y="145.666" width="5.74274" height="23.8572" stroke="white"/>
<path d="M133.429 145.666H138.208V169.523H133.429V145.666Z" stroke="white"/>
<rect x="192.187" y="145.666" width="39.4564" height="23.8572" stroke="white"/>
<rect x="192.187" y="145.666" width="5.74274" height="23.8572" stroke="white"/>
<rect x="197.966" y="145.666" width="5.74274" height="23.8572" stroke="white"/>
<rect x="203.746" y="145.666" width="5.74274" height="23.8572" stroke="white"/>
<rect x="209.524" y="145.666" width="5.74274" height="23.8572" stroke="white"/>
<rect x="215.304" y="145.666" width="5.74274" height="23.8572" stroke="white"/>
<rect x="221.084" y="145.666" width="5.74274" height="23.8572" stroke="white"/>
<path d="M226.863 145.666H231.643V169.523H226.863V145.666Z" stroke="white"/>
</svg>
