<svg width="217" height="203" viewBox="0 0 217 203" fill="none" xmlns="http://www.w3.org/2000/svg">
<path fill-rule="evenodd" clip-rule="evenodd" d="M57.1644 170.452C56.518 170.268 55.9056 170.032 55.3326 169.751C53.1916 171.621 49.7883 172.348 46.4139 171.388C44.3709 170.806 42.6674 169.699 41.4759 168.319C39.4844 170.854 35.5621 171.985 31.6781 170.879C27.4909 169.687 24.7298 166.289 24.8797 162.852C24.1237 162.801 23.3539 162.67 22.5857 162.451C17.7809 161.083 14.854 156.81 16.0484 152.907C16.7823 150.509 18.9019 148.808 21.542 148.171C19.6843 146.253 18.8621 143.715 19.596 141.317C20.7903 137.414 25.6536 135.359 30.4585 136.727C31.1606 136.927 31.8227 137.189 32.4377 137.503C32.4553 137.438 32.474 137.373 32.4939 137.308C33.6883 133.405 38.5516 131.35 43.3564 132.718C45.9296 133.451 47.9641 135.016 49.1155 136.912C51.1498 135.923 53.7398 135.674 56.3131 136.407C61.118 137.775 64.0448 142.048 62.8505 145.951L62.8383 145.99C63.1507 146.051 63.4638 146.126 63.7768 146.215C68.5816 147.583 71.5084 151.856 70.3141 155.759C69.7705 157.535 68.4671 158.928 66.755 159.791C68.1269 161.588 68.6648 163.778 68.0269 165.863C66.8325 169.766 61.9692 171.821 57.1644 170.452Z" fill="#9BCF51"/>
<path fill-rule="evenodd" clip-rule="evenodd" d="M46.732 191.683C46.0783 191.524 45.4563 191.313 44.8718 191.055C42.813 193.008 39.4444 193.871 36.032 193.046C33.9657 192.547 32.216 191.509 30.9662 190.178C29.0855 192.791 25.2151 194.078 21.2867 193.128C17.0518 192.105 14.147 188.82 14.1489 185.38C13.3913 185.36 12.6165 185.26 11.8393 185.072C6.97982 183.897 3.87167 179.745 4.89711 175.797C5.52725 173.372 7.57166 171.588 10.1819 170.846C8.24321 169.004 7.3126 166.501 7.9427 164.075C8.96814 160.128 13.7388 157.88 18.5984 159.055C19.3083 159.226 19.9808 159.461 20.6085 159.75C20.6234 159.684 20.6393 159.618 20.6565 159.552C21.6819 155.605 26.4526 153.357 31.3121 154.532C33.9152 155.161 36.0158 156.645 37.2477 158.493C39.2376 157.424 41.8149 157.071 44.4176 157.7C49.2771 158.875 52.3852 163.027 51.3598 166.974L51.3494 167.014C51.6637 167.062 51.9795 167.124 52.2956 167.2C57.1551 168.375 60.2633 172.527 59.2378 176.474C58.7711 178.271 57.5287 179.715 55.8552 180.645C57.3036 182.386 57.9355 184.553 57.3877 186.662C56.3623 190.609 51.5916 192.857 46.732 191.683Z" fill="#769F39"/>
<rect x="36.1611" y="41.0376" width="144.649" height="147.737" fill="#F1F1F1"/>
<path d="M108.513 0L202.465 46.1677H14.5608L108.513 0Z" fill="#FFA300"/>
<rect x="93.4648" y="123.003" width="33.3805" height="66.1602" fill="#E7E7E7"/>
<rect x="96.1719" y="127.138" width="27.9674" height="57.8902" fill="#FFA300"/>
<rect x="98.4756" y="131.773" width="9.8261" height="9.33753" fill="#9FD6ED" stroke="#F1F1F1"/>
<rect x="112.008" y="131.773" width="9.8261" height="9.33753" fill="#9FD6ED" stroke="#F1F1F1"/>
<rect x="112.008" y="144.178" width="9.8261" height="9.33753" fill="#9FD6ED" stroke="#F1F1F1"/>
<rect x="98.4756" y="144.178" width="9.8261" height="9.33753" fill="#9FD6ED" stroke="#F1F1F1"/>
<rect x="98.4756" y="156.583" width="9.8261" height="9.33753" fill="#9FD6ED" stroke="#F1F1F1"/>
<rect x="112.008" y="156.583" width="9.8261" height="9.33753" fill="#9FD6ED" stroke="#F1F1F1"/>
<rect x="112.008" y="168.988" width="9.8261" height="9.33753" fill="#9FD6ED" stroke="#F1F1F1"/>
<rect x="98.4756" y="168.988" width="9.8261" height="9.33753" fill="#9FD6ED" stroke="#F1F1F1"/>
<rect x="55.0776" y="56.1895" width="27.4217" height="36.2239" fill="#E7E7E7"/>
<rect x="57.1875" y="59.34" width="23.203" height="29.9241" fill="#FFA300"/>
<path d="M60.8506 62.4855H68.8154V75.975H60.8506V62.4855Z" fill="#9FD6ED" stroke="#F1F1F1"/>
<path d="M68.7422 62.6261H76.707V76.1156H68.7422V62.6261Z" fill="#9FD6ED" stroke="#F1F1F1"/>
<path d="M60.8506 75.59H76.7255V86.4021H60.8506V75.59Z" fill="#9FD6ED" stroke="#F1F1F1"/>
<rect x="96.8032" y="56.1895" width="27.4217" height="36.2239" fill="#E7E7E7"/>
<rect x="98.9131" y="59.34" width="23.203" height="29.9241" fill="#FFA300"/>
<path d="M102.576 62.4855H110.541V75.975H102.576V62.4855Z" fill="#9FD6ED" stroke="#F1F1F1"/>
<path d="M110.467 62.6261H118.432V76.1156H110.467V62.6261Z" fill="#9FD6ED" stroke="#F1F1F1"/>
<path d="M102.576 75.59H118.451V86.4021H102.576V75.59Z" fill="#9FD6ED" stroke="#F1F1F1"/>
<rect x="138.528" y="56.1895" width="27.4217" height="36.2239" fill="#E7E7E7"/>
<rect x="140.637" y="59.34" width="23.203" height="29.9241" fill="#FFA300"/>
<path d="M144.301 62.4855H152.266V75.975H144.301V62.4855Z" fill="#9FD6ED" stroke="#F1F1F1"/>
<path d="M152.192 62.6261H160.157V76.1156H152.192V62.6261Z" fill="#9FD6ED" stroke="#F1F1F1"/>
<path d="M144.301 75.59H160.176V86.4021H144.301V75.59Z" fill="#9FD6ED" stroke="#F1F1F1"/>
<rect x="55.9116" y="106.903" width="25.8699" height="53.4733" fill="#FFA300"/>
<path d="M58.2583 109.185H69.2693V116.642H58.2583V109.185Z" fill="#9FD6ED" stroke="#F1F1F1"/>
<path d="M58.2583 116.218H69.2693V137.596H58.2583V116.218Z" fill="#9FD6ED" stroke="#F1F1F1"/>
<path d="M68.4214 115.424H79.4324V137.596H68.4214V115.424Z" fill="#9FD6ED" stroke="#F1F1F1"/>
<path d="M58.2583 136.813H79.4325V158.093H58.2583V136.813Z" fill="#9FD6ED" stroke="#F1F1F1"/>
<path d="M68.4214 109.185H79.4324V116.206H68.4214V109.185Z" fill="#9FD6ED" stroke="#F1F1F1"/>
<rect x="140.197" y="106.903" width="25.8699" height="53.4733" fill="#FFA300"/>
<path d="M142.543 109.185H153.554V116.642H142.543V109.185Z" fill="#9FD6ED" stroke="#F1F1F1"/>
<path d="M142.543 116.218H153.554V137.596H142.543V116.218Z" fill="#9FD6ED" stroke="#F1F1F1"/>
<path d="M152.707 115.424H163.718V137.596H152.707V115.424Z" fill="#9FD6ED" stroke="#F1F1F1"/>
<path d="M142.543 136.813H163.718V158.093H142.543V136.813Z" fill="#9FD6ED" stroke="#F1F1F1"/>
<path d="M152.707 109.185H163.718V116.206H152.707V109.185Z" fill="#9FD6ED" stroke="#F1F1F1"/>
<path d="M30.0576 188.775H186.837C187.346 190.67 187.272 191.526 186.837 192.878H30.0576C29.6339 191.021 29.7446 190.19 30.0576 188.775Z" fill="#FFC55E"/>
<path fill-rule="evenodd" clip-rule="evenodd" d="M169.78 122.716C169.78 123.449 169.863 124.164 170.02 124.851C166.716 126.487 164.455 129.803 164.455 133.627C164.455 135.943 165.284 138.072 166.672 139.755C162.535 141.022 159.538 144.751 159.538 149.154C159.538 153.901 163.021 157.865 167.66 158.805C167.44 159.609 167.323 160.453 167.323 161.324C167.323 166.771 171.908 171.186 177.565 171.186C181.04 171.186 184.111 169.519 185.963 166.971C187.815 169.519 190.886 171.186 194.361 171.186C200.018 171.186 204.603 166.771 204.603 161.324C204.603 160.528 204.505 159.754 204.32 159.012C204.414 159.015 204.509 159.016 204.603 159.016C210.26 159.016 214.845 154.601 214.845 149.154C214.845 146.237 213.53 143.616 211.439 141.81C213.53 140.005 214.845 137.384 214.845 134.466C214.845 129.02 210.26 124.605 204.603 124.605L204.546 124.605C204.584 124.26 204.603 123.91 204.603 123.556C204.603 118.109 200.018 113.694 194.361 113.694C191.786 113.694 189.434 114.609 187.634 116.119C185.76 114.115 183.044 112.855 180.022 112.855C174.365 112.855 169.78 117.27 169.78 122.716Z" fill="#769F39"/>
<path fill-rule="evenodd" clip-rule="evenodd" d="M182.183 191.959L187.193 136.355L188.123 166.21L196.116 157.634L188.223 169.428L188.924 191.959H182.183Z" fill="#A4682C"/>
</svg>
