<svg width="375" height="146" viewBox="0 0 375 146" fill="none" xmlns="http://www.w3.org/2000/svg">
<path d="M75.7638 7.37206C40.7859 7.45821 11.417 33.6855 7.39432 68.4281C3.88076 98.7733 27.5819 125.431 58.1327 125.496L314.856 126.04C342.923 126.099 366.304 104.572 368.556 76.5974C371.587 38.9415 341.777 6.71683 303.997 6.80989L75.7638 7.37206Z" fill="#FFE700"/>
<path d="M44.8784 9.31446C44.8784 4.17022 49.0486 0 54.1929 0H133.126C138.27 0 142.44 4.17022 142.44 9.31446C142.44 9.82888 142.023 10.2459 141.509 10.2459H45.8099C45.2954 10.2459 44.8784 9.82888 44.8784 9.31446Z" fill="#FFE700"/>
<path d="M47.8054 5.69216C47.8054 3.1772 49.8442 1.13843 52.3592 1.13843H77.3983C79.9133 1.13843 81.9521 3.1772 81.9521 5.69216C81.9521 8.20712 79.9133 10.2459 77.3983 10.2459H52.3592C49.8442 10.2459 47.8054 8.20712 47.8054 5.69216Z" fill="black"/>
<path d="M84.8794 5.69216C84.8794 3.1772 86.9182 1.13843 89.4331 1.13843H114.472C116.987 1.13843 119.026 3.1772 119.026 5.69216C119.026 8.20712 116.987 10.2459 114.472 10.2459H89.4331C86.9182 10.2459 84.8794 8.20712 84.8794 5.69216Z" fill="#FFC100"/>
<path d="M123.272 5.69216C123.272 3.1772 125.311 1.13843 127.826 1.13843H134.329C136.844 1.13843 138.882 3.1772 138.882 5.69216C138.882 8.20712 136.844 10.2459 134.329 10.2459H127.826C125.311 10.2459 123.272 8.20712 123.272 5.69216Z" fill="#FFC100"/>
<rect x="22.4392" y="94.49" width="34.1467" height="2.27687" fill="#FFC100"/>
<rect x="24.3911" y="100.182" width="27.3173" height="2.27687" fill="#FFC100"/>
<rect x="26.3416" y="105.874" width="22.4392" height="2.27687" fill="#FFC100"/>
<ellipse cx="15.1237" cy="97.3361" rx="4.39028" ry="5.12295" fill="#FFC100"/>
<ellipse cx="63.903" cy="97.3361" rx="4.39028" ry="5.12295" fill="#FFC100"/>
<ellipse cx="61.9517" cy="108.72" rx="2.43905" ry="2.84608" fill="#FFC100"/>
<ellipse cx="13.171" cy="108.72" rx="2.43905" ry="2.84608" fill="#FFC100"/>
<path d="M32.684 14.7997H92.1968C89.1073 16.3176 80.3305 22.1995 79.5137 32.4454C77.9527 52.0265 75.4486 72.1008 74.6356 79.1212C65.3916 82.8453 59.1528 84.0293 45.8549 85.3826C29.499 85.7919 21.3176 85.1908 12.6838 79.1212C12.6838 79.1212 15.7391 45.5374 16.5863 39.276C17.4336 33.0146 19.0254 14.7997 32.684 14.7997Z" fill="black"/>
<path d="M32.7817 17.6606C29.2688 16.5068 21.8541 20.2637 21.4639 28.4604C27.7071 21.6142 28.2932 21.0605 32.7817 17.6606Z" fill="#3A3A3C"/>
<path d="M154.636 125.514V85.951H156.587L156.537 125.514L154.636 125.514Z" fill="#FFC100"/>
<path d="M192.685 125.514V85.951H194.636L194.585 125.514L192.685 125.514Z" fill="#FFC100"/>
<path d="M229.758 125.514V85.951H231.709L231.658 125.514L229.758 125.514Z" fill="#FFC100"/>
<path d="M265.856 125.514V85.951H267.807L267.756 125.514L265.856 125.514Z" fill="#FFC100"/>
<path d="M78.0498 86.5209C78.0498 85.8922 78.5595 85.3825 79.1882 85.3825H367.909L367.72 87.6594H79.1882C78.5595 87.6594 78.0498 87.1497 78.0498 86.5209Z" fill="#FFC100"/>
<path fill-rule="evenodd" clip-rule="evenodd" d="M142.201 125.228C142.359 123.714 142.441 122.192 142.441 120.674C142.441 103.499 130.246 93.3516 119.026 93.3516C106.094 93.3516 95.1233 105.206 95.1233 122.382C95.1233 123.335 95.1571 124.284 95.2231 125.228H142.201Z" fill="#FFC100" fill-opacity="0.47"/>
<ellipse cx="119.025" cy="120.674" rx="19.5124" ry="22.7687" fill="black"/>
<path fill-rule="evenodd" clip-rule="evenodd" d="M317.812 126.366C317.97 124.853 318.052 123.33 318.052 121.812C318.052 104.637 305.857 94.49 294.638 94.49C281.706 94.49 270.735 106.345 270.735 123.52C270.735 124.473 270.769 125.423 270.835 126.366H317.812Z" fill="#FFC100" fill-opacity="0.47"/>
<ellipse cx="294.636" cy="122.951" rx="19.5124" ry="22.7687" fill="black"/>
<rect x="324.881" y="96.7668" width="34.1467" height="2.27687" rx="1.13843" fill="#FFC100"/>
<rect x="324.881" y="107.013" width="34.1467" height="2.27687" rx="1.13843" fill="#FFC100"/>
<rect x="324.881" y="103.597" width="34.1467" height="2.27687" rx="1.13843" fill="#FFC100"/>
<rect x="324.881" y="100.182" width="34.1467" height="2.27687" rx="1.13843" fill="#FFC100"/>
<rect x="324.881" y="93.3516" width="34.1467" height="2.27687" rx="1.13843" fill="#FFC100"/>
<ellipse cx="119.025" cy="120.674" rx="7.80495" ry="9.10747" fill="#C4C4C4"/>
<ellipse cx="294.637" cy="122.951" rx="7.80495" ry="9.10747" fill="#C4C4C4"/>
<path d="M84.5399 31.2116L80.5186 65.374C85.4562 57.3148 93.2258 55.9621 96.4934 56.2932H338.657C354.56 55.7966 356.52 63.4585 358.263 68.7794C358.577 65.5159 359.73 54.2358 361.24 36.6416C359.788 21.2042 347.564 17.2029 341.634 17.132H100.56C88.9997 18.4373 85.5081 25.9854 84.5399 31.2116Z" fill="black" stroke="black"/>
<path d="M93.5314 55.4212C86.6906 55.4212 82.1595 62.4118 80.4846 65.3656C76.7822 70.1318 76.694 81.316 76.2532 88.7004C75.9006 94.6079 75.2835 98.8417 75.0191 100.22C74.8134 101.27 74.067 104.67 72.7271 109.869C71.3871 115.068 69.1715 119.452 68.2312 120.995C69.0246 121.061 71.0345 120.778 72.7271 119.124C73.6439 117.549 75.0484 113.939 75.6361 112.331C76.5471 109.344 78.4394 102.583 78.7215 99.4324C79.4973 96.9907 79.8088 89.0286 79.8675 85.3528C79.8088 82.3662 80.1673 75.0737 82.0714 69.7962C86.0207 61.9983 91.3569 59.5237 93.5314 59.2611C174.486 59.2939 337.242 59.3399 340.627 59.2611C344.012 59.1824 346.563 59.6221 347.415 59.8519C349.266 60.3114 353.462 62.3921 355.437 67.0394C357.411 71.6867 357.376 81.1847 357.112 85.3528H360.55C360.873 81.4144 360.955 71.9623 358.698 65.6609C355.313 56.2876 345.24 54.9289 340.627 55.4212H93.5314Z" fill="#FFC100"/>
<path d="M119.336 55.412L122.135 17.0367L123.934 17.0367L121.335 55.412L119.336 55.412Z" fill="#3A3A3C"/>
<path d="M157.716 55.4857L160.514 17.1104L162.313 17.1104L159.715 55.4857L157.716 55.4857Z" fill="#3A3A3C"/>
<path d="M198.294 55.4857L201.093 17.1104L202.892 17.1104L200.293 55.4857L198.294 55.4857Z" fill="#3A3A3C"/>
<path d="M237.673 55.4504L240.472 17.075L242.271 17.075L239.672 55.4504L237.673 55.4504Z" fill="#3A3A3C"/>
<path d="M278.452 55.2927L281.25 16.9174L283.049 16.9174L280.451 55.2927L278.452 55.2927Z" fill="#3A3A3C"/>
<path d="M316.831 55.2927L319.63 16.9174L321.429 16.9174L318.83 55.2927L316.831 55.2927Z" fill="#3A3A3C"/>
<path d="M148.912 17.0159H141.42L132.492 55.3871H134.955L148.912 17.0159Z" fill="#3A3A3C"/>
<path d="M185.755 17.0159H181.65L172.722 55.3871H175.185L185.755 17.0159Z" fill="#3A3A3C"/>
<path d="M267.652 17.0159H263.547L254.618 55.3871H257.081L267.652 17.0159Z" fill="#3A3A3C"/>
<path d="M225.883 17.0159H218.391L209.462 55.3871H211.925L225.883 17.0159Z" fill="#3A3A3C"/>
<path d="M307.779 17.0159H300.287L291.359 55.3871H293.822L307.779 17.0159Z" fill="#3A3A3C"/>
</svg>
