<svg width="251" height="145" viewBox="0 0 251 145" fill="none" xmlns="http://www.w3.org/2000/svg">
<path d="M160.944 8.62066L155.924 17.3211L161.02 20.2745C161.73 18.9442 163.652 15.0383 165.964 10.696C170.334 11.7177 173.464 10.696 174.483 10.0574L181.785 3.35248C182.368 2.23499 182.409 0 177.906 0C175.548 0.399105 169.133 1.64963 166.573 1.67624H146.569C143.222 2.88952 142.639 4.9489 142.766 5.82693C144.617 5.95997 149.566 6.25796 154.555 6.38568C159.545 6.51339 160.894 7.92888 160.944 8.62066Z" fill="black"/>
<path fill-rule="evenodd" clip-rule="evenodd" d="M51.7212 143.518C80.286 143.518 103.442 118.931 103.442 88.6013C103.442 58.2715 80.286 33.6844 51.7212 33.6844C23.1564 33.6844 0 58.2715 0 88.6013C0 118.931 23.1564 143.518 51.7212 143.518ZM51.7213 136.292C76.7155 136.292 96.9773 114.94 96.9773 88.6013C96.9773 62.2624 76.7155 40.9104 51.7213 40.9104C26.727 40.9104 6.46522 62.2624 6.46522 88.6013C6.46522 114.94 26.727 136.292 51.7213 136.292Z" fill="black"/>
<path fill-rule="evenodd" clip-rule="evenodd" d="M51.7215 137.262C77.0321 137.262 97.5504 115.476 97.5504 88.6015C97.5504 61.7271 77.0321 39.941 51.7215 39.941C26.4109 39.941 5.89258 61.7271 5.89258 88.6015C5.89258 115.476 26.4109 137.262 51.7215 137.262ZM51.7215 130.859C73.8682 130.859 91.8218 111.94 91.8218 88.6014C91.8218 65.2631 73.8682 46.3436 51.7215 46.3436C29.5747 46.3436 11.6211 65.2631 11.6211 88.6014C11.6211 111.94 29.5747 130.859 51.7215 130.859Z" fill="#C4C4C4"/>
<path fill-rule="evenodd" clip-rule="evenodd" d="M199.279 144.476C227.844 144.476 251 119.889 251 89.5592C251 59.2294 227.844 34.6423 199.279 34.6423C170.714 34.6423 147.558 59.2294 147.558 89.5592C147.558 119.889 170.714 144.476 199.279 144.476ZM199.279 137.25C224.273 137.25 244.535 115.898 244.535 89.5593C244.535 63.2203 224.273 41.8683 199.279 41.8683C174.284 41.8683 154.023 63.2203 154.023 89.5593C154.023 115.898 174.284 137.25 199.279 137.25Z" fill="black"/>
<path fill-rule="evenodd" clip-rule="evenodd" d="M199.279 138.22C224.589 138.22 245.108 116.434 245.108 89.5593C245.108 62.6848 224.589 40.8988 199.279 40.8988C173.968 40.8988 153.45 62.6848 153.45 89.5593C153.45 116.434 173.968 138.22 199.279 138.22ZM199.279 131.817C221.425 131.817 239.379 112.898 239.379 89.5596C239.379 66.2213 221.425 47.3018 199.279 47.3018C177.132 47.3018 159.178 66.2213 159.178 89.5596C159.178 112.898 177.132 131.817 199.279 131.817Z" fill="#C4C4C4"/>
<ellipse cx="51.7211" cy="89.5591" rx="6.08485" ry="6.38568" fill="black"/>
<ellipse cx="199.279" cy="89.5591" rx="6.08485" ry="6.38568" fill="black"/>
<path fill-rule="evenodd" clip-rule="evenodd" d="M49.5918 88.8407C52.4567 86.3131 59.6318 77.3146 65.4124 61.542C71.984 45.1308 78.6977 25.1702 81.233 17.2413L86.5572 19.0772L85.3403 23.1481H152.806L155.925 17.2413L161.021 20.2745L159.651 23.1481L172.201 45.7374C179.427 58.1097 195.37 84.0036 201.333 88.6013C202.732 92.2411 199.685 92.7253 197.986 92.5125H122.914L82.45 32.0082C78.1145 43.7153 69.3371 66.9219 68.9112 66.0918C67.9985 68.199 63.4602 76.3354 61.3051 80.1402L52.1779 90.9959C51.3158 91.4216 49.5918 91.5866 49.5918 88.8407ZM156.076 28.844L128.466 86.5546L195.172 88.2308C181.76 67.3976 155.164 26.3536 156.076 28.844ZM89.1432 28.844H149.992L124.435 81.6057L89.1432 28.844Z" fill="#FFC100"/>
<path fill-rule="evenodd" clip-rule="evenodd" d="M124.587 101.053C131.728 101.053 137.517 94.9781 137.517 87.4838C137.517 79.9895 131.728 73.9142 124.587 73.9142C117.446 73.9142 111.657 79.9895 111.657 87.4838C111.657 94.9781 117.446 101.053 124.587 101.053ZM124.739 99.2974C130.956 99.2974 135.996 94.0084 135.996 87.4839C135.996 80.9595 130.956 75.6704 124.739 75.6704C118.522 75.6704 113.482 80.9595 113.482 87.4839C113.482 94.0084 118.522 99.2974 124.739 99.2974Z" fill="#C4C4C4"/>
<path d="M89.2189 10.7759L86.5569 19.1571L81.2326 17.2414L82.7538 12.532C77.4803 11.8136 66.0965 10.4567 62.7499 10.7759C59.4032 11.0952 57.451 12.8779 56.8932 13.7293C56.0312 14.4211 54.3072 16.9222 55.4481 21.3921C55.9805 23.1482 60.6202 25.33 62.2175 25.9419C68.1502 27.6182 68.2262 27.5383 69.5193 28.576C70.8123 29.6137 69.9756 32.6469 68.6826 32.6469C67.136 33.046 62.4304 32.9821 55.9805 29.5339C49.5305 26.0856 48.8308 19.9021 49.2871 17.2414C49.9717 13.9156 53.1662 6.94454 60.468 5.6674C66.6543 6.06651 80.1373 6.94454 84.5793 7.26382C85.1877 5.6674 86.6582 5.21508 87.3174 5.18848C87.647 5.24169 88.4888 5.60355 89.2189 6.62525C89.9491 7.64696 89.5232 9.81809 89.2189 10.7759Z" fill="black"/>
<ellipse cx="124.663" cy="87.8829" rx="4.79182" ry="5.02872" fill="black"/>
<path d="M123.64 92.6595L126.933 92.0901L129.379 111.27L126.933 111.669L123.64 92.6595Z" fill="black"/>
<path d="M122.61 65.5329L119.795 66.0917L122.61 83.5725L125.12 83.1734L122.61 65.5329Z" fill="black"/>
<rect width="11.4331" height="2.70871" rx="1.35435" transform="matrix(0.976897 -0.213709 0.19483 0.980837 122.761 112.494)" fill="black"/>
<rect width="11.4332" height="2.70872" rx="1.35436" transform="matrix(0.976808 -0.214115 0.194458 0.980911 114.699 64.5441)" fill="black"/>
</svg>
