<svg width="373" height="148" viewBox="0 0 373 148" fill="none" xmlns="http://www.w3.org/2000/svg">
<path d="M39.1653 7.52477C23.4508 7.56348 10.2562 19.3466 8.44891 34.9555L0.807817 100.949C-0.77072 114.582 9.87749 126.558 23.6031 126.587L343.741 127.266C355.729 127.291 365.716 118.097 366.678 106.148L372.278 36.58C373.573 20.4963 360.84 6.73245 344.703 6.77219L39.1653 7.52477Z" fill="#FFE700"/>
<path d="M42.3306 9.40054C42.3306 4.20877 46.5393 0 51.7311 0H131.394C136.585 0 140.794 4.20877 140.794 9.40054C140.794 9.91972 140.373 10.3406 139.854 10.3406H43.2706C42.7514 10.3406 42.3306 9.91972 42.3306 9.40054Z" fill="#FFE700"/>
<path d="M45.2844 5.74475C45.2844 3.20654 47.342 1.14893 49.8802 1.14893H75.1508C77.689 1.14893 79.7467 3.20654 79.7467 5.74475C79.7467 8.28295 77.689 10.3406 75.1508 10.3406H49.8802C47.342 10.3406 45.2844 8.28295 45.2844 5.74475Z" fill="black"/>
<path d="M82.7014 5.74475C82.7014 3.20654 84.759 1.14893 87.2972 1.14893H112.568C115.106 1.14893 117.164 3.20654 117.164 5.74475C117.164 8.28295 115.106 10.3406 112.568 10.3406H87.2972C84.759 10.3406 82.7014 8.28295 82.7014 5.74475Z" fill="#FFC100"/>
<path d="M121.449 5.74475C121.449 3.20654 123.507 1.14893 126.045 1.14893H132.608C135.146 1.14893 137.203 3.20654 137.203 5.74475C137.203 8.28295 135.146 10.3406 132.608 10.3406H126.045C123.507 10.3406 121.449 8.28295 121.449 5.74475Z" fill="#FFC100"/>
<path d="M19.6838 95.3632H54.1461V97.6611H19.6838V95.3632Z" fill="#FFC100"/>
<path d="M21.6538 101.108H49.2236V103.406H21.6538V101.108Z" fill="#FFC100"/>
<path d="M23.6226 106.853H46.2692V109.151H23.6226V106.853Z" fill="#FFC100"/>
<path d="M16.7316 98.2356C16.7316 101.091 14.7478 103.406 12.3007 103.406C9.85364 103.406 7.86987 101.091 7.86987 98.2356C7.86987 95.3801 9.85364 93.0653 12.3007 93.0653C14.7478 93.0653 16.7316 95.3801 16.7316 98.2356Z" fill="#FFC100"/>
<path d="M65.9618 98.2356C65.9618 101.091 63.9781 103.406 61.531 103.406C59.0839 103.406 57.1001 101.091 57.1001 98.2356C57.1001 95.3801 59.0839 93.0653 61.531 93.0653C63.9781 93.0653 65.9618 95.3801 65.9618 98.2356Z" fill="#FFC100"/>
<path d="M62.0233 109.725C62.0233 111.312 60.9212 112.598 59.5617 112.598C58.2022 112.598 57.1001 111.312 57.1001 109.725C57.1001 108.139 58.2022 106.853 59.5617 106.853C60.9212 106.853 62.0233 108.139 62.0233 109.725Z" fill="#FFC100"/>
<path d="M12.7916 109.725C12.7916 111.312 11.6895 112.598 10.33 112.598C8.9705 112.598 7.86841 111.312 7.86841 109.725C7.86841 108.139 8.9705 106.853 10.33 106.853C11.6895 106.853 12.7916 108.139 12.7916 109.725Z" fill="#FFC100"/>
<path d="M30.0236 14.9364H90.0864C86.9684 16.4683 78.1105 22.4046 77.2861 32.7452C75.7107 52.5072 73.1835 72.7671 72.363 79.8524C63.0335 83.6109 56.737 84.8058 43.3162 86.1716C26.8092 86.5847 18.5522 85.9781 9.83862 79.8524C9.83862 79.8524 12.9221 45.9582 13.7772 39.6389C14.6322 33.3197 16.2388 14.9364 30.0236 14.9364Z" fill="black"/>
<path d="M30.1222 17.8238C26.5768 16.6593 19.0936 20.4509 18.6997 28.7233C25.0007 21.8139 25.5922 21.2551 30.1222 17.8238Z" fill="#3A3A3C"/>
<path d="M153.103 126.674V86.7455H155.072L155.021 126.674L153.103 126.674Z" fill="#FFC100"/>
<path d="M191.503 126.674V86.7455H193.473L193.421 126.674L191.503 126.674Z" fill="#FFC100"/>
<path d="M228.919 126.674V86.7455H230.888L230.837 126.674L228.919 126.674Z" fill="#FFC100"/>
<path d="M265.351 126.674V86.7455H267.32L267.269 126.674L265.351 126.674Z" fill="#FFC100"/>
<path d="M75.8083 87.3206C75.8083 86.686 76.3228 86.1716 76.9573 86.1716H368.347L368.156 88.4695H76.9573C76.3228 88.4695 75.8083 87.9551 75.8083 87.3206Z" fill="#FFC100"/>
<path fill-rule="evenodd" clip-rule="evenodd" d="M140.552 126.385C140.712 124.857 140.795 123.321 140.795 121.789C140.795 104.455 128.487 94.2144 117.163 94.2144C104.112 94.2144 93.0398 106.179 93.0398 123.513C93.0398 124.475 93.0739 125.433 93.1405 126.385H140.552Z" fill="#FFC100" fill-opacity="0.47"/>
<path d="M136.856 121.789C136.856 134.48 128.039 144.768 117.163 144.768C106.287 144.768 97.4702 134.48 97.4702 121.789C97.4702 109.098 106.287 98.8101 117.163 98.8101C128.039 98.8101 136.856 109.098 136.856 121.789Z" fill="black"/>
<path fill-rule="evenodd" clip-rule="evenodd" d="M317.787 127.534C317.947 126.006 318.03 124.47 318.03 122.938C318.03 105.604 305.722 95.3632 294.398 95.3632C281.347 95.3632 270.275 107.328 270.275 124.662C270.275 125.624 270.309 126.582 270.376 127.534H317.787Z" fill="#FFC100" fill-opacity="0.47"/>
<path d="M314.09 124.087C314.09 136.778 305.273 147.066 294.397 147.066C283.521 147.066 274.704 136.778 274.704 124.087C274.704 111.396 283.521 101.108 294.397 101.108C305.273 101.108 314.09 111.396 314.09 124.087Z" fill="black"/>
<path d="M324.921 98.8101C324.921 98.1756 325.435 97.6612 326.07 97.6612H358.234C358.869 97.6612 359.383 98.1756 359.383 98.8101C359.383 99.4447 358.869 99.9591 358.234 99.9591H326.07C325.435 99.9591 324.921 99.4447 324.921 98.8101Z" fill="#FFC100"/>
<path d="M324.921 109.151C324.921 108.516 325.435 108.002 326.07 108.002H358.234C358.869 108.002 359.383 108.516 359.383 109.151C359.383 109.785 358.869 110.3 358.234 110.3H326.07C325.435 110.3 324.921 109.785 324.921 109.151Z" fill="#FFC100"/>
<path d="M324.921 105.704C324.921 105.069 325.435 104.555 326.07 104.555H358.234C358.869 104.555 359.383 105.069 359.383 105.704C359.383 106.338 358.869 106.853 358.234 106.853H326.07C325.435 106.853 324.921 106.338 324.921 105.704Z" fill="#FFC100"/>
<path d="M324.921 102.257C324.921 101.622 325.435 101.108 326.07 101.108H358.234C358.869 101.108 359.383 101.622 359.383 102.257C359.383 102.892 358.869 103.406 358.234 103.406H326.07C325.435 103.406 324.921 102.892 324.921 102.257Z" fill="#FFC100"/>
<path d="M324.921 95.3633C324.921 94.7288 325.435 94.2144 326.07 94.2144H358.234C358.869 94.2144 359.383 94.7288 359.383 95.3633C359.383 95.9979 358.869 96.5123 358.234 96.5123H326.07C325.435 96.5123 324.921 95.9979 324.921 95.3633Z" fill="#FFC100"/>
<path d="M125.04 121.789C125.04 126.866 121.513 130.981 117.163 130.981C112.812 130.981 109.286 126.866 109.286 121.789C109.286 116.713 112.812 112.598 117.163 112.598C121.513 112.598 125.04 116.713 125.04 121.789Z" fill="#C4C4C4"/>
<path d="M302.274 124.087C302.274 129.164 298.747 133.279 294.397 133.279C290.046 133.279 286.52 129.164 286.52 124.087C286.52 119.011 290.046 114.896 294.397 114.896C298.747 114.896 302.274 119.011 302.274 124.087Z" fill="#C4C4C4"/>
<path d="M82.3583 31.4999L78.2998 65.9781C83.2831 57.8443 91.1245 56.4792 94.4223 56.8133H338.824C354.873 56.3121 356.852 64.0449 358.611 69.4149C358.928 66.1213 360.091 54.7369 361.616 36.9801C360.15 21.4 347.814 17.3618 341.829 17.2902H98.5262C86.8594 18.6076 83.3354 26.2254 82.3583 31.4999Z" fill="black"/>
<path fill-rule="evenodd" clip-rule="evenodd" d="M98.5193 17.1753H341.83C344.843 17.2113 349.447 18.2448 353.485 21.2271C357.526 24.2124 360.994 29.1466 361.73 36.9694L361.731 36.9797L361.73 36.99C360.435 52.0656 359.402 62.5484 358.925 67.386C358.84 68.2466 358.773 68.9286 358.725 69.4259L358.501 69.4507C358.446 69.2819 358.391 69.111 358.335 68.9382C357.497 66.355 356.524 63.3565 353.998 60.9964C351.307 58.4825 346.834 56.6781 338.827 56.9282L338.826 56.9282H94.4161L94.4103 56.9276C91.1478 56.5971 83.3534 57.9489 78.3974 66.0382L78.1853 65.9647L82.2442 31.4828L82.2449 31.479C82.736 28.8283 83.8679 25.5832 86.3479 22.8342C88.8298 20.0831 92.6542 17.8376 98.5129 17.176L98.5193 17.1753ZM98.5323 17.4051C92.7278 18.0619 88.9586 20.2834 86.5185 22.9881C84.0767 25.6948 82.958 28.8941 82.4716 31.5172L78.4731 65.4857C83.4898 57.6957 91.1509 56.3689 94.4277 56.6984H338.822C346.863 56.4476 351.404 58.2589 354.155 60.8285C356.724 63.2293 357.714 66.2792 358.549 68.8557C358.59 68.4396 358.639 67.9407 358.697 67.3607C359.174 62.5227 360.206 52.0462 361.5 36.9806C360.768 29.2293 357.336 24.3573 353.348 21.4119C349.355 18.4624 344.8 17.4408 341.828 17.4051H98.5323Z" fill="black"/>
<path d="M91.4329 55.9334C84.529 55.9334 79.956 62.9886 78.2656 65.9696C74.5289 70.7799 74.4399 82.0674 73.9951 89.5201C73.6392 95.4823 73.0164 99.7551 72.7495 101.146C72.5419 102.206 71.7887 105.638 70.4363 110.884C69.084 116.131 66.8479 120.556 65.8989 122.113C66.6996 122.179 68.7281 121.895 70.4363 120.225C71.3616 118.635 72.7792 114.992 73.3723 113.369C74.2916 110.355 76.2015 103.531 76.4862 100.351C77.2691 97.887 77.5835 89.8514 77.6428 86.1416C77.5835 83.1274 77.9453 75.7674 79.867 70.4413C83.8528 62.5712 89.2384 60.0738 91.4329 59.8088C173.136 59.8419 337.396 59.8883 340.812 59.8088C344.228 59.7293 346.803 60.1731 347.663 60.405C349.531 60.8687 353.766 62.9687 355.759 67.6589C357.752 72.3491 357.716 81.935 357.449 86.1416H360.919C361.245 82.1668 361.328 72.6274 359.051 66.2677C355.634 56.8078 345.468 55.4365 340.812 55.9334H91.4329Z" fill="#FFC100"/>
<path d="M117.477 55.9241L120.301 17.1941L122.117 17.1941L119.494 55.9241L117.477 55.9241Z" fill="#3A3A3C"/>
<path d="M156.21 55.9985L159.035 17.2685L160.851 17.2685L158.228 55.9985L156.21 55.9985Z" fill="#3A3A3C"/>
<path d="M197.164 55.9985L199.988 17.2685L201.804 17.2685L199.181 55.9985L197.164 55.9985Z" fill="#3A3A3C"/>
<path d="M236.907 55.9628L239.732 17.2328L241.547 17.2328L238.925 55.9628L236.907 55.9628Z" fill="#3A3A3C"/>
<path d="M278.062 55.8038L280.886 17.0738L282.702 17.0738L280.079 55.8038L278.062 55.8038Z" fill="#3A3A3C"/>
<path d="M316.796 55.8038L319.62 17.0738L321.436 17.0738L318.813 55.8038L316.796 55.8038Z" fill="#3A3A3C"/>
<path d="M147.326 17.1731H139.765L130.754 55.899H133.239L147.326 17.1731Z" fill="#3A3A3C"/>
<path d="M184.51 17.1731H180.367L171.355 55.899H173.841L184.51 17.1731Z" fill="#3A3A3C"/>
<path d="M267.163 17.1731H263.02L254.009 55.899H256.495L267.163 17.1731Z" fill="#3A3A3C"/>
<path d="M225.008 17.1731H217.447L208.436 55.899H210.921L225.008 17.1731Z" fill="#3A3A3C"/>
<path d="M307.661 17.1731H300.1L291.089 55.899H293.575L307.661 17.1731Z" fill="#3A3A3C"/>
</svg>
