<svg width="368" height="177" viewBox="0 0 368 177" fill="none" xmlns="http://www.w3.org/2000/svg">
<path fill-rule="evenodd" clip-rule="evenodd" d="M302.375 176.907C327.176 176.907 347.282 156.958 347.282 132.35C347.282 107.742 327.176 87.7933 302.375 87.7933C277.573 87.7933 257.468 107.742 257.468 132.35C257.468 156.958 277.573 176.907 302.375 176.907ZM302.708 160.465C318.324 160.465 330.983 147.878 330.983 132.35C330.983 116.822 318.324 104.235 302.708 104.235C287.093 104.235 274.434 116.822 274.434 132.35C274.434 147.878 287.093 160.465 302.708 160.465Z" fill="black"/>
<path fill-rule="evenodd" clip-rule="evenodd" d="M302.375 161.452C318.175 161.452 330.983 148.128 330.983 131.692C330.983 115.257 318.175 101.933 302.375 101.933C286.576 101.933 273.768 115.257 273.768 131.692C273.768 148.128 286.576 161.452 302.375 161.452ZM302.375 157.536C316.2 157.536 327.407 145.965 327.407 131.692C327.407 117.419 316.2 105.849 302.375 105.849C288.55 105.849 277.343 117.419 277.343 131.692C277.343 145.965 288.55 157.536 302.375 157.536Z" fill="#C4C4C4"/>
<ellipse cx="302.375" cy="131.528" rx="16.2996" ry="16.1128" fill="#C4C4C4"/>
<ellipse cx="302.708" cy="131.528" rx="11.6426" ry="11.5091" fill="#636363"/>
<rect width="9.63269" height="6.97048" rx="3.48524" transform="matrix(0.417802 0.908538 -0.925135 0.37964 343.267 90.7127)" fill="#636363"/>
<rect width="93.1939" height="18.0019" rx="9.00095" transform="matrix(0.931005 -0.365007 0.402239 0.915535 251.812 122.8)" fill="#C4C4C4"/>
<rect width="82.3789" height="6.70024" rx="3.35012" transform="matrix(0.931005 -0.365007 0.402239 0.915535 257.938 122.538)" fill="white"/>
<path fill-rule="evenodd" clip-rule="evenodd" d="M50.5622 177C75.3637 177 95.4693 157.051 95.4693 132.443C95.4693 107.835 75.3637 87.8864 50.5622 87.8864C25.7606 87.8864 5.65503 107.835 5.65503 132.443C5.65503 157.051 25.7606 177 50.5622 177ZM50.8951 160.559C66.5109 160.559 79.17 147.971 79.17 132.443C79.17 116.916 66.5109 104.328 50.8951 104.328C35.2793 104.328 22.6202 116.916 22.6202 132.443C22.6202 147.971 35.2793 160.559 50.8951 160.559Z" fill="black"/>
<path fill-rule="evenodd" clip-rule="evenodd" d="M50.5626 161.545C66.3621 161.545 79.1701 148.221 79.1701 131.786C79.1701 115.35 66.3621 102.026 50.5626 102.026C34.7631 102.026 21.9551 115.35 21.9551 131.786C21.9551 148.221 34.7631 161.545 50.5626 161.545ZM50.5631 157.629C64.3876 157.629 75.5946 146.059 75.5946 131.786C75.5946 117.512 64.3876 105.942 50.5631 105.942C36.7385 105.942 25.5315 117.512 25.5315 131.786C25.5315 146.059 36.7385 157.629 50.5631 157.629Z" fill="#C4C4C4"/>
<ellipse cx="50.5621" cy="131.621" rx="16.2996" ry="16.1128" fill="#C4C4C4"/>
<ellipse cx="50.895" cy="131.621" rx="11.6426" ry="11.5091" fill="#636363"/>
<path d="M20.1251 110.23H0C18.362 74.849 57.9912 81.5776 76.1758 89.4438L74.1799 93.4044C81.9417 98.8502 97.9641 112.541 96.6335 121.782C91.1781 123.763 75.067 112.486 67.6934 106.6L60.3752 119.307C57.714 116.281 51.1276 108.646 46.0714 102.309C38.221 100.329 25.5028 106.765 20.1251 110.23Z" fill="#F47200"/>
<path d="M73.9636 71.9711L83.49 76.6834L55.8308 131.73C54.5124 134.354 51.311 135.426 48.6804 134.125C46.0497 132.823 44.986 129.641 46.3045 127.017L73.9636 71.9711Z" fill="black"/>
<ellipse rx="3.32639" ry="3.30057" transform="matrix(0.998767 0.049644 -0.0504257 0.998728 51.0345 129.324)" fill="#F57100"/>
<path d="M270.773 57.7586C289.933 37.4274 321.779 38.8357 334.974 42.0811C333.244 56.8674 304.647 66.3949 290.898 69.3103C282.194 70.7406 262.124 73.601 251.48 73.601C249.65 74.5911 220.042 72.9311 212.558 71.1158C213.223 69.5316 212.322 62.4056 211.768 59.1051C218.42 59.4352 239.77 59.6068 270.773 57.7586Z" fill="black"/>
<path d="M73.0208 83.7986L63.731 78.7006L93.9309 26.051C95.3885 23.5099 98.6497 22.5911 101.215 23.9989C103.78 25.4067 104.678 28.6079 103.221 31.149L73.0208 83.7986Z" fill="black"/>
<path d="M36.925 74.2614C36.6588 45.2169 74.9574 12.6519 94.14 0C99.5954 7.78919 99.6286 14.0272 98.9633 16.1725L87.3207 26.7341L90.4808 42.0815C91.7005 42.0815 101.192 42.9396 129.4 46.3721C132.56 40.9263 148.028 25.0838 181.626 30.1996C208.503 34.2923 213.56 59.1891 212.728 71.1259L233.851 73.1062C239.617 74.0964 259.465 74.6244 292.729 68.8156C326.393 60.8943 334.809 47.6923 334.809 42.0815H367.907C362.917 50.9928 349.81 69.9377 341.294 75.7466C332.778 81.5555 305.702 90.8189 292.729 94.5595L253.477 111.557V131.855L257.801 144.232L244.496 149.678C244.44 151.658 244.363 156.246 244.496 158.754C244.629 161.263 241.668 162.33 240.171 162.55H113.101C113.544 161.945 114.897 157.401 116.76 144.067C119.953 131.261 110.772 118.048 105.782 113.042C94.8052 103.966 71.6531 84.889 66.863 81.1925C62.0729 77.4959 54.0007 75.9116 50.5633 75.5816C49.2882 75.8016 44.7753 75.8456 36.925 74.2614Z" fill="#FF9C01"/>
<path d="M54.9239 76.9639L54.5537 77.0668C54.6694 77.0238 54.7929 76.9895 54.9239 76.9639L143.037 52.478L188.277 109.907L213.392 144.892H116.636C117.855 137.411 116.958 119.94 101.124 109.907C82.0873 92.1486 60.8222 75.8118 54.9239 76.9639Z" fill="#FFB400"/>
<path d="M240.337 162.55H113.1C114.297 156.988 116.304 148.256 116.636 144.892L257.801 144.232L252.955 146.24C250.862 147.164 248.674 148.151 244.661 149.678C244.661 153.639 244.72 156.988 244.661 158.424C244.528 161.645 241.737 162.248 240.348 162.548L240.337 162.55Z" fill="black"/>
<path d="M304.869 80.8624L243.496 102.481C244.217 103.196 247.089 106.672 253.475 111.557L309.859 89.1137C321.975 85.6674 341.959 77.3969 347.281 71.951C349.943 70.1358 362.306 51.1579 367.739 41.9164H362.583C360.088 46.2071 351.44 57.2638 336.803 67.1653C319.639 75.4826 308.362 79.7622 304.869 80.8624Z" fill="#F47200"/>
<path d="M68.3584 51.4879C73.0155 40.5962 62.648 32.9501 58.2127 31.0248C55.6665 32.288 51.4921 38.5507 47.2354 44.8869C45.2344 47.8656 41.2107 54.7927 39.9172 59.0791C46.9028 59.6292 64.7778 59.862 68.3584 51.4879Z" fill="#FFE700"/>
</svg>
