<svg width="280" height="219" viewBox="0 0 280 219" fill="none" xmlns="http://www.w3.org/2000/svg">
<path d="M206.145 149.415H74.7329V49.0925C74.7329 16.1535 206.145 16.5842 206.145 49.0925V149.415Z" fill="#FF9C01" stroke="#1E1E1E" stroke-width="7"/>
<path d="M201.383 100.384H79.6187C79.6187 100.384 79.619 76.1953 79.6187 49.6097C79.6183 23.0242 201.383 23.3511 201.383 49.6097V100.384Z" fill="#1E1E1E"/>
<path d="M197.841 83.8225H83.0381C83.0381 83.8225 83.0387 70.316 83.0381 49.3396C83.0375 28.3631 197.841 26.7287 197.841 49.3396V83.8225Z" fill="#6B6B6B"/>
<rect x="117.967" y="33.0484" width="2.93113" height="54.6967" fill="#1E1E1E"/>
<path d="M124.317 22.1621V25.2035L153.995 25.0422V22.1621C141.879 17.8038 129.161 20.3461 124.317 22.1621Z" fill="#1E1E1E"/>
<path d="M112.105 22.5883L109.418 21.1718L114.059 13H163.033L167.308 21.1718L164.499 22.5883L161.079 15.615H115.647L112.105 22.5883Z" fill="#1E1E1E"/>
<rect width="2.66811" height="8.07448" transform="matrix(0.972099 -0.23457 0.290135 0.956986 125.539 15.369)" fill="#1E1E1E"/>
<rect width="2.66811" height="8.07448" transform="matrix(-0.972099 -0.23457 -0.290135 0.956986 152.703 15.369)" fill="#1E1E1E"/>
<path d="M77.5 109.986H203.378V123.034H77.5V109.986Z" fill="#FFE700" stroke="#1E1E1E" stroke-width="7"/>
<mask id="path-10-inside-1" fill="white">
<path d="M74 124.791H207V130.021H74V124.791Z"/>
</mask>
<path d="M74 124.791H207V130.021H74V124.791Z" fill="white"/>
<path d="M74 124.791V117.791H67V124.791H74ZM207 124.791H214V117.791H207V124.791ZM207 130.021V137.021H214V130.021H207ZM74 130.021H67V137.021H74V130.021ZM74 131.791H207V117.791H74V131.791ZM200 124.791V130.021H214V124.791H200ZM207 123.021H74V137.021H207V123.021ZM81 130.021V124.791H67V130.021H81Z" fill="#1E1E1E" mask="url(#path-10-inside-1)"/>
<path d="M75.3965 108.011H205.505V113.459H75.3965V108.011Z" fill="#FFD500"/>
<mask id="path-13-inside-2" fill="white">
<path d="M74.035 102.781H206.844L206.881 108.011H74L74.035 102.781Z"/>
</mask>
<path d="M74.035 102.781H206.844L206.881 108.011H74L74.035 102.781Z" fill="white"/>
<path d="M74.035 102.781V95.7811H67.0818L67.0352 102.734L74.035 102.781ZM206.844 102.781L213.843 102.731L213.793 95.7811H206.844V102.781ZM206.881 108.011V115.011H213.932L213.881 107.961L206.881 108.011ZM74 108.011L67.0002 107.964L66.9529 115.011H74V108.011ZM74.035 109.781H206.844V95.7811H74.035V109.781ZM199.844 102.832L199.882 108.062L213.881 107.961L213.843 102.731L199.844 102.832ZM206.881 101.011H74V115.011H206.881V101.011ZM80.9998 108.058L81.0349 102.828L67.0352 102.734L67.0002 107.964L80.9998 108.058Z" fill="#1E1E1E" mask="url(#path-13-inside-2)"/>
<path d="M87.9224 140.916H123.096V148.761L87.9224 148.716V140.916Z" fill="#F47200"/>
<rect x="123.097" y="139.609" width="34.4408" height="10.242" fill="#1E1E1E"/>
<path d="M157.537 140.916H192.711V148.718L157.537 148.761V140.916Z" fill="#F47200"/>
<rect x="87.9224" y="139.609" width="104.788" height="1.52541" fill="#1E1E1E"/>
<rect x="125.783" y="111.062" width="34.4408" height="10.242" fill="#1E1E1E"/>
<rect x="83.0381" y="149.415" width="114.803" height="14.3824" fill="#1E1E1E"/>
<path d="M79.1289 162.708V156.388H97.8149V162.708H120.409L123.462 158.567H155.827L158.636 162.708H181.352V156.388H201.137V162.708L189.168 173.168H90.8534L79.1289 162.708Z" fill="#FF9C01" stroke="#1E1E1E" stroke-width="7"/>
<path d="M97.1302 157.067L79.8223 157.087L97.1302 164.943V157.067Z" fill="#F47200"/>
<path d="M182.051 157.088H200.445L182.051 164.943V157.088Z" fill="#F47200"/>
<ellipse cx="182.695" cy="116.51" rx="8.30487" ry="7.40912" fill="#1E1E1E"/>
<mask id="path-25-inside-3" fill="white">
<ellipse cx="182.696" cy="116.51" rx="6.36706" ry="5.68032"/>
</mask>
<ellipse cx="182.696" cy="116.51" rx="6.36706" ry="5.68032" fill="#C4C4C4"/>
<path d="M182.063 116.51C182.063 115.868 182.37 115.453 182.538 115.303C182.694 115.164 182.77 115.19 182.696 115.19V129.19C189.306 129.19 196.063 124.242 196.063 116.51H182.063ZM182.696 115.19C182.623 115.19 182.698 115.164 182.854 115.303C183.022 115.453 183.329 115.868 183.329 116.51H169.329C169.329 124.242 176.086 129.19 182.696 129.19V115.19ZM183.329 116.51C183.329 117.151 183.022 117.566 182.854 117.716C182.698 117.855 182.623 117.829 182.696 117.829V103.829C176.086 103.829 169.329 108.777 169.329 116.51H183.329ZM182.696 117.829C182.77 117.829 182.694 117.855 182.538 117.716C182.37 117.566 182.063 117.151 182.063 116.51H196.063C196.063 108.777 189.306 103.829 182.696 103.829V117.829Z" fill="white" mask="url(#path-25-inside-3)"/>
<path d="M186.432 116.415C186.432 117.915 184.356 117.061 182.834 116.415C180.896 117.127 179.235 117.915 179.235 116.415C179.235 114.915 181.311 115.769 182.834 116.415C184.495 115.804 186.432 114.915 186.432 116.415Z" fill="white"/>
<ellipse cx="102.334" cy="116.51" rx="8.30487" ry="7.40912" fill="#1E1E1E"/>
<mask id="path-29-inside-4" fill="white">
<ellipse cx="102.335" cy="116.51" rx="6.36706" ry="5.68032"/>
</mask>
<ellipse cx="102.335" cy="116.51" rx="6.36706" ry="5.68032" fill="#C4C4C4"/>
<path d="M101.702 116.51C101.702 115.868 102.009 115.453 102.177 115.303C102.333 115.164 102.408 115.19 102.335 115.19V129.19C108.945 129.19 115.702 124.242 115.702 116.51H101.702ZM102.335 115.19C102.261 115.19 102.337 115.164 102.493 115.303C102.661 115.453 102.968 115.868 102.968 116.51H88.9678C88.9678 124.242 95.725 129.19 102.335 129.19V115.19ZM102.968 116.51C102.968 117.151 102.661 117.566 102.493 117.716C102.337 117.855 102.261 117.829 102.335 117.829V103.829C95.725 103.829 88.9678 108.777 88.9678 116.51H102.968ZM102.335 117.829C102.408 117.829 102.333 117.855 102.177 117.716C102.009 117.566 101.702 117.151 101.702 116.51H115.702C115.702 108.777 108.945 103.829 102.335 103.829V117.829Z" fill="white" mask="url(#path-29-inside-4)"/>
<path d="M106.072 116.415C106.072 117.915 103.995 117.061 102.473 116.415C100.535 117.127 98.874 117.915 98.874 116.415C98.874 114.915 100.95 115.769 102.473 116.415C104.134 115.804 106.072 114.915 106.072 116.415Z" fill="white"/>
<ellipse cx="182.696" cy="131.11" rx="4.64095" ry="4.14039" fill="#1E1E1E"/>
<ellipse cx="182.68" cy="131.096" rx="3.54178" ry="3.15977" fill="white"/>
<ellipse cx="101.358" cy="131.11" rx="4.64095" ry="4.14039" fill="#1E1E1E"/>
<ellipse cx="101.342" cy="131.096" rx="3.54178" ry="3.15977" fill="white"/>
<path d="M187.094 191.8H90.6108L94.1526 187.659H183.308L187.094 191.8Z" fill="#4D4D4D"/>
<path d="M100.748 183.846L103.069 180.904H174.881L176.591 183.846H100.748Z" fill="#4D4D4D"/>
<path d="M108.442 178.289L110.152 176.11H167.309L169.385 178.289H108.442Z" fill="#4D4D4D"/>
<path d="M76.4438 202.042L81.8176 196.703H195.155L200.773 202.042H76.4438Z" fill="#4D4D4D"/>
<path d="M119.556 173.931H115.77L83.2837 206.509H90.123L119.556 173.931Z" fill="#4D4D4D"/>
<path d="M160.468 173.931H157.171L185.261 206.618H191.245L160.468 173.931Z" fill="#4D4D4D"/>
</svg>
