<svg width="135" height="197" viewBox="0 0 135 197" fill="none" xmlns="http://www.w3.org/2000/svg">
<path d="M134.132 138.466H0.743652V36.6352C0.743652 3.20092 134.132 3.63807 134.132 36.6352V138.466Z" fill="#FF9C01"/>
<path fill-rule="evenodd" clip-rule="evenodd" d="M128.86 25.2507C132.612 28.4448 134.84 32.2422 134.84 36.6353V139.175H0.0351562V36.6353C0.0351562 32.1907 2.26036 28.3592 6.01432 25.1445C9.75861 21.9381 15.0647 19.3051 21.3626 17.2175C33.9637 13.0406 50.719 10.9877 67.4389 11.0151C84.159 11.0425 100.914 13.1504 113.514 17.3407C119.811 19.435 125.116 22.0642 128.86 25.2507ZM6.93585 26.2206C3.39513 29.2527 1.45195 32.7213 1.45195 36.6353V137.758H133.424V36.6353C133.424 32.779 131.484 29.3447 127.941 26.3296C124.39 23.307 119.274 20.7496 113.066 18.6851C100.656 14.5579 84.0636 12.4591 67.4366 12.4319C50.8094 12.4046 34.2176 14.4491 21.8084 18.5624C15.6011 20.6199 10.4862 23.1803 6.93585 26.2206Z" fill="black"/>
<path d="M129.298 88.698H5.70264C5.70264 88.698 5.70303 64.1455 5.70264 37.1602C5.70225 10.1748 129.298 10.5067 129.298 37.1602V88.698Z" fill="black"/>
<path d="M125.703 71.8875H9.17383C9.17383 71.8875 9.1744 58.1779 9.17383 36.886C9.17325 15.5941 125.703 13.9351 125.703 36.886V71.8875Z" fill="#3A3A3C"/>
<path d="M44.6279 20.3497H47.6031V75.8689H44.6279V20.3497Z" fill="black"/>
<path d="M51.0742 9.29963V12.3868L81.1982 12.2231V9.29963C68.9007 4.87578 55.9916 7.45636 51.0742 9.29963Z" fill="black"/>
<path d="M38.678 9.73245L35.9507 8.29471L40.6614 0H90.3722L94.711 8.29471L91.8598 9.73245L88.3887 2.65431H42.273L38.678 9.73245Z" fill="black"/>
<path d="M52.314 2.40485L54.9466 1.76958L57.3246 9.61293L54.6919 10.2482L52.314 2.40485Z" fill="black"/>
<path d="M79.8867 2.40485L77.254 1.76958L74.8761 9.61293L77.5088 10.2482L79.8867 2.40485Z" fill="black"/>
<path d="M0 94.8914H134.876V115.241H0V94.8914Z" fill="#FFE700"/>
<path fill-rule="evenodd" clip-rule="evenodd" d="M133.459 96.3082H1.41679V113.824H133.459V96.3082ZM0 94.8914V115.241H134.876V94.8914H0Z" fill="black"/>
<path d="M0 113.472H135V118.78H0V113.472Z" fill="white"/>
<path fill-rule="evenodd" clip-rule="evenodd" d="M133.583 114.888H1.41679V117.363H133.583V114.888ZM0 113.472V118.78H135V113.472H0Z" fill="black"/>
<path d="M1.41699 96.4398H133.482V101.97H1.41699V96.4398Z" fill="#FFD500"/>
<path d="M0.0355733 91.1311H134.841L134.88 96.4397H0L0.0355733 91.1311Z" fill="white"/>
<path fill-rule="evenodd" clip-rule="evenodd" d="M1.4429 92.5479L1.42632 95.023H133.453L133.435 92.5479H1.4429ZM134.841 91.1311H0.0355733L0 96.4397H134.88L134.841 91.1311Z" fill="black"/>
<path d="M14.1318 129.84H49.8343V137.803L14.1318 137.756V129.84Z" fill="#F47200"/>
<path d="M49.835 128.513H84.7936V138.909H49.835V128.513Z" fill="black"/>
<path d="M84.7935 129.84H120.496V137.759L84.7935 137.803V129.84Z" fill="#F47200"/>
<path d="M14.1318 128.513H120.495V130.061H14.1318V128.513Z" fill="black"/>
<path d="M52.562 99.5364H87.5207V109.932H52.562V99.5364Z" fill="black"/>
<path d="M9.17383 138.466H125.703V153.065H9.17383V138.466Z" fill="black"/>
<path d="M5.20654 151.959V145.544H24.1735V151.959H47.1074L50.2065 147.756H83.0578L85.909 151.959H108.967V145.544H129.05V151.959L116.901 162.576H17.1074L5.20654 151.959Z" fill="#FF9C01"/>
<path fill-rule="evenodd" clip-rule="evenodd" d="M4.49805 144.836H24.8818V151.251H46.7495L49.8487 147.048H83.4331L86.2843 151.251H108.258V144.836H129.758V152.281L117.167 163.285H16.8372L4.49805 152.276V144.836ZM5.91484 146.253V151.642L17.3773 161.868H116.635L128.341 151.637V146.253H109.675V152.667H85.5335L82.6822 148.465H50.5642L47.4651 152.667H23.465V146.253H5.91484Z" fill="black"/>
<path d="M23.4784 146.233L5.91016 146.253L23.4682 152.67L23.4784 146.233Z" fill="#F47200"/>
<path d="M109.676 146.255H128.346L109.676 152.663V146.255Z" fill="#F47200"/>
<path d="M118.76 105.066C118.76 109.22 114.986 112.587 110.331 112.587C105.675 112.587 101.901 109.22 101.901 105.066C101.901 100.913 105.675 97.5457 110.331 97.5457C114.986 97.5457 118.76 100.913 118.76 105.066Z" fill="black"/>
<path d="M116.793 105.066C116.793 108.251 113.9 110.832 110.33 110.832C106.761 110.832 103.868 108.251 103.868 105.066C103.868 101.882 106.761 99.3006 110.33 99.3006C113.9 99.3006 116.793 101.882 116.793 105.066Z" fill="#C4C4C4"/>
<path fill-rule="evenodd" clip-rule="evenodd" d="M110.33 109.415C113.274 109.415 115.377 107.32 115.377 105.066C115.377 102.812 113.274 100.717 110.33 100.717C107.387 100.717 105.284 102.812 105.284 105.066C105.284 107.32 107.387 109.415 110.33 109.415ZM110.33 110.832C113.9 110.832 116.793 108.251 116.793 105.066C116.793 101.882 113.9 99.3006 110.33 99.3006C106.761 99.3006 103.868 101.882 103.868 105.066C103.868 108.251 106.761 110.832 110.33 110.832Z" fill="white"/>
<path d="M114.124 104.97C114.124 106.493 112.017 105.626 110.471 104.97C108.504 105.693 106.818 106.493 106.818 104.97C106.818 103.447 108.926 104.314 110.471 104.97C112.157 104.35 114.124 103.447 114.124 104.97Z" fill="white"/>
<path d="M37.1901 105.066C37.1901 109.22 33.4159 112.587 28.7603 112.587C24.1047 112.587 20.3306 109.22 20.3306 105.066C20.3306 100.913 24.1047 97.5458 28.7603 97.5458C33.4159 97.5458 37.1901 100.913 37.1901 105.066Z" fill="black"/>
<path d="M35.223 105.066C35.223 108.251 32.3295 110.832 28.7602 110.832C25.1909 110.832 22.2974 108.251 22.2974 105.066C22.2974 101.882 25.1909 99.3005 28.7602 99.3005C32.3295 99.3005 35.223 101.882 35.223 105.066Z" fill="#C4C4C4"/>
<path fill-rule="evenodd" clip-rule="evenodd" d="M28.7602 109.415C31.7034 109.415 33.8062 107.32 33.8062 105.066C33.8062 102.812 31.7034 100.717 28.7602 100.717C25.817 100.717 23.7142 102.812 23.7142 105.066C23.7142 107.32 25.817 109.415 28.7602 109.415ZM28.7602 110.832C32.3295 110.832 35.223 108.251 35.223 105.066C35.223 101.882 32.3295 99.3006 28.7602 99.3006C25.1909 99.3006 22.2974 101.882 22.2974 105.066C22.2974 108.251 25.1909 110.832 28.7602 110.832Z" fill="white"/>
<path d="M32.5538 104.97C32.5538 106.493 30.4464 105.626 28.9009 104.97C26.934 105.693 25.248 106.493 25.248 104.97C25.248 103.447 27.3555 104.314 28.9009 104.97C30.5869 104.35 32.5538 103.447 32.5538 104.97Z" fill="white"/>
<path d="M115.041 119.886C115.041 122.207 112.932 124.089 110.33 124.089C107.729 124.089 105.62 122.207 105.62 119.886C105.62 117.565 107.729 115.684 110.33 115.684C112.932 115.684 115.041 117.565 115.041 119.886Z" fill="black"/>
<path d="M113.909 119.871C113.909 121.643 112.299 123.079 110.314 123.079C108.328 123.079 106.719 121.643 106.719 119.871C106.719 118.1 108.328 116.664 110.314 116.664C112.299 116.664 113.909 118.1 113.909 119.871Z" fill="white"/>
<path fill-rule="evenodd" clip-rule="evenodd" d="M110.314 121.055C111.405 121.055 111.885 120.314 111.885 119.871C111.885 119.429 111.405 118.688 110.314 118.688C109.223 118.688 108.743 119.429 108.743 119.871C108.743 120.314 109.223 121.055 110.314 121.055ZM110.314 123.079C112.299 123.079 113.909 121.643 113.909 119.871C113.909 118.1 112.299 116.664 110.314 116.664C108.328 116.664 106.719 118.1 106.719 119.871C106.719 121.643 108.328 123.079 110.314 123.079Z" fill="#F47200"/>
<path d="M32.4791 119.886C32.4791 122.207 30.37 124.089 27.7684 124.089C25.1667 124.089 23.0576 122.207 23.0576 119.886C23.0576 117.565 25.1667 115.684 27.7684 115.684C30.37 115.684 32.4791 117.565 32.4791 119.886Z" fill="black"/>
<path d="M31.3468 119.871C31.3468 121.643 29.7373 123.079 27.7518 123.079C25.7663 123.079 24.1567 121.643 24.1567 119.871C24.1567 118.1 25.7663 116.664 27.7518 116.664C29.7373 116.664 31.3468 118.1 31.3468 119.871Z" fill="white"/>
<path fill-rule="evenodd" clip-rule="evenodd" d="M27.7518 121.055C28.8428 121.055 29.3228 120.314 29.3228 119.871C29.3228 119.429 28.8428 118.688 27.7518 118.688C26.6607 118.688 26.1807 119.429 26.1807 119.871C26.1807 120.314 26.6607 121.055 27.7518 121.055ZM27.7518 123.079C29.7373 123.079 31.3468 121.643 31.3468 119.871C31.3468 118.1 29.7373 116.664 27.7518 116.664C25.7663 116.664 24.1567 118.1 24.1567 119.871C24.1567 121.643 25.7663 123.079 27.7518 123.079Z" fill="#F47200"/>
<path d="M114.794 181.488H16.8604L20.4554 177.286H110.951L114.794 181.488Z" fill="black"/>
<path d="M27.1494 173.415L29.5048 170.429H102.397L104.133 173.415H27.1494Z" fill="black"/>
<path d="M34.959 167.774L36.6945 165.562H94.711L96.8185 167.774H34.959Z" fill="black"/>
<path d="M2.47998 191.884L7.93453 186.465H122.976L128.678 191.884H2.47998Z" fill="black"/>
<path d="M46.2401 163.35H42.3971L9.42188 196.419H16.364L46.2401 163.35Z" fill="black"/>
<path d="M87.769 163.35H84.4219L112.934 196.529H119.009L87.769 163.35Z" fill="black"/>
</svg>
