<?xml version="1.0" standalone="no"?>
<!DOCTYPE svg PUBLIC "-//W3C//DTD SVG 20010904//EN"
 "http://www.w3.org/TR/2001/REC-SVG-20010904/DTD/svg10.dtd">
<svg version="1.0" xmlns="http://www.w3.org/2000/svg"
 width="700.000000pt" height="700.000000pt" viewBox="0 0 700.000000 700.000000"
 preserveAspectRatio="xMidYMid meet">
<metadata>
Created by potrace 1.11, written by Peter Selinger 2001-2013
</metadata>
<g transform="translate(0.000000,700.000000) scale(0.100000,-0.100000)"
fill="#000000" stroke="none">
<path d="M159 4401 c-23 -19 -24 -24 -24 -170 0 -131 2 -153 18 -168 15 -16
41 -18 192 -21 l175 -3 25 25 c24 24 25 28 25 170 0 194 9 186 -220 186 -150
0 -170 -2 -191 -19z"/>
<path d="M4244 4349 c-18 -20 -19 -48 -19 -824 0 -776 1 -804 19 -824 18 -20
29 -21 193 -21 160 0 175 2 193 20 12 12 20 33 20 52 l0 32 38 -36 c127 -125
420 -128 601 -7 101 67 177 188 206 327 20 91 19 364 0 457 -54 259 -248 415
-515 415 -130 0 -205 -26 -282 -99 l-38 -35 0 262 c0 249 -1 263 -20 282 -19
19 -33 20 -198 20 -169 0 -180 -1 -198 -21z m691 -790 c95 -27 135 -92 143
-235 8 -152 -40 -260 -126 -284 -91 -25 -196 -1 -240 54 -43 55 -55 107 -50
223 3 92 7 114 28 151 47 83 144 119 245 91z"/>
<path d="M905 4338 c-11 -6 -23 -16 -27 -22 -4 -6 -8 -369 -8 -807 0 -758 1
-797 18 -812 16 -15 45 -17 204 -17 166 0 187 2 201 18 15 16 17 64 19 418 l3
399 109 -193 c60 -106 120 -204 132 -217 22 -24 28 -25 142 -25 110 0 120 2
139 23 12 12 71 110 132 217 l111 195 0 -397 c0 -385 1 -399 20 -418 19 -19
33 -20 205 -20 172 0 186 1 205 20 20 20 20 33 20 810 l0 791 -25 25 -25 25
-171 -3 -171 -3 -32 -35 c-17 -19 -116 -181 -220 -358 l-189 -324 -28 49
c-285 492 -370 630 -399 651 -31 21 -43 22 -189 22 -97 0 -164 -5 -176 -12z"/>
<path d="M3210 3919 c-203 -52 -380 -201 -380 -318 0 -57 25 -63 227 -59 l178
3 49 33 c42 27 59 32 107 32 70 0 106 -15 125 -51 14 -27 19 -69 9 -69 -26 0
-357 -64 -415 -80 -266 -74 -393 -228 -360 -437 21 -129 81 -213 193 -268 97
-47 198 -63 312 -47 101 13 163 39 228 93 l47 40 0 -26 c0 -28 16 -66 34 -77
6 -4 91 -8 189 -8 164 0 178 1 197 20 19 19 20 33 20 418 0 434 -6 490 -56
582 -59 108 -185 194 -330 225 -100 21 -281 19 -374 -6z m320 -739 c0 -32 -28
-92 -58 -123 -48 -51 -99 -71 -180 -72 -66 0 -76 3 -93 24 -21 26 -24 62 -9
92 18 32 85 58 202 78 145 24 138 24 138 1z"/>
<path d="M6170 3933 c-54 -9 -158 -46 -222 -80 -141 -74 -249 -227 -204 -288
13 -18 28 -20 192 -23 l177 -3 68 35 c56 30 79 36 129 36 51 0 64 -4 90 -27
16 -16 33 -42 36 -59 l6 -31 -99 -17 c-447 -77 -577 -136 -655 -294 -30 -61
-33 -75 -33 -157 1 -117 32 -192 112 -265 157 -144 457 -146 630 -3 l43 34 0
-33 c0 -18 7 -44 16 -56 15 -21 20 -22 198 -22 173 0 184 1 202 21 18 20 19
43 22 373 4 425 -4 511 -53 613 -82 168 -261 255 -517 252 -62 -1 -124 -4
-138 -6z m270 -747 c0 -25 -23 -81 -47 -113 -48 -65 -153 -105 -237 -89 -48 9
-66 30 -66 75 0 68 44 93 210 121 133 22 140 23 140 6z"/>
<path d="M159 3901 l-24 -19 -3 -574 c-2 -570 -2 -575 18 -601 l21 -27 184 0
c179 0 184 1 199 22 14 20 16 93 16 598 l0 577 -23 21 c-22 21 -32 22 -194 22
-153 0 -173 -2 -194 -19z"/>
</g>
</svg>
