<svg width="464" height="476" viewBox="0 0 464 476" fill="none" xmlns="http://www.w3.org/2000/svg">
<ellipse cx="166.5" cy="182" rx="120.5" ry="120" fill="#C8ECE0"/>
<circle cx="313.5" cy="253.5" r="90.5" fill="#C8ECE0"/>
<ellipse cx="244.5" cy="59" rx="59.5" ry="59" fill="#C8ECE0"/>
<path d="M131.776 414.051V227.894H94.5907L94.5907 414.051H131.776Z" fill="#056644"/>
<path d="M94.5579 281.839V286.216H131.743V281.839H94.5579Z" fill="#05AC72"/>
<path d="M131.743 249.682V242.606H94.5578V249.682H131.743Z" fill="#05AC72"/>
<path d="M131.743 268.542V261.466H94.5578V268.542H131.743Z" fill="#05AC72"/>
<path d="M64.9016 414.051V315.904H27.7163L27.7163 414.051H64.9016Z" fill="#056644"/>
<path d="M27.7163 344.341V346.645H64.9016V344.341H27.7163Z" fill="#05AC72"/>
<path d="M64.8693 327.358V323.639H27.6839V327.358H64.8693Z" fill="#05AC72"/>
<path d="M64.8693 337.297V333.578H27.6839V337.297H64.8693Z" fill="#05AC72"/>
<path d="M158.571 414.052V267.061H131.742V414.052H158.571Z" fill="#056644"/>
<path d="M158.571 294.51V288.915H131.742V294.51H158.571Z" fill="#05AC72"/>
<path d="M158.604 309.387V303.792H131.776V309.387H158.604Z" fill="#05AC72"/>
<path d="M155.514 368.664V317.22H134.8V368.664H155.514Z" fill="#05AC72"/>
<path d="M158.571 386.7V381.105H131.742V386.7H158.571Z" fill="#05AC72"/>
<path d="M158.571 401.61V396.015H131.742V401.61H158.571Z" fill="#05AC72"/>
<path d="M26.8286 414.051L26.8286 267.061H-4.95911e-05L-4.95911e-05 414.051H26.8286Z" fill="#056644"/>
<path d="M26.8286 294.51V288.915H-4.57764e-05V294.51H26.8286Z" fill="#05AC72"/>
<path d="M26.8286 309.387V303.792H-4.95911e-05V309.387H26.8286Z" fill="#05AC72"/>
<path d="M23.7705 368.664L23.7705 317.22H3.05721L3.05721 368.664H23.7705Z" fill="#05AC72"/>
<path d="M26.8286 386.733V381.138H-4.95911e-05V386.733H26.8286Z" fill="#05AC72"/>
<path d="M26.8286 401.61V396.015H-4.95911e-05V401.61H26.8286Z" fill="#05AC72"/>
<path d="M185.401 414.052V242.606H158.572V414.052H185.401Z" fill="#056644"/>
<path d="M185.433 274.631V268.114H158.604V274.631H185.433Z" fill="#05AC72"/>
<path d="M185.401 258.635V252.118H158.572V258.635H185.401Z" fill="#05AC72"/>
<path d="M182.375 361.061V301.093H161.662V361.061H182.375Z" fill="#05AC72"/>
<path d="M185.433 382.192V375.675H158.604V382.192H185.433Z" fill="#05AC72"/>
<path d="M185.433 399.537V393.02H158.604V399.537H185.433Z" fill="#05AC72"/>
<path d="M225.183 414.052V288.915H205.588V414.052H225.183Z" fill="#056644"/>
<path d="M225.15 312.283V307.544H205.554V312.283H225.15Z" fill="#05AC72"/>
<path d="M225.15 300.599V295.859H205.554V300.599H225.15Z" fill="#05AC72"/>
<path d="M222.947 375.378V331.604H207.823V375.378H222.947Z" fill="#05AC72"/>
<path d="M225.15 390.749V386.009H205.554V390.749H225.15Z" fill="#05AC72"/>
<path d="M225.15 403.42V398.681H205.554V403.42H225.15Z" fill="#05AC72"/>
<path d="M205.588 414.051V257.022H185.433V414.051H205.588Z" fill="#056644"/>
<path d="M205.555 300.007V296.584H185.401V300.007H205.555Z" fill="#05AC72"/>
<path d="M205.588 309.157V305.734H185.433V309.157H205.588Z" fill="#05AC72"/>
<path d="M205.588 365.044V361.621H185.433V365.044H205.588Z" fill="#05AC72"/>
<path d="M205.588 318.636V315.213H185.433V318.636H205.588Z" fill="#05AC72"/>
<path d="M94.5579 414.052L94.5579 255.376H64.9017L64.9017 414.052H94.5579Z" fill="#056644"/>
<path d="M94.5579 298.789V295.333H64.9017V298.789H94.5579Z" fill="#05AC72"/>
<path d="M94.5579 308.038V304.582H64.9017V308.038H94.5579Z" fill="#05AC72"/>
<path d="M94.5579 364.517V361.061H64.9017V364.517H94.5579Z" fill="#05AC72"/>
<path d="M94.5579 317.615V314.159H64.9017V317.615H94.5579Z" fill="#05AC72"/>
<path d="M281.863 388.544H437.955V368.336H281.863V388.544Z" fill="#056644"/>
<path d="M395.221 388.544H398.64V368.336H395.221V388.544Z" fill="#05AC72"/>
<path d="M386.135 388.544H389.553V368.336H386.135V388.544Z" fill="#05AC72"/>
<path d="M330.58 388.544H333.999V368.336H330.58V388.544Z" fill="#05AC72"/>
<path d="M376.733 388.544H380.152V368.336H376.733V388.544Z" fill="#05AC72"/>
<path d="M443.173 290.764H255.818V332.722H443.173C448.693 332.71 453.984 330.496 457.887 326.564C461.791 322.632 463.989 317.303 464.001 311.743C464.001 306.179 461.806 300.843 457.9 296.909C453.995 292.974 448.697 290.764 443.173 290.764V290.764Z" fill="#056644"/>
<path d="M255.817 326.424H443.443C447.308 326.424 451.015 324.877 453.748 322.124C456.482 319.371 458.017 315.637 458.017 311.743C458.017 307.85 456.482 304.115 453.748 301.362C451.015 298.609 447.308 297.062 443.443 297.062H255.817V326.424Z" fill="#F8F8F8"/>
<g style="mix-blend-mode:multiply">
<g style="mix-blend-mode:multiply">
<path d="M457.612 315.051H255.817V320.352H455.183C456.357 318.779 457.185 316.972 457.612 315.051Z" fill="#EAEAEA"/>
</g>
</g>
<path d="M272.507 413.103H459.412V388.544H272.507C270.91 388.532 269.327 388.839 267.848 389.446C266.37 390.053 265.025 390.949 263.892 392.082C262.759 393.215 261.859 394.563 261.246 396.047C260.632 397.532 260.316 399.125 260.316 400.733C260.292 402.356 260.59 403.968 261.193 405.474C261.796 406.98 262.692 408.349 263.827 409.501C264.963 410.653 266.316 411.566 267.806 412.184C269.297 412.803 270.895 413.115 272.507 413.103Z" fill="#056644"/>
<path d="M459.412 392.214H272.326C270.083 392.214 267.932 393.112 266.346 394.709C264.76 396.307 263.869 398.474 263.869 400.733C263.869 402.992 264.76 405.159 266.346 406.756C267.932 408.354 270.083 409.251 272.326 409.251H459.412V392.214Z" fill="#F8F8F8"/>
<g style="mix-blend-mode:multiply">
<g style="mix-blend-mode:multiply">
<path d="M264.094 398.83H459.412V395.749H265.489C264.836 396.678 264.363 397.723 264.094 398.83Z" fill="#EAEAEA"/>
</g>
</g>
<path d="M285.146 368.381H452.439V332.541H285.146C280.452 332.599 275.966 334.504 272.647 337.848C269.327 341.191 267.436 345.71 267.378 350.438C267.425 355.174 269.31 359.704 272.631 363.058C275.952 366.411 280.444 368.322 285.146 368.381Z" fill="#05AC72"/>
<path d="M452.44 337.887H284.923C281.618 337.887 278.449 339.209 276.112 341.563C273.775 343.917 272.462 347.109 272.462 350.438C272.462 353.766 273.775 356.959 276.112 359.313C278.449 361.666 281.618 362.989 284.923 362.989H452.44V337.887Z" fill="#F8F8F8"/>
<g style="mix-blend-mode:multiply">
<g style="mix-blend-mode:multiply">
<path d="M272.776 347.629H452.439V343.098H274.845C273.87 344.459 273.168 345.998 272.776 347.629Z" fill="#EAEAEA"/>
</g>
</g>
<path d="M270.493 88.4975C270.493 88.4975 256.573 78.0787 270.493 67.1048C287.573 53.697 306.361 68.3431 312.382 77.7798C316.396 84.0567 333.988 109.847 355.168 97.3364C355.168 97.3364 341.119 137.944 299.444 117.662L270.493 88.4975Z" fill="#FFE700"/>
<path d="M266.437 71.2466C259.861 80.5552 270.493 88.4974 270.493 88.4974L299.444 117.662C303.97 119.882 308.197 121.334 312.083 122.273C302.988 86.9175 280.314 75.175 266.437 71.2466Z" fill="#FFDB00"/>
<path d="M221.474 184.188C220.876 184.871 223.694 199.475 223.694 199.475C223.694 199.475 210.884 200.371 199.611 206.862C199.611 206.862 254.054 232.695 281.809 204.044C281.809 204.044 263.32 198.792 257.128 197.724L259.69 181.626L221.474 184.188Z" fill="#FFBB99"/>
<path d="M198.8 162.283C198.8 162.283 184.154 163.649 185.52 146.142C186.887 128.635 196.793 137.047 196.793 137.56C196.75 138.072 198.8 162.283 198.8 162.283Z" fill="#FFBB99"/>
<path d="M292.783 139.481C292.697 139.994 286.378 163.436 286.378 163.436C286.378 163.436 300.554 167.364 302.347 149.9" fill="#FFBB99"/>
<path d="M294.363 145.502C291.971 155.323 288 164.76 282.663 173.3C281.211 175.648 279.631 177.911 277.496 179.662C275.318 181.455 272.671 182.608 270.066 183.676C265.241 185.725 260.459 187.732 255.634 189.739C250.382 191.917 244.916 194.18 239.237 193.966C232.149 193.71 225.786 189.825 219.808 186.024C213.83 182.224 207.724 178.338 203.198 172.873C196.964 165.357 194.274 155.622 191.712 146.185L268.999 87.5154L294.363 145.502Z" fill="#FFD9C2"/>
<path d="M262.38 111.128C263.661 140.591 278.649 151.992 290.989 156.39C292.313 152.846 293.466 149.217 294.363 145.502L268.999 87.5154L191.755 146.228C192.523 149.046 193.292 151.907 194.146 154.682C212.08 153.316 237.7 144.392 262.38 111.128Z" fill="#FFBB99"/>
<path d="M265.327 96.4824C265.369 95.97 266.437 77.0112 285.908 87.9424C305.379 98.8736 304.696 130.813 304.696 130.813C304.696 130.813 303.415 150.284 310.076 155.963C310.076 155.963 261.057 159.081 265.327 96.4824Z" fill="#FFDB00"/>
<path d="M285.865 87.9424C266.394 77.0112 265.327 95.97 265.284 96.4824C265.198 97.8061 265.156 99.0871 265.113 100.368C277.24 121.035 292.526 125.903 304.482 125.775C303.799 116.338 300.554 96.1835 285.865 87.9424Z" fill="#FFE700"/>
<path d="M263.021 102.93C263.021 102.93 277.71 80.9823 258.495 73.5098C236.376 64.9698 207.383 66.507 188.082 106.09C178.091 126.586 185.691 126.885 167.8 147.808C167.8 147.808 217.503 168.09 263.021 102.93Z" fill="#FFDB00"/>
<path d="M181.421 124.921C200.636 128.55 233.045 128.208 269.041 97.0375C271.518 89.992 270.194 78.0787 258.495 73.5525C236.376 64.9698 207.383 66.507 188.082 106.09C183.684 115.1 182.702 120.224 181.421 124.921Z" fill="#FFE700"/>
<path d="M226.47 134.4C225.829 134.229 225.402 134.101 224.847 134.656C222.499 136.919 221.73 140.122 221.559 143.41C221.431 146.185 221.602 150.242 223.31 152.59C224.548 154.298 226.811 154.811 228.519 153.444C230.654 151.694 230.825 148.149 230.953 145.587C230.996 143.709 229.544 135.297 226.47 134.4Z" fill="#754C28"/>
<path d="M263.533 134.187C262.893 134.016 262.466 133.888 261.911 134.443C259.562 136.706 258.794 139.908 258.623 143.196C258.495 145.972 258.666 150.028 260.374 152.377C261.612 154.085 263.875 154.597 265.583 153.231C267.718 151.48 267.889 147.936 268.017 145.374C268.059 143.495 266.608 135.126 263.533 134.187Z" fill="#754C28"/>
<path d="M248.674 159.721C248.546 157.757 248.375 155.793 248.033 153.871C247.606 151.096 247.008 146.57 244.66 144.947C243.977 144.477 242.866 144.904 242.738 145.801C242.055 150.37 241.585 154.939 241.457 159.55C241.457 160.02 241.628 160.404 241.884 160.618C241.97 160.917 242.14 161.173 242.397 161.344C243.891 162.369 245.514 163.564 247.265 163.778C247.734 163.82 248.161 163.436 248.417 163.052C249.015 162.155 248.716 160.831 248.674 159.721Z" fill="#E81F33"/>
<path d="M256.061 168.389C252.773 167.279 249.271 167.322 245.855 167.151C241.97 166.937 238.127 166.767 234.241 166.553C233.344 166.51 232.533 167.535 232.832 168.389C234.369 172.958 236.675 177.057 239.749 180.729C239.92 180.943 240.134 181.071 240.304 181.156C240.988 181.669 241.756 181.84 242.824 181.413C245.642 180.217 248.375 177.527 250.851 175.734C253.072 174.154 255.975 172.787 257.043 170.183C257.384 169.414 256.744 168.603 256.061 168.389Z" fill="white"/>
<path d="M211.226 118.302C209.945 119.327 208.92 120.95 209.39 122.487C209.945 124.323 212.08 124.237 213.66 123.896C216.99 123.213 220.15 121.803 223.481 121.12C225.573 120.693 228.946 120.821 230.654 119.412C231.807 118.473 231.935 117.064 231.039 115.954C230.74 115.612 230.398 115.356 230.014 115.142C227.921 113.605 224.719 114.118 222.029 114.459C219.638 114.758 217.161 115.057 214.983 116.039C214.001 116.509 212.08 117.619 211.226 118.302Z" fill="#754C28"/>
<path d="M277.24 120.437C278.521 121.462 279.546 123.085 279.076 124.622C278.521 126.458 276.386 126.372 274.806 126.031C271.476 125.348 268.316 123.938 264.985 123.255C262.893 122.828 259.52 122.956 257.812 121.547C256.659 120.608 256.531 119.199 257.427 118.089C257.726 117.747 258.068 117.491 258.452 117.277C260.544 115.74 263.747 116.253 266.437 116.594C268.828 116.893 271.305 117.192 273.482 118.174C274.465 118.601 276.386 119.754 277.24 120.437Z" fill="#754C28"/>
<path d="M280.229 311.648C283.132 311.648 285.908 312.672 288.086 314.594C303.287 328.044 375.962 333.211 345.346 270.399C321.007 220.483 291.502 205.111 277.88 200.5C273.781 199.09 269.212 200.03 266.01 202.933C241.927 224.796 219.082 210.406 209.817 202.635C206.614 199.944 202.216 199.09 198.202 200.414C184.709 204.94 154.99 220.184 130.565 270.357C99.9495 333.168 172.625 328.002 187.826 314.551C190.004 312.63 192.779 311.605 195.683 311.605H280.229V311.648Z" fill="#13EBA2"/>
<path d="M295.003 318.65C294.32 318.181 293.679 317.711 293.167 317.241C291.758 315.96 290.007 315.106 288.214 314.679C289.879 316.131 292.185 317.455 295.003 318.65Z" fill="#9FFFD8"/>
<path d="M135.69 273.047C160.157 222.875 189.833 207.588 203.326 203.104C205.547 202.379 207.895 202.293 210.073 202.848C209.988 202.806 209.945 202.72 209.86 202.677C206.657 199.987 202.259 199.133 198.245 200.457C184.752 204.983 155.033 220.227 130.608 270.4C116.432 299.521 124.417 314.039 138.593 319.889C127.833 312.758 123.307 298.454 135.69 273.047Z" fill="#9FFFD8"/>
<path d="M306.874 306.78H173.821V386.543H306.874V306.78Z" fill="#00D181"/>
<path d="M340.991 295.123C340.991 258.486 295.729 244.651 240.347 244.651C184.965 244.651 140.515 258.529 140.515 295.123C140.515 304.944 143.76 314.252 149.524 322.664C164.427 324.586 181.378 320.359 187.869 314.594C190.047 312.673 192.822 311.648 195.726 311.648H280.186C283.09 311.648 285.865 312.673 288.043 314.594C295.473 321.17 316.609 325.739 332.75 321.426C338.045 313.356 340.991 304.474 340.991 295.123Z" fill="#00D181"/>
<path d="M217.46 394.571L193.847 405.161L203.241 437.527L230.441 429.884L217.46 394.571Z" fill="#FFBB99"/>
<path d="M256.53 429.585C256.488 429.457 256.445 429.286 256.402 429.158L254.438 423.735C263.063 421.515 276.941 417.971 298.291 412.676C342.742 401.659 366.739 375.74 361.316 359.258C355.936 342.947 341.631 336.115 311.272 345.253C285.993 352.81 250.168 373.605 238.853 380.309L237.657 376.936C236.675 374.246 234.07 372.666 231.38 372.965C230.825 373.05 230.313 373.306 229.928 373.648L223.224 379.455C222.84 379.797 222.328 379.968 221.815 379.925L215.368 379.242C214.172 379.114 212.976 379.455 212.08 380.267C210.372 381.846 209.688 384.366 210.542 386.714" fill="#5B5B5B"/>
<path d="M211.311 385.433C211.823 385.476 212.336 385.305 212.72 384.963L218.954 379.583L215.368 379.199C214.172 379.071 212.976 379.412 212.08 380.224C210.713 381.505 209.987 383.384 210.244 385.305L211.311 385.433Z" fill="#7F7F7F"/>
<path d="M227.153 382.444L228.348 385.817C230.782 384.366 234.326 382.273 238.682 379.797L237.657 376.893C236.675 374.203 234.07 372.623 231.38 372.922C230.825 373.007 230.313 373.264 229.928 373.605L223.822 378.857C225.317 379.541 226.555 380.779 227.153 382.444Z" fill="#7F7F7F"/>
<path d="M255.377 426.297C254.737 426.468 254.139 426.596 253.541 426.767L256.53 429.585C256.488 429.457 256.445 429.286 256.402 429.158L255.377 426.297Z" fill="#7F7F7F"/>
<path d="M361.316 359.215C355.936 342.904 341.631 336.072 311.272 345.21C295.601 349.907 275.873 359.685 260.416 368.012C273.653 361.222 288.47 354.39 300.768 350.718C331.127 341.623 345.432 348.455 350.812 364.724C354.484 375.868 344.663 391.368 324.167 403.623C351.751 390.856 365.586 372.153 361.316 359.215Z" fill="#7F7F7F"/>
<path d="M191.797 403.794C191.029 404.05 190.345 404.435 189.662 404.862C186.63 406.826 173.052 414.597 154.136 411.139C132.572 407.168 123.093 428.56 128.601 438.381C150.079 476.811 178.731 455.077 184.837 448.672C185.734 447.733 186.844 446.921 188.04 446.366L202.814 439.406C203.155 439.235 203.497 439.15 203.839 439.022C205.12 438.595 209.005 436.374 205.418 424.248C201.191 409.858 201.191 409.858 201.191 409.858C201.191 409.858 198.928 401.403 191.797 403.794Z" fill="#D11934"/>
<path d="M187.186 406.313C188.296 405.716 189.15 405.203 189.662 404.862C190.345 404.435 191.029 404.05 191.797 403.794C198.928 401.36 201.191 409.9 201.191 409.9C201.191 409.9 201.191 409.9 205.419 424.29C208.963 436.417 205.12 438.68 203.839 439.064C203.497 439.193 203.155 439.278 202.814 439.449L198.245 441.626C191.285 426.383 188.381 414.085 187.186 406.313Z" fill="#D11934"/>
<path d="M194.231 407.595C191.968 409.559 189.748 411.523 187.484 413.487C187.271 413.658 185.99 414.811 186.759 413.829C187.228 413.188 186.844 413.402 186.972 413.957C187.143 415.11 186.972 416.476 186.972 417.629C186.972 423.778 186.972 429.884 186.972 436.033C186.972 437.271 185.349 437.997 184.495 437.057C179.414 431.507 174.29 425.913 169.209 420.362C170.02 420.148 170.831 419.935 171.643 419.721C170.575 427.664 169.508 435.563 168.44 443.505C168.184 445.341 165.366 444.573 165.622 442.737C166.69 434.794 167.757 426.895 168.825 418.953C168.953 417.843 170.575 417.586 171.258 418.312C176.34 423.863 181.464 429.457 186.545 435.008C185.734 435.35 184.88 435.691 184.068 436.033C184.068 429.585 184.068 423.18 184.068 416.732C184.068 414.811 183.684 413.146 185.093 411.736C187.314 409.516 189.876 407.552 192.224 405.502C193.591 404.307 195.64 406.356 194.231 407.595Z" fill="#E2D7D0"/>
<path d="M203.668 436.46C200.593 436.46 197.007 437.015 194.018 436.46C192.139 436.118 190.644 433.599 189.449 432.275C184.923 427.279 180.354 422.283 175.827 417.245C176.639 416.903 177.493 416.562 178.304 416.22C179.372 424.461 180.482 432.702 181.549 440.943C181.72 442.224 179.884 442.822 179.073 441.968C172.881 435.563 166.69 429.201 160.498 422.796C159.174 421.429 161.267 419.38 162.548 420.746C168.739 427.151 174.931 433.513 181.122 439.918C180.311 440.26 179.457 440.602 178.646 440.943C177.578 432.702 176.468 424.461 175.4 416.22C175.23 414.939 177.108 414.298 177.877 415.195C182.19 419.978 186.545 424.717 190.858 429.5C191.883 430.61 192.865 431.72 193.89 432.83C194.103 433.044 194.615 433.471 194.701 433.727C194.914 434.496 194.274 433.3 194.06 433.556C194.402 433.129 198.33 433.556 198.928 433.556C200.508 433.556 202.088 433.556 203.668 433.556C205.547 433.556 205.547 436.46 203.668 436.46Z" fill="#E2D7D0"/>
<path d="M128.601 438.381C123.947 430.097 129.968 413.572 144.87 410.968C151.574 416.433 156.869 424.888 159.174 435.008C161.224 444.146 160.498 453.113 157.594 460.543C148.158 460.158 137.696 454.735 128.601 438.381Z" fill="#E2D7D0"/>
<path d="M258.196 394.101L281.809 404.691L272.415 437.015L245.215 429.414L258.196 394.101Z" fill="#FFD9C2"/>
<path d="M240.347 381.932C240.347 381.932 194.743 353.793 164.384 344.697C134.024 335.602 119.72 342.434 114.339 358.703C108.916 375.185 132.914 401.104 177.365 412.121C221.815 423.137 233.814 426.511 233.814 426.511L240.347 381.932Z" fill="#919191"/>
<path d="M190.815 415.152C146.364 404.136 122.367 378.174 127.79 361.735C132.188 348.412 142.564 341.41 162.761 344.27C133.512 335.901 119.591 342.733 114.339 358.746C108.916 375.228 132.914 401.147 177.365 412.163C221.815 423.18 233.814 426.511 233.814 426.511L233.899 425.956C225.189 423.735 211.525 420.276 190.815 415.152Z" fill="#A5A5A5"/>
<path d="M283.858 403.324C284.627 403.581 285.31 403.965 285.993 404.392C289.025 406.356 302.604 414.128 321.52 410.669C343.083 406.698 352.563 428.09 347.054 437.911C325.576 476.341 296.925 454.607 290.818 448.202C289.922 447.263 288.812 446.451 287.616 445.896L272.842 438.936C272.5 438.765 272.159 438.68 271.817 438.552C270.536 438.125 266.65 435.905 270.237 423.778C274.464 409.388 274.464 409.388 274.464 409.388C274.464 409.388 276.727 400.891 283.858 403.324Z" fill="#E81F33"/>
<path d="M288.47 405.844C287.36 405.246 286.506 404.734 285.993 404.392C285.31 403.965 284.627 403.581 283.858 403.325C276.728 400.891 274.464 409.431 274.464 409.431C274.464 409.431 274.464 409.431 270.237 423.821C266.693 435.947 270.536 438.21 271.817 438.595C272.159 438.723 272.5 438.808 272.842 438.979L277.411 441.157C284.371 425.913 287.274 413.615 288.47 405.844Z" fill="#D11934"/>
<path d="M281.424 407.125C283.687 409.089 285.908 411.053 288.171 413.017C288.384 413.188 289.665 414.341 288.897 413.359C288.427 412.719 288.811 412.932 288.683 413.487C288.513 414.64 288.683 416.006 288.683 417.159C288.683 423.308 288.683 429.414 288.683 435.563C288.683 436.801 290.306 437.527 291.16 436.588C296.241 431.037 301.365 425.443 306.447 419.892C305.635 419.679 304.824 419.465 304.013 419.252C305.08 427.194 306.148 435.093 307.215 443.035C307.471 444.872 310.29 444.103 310.033 442.267C308.966 434.325 307.898 426.425 306.831 418.483C306.703 417.373 305.08 417.117 304.397 417.843C299.316 423.394 294.192 428.987 289.11 434.538C289.922 434.88 290.776 435.221 291.587 435.563C291.587 429.115 291.587 422.71 291.587 416.263C291.587 414.341 291.971 412.676 290.562 411.267C288.342 409.046 285.78 407.082 283.431 405.033C282.065 403.837 280.015 405.887 281.424 407.125Z" fill="#FFF9F5"/>
<path d="M271.988 435.99C275.062 435.99 278.649 436.545 281.638 435.99C283.517 435.648 285.011 433.129 286.207 431.805C290.733 426.81 295.302 421.814 299.828 416.775C299.017 416.433 298.163 416.092 297.352 415.75C296.284 423.991 295.174 432.232 294.106 440.474C293.936 441.755 295.772 442.352 296.583 441.498C302.775 435.093 308.966 428.731 315.158 422.326C316.481 420.96 314.389 418.91 313.108 420.276C306.916 426.681 300.725 433.044 294.533 439.449C295.345 439.79 296.199 440.132 297.01 440.474C298.078 432.232 299.188 423.991 300.255 415.75C300.426 414.469 298.547 413.829 297.779 414.725C293.466 419.508 289.111 424.248 284.798 429.03C283.773 430.14 282.791 431.25 281.766 432.361C281.553 432.574 281.04 433.001 280.955 433.257C280.741 434.026 281.382 432.83 281.595 433.086C281.254 432.659 277.325 433.086 276.728 433.086C275.148 433.086 273.568 433.086 271.988 433.086C270.109 433.044 270.109 435.99 271.988 435.99Z" fill="#FFF9F5"/>
<path d="M347.054 437.912C351.709 429.628 345.688 413.103 330.786 410.498C324.082 415.964 318.787 424.418 316.481 434.538C314.432 443.676 315.157 452.643 318.061 460.073C327.498 459.689 337.959 454.223 347.054 437.912Z" fill="#FFF9F5"/>
<path d="M257.128 432.745L268.572 398.756L258.196 394.101L245.215 429.414L257.128 432.745Z" fill="#FFBB99"/>
<path d="M252.431 378.943C252.816 379.284 253.328 379.455 253.84 379.412L260.288 378.729C261.484 378.601 262.679 378.943 263.576 379.754C265.284 381.334 265.967 383.853 265.113 386.202L246.325 438.424C246.282 438.552 246.197 438.723 246.154 438.851C244.831 441.754 240.988 442.438 238.639 440.303L232.661 435.349C232.49 435.221 232.277 435.136 232.063 435.136L223.908 435.093C220.748 435.221 218.229 432.232 219.04 429.115C219.083 428.987 219.125 428.816 219.168 428.688L237.956 376.466C238.938 373.776 241.543 372.196 244.233 372.495C244.788 372.58 245.3 372.837 245.685 373.178L252.431 378.943Z" fill="#7A7A7A"/>
<path d="M302.86 240.851C302.86 240.851 274.464 241.62 240.39 269.802C206.315 241.62 177.92 240.851 177.92 240.851L162.292 254.003L185.264 272.961L240.432 271.04L295.601 272.961L318.573 254.003L302.86 240.851Z" fill="#FFF9F5"/>
<path d="M249.015 272.962H231.764V361.778H249.015V272.962Z" fill="#C1B49A"/>
<path d="M231.764 361.778L156.74 338.421V249.605L231.764 272.962V361.778Z" fill="#754C28"/>
<path d="M248.973 361.778L323.996 338.421V249.605L248.973 272.962V361.778Z" fill="#C1B49A"/>
<path d="M248.973 361.777L323.996 338.421V319.163L248.973 342.52V361.777Z" fill="#754C28"/>
<path d="M231.764 272.961L156.74 249.605L158.577 247.512L231.764 269.545H248.972L320.751 246.957L323.996 249.605L248.972 272.961H231.764Z" fill="#754C28"/>
<path d="M248.973 361.778V272.962" stroke="#754C28" stroke-miterlimit="10"/>
<path d="M173.564 298.667C168.568 309.214 160.968 319.462 152.599 315.491C144.229 311.52 140.6 296.062 145.596 285.558C150.592 275.011 162.719 271.424 171.088 275.438C179.457 279.409 178.56 288.163 173.564 298.667Z" fill="#FFBB99"/>
<path d="M173.564 298.667C178.56 288.12 179.457 279.409 171.088 275.438C170.703 275.267 170.319 275.097 169.935 274.968C163.487 275.652 157.039 279.58 153.709 286.583C148.969 296.575 152.001 310.965 159.431 315.832C165.024 313.655 169.977 306.225 173.564 298.667Z" fill="#FFD9C2"/>
<path d="M306.148 298.667C311.144 309.214 318.744 319.462 327.114 315.491C335.483 311.52 339.112 296.062 334.116 285.558C329.12 275.011 316.994 271.424 308.624 275.438C300.255 279.452 301.152 288.163 306.148 298.667Z" fill="#FFBB99"/>
<path d="M306.148 298.667C301.152 288.12 300.255 279.409 308.624 275.438C309.009 275.267 309.393 275.097 309.777 274.968C316.225 275.652 322.673 279.58 326.003 286.583C330.743 296.575 327.711 310.965 320.281 315.832C314.688 313.655 309.735 306.225 306.148 298.667Z" fill="#FFD9C2"/>
</svg>
