<svg width="242" height="220" viewBox="0 0 242 220" fill="none" xmlns="http://www.w3.org/2000/svg">
<path d="M140.002 203.263L126.575 200.39V189.877H113.927V201.154L98.9572 203.548C98.2083 203.668 97.7038 204.42 97.8319 205.225L98.0375 206.504C98.1656 207.31 98.8796 207.865 99.6286 207.749L113.395 205.547L103.886 216.91C103.368 217.465 103.43 218.368 104.027 218.924L104.747 219.64C106.323 220.548 107.44 219.405 107.96 218.852L119.099 205.692C119.474 205.723 119.856 205.745 120.25 205.745C120.813 205.745 120.828 205.762 121.346 205.7L130.673 218.364C131.946 219.758 133.099 220.06 133.826 219.273L134.736 218.606C135.357 218.077 135.227 217.003 134.732 216.424L126.744 204.762L139.162 207.432C139.905 207.58 140.642 207.055 140.803 206.254L141.06 204.987C141.219 204.185 140.747 203.412 140.002 203.263Z" fill="#828282"/>
<path d="M2.26501 190.866L2.18701 190.821L51.5932 159.609L51.5901 160.383L2.26501 190.866Z" fill="#F03C49"/>
<path d="M51.3797 219.016L2.26538 190.866L51.5904 160.383L51.3797 219.016ZM193.63 196.561L138.606 164.739L137.963 165.138L138.157 110.786L183.38 136.929L238.404 168.734L193.63 196.561Z" fill="#828282"/>
<path d="M239.665 104.912L239.438 168.011L192.012 197.025L192.239 133.928L239.665 104.912Z" fill="#BBBBBC"/>
<path d="M192.239 133.928L192.012 197.025L137.956 166.043L138.181 102.945L192.239 133.928Z" fill="#808389"/>
<path d="M189.202 140.164L188.998 154.874L188.061 155.451L140.687 127.184L139.975 113.07L140.891 112.476L189.202 140.164Z" fill="#525359"/>
<path d="M188.229 140.708L188.027 155.417L139.714 127.727L139.917 113.019L188.229 140.708Z" fill="#D5CFD0"/>
<path d="M160.48 126.992L159.951 126.688L159.912 129.443L168.965 134.632L168.973 133.93L160.455 129.047L160.48 126.992Z" fill="#525359"/>
<path d="M160.48 126.992L160.455 129.047L168.973 133.93L169.004 131.875L160.48 126.992Z" fill="#383638"/>
<path d="M189.202 158.763L188.998 173.472L188.061 174.047L140.687 145.782L139.975 131.666L140.891 131.075L189.202 158.763Z" fill="#525359"/>
<path d="M188.229 159.303L188.027 174.013L139.714 146.323L139.917 131.615L188.229 159.303Z" fill="#D5CFD0"/>
<path d="M160.48 145.588L159.951 145.284L159.912 148.04L168.965 153.228L168.973 152.526L160.455 147.643L160.48 145.588Z" fill="#525359"/>
<path d="M160.48 145.589L160.455 147.643L168.973 152.526L169.004 150.473L160.48 145.589Z" fill="#383638"/>
<path d="M189.202 176.637L188.998 191.347L188.061 191.924L140.687 163.659L139.975 149.541L140.891 148.95L189.202 176.637Z" fill="#525359"/>
<path d="M188.229 177.179L188.027 191.888L139.714 164.2L139.917 149.491L188.229 177.179Z" fill="#D5CFD0"/>
<path d="M160.48 163.465L159.951 163.161L159.912 165.915L168.965 171.103L168.973 170.403L160.455 165.52L160.48 163.465Z" fill="#525359"/>
<path d="M160.48 163.465L160.455 165.52L168.973 170.403L169.004 168.349L160.48 163.465Z" fill="#383638"/>
<path d="M138.186 102.943L137.959 166.047L51.3789 219.016L51.6063 155.911L138.186 102.943Z" fill="#BBBBBC"/>
<path d="M51.597 155.919L51.3704 219.016L2.18408 190.825L2.41071 127.727L51.597 155.919Z" fill="#808389"/>
<path d="M136.423 45.7354L137.278 46.2239L185.597 73.9291L239.661 104.914L192.233 133.928L138.186 102.942L51.6069 155.911L2.41455 127.734L136.423 45.7354Z" fill="#D8D7D7"/>
<path d="M241.727 104.18L241.498 110.222L193.224 140.009L193.453 133.969L241.727 104.18Z" fill="#383638"/>
<path d="M193.453 133.969L193.224 140.009L138.197 108.202L138.428 102.162L193.453 133.969Z" fill="#525359"/>
<path d="M138.429 102.162L138.198 108.203L50.0669 162.587L50.298 156.545L138.429 102.162Z" fill="#383638"/>
<path d="M50.2973 156.545L50.0662 162.587L0 133.646L0.231084 127.603L50.2973 156.545Z" fill="#525359"/>
<path d="M136.806 43.3977L137.679 43.9036L186.871 72.3416L241.896 104.147L193.629 133.945L138.604 102.141L50.4707 156.521L0.405029 127.578L136.806 43.3977Z" fill="#94969B"/>
<path d="M80.0938 100.744L80.3421 100.329L89.5585 105.781L89.3101 106.199L80.0938 100.744Z" fill="white"/>
<path d="M113.459 181.036L135.531 167.532V167.548L113.459 181.036Z" fill="#EE2732"/>
<path d="M55.4475 216.486L55.7273 183.598L135.723 132.742L135.531 167.532L113.459 181.036L55.4475 216.486Z" fill="#828282"/>
<path d="M135.529 167.488L106.58 150.731L135.727 132.732L135.529 167.488Z" fill="#808389"/>
<path d="M134.511 113.019L135.642 113.58L134.395 129.471L56.5924 179.458L55.4319 178.913L55.5456 162.461L134.511 113.019Z" fill="#383638"/>
<path d="M135.653 113.583L135.541 130.033L56.5759 179.478L56.6902 163.023L135.653 113.583Z" fill="#D5CFD0"/>
<path d="M102.916 135.716L103.599 135.277L103.837 138.912L92.2403 146.383L92.1802 145.46L103.094 138.426L102.916 135.716Z" fill="#383638"/>
<path d="M102.915 135.716L103.094 138.426L92.1797 145.46L92.0012 142.747L102.915 135.716Z" fill="#525359"/>
<path d="M120.902 105.097L79.632 130.458L65.3767 121.246L65.4631 119.443L106.365 96.0843L120.902 103.46V105.097Z" fill="#056644"/>
<path d="M120.943 103.36L79.6947 128.64L65.438 119.428L106.69 94.1461L120.943 103.36Z" fill="#05AC72"/>
<path d="M82.694 125.218L80.6935 126.43L78.5417 125.065L78.5709 124.733L80.5732 123.854L82.6649 124.823L82.694 125.218Z" fill="#383638"/>
<path d="M82.694 124.823L80.6935 126.034L78.5417 124.671L80.5732 123.46L82.694 124.823Z" fill="white"/>
<path d="M79.6519 124.687L80.5619 124.146L81.596 124.811L80.7016 125.352L79.6519 124.687Z" fill="#A8D2D3"/>
<path d="M79.6166 123.233L77.6161 124.445L75.4624 123.082L75.4935 122.749L77.4939 121.871L79.5855 122.84L79.6166 123.233Z" fill="#383638"/>
<path d="M79.6166 122.84L77.6161 124.051L75.4624 122.691L77.4939 121.479L79.6166 122.84Z" fill="white"/>
<path d="M76.5737 122.704L77.4837 122.161L78.5179 122.826L77.6215 123.368L76.5737 122.704Z" fill="#A8D2D3"/>
<path d="M76.4943 121.174L74.4938 122.386L72.3401 121.021L72.3711 120.69L74.3696 119.81L76.4632 120.779L76.4943 121.174Z" fill="#383638"/>
<path d="M76.4943 120.779L74.4938 121.991L72.3401 120.63L74.3696 119.419L76.4943 120.779Z" fill="white"/>
<path d="M73.4517 120.644L74.3597 120.103L75.3958 120.768L74.4994 121.309L73.4517 120.644Z" fill="#A8D2D3"/>
<path d="M73.8114 118.22L71.2541 119.783L70.0239 119.032L70.053 118.736L72.6608 117.102L73.8424 117.917L73.8114 118.22Z" fill="#383638"/>
<path d="M73.8418 117.829L71.2534 119.434L70.1106 118.676L72.728 117.069L73.8418 117.829Z" fill="white"/>
<path d="M71.1934 118.693L72.7107 117.765L72.7728 117.806L71.2651 118.744L71.1934 118.693Z" fill="#A8D2D3"/>
<path d="M79.8624 114.297L77.3051 115.857L76.075 115.107L76.1041 114.811L78.7118 113.177L79.8934 113.992L79.8624 114.297Z" fill="#383638"/>
<path d="M79.8938 113.903L77.3054 115.51L76.1646 114.75L78.7801 113.145L79.8938 113.903Z" fill="white"/>
<path d="M77.2458 114.77L78.7631 113.838L78.8252 113.88L77.3176 114.816L77.2458 114.77Z" fill="#A8D2D3"/>
<path d="M83.4122 112.046L80.8549 113.604L79.6248 112.856L79.6519 112.56L82.2597 110.922L83.4413 111.74L83.4122 112.046Z" fill="#383638"/>
<path d="M83.4409 111.649L80.8545 113.258L79.7117 112.498L82.3272 110.893L83.4409 111.649Z" fill="white"/>
<path d="M80.7915 112.52L82.3108 111.585L82.3728 111.63L80.8633 112.566L80.7915 112.52Z" fill="#A8D2D3"/>
<path d="M87.1285 109.681L84.5712 111.243L83.3411 110.494L83.3682 110.195L85.976 108.563L87.1576 109.381L87.1285 109.681Z" fill="#383638"/>
<path d="M87.1584 109.29L84.572 110.895L83.4292 110.137L86.0447 108.532L87.1584 109.29Z" fill="white"/>
<path d="M84.509 110.155L86.0283 109.224L86.0904 109.266L84.5808 110.203L84.509 110.155Z" fill="#A8D2D3"/>
<path d="M102.772 99.9304L100.216 101.489L98.9861 100.741L99.0133 100.445L101.619 98.8061L102.803 99.6245L102.772 99.9304Z" fill="#383638"/>
<path d="M102.803 99.5329L100.217 101.142L99.074 100.382L101.688 98.777L102.803 99.5329Z" fill="white"/>
<path d="M100.153 100.404L101.674 99.469L101.736 99.5138L100.227 100.45L100.153 100.404Z" fill="#FFB400"/>
<path d="M106.489 97.5654L103.934 99.1277L102.704 98.3781L102.731 98.079L105.337 96.4471L106.52 97.2648L106.489 97.5654Z" fill="#383638"/>
<path d="M106.521 97.174L103.935 98.7793L102.792 98.0213L105.407 96.4158L106.521 97.174Z" fill="white"/>
<path d="M103.87 98.0389L105.392 97.1083L105.454 97.1507L103.944 98.0874L103.87 98.0389Z" fill="#FFB400"/>
<path d="M92.16 106.553L89.6046 108.113L88.3745 107.363L88.4017 107.066L91.0094 105.43L92.191 106.248L92.16 106.553Z" fill="#383638"/>
<path d="M92.1919 106.157L89.6055 107.766L88.4626 107.006L91.0782 105.401L92.1919 106.157Z" fill="white"/>
<path d="M89.5427 107.026L91.062 106.093L91.124 106.136L89.6145 107.072L89.5427 107.026Z" fill="#A8D2D3"/>
<path d="M95.8778 104.189L93.3224 105.75L92.0923 105L92.1195 104.703L94.7272 103.069L95.9088 103.887L95.8778 104.189Z" fill="#383638"/>
<path d="M95.9094 103.796L93.323 105.401L92.1802 104.643L94.7957 103.038L95.9094 103.796Z" fill="white"/>
<path d="M93.2603 104.662L94.7795 103.73L94.8416 103.775L93.332 104.711L93.2603 104.662Z" fill="#FFB400"/>
<path d="M85.8761 123.098L83.8776 124.309L81.7239 122.946L81.753 122.613L83.7553 121.735L85.847 122.704L85.8761 123.098Z" fill="#383638"/>
<path d="M85.8761 122.704L83.8776 123.916L81.7239 122.553L83.7553 121.341L85.8761 122.704Z" fill="white"/>
<path d="M82.8352 122.569L83.7413 122.026L84.7774 122.691L83.8849 123.231L82.8352 122.569Z" fill="#FFB400"/>
<path d="M82.7997 121.115L80.7992 122.326L78.6455 120.962L78.6766 120.63L80.675 119.75L82.7686 120.72L82.7997 121.115Z" fill="#383638"/>
<path d="M82.7997 120.719L80.7992 121.931L78.6455 120.568L80.675 119.356L82.7997 120.719Z" fill="white"/>
<path d="M79.7583 120.583L80.6664 120.042L81.7025 120.706L80.8061 121.248L79.7583 120.583Z" fill="#A8D2D3"/>
<path d="M79.6771 119.056L77.6767 120.267L75.5249 118.903L75.554 118.571L77.5564 117.691L79.648 118.66L79.6771 119.056Z" fill="#383638"/>
<path d="M79.6771 118.661L77.6767 119.872L75.5249 118.509L77.5564 117.298L79.6771 118.661Z" fill="white"/>
<path d="M76.6348 118.523L77.5428 117.982L78.577 118.647L77.6845 119.188L76.6348 118.523Z" fill="#A8D2D3"/>
<path d="M89.0907 121.128L87.0903 122.34L84.9385 120.979L84.9676 120.644L86.97 119.767L89.0616 120.737L89.0907 121.128Z" fill="#383638"/>
<path d="M89.0907 120.737L87.0903 121.948L84.9385 120.583L86.97 119.371L89.0907 120.737Z" fill="white"/>
<path d="M86.0483 120.599L86.9583 120.056L87.9925 120.721L87.0961 121.261L86.0483 120.599Z" fill="#FFB400"/>
<path d="M86.0109 119.145L84.0124 120.356L81.8586 118.993L81.8878 118.66L83.8921 117.782L85.9818 118.751L86.0109 119.145Z" fill="#383638"/>
<path d="M86.0109 118.751L84.0124 119.963L81.8586 118.598L83.8921 117.387L86.0109 118.751Z" fill="white"/>
<path d="M82.9717 118.613L83.8797 118.073L84.9139 118.738L84.0214 119.279L82.9717 118.613Z" fill="#A8D2D3"/>
<path d="M82.8912 117.085L80.8908 118.296L78.7351 116.933L78.7681 116.6L80.7666 115.722L82.8582 116.691L82.8912 117.085Z" fill="#383638"/>
<path d="M82.8912 116.691L80.8908 117.902L78.7351 116.539L80.7666 115.328L82.8912 116.691Z" fill="white"/>
<path d="M79.8494 116.555L80.7574 116.012L81.7935 116.677L80.8971 117.218L79.8494 116.555Z" fill="#A8D2D3"/>
<path d="M92.5595 119.114L90.561 120.326L88.4072 118.963L88.4363 118.629L90.4407 117.751L92.5303 118.72L92.5595 119.114Z" fill="#383638"/>
<path d="M92.5595 118.72L90.561 119.932L88.4072 118.571L90.4407 117.36L92.5595 118.72Z" fill="white"/>
<path d="M89.52 118.585L90.4281 118.042L91.4622 118.707L90.5697 119.248L89.52 118.585Z" fill="#FFB400"/>
<path d="M89.4842 117.131L87.4838 118.343L85.332 116.98L85.3611 116.646L87.3635 115.768L89.4551 116.737L89.4842 117.131Z" fill="#383638"/>
<path d="M89.4842 116.737L87.4838 117.949L85.332 116.584L87.3635 115.373L89.4842 116.737Z" fill="white"/>
<path d="M86.4419 116.6L87.3519 116.059L88.3861 116.723L87.4916 117.265L86.4419 116.6Z" fill="#FFB400"/>
<path d="M86.3605 115.07L84.362 116.282L82.2083 114.921L82.2374 114.586L84.2397 113.71L86.3314 114.679L86.3605 115.07Z" fill="#383638"/>
<path d="M86.3605 114.679L84.362 115.89L82.2083 114.525L84.2397 113.314L86.3605 114.679Z" fill="white"/>
<path d="M83.3196 114.541L84.2257 113.998L85.2618 114.663L84.3693 115.204L83.3196 114.541Z" fill="#A8D2D3"/>
<path d="M99.1263 114.95L97.1259 116.162L94.9741 114.799L95.0032 114.465L97.0037 113.587L99.0972 114.556L99.1263 114.95Z" fill="#383638"/>
<path d="M99.1263 114.556L97.1259 115.768L94.9741 114.404L97.0037 113.192L99.1263 114.556Z" fill="white"/>
<path d="M96.084 114.419L96.994 113.878L98.0262 114.543L97.1317 115.084L96.084 114.419Z" fill="#FFB400"/>
<path d="M96.0463 112.965L94.0478 114.177L91.896 112.814L91.9231 112.481L93.9255 111.602L96.0191 112.572L96.0463 112.965Z" fill="#383638"/>
<path d="M96.0463 112.572L94.0478 113.783L91.896 112.42L93.9255 111.209L96.0463 112.572Z" fill="white"/>
<path d="M93.0059 112.436L93.9139 111.893L94.9481 112.558L94.0556 113.099L93.0059 112.436Z" fill="#FFB400"/>
<path d="M92.9252 110.906L90.9267 112.118L88.771 110.755L88.802 110.422L90.8044 109.543L92.8941 110.513L92.9252 110.906Z" fill="#383638"/>
<path d="M92.9252 110.513L90.9267 111.724L88.771 110.36L90.8044 109.148L92.9252 110.513Z" fill="white"/>
<path d="M89.8826 110.375L90.7906 109.834L91.8248 110.499L90.9322 111.041L89.8826 110.375Z" fill="#FFB400"/>
<path d="M102.31 112.829L100.31 114.041L98.156 112.678L98.1871 112.344L100.186 111.467L102.279 112.436L102.31 112.829Z" fill="#383638"/>
<path d="M102.31 112.436L100.31 113.647L98.156 112.285L100.186 111.073L102.31 112.436Z" fill="white"/>
<path d="M99.2659 112.298L100.176 111.758L101.21 112.422L100.314 112.963L99.2659 112.298Z" fill="#FFB400"/>
<path d="M99.2308 110.844L97.2323 112.056L95.0767 110.695L95.1077 110.36L97.1101 109.484L99.1998 110.453L99.2308 110.844Z" fill="#383638"/>
<path d="M99.2308 110.453L97.2323 111.665L95.0767 110.3L97.1101 109.088L99.2308 110.453Z" fill="white"/>
<path d="M96.188 110.317L97.096 109.775L98.1302 110.437L97.2377 110.98L96.188 110.317Z" fill="#FFB400"/>
<path d="M96.1085 108.786L94.1081 109.997L91.9543 108.636L91.9854 108.301L93.9858 107.425L96.0775 108.394L96.1085 108.786Z" fill="#383638"/>
<path d="M96.1085 108.394L94.1081 109.606L91.9543 108.241L93.9858 107.029L96.1085 108.394Z" fill="white"/>
<path d="M93.0671 108.256L93.9771 107.714L95.0113 108.379L94.1149 108.919L93.0671 108.256Z" fill="#FFB400"/>
<path d="M105.521 110.859L103.523 112.071L101.369 110.709L101.398 110.375L103.401 109.497L105.492 110.467L105.521 110.859Z" fill="#383638"/>
<path d="M105.521 110.467L103.523 111.678L101.369 110.317L103.401 109.106L105.521 110.467Z" fill="white"/>
<path d="M102.48 110.333L103.387 109.788L104.423 110.453L103.53 110.996L102.48 110.333Z" fill="#FFB400"/>
<path d="M102.445 108.879L100.445 110.09L98.291 108.726L98.3221 108.394L100.321 107.514L102.414 108.483L102.445 108.879Z" fill="#383638"/>
<path d="M102.445 108.483L100.445 109.695L98.291 108.332L100.321 107.12L102.445 108.483Z" fill="white"/>
<path d="M99.4038 108.346L100.312 107.805L101.348 108.47L100.452 109.01L99.4038 108.346Z" fill="#FFB400"/>
<path d="M99.3226 106.818L97.3222 108.03L95.1704 106.665L95.1995 106.334L97.2019 105.454L99.2935 106.423L99.3226 106.818Z" fill="#383638"/>
<path d="M99.3226 106.423L97.3222 107.635L95.1704 106.271L97.2019 105.06L99.3226 106.423Z" fill="white"/>
<path d="M96.28 106.287L97.1881 105.746L98.2223 106.409L97.3297 106.951L96.28 106.287Z" fill="#FFB400"/>
<path d="M110.872 107.332L108.874 108.543L106.718 107.183L106.749 106.847L108.752 105.971L110.841 106.94L110.872 107.332Z" fill="#383638"/>
<path d="M110.872 106.94L108.874 108.152L106.718 106.787L108.752 105.576L110.872 106.94Z" fill="white"/>
<path d="M107.83 106.802L108.738 106.26L109.772 106.925L108.879 107.466L107.83 106.802Z" fill="#FFB400"/>
<path d="M107.797 105.348L105.797 106.56L103.643 105.196L103.674 104.864L105.674 103.984L107.766 104.953L107.797 105.348Z" fill="#383638"/>
<path d="M107.797 104.953L105.797 106.165L103.643 104.802L105.674 103.59L107.797 104.953Z" fill="white"/>
<path d="M104.754 104.818L105.662 104.277L106.697 104.942L105.804 105.482L104.754 104.818Z" fill="#FFB400"/>
<path d="M104.675 103.29L102.673 104.502L100.521 103.136L100.552 102.806L102.552 101.925L104.644 102.894L104.675 103.29Z" fill="#383638"/>
<path d="M104.675 102.894L102.673 104.106L100.521 102.744L102.552 101.532L104.675 102.894Z" fill="white"/>
<path d="M101.631 102.759L102.539 102.216L103.573 102.88L102.681 103.422L101.631 102.759Z" fill="#FFB400"/>
<path d="M113.968 105.393L111.965 106.604L109.813 105.244L109.845 104.908L111.843 104.032L113.937 105.002L113.968 105.393Z" fill="#383638"/>
<path d="M113.968 105.002L111.965 106.213L109.813 104.848L111.843 103.637L113.968 105.002Z" fill="white"/>
<path d="M110.923 104.864L111.833 104.322L112.868 104.986L111.971 105.527L110.923 104.864Z" fill="#FFB400"/>
<path d="M110.89 103.41L108.888 104.622L106.734 103.257L106.767 102.925L108.768 102.046L110.857 103.015L110.89 103.41Z" fill="#383638"/>
<path d="M110.89 103.015L108.888 104.226L106.734 102.863L108.768 101.652L110.89 103.015Z" fill="white"/>
<path d="M107.845 102.879L108.753 102.338L109.787 103.003L108.893 103.544L107.845 102.879Z" fill="#FFB400"/>
<path d="M107.765 101.352L105.765 102.563L103.613 101.198L103.642 100.867L105.645 99.9864L107.736 100.956L107.765 101.352Z" fill="#383638"/>
<path d="M107.765 100.956L105.765 102.167L103.613 100.805L105.645 99.5935L107.765 100.956Z" fill="white"/>
<path d="M104.723 100.82L105.633 100.277L106.667 100.942L105.771 101.483L104.723 100.82Z" fill="#FFB400"/>
<path d="M117.12 103.454L115.117 104.666L112.966 103.305L112.997 102.97L114.995 102.094L117.089 103.063L117.12 103.454Z" fill="#383638"/>
<path d="M117.12 103.063L115.117 104.275L112.966 102.91L114.995 101.698L117.12 103.063Z" fill="white"/>
<path d="M114.075 102.925L114.985 102.383L116.02 103.048L115.123 103.589L114.075 102.925Z" fill="#FFB400"/>
<path d="M114.044 101.472L112.041 102.683L109.887 101.319L109.92 100.987L111.921 100.107L114.013 101.076L114.044 101.472Z" fill="#383638"/>
<path d="M114.044 101.076L112.041 102.288L109.887 100.925L111.921 99.7131L114.044 101.076Z" fill="white"/>
<path d="M110.999 100.941L111.907 100.4L112.941 101.065L112.047 101.605L110.999 100.941Z" fill="#FFB400"/>
<path d="M110.919 99.4132L108.918 100.625L106.767 99.2595L106.796 98.9286L108.798 98.0479L110.89 99.0172L110.919 99.4132Z" fill="#383638"/>
<path d="M110.919 99.0172L108.918 100.229L106.767 98.8665L108.798 97.655L110.919 99.0172Z" fill="white"/>
<path d="M107.876 98.8816L108.786 98.3386L109.821 99.0035L108.924 99.5449L107.876 98.8816Z" fill="#FFB400"/>
<path d="M96.0192 117.085L94.0168 118.296L91.865 116.933L91.896 116.6L93.8945 115.722L95.9881 116.691L96.0192 117.085Z" fill="#383638"/>
<path d="M96.0192 116.691L94.0168 117.902L91.865 116.539L93.8945 115.328L96.0192 116.691Z" fill="white"/>
<path d="M92.9746 116.555L93.8846 116.012L94.9188 116.677L94.0224 117.218L92.9746 116.555Z" fill="#FFB400"/>
<path d="M92.9427 115.101L90.9403 116.313L88.7866 114.95L88.8196 114.617L90.82 113.738L92.9097 114.708L92.9427 115.101Z" fill="#383638"/>
<path d="M92.9427 114.708L90.9403 115.919L88.7866 114.556L90.82 113.345L92.9427 114.708Z" fill="white"/>
<path d="M89.8979 114.572L90.806 114.029L91.8402 114.694L90.9457 115.235L89.8979 114.572Z" fill="#FFB400"/>
<path d="M89.8182 113.04L87.8178 114.252L85.666 112.89L85.6951 112.556L87.6975 111.678L89.7891 112.647L89.8182 113.04Z" fill="#383638"/>
<path d="M89.8182 112.647L87.8178 113.859L85.666 112.498L87.6975 111.286L89.8182 112.647Z" fill="white"/>
<path d="M86.7759 112.513L87.6859 111.969L88.7201 112.634L87.8236 113.177L86.7759 112.513Z" fill="#A8D2D3"/>
<path d="M139.814 82.2689C139.228 84.1551 136.213 84.8958 133.081 83.9226C129.951 82.9497 127.887 80.6326 128.473 78.7462C129.061 76.8622 132.076 76.1217 135.207 77.0948C138.335 78.0678 140.4 80.3864 139.814 82.2689Z" fill="#383638"/>
<path d="M135.299 76.7554C131.759 77.492 130.75 80.6595 130.523 81.6327C131.247 82.1832 132.142 82.6564 133.172 82.9759C136.125 83.8953 138.954 83.2319 139.495 81.4956C140.023 79.7932 138.149 77.7033 135.299 76.7554Z" fill="white"/>
<path d="M135.78 82.9048C134.99 82.9048 134.138 82.7708 133.314 82.515C132.505 82.2628 131.736 81.8925 131.075 81.435C131.395 80.3279 132.412 77.917 135.272 77.2597C137.786 78.1343 139.466 79.954 139.032 81.354C138.739 82.2975 137.46 82.9048 135.78 82.9048Z" fill="#219653"/>
<path d="M130.683 81.4722C130.683 81.4722 130.886 77.3156 135.128 76.6916L135.935 76.9803C135.935 76.9803 133.459 77.0793 130.683 81.4722Z" fill="#056644"/>
<path d="M129.28 77.4051C129.072 77.6362 128.898 77.8838 128.807 78.1745C128.454 79.3066 129.171 80.606 130.524 81.6328C130.685 80.9406 131.263 79.1399 132.854 77.8936C130.83 76.8872 129.426 77.353 129.28 77.4051Z" fill="#6FCF97"/>
<path d="M135.128 76.6917C132.671 75.93 130.318 76.2708 129.28 77.405C129.425 77.3529 130.83 76.8871 132.854 77.8936C133.492 77.3915 134.282 76.9689 135.299 76.7555L135.128 76.6917Z" fill="#05AC72"/>
<path d="M24.7309 122.171L25.9579 109.546L12.7942 109.609L14.0191 122.493H14.0841C14.4085 123.741 16.6398 124.711 19.376 124.711C22.0849 124.711 24.3003 123.76 24.6594 122.531H24.6959L24.7254 122.227L24.733 122.189L24.7309 122.171Z" fill="#383638"/>
<path d="M25.9579 109.546C25.9579 111.19 23.011 112.527 19.376 112.527C15.7411 112.527 12.7942 111.19 12.7942 109.546C12.7942 107.898 15.7411 106.56 19.376 106.56C23.011 106.56 25.9579 107.898 25.9579 109.546Z" fill="#05AC72"/>
<path d="M19.3767 111.548C16.0091 111.548 13.7749 110.342 13.7749 109.546C13.7749 108.745 16.0091 107.539 19.3767 107.539C22.7441 107.539 24.9793 108.745 24.9793 109.546C24.9793 110.342 22.7441 111.548 19.3767 111.548Z" fill="white"/>
<path d="M19.3769 110.966C16.1715 110.966 14.4594 109.869 14.3533 109.518C14.4594 109.222 16.1707 108.121 19.3769 108.121C22.5836 108.121 24.2951 109.222 24.4005 109.571C24.2951 109.869 22.5815 110.966 19.3769 110.966Z" fill="#828282"/>
<path d="M65.7209 112.313L66.5585 103.687L57.5664 103.73L58.4033 112.534H58.4479C58.6693 113.386 60.1934 114.049 62.0632 114.049C63.9133 114.049 65.4277 113.397 65.6724 112.56H65.6974L65.7172 112.353L65.7224 112.326L65.7209 112.313Z" fill="white"/>
<path d="M62.0629 113.467C60.2788 113.467 59.1259 112.829 59.0106 112.385L58.9524 112.163L58.2058 104.308L65.9179 104.273L65.1332 112.341L65.1136 112.397C64.9825 112.845 63.8485 113.467 62.0629 113.467Z" fill="#6FCF97"/>
<path d="M66.546 103.416C65.8869 102.565 64.1141 101.951 62.0092 101.951C59.9114 101.951 58.144 102.56 57.4777 103.406L57.2722 104.542C57.6944 105.556 59.6522 106.324 62.0092 106.324C64.3065 106.324 66.222 105.814 66.709 104.841L66.546 103.416Z" fill="#525359"/>
<path d="M62.0544 104.843C59.3591 104.843 57.5706 103.96 57.5706 103.374C57.5706 102.788 59.3591 101.904 62.0544 101.904C64.7488 101.904 66.5366 102.788 66.5366 103.374C66.5366 103.96 64.7488 104.843 62.0544 104.843Z" fill="#6F979F"/>
<path d="M65.8887 103.623L66.1512 103.391C66.0697 103.127 64.6828 102.291 62.055 102.291C59.4265 102.291 58.0396 103.127 57.9585 103.356L58.2206 103.607C58.736 103.274 60.0177 102.776 62.055 102.776C64.0916 102.776 65.3731 103.274 65.8887 103.623Z" fill="#525359"/>
<path d="M65.888 103.623C65.3725 103.274 64.0909 102.776 62.0544 102.776C60.0171 102.776 58.7353 103.274 58.22 103.608C58.7353 103.957 60.0171 104.455 62.0544 104.455C64.0909 104.455 65.3725 103.957 65.888 103.623Z" fill="#C2EBF2"/>
<path d="M152.299 56.6862L131.717 69.5637L115.936 60.5264L115.933 59.9216L136.519 47.6488L152.344 54.1351L152.299 56.6862Z" fill="#383638"/>
<path d="M152.3 54.1022L136.083 64.1921L120.302 55.1548L136.519 45.0629L152.3 54.1022Z" fill="#6D7076"/>
<path d="M120.302 55.1548C120.302 55.1548 116.656 57.006 115.896 60.0417L131.678 69.0791C131.678 69.0791 132.324 66.6152 136.083 64.1921L120.302 55.1548Z" fill="#525359"/>
<path d="M194.292 80.3688L173.434 93.4326L136.846 72.5066L136.853 71.0971L157.702 59.4427L194.304 78.9422L194.292 80.3688Z" fill="#383638"/>
<path d="M194.292 78.9149L173.434 91.9788L136.846 71.0525L157.702 57.9889L194.292 78.9149Z" fill="#525359"/>
<path d="M141.723 71.0563C141.723 71.0563 143.209 72.8609 144.897 73.8437C146.584 74.8266 150.09 75.7202 150.09 75.7202V41.7441L142.231 46.3539L141.723 71.0563Z" fill="#05AC72"/>
<path d="M168.584 64.1106L150.111 75.7285V50.3801L168.584 39.2143V64.1106Z" fill="#056644"/>
<path d="M167.624 38.6056L149.783 49.7559C149.028 49.6299 147.129 49.2403 145.675 48.3757C144.715 47.8039 144.036 47.1234 143.615 46.6175L161.772 35.2675L160.821 34.7247L142.228 46.3403C142.228 46.3403 143.126 47.9861 145.179 49.2073C147.234 50.4305 149.991 50.7698 149.991 50.7698L168.584 39.1542L167.624 38.6056Z" fill="#6FCF97"/>
<path d="M161.772 35.2675L143.615 46.6175L143.907 46.9199L162.129 35.4711L161.772 35.2675Z" fill="#05AC72"/>
<path d="M162.128 35.4712L143.907 46.9201C144.332 47.3814 144.885 47.9048 145.675 48.3759C147.128 49.2405 149.028 49.6301 149.782 49.7561L167.623 38.6058L162.128 35.4712Z" fill="#FCEED6"/>
<path d="M156.383 40.0364L163.052 35.8589L163.157 36.0237L156.488 40.2012L156.383 40.0364Z" fill="#05AC72"/>
<path d="M158.324 39.916L163.781 36.4635L163.885 36.6283L158.429 40.0808L158.324 39.916Z" fill="#05AC72"/>
<path d="M158.447 41.0386L164.691 37.0084L164.795 37.1713L158.546 41.2034L158.447 41.0386Z" fill="#05AC72"/>
<path d="M160.263 40.9492L165.721 37.4968L165.826 37.6557L160.37 41.1121L160.263 40.9492Z" fill="#05AC72"/>
<path d="M162.932 40.4646L166.601 38.0705L166.704 38.2353L163.036 40.6255L162.932 40.4646Z" fill="#05AC72"/>
<path d="M151.91 76.8718C151.91 76.8718 153.396 78.6763 155.084 79.6592C156.77 80.642 160.276 81.5356 160.276 81.5356V47.5595L152.418 52.1693L151.91 76.8718Z" fill="#05AC72"/>
<path d="M178.77 69.9263L160.297 81.5442V56.1958L178.77 45.03V69.9263Z" fill="#056644"/>
<path d="M177.811 44.4213L159.97 55.5716C159.215 55.4456 157.315 55.056 155.862 54.1914C154.902 53.6195 154.222 52.9391 153.801 52.4331L171.959 41.0832L171.008 40.5404L152.414 52.156C152.414 52.156 153.312 53.8017 155.365 55.023C157.42 56.2462 160.177 56.5854 160.177 56.5854L178.771 44.9699L177.811 44.4213Z" fill="#6FCF97"/>
<path d="M171.958 41.0832L153.801 52.4332L154.094 52.7356L172.315 41.2867L171.958 41.0832Z" fill="#05AC72"/>
<path d="M172.315 41.2866L154.094 52.7355C154.519 53.1969 155.072 53.7203 155.861 54.1913C157.315 55.0559 159.214 55.4455 159.969 55.5715L177.81 44.4212L172.315 41.2866Z" fill="#FCEED6"/>
<path d="M166.57 45.8557L173.239 41.6743L173.343 41.8391L166.675 46.0186L166.57 45.8557Z" fill="#05AC72"/>
<path d="M168.511 45.7317L173.967 42.2792L174.072 42.4421L168.616 45.8965L168.511 45.7317Z" fill="#05AC72"/>
<path d="M168.63 46.854L174.876 42.8258L174.981 42.9906L168.735 47.0188L168.63 46.854Z" fill="#05AC72"/>
<path d="M170.451 46.7649L175.907 43.3085L176.012 43.4733L170.556 46.9258L170.451 46.7649Z" fill="#05AC72"/>
<path d="M173.117 46.2802L176.788 43.8881L176.891 44.0471L173.222 46.4392L173.117 46.2802Z" fill="#05AC72"/>
<path d="M161.933 82.6875C161.933 82.6875 163.421 84.4942 165.107 85.4749C166.793 86.4577 170.299 87.3535 170.299 87.3535V53.3772L162.443 57.9851L161.933 82.6875Z" fill="#05AC72"/>
<path d="M188.796 75.7437L170.323 87.3596V62.0132L188.796 50.8454V75.7437Z" fill="#056644"/>
<path d="M187.834 50.2367L169.993 61.389C169.239 61.261 167.341 60.8733 165.888 60.0068C164.925 59.435 164.248 58.7565 163.827 58.2486L181.984 46.9005L181.032 46.3558L162.44 57.9714C162.44 57.9714 163.338 59.6191 165.391 60.8404C167.446 62.0636 170.201 62.4009 170.201 62.4009L188.797 50.7853L187.834 50.2367Z" fill="#6FCF97"/>
<path d="M181.984 46.9006L163.827 58.2486L164.12 58.553L182.339 47.1022L181.984 46.9006Z" fill="#05AC72"/>
<path d="M182.339 47.1023L164.12 58.5531C164.543 59.0125 165.096 59.5359 165.887 60.007C167.341 60.8735 169.238 61.2612 169.993 61.3892L187.834 50.2369L182.339 47.1023Z" fill="#FCEED6"/>
<path d="M176.594 51.6714L183.259 47.492L183.366 47.6529L176.695 51.8362L176.594 51.6714Z" fill="#05AC72"/>
<path d="M178.533 51.5491L183.993 48.0966L184.094 48.2614L178.637 51.7139L178.533 51.5491Z" fill="#05AC72"/>
<path d="M178.655 52.6697L184.901 48.6434L185.006 48.8082L178.756 52.8345L178.655 52.6697Z" fill="#05AC72"/>
<path d="M180.474 52.5784L185.93 49.1259L186.037 49.2907L180.579 52.7432L180.474 52.5784Z" fill="#F25949"/>
<path d="M183.143 52.0957L186.812 49.7016L186.915 49.8625L183.248 52.2566L183.143 52.0957Z" fill="#F25949"/>
<path d="M193.282 79.7602L173.476 93.3108L172.424 92.6224L172.383 64.9192L193.282 51.8148L194.375 52.3188L193.282 79.7602Z" fill="#383638"/>
<path d="M194.334 80.2447L173.434 93.3516V65.4037L194.334 52.2993V80.2447Z" fill="#525359"/>
<path d="M147.282 67.0999L144.25 65.4037V51.3494L147.282 53.0456V67.0999Z" fill="white"/>
<path d="M144.638 65.177V52.0106L146.892 53.2726V66.439L144.638 65.177Z" fill="#6FCF97"/>
<path d="M157.469 73.5825L154.436 71.8861V57.8319L157.469 59.5281V73.5825Z" fill="white"/>
<path d="M154.824 71.6592V58.4928L157.079 59.7548V72.9192L154.824 71.6592Z" fill="#6FCF97"/>
<path d="M167.533 79.2754L164.502 77.5792V63.5252L167.533 65.2214V79.2754Z" fill="white"/>
<path d="M164.89 77.353V64.1884L167.145 65.4484V78.613L164.89 77.353Z" fill="#6FCF97"/>
<path d="M195.403 73.0648L179.528 64.6381V68.2088L195.403 76.6357V73.0648Z" fill="#27AE60"/>
<path d="M195.403 80.8188L179.528 72.392V75.5598L195.403 83.9861V80.8188Z" fill="#27AE60"/>
<path d="M195.403 91.8445L179.528 83.4182V86.5857L195.403 95.0105V91.8445Z" fill="#27AE60"/>
<path d="M195.403 65.3107L179.528 56.884V60.2124L195.403 68.6411V65.3107Z" fill="#27AE60"/>
<path d="M195.403 95.5611L179.528 87.1348V90.1796L195.403 98.6067V95.5611Z" fill="#27AE60"/>
<path d="M195.403 99.155L179.528 90.7286V93.7174L195.403 102.145V99.155Z" fill="#27AE60"/>
<path d="M195.403 69.1877L179.528 60.7611V64.0895L195.403 72.5164V69.1877Z" fill="#27AE60"/>
<path d="M195.403 84.535L179.528 76.1079V79.1556L195.403 87.5798V84.535Z" fill="#27AE60"/>
<path d="M195.403 60.8191L195.304 60.8811L179.545 51.8573H179.528V56.3353L195.403 64.7639V60.8191Z" fill="#27AE60"/>
<path d="M179.528 97.0438L195.403 105.551V102.691L179.528 94.2676V97.0438Z" fill="#27AE60"/>
<path d="M195.403 88.1303L179.528 79.704V82.87L195.403 91.2942V88.1303Z" fill="#27AE60"/>
<path d="M195.403 77.184L179.528 68.7572V71.8434L195.403 80.2703V77.184Z" fill="#27AE60"/>
<path d="M195.424 64.7736L195.657 64.8977L216.162 52.1035V47.8776H216.065L195.424 60.8074V64.7736Z" fill="#219653"/>
<path d="M195.424 65.3222V68.6506L195.657 68.7747L216.162 55.9805V52.6753L195.676 65.4559L195.424 65.3222Z" fill="#219653"/>
<path d="M195.424 77.1953V80.2817L195.657 80.406L216.162 67.6116V64.5488L195.676 77.3294L195.424 77.1953Z" fill="#219653"/>
<path d="M195.424 84.5466V87.5922L195.657 87.7178L216.162 74.9222V71.8997L195.676 84.6784L195.424 84.5466Z" fill="#219653"/>
<path d="M195.424 80.83V83.9983L195.657 84.1218L216.162 71.3278V68.1836L195.676 80.9642L195.424 80.83Z" fill="#219653"/>
<path d="M195.676 69.3332L195.424 69.1994V72.5278L195.657 72.6521L216.162 59.8577V56.5526L195.676 69.3332Z" fill="#219653"/>
<path d="M195.424 73.0759V76.647L195.657 76.7712L216.162 63.9769V60.4294L195.676 73.21L195.424 73.0759Z" fill="#219653"/>
<path d="M195.424 102.704V105.63L216.162 92.5663V89.9183L195.554 102.772L195.424 102.704Z" fill="#219653"/>
<path d="M195.424 91.8569V95.0221L195.657 95.1484L216.162 82.3543V79.2081L195.676 91.99L195.424 91.8569Z" fill="#219653"/>
<path d="M195.424 95.5725V98.6181L195.657 98.7422L216.162 85.948V82.9261L195.676 95.7044L195.424 95.5725Z" fill="#219653"/>
<path d="M195.424 99.1672V102.156L195.536 102.214L216.162 89.3467V86.5221L195.676 99.299L195.424 99.1672Z" fill="#219653"/>
<path d="M195.424 88.1403V91.3063L195.657 91.4321L216.162 78.638V75.4954L195.676 88.2743L195.424 88.1403Z" fill="#219653"/>
<path d="M200.379 38.7801L179.523 51.8438L179.545 51.8573L195.304 60.8811L195.403 60.8191L195.424 60.8074L216.065 47.8776L216.162 47.8175L200.379 38.7801Z" fill="#6FCF97"/>
<path d="M195.403 102.144V102.691L195.424 102.704V102.156L195.403 102.144Z" fill="#4BB6C1"/>
<path d="M179.528 93.7175V94.2678L195.403 102.691V102.145L179.528 93.7175Z" fill="#646464"/>
<path d="M195.424 102.156V102.704L195.554 102.772L216.162 89.9184V89.3467L195.536 102.214L195.424 102.156Z" fill="#3A3A3C"/>
<path d="M195.403 99.155L195.424 99.1672V98.6182L195.403 98.6068V99.155Z" fill="#4BB6C1"/>
<path d="M195.403 98.6066L179.528 90.1795V90.7285L195.403 99.1548V98.6066Z" fill="#646464"/>
<path d="M195.424 98.618V99.167L195.676 99.2988L216.162 86.5219V85.9479L195.657 98.7421L195.424 98.618Z" fill="#3A3A3C"/>
<path d="M195.403 95.5611L195.424 95.5725V95.0219L195.403 95.0105V95.5611Z" fill="#4BB6C1"/>
<path d="M195.403 95.0105L179.528 86.5857V87.1347L195.403 95.561V95.0105Z" fill="#646464"/>
<path d="M195.424 95.022V95.5725L195.676 95.7043L216.162 82.9261V82.3542L195.657 95.1484L195.424 95.022Z" fill="#3A3A3C"/>
<path d="M195.403 91.8445L195.424 91.8567V91.3061L195.403 91.2941V91.8445Z" fill="#4BB6C1"/>
<path d="M195.403 91.2944L179.528 82.8702V83.4184L195.403 91.8447V91.2944Z" fill="#646464"/>
<path d="M195.424 91.3063V91.8568L195.676 91.99L216.162 79.208V78.6379L195.657 91.4321L195.424 91.3063Z" fill="#3A3A3C"/>
<path d="M195.403 88.1305L195.424 88.1404V87.5922L195.403 87.58V88.1305Z" fill="#4BB6C1"/>
<path d="M195.403 87.5798L179.528 79.1556V79.7041L195.403 88.1304V87.5798Z" fill="#646464"/>
<path d="M195.424 87.592V88.1402L195.676 88.2742L216.162 75.4953V74.9221L195.657 87.7176L195.424 87.592Z" fill="#3A3A3C"/>
<path d="M195.403 84.5352L195.424 84.5466V83.9984L195.403 83.9862V84.5352Z" fill="#4BB6C1"/>
<path d="M195.403 83.9862L179.528 75.5599V76.1081L195.403 84.5352V83.9862Z" fill="#646464"/>
<path d="M195.424 83.9982V84.5464L195.676 84.6782L216.162 71.8996V71.3277L195.657 84.1217L195.424 83.9982Z" fill="#3A3A3C"/>
<path d="M195.403 80.8188L195.424 80.8301V80.2819L195.403 80.2704V80.8188Z" fill="#4BB6C1"/>
<path d="M195.403 80.2704L179.528 71.8435V72.3921L195.403 80.8188V80.2704Z" fill="#646464"/>
<path d="M195.424 80.2818V80.83L195.676 80.9641L216.162 68.1835V67.6116L195.657 80.406L195.424 80.2818Z" fill="#3A3A3C"/>
<path d="M195.403 77.1841L195.424 77.1953V76.6471L195.403 76.6357V77.1841Z" fill="#4BB6C1"/>
<path d="M195.403 76.6357L179.528 68.2088V68.7574L195.403 77.1841V76.6357Z" fill="#646464"/>
<path d="M195.424 76.647V77.1952L195.676 77.3293L216.162 64.5487V63.9769L195.657 76.7712L195.424 76.647Z" fill="#3A3A3C"/>
<path d="M195.403 73.0647L195.424 73.0759V72.5277L195.403 72.5163V73.0647Z" fill="#4BB6C1"/>
<path d="M195.403 72.5163L179.528 64.0894V64.638L195.403 73.0647V72.5163Z" fill="#646464"/>
<path d="M195.424 72.5276V73.0758L195.676 73.21L216.162 60.4293V59.8575L195.657 72.6519L195.424 72.5276Z" fill="#3A3A3C"/>
<path d="M195.403 68.6409V69.1876L195.424 69.1992V68.6506L195.403 68.6409Z" fill="#4BB6C1"/>
<path d="M195.403 68.6411L179.528 60.2124V60.761L195.403 69.1877V68.6411Z" fill="#646464"/>
<path d="M195.424 68.6506V69.1993L195.676 69.333L216.162 56.5524V55.9806L195.657 68.7747L195.424 68.6506Z" fill="#3A3A3C"/>
<path d="M195.424 64.7737L195.403 64.764V65.3106L195.424 65.3223V64.7737Z" fill="#4BB6C1"/>
<path d="M195.403 64.7639L179.528 56.3352V56.8839L195.403 65.3105V64.7639Z" fill="#646464"/>
<path d="M195.424 64.7737V65.3223L195.676 65.4561L216.162 52.6754V52.1036L195.657 64.8978L195.424 64.7737Z" fill="#3A3A3C"/>
<path d="M59.718 96.2594L59.7188 96.2609L59.718 96.2646V96.2594ZM59.7188 96.2609L59.9734 95.8482L73.6656 104.49L80.0899 100.338L80.3479 100.741L73.6695 105.064L59.7188 96.2609Z" fill="white"/>
<path d="M213.674 97.0559L197.799 88.6288V92.1997L213.674 100.626V97.0559Z" fill="#27AE60"/>
<path d="M213.674 104.81L197.799 96.3828V99.5502L213.674 107.979V104.81Z" fill="#27AE60"/>
<path d="M213.674 89.3019L197.799 80.8748V84.2034L213.674 92.6299V89.3019Z" fill="#27AE60"/>
<path d="M213.674 93.1788L197.799 84.7517V88.0803L213.674 96.5068V93.1788Z" fill="#27AE60"/>
<path d="M213.674 108.526L197.799 100.099V103.146L213.674 111.571V108.526Z" fill="#27AE60"/>
<path d="M213.674 84.81L213.575 84.8722L197.814 75.8483H197.799V80.3264L213.674 88.7529V84.81Z" fill="#27AE60"/>
<path d="M213.674 112.122L197.799 103.695V106.86L213.674 115.285V112.122Z" fill="#27AE60"/>
<path d="M213.674 101.175L197.799 92.7482V95.8345L213.674 104.261V101.175Z" fill="#27AE60"/>
<path d="M213.694 88.765L213.929 88.887L234.432 76.0941V71.8705H234.337L213.694 84.7963V88.765Z" fill="#219653"/>
<path d="M213.694 89.3132V92.642L213.929 92.7639L234.432 79.9711V76.6681L213.948 89.445L213.694 89.3132Z" fill="#219653"/>
<path d="M213.694 101.187V104.273L213.929 104.395L234.432 91.6022V88.5415L213.948 101.318L213.694 101.187Z" fill="#219653"/>
<path d="M213.694 108.538V111.583L213.929 111.707L234.432 98.9126V95.8928L213.948 108.67L213.694 108.538Z" fill="#219653"/>
<path d="M213.694 104.821V107.989L213.929 108.111L234.432 95.3188V92.1763L213.948 104.953L213.694 104.821Z" fill="#219653"/>
<path d="M213.948 93.3222L213.694 93.1904V96.5192L213.929 96.6411L234.432 83.8483V80.5452L213.948 93.3222Z" fill="#219653"/>
<path d="M213.694 97.0674V100.639L213.929 100.76L234.432 87.9677V84.4223L213.948 97.1993L213.694 97.0674Z" fill="#219653"/>
<path d="M213.694 112.132V115.297L213.929 115.421L234.432 102.627V99.4844L213.948 112.265L213.694 112.132Z" fill="#219653"/>
<path d="M218.651 62.7711L197.793 75.8345L197.814 75.8481L213.575 84.8721L213.674 84.8098L213.694 84.7963L234.336 71.8705L234.431 71.8084L218.651 62.7711Z" fill="#6FCF97"/>
<path d="M213.675 112.122L213.695 112.132V111.583L213.675 111.571V112.122Z" fill="#4BB6C1"/>
<path d="M213.674 111.571L197.799 103.146V103.695L213.674 112.122V111.571Z" fill="#646464"/>
<path d="M213.694 111.583V112.132L213.948 112.265L234.432 99.4845V98.9126L213.929 111.707L213.694 111.583Z" fill="#3A3A3C"/>
<path d="M213.675 108.526L213.695 108.538V107.989L213.675 107.979V108.526Z" fill="#4BB6C1"/>
<path d="M213.674 107.979L197.799 99.5501V100.099L213.674 108.526V107.979Z" fill="#646464"/>
<path d="M213.694 107.989V108.538L213.948 108.669L234.432 95.8927V95.3187L213.929 108.111L213.694 107.989Z" fill="#3A3A3C"/>
<path d="M213.675 104.81L213.695 104.821V104.273L213.675 104.261V104.81Z" fill="#4BB6C1"/>
<path d="M213.674 104.261L197.799 95.8343V96.3827L213.674 104.81V104.261Z" fill="#646464"/>
<path d="M213.694 104.273V104.821L213.948 104.953L234.432 92.1762V91.6022L213.929 104.395L213.694 104.273Z" fill="#3A3A3C"/>
<path d="M213.675 101.175L213.695 101.187V100.638L213.675 100.626V101.175Z" fill="#4BB6C1"/>
<path d="M213.674 100.626L197.799 92.1998V92.7482L213.674 101.175V100.626Z" fill="#646464"/>
<path d="M213.694 100.639V101.187L213.948 101.319L234.432 88.5417V87.9677L213.929 100.761L213.694 100.639Z" fill="#3A3A3C"/>
<path d="M213.675 97.0559L213.695 97.0674V96.5192L213.675 96.507V97.0559Z" fill="#4BB6C1"/>
<path d="M213.674 96.5069L197.799 88.0804V88.6288L213.674 97.0559V96.5069Z" fill="#646464"/>
<path d="M213.694 96.5192V97.0674L213.948 97.1992L234.432 84.4223V83.8483L213.929 96.6411L213.694 96.5192Z" fill="#3A3A3C"/>
<path d="M213.675 92.63V93.179L213.695 93.1904V92.6422L213.675 92.63Z" fill="#4BB6C1"/>
<path d="M213.674 92.63L197.799 84.2034V84.7519L213.674 93.179V92.63Z" fill="#646464"/>
<path d="M213.694 92.6422V93.1904L213.948 93.3223L234.432 80.5454V79.9714L213.929 92.7642L213.694 92.6422Z" fill="#3A3A3C"/>
<path d="M213.695 88.765L213.675 88.7528V89.3018L213.695 89.3132V88.765Z" fill="#4BB6C1"/>
<path d="M213.674 88.7528L197.799 80.3263V80.8747L213.674 89.3018V88.7528Z" fill="#646464"/>
<path d="M213.694 88.765V89.3133L213.948 89.4451L234.432 76.6682V76.0942L213.929 88.887L213.694 88.765Z" fill="#3A3A3C"/>
<path d="M46.3705 113.878L36.281 119.965L36.3204 120.852L51.0348 129.981L62.7978 122.671L62.7568 121.702L46.3705 113.878Z" fill="#525359"/>
<path d="M50.967 129.086L36.3193 119.887L47.7474 112.897L62.821 121.655L50.967 129.086Z" fill="white"/>
<path d="M48.6627 116.261L42.0923 120.42L41.9854 120.252L48.5567 116.093L48.6627 116.261Z" fill="#056644"/>
<path d="M50.6798 117.297L44.1086 121.455L44.0017 121.289L50.5736 117.129L50.6798 117.297Z" fill="#056644"/>
<path d="M52.7677 118.391L46.1957 122.549L46.0896 122.382L52.6608 118.221L52.7677 118.391Z" fill="#056644"/>
<path d="M54.8558 119.631L48.2838 123.79L48.1785 123.623L54.7496 119.465L54.8558 119.631Z" fill="#056644"/>
<path d="M32.3435 124.549C32.7217 124.301 33.4047 124.331 33.8692 124.621L53.8602 137.055C54.3241 137.344 54.3932 137.778 54.0134 138.026L42.3603 145.678C41.9806 145.925 41.2991 145.893 40.8338 145.606L20.8426 133.172C20.3781 132.885 20.3098 132.449 20.6896 132.199L32.3435 124.549Z" fill="#525359"/>
<path d="M54.0136 138.026L42.3604 145.678C41.9807 145.925 41.2993 145.893 40.834 145.606L20.8428 133.172C20.5473 132.988 20.4117 132.743 20.4503 132.528L20.3003 133.372C20.2602 133.587 20.3966 133.831 20.6921 134.016L40.6823 146.447C41.1196 146.72 41.7322 146.742 42.1216 146.538L42.1148 146.571L42.2089 146.519L53.8627 138.867L53.9263 138.822L54.0105 138.739L54.028 138.642L54.0773 138.575L54.0627 138.654L54.0953 138.567L54.1015 138.542L54.2523 137.699L54.0136 138.026Z" fill="#383638"/>
<path d="M33.6904 126.35L51.378 137.34L41.1787 143.956L23.4895 132.971L33.6904 126.35Z" fill="white"/>
<path d="M24.7061 132.959L33.6979 127.124L50.1648 137.351L41.1719 143.187L24.7061 132.959Z" fill="#6FCF97"/>
<path d="M36.7984 130.074L37.0728 130.171L30.6888 134.446L30.4614 134.236L36.7984 130.074Z" fill="#1E2338"/>
<path d="M38.4285 131.195L38.7021 131.292L32.3197 135.564L32.0916 135.357L38.4285 131.195Z" fill="#1E2338"/>
<path d="M40.2284 132.214L40.5027 132.31L34.1186 136.584L33.8906 136.373L40.2284 132.214Z" fill="#1E2338"/>
<path d="M42.2656 133.368L42.5392 133.463L36.1551 137.735L35.9285 137.528L42.2656 133.368Z" fill="#1E2338"/>
<path d="M30.4003 127.764L30.2527 127.457L30.326 127.079L30.4739 127.39L30.4003 127.764Z" fill="#1F1D1D"/>
<path d="M34.4106 128.611L34.3363 128.991L34.1279 129.258L34.203 128.88L34.4106 128.611Z" fill="#1F1D1D"/>
<path d="M34.3359 128.991L34.3284 129.018L34.4027 128.642L34.4103 128.611L34.3359 128.991Z" fill="#131622"/>
<path d="M34.3282 129.018L34.2971 129.09L34.3722 128.71L34.4025 128.642L34.3282 129.018Z" fill="#141623"/>
<path d="M34.2988 129.089L34.2427 129.162L34.3201 128.782L34.3738 128.709L34.2988 129.089Z" fill="#1F1D1D"/>
<path d="M34.2422 129.163L34.1467 129.246L34.2218 128.869L34.3196 128.783L34.2422 129.163Z" fill="#1F1D1D"/>
<path d="M34.1462 129.247L34.1279 129.258L34.203 128.88L34.2213 128.869L34.1462 129.247Z" fill="#1F1D1D"/>
<path d="M32.4499 128.676L32.3748 129.055L30.4004 127.764L30.4739 127.39L32.4499 128.676Z" fill="#1F1D1D"/>
<path d="M34.2032 128.88L34.1281 129.258L33.8848 129.417L33.9598 129.039L34.2032 128.88Z" fill="#1F1D1D"/>
<path d="M33.9594 129.039L33.8844 129.417L33.845 129.427L33.9208 129.05L33.9594 129.039Z" fill="#1F1D1D"/>
<path d="M33.9219 129.05L33.846 129.427L33.6619 129.576L33.7377 129.198L33.9219 129.05Z" fill="#1F1D1D"/>
<path d="M25.0409 131.243L24.8938 130.939L24.9673 130.559L25.1152 130.867L25.0409 131.243Z" fill="#1F1D1D"/>
<path d="M33.7376 129.198L33.6617 129.576L29.0603 132.562L29.1354 132.183L33.7376 129.198Z" fill="#1F1D1D"/>
<path d="M29.135 132.183L29.0599 132.562L28.803 132.699L28.8773 132.323L29.135 132.183Z" fill="#1F1D1D"/>
<path d="M28.8768 132.323L28.8427 132.359L28.7676 132.736L28.8025 132.699L28.8768 132.323Z" fill="#1F1D1D"/>
<path d="M28.8433 132.359L28.7682 132.736L28.5332 132.889L28.6091 132.513L28.8433 132.359Z" fill="#1F1D1D"/>
<path d="M27.6951 132.55L27.62 132.926L25.04 131.244L25.1144 130.867L27.6951 132.55Z" fill="#1F1D1D"/>
<path d="M30.7797 126.649C31.0413 126.478 31.4476 126.465 31.6734 126.61L34.2534 128.293C34.4892 128.448 34.4642 128.711 34.2026 128.88L33.9593 129.039L33.9207 129.05L33.7366 129.198L29.1344 132.183L28.8767 132.323L28.8426 132.36L28.6084 132.513C28.3385 132.69 27.9308 132.703 27.6951 132.55L25.1143 130.867C24.89 130.718 24.9127 130.456 25.1839 130.28L25.4189 130.13C25.6904 129.952 26.0967 129.936 26.3217 130.082L28.2968 131.371L32.4496 128.676L30.4736 127.39C30.25 127.242 30.2743 126.979 30.5358 126.81L30.7797 126.649Z" fill="#383638"/>
<path d="M28.609 132.513L28.5331 132.889C28.2634 133.064 27.8571 133.079 27.6206 132.926L27.6957 132.55C27.9314 132.703 28.3391 132.69 28.609 132.513Z" fill="#1F1D1D"/>
<path d="M28.5336 132.889C28.3844 132.986 28.1925 133.037 28.0115 133.033L28.0858 132.653C28.266 132.659 28.4579 132.61 28.6095 132.513L28.5336 132.889Z" fill="#1F1D1D"/>
<path d="M28.011 133.033L27.9033 133.023L27.9792 132.647L28.0853 132.653L28.011 133.033Z" fill="#1F1D1D"/>
<path d="M27.9032 133.023L27.8252 133.009L27.8995 132.635L27.979 132.647L27.9032 133.023Z" fill="#1F1D1D"/>
<path d="M27.8257 133.009L27.7598 132.992L27.8333 132.616L27.9001 132.635L27.8257 133.009Z" fill="#1F1D1D"/>
<path d="M27.76 132.991L27.6995 132.968L27.7751 132.59L27.8335 132.615L27.76 132.991Z" fill="#1F1D1D"/>
<path d="M27.6986 132.968L27.6348 132.933L27.7106 132.559L27.7743 132.59L27.6986 132.968Z" fill="#1F1D1D"/>
<path d="M27.635 132.933L27.6206 132.925L27.6957 132.549L27.7108 132.559L27.635 132.933Z" fill="#121520"/>
<path d="M12.8442 97.8214C12.6927 97.8487 12.5986 98.0152 12.6366 98.1955L16.076 114.807C16.1132 114.985 16.2663 115.109 16.4186 115.08L18.2596 114.733C18.4127 114.704 18.506 114.535 18.4687 114.355L15.0302 97.7458C14.9921 97.5655 14.839 97.4414 14.6859 97.4724L12.8442 97.8214Z" fill="#6FCF97"/>
<path d="M17.399 109.185L17.4757 109.59L16.3653 109.799L16.2888 109.394L17.399 109.185Z" fill="white"/>
<path d="M17.399 109.185L17.4757 109.59L16.3653 109.799L16.2888 109.394L17.399 109.185Z" fill="#219653"/>
<path d="M17.0587 107.574L17.0981 107.774L16.5418 107.88L16.5022 107.678L17.0587 107.574Z" fill="white"/>
<path d="M17.0587 107.574L17.0981 107.774L16.5418 107.88L16.5022 107.678L17.0587 107.574Z" fill="#219653"/>
<path d="M17.1451 107.981L17.1829 108.183L16.6282 108.289L16.5903 108.088L17.1451 107.981Z" fill="white"/>
<path d="M17.1451 107.981L17.1829 108.183L16.6282 108.289L16.5903 108.088L17.1451 107.981Z" fill="#219653"/>
<path d="M17.2303 108.386L17.2691 108.588L16.7134 108.692L16.6755 108.493L17.2303 108.386Z" fill="white"/>
<path d="M17.2303 108.386L17.2691 108.588L16.7134 108.692L16.6755 108.493L17.2303 108.386Z" fill="#219653"/>
<path d="M17.3147 108.793L17.3549 108.993L16.7994 109.097L16.7607 108.9L17.3147 108.793Z" fill="white"/>
<path d="M17.3147 108.793L17.3549 108.993L16.7994 109.097L16.7607 108.9L17.3147 108.793Z" fill="#219653"/>
<path d="M17.5309 109.817L17.5682 110.02L17.0133 110.125L16.9739 109.923L17.5309 109.817Z" fill="white"/>
<path d="M17.5309 109.817L17.5682 110.02L17.0133 110.125L16.9739 109.923L17.5309 109.817Z" fill="#219653"/>
<path d="M17.6156 110.224L17.6534 110.428L17.0987 110.53L17.0591 110.331L17.6156 110.224Z" fill="white"/>
<path d="M17.6156 110.224L17.6534 110.428L17.0987 110.53L17.0591 110.331L17.6156 110.224Z" fill="#219653"/>
<path d="M17.7005 110.629L17.7399 110.831L17.1836 110.938L17.1458 110.736L17.7005 110.629Z" fill="white"/>
<path d="M17.7005 110.629L17.7399 110.831L17.1836 110.938L17.1458 110.736L17.7005 110.629Z" fill="#219653"/>
<path d="M15.9959 102.499L16.0739 102.902L14.9629 103.114L14.8862 102.71L15.9959 102.499Z" fill="white"/>
<path d="M15.9959 102.499L16.0739 102.902L14.9629 103.114L14.8862 102.71L15.9959 102.499Z" fill="#219653"/>
<path d="M16.4664 104.742L16.5452 105.147L15.434 105.357L15.3552 104.953L16.4664 104.742Z" fill="white"/>
<path d="M16.4664 104.742L16.5452 105.147L15.434 105.357L15.3552 104.953L16.4664 104.742Z" fill="#219653"/>
<path d="M16.1285 103.131L16.1655 103.332L15.6108 103.439L15.5728 103.235L16.1285 103.131Z" fill="white"/>
<path d="M16.1285 103.131L16.1655 103.332L15.6108 103.439L15.5728 103.235L16.1285 103.131Z" fill="#219653"/>
<path d="M16.2134 103.538L16.2514 103.738L15.6972 103.846L15.6594 103.645L16.2134 103.538Z" fill="white"/>
<path d="M16.2134 103.538L16.2514 103.738L15.6972 103.846L15.6594 103.645L16.2134 103.538Z" fill="#219653"/>
<path d="M16.2973 103.943L16.3375 104.145L15.782 104.251L15.7432 104.05L16.2973 103.943Z" fill="white"/>
<path d="M16.2973 103.943L16.3375 104.145L15.782 104.251L15.7432 104.05L16.2973 103.943Z" fill="#219653"/>
<path d="M16.3832 104.348L16.421 104.55L15.8647 104.655L15.8269 104.457L16.3832 104.348Z" fill="white"/>
<path d="M16.3832 104.348L16.421 104.55L15.8647 104.655L15.8269 104.457L16.3832 104.348Z" fill="#219653"/>
<path d="M16.9395 106.989L17.0153 107.394L15.9033 107.607L15.8269 107.204L16.9395 106.989Z" fill="white"/>
<path d="M16.9395 106.989L17.0153 107.394L15.9033 107.607L15.8269 107.204L16.9395 106.989Z" fill="#219653"/>
<path d="M16.5985 105.381L16.6373 105.583L16.0831 105.688L16.043 105.486L16.5985 105.381Z" fill="white"/>
<path d="M16.5985 105.381L16.6373 105.583L16.0831 105.688L16.043 105.486L16.5985 105.381Z" fill="#219653"/>
<path d="M16.6848 105.787L16.7219 105.988L16.1679 106.093L16.1299 105.893L16.6848 105.787Z" fill="white"/>
<path d="M16.6848 105.787L16.7219 105.988L16.1679 106.093L16.1299 105.893L16.6848 105.787Z" fill="#219653"/>
<path d="M16.7691 106.192L16.8087 106.393L16.2546 106.498L16.2136 106.298L16.7691 106.192Z" fill="white"/>
<path d="M16.7691 106.192L16.8087 106.393L16.2546 106.498L16.2136 106.298L16.7691 106.192Z" fill="#219653"/>
<path d="M16.8544 106.599L16.8931 106.801L16.3391 106.905L16.3003 106.705L16.8544 106.599Z" fill="white"/>
<path d="M16.8544 106.599L16.8931 106.801L16.3391 106.905L16.3003 106.705L16.8544 106.599Z" fill="#219653"/>
<path d="M15.0793 97.9744L15.1551 98.378L14.0455 98.5891L13.9683 98.1855L15.0793 97.9744Z" fill="white"/>
<path d="M15.0793 97.9744L15.1551 98.378L14.0455 98.5891L13.9683 98.1855L15.0793 97.9744Z" fill="#219653"/>
<path d="M15.5505 100.219L15.6271 100.621L14.5167 100.832L14.4387 100.428L15.5505 100.219Z" fill="white"/>
<path d="M15.5505 100.219L15.6271 100.621L14.5167 100.832L14.4387 100.428L15.5505 100.219Z" fill="#219653"/>
<path d="M15.2089 98.6064L15.2469 98.8057L14.6928 98.9124L14.6519 98.7125L15.2089 98.6064Z" fill="white"/>
<path d="M15.2089 98.6064L15.2469 98.8057L14.6928 98.9124L14.6519 98.7125L15.2089 98.6064Z" fill="#219653"/>
<path d="M15.294 99.0132L15.3311 99.2153L14.7764 99.3198L14.7385 99.12L15.294 99.0132Z" fill="white"/>
<path d="M15.294 99.0132L15.3311 99.2153L14.7764 99.3198L14.7385 99.12L15.294 99.0132Z" fill="#219653"/>
<path d="M15.3807 99.4183L15.418 99.6221L14.8623 99.7266L14.8252 99.5273L15.3807 99.4183Z" fill="white"/>
<path d="M15.3807 99.4183L15.418 99.6221L14.8623 99.7266L14.8252 99.5273L15.3807 99.4183Z" fill="#219653"/>
<path d="M15.4654 99.8234L15.5032 100.026L14.947 100.134L14.9089 99.9301L15.4654 99.8234Z" fill="white"/>
<path d="M15.4654 99.8234L15.5032 100.026L14.947 100.134L14.9089 99.9301L15.4654 99.8234Z" fill="#219653"/>
<path d="M15.6789 100.855L15.7176 101.059L15.1628 101.163L15.125 100.964L15.6789 100.855Z" fill="white"/>
<path d="M15.6789 100.855L15.7176 101.059L15.1628 101.163L15.125 100.964L15.6789 100.855Z" fill="#219653"/>
<path d="M15.7667 101.262L15.8053 101.466L15.2511 101.57L15.2102 101.367L15.7667 101.262Z" fill="white"/>
<path d="M15.7667 101.262L15.8053 101.466L15.2511 101.57L15.2102 101.367L15.7667 101.262Z" fill="#219653"/>
<path d="M15.8504 101.667L15.889 101.873L15.3335 101.977L15.2957 101.774L15.8504 101.667Z" fill="white"/>
<path d="M15.8504 101.667L15.889 101.873L15.3335 101.977L15.2957 101.774L15.8504 101.667Z" fill="#219653"/>
<path d="M15.9358 102.072L15.9744 102.276L15.4202 102.383L15.3809 102.181L15.9358 102.072Z" fill="white"/>
<path d="M15.9358 102.072L15.9744 102.276L15.4202 102.383L15.3809 102.181L15.9358 102.072Z" fill="#219653"/>
<path d="M20.1928 98.6217L19.9297 99.2155L20.3247 99.3562L20.7764 99.2517L20.6202 98.6391C20.5384 98.3173 20.3467 98.3098 20.1928 98.6217Z" fill="#383638"/>
<path d="M19.9655 99.0967L19.2493 100.927C19.1197 101.301 18.993 101.883 18.9082 102.406L21.2298 102.519C21.2426 101.991 21.2001 101.359 21.1426 100.981L20.7682 99.1587L19.9655 99.0967Z" fill="#F2C94C"/>
<path d="M17.875 115.338L18.6238 115.39L19.6552 102.409L18.9072 102.357L17.875 115.338Z" fill="#383638"/>
<path d="M20.2043 115.5L21.2366 102.52L20.546 102.474L19.5161 115.452L20.2043 115.5Z" fill="#383638"/>
<path d="M19.5159 115.452L20.5458 102.474L19.6552 102.409L18.6238 115.39L19.5159 115.452Z" fill="#05AC72"/>
<path d="M24.9186 103.373L24.5185 103.307L24.2069 104.79L24.3305 106.036L23.3376 110.786L23.4482 111.191L23.7166 110.842L25.0239 104.59C25.1681 103.9 25.2143 103.416 24.9186 103.373Z" fill="#383638"/>
<path d="M24.5073 102.249C24.615 101.731 24.6036 101.289 24.4802 101.27L23.7654 101.101C23.6418 101.082 23.4532 101.491 23.3455 102.013L22.9438 103.922L24.1169 104.102L24.5073 102.249Z" fill="#6F979F"/>
<path d="M24.7017 103.439C24.8905 102.54 24.7405 102.383 24.5311 102.35L23.2837 102.097C23.0715 102.065 22.8584 102.225 22.6698 103.125L21.864 106.981L23.8953 107.295L24.7017 103.439Z" fill="#383638"/>
<path d="M20.4272 113.944L22.4191 114.254C22.5237 113.818 22.6207 113.397 22.6949 113.033L24.6049 103.897L22.5911 103.503L20.663 112.717C20.5871 113.083 20.5045 113.504 20.4272 113.944Z" fill="#056644"/>
<path d="M139.866 48.2479C139.728 48.8217 139.07 49.2036 138.393 49.0989C137.72 48.9981 137.283 48.4495 137.419 47.8777L142.774 25.453C142.914 24.8811 143.57 24.4992 144.245 24.6039C144.924 24.7047 145.359 25.2514 145.223 25.8251L139.866 48.2479Z" fill="#383638"/>
<path d="M145.188 25.3774C145.384 25.9221 145.01 26.4862 144.348 26.6374C143.684 26.7886 142.992 26.4707 142.796 25.926L135.112 4.62173C134.914 4.07701 135.293 3.51484 135.956 3.36364C136.616 3.21243 137.309 3.53036 137.506 4.07314L145.188 25.3774Z" fill="#525359"/>
<path d="M144.574 25.5013C144.574 25.8135 144.32 26.0674 144.007 26.0674C143.697 26.0674 143.443 25.8135 143.443 25.5013C143.443 25.1892 143.697 24.9372 144.007 24.9372C144.32 24.9372 144.574 25.1892 144.574 25.5013Z" fill="#383638"/>
<path d="M143.556 6.11245L110.632 17.7571L101.435 13.8277L101.442 12.0346L135.39 2.43896L143.393 3.73196L143.556 6.11245Z" fill="#383638"/>
<path d="M143.32 3.69503L110.72 15.6072C110.72 15.6072 109.841 13.6687 106.232 12.5191C102.576 11.3521 101.443 12.0636 101.443 12.0636L135.113 0.0603247C135.113 0.0603247 137.063 -0.232392 139.137 0.471288C141.215 1.17691 143.32 3.69503 143.32 3.69503Z" fill="#525359"/>
<path d="M95.5056 84.0211L70.4099 99.4883L55.6208 89.9299L80.4218 74.6716L95.5056 82.3249V84.0211Z" fill="#056644"/>
<path d="M95.5476 82.2204L70.4674 97.5967L55.6777 88.0398L80.7568 72.6618L95.5476 82.2204Z" fill="#6FCF97"/>
<path d="M67.3208 82.0091H72.2685V93.6599L67.3208 90.3908V82.0091Z" fill="#056644"/>
<path d="M88.0397 83.8566L72.269 93.5757V75.6408H88.0397V83.8566Z" fill="#05AC72"/>
<path d="M105.333 65.9193L46.2151 105.348L43.7527 103.631L43.5427 57.0777L105.153 21.5448L107.796 23.053L105.333 65.9193Z" fill="#383638"/>
<path d="M107.809 67.6368L46.2268 105.348L46.0168 58.7952L107.809 23.1363V67.6368Z" fill="#B8B8B8"/>
<path d="M103.615 29.6304V65.615L49.5825 98.6877V100.118L105.125 66.119V28.7038L103.615 29.6304Z" fill="#242424"/>
<path d="M103.616 29.6304L49.3721 60.6505L49.5828 98.6877L103.616 65.615V29.6304Z" fill="white"/>
<path d="M103.012 30.6733L49.9775 60.9974L50.1578 93.7742L103.012 62.6587V30.6733Z" fill="#6FCF97"/>
<path d="M50.1582 93.7742L50.1803 97.614L103.012 65.2777V62.6588L50.1582 93.7742Z" fill="#056644"/>
<path d="M102.533 204.794C102.533 206.333 101.284 207.582 99.7452 207.582C98.2046 207.582 96.9551 206.333 96.9551 204.794C96.9551 203.255 98.2046 202.009 99.7452 202.009C101.284 202.009 102.533 203.255 102.533 204.794Z" fill="#1E1C1C"/>
<path d="M99.7449 205.644C99.2753 205.644 98.895 205.261 98.895 204.794C98.895 204.327 99.2753 203.947 99.7449 203.947C100.212 203.947 100.593 204.327 100.593 204.794C100.593 205.261 100.212 205.644 99.7449 205.644Z" fill="#BBBBBC"/>
<path d="M109.385 217.214C109.385 218.751 108.137 220 106.597 220C105.056 220 103.806 218.751 103.806 217.214C103.806 215.675 105.056 214.427 106.597 214.427C108.137 214.427 109.385 215.675 109.385 217.214Z" fill="#1E1C1C"/>
<path d="M106.596 218.062C106.128 218.062 105.746 217.681 105.746 217.214C105.746 216.745 106.128 216.365 106.596 216.365C107.064 216.365 107.444 216.745 107.444 217.214C107.444 217.681 107.064 218.062 106.596 218.062Z" fill="#BBBBBC"/>
<path d="M135.155 216.91C135.155 218.449 133.906 219.698 132.365 219.698C130.825 219.698 129.577 218.449 129.577 216.91C129.577 215.371 130.825 214.125 132.365 214.125C133.906 214.125 135.155 215.371 135.155 216.91Z" fill="#1E1C1C"/>
<path d="M132.364 217.759C131.897 217.759 131.517 217.377 131.517 216.91C131.517 216.442 131.897 216.063 132.364 216.063C132.832 216.063 133.214 216.442 133.214 216.91C133.214 217.377 132.832 217.759 132.364 217.759Z" fill="#BBBBBC"/>
<path d="M142.066 204.734C142.066 206.273 140.816 207.521 139.278 207.521C137.737 207.521 136.488 206.273 136.488 204.734C136.488 203.195 137.737 201.948 139.278 201.948C140.816 201.948 142.066 203.195 142.066 204.734Z" fill="#1E1C1C"/>
<path d="M139.279 205.583C138.809 205.583 138.429 205.201 138.429 204.734C138.429 204.267 138.809 203.887 139.279 203.887C139.746 203.887 140.127 204.267 140.127 204.734C140.127 205.201 139.746 205.583 139.279 205.583Z" fill="#BBBBBC"/>
<path d="M199.062 195.22L203.649 197.282L206.738 171.7L201.953 174.325L199.062 195.22Z" fill="#1E1C1C"/>
<path d="M232.774 178.745L203.672 197.37L206.474 173.278L229.117 162.811L232.774 178.745Z" fill="#383638"/>
<path d="M229.118 162.746L206.436 176.954L201.95 174.311L224.896 160.104L229.118 162.746Z" fill="#525359"/>
<path d="M209.269 172.444L207.881 171.586V167.238L209.269 168.096V172.444Z" fill="#1E1C1C"/>
<path d="M210.519 171.655L209.268 172.444L209.233 168.13L210.488 167.338L210.519 171.655Z" fill="#383638"/>
<path d="M220.972 165.361L219.587 164.506L219.719 160.42L220.972 161.013V165.361Z" fill="#1E1C1C"/>
<path d="M222.226 164.57L220.973 165.361L220.808 160.982L222.193 160.255L222.226 164.57Z" fill="#383638"/>
<path d="M221.004 162.166L209.233 169.281V168.028L221.004 160.914V162.166Z" fill="#383638"/>
<path d="M220.906 159.464L207.916 167.303L209.2 168.096L222.192 160.255L220.906 159.464Z" fill="#525359"/>
<path d="M230.531 168.806L203.629 185.665V186.367L230.638 169.44L230.531 168.806Z" fill="#1E1C1C"/>
<path d="M167.342 101.582L157.866 96.5927L153.871 94.6542C153.871 94.6542 154.725 91.0557 157.191 86.8282C159.847 82.265 161.624 76.3389 162.439 74.3717C162.439 74.3717 164.508 74.9471 168.237 76.3934C172.026 77.8686 175.944 78.9226 175.944 78.9226C175.944 78.9226 173.439 86.8629 171.584 91.033C169.616 95.4567 167.342 101.582 167.342 101.582Z" fill="white"/>
<path d="M172.864 81.947L172.821 81.9335C171.82 81.4079 170.578 80.9778 169.379 80.5612L168.824 80.3689C168.357 80.206 167.899 80.0046 167.46 79.8147C166.997 79.6132 166.517 79.4056 166.028 79.2391L165.543 79.0642C164.88 78.8219 164.191 78.5742 163.545 78.5546L163.415 78.4191L163.551 78.2888C164.243 78.3063 164.983 78.5757 165.633 78.8165L166.116 78.9869C166.614 79.1573 167.096 79.3649 167.565 79.57C168.002 79.7602 168.456 79.9577 168.914 80.119L169.468 80.3105C170.675 80.7294 171.925 81.1617 172.944 81.6971L173 81.8772L172.864 81.947Z" fill="#525359"/>
<path d="M171.838 84.2832L171.792 84.2694C170.792 83.7439 169.552 83.3139 168.353 82.8989L167.798 82.7089C167.331 82.5422 166.873 82.3447 166.432 82.1522C165.969 81.9508 165.489 81.7457 165.001 81.5753L164.515 81.4026C163.852 81.1603 163.163 80.9096 162.517 80.8922L162.389 80.7551L162.523 80.6287C163.215 80.6446 163.955 80.9142 164.607 81.1519L165.086 81.3246C165.587 81.4958 166.07 81.7025 166.537 81.9085C166.976 82.0985 167.426 82.2962 167.888 82.4567L168.441 82.649C169.648 83.0654 170.897 83.5002 171.918 84.0333L171.974 84.2134L171.838 84.2832Z" fill="#525359"/>
<path d="M170.864 86.4307L170.817 86.4169C169.818 85.89 168.578 85.4635 167.379 85.0464L166.824 84.8525C166.355 84.6881 165.899 84.4906 165.456 84.2968C164.994 84.099 164.515 83.8879 164.026 83.7204L163.541 83.5487C162.878 83.3064 162.189 83.0557 161.543 83.0404L161.413 82.9012L161.548 82.7733C162.239 82.7921 162.98 83.0579 163.63 83.2965L164.113 83.469C164.612 83.6394 165.095 83.8507 165.563 84.0544C165.999 84.2444 166.452 84.4398 166.911 84.6011L167.464 84.795C168.673 85.2137 169.923 85.6461 170.943 86.1829L170.998 86.3609L170.864 86.4307Z" fill="#525359"/>
<path d="M169.863 88.9292L169.819 88.9141C168.817 88.3864 167.578 87.9599 166.38 87.5435L165.824 87.3497C165.356 87.1845 164.9 86.9893 164.458 86.7955C163.996 86.5954 163.517 86.3857 163.028 86.2192L162.543 86.0428C161.877 85.8004 161.19 85.5543 160.542 85.5368L160.412 85.3976L160.548 85.2695C161.243 85.2869 161.982 85.5581 162.634 85.7966L163.115 85.967C163.612 86.1381 164.097 86.3494 164.564 86.5508C165.001 86.7408 165.453 86.9385 165.911 87.0975L166.468 87.2913C167.675 87.7101 168.926 88.1441 169.943 88.6793L169.999 88.8573L169.863 88.9292Z" fill="#525359"/>
<path d="M163.522 88.9915C163.06 88.7764 162.583 88.5492 162.086 88.3691L161.613 88.1836C160.965 87.9275 160.233 87.6383 159.544 87.6036L159.405 87.7276L159.531 87.867C160.177 87.9019 160.858 88.1698 161.512 88.4311L161.995 88.6174C162.48 88.7977 162.951 89.0187 163.409 89.2323C163.79 89.4126 164.189 89.589 164.591 89.7495L164.709 89.5109C164.308 89.3519 163.906 89.1716 163.522 88.9915Z" fill="#525359"/>
<path d="M155.929 98.1645C155.858 98.023 155.052 96.7455 155.807 94.5668C156.562 92.3915 158.011 90.3818 158.011 90.3818C158.011 90.3818 159.515 91.1489 159.822 91.1958C160.132 91.2367 158.339 94.4094 158.729 95.4483C159.317 97.009 161.052 98.2169 161.052 98.2169L158.368 100.882L155.406 99.3474L155.929 98.1645Z" fill="#EFC98D"/>
<path d="M161.027 98.2342C161.027 98.2342 159.044 97.0599 158.456 95.4992C158.062 94.458 159.832 91.1276 159.525 91.0852L159.191 90.9648C158.322 92.1106 156.836 94.408 157.406 96.1177C157.95 97.7436 157.402 99.4632 157.009 100.392L158.215 101.016L161.027 98.2342Z" fill="#FFD9C2"/>
<path d="M157.406 96.1178C156.836 94.408 158.322 92.1107 159.191 90.9648C158.71 90.7522 157.973 90.3288 157.973 90.3288C157.973 90.3288 156.411 92.5271 155.656 94.7027C154.899 96.8796 155.705 98.1571 155.774 98.3025L155.25 99.4807L157.008 100.392C157.402 99.4633 157.949 97.7436 157.406 96.1178Z" fill="#F7E8CC"/>
<path d="M47.2344 136.886C49.0164 137.582 51.0605 139.666 56.4902 139.628L56.9359 137.493C56.9359 137.493 55.4201 137.553 54.268 137.493C53.116 137.431 51.3166 135.973 50.5694 135.554C47.477 133.816 45.9005 134.827 44.5665 135.797C43.2918 136.721 42.2625 139.976 42.2625 139.976L43.0265 140.214C43.8517 138.964 45.8043 136.326 47.2344 136.886Z" fill="#F7E8CC"/>
<path d="M47.2348 136.886C45.8046 136.326 43.8521 138.964 43.0269 140.214L44.2031 140.581C44.2031 140.581 44.9338 139.352 45.3748 138.947C46.1631 138.22 46.83 137.856 48.0836 139.612C49.3524 141.389 50.8728 141.55 50.8728 141.55C50.8728 141.55 55.8448 141.854 56.0268 141.854L56.4905 139.628C51.0608 139.666 49.0167 137.582 47.2348 136.886Z" fill="#FFD9C2"/>
<path d="M65.5076 195.869L67.6077 185.591L73.9952 186.885L69.7498 197.527L65.5076 195.869Z" fill="#F7E8CC"/>
<path d="M154.678 99.2677L155.223 98.1759L160.074 100.237L159.408 101.266L154.678 99.2677Z" fill="white"/>
<path d="M65.5084 195.869C65.5084 195.869 61.2807 199.309 57.2984 200.353L56.4253 202.734L66.4929 202.357L68.0781 201.065L68.5593 202.52L70.2124 202.93L70.3696 196.655L65.5084 195.869Z" fill="#1E1C1C"/>
<path d="M125.42 197.347C125.546 198.155 125.048 198.905 124.293 199.027L98.9722 203.075C98.2213 203.193 97.5072 202.639 97.3811 201.83L97.1735 200.553C97.0454 199.747 96.8941 198.132 98.1068 197.707L123.622 194.827C124.372 194.706 125.086 195.263 125.215 196.067L125.42 197.347Z" fill="#66696D"/>
<path d="M125.609 195.925C125.737 196.73 125.236 197.485 124.483 197.603L99.1626 201.652C98.4136 201.77 97.6977 201.214 97.5677 200.41L97.3659 199.128C97.2378 198.324 97.7404 197.572 98.4893 197.451L123.812 193.404C124.563 193.286 125.275 193.842 125.403 194.648L125.609 195.925Z" fill="#BBBBBC"/>
<path d="M114.315 196.146C114.152 196.947 114.625 197.719 115.372 197.868L140.509 202.937C141.252 203.084 141.989 202.559 142.15 201.758L142.408 200.491C142.567 199.688 142.977 197.89 141.824 197.647L116.214 193.7C115.469 193.551 114.732 194.076 114.573 194.877L114.315 196.146Z" fill="#66696D"/>
<path d="M114.182 194.718C114.021 195.516 114.493 196.29 115.24 196.44L140.376 201.507C141.119 201.654 141.858 201.131 142.018 200.332L142.274 199.06C142.433 198.26 141.961 197.488 141.218 197.341L116.08 192.269C115.339 192.12 114.599 192.65 114.44 193.448L114.182 194.718Z" fill="#BBBBBC"/>
<path d="M116.777 193.939C116.154 194.47 116.051 195.367 116.544 195.945L132.183 214.307C132.678 214.883 133.943 215.821 134.913 215.396L136.125 214.912C137.742 213.758 137.829 212.339 137.338 211.761L119.78 193.183C119.288 192.605 118.383 192.566 117.765 193.096L116.777 193.939Z" fill="#66696D"/>
<path d="M117.555 192.733C116.934 193.262 116.828 194.159 117.324 194.739L133.153 213.398C134.428 214.791 135.579 215.094 136.306 214.306L137.216 213.64C137.837 213.108 137.709 212.036 137.212 211.459L120.561 191.977C120.066 191.399 119.162 191.362 118.541 191.892L117.555 192.733Z" fill="#BBBBBC"/>
<path d="M122.158 195.668C122.755 196.225 122.818 197.128 122.3 197.682L105.989 215.094C105.202 215.821 104.354 216.667 102.899 216.245L101.808 215.497C101.211 214.94 100.136 213.407 100.654 212.853L119.191 194.776C119.711 194.222 120.615 194.224 121.213 194.784L122.158 195.668Z" fill="#66696D"/>
<path d="M121.435 194.429C122.03 194.986 122.093 195.889 121.573 196.443L105.018 214.184C104.5 214.737 103.382 215.881 101.805 214.971L101.083 214.256C100.485 213.7 100.425 212.794 100.945 212.242L118.468 193.537C118.984 192.983 119.89 192.985 120.488 193.543L121.435 194.429Z" fill="#BBBBBC"/>
<path d="M126.107 183.781H113.459V196.775H113.49L113.478 196.825C113.478 198.383 116.301 199.646 119.784 199.646C123.267 199.646 126.088 198.383 126.088 196.825L126.078 196.775H126.107V183.781Z" fill="#66696D"/>
<path d="M127.06 180.183H112.083V192.048H112.118L112.104 192.095C112.104 193.52 115.447 194.671 119.571 194.671C123.696 194.671 127.039 193.52 127.039 192.095L127.025 192.048H127.06V180.183Z" fill="#BBBBBC"/>
<path d="M84.8728 179.363L112.997 195.369V170.337H84.8728V179.363Z" fill="#383638"/>
<path d="M144.25 175.414L113.032 195.522V162.851L145.705 165.479L144.25 175.414Z" fill="#77CDD1"/>
<path d="M147.106 164.714L112.821 187.323L84.8672 170.312L119.15 147.705L147.106 164.714Z" fill="#525359"/>
<path d="M106.943 60.7453L106.943 60.7453L104.288 66.978L105.348 69.5105C105.363 69.5164 105.382 69.5248 105.402 69.5365C105.451 69.5636 105.511 69.6087 105.564 69.6811C105.672 69.8288 105.736 70.0745 105.622 70.474C105.508 70.8716 105.217 71.4279 104.608 72.2085C103.998 72.9898 103.066 73.9991 101.665 75.3026C101.374 75.574 101.272 75.9349 101.287 76.3326C101.302 76.7317 101.436 77.1628 101.611 77.5629C101.785 77.9624 101.998 78.3269 102.168 78.5918C102.253 78.7242 102.326 78.8314 102.379 78.9055C102.405 78.9426 102.426 78.9713 102.44 78.9907L102.457 79.0126L102.461 79.0181L102.462 79.0195L102.462 79.0198L102.462 79.0198L102.409 79.0603L102.462 79.0198L102.474 79.0352L102.476 79.0544L103.076 85.7235C103.44 86.0049 103.911 86.128 104.42 86.1502C104.939 86.1728 105.493 86.0901 106.002 85.9686C106.511 85.8472 106.973 85.6878 107.308 85.5586C107.475 85.494 107.61 85.4371 107.704 85.3963C107.751 85.376 107.787 85.3596 107.811 85.3485L107.839 85.3356L107.846 85.3324L107.848 85.3316L107.848 85.3314L107.848 85.3313L107.877 85.3915L107.848 85.3313L107.975 85.2711L107.942 85.4072L106.758 90.2949L116.325 88.2911C116.322 88.281 116.317 88.2699 116.313 88.2578C116.287 88.1884 116.251 88.0873 116.209 87.96C116.125 87.7053 116.018 87.3453 115.926 86.9235C115.743 86.0814 115.62 84.9861 115.868 83.9898C116.782 80.3195 118.634 74.4285 120.231 69.4891C120.829 67.6405 121.391 65.9247 121.855 64.5081C122.011 64.0318 122.156 63.5893 122.288 63.187C122.549 62.3874 122.757 61.7464 122.894 61.3135C122.962 61.0969 123.012 60.933 123.042 60.8275C123.044 60.8201 123.046 60.8131 123.048 60.8064C123.011 60.8134 122.967 60.8198 122.916 60.8257C122.782 60.841 122.596 60.8538 122.364 60.8645C121.901 60.8857 121.255 60.8984 120.488 60.9046C118.953 60.917 116.931 60.9033 114.918 60.8795C112.905 60.8558 110.9 60.822 109.398 60.7941C108.647 60.7802 108.022 60.7677 107.585 60.7587L107.077 60.7482L106.943 60.7453Z" fill="#F7E8CC" stroke="#FFD9C2" stroke-width="0.133333"/>
<path d="M103.528 94.342C103.555 93.9991 105.978 90.0577 105.978 90.0577C105.978 90.0577 111.305 88.6386 119.432 88.0805L122.191 90.8331L103.528 94.342Z" fill="white"/>
<path d="M128.29 91.99L144.734 113.988L125.573 125.377L128.29 91.99Z" fill="#6FCF97"/>
<path d="M127.642 131.778C127.784 131.487 135.962 93.8089 126.917 90.9921C123.151 89.8214 122.93 89.3829 110.029 91.7039C97.1275 94.0254 96.429 94.6117 98.4295 99.4496C99.6713 102.454 90.7556 113.746 100.711 124.449C105.459 129.555 103.67 136.609 101.2 143.768C95.9886 158.882 99.0678 161.53 105.298 162.886C111.528 164.24 132.383 163.116 129.878 152.458C127.4 141.93 127.642 131.778 127.642 131.778Z" fill="#05AC72"/>
<path d="M117.698 82.4966C117.698 82.4966 116.257 85.0102 116.906 89.1079C117.556 93.209 119.644 110.124 116.917 111.995C114.19 113.869 112.094 106.241 112.094 106.241C112.094 106.241 112.553 122.684 118.934 122.16C118.934 122.16 120.762 122.525 122.371 119.527C122.371 119.527 127.23 125.564 129.43 114.062C129.43 114.062 132.259 116.82 132.535 108.879C132.81 100.933 129.291 92.5862 126.692 89.8424C124.091 87.0974 121.004 83.9724 120.944 77.5548L120.178 81.7133L117.698 82.4966Z" fill="#1E1C1C"/>
<path d="M102.734 81.7555C102.734 81.7555 101.931 81.2336 102.597 80.2234C102.597 80.2234 103.615 81.4335 106.171 80.7005C106.171 80.7005 102.795 82.4066 102.851 83.0442C102.851 83.0442 102.088 82.0788 102.734 81.7555Z" fill="#F0405A"/>
<ellipse rx="3.37808" ry="4.53433" transform="matrix(0.940596 0.339527 -0.340078 0.940397 119.136 80.5685)" fill="#05AC72"/>
<path d="M109.627 61.5267C109.627 61.5267 106.839 64.6167 108.172 67.0398C109.91 70.1957 110.995 70.4303 110.995 70.4303C110.995 70.4303 104.231 72.3998 105.912 75.8232C107.132 78.3084 109.821 81.9493 105.454 86.1419C108.414 85.2696 110.999 84.601 110.999 84.601L108.843 90.2417L116.48 88.9082L115.59 80.9233C115.59 80.9233 121.451 79.5799 121.451 74.854C121.451 70.1279 116.723 70.1899 115.145 73.7643L118.108 62.6898L109.627 61.5267Z" fill="#FFD9C2"/>
<path d="M106.171 68.1487C106.171 68.1487 105.866 67.6156 106.475 67.1116C107.085 66.6076 110.131 66.5068 111.534 67.131C111.534 67.131 108.645 67.131 106.171 68.1487Z" fill="#1E1C1C"/>
<path d="M115.896 84.2844L115.589 80.9232C115.589 80.9232 120.537 79.8169 120.302 74.9819C120.002 68.8329 115.145 73.7643 115.145 73.7643L117.795 63.9064L117.396 63.9339C113.319 64.2148 109.224 64.0547 105.182 63.4563C105.182 63.4563 100.945 63.3395 101.128 59.856C101.31 56.3725 104.731 54.0054 104.731 54.0054C104.731 54.0054 104.499 54.8294 107.795 55.6048C110.236 56.1786 120.481 51.3883 126.424 58.3088C133.834 66.941 126.815 67.6006 125.453 77.4077C125.088 80.0224 115.896 84.2844 115.896 84.2844Z" fill="#1E1C1C"/>
<path d="M116.237 168.509C116.237 168.509 119.753 183.089 107.141 177.919C105.467 177.232 88.9508 167.902 88.9508 167.902L84.8665 170.312L84.7074 174.567C84.7074 174.567 81.5331 186.158 85.3011 191.517C74.3909 194.574 63.123 185.76 63.123 185.76L66.395 176.82L98.0469 156.514L116.237 168.509Z" fill="#FDEFF7"/>
<path d="M145.462 114.231C145.462 113.867 154.558 98.8431 154.558 98.8431L160.136 100.904L154.193 115.078L145.462 114.231Z" fill="#6FCF97"/>
<path d="M56.0875 137.431L54.8143 137.251L54.511 141.915L56.0269 141.855L56.0875 137.431Z" fill="white"/>
<path d="M98.0257 96.3829C94.5293 100.625 77.3092 131.798 77.3092 131.798L55.5613 137.208L55.4006 142.217L79.007 141.855C79.007 141.855 83.8577 142.702 88.951 135.312C91.1668 132.096 90.7283 131.261 100.309 114.041C109.887 96.8228 101.522 92.1438 98.0257 96.3829Z" fill="#6FCF97"/>
<path d="M88.7498 156.919L89.1145 172.912L93.3579 175.577L94.0855 159.584L88.7498 156.919Z" fill="#383638"/>
<path d="M93.3572 175.577L95.5808 173.96L96.1066 161.319L93.722 160.23L93.3572 175.577Z" fill="#525359"/>
<path d="M86.6612 152.749L86.4148 156.886C86.4148 156.886 86.4148 157.479 88.194 158.369C89.9752 159.259 119.708 174.827 119.708 174.827L120.647 168.319L86.6612 152.749Z" fill="#383638"/>
<path d="M122.034 164.659C122.034 164.659 96.4013 148.95 90.5707 150.277C86.661 151.168 85.6229 153.094 87.7999 154.184C90.3049 155.434 120.944 170.789 120.944 170.789L122.034 164.659Z" fill="#525359"/>
<path d="M120.49 129.06C120.49 129.06 136.73 111.443 153.708 112.655L160.014 115.289C160.014 115.289 128.605 127.778 125.04 132.224L120.49 129.06Z" fill="#525359"/>
<path d="M111.29 194.4L113.762 196.18L124.548 130.94L120.491 129.06L111.29 194.4Z" fill="#383638"/>
<path d="M113.761 196.18L143.764 175.899C143.764 175.899 144.457 175.8 145.149 172.144C145.84 168.486 160.014 115.442 160.014 115.442C160.014 115.442 150.567 109.885 124.547 130.94L113.761 196.18Z" fill="#1E1C1C"/>
<path d="M108.311 69.1797C109.59 69.0208 110.494 70.4921 110.494 70.4921L106.819 70.936C106.819 70.936 107.033 69.3406 108.311 69.1797Z" fill="#1E1C1C"/>
<path d="M118.245 62.7813C118.245 62.7813 118.245 62.3946 117.584 63.4117C116.333 65.3347 115.866 67.6048 115.996 69.8951C116.016 70.2381 116.007 70.5446 115.933 70.818C115.671 71.8008 115.376 72.6596 114.759 73.3206C114.076 74.0513 113.451 73.4819 113.451 73.4819C113.451 73.4819 113.085 75.1114 114.579 74.9819C116.075 74.854 115.368 73.4759 117.037 72.332C118.704 71.1902 120.032 62.9248 118.245 62.7813Z" fill="#1E1C1C"/>
<path d="M69.1433 54.9842L58.1504 61.9299V64.1631L69.1433 57.3977V54.9842Z" fill="#056644"/>
<path d="M58.1504 64.1631V76.7925L69.1433 69.8468V57.3977L58.1504 64.1631Z" fill="white"/>
<path d="M61.9394 64.9733C61.7143 65.1245 61.4929 65.2932 61.2876 65.4948C60.2674 66.5009 59.8695 67.8171 60.1871 68.7864L62.9468 67.1794L61.9394 64.9733Z" fill="#6F979F"/>
<path d="M66.0227 65.0294C65.2508 64.2482 63.8608 64.3335 62.6661 65.1361L63.6736 67.3421L60.9131 68.9491C60.9994 69.2128 61.1277 69.457 61.3238 69.6547C62.241 70.5852 64.0366 70.3022 65.3319 69.0247C66.63 67.7472 66.9385 65.958 66.0227 65.0294Z" fill="#05AC72"/>
<path d="M68.4146 56.9227C68.4146 57.1243 68.2516 57.2852 68.0518 57.2852C67.85 57.2852 67.689 57.1243 67.689 56.9227C67.689 56.7211 67.85 56.5582 68.0518 56.5582C68.2516 56.5582 68.4146 56.7211 68.4146 56.9227Z" fill="white"/>
<path d="M67.2142 57.6807C67.2142 57.8804 67.0512 58.0432 66.8494 58.0432C66.6496 58.0432 66.4866 57.8804 66.4866 57.6807C66.4866 57.4791 66.6496 57.3163 66.8494 57.3163C67.0512 57.3163 67.2142 57.4791 67.2142 57.6807Z" fill="white"/>
<path d="M65.9417 58.3455C65.9417 58.5471 65.778 58.71 65.5772 58.71C65.3764 58.71 65.2134 58.5471 65.2134 58.3455C65.2134 58.1459 65.3764 57.983 65.5772 57.983C65.778 57.983 65.9417 58.1459 65.9417 58.3455Z" fill="white"/>
<path d="M88.466 51.3493L73.0251 60.9605V63.1375L88.466 53.6853V51.3493Z" fill="#056644"/>
<path d="M73.0251 63.1376V75.8232L88.466 66.2121V53.6854L73.0251 63.1376Z" fill="white"/>
<path d="M87.3756 53.4393C87.3756 53.6409 87.2126 53.8037 87.0108 53.8037C86.809 53.8037 86.6479 53.6409 86.6479 53.4393C86.6479 53.2396 86.809 53.0768 87.0108 53.0768C87.2126 53.0768 87.3756 53.2396 87.3756 53.4393Z" fill="white"/>
<path d="M86.1732 54.197C86.1732 54.3967 86.0102 54.5596 85.8103 54.5596C85.6085 54.5596 85.4456 54.3967 85.4456 54.197C85.4456 53.9954 85.6085 53.8326 85.8103 53.8326C86.0102 53.8326 86.1732 53.9954 86.1732 54.197Z" fill="white"/>
<path d="M84.897 54.8621C84.897 55.0637 84.734 55.2266 84.5342 55.2266C84.3324 55.2266 84.1694 55.0637 84.1694 54.8621C84.1694 54.6625 84.3324 54.4996 84.5342 54.4996C84.734 54.4996 84.897 54.6625 84.897 54.8621Z" fill="white"/>
<path d="M79.0078 64.2232L74.4307 66.9778V63.5563L79.0078 60.8308V64.2232Z" fill="#6F979F"/>
<path d="M86.8114 65.7779L80.3425 69.6743V64.8358L86.8114 60.982V65.7779Z" fill="#6F979F"/>
<path d="M80.5111 60.8831L80.4121 60.7163L86.8383 56.8393L86.9392 57.006L80.5111 60.8831Z" fill="#6F979F"/>
<path d="M80.7528 62.2148L80.6538 62.0501L87.0801 58.173L87.181 58.3378L80.7528 62.2148Z" fill="#6F979F"/>
<path d="M79.0287 66.0242L79.1296 66.1909L74.6903 68.9397L74.5913 68.773L78.9472 66.1482L79.0287 66.0242Z" fill="#6F979F"/>
<path d="M79.0893 67.3577L79.1902 67.5244L74.7527 70.2732L74.6538 70.1065L79.0059 67.4798L79.0893 67.3577Z" fill="#6F979F"/>
<path d="M77.8165 69.5986L77.9174 69.7653L74.7527 71.665L74.6538 71.5003L77.735 69.7207L77.8165 69.5986Z" fill="#6F979F"/>
</svg>
