<svg width="297" height="220" viewBox="0 0 297 220" fill="none" xmlns="http://www.w3.org/2000/svg">
<ellipse opacity="0.69" cx="52.2471" cy="44.0991" rx="46.0392" ry="44.0991" fill="#6FCF97" fill-opacity="0.7"/>
<ellipse opacity="0.69" cx="239.507" cy="165" rx="57.4196" ry="55.0001" fill="#6FCF97" fill-opacity="0.5"/>
<ellipse opacity="0.69" cx="27.4166" cy="179.865" rx="27.4166" ry="26.2612" fill="#6FCF97" fill-opacity="0.7"/>
<path d="M36.7456 180.603H107.191L36.7456 113.141V180.603Z" fill="#38434D"/>
<path d="M256.347 52.3311H223.961L256.347 83.352V52.3311Z" fill="#38434D"/>
<path d="M113.18 52.3311H36.7456V113.14L107.191 180.603H247.092L113.18 52.3311Z" fill="#323A43"/>
<path d="M256.347 180.603V123.238L182.321 52.3311H113.179L247.091 180.603H256.347Z" fill="#2D333B"/>
<path d="M256.347 83.352L223.961 52.3311H182.321L256.347 123.238V83.352Z" fill="#323A43"/>
<path d="M34.0726 180.603H36.7453V52.3311H256.347V180.603H259.019V49.771H34.0726V180.603Z" fill="#22262B"/>
<path d="M259.019 49.771V180.603L266.492 187.761V42.6123L259.019 49.771Z" fill="#05AC72"/>
<path d="M34.0735 49.771L26.6 42.6123V187.761L34.0735 180.602V49.771Z" fill="#05AC72"/>
<path d="M266.493 187.761L259.02 180.603H256.347H36.7456H34.073L26.5995 187.761H266.493Z" fill="#056644"/>
<path d="M259.02 49.7709L266.494 42.6123H26.6L34.0735 49.7709H259.02Z" fill="#3BFEB8"/>
<path d="M58.9889 135.699C58.9524 135.316 58.9251 134.852 58.9068 134.305C58.9068 133.758 58.9068 133.184 58.9068 132.582C58.9068 131.98 58.9068 131.37 58.9068 130.75C58.9251 130.13 58.9524 129.565 58.9889 129.055V128.07C58.8977 127.943 58.7884 127.815 58.6608 127.688C58.5331 127.542 58.3053 127.268 57.9772 126.867C57.6673 126.448 57.2206 125.837 56.6373 125.035C56.054 124.215 55.2701 123.076 54.2858 121.617C53.9029 121.216 53.6568 120.888 53.5475 120.633C53.4381 120.359 53.4016 120.141 53.4381 119.977C53.4746 119.812 53.5657 119.694 53.7115 119.621C53.8756 119.548 54.0305 119.512 54.1764 119.512C54.541 119.512 54.8691 119.594 55.1608 119.758C55.4524 119.922 55.7167 120.132 55.9537 120.387C56.1907 120.642 56.4003 120.924 56.5826 121.234C56.7831 121.526 56.9746 121.809 57.1568 122.082C57.2662 122.246 57.4029 122.456 57.567 122.711C57.7311 122.966 57.8951 123.221 58.0592 123.477C58.2233 123.714 58.36 123.923 58.4693 124.105C58.5969 124.288 58.6608 124.379 58.6608 124.379L58.9889 124.734V121.863C58.9889 120.952 58.9706 120.068 58.9342 119.211C58.8977 118.336 58.8795 117.452 58.8795 116.559C58.8795 116.303 58.9706 116.094 59.1529 115.93C59.3352 115.766 59.554 115.693 59.8092 115.711C60.1191 115.747 60.3469 115.802 60.4928 115.875C60.6568 115.948 60.8209 116.094 60.985 116.312C61.1308 116.513 61.1946 116.75 61.1764 117.023C61.1764 117.297 61.1855 117.561 61.2037 117.816C61.2766 119.548 61.3313 121.28 61.3678 123.012C61.4225 124.725 61.4498 126.448 61.4498 128.18C61.4316 128.344 61.4225 128.672 61.4225 129.164C61.4225 129.674 61.4225 130.249 61.4225 130.887C61.4407 131.525 61.4498 132.19 61.4498 132.883C61.468 133.576 61.4772 134.204 61.4772 134.77C61.4954 135.353 61.5045 135.827 61.5045 136.191C61.5227 136.574 61.541 136.757 61.5592 136.738C61.5592 137.012 61.4589 137.212 61.2584 137.34C61.0761 137.467 60.8483 137.531 60.5748 137.531C60.2102 137.531 59.9368 137.477 59.7545 137.367C59.5904 137.276 59.4628 137.139 59.3717 136.957C59.2805 136.793 59.2167 136.602 59.1803 136.383C59.1438 136.164 59.08 135.936 58.9889 135.699ZM75.1764 123.531C75.5592 123.13 75.9967 122.811 76.4889 122.574C76.9993 122.337 77.5279 122.128 78.0748 121.945C78.6399 121.763 79.205 121.59 79.7701 121.426C80.3535 121.262 80.9094 121.052 81.4381 120.797C81.8391 120.669 82.1399 120.587 82.3404 120.551C82.5592 120.496 82.8235 120.469 83.1334 120.469C83.3704 120.469 83.6347 120.514 83.9264 120.605C84.218 120.697 84.3821 120.879 84.4186 121.152C84.4003 121.225 84.3456 121.371 84.2545 121.59C84.1816 121.79 84.1269 121.909 84.0904 121.945C84.054 121.982 83.9628 122.046 83.817 122.137C83.6894 122.228 83.5891 122.292 83.5162 122.328C82.9329 122.419 82.3496 122.583 81.7662 122.82C81.2011 123.039 80.6269 123.276 80.0436 123.531C79.4785 123.786 78.9042 124.023 78.3209 124.242C77.7558 124.443 77.1816 124.57 76.5983 124.625C76.2884 124.625 75.9693 124.534 75.6412 124.352C75.3313 124.151 75.1764 123.878 75.1764 123.531ZM73.9186 120.25C73.8821 119.904 73.9641 119.667 74.1647 119.539C74.3652 119.393 74.593 119.284 74.8483 119.211C75.2493 119.065 75.6594 118.928 76.0787 118.801C76.5162 118.673 77.0358 118.546 77.6373 118.418C78.2571 118.272 78.9954 118.108 79.8522 117.926C80.7089 117.725 81.7662 117.488 83.024 117.215H83.1608C83.2337 117.215 83.3157 117.233 83.4068 117.27C83.5162 117.306 83.6165 117.361 83.7076 117.434C83.817 117.488 83.9081 117.552 83.9811 117.625C84.054 117.698 84.0904 117.771 84.0904 117.844C84.0904 118.081 84.0266 118.309 83.899 118.527C83.7714 118.728 83.6074 118.874 83.4068 118.965C82.0943 119.439 80.791 119.822 79.4967 120.113C78.2206 120.387 76.9264 120.742 75.6139 121.18C75.4863 121.18 75.3222 121.161 75.1217 121.125C74.9394 121.089 74.7571 121.034 74.5748 120.961C74.4108 120.888 74.2649 120.797 74.1373 120.688C74.0097 120.56 73.9368 120.414 73.9186 120.25ZM100.907 127.141C100.907 127.049 100.907 126.967 100.907 126.895C100.925 126.822 100.971 126.749 101.044 126.676C101.262 126.402 101.508 126.12 101.782 125.828C102.055 125.518 102.32 125.217 102.575 124.926C102.83 124.616 103.067 124.297 103.286 123.969C103.505 123.641 103.687 123.312 103.833 122.984V122.82L100.251 123.559H99.8404C99.5852 123.559 99.2662 123.54 98.8834 123.504C98.5188 123.467 98.1542 123.395 97.7897 123.285C97.4433 123.158 97.1425 122.984 96.8873 122.766C96.6503 122.547 96.5318 122.255 96.5318 121.891C96.5501 121.471 96.7688 121.007 97.1881 120.496C97.6074 119.986 98.0996 119.484 98.6647 118.992C99.2298 118.5 99.7949 118.044 100.36 117.625C100.943 117.206 101.408 116.878 101.755 116.641C102.137 116.422 102.593 116.249 103.122 116.121C103.65 115.975 104.133 115.902 104.571 115.902C104.935 115.902 105.255 115.975 105.528 116.121C105.801 116.249 105.938 116.513 105.938 116.914C105.938 117.078 105.92 117.233 105.883 117.379C105.865 117.525 105.756 117.625 105.555 117.68C104.972 117.625 104.425 117.671 103.915 117.816C103.404 117.944 102.921 118.145 102.465 118.418C102.01 118.691 101.581 119.02 101.18 119.402C100.779 119.767 100.387 120.15 100.005 120.551C99.8951 120.678 99.7584 120.861 99.5943 121.098C99.4303 121.316 99.3483 121.444 99.3483 121.48V121.508C99.8222 121.508 100.287 121.462 100.743 121.371C101.217 121.28 101.682 121.189 102.137 121.098C102.611 120.988 103.076 120.888 103.532 120.797C104.006 120.706 104.489 120.66 104.981 120.66C105.163 120.66 105.364 120.678 105.583 120.715C105.801 120.733 106.002 120.788 106.184 120.879C106.385 120.97 106.54 121.098 106.649 121.262C106.777 121.408 106.84 121.599 106.84 121.836C106.84 122.182 106.749 122.52 106.567 122.848C106.403 123.158 106.148 123.54 105.801 123.996C105.473 124.434 105.045 124.971 104.516 125.609C104.006 126.247 103.395 127.068 102.684 128.07C102.648 128.125 102.557 128.161 102.411 128.18C102.283 128.198 102.174 128.207 102.083 128.207C101.827 128.207 101.563 128.098 101.29 127.879C101.034 127.66 100.907 127.414 100.907 127.141ZM109.329 127.141C109.146 125.318 108.991 123.759 108.864 122.465C108.736 121.171 108.627 120.086 108.536 119.211C108.445 118.336 108.363 117.643 108.29 117.133C108.235 116.604 108.189 116.212 108.153 115.957C108.116 115.684 108.089 115.501 108.071 115.41C108.053 115.319 108.044 115.264 108.044 115.246V115.137C108.044 114.936 108.126 114.772 108.29 114.645C108.472 114.499 108.654 114.426 108.837 114.426C109.11 114.426 109.402 114.471 109.712 114.562C110.04 114.654 110.258 114.845 110.368 115.137C110.532 116.03 110.641 116.932 110.696 117.844C110.769 118.755 110.824 119.667 110.86 120.578C110.915 121.471 110.978 122.374 111.051 123.285C111.143 124.197 111.297 125.099 111.516 125.992C111.516 126.029 111.525 126.102 111.544 126.211C111.58 126.32 111.607 126.439 111.626 126.566C111.662 126.694 111.689 126.812 111.708 126.922C111.726 127.031 111.735 127.104 111.735 127.141V127.195C111.735 127.214 111.744 127.232 111.762 127.25C111.762 127.469 111.662 127.688 111.462 127.906C111.261 128.125 111.051 128.216 110.833 128.18C110.778 128.161 110.641 128.134 110.422 128.098C110.222 128.043 110.085 127.997 110.012 127.961C109.958 127.943 109.885 127.906 109.794 127.852C109.702 127.779 109.611 127.706 109.52 127.633C109.447 127.56 109.383 127.478 109.329 127.387C109.274 127.296 109.274 127.214 109.329 127.141ZM107.797 107.207C107.797 107.079 107.898 106.97 108.098 106.879C108.317 106.77 108.481 106.715 108.59 106.715C108.864 106.715 109.165 106.797 109.493 106.961C109.839 107.107 110.012 107.335 110.012 107.645C110.012 107.954 109.967 108.164 109.876 108.273C109.803 108.383 109.611 108.438 109.301 108.438C108.973 108.438 108.636 108.328 108.29 108.109C107.962 107.891 107.797 107.59 107.797 107.207ZM120.567 127.25C120.312 126.885 120.093 126.384 119.911 125.746C119.747 125.09 119.583 124.406 119.419 123.695C119.273 122.966 119.136 122.264 119.008 121.59C118.881 120.897 118.744 120.35 118.598 119.949C118.471 119.53 118.325 119.293 118.161 119.238C117.997 119.184 117.805 119.43 117.587 119.977L115.208 127.305C115.116 127.56 115.007 127.742 114.88 127.852C114.752 127.943 114.542 127.988 114.251 127.988C114.105 127.988 113.95 127.97 113.786 127.934C113.622 127.879 113.467 127.806 113.321 127.715C113.175 127.624 113.047 127.514 112.938 127.387C112.847 127.259 112.792 127.113 112.774 126.949C112.829 126.73 112.874 126.329 112.911 125.746C112.965 125.163 113.002 124.488 113.02 123.723C113.038 122.957 113.047 122.155 113.047 121.316C113.066 120.46 113.066 119.667 113.047 118.938C113.047 118.19 113.038 117.552 113.02 117.023C113.002 116.477 112.984 116.121 112.965 115.957C112.965 115.775 112.965 115.592 112.965 115.41C112.984 115.21 113.011 115.027 113.047 114.863C113.102 114.699 113.184 114.572 113.294 114.48C113.421 114.371 113.613 114.316 113.868 114.316C114.214 114.316 114.533 114.462 114.825 114.754C115.135 115.046 115.29 115.355 115.29 115.684C115.29 116.158 115.262 116.632 115.208 117.105C115.171 117.561 115.153 118.026 115.153 118.5C115.153 118.792 115.153 119.038 115.153 119.238C115.153 119.439 115.189 119.685 115.262 119.977C115.317 119.831 115.408 119.576 115.536 119.211C115.663 118.846 115.8 118.464 115.946 118.062C116.11 117.661 116.256 117.288 116.383 116.941C116.511 116.577 116.602 116.322 116.657 116.176C116.784 115.811 116.976 115.465 117.231 115.137C117.486 114.79 117.824 114.599 118.243 114.562C118.516 114.544 118.762 114.617 118.981 114.781C119.218 114.945 119.419 115.164 119.583 115.438C119.747 115.693 119.883 115.966 119.993 116.258C120.102 116.531 120.184 116.768 120.239 116.969L121.715 123.777L122.864 126.895C122.882 126.913 122.891 126.967 122.891 127.059C122.891 127.132 122.891 127.186 122.891 127.223C122.891 127.441 122.837 127.66 122.727 127.879C122.636 128.079 122.463 128.18 122.208 128.18C121.898 128.18 121.579 128.098 121.251 127.934C120.922 127.751 120.695 127.523 120.567 127.25ZM123.93 122.738C123.894 122.957 123.894 122.921 123.93 122.629C123.967 122.319 124.021 121.863 124.094 121.262C124.185 120.642 124.295 119.922 124.422 119.102C124.568 118.263 124.723 117.424 124.887 116.586C125.07 115.729 125.261 114.918 125.462 114.152C125.662 113.387 125.881 112.749 126.118 112.238C126.355 111.6 126.656 110.999 127.02 110.434C127.403 109.85 127.804 109.294 128.223 108.766C128.314 108.638 128.415 108.529 128.524 108.438C128.633 108.346 128.779 108.301 128.962 108.301C129.217 108.301 129.445 108.401 129.645 108.602C129.846 108.784 129.946 109.021 129.946 109.312C129.946 109.549 129.882 109.796 129.755 110.051C129.645 110.306 129.508 110.561 129.344 110.816C129.18 111.053 129.007 111.29 128.825 111.527C128.661 111.746 128.533 111.947 128.442 112.129C128.132 112.785 127.813 113.587 127.485 114.535C127.175 115.465 126.893 116.422 126.637 117.406C126.382 118.391 126.182 119.339 126.036 120.25C125.908 121.143 125.89 121.872 125.981 122.438C125.981 123.148 126.063 123.841 126.227 124.516C126.391 125.172 126.783 125.737 127.403 126.211C127.476 126.266 127.594 126.357 127.758 126.484C127.941 126.612 128.123 126.74 128.305 126.867C128.506 126.995 128.688 127.122 128.852 127.25C129.034 127.359 129.162 127.432 129.235 127.469C129.235 127.505 129.235 127.551 129.235 127.605C129.253 127.66 129.262 127.697 129.262 127.715C129.262 127.915 129.171 128.043 128.989 128.098C128.825 128.152 128.661 128.18 128.497 128.18C127.822 128.18 127.202 128.007 126.637 127.66C126.09 127.314 125.616 126.876 125.215 126.348C124.833 125.819 124.523 125.236 124.286 124.598C124.067 123.96 123.949 123.34 123.93 122.738ZM132.133 130.832C132.115 130.704 132.161 130.449 132.27 130.066C132.398 129.702 132.553 129.255 132.735 128.727C132.935 128.216 133.145 127.66 133.364 127.059C133.583 126.457 133.792 125.883 133.993 125.336C134.212 124.771 134.394 124.27 134.54 123.832C134.704 123.376 134.804 123.03 134.84 122.793C134.84 122.757 134.831 122.702 134.813 122.629C134.813 122.556 134.813 122.51 134.813 122.492C134.485 122.292 134.148 122.027 133.801 121.699C133.473 121.353 133.145 120.997 132.817 120.633C132.489 120.25 132.17 119.867 131.86 119.484C131.55 119.102 131.258 118.764 130.985 118.473V118.363C130.985 118.072 131.085 117.844 131.286 117.68C131.505 117.516 131.751 117.434 132.024 117.434C132.443 117.434 132.826 117.589 133.172 117.898C133.537 118.19 133.856 118.518 134.13 118.883C134.421 119.229 134.676 119.557 134.895 119.867C135.132 120.159 135.333 120.305 135.497 120.305H135.606C135.624 120.214 135.661 120.077 135.715 119.895C135.788 119.694 135.889 119.393 136.016 118.992C136.144 118.591 136.317 118.062 136.536 117.406C136.755 116.75 137.028 115.911 137.356 114.891C137.393 114.727 137.511 114.626 137.712 114.59C137.912 114.535 138.085 114.508 138.231 114.508C138.505 114.508 138.751 114.599 138.969 114.781C139.206 114.964 139.325 115.21 139.325 115.52V115.684L137.411 122.246L141.868 126.074L141.977 126.402V126.457C141.977 126.767 141.859 126.995 141.622 127.141C141.403 127.286 141.166 127.359 140.911 127.359C140.637 127.359 140.3 127.214 139.899 126.922C139.516 126.63 139.124 126.311 138.723 125.965C138.322 125.618 137.949 125.299 137.602 125.008C137.274 124.716 137.028 124.57 136.864 124.57H136.755C136.499 124.807 136.29 125.135 136.126 125.555C135.962 125.974 135.816 126.439 135.688 126.949C135.56 127.441 135.433 127.952 135.305 128.48C135.178 129.009 135.023 129.492 134.84 129.93C134.676 130.385 134.476 130.777 134.239 131.105C134.002 131.434 133.701 131.643 133.337 131.734C133.1 131.734 132.835 131.652 132.544 131.488C132.27 131.324 132.133 131.105 132.133 130.832ZM142.743 127.469C142.743 127.323 142.834 127.15 143.016 126.949C143.217 126.749 143.363 126.585 143.454 126.457C143.818 125.928 144.165 125.454 144.493 125.035C144.821 124.598 145.131 124.105 145.422 123.559C145.532 123.322 145.632 123.057 145.723 122.766C145.814 122.456 145.933 122.191 146.079 121.973C146.352 121.007 146.562 120.077 146.708 119.184C146.853 118.29 146.926 117.352 146.926 116.367C146.926 115.273 146.844 114.171 146.68 113.059C146.516 111.947 146.279 110.862 145.969 109.805C145.915 109.586 145.814 109.376 145.669 109.176C145.523 108.975 145.377 108.784 145.231 108.602C145.085 108.401 144.958 108.21 144.848 108.027C144.739 107.845 144.684 107.645 144.684 107.426C144.684 107.225 144.775 107.034 144.958 106.852C145.14 106.669 145.34 106.578 145.559 106.578C145.906 106.578 146.225 106.697 146.516 106.934C146.808 107.152 147.072 107.426 147.309 107.754C147.546 108.082 147.747 108.428 147.911 108.793C148.075 109.139 148.193 109.44 148.266 109.695C148.412 110.151 148.531 110.643 148.622 111.172C148.731 111.701 148.822 112.247 148.895 112.812C148.968 113.359 149.014 113.906 149.032 114.453C149.068 115 149.096 115.52 149.114 116.012C149.114 117.087 149.041 118.145 148.895 119.184C148.768 120.223 148.521 121.262 148.157 122.301C148.157 122.337 148.111 122.447 148.02 122.629C147.947 122.793 147.865 122.984 147.774 123.203C147.683 123.422 147.583 123.641 147.473 123.859C147.382 124.078 147.309 124.251 147.255 124.379C147.145 124.579 146.963 124.898 146.708 125.336C146.452 125.755 146.161 126.184 145.833 126.621C145.523 127.04 145.195 127.414 144.848 127.742C144.502 128.052 144.192 128.207 143.919 128.207C143.827 128.207 143.709 128.198 143.563 128.18C143.435 128.143 143.308 128.098 143.18 128.043C143.053 127.988 142.943 127.915 142.852 127.824C142.779 127.733 142.743 127.615 142.743 127.469ZM165.766 125.336C165.803 124.807 165.812 124.27 165.794 123.723C165.775 123.176 165.693 122.638 165.547 122.109H165.438C164.909 122.109 164.372 122.21 163.825 122.41C163.296 122.592 162.749 122.684 162.184 122.684C161.564 122.684 161.255 122.365 161.255 121.727C161.255 121.562 161.282 121.417 161.337 121.289C161.409 121.161 161.419 121.016 161.364 120.852C161.437 120.833 161.564 120.815 161.747 120.797C161.929 120.76 162.038 120.742 162.075 120.742H163.005C163.187 120.706 163.424 120.66 163.715 120.605C164.007 120.533 164.29 120.469 164.563 120.414C164.837 120.341 165.064 120.277 165.247 120.223C165.447 120.168 165.547 120.141 165.547 120.141L165.985 115.191C166.021 114.882 166.094 114.699 166.204 114.645C166.313 114.59 166.495 114.562 166.751 114.562C166.787 114.562 166.851 114.572 166.942 114.59C167.051 114.59 167.124 114.59 167.161 114.59C167.307 114.699 167.434 114.854 167.544 115.055V116.039C167.544 116.659 167.525 117.27 167.489 117.871C167.452 118.473 167.434 119.083 167.434 119.703H167.544L171.454 118.992C171.6 119.029 171.727 119.056 171.837 119.074C171.964 119.092 172.074 119.129 172.165 119.184C172.256 119.22 172.329 119.293 172.383 119.402C172.438 119.493 172.465 119.639 172.465 119.84V119.922C172.301 120.086 172.128 120.204 171.946 120.277C171.764 120.332 171.572 120.387 171.372 120.441C171.189 120.478 171.007 120.523 170.825 120.578C170.643 120.633 170.46 120.724 170.278 120.852L167.544 121.508C167.452 121.544 167.407 121.599 167.407 121.672C167.407 121.727 167.407 121.79 167.407 121.863C167.407 122.337 167.443 122.82 167.516 123.312C167.607 123.786 167.653 124.27 167.653 124.762C167.653 125.108 167.534 125.391 167.297 125.609C167.06 125.81 166.778 125.91 166.45 125.91H166.368L165.766 125.336ZM164.837 120.031V120.141H164.618V120.031H164.837ZM184.661 124.898C184.533 124.352 184.533 123.704 184.661 122.957C184.807 122.21 185.025 121.462 185.317 120.715C185.627 119.949 186.001 119.229 186.438 118.555C186.894 117.88 187.368 117.342 187.86 116.941C188.37 116.54 188.881 116.322 189.391 116.285C189.92 116.23 190.421 116.458 190.895 116.969C190.895 116.987 190.904 117.033 190.922 117.105C190.941 117.178 190.959 117.333 190.977 117.57C190.995 117.789 191.005 118.108 191.005 118.527C191.023 118.928 191.032 119.484 191.032 120.195C191.05 120.232 191.068 120.296 191.087 120.387C191.123 120.46 191.141 120.514 191.141 120.551C191.087 120.751 190.977 120.943 190.813 121.125C190.667 121.289 190.476 121.371 190.239 121.371C189.929 121.371 189.674 121.326 189.473 121.234C189.291 121.125 189.154 120.879 189.063 120.496C189.1 120.441 189.109 120.332 189.09 120.168C189.072 119.986 189.036 119.785 188.981 119.566C188.945 119.348 188.908 119.129 188.872 118.91C188.835 118.691 188.817 118.518 188.817 118.391C188.799 118.391 188.771 118.409 188.735 118.445C188.717 118.464 188.699 118.482 188.68 118.5C188.37 119.047 188.079 119.658 187.805 120.332C187.55 120.988 187.35 121.663 187.204 122.355C187.076 123.03 187.031 123.704 187.067 124.379C187.122 125.053 187.322 125.664 187.669 126.211C187.924 126.211 188.161 126.111 188.38 125.91C188.598 125.691 188.781 125.491 188.926 125.309C189.236 124.944 189.537 124.57 189.829 124.188C190.139 123.805 190.421 123.404 190.676 122.984C190.786 122.802 190.868 122.638 190.922 122.492C190.977 122.346 191.041 122.228 191.114 122.137C191.205 122.046 191.314 121.973 191.442 121.918C191.57 121.863 191.761 121.836 192.016 121.836C192.308 121.836 192.581 121.909 192.837 122.055C193.092 122.182 193.219 122.401 193.219 122.711C193.219 123.13 193.028 123.659 192.645 124.297C192.281 124.917 191.825 125.518 191.278 126.102C190.749 126.685 190.184 127.186 189.583 127.605C188.981 128.007 188.452 128.207 187.997 128.207C187.559 128.207 187.131 128.125 186.712 127.961C186.31 127.779 185.955 127.542 185.645 127.25C185.353 126.958 185.116 126.612 184.934 126.211C184.752 125.81 184.661 125.372 184.661 124.898ZM194.422 123.996L195.434 116.969C195.471 116.732 195.571 116.559 195.735 116.449C195.917 116.34 196.118 116.285 196.337 116.285C196.738 116.285 197.057 116.404 197.294 116.641C197.531 116.859 197.731 117.133 197.895 117.461H197.922C198.141 117.461 198.333 117.424 198.497 117.352C198.679 117.26 198.898 117.215 199.153 117.215C199.736 117.215 200.228 117.397 200.63 117.762C201.049 118.126 201.386 118.573 201.641 119.102C201.896 119.612 202.079 120.168 202.188 120.77C202.316 121.371 202.38 121.9 202.38 122.355C202.38 122.902 202.234 123.513 201.942 124.188C201.669 124.862 201.295 125.5 200.821 126.102C200.365 126.703 199.846 127.204 199.262 127.605C198.679 128.007 198.087 128.207 197.485 128.207C196.938 128.207 196.464 128.079 196.063 127.824C195.68 127.569 195.361 127.25 195.106 126.867C194.869 126.466 194.696 126.02 194.587 125.527C194.477 125.035 194.422 124.552 194.422 124.078V123.996ZM196.719 124.16C196.756 124.342 196.792 124.552 196.829 124.789C196.865 125.026 196.92 125.245 196.993 125.445C197.066 125.628 197.166 125.773 197.294 125.883C197.439 125.974 197.64 125.974 197.895 125.883C198.132 125.664 198.387 125.418 198.661 125.145C198.934 124.871 199.189 124.579 199.426 124.27C199.682 123.96 199.891 123.632 200.055 123.285C200.219 122.939 200.301 122.574 200.301 122.191C200.374 121.572 200.329 121.007 200.165 120.496C200.001 119.967 199.764 119.594 199.454 119.375C199.162 119.138 198.825 119.111 198.442 119.293C198.059 119.457 197.676 119.922 197.294 120.688C197.075 121.161 196.92 121.717 196.829 122.355C196.756 122.975 196.719 123.549 196.719 124.078V124.16ZM207.712 127.141C207.712 127.049 207.712 126.967 207.712 126.895C207.73 126.822 207.775 126.749 207.848 126.676C208.067 126.402 208.313 126.12 208.587 125.828C208.86 125.518 209.124 125.217 209.38 124.926C209.635 124.616 209.872 124.297 210.09 123.969C210.309 123.641 210.491 123.312 210.637 122.984V122.82L207.055 123.559H206.645C206.39 123.559 206.071 123.54 205.688 123.504C205.324 123.467 204.959 123.395 204.594 123.285C204.248 123.158 203.947 122.984 203.692 122.766C203.455 122.547 203.337 122.255 203.337 121.891C203.355 121.471 203.574 121.007 203.993 120.496C204.412 119.986 204.904 119.484 205.469 118.992C206.034 118.5 206.6 118.044 207.165 117.625C207.748 117.206 208.213 116.878 208.559 116.641C208.942 116.422 209.398 116.249 209.926 116.121C210.455 115.975 210.938 115.902 211.376 115.902C211.74 115.902 212.059 115.975 212.333 116.121C212.606 116.249 212.743 116.513 212.743 116.914C212.743 117.078 212.725 117.233 212.688 117.379C212.67 117.525 212.56 117.625 212.36 117.68C211.777 117.625 211.23 117.671 210.719 117.816C210.209 117.944 209.726 118.145 209.27 118.418C208.814 118.691 208.386 119.02 207.985 119.402C207.584 119.767 207.192 120.15 206.809 120.551C206.7 120.678 206.563 120.861 206.399 121.098C206.235 121.316 206.153 121.444 206.153 121.48V121.508C206.627 121.508 207.092 121.462 207.547 121.371C208.021 121.28 208.486 121.189 208.942 121.098C209.416 120.988 209.881 120.888 210.337 120.797C210.81 120.706 211.294 120.66 211.786 120.66C211.968 120.66 212.169 120.678 212.387 120.715C212.606 120.733 212.807 120.788 212.989 120.879C213.189 120.97 213.344 121.098 213.454 121.262C213.581 121.408 213.645 121.599 213.645 121.836C213.645 122.182 213.554 122.52 213.372 122.848C213.208 123.158 212.952 123.54 212.606 123.996C212.278 124.434 211.85 124.971 211.321 125.609C210.81 126.247 210.2 127.068 209.489 128.07C209.452 128.125 209.361 128.161 209.215 128.18C209.088 128.198 208.978 128.207 208.887 128.207C208.632 128.207 208.368 128.098 208.094 127.879C207.839 127.66 207.712 127.414 207.712 127.141ZM214.684 122.738C214.648 122.957 214.648 122.921 214.684 122.629C214.721 122.319 214.775 121.863 214.848 121.262C214.939 120.642 215.049 119.922 215.176 119.102C215.322 118.263 215.477 117.424 215.641 116.586C215.824 115.729 216.015 114.918 216.215 114.152C216.416 113.387 216.635 112.749 216.872 112.238C217.109 111.6 217.409 110.999 217.774 110.434C218.157 109.85 218.558 109.294 218.977 108.766C219.068 108.638 219.169 108.529 219.278 108.438C219.387 108.346 219.533 108.301 219.715 108.301C219.971 108.301 220.199 108.401 220.399 108.602C220.6 108.784 220.7 109.021 220.7 109.312C220.7 109.549 220.636 109.796 220.508 110.051C220.399 110.306 220.262 110.561 220.098 110.816C219.934 111.053 219.761 111.29 219.579 111.527C219.415 111.746 219.287 111.947 219.196 112.129C218.886 112.785 218.567 113.587 218.239 114.535C217.929 115.465 217.646 116.422 217.391 117.406C217.136 118.391 216.935 119.339 216.79 120.25C216.662 121.143 216.644 121.872 216.735 122.438C216.735 123.148 216.817 123.841 216.981 124.516C217.145 125.172 217.537 125.737 218.157 126.211C218.23 126.266 218.348 126.357 218.512 126.484C218.695 126.612 218.877 126.74 219.059 126.867C219.26 126.995 219.442 127.122 219.606 127.25C219.788 127.359 219.916 127.432 219.989 127.469C219.989 127.505 219.989 127.551 219.989 127.605C220.007 127.66 220.016 127.697 220.016 127.715C220.016 127.915 219.925 128.043 219.743 128.098C219.579 128.152 219.415 128.18 219.251 128.18C218.576 128.18 217.956 128.007 217.391 127.66C216.844 127.314 216.37 126.876 215.969 126.348C215.587 125.819 215.277 125.236 215.04 124.598C214.821 123.96 214.702 123.34 214.684 122.738ZM222.887 130.832C222.869 130.704 222.915 130.449 223.024 130.066C223.152 129.702 223.307 129.255 223.489 128.727C223.689 128.216 223.899 127.66 224.118 127.059C224.337 126.457 224.546 125.883 224.747 125.336C224.965 124.771 225.148 124.27 225.294 123.832C225.458 123.376 225.558 123.03 225.594 122.793C225.594 122.757 225.585 122.702 225.567 122.629C225.567 122.556 225.567 122.51 225.567 122.492C225.239 122.292 224.902 122.027 224.555 121.699C224.227 121.353 223.899 120.997 223.571 120.633C223.243 120.25 222.924 119.867 222.614 119.484C222.304 119.102 222.012 118.764 221.739 118.473V118.363C221.739 118.072 221.839 117.844 222.04 117.68C222.258 117.516 222.505 117.434 222.778 117.434C223.197 117.434 223.58 117.589 223.926 117.898C224.291 118.19 224.61 118.518 224.883 118.883C225.175 119.229 225.43 119.557 225.649 119.867C225.886 120.159 226.087 120.305 226.251 120.305H226.36C226.378 120.214 226.415 120.077 226.469 119.895C226.542 119.694 226.643 119.393 226.77 118.992C226.898 118.591 227.071 118.062 227.29 117.406C227.508 116.75 227.782 115.911 228.11 114.891C228.146 114.727 228.265 114.626 228.465 114.59C228.666 114.535 228.839 114.508 228.985 114.508C229.258 114.508 229.505 114.599 229.723 114.781C229.96 114.964 230.079 115.21 230.079 115.52V115.684L228.165 122.246L232.622 126.074L232.731 126.402V126.457C232.731 126.767 232.613 126.995 232.376 127.141C232.157 127.286 231.92 127.359 231.665 127.359C231.391 127.359 231.054 127.214 230.653 126.922C230.27 126.63 229.878 126.311 229.477 125.965C229.076 125.618 228.702 125.299 228.356 125.008C228.028 124.716 227.782 124.57 227.618 124.57H227.508C227.253 124.807 227.044 125.135 226.88 125.555C226.715 125.974 226.57 126.439 226.442 126.949C226.314 127.441 226.187 127.952 226.059 128.48C225.932 129.009 225.777 129.492 225.594 129.93C225.43 130.385 225.23 130.777 224.993 131.105C224.756 131.434 224.455 131.643 224.09 131.734C223.853 131.734 223.589 131.652 223.297 131.488C223.024 131.324 222.887 131.105 222.887 130.832ZM233.497 127.469C233.497 127.323 233.588 127.15 233.77 126.949C233.971 126.749 234.116 126.585 234.208 126.457C234.572 125.928 234.919 125.454 235.247 125.035C235.575 124.598 235.885 124.105 236.176 123.559C236.286 123.322 236.386 123.057 236.477 122.766C236.568 122.456 236.687 122.191 236.833 121.973C237.106 121.007 237.316 120.077 237.462 119.184C237.607 118.29 237.68 117.352 237.68 116.367C237.68 115.273 237.598 114.171 237.434 113.059C237.27 111.947 237.033 110.862 236.723 109.805C236.669 109.586 236.568 109.376 236.422 109.176C236.277 108.975 236.131 108.784 235.985 108.602C235.839 108.401 235.712 108.21 235.602 108.027C235.493 107.845 235.438 107.645 235.438 107.426C235.438 107.225 235.529 107.034 235.712 106.852C235.894 106.669 236.094 106.578 236.313 106.578C236.659 106.578 236.978 106.697 237.27 106.934C237.562 107.152 237.826 107.426 238.063 107.754C238.3 108.082 238.501 108.428 238.665 108.793C238.829 109.139 238.947 109.44 239.02 109.695C239.166 110.151 239.284 110.643 239.376 111.172C239.485 111.701 239.576 112.247 239.649 112.812C239.722 113.359 239.768 113.906 239.786 114.453C239.822 115 239.85 115.52 239.868 116.012C239.868 117.087 239.795 118.145 239.649 119.184C239.521 120.223 239.275 121.262 238.911 122.301C238.911 122.337 238.865 122.447 238.774 122.629C238.701 122.793 238.619 122.984 238.528 123.203C238.437 123.422 238.337 123.641 238.227 123.859C238.136 124.078 238.063 124.251 238.008 124.379C237.899 124.579 237.717 124.898 237.462 125.336C237.206 125.755 236.915 126.184 236.587 126.621C236.277 127.04 235.949 127.414 235.602 127.742C235.256 128.052 234.946 128.207 234.672 128.207C234.581 128.207 234.463 128.198 234.317 128.18C234.189 128.143 234.062 128.098 233.934 128.043C233.807 127.988 233.697 127.915 233.606 127.824C233.533 127.733 233.497 127.615 233.497 127.469Z" fill="white"/>
</svg>
