<svg width="255" height="220" viewBox="0 0 255 220" fill="none" xmlns="http://www.w3.org/2000/svg">
<g opacity="0.5">
<path d="M127.204 220C56.9504 220 0 209.434 0 196.4C0 183.367 56.9504 172.801 127.204 172.801C197.457 172.801 254.408 183.367 254.408 196.4C254.408 209.434 197.457 220 127.204 220Z" fill="#6FCF97"/>
</g>
<path d="M219.89 205.652C217.577 213.497 209.208 218.021 201.197 215.755L174.607 208.235C166.596 205.97 161.976 197.773 164.291 189.927C166.603 182.081 174.973 177.557 182.981 179.823L209.572 187.343C217.584 189.608 222.202 197.805 219.89 205.652Z" fill="#201E1D"/>
<path d="M172.53 203.479L121.283 188.985L127.425 168.149L178.671 182.643C178.671 182.643 171.729 186.531 170.841 192.336C169.951 198.14 172.53 203.479 172.53 203.479Z" fill="#FCD892"/>
<path d="M181.964 203.669L179.062 202.847L183.982 186.156L186.884 186.977L181.964 203.669Z" fill="#FAFBFB"/>
<path d="M188.009 205.378L185.108 204.558L190.028 187.865L192.929 188.685L188.009 205.378Z" fill="#FAFBFB"/>
<path d="M194.051 207.086L191.151 206.267L196.071 189.574L198.972 190.394L194.051 207.086Z" fill="#FAFBFB"/>
<path d="M200.292 208.695L197.391 207.875L202.311 191.184L205.213 192.003L200.292 208.695Z" fill="#FAFBFB"/>
<path d="M159.313 169.548L148.489 204.018L45.1648 172.893C36.4686 170.274 31.8433 160.436 34.8308 150.92L34.8335 150.913C37.8212 141.396 47.291 135.805 55.9881 138.424L159.313 169.548Z" fill="#605C57"/>
<path d="M34.5186 205.652C36.8315 213.497 45.1994 218.021 53.2104 215.755L79.8012 208.236C87.8122 205.97 92.4306 197.773 90.1177 189.927C87.8032 182.081 79.4353 177.557 71.4258 179.823L44.8351 187.343C36.8241 189.608 32.2056 197.805 34.5186 205.652Z" fill="#201E1D"/>
<path d="M81.8776 203.478L133.126 188.985L126.985 168.15L75.7357 182.643C75.7357 182.643 82.6775 186.531 83.5682 192.336C84.457 198.14 81.8776 203.478 81.8776 203.478Z" fill="#FCD892"/>
<path d="M72.4436 203.669L75.3435 202.847L70.4231 186.156L67.5232 186.977L72.4436 203.669Z" fill="#FAFBFB"/>
<path d="M66.4001 205.378L69.3015 204.558L64.3796 187.865L61.4783 188.685L66.4001 205.378Z" fill="#FAFBFB"/>
<path d="M60.3568 207.086L63.2581 206.266L58.3362 189.574L55.4363 190.394L60.3568 207.086Z" fill="#FAFBFB"/>
<path d="M54.1147 208.695L57.0159 207.875L52.0942 191.183L49.1943 192.003L54.1147 208.695Z" fill="#FAFBFB"/>
<path d="M95.0946 169.548L105.918 204.018L209.244 172.893C217.938 170.274 222.565 160.436 219.577 150.92L219.574 150.913C216.586 141.396 207.115 135.805 198.421 138.424L95.0946 169.548Z" fill="#75716A"/>
<path d="M198.218 127.566C198.218 104.722 167.771 77.8487 160.389 74.371C153.009 70.8946 149.622 68.4506 126.99 68.4506C104.36 68.4506 99.5697 71.8375 92.9396 75.4173C86.3074 78.9968 56.189 107.483 56.189 127.566C56.189 147.651 94.9255 164.116 126.915 164.116C158.904 164.116 198.218 150.412 198.218 127.566Z" fill="#13EBA2"/>
<path d="M92.4981 128.641C92.1085 128.641 91.7129 128.573 91.3293 128.426L70.8869 120.677C69.233 120.05 68.4159 118.24 69.0616 116.633C69.5574 115.399 70.7716 114.644 72.0572 114.644C72.4468 114.644 72.8424 114.714 73.2259 114.86L93.6684 122.609C95.3223 123.236 96.1394 125.047 95.4936 126.654C94.9964 127.887 93.7836 128.641 92.4981 128.641Z" fill="#05AC72"/>
<path d="M161.912 128.642C160.626 128.642 159.413 127.887 158.914 126.654C158.269 125.048 159.086 123.236 160.742 122.609L181.18 114.861C181.567 114.715 181.962 114.645 182.35 114.645C183.636 114.645 184.849 115.4 185.348 116.633C185.993 118.241 185.176 120.051 183.52 120.678L163.08 128.426C162.695 128.573 162.3 128.642 161.912 128.642Z" fill="#05AC72"/>
<path fill-rule="evenodd" clip-rule="evenodd" d="M172.338 104.61C174.233 104.611 175.741 105.296 176.858 106.665C177.971 108.018 178.369 109.638 178.048 111.526L169.782 159.632C169.556 160.931 168.819 162.03 167.576 162.93C166.354 163.827 164.976 164.278 163.442 164.286H90.9615C89.428 164.278 88.0461 163.827 86.8156 162.93C85.5791 162.03 84.8518 160.931 84.6336 159.632L76.368 111.526C76.0367 109.638 76.4226 108.018 77.5237 106.665C78.6531 105.296 80.1704 104.611 82.0777 104.61H172.338Z" fill="#EAE8E7"/>
<path fill-rule="evenodd" clip-rule="evenodd" d="M122.756 128.894C123.965 127.75 125.45 127.179 127.212 127.179C128.964 127.179 130.449 127.75 131.665 128.894C132.865 130.024 133.448 131.386 133.413 132.979C133.378 134.527 132.757 135.841 131.548 136.922C130.33 137.988 128.884 138.526 127.212 138.533C125.528 138.526 124.087 137.988 122.888 136.922C121.662 135.841 121.03 134.527 120.995 132.979C120.96 131.386 121.548 130.024 122.756 128.894Z" fill="white"/>
<path d="M137.976 82.2843C137.976 87.9065 132.723 92.4673 126.243 92.4673C119.764 92.4673 114.51 87.9065 114.51 82.2843V71.2071C114.51 65.5848 119.764 61.0248 126.243 61.0248C132.723 61.0248 137.976 65.5848 137.976 71.2071V82.2843Z" fill="#FCD892"/>
<path d="M126.413 83.7239C121.382 83.7239 116.983 81.7934 114.51 78.9023V72.2641C114.51 66.64 119.764 62.0817 126.243 62.0817C132.723 62.0817 137.976 66.64 137.976 72.2641V79.2919C135.45 81.9678 131.215 83.7239 126.413 83.7239Z" fill="#E6B37A"/>
<path d="M107.304 59.4768C107.304 59.4768 105.166 58.948 99.6279 50.4544C97.7973 44.0205 95.3004 30.2751 99.6279 26.1193C94.6075 12.7591 105.532 6.54551 108.455 5.34035C106.521 8.81596 107 14.7881 107 14.7881C107 14.7881 117.579 -5.23022 143.8 1.31483C136.663 4.98587 136.523 10.3679 136.523 10.3679C136.523 10.3679 155.826 7.13564 160.192 21.2757C155.246 20.2966 152.159 20.0801 150.17 21.4079C155.528 24.0673 157.43 36.4772 152.585 47.8007C147.738 59.1243 144.537 59.4768 144.537 59.4768L142.937 35.3678C142.937 35.3678 137.409 38.3376 129.781 38.3376C122.151 38.3376 107.861 34.4424 107.861 34.4424L107.304 59.4768Z" fill="#292827"/>
<path d="M150.913 44.3936C149.58 30.2677 139.042 19.2681 126.242 19.2681C113.442 19.2681 102.906 30.2677 101.572 44.3936C99.683 43.9005 93.1107 42.6202 94.3768 49.0258C95.7552 55.9893 100.121 59.7731 103.502 59.4597C107.337 70.6675 116.076 80.0789 126.242 80.0789C136.411 80.0789 145.15 70.6675 148.983 59.4597C152.366 59.7731 156.731 55.9893 158.11 49.0258C159.376 42.6202 152.804 43.9005 150.913 44.3936Z" fill="#FCD892"/>
<path d="M126.243 19.2661V50.337L132.355 56.2733L126.243 62.2078V80.0781C139.946 80.0781 151.058 62.9814 151.058 47.4283C151.058 31.8752 139.946 19.2661 126.243 19.2661Z" fill="#F1C080"/>
<path d="M149.382 35.1413C143.502 25.3767 133.757 29.9847 130.277 32.7927C126.8 35.5969 133.032 39.5949 138.325 40.508C122.683 45.7612 102.922 35.0371 102.922 28.2888C102.922 21.5405 113.981 16.0715 127.622 16.0715C141.265 16.0715 151.029 34.3417 149.382 35.1413Z" fill="#292827"/>
<path d="M118.182 49.4422C118.182 51.2122 116.704 52.6458 114.879 52.6458C113.058 52.6458 111.579 51.2122 111.579 49.4422C111.579 47.6722 113.058 46.2369 114.879 46.2369C116.704 46.2369 118.182 47.6722 118.182 49.4422Z" fill="#292827"/>
<path d="M142.174 49.4433C142.174 51.2122 140.696 52.6472 138.874 52.6472C137.051 52.6472 135.574 51.2122 135.574 49.4433C135.574 47.6726 137.051 46.2376 138.874 46.2376C140.696 46.2376 142.174 47.6726 142.174 49.4433Z" fill="#292827"/>
<path d="M126.244 71.5117C130.608 71.5117 134.337 69.0319 135.882 65.5187H116.606C118.151 69.0319 121.88 71.5117 126.244 71.5117Z" fill="#F6F7F8"/>
</svg>
