<svg width="482" height="330" viewBox="0 0 482 330" fill="none" xmlns="http://www.w3.org/2000/svg">
<circle cx="119" cy="119" r="119" fill="#C8ECE0"/>
<circle cx="212.5" cy="244.5" r="85.5" fill="#C8ECE0"/>
<path d="M309.396 133.737H410.016V120.71L309.396 120.71V133.737Z" fill="#056644"/>
<path d="M382.469 133.737H384.673V120.71H382.469V133.737Z" fill="#05AC72"/>
<path d="M376.612 133.737H378.815V120.71H376.612V133.737Z" fill="#05AC72"/>
<path d="M340.8 133.737H343.004V120.71H340.8V133.737Z" fill="#05AC72"/>
<path d="M370.551 133.737H372.755V120.71H370.551V133.737Z" fill="#05AC72"/>
<path d="M413.38 70.7063H292.607V97.7527H413.38C416.938 97.745 420.348 96.3178 422.864 93.7833C425.381 91.2489 426.797 87.8137 426.805 84.2295C426.805 80.6429 425.391 77.2033 422.873 74.6672C420.355 72.1311 416.94 70.7063 413.38 70.7063V70.7063Z" fill="#056644"/>
<path d="M292.607 93.6933H413.554C416.045 93.6933 418.435 92.6962 420.197 90.9215C421.959 89.1468 422.949 86.7398 422.949 84.2299C422.949 81.7201 421.959 79.3131 420.197 77.5383C418.435 75.7636 416.045 74.7666 413.554 74.7666H292.607V93.6933Z" fill="#F8F8F8"/>
<g style="mix-blend-mode:multiply">
<g style="mix-blend-mode:multiply">
<path d="M422.688 86.3618H292.607V89.7791H421.122C421.879 88.7649 422.413 87.6 422.688 86.3618Z" fill="#EAEAEA"/>
</g>
</g>
<path d="M303.365 149.568H423.847V133.737H303.365C302.336 133.729 301.315 133.927 300.362 134.318C299.409 134.71 298.542 135.287 297.812 136.018C297.081 136.748 296.502 137.617 296.106 138.574C295.71 139.531 295.507 140.557 295.507 141.594C295.491 142.64 295.683 143.68 296.072 144.65C296.461 145.621 297.038 146.503 297.77 147.246C298.502 147.989 299.374 148.577 300.335 148.976C301.296 149.374 302.326 149.576 303.365 149.568Z" fill="#056644"/>
<path d="M423.848 136.103H303.249C301.803 136.103 300.417 136.682 299.395 137.711C298.372 138.741 297.798 140.138 297.798 141.594C297.798 143.05 298.372 144.447 299.395 145.477C300.417 146.507 301.803 147.085 303.249 147.085H423.848V136.103Z" fill="#F8F8F8"/>
<g style="mix-blend-mode:multiply">
<g style="mix-blend-mode:multiply">
<path d="M297.943 140.367H423.848V138.381H298.842C298.421 138.981 298.116 139.654 297.943 140.367Z" fill="#EAEAEA"/>
</g>
</g>
<path d="M311.513 120.74H419.353V97.6362H311.513C308.487 97.6741 305.595 98.9018 303.455 101.057C301.315 103.213 300.097 106.125 300.059 109.173C300.089 112.226 301.305 115.146 303.445 117.308C305.586 119.47 308.482 120.702 311.513 120.74Z" fill="#05AC72"/>
<path d="M419.353 101.083H311.369C309.238 101.083 307.195 101.935 305.689 103.452C304.183 104.969 303.336 107.027 303.336 109.173C303.336 111.319 304.183 113.377 305.689 114.894C307.195 116.411 309.238 117.264 311.369 117.264H419.353V101.083Z" fill="#F8F8F8"/>
<g style="mix-blend-mode:multiply">
<g style="mix-blend-mode:multiply">
<path d="M303.539 107.362H419.353V104.441H304.873C304.244 105.319 303.791 106.311 303.539 107.362Z" fill="#EAEAEA"/>
</g>
</g>
<path d="M180.191 249.299V23L134.987 23V249.299H180.191Z" fill="#056644"/>
<path d="M134.947 88.577V93.8984H180.15V88.577H134.947Z" fill="#05AC72"/>
<path d="M180.151 49.4868V40.8845H134.947V49.4868H180.151Z" fill="#05AC72"/>
<path d="M180.151 72.4133V63.811H134.947V72.4133H180.151Z" fill="#05AC72"/>
<path d="M98.8962 249.299L98.8962 129.988H53.6927L53.6927 249.299H98.8962Z" fill="#056644"/>
<path d="M53.6929 164.557V167.357H98.8964V164.557H53.6929Z" fill="#05AC72"/>
<path d="M98.8568 143.911V139.39H53.6533V143.911H98.8568Z" fill="#05AC72"/>
<path d="M98.8568 155.994V151.473H53.6533V155.994H98.8568Z" fill="#05AC72"/>
<path d="M212.764 249.299V70.6123H180.15V249.299H212.764Z" fill="#056644"/>
<path d="M212.764 103.981V97.1792H180.15V103.981H212.764Z" fill="#05AC72"/>
<path d="M212.804 122.066V115.264H180.191V122.066H212.804Z" fill="#05AC72"/>
<path d="M209.047 194.124V131.588H183.868V194.124H209.047Z" fill="#05AC72"/>
<path d="M212.764 216.05V209.248H180.15V216.05H212.764Z" fill="#05AC72"/>
<path d="M212.764 234.175V227.373H180.15V234.175H212.764Z" fill="#05AC72"/>
<path d="M52.6135 249.299L52.6135 70.6123H19.9999L19.9999 249.299H52.6135Z" fill="#056644"/>
<path d="M52.6135 103.981V97.1792H19.9999V103.981H52.6135Z" fill="#05AC72"/>
<path d="M52.6135 122.066V115.264H19.9999V122.066H52.6135Z" fill="#05AC72"/>
<path d="M48.8966 194.124L48.8966 131.588H23.7169L23.7169 194.124H48.8966Z" fill="#05AC72"/>
<path d="M52.6135 216.09V209.289H19.9999V216.09H52.6135Z" fill="#05AC72"/>
<path d="M52.6135 234.175V227.373H19.9999V234.175H52.6135Z" fill="#05AC72"/>
<path d="M245.378 249.298V40.8845H212.765V249.298H245.378Z" fill="#056644"/>
<path d="M245.418 79.8146V71.8926H212.804V79.8146H245.418Z" fill="#05AC72"/>
<path d="M245.378 60.3693V52.4473H212.765V60.3693H245.378Z" fill="#05AC72"/>
<path d="M241.7 184.882V111.983H216.521V184.882H241.7Z" fill="#05AC72"/>
<path d="M245.418 210.569V202.647H212.804V210.569H245.418Z" fill="#05AC72"/>
<path d="M245.418 231.654V223.732H212.804V231.654H245.418Z" fill="#05AC72"/>
<path d="M293.739 249.299V97.1792H269.918V249.299H293.739Z" fill="#056644"/>
<path d="M293.698 125.587V119.825H269.878V125.587H293.698Z" fill="#05AC72"/>
<path d="M293.698 111.383V105.621H269.878V111.383H293.698Z" fill="#05AC72"/>
<path d="M291.021 202.287V149.073H272.635V202.287H291.021Z" fill="#05AC72"/>
<path d="M293.698 220.971V215.21H269.878V220.971H293.698Z" fill="#05AC72"/>
<path d="M293.698 236.375V230.614H269.878V236.375H293.698Z" fill="#05AC72"/>
<path d="M269.918 249.299V58.4092H245.418V249.299H269.918Z" fill="#056644"/>
<path d="M269.878 110.663V106.502H245.378V110.663H269.878Z" fill="#05AC72"/>
<path d="M269.918 121.786V117.625H245.418V121.786H269.918Z" fill="#05AC72"/>
<path d="M269.918 189.723V185.562H245.418V189.723H269.918Z" fill="#05AC72"/>
<path d="M269.918 133.309V129.147H245.418V133.309H269.918Z" fill="#05AC72"/>
<path d="M134.947 249.299V56.4087H98.896L98.896 249.299H134.947Z" fill="#056644"/>
<path d="M134.947 109.182V104.981H98.896V109.182H134.947Z" fill="#05AC72"/>
<path d="M134.947 120.425V116.224H98.896V120.425H134.947Z" fill="#05AC72"/>
<path d="M134.947 189.083V184.882H98.896V189.083H134.947Z" fill="#05AC72"/>
<path d="M134.947 132.068V127.867H98.896V132.068H134.947Z" fill="#05AC72"/>
<path d="M446.031 267.108C445.332 266.137 442.252 265.355 439.108 265.355H245.122C241.972 265.355 238.877 266.137 238.199 267.108L202.719 315.617C201.671 317.119 203.9 324 207.714 324H476.516C480.331 324 482.559 317.147 481.504 315.617L446.031 267.108Z" fill="#F1F2F2"/>
<path d="M446.031 267.108C445.332 266.137 442.252 265.355 439.108 265.355H245.122C241.972 265.355 238.877 266.137 238.199 267.108L202.719 315.617C201.671 317.119 203.9 318.355 207.714 318.355H476.516C480.331 318.355 482.559 317.119 481.504 315.617L446.031 267.108Z" fill="#D2D3D4"/>
<path d="M357.949 320.996H326.282C325.386 320.996 324.526 320.64 323.892 320.006C323.258 319.372 322.901 318.512 322.901 317.615H361.323C361.323 318.511 360.967 319.37 360.335 320.004C359.702 320.637 358.844 320.994 357.949 320.996Z" fill="#D2D3D4"/>
<path d="M245.122 265.334C244.005 265.337 242.891 265.432 241.79 265.62C242.635 266.144 244.375 266.501 246.47 266.501H437.753C439.848 266.501 441.595 266.144 442.44 265.62C441.339 265.433 440.225 265.337 439.108 265.334H245.122Z" fill="#AAACAD"/>
<path d="M413.052 265.334H271.242L270.606 266.612C270.446 266.941 271.179 267.199 272.241 267.199H412.032C413.094 267.199 413.827 266.941 413.673 266.612L413.052 265.334Z" fill="#3F3C3A"/>
<path d="M374.351 314.395L370.432 304.419C370.363 304.246 370.243 304.098 370.089 303.994C369.934 303.889 369.752 303.833 369.566 303.833H314.617C314.43 303.834 314.249 303.891 314.096 303.997C313.942 304.103 313.824 304.253 313.757 304.426L309.88 314.395C309.846 314.479 309.832 314.571 309.842 314.661C309.851 314.752 309.883 314.839 309.934 314.914C309.985 314.99 310.054 315.051 310.135 315.094C310.216 315.136 310.306 315.157 310.397 315.156H373.827C373.918 315.157 374.008 315.135 374.089 315.093C374.17 315.051 374.239 314.989 374.291 314.914C374.342 314.839 374.375 314.753 374.385 314.662C374.396 314.572 374.384 314.48 374.351 314.395Z" fill="#EDECEB"/>
<path d="M370.564 304.762L370.431 304.419C370.362 304.246 370.242 304.098 370.088 303.994C369.934 303.889 369.752 303.833 369.565 303.833H314.616C314.43 303.834 314.248 303.891 314.095 303.997C313.942 304.103 313.824 304.253 313.757 304.426L313.624 304.762H370.564Z" fill="#CFCFCE"/>
<g opacity="0.1">
<path opacity="0.1" d="M454.175 300.122H230.053C229.857 300.135 229.66 300.096 229.484 300.007C229.308 299.919 229.159 299.785 229.052 299.62C228.945 299.455 228.885 299.264 228.876 299.067C228.868 298.87 228.913 298.675 229.005 298.501L245.275 272.179C245.628 271.629 246.115 271.179 246.691 270.871C247.267 270.563 247.912 270.407 248.565 270.419H435.656C436.306 270.411 436.947 270.568 437.519 270.876C438.091 271.184 438.575 271.633 438.926 272.179L455.195 298.501C455.289 298.673 455.335 298.866 455.329 299.061C455.323 299.256 455.265 299.446 455.161 299.611C455.057 299.776 454.911 299.91 454.738 300C454.564 300.09 454.37 300.132 454.175 300.122Z" fill="#242424"/>
<path opacity="0.1" d="M454.177 300.214H230.054C229.833 300.216 229.614 300.161 229.421 300.053C229.227 299.945 229.065 299.789 228.951 299.599C228.843 299.429 228.785 299.231 228.785 299.029C228.785 298.828 228.843 298.63 228.951 298.46L245.213 272.138C245.57 271.574 246.066 271.112 246.653 270.795C247.241 270.478 247.899 270.318 248.567 270.329H435.658C436.325 270.317 436.984 270.477 437.571 270.794C438.159 271.111 438.654 271.574 439.011 272.138L455.28 298.46C455.387 298.631 455.443 298.828 455.443 299.029C455.443 299.231 455.387 299.428 455.28 299.599C455.166 299.789 455.004 299.945 454.81 300.053C454.617 300.161 454.398 300.216 454.177 300.214ZM248.567 270.517C247.933 270.505 247.308 270.656 246.75 270.956C246.192 271.256 245.72 271.694 245.381 272.229L229.111 298.544C229.024 298.688 228.977 298.854 228.977 299.022C228.977 299.191 229.024 299.357 229.111 299.501C229.208 299.662 229.346 299.794 229.51 299.885C229.674 299.976 229.86 300.022 230.047 300.018H454.177C454.363 300.02 454.547 299.974 454.71 299.883C454.873 299.793 455.009 299.661 455.106 299.501C455.196 299.358 455.245 299.192 455.245 299.022C455.245 298.853 455.196 298.687 455.106 298.544L438.836 272.222C438.497 271.687 438.026 271.248 437.468 270.948C436.91 270.648 436.284 270.497 435.651 270.51L248.567 270.517Z" fill="#0D0D0D"/>
</g>
<path d="M257.493 273.982H248.035C247.863 273.985 247.693 273.942 247.542 273.858C247.392 273.774 247.266 273.651 247.178 273.503C247.09 273.355 247.043 273.186 247.042 273.014C247.04 272.842 247.084 272.672 247.169 272.522L247.211 272.452C247.304 272.301 247.435 272.177 247.59 272.092C247.745 272.006 247.92 271.962 248.098 271.963H257.528C257.695 271.96 257.86 271.999 258.008 272.076C258.156 272.154 258.281 272.268 258.373 272.408C258.464 272.548 258.519 272.709 258.531 272.875C258.544 273.042 258.513 273.209 258.444 273.36V273.423C258.353 273.596 258.216 273.74 258.049 273.839C257.881 273.937 257.688 273.987 257.493 273.982Z" fill="#242424"/>
<path d="M254.853 278.229H245.464C245.29 278.236 245.118 278.196 244.964 278.113C244.811 278.031 244.682 277.909 244.592 277.76C244.501 277.611 244.452 277.441 244.45 277.267C244.447 277.093 244.491 276.921 244.577 276.769L245.583 275.107C245.677 274.957 245.808 274.833 245.963 274.747C246.118 274.662 246.293 274.617 246.47 274.618H255.761C255.928 274.614 256.093 274.653 256.241 274.731C256.389 274.809 256.514 274.923 256.606 275.063C256.697 275.203 256.752 275.363 256.764 275.53C256.776 275.696 256.746 275.863 256.676 276.015L255.789 277.678C255.7 277.847 255.565 277.989 255.399 278.086C255.234 278.184 255.045 278.233 254.853 278.229Z" fill="#242424"/>
<path d="M259.555 282.659H242.789C242.614 282.667 242.44 282.629 242.286 282.547C242.131 282.465 242.001 282.343 241.91 282.193C241.819 282.043 241.771 281.872 241.769 281.697C241.768 281.522 241.813 281.35 241.902 281.199L243.027 279.333C243.12 279.183 243.251 279.058 243.406 278.973C243.562 278.887 243.736 278.843 243.914 278.844H260.442C260.61 278.838 260.777 278.876 260.927 278.952C261.076 279.029 261.204 279.143 261.297 279.283C261.39 279.423 261.446 279.585 261.459 279.753C261.472 279.92 261.442 280.089 261.371 280.242L260.456 282.1C260.371 282.266 260.242 282.406 260.083 282.504C259.924 282.603 259.742 282.656 259.555 282.659Z" fill="#242424"/>
<path d="M260.854 287.367H239.953C239.787 287.37 239.623 287.329 239.477 287.251C239.331 287.172 239.208 287.057 239.119 286.917C239.03 286.776 238.978 286.616 238.969 286.45C238.96 286.284 238.993 286.119 239.066 285.97L240.323 283.874C240.417 283.723 240.547 283.599 240.703 283.514C240.858 283.428 241.033 283.384 241.21 283.385H261.839C262.008 283.378 262.176 283.414 262.326 283.491C262.477 283.567 262.605 283.681 262.699 283.821C262.793 283.961 262.85 284.123 262.863 284.292C262.876 284.46 262.846 284.629 262.775 284.782L261.797 286.878C261.7 287.038 261.561 287.169 261.394 287.255C261.228 287.341 261.041 287.38 260.854 287.367Z" fill="#242424"/>
<path d="M251.074 292.327H236.97C236.795 292.334 236.621 292.294 236.467 292.212C236.312 292.129 236.183 292.006 236.092 291.856C236.002 291.706 235.953 291.534 235.951 291.359C235.95 291.184 235.995 291.012 236.083 290.86L237.48 288.555C237.573 288.403 237.703 288.279 237.859 288.193C238.014 288.107 238.189 288.064 238.367 288.066H252.255C252.423 288.059 252.59 288.096 252.74 288.173C252.89 288.25 253.017 288.364 253.11 288.504C253.202 288.645 253.257 288.807 253.269 288.975C253.281 289.143 253.249 289.311 253.177 289.463L251.996 291.775C251.908 291.943 251.776 292.084 251.613 292.181C251.45 292.279 251.264 292.329 251.074 292.327Z" fill="#242424"/>
<path d="M244.165 298.377H233.316C233.142 298.383 232.969 298.343 232.816 298.261C232.662 298.178 232.534 298.056 232.443 297.907C232.353 297.759 232.304 297.588 232.301 297.414C232.299 297.24 232.343 297.068 232.429 296.917L234.469 293.543C234.563 293.392 234.693 293.269 234.849 293.183C235.004 293.097 235.178 293.053 235.356 293.054H245.953C246.121 293.048 246.287 293.086 246.436 293.163C246.585 293.241 246.711 293.355 246.803 293.495C246.895 293.636 246.949 293.797 246.96 293.965C246.972 294.132 246.94 294.299 246.868 294.451L245.073 297.846C244.985 298.009 244.853 298.145 244.693 298.239C244.533 298.332 244.35 298.38 244.165 298.377Z" fill="#242424"/>
<path d="M259.506 298.377H248.566C248.398 298.383 248.231 298.346 248.081 298.27C247.931 298.193 247.804 298.079 247.711 297.938C247.619 297.798 247.564 297.635 247.552 297.468C247.54 297.3 247.572 297.131 247.644 296.979L249.405 293.605C249.492 293.438 249.623 293.299 249.785 293.203C249.946 293.107 250.132 293.057 250.32 293.06H261.015C261.179 293.054 261.343 293.088 261.491 293.161C261.638 293.235 261.765 293.344 261.859 293.479C261.953 293.614 262.011 293.771 262.029 293.935C262.046 294.098 262.022 294.264 261.958 294.416L260.442 297.783C260.36 297.961 260.228 298.113 260.062 298.218C259.896 298.323 259.703 298.378 259.506 298.377Z" fill="#242424"/>
<path d="M274.923 298.377H263.935C263.77 298.385 263.607 298.351 263.459 298.278C263.312 298.206 263.185 298.098 263.09 297.963C262.995 297.829 262.936 297.673 262.918 297.51C262.899 297.346 262.922 297.181 262.985 297.029L264.466 293.655C264.547 293.474 264.68 293.32 264.847 293.213C265.015 293.107 265.21 293.051 265.409 293.054H276.146C276.304 293.048 276.462 293.081 276.605 293.149C276.749 293.218 276.873 293.32 276.969 293.447C277.064 293.573 277.127 293.722 277.153 293.878C277.179 294.035 277.166 294.195 277.117 294.346L275.887 297.72C275.813 297.915 275.681 298.083 275.508 298.2C275.336 298.317 275.132 298.379 274.923 298.377Z" fill="#242424"/>
<path d="M389.677 298.377H374.77C374.532 298.381 374.3 298.302 374.114 298.152C373.929 298.003 373.803 297.793 373.757 297.559L373.17 294.185C373.151 294.042 373.163 293.897 373.205 293.759C373.247 293.621 373.319 293.494 373.415 293.386C373.512 293.278 373.63 293.193 373.763 293.136C373.895 293.078 374.038 293.05 374.183 293.053H388.769C388.992 293.049 389.21 293.119 389.389 293.252C389.569 293.384 389.699 293.573 389.761 293.787L390.662 297.161C390.697 297.308 390.699 297.461 390.665 297.609C390.632 297.757 390.565 297.895 390.47 298.012C390.374 298.13 390.253 298.224 390.116 298.287C389.978 298.35 389.828 298.381 389.677 298.377Z" fill="#242424"/>
<path d="M405.046 298.377H393.959C393.741 298.383 393.526 298.318 393.347 298.192C393.168 298.066 393.035 297.886 392.967 297.678L392.024 294.304C391.989 294.156 391.988 294.002 392.022 293.853C392.055 293.705 392.123 293.566 392.219 293.448C392.315 293.33 392.436 293.235 392.575 293.172C392.713 293.108 392.864 293.077 393.016 293.081H403.823C404.038 293.082 404.247 293.149 404.421 293.275C404.595 293.4 404.726 293.577 404.794 293.78L405.982 297.161C406.018 297.304 406.021 297.454 405.99 297.598C405.96 297.743 405.898 297.878 405.808 297.995C405.718 298.112 405.602 298.207 405.47 298.273C405.338 298.339 405.193 298.375 405.046 298.377Z" fill="#242424"/>
<path d="M435.658 298.377H424.725C424.527 298.38 424.333 298.326 424.165 298.22C423.998 298.115 423.865 297.963 423.782 297.783L422.266 294.409C422.202 294.257 422.178 294.092 422.195 293.928C422.213 293.764 422.271 293.608 422.365 293.473C422.459 293.337 422.586 293.228 422.733 293.155C422.881 293.082 423.045 293.047 423.209 293.054H433.904C434.092 293.053 434.276 293.104 434.437 293.2C434.599 293.296 434.731 293.434 434.819 293.599L436.573 296.973C436.648 297.125 436.683 297.293 436.674 297.463C436.664 297.632 436.61 297.796 436.518 297.937C436.425 298.079 436.297 298.195 436.146 298.272C435.995 298.349 435.827 298.385 435.658 298.377Z" fill="#242424"/>
<path d="M420.345 298.397H409.363C409.154 298.399 408.949 298.337 408.775 298.22C408.602 298.103 408.468 297.936 408.392 297.741L408.113 296.972C408.063 296.821 408.051 296.661 408.076 296.504C408.102 296.348 408.165 296.199 408.261 296.073C408.356 295.946 408.481 295.844 408.624 295.775C408.767 295.707 408.925 295.674 409.084 295.68H420.009C420.209 295.677 420.405 295.732 420.574 295.839C420.743 295.945 420.877 296.099 420.959 296.281L421.295 297.049C421.357 297.201 421.38 297.366 421.362 297.53C421.343 297.693 421.284 297.849 421.189 297.984C421.095 298.118 420.968 298.226 420.82 298.299C420.672 298.371 420.509 298.405 420.345 298.397Z" fill="#242424"/>
<path d="M450.941 298.397H440.1C439.913 298.398 439.729 298.348 439.568 298.254C439.407 298.159 439.275 298.023 439.184 297.859L438.772 297.091C438.7 296.94 438.669 296.772 438.68 296.605C438.691 296.437 438.746 296.276 438.838 296.135C438.929 295.995 439.056 295.881 439.205 295.804C439.354 295.726 439.52 295.688 439.687 295.694H450.452C450.63 295.692 450.805 295.736 450.961 295.821C451.116 295.907 451.247 296.032 451.34 296.183L451.808 296.951C451.889 297.101 451.93 297.269 451.927 297.439C451.923 297.609 451.875 297.776 451.788 297.922C451.7 298.068 451.576 298.189 451.428 298.272C451.279 298.355 451.112 298.399 450.941 298.397Z" fill="#242424"/>
<path d="M294.099 298.377H279.205C279.048 298.382 278.891 298.349 278.748 298.281C278.606 298.213 278.482 298.112 278.386 297.986C278.291 297.86 278.228 297.713 278.201 297.557C278.175 297.401 278.186 297.242 278.234 297.091L279.422 293.717C279.491 293.514 279.621 293.337 279.795 293.212C279.969 293.087 280.178 293.019 280.393 293.019H294.972C295.123 293.014 295.273 293.043 295.411 293.106C295.549 293.168 295.67 293.261 295.766 293.378C295.862 293.495 295.93 293.632 295.964 293.78C295.999 293.927 295.998 294.08 295.964 294.227L295.091 297.601C295.036 297.823 294.909 298.02 294.729 298.16C294.549 298.301 294.327 298.377 294.099 298.377Z" fill="#242424"/>
<path d="M370.565 298.376H298.326C298.176 298.381 298.027 298.351 297.89 298.289C297.754 298.228 297.633 298.136 297.537 298.021C297.441 297.906 297.372 297.771 297.335 297.626C297.299 297.48 297.296 297.329 297.327 297.182L298.158 293.808C298.217 293.589 298.347 293.396 298.528 293.259C298.709 293.123 298.93 293.05 299.157 293.053H370.02C370.259 293.049 370.492 293.13 370.677 293.28C370.862 293.431 370.988 293.643 371.033 293.878L371.578 297.252C371.597 297.395 371.585 297.54 371.543 297.677C371.5 297.815 371.428 297.942 371.332 298.049C371.235 298.156 371.117 298.241 370.984 298.297C370.852 298.354 370.709 298.381 370.565 298.376Z" fill="#242424"/>
<path d="M268.538 278.229H259.045C258.877 278.237 258.709 278.2 258.559 278.124C258.409 278.047 258.282 277.932 258.189 277.791C258.097 277.65 258.043 277.488 258.033 277.32C258.022 277.152 258.056 276.984 258.13 276.832L259.045 275.163C259.132 274.996 259.263 274.857 259.425 274.76C259.587 274.664 259.772 274.615 259.96 274.618H269.321C269.482 274.618 269.64 274.658 269.782 274.734C269.924 274.81 270.045 274.92 270.134 275.054C270.223 275.188 270.278 275.342 270.293 275.503C270.309 275.663 270.284 275.824 270.222 275.973L269.475 277.643C269.391 277.819 269.258 277.969 269.092 278.073C268.926 278.177 268.734 278.231 268.538 278.229Z" fill="#242424"/>
<path d="M282.216 278.23H272.673C272.51 278.237 272.348 278.203 272.201 278.131C272.054 278.059 271.928 277.951 271.833 277.818C271.738 277.684 271.679 277.529 271.66 277.367C271.641 277.205 271.663 277.04 271.723 276.888L272.422 275.226C272.505 275.044 272.639 274.89 272.808 274.784C272.976 274.677 273.172 274.622 273.372 274.625H282.796C282.954 274.62 283.111 274.654 283.253 274.723C283.395 274.792 283.519 274.894 283.614 275.021C283.708 275.147 283.771 275.295 283.796 275.451C283.822 275.607 283.809 275.767 283.76 275.917L283.159 277.58C283.085 277.77 282.955 277.934 282.787 278.05C282.619 278.165 282.42 278.228 282.216 278.23Z" fill="#242424"/>
<path d="M295.699 278.229H286.1C285.943 278.236 285.786 278.204 285.643 278.137C285.501 278.07 285.376 277.969 285.281 277.844C285.186 277.718 285.122 277.571 285.096 277.416C285.069 277.26 285.081 277.101 285.129 276.951L285.716 275.281C285.79 275.084 285.922 274.914 286.096 274.795C286.27 274.677 286.477 274.615 286.687 274.618H296.167C296.319 274.613 296.471 274.644 296.61 274.708C296.749 274.772 296.871 274.867 296.966 274.986C297.062 275.106 297.128 275.245 297.161 275.395C297.193 275.544 297.19 275.699 297.152 275.847L296.691 277.51C296.625 277.72 296.492 277.904 296.314 278.034C296.135 278.163 295.919 278.232 295.699 278.229Z" fill="#242424"/>
<path d="M309.341 278.229H299.722C299.57 278.235 299.419 278.205 299.281 278.142C299.143 278.079 299.021 277.986 298.924 277.868C298.828 277.75 298.761 277.612 298.727 277.464C298.693 277.316 298.694 277.162 298.73 277.014L299.177 275.351C299.239 275.137 299.369 274.949 299.549 274.816C299.728 274.684 299.946 274.614 300.169 274.618H309.684C309.83 274.613 309.976 274.64 310.111 274.698C310.245 274.757 310.365 274.844 310.461 274.955C310.558 275.065 310.628 275.196 310.668 275.337C310.707 275.478 310.715 275.626 310.69 275.77L310.368 277.433C310.316 277.664 310.186 277.871 309.998 278.016C309.811 278.161 309.578 278.237 309.341 278.229Z" fill="#242424"/>
<path d="M322.964 278.229H313.296C313.151 278.234 313.006 278.207 312.873 278.149C312.74 278.092 312.621 278.006 312.524 277.897C312.428 277.788 312.357 277.659 312.317 277.52C312.276 277.381 312.267 277.234 312.29 277.091L312.597 275.428C312.643 275.196 312.769 274.988 312.953 274.84C313.137 274.692 313.367 274.613 313.603 274.618H323.146C323.285 274.613 323.425 274.638 323.554 274.692C323.684 274.745 323.801 274.825 323.897 274.927C323.993 275.028 324.067 275.149 324.113 275.281C324.16 275.413 324.177 275.554 324.165 275.693L323.984 277.363C323.95 277.607 323.827 277.831 323.639 277.99C323.451 278.15 323.211 278.235 322.964 278.229Z" fill="#242424"/>
<path d="M336.586 278.23H326.918C326.779 278.234 326.641 278.209 326.513 278.156C326.384 278.104 326.268 278.025 326.172 277.925C326.076 277.825 326.002 277.706 325.955 277.576C325.908 277.445 325.888 277.306 325.898 277.168L326.066 275.498C326.097 275.251 326.218 275.025 326.407 274.862C326.595 274.699 326.837 274.613 327.086 274.618H336.649C336.782 274.615 336.914 274.639 337.038 274.688C337.162 274.737 337.274 274.81 337.369 274.903C337.464 274.996 337.54 275.107 337.591 275.23C337.643 275.352 337.669 275.484 337.669 275.617L337.627 277.286C337.611 277.548 337.493 277.794 337.299 277.97C337.104 278.146 336.849 278.239 336.586 278.23Z" fill="#242424"/>
<path d="M350.243 278.23H340.561C340.429 278.233 340.297 278.211 340.174 278.163C340.05 278.115 339.937 278.044 339.842 277.952C339.746 277.86 339.67 277.751 339.617 277.629C339.564 277.508 339.536 277.377 339.534 277.245V275.582C339.544 275.319 339.656 275.071 339.847 274.891C340.037 274.71 340.292 274.612 340.554 274.618H350.125C350.38 274.612 350.629 274.704 350.819 274.876C351.008 275.047 351.125 275.285 351.145 275.54L351.242 277.203C351.245 277.336 351.222 277.468 351.173 277.592C351.124 277.716 351.051 277.83 350.958 277.925C350.865 278.021 350.754 278.097 350.631 278.149C350.509 278.201 350.377 278.229 350.243 278.23Z" fill="#242424"/>
<path d="M363.692 278.23H354.052C353.798 278.234 353.553 278.143 353.364 277.975C353.175 277.807 353.056 277.573 353.032 277.321L352.92 275.659C352.914 275.522 352.936 275.386 352.985 275.259C353.034 275.131 353.109 275.015 353.204 274.917C353.3 274.82 353.415 274.743 353.541 274.691C353.667 274.64 353.803 274.615 353.94 274.618H363.496C363.739 274.613 363.976 274.696 364.163 274.851C364.351 275.006 364.476 275.223 364.516 275.463L364.747 277.133C364.762 277.277 364.746 277.423 364.699 277.56C364.652 277.698 364.576 277.823 364.475 277.928C364.375 278.032 364.253 278.113 364.117 278.166C363.982 278.218 363.837 278.24 363.692 278.23Z" fill="#242424"/>
<path d="M377.32 278.229H367.665C367.426 278.232 367.193 278.15 367.008 277.998C366.822 277.846 366.697 277.633 366.652 277.398L366.401 275.735C366.383 275.593 366.395 275.449 366.438 275.312C366.481 275.175 366.553 275.049 366.65 274.943C366.746 274.837 366.864 274.753 366.996 274.697C367.128 274.64 367.271 274.613 367.414 274.618H376.949C377.18 274.614 377.405 274.689 377.588 274.83C377.77 274.97 377.9 275.169 377.955 275.393L378.325 277.056C378.354 277.202 378.349 277.352 378.311 277.496C378.273 277.64 378.204 277.773 378.107 277.886C378.01 277.999 377.889 278.088 377.752 278.148C377.616 278.207 377.468 278.235 377.32 278.229Z" fill="#242424"/>
<path d="M391.166 278.229H381.546C381.319 278.234 381.097 278.162 380.916 278.025C380.735 277.888 380.605 277.694 380.547 277.475L380.149 275.805C380.118 275.659 380.121 275.508 380.158 275.363C380.194 275.217 380.263 275.083 380.359 274.968C380.455 274.854 380.576 274.763 380.713 274.702C380.85 274.641 380.999 274.612 381.148 274.618H390.649C390.866 274.615 391.078 274.682 391.255 274.807C391.432 274.933 391.564 275.111 391.634 275.316L392.144 276.979C392.187 277.128 392.194 277.285 392.165 277.437C392.136 277.589 392.07 277.733 391.975 277.855C391.879 277.977 391.756 278.075 391.615 278.14C391.475 278.205 391.321 278.236 391.166 278.229Z" fill="#242424"/>
<path d="M404.592 278.23H395.022C394.805 278.233 394.594 278.167 394.418 278.041C394.242 277.915 394.111 277.737 394.044 277.531L393.506 275.861C393.464 275.712 393.458 275.554 393.489 275.402C393.519 275.249 393.585 275.106 393.681 274.984C393.776 274.861 393.9 274.763 394.04 274.697C394.181 274.631 394.335 274.599 394.491 274.604H403.942C404.148 274.601 404.349 274.659 404.52 274.773C404.691 274.887 404.823 275.049 404.899 275.24L405.556 276.902C405.613 277.054 405.631 277.218 405.609 277.379C405.587 277.54 405.525 277.693 405.43 277.824C405.334 277.956 405.208 278.061 405.062 278.132C404.916 278.203 404.754 278.236 404.592 278.23Z" fill="#242424"/>
<path d="M273.596 282.659H263.76C263.591 282.669 263.422 282.634 263.27 282.558C263.118 282.483 262.988 282.368 262.894 282.227C262.8 282.086 262.745 281.922 262.734 281.753C262.723 281.583 262.756 281.414 262.831 281.261L263.718 279.396C263.806 279.229 263.937 279.089 264.099 278.992C264.26 278.894 264.445 278.843 264.634 278.844H274.337C274.498 278.839 274.659 278.873 274.804 278.944C274.949 279.016 275.075 279.121 275.169 279.253C275.264 279.384 275.325 279.536 275.346 279.697C275.368 279.857 275.35 280.02 275.294 280.172L274.539 282.03C274.461 282.216 274.33 282.374 274.162 282.486C273.995 282.598 273.798 282.658 273.596 282.659Z" fill="#242424"/>
<path d="M287.644 282.659H277.745C277.585 282.664 277.425 282.629 277.28 282.558C277.136 282.488 277.011 282.382 276.917 282.252C276.822 282.122 276.761 281.97 276.739 281.811C276.716 281.652 276.733 281.489 276.788 281.338L277.487 279.48C277.565 279.291 277.698 279.129 277.868 279.016C278.039 278.903 278.239 278.843 278.444 278.844H288.224C288.38 278.839 288.535 278.871 288.676 278.937C288.818 279.004 288.941 279.103 289.037 279.226C289.132 279.35 289.197 279.494 289.226 279.647C289.254 279.801 289.246 279.959 289.202 280.109L288.608 281.967C288.54 282.168 288.41 282.343 288.237 282.467C288.064 282.591 287.857 282.658 287.644 282.659Z" fill="#242424"/>
<path d="M301.49 282.658H291.549C291.394 282.664 291.24 282.633 291.099 282.568C290.958 282.503 290.835 282.405 290.739 282.284C290.643 282.162 290.577 282.019 290.547 281.867C290.516 281.714 290.522 281.557 290.564 281.408L291.144 279.543C291.211 279.337 291.342 279.158 291.518 279.033C291.694 278.907 291.906 278.841 292.122 278.844H301.902C302.052 278.84 302.201 278.87 302.337 278.931C302.474 278.993 302.595 279.084 302.691 279.199C302.787 279.314 302.856 279.45 302.892 279.595C302.929 279.74 302.932 279.892 302.901 280.039L302.461 281.897C302.404 282.112 302.279 282.304 302.104 282.441C301.928 282.579 301.713 282.655 301.49 282.658Z" fill="#242424"/>
<path d="M315.516 282.658H305.541C305.392 282.663 305.244 282.635 305.108 282.574C304.972 282.514 304.851 282.424 304.755 282.31C304.659 282.197 304.59 282.063 304.553 281.918C304.516 281.774 304.512 281.624 304.542 281.478L304.961 279.62C305.015 279.396 305.143 279.198 305.324 279.057C305.506 278.916 305.73 278.841 305.96 278.844H315.803C315.946 278.84 316.088 278.867 316.22 278.923C316.352 278.979 316.47 279.063 316.567 279.17C316.663 279.276 316.735 279.402 316.778 279.538C316.821 279.675 316.834 279.82 316.816 279.962L316.529 281.82C316.489 282.058 316.365 282.274 316.179 282.428C315.993 282.582 315.758 282.663 315.516 282.658Z" fill="#242424"/>
<path d="M329.488 282.659H319.492C319.35 282.663 319.209 282.636 319.078 282.581C318.947 282.525 318.83 282.442 318.734 282.338C318.637 282.233 318.565 282.109 318.521 281.974C318.477 281.839 318.463 281.696 318.479 281.555L318.744 279.69C318.783 279.45 318.907 279.233 319.093 279.078C319.279 278.923 319.515 278.84 319.757 278.844H329.6C329.737 278.841 329.872 278.867 329.999 278.918C330.125 278.97 330.24 279.046 330.335 279.144C330.431 279.242 330.506 279.358 330.554 279.485C330.603 279.613 330.626 279.749 330.62 279.885L330.494 281.744C330.47 281.994 330.354 282.226 330.168 282.395C329.982 282.564 329.74 282.658 329.488 282.659Z" fill="#242424"/>
<path d="M343.495 282.659H333.492C333.356 282.663 333.22 282.639 333.094 282.588C332.968 282.538 332.853 282.463 332.757 282.367C332.661 282.27 332.585 282.156 332.535 282.029C332.485 281.903 332.461 281.768 332.465 281.632L332.577 279.767C332.596 279.512 332.713 279.274 332.903 279.102C333.092 278.931 333.341 278.838 333.596 278.845H343.467C343.731 278.839 343.986 278.937 344.178 279.117C344.37 279.297 344.483 279.545 344.494 279.809V281.667C344.49 281.93 344.384 282.181 344.197 282.367C344.01 282.552 343.758 282.657 343.495 282.659Z" fill="#242424"/>
<path d="M357.543 282.659H347.505C347.245 282.663 346.994 282.566 346.804 282.389C346.614 282.212 346.499 281.968 346.485 281.709L346.436 279.843C346.436 279.71 346.463 279.579 346.514 279.456C346.566 279.334 346.641 279.223 346.736 279.13C346.831 279.036 346.944 278.963 347.067 278.914C347.191 278.865 347.323 278.842 347.456 278.844H357.327C357.577 278.839 357.819 278.927 358.008 279.091C358.196 279.255 358.317 279.484 358.347 279.732L358.528 281.59C358.539 281.726 358.521 281.863 358.477 281.991C358.432 282.12 358.361 282.239 358.269 282.339C358.176 282.439 358.064 282.519 357.939 282.574C357.815 282.629 357.68 282.658 357.543 282.659Z" fill="#242424"/>
<path d="M371.326 282.659H361.337C361.092 282.658 360.856 282.568 360.672 282.406C360.489 282.244 360.37 282.021 360.338 281.779L360.135 279.913C360.124 279.774 360.143 279.634 360.19 279.503C360.236 279.371 360.31 279.25 360.406 279.149C360.502 279.048 360.619 278.968 360.748 278.914C360.876 278.86 361.015 278.834 361.155 278.838H371.005C371.242 278.833 371.473 278.911 371.658 279.059C371.843 279.208 371.97 279.416 372.018 279.648L372.353 281.506C372.379 281.652 372.371 281.803 372.33 281.945C372.289 282.088 372.217 282.22 372.118 282.331C372.019 282.442 371.897 282.529 371.76 282.585C371.623 282.642 371.474 282.667 371.326 282.659Z" fill="#242424"/>
<path d="M385.325 282.659H375.364C375.13 282.662 374.902 282.585 374.719 282.44C374.535 282.295 374.408 282.091 374.358 281.862L373.995 279.997C373.971 279.852 373.979 279.704 374.02 279.563C374.06 279.422 374.131 279.291 374.228 279.181C374.325 279.071 374.445 278.983 374.58 278.925C374.715 278.867 374.861 278.839 375.008 278.844H384.829C385.053 278.842 385.271 278.913 385.451 279.047C385.63 279.181 385.76 279.37 385.821 279.585L386.317 281.443C386.352 281.591 386.352 281.744 386.317 281.891C386.283 282.039 386.215 282.177 386.12 282.294C386.024 282.411 385.902 282.505 385.765 282.568C385.627 282.632 385.477 282.662 385.325 282.659Z" fill="#242424"/>
<path d="M399.54 282.659H389.621C389.402 282.664 389.188 282.599 389.01 282.473C388.831 282.347 388.698 282.167 388.629 281.96L388.112 280.102C388.074 279.953 388.071 279.798 388.103 279.648C388.136 279.498 388.203 279.357 388.299 279.238C388.396 279.119 388.518 279.023 388.658 278.96C388.798 278.896 388.95 278.866 389.104 278.872H398.884C399.098 278.873 399.307 278.94 399.481 279.066C399.656 279.191 399.786 279.368 399.855 279.571L400.511 281.429C400.549 281.576 400.552 281.73 400.521 281.878C400.49 282.026 400.424 282.165 400.33 282.284C400.236 282.403 400.116 282.499 399.979 282.564C399.842 282.629 399.692 282.661 399.54 282.659Z" fill="#242424"/>
<path d="M414.128 280.94C414.234 281.131 414.284 281.348 414.273 281.567C414.261 281.785 414.189 281.996 414.064 282.175C413.939 282.354 413.765 282.494 413.564 282.58C413.363 282.665 413.142 282.693 412.926 282.659H404.69C404.137 282.641 403.601 282.467 403.144 282.157C402.686 281.846 402.326 281.412 402.105 280.905L401.994 280.605C401.902 280.4 401.866 280.174 401.891 279.951C401.916 279.728 402 279.515 402.135 279.335C402.27 279.156 402.45 279.015 402.657 278.929C402.865 278.843 403.091 278.814 403.314 278.844H411.257C411.819 278.867 412.365 279.037 412.84 279.339C413.315 279.641 413.701 280.063 413.96 280.563L414.128 280.94Z" fill="#242424"/>
<path d="M427.434 282.659H417.619C417.422 282.66 417.228 282.605 417.061 282.5C416.894 282.394 416.76 282.243 416.676 282.065L415.845 280.207C415.782 280.054 415.758 279.889 415.775 279.725C415.792 279.561 415.851 279.404 415.945 279.268C416.039 279.132 416.165 279.023 416.312 278.949C416.46 278.875 416.623 278.839 416.788 278.844H426.449C426.638 278.844 426.823 278.894 426.985 278.99C427.147 279.086 427.281 279.224 427.371 279.389L428.335 281.247C428.41 281.398 428.444 281.566 428.435 281.734C428.426 281.902 428.373 282.065 428.283 282.207C428.192 282.349 428.066 282.465 427.918 282.544C427.769 282.623 427.602 282.663 427.434 282.659Z" fill="#242424"/>
<path d="M275.279 287.367H265.087C264.922 287.373 264.758 287.338 264.611 287.264C264.464 287.19 264.337 287.079 264.244 286.943C264.151 286.808 264.093 286.65 264.077 286.486C264.061 286.322 264.086 286.156 264.151 286.005L265.094 283.909C265.18 283.732 265.314 283.583 265.481 283.479C265.648 283.375 265.841 283.321 266.037 283.322H276.083C276.242 283.318 276.401 283.352 276.545 283.422C276.689 283.493 276.813 283.597 276.907 283.727C277.001 283.856 277.063 284.006 277.086 284.165C277.109 284.323 277.093 284.485 277.04 284.635L276.243 286.731C276.166 286.922 276.032 287.085 275.86 287.199C275.688 287.312 275.485 287.371 275.279 287.367Z" fill="#242424"/>
<path d="M289.726 287.367H279.478C279.318 287.374 279.16 287.341 279.016 287.273C278.872 287.204 278.747 287.101 278.652 286.973C278.557 286.845 278.494 286.695 278.47 286.537C278.446 286.38 278.461 286.218 278.514 286.068L279.282 283.972C279.358 283.777 279.492 283.611 279.666 283.494C279.839 283.378 280.044 283.318 280.253 283.322H290.348C290.502 283.317 290.655 283.348 290.795 283.413C290.936 283.477 291.059 283.574 291.154 283.695C291.25 283.816 291.316 283.958 291.347 284.109C291.378 284.26 291.373 284.417 291.333 284.566L290.711 286.662C290.644 286.869 290.512 287.049 290.334 287.176C290.157 287.303 289.944 287.37 289.726 287.367Z" fill="#242424"/>
<path d="M303.963 287.366H293.673C293.52 287.372 293.367 287.342 293.227 287.279C293.088 287.215 292.965 287.12 292.868 287.001C292.772 286.881 292.705 286.741 292.672 286.591C292.64 286.441 292.643 286.285 292.681 286.137L293.282 284.041C293.351 283.834 293.485 283.655 293.663 283.53C293.842 283.404 294.056 283.339 294.274 283.343H304.452C304.599 283.339 304.746 283.368 304.881 283.429C305.016 283.489 305.135 283.579 305.231 283.691C305.327 283.804 305.396 283.936 305.434 284.079C305.472 284.222 305.478 284.371 305.451 284.516L305.004 286.612C304.944 286.839 304.808 287.038 304.618 287.175C304.428 287.313 304.197 287.38 303.963 287.366Z" fill="#242424"/>
<path d="M318.423 287.367H308.07C307.923 287.372 307.777 287.345 307.642 287.286C307.507 287.227 307.386 287.139 307.29 287.028C307.193 286.917 307.123 286.785 307.084 286.643C307.045 286.501 307.038 286.352 307.065 286.207L307.491 284.112C307.542 283.884 307.67 283.682 307.853 283.538C308.037 283.394 308.264 283.318 308.497 283.322H318.668C318.809 283.318 318.95 283.345 319.08 283.4C319.21 283.455 319.327 283.537 319.423 283.641C319.519 283.745 319.592 283.868 319.636 284.002C319.68 284.136 319.696 284.278 319.681 284.419L319.408 286.515C319.372 286.75 319.253 286.966 319.072 287.122C318.892 287.278 318.662 287.365 318.423 287.367Z" fill="#242424"/>
<path d="M332.758 287.367H322.419C322.278 287.371 322.138 287.346 322.008 287.292C321.878 287.239 321.761 287.158 321.665 287.055C321.568 286.953 321.495 286.831 321.449 286.698C321.403 286.565 321.386 286.424 321.399 286.284L321.65 284.188C321.685 283.944 321.807 283.721 321.996 283.561C322.184 283.401 322.424 283.316 322.67 283.322H332.863C332.997 283.319 333.131 283.344 333.256 283.394C333.381 283.444 333.495 283.519 333.59 283.614C333.685 283.71 333.76 283.823 333.811 283.948C333.861 284.073 333.885 284.207 333.882 284.342L333.785 286.438C333.767 286.695 333.65 286.936 333.458 287.109C333.267 287.282 333.016 287.375 332.758 287.367Z" fill="#242424"/>
<path d="M347.163 287.367H336.81C336.676 287.371 336.543 287.348 336.418 287.299C336.294 287.249 336.18 287.176 336.085 287.082C335.99 286.988 335.915 286.876 335.864 286.752C335.813 286.628 335.788 286.495 335.79 286.361L335.867 284.265C335.883 284.007 335.998 283.765 336.188 283.59C336.378 283.414 336.628 283.318 336.887 283.322H347.065C347.323 283.318 347.574 283.414 347.764 283.59C347.954 283.765 348.069 284.007 348.085 284.265L348.162 286.361C348.162 286.493 348.137 286.624 348.088 286.746C348.038 286.868 347.964 286.979 347.871 287.072C347.779 287.166 347.668 287.24 347.547 287.29C347.425 287.341 347.294 287.367 347.163 287.367Z" fill="#242424"/>
<path d="M361.574 287.367H351.256C350.999 287.373 350.75 287.28 350.56 287.107C350.37 286.934 350.254 286.694 350.236 286.438L350.138 284.342C350.136 284.207 350.16 284.073 350.21 283.948C350.26 283.823 350.335 283.71 350.431 283.614C350.526 283.519 350.64 283.444 350.765 283.394C350.89 283.344 351.024 283.319 351.158 283.322H361.357C361.603 283.316 361.843 283.402 362.029 283.562C362.216 283.721 362.338 283.945 362.37 284.188L362.622 286.284C362.635 286.426 362.618 286.57 362.57 286.705C362.523 286.84 362.447 286.964 362.347 287.066C362.247 287.169 362.127 287.249 361.993 287.301C361.86 287.353 361.717 287.375 361.574 287.367Z" fill="#242424"/>
<path d="M375.783 287.367H365.458C365.213 287.373 364.975 287.29 364.787 287.133C364.599 286.976 364.475 286.756 364.438 286.515L364.165 284.419C364.152 284.278 364.168 284.136 364.213 284.001C364.258 283.867 364.332 283.744 364.428 283.64C364.525 283.537 364.642 283.455 364.772 283.4C364.903 283.345 365.044 283.318 365.185 283.322H375.357C375.589 283.318 375.817 283.394 376 283.538C376.183 283.682 376.311 283.884 376.363 284.111L376.789 286.207C376.815 286.352 376.808 286.501 376.769 286.643C376.73 286.785 376.66 286.917 376.563 287.028C376.467 287.139 376.347 287.227 376.212 287.286C376.076 287.345 375.93 287.372 375.783 287.367Z" fill="#242424"/>
<path d="M390.18 287.367H379.897C379.666 287.372 379.441 287.298 379.258 287.157C379.075 287.016 378.945 286.816 378.891 286.592L378.451 284.496C378.423 284.351 378.427 284.201 378.465 284.057C378.502 283.914 378.572 283.781 378.668 283.668C378.764 283.556 378.884 283.466 379.019 283.406C379.155 283.346 379.302 283.317 379.45 283.322H389.593C389.811 283.318 390.025 283.384 390.204 283.509C390.382 283.635 390.516 283.814 390.585 284.021L391.179 286.117C391.221 286.267 391.227 286.426 391.196 286.579C391.165 286.732 391.098 286.876 391.001 286.998C390.903 287.12 390.778 287.218 390.635 287.282C390.492 287.346 390.336 287.375 390.18 287.367Z" fill="#242424"/>
<path d="M404.794 287.367H394.567C394.35 287.371 394.137 287.305 393.96 287.18C393.783 287.054 393.65 286.875 393.582 286.669L392.96 284.573C392.92 284.424 392.915 284.268 392.946 284.117C392.976 283.965 393.043 283.823 393.138 283.702C393.234 283.581 393.357 283.485 393.497 283.42C393.638 283.355 393.791 283.324 393.945 283.33H404.04C404.248 283.325 404.454 283.386 404.627 283.502C404.801 283.618 404.935 283.785 405.011 283.979L405.786 286.075C405.836 286.228 405.849 286.39 405.822 286.549C405.795 286.707 405.73 286.856 405.632 286.984C405.534 287.111 405.407 287.213 405.261 287.28C405.115 287.347 404.954 287.377 404.794 287.367Z" fill="#242424"/>
<path d="M419.018 287.367H408.791C408.584 287.371 408.382 287.312 408.21 287.199C408.038 287.085 407.904 286.922 407.827 286.731L407.03 284.636C406.977 284.484 406.961 284.322 406.984 284.163C407.008 284.004 407.07 283.853 407.165 283.724C407.26 283.594 407.385 283.49 407.53 283.42C407.674 283.35 407.834 283.317 407.994 283.322H418.04C418.236 283.32 418.428 283.374 418.594 283.478C418.76 283.582 418.893 283.732 418.976 283.909L419.926 286.005C419.99 286.154 420.015 286.317 420 286.479C419.985 286.641 419.93 286.796 419.84 286.932C419.75 287.067 419.628 287.177 419.484 287.254C419.34 287.33 419.18 287.369 419.018 287.367Z" fill="#242424"/>
<path d="M265.94 292.327H255.419C255.251 292.335 255.083 292.299 254.932 292.223C254.781 292.147 254.653 292.032 254.559 291.892C254.466 291.751 254.41 291.589 254.398 291.42C254.386 291.251 254.418 291.083 254.49 290.93L255.643 288.618C255.733 288.45 255.867 288.309 256.03 288.212C256.194 288.114 256.382 288.064 256.572 288.066H266.925C267.088 288.059 267.251 288.093 267.398 288.165C267.544 288.237 267.671 288.344 267.765 288.478C267.86 288.611 267.919 288.766 267.939 288.928C267.958 289.091 267.936 289.255 267.875 289.407L266.89 291.712C266.809 291.896 266.675 292.052 266.507 292.161C266.338 292.27 266.141 292.328 265.94 292.327Z" fill="#242424"/>
<path d="M280.798 292.327H270.221C270.059 292.333 269.897 292.298 269.751 292.227C269.605 292.155 269.479 292.049 269.385 291.916C269.29 291.784 269.229 291.631 269.208 291.47C269.187 291.308 269.206 291.144 269.264 290.992L270.221 288.687C270.304 288.503 270.438 288.347 270.608 288.237C270.778 288.128 270.976 288.071 271.178 288.072H281.587C281.744 288.065 281.901 288.096 282.044 288.162C282.187 288.228 282.312 288.328 282.408 288.453C282.504 288.578 282.568 288.724 282.595 288.879C282.623 289.034 282.612 289.194 282.565 289.344L281.776 291.656C281.702 291.855 281.568 292.027 281.393 292.147C281.218 292.267 281.01 292.33 280.798 292.327Z" fill="#242424"/>
<path d="M295.453 292.327H284.821C284.665 292.332 284.51 292.301 284.369 292.234C284.227 292.168 284.104 292.069 284.008 291.945C283.913 291.822 283.848 291.677 283.819 291.524C283.791 291.37 283.799 291.212 283.843 291.063L284.612 288.75C284.68 288.545 284.811 288.367 284.987 288.242C285.162 288.116 285.374 288.05 285.59 288.052H296.068C296.219 288.047 296.37 288.077 296.508 288.139C296.645 288.202 296.767 288.295 296.864 288.411C296.96 288.528 297.029 288.665 297.064 288.812C297.099 288.959 297.1 289.113 297.067 289.26L296.466 291.566C296.408 291.788 296.276 291.984 296.092 292.123C295.909 292.261 295.683 292.333 295.453 292.327Z" fill="#242424"/>
<path d="M310.299 292.327H299.632C299.481 292.332 299.332 292.304 299.195 292.242C299.057 292.181 298.936 292.09 298.839 291.974C298.743 291.859 298.674 291.723 298.638 291.577C298.602 291.431 298.6 291.279 298.633 291.132L299.205 288.82C299.265 288.602 299.395 288.41 299.576 288.274C299.757 288.139 299.978 288.068 300.204 288.073H310.683C310.827 288.069 310.971 288.097 311.103 288.155C311.235 288.212 311.354 288.297 311.45 288.405C311.546 288.513 311.618 288.64 311.661 288.778C311.703 288.916 311.715 289.061 311.696 289.204L311.291 291.516C311.244 291.745 311.12 291.951 310.939 292.098C310.758 292.246 310.532 292.327 310.299 292.327Z" fill="#242424"/>
<path d="M325.088 292.327H314.393C314.249 292.331 314.106 292.304 313.973 292.248C313.841 292.191 313.722 292.106 313.626 291.999C313.529 291.892 313.457 291.766 313.415 291.628C313.372 291.49 313.36 291.345 313.38 291.202L313.757 288.897C313.802 288.662 313.928 288.451 314.113 288.3C314.298 288.149 314.531 288.069 314.77 288.073H325.297C325.435 288.069 325.573 288.093 325.701 288.145C325.829 288.197 325.945 288.275 326.041 288.375C326.137 288.474 326.211 288.592 326.258 288.722C326.306 288.852 326.326 288.99 326.317 289.128L326.108 291.44C326.078 291.688 325.958 291.916 325.769 292.08C325.581 292.244 325.338 292.332 325.088 292.327Z" fill="#242424"/>
<path d="M339.904 292.327H329.202C329.064 292.331 328.927 292.306 328.799 292.255C328.671 292.203 328.556 292.126 328.459 292.028C328.363 291.929 328.288 291.812 328.239 291.683C328.19 291.554 328.168 291.417 328.175 291.279L328.363 288.974C328.388 288.723 328.507 288.49 328.696 288.323C328.885 288.155 329.131 288.066 329.383 288.073H339.925C340.056 288.069 340.187 288.091 340.31 288.139C340.432 288.186 340.544 288.257 340.639 288.348C340.734 288.439 340.81 288.548 340.863 288.669C340.915 288.789 340.943 288.919 340.945 289.051V291.363C340.94 291.495 340.91 291.624 340.855 291.744C340.8 291.864 340.722 291.972 340.625 292.062C340.528 292.151 340.415 292.221 340.291 292.267C340.167 292.312 340.036 292.333 339.904 292.327Z" fill="#242424"/>
<path d="M354.749 292.327H344.033C343.769 292.333 343.513 292.234 343.32 292.052C343.128 291.87 343.015 291.62 343.006 291.356V289.051C343.013 288.785 343.126 288.533 343.318 288.35C343.51 288.167 343.767 288.067 344.033 288.073H354.574C354.827 288.066 355.072 288.155 355.262 288.323C355.451 288.49 355.57 288.722 355.594 288.974L355.776 291.279C355.783 291.417 355.761 291.554 355.712 291.683C355.663 291.812 355.588 291.929 355.492 292.028C355.395 292.126 355.279 292.203 355.152 292.255C355.024 292.306 354.887 292.331 354.749 292.327Z" fill="#242424"/>
<path d="M369.356 292.327H358.661C358.41 292.332 358.166 292.243 357.978 292.078C357.789 291.912 357.669 291.682 357.641 291.433L357.439 289.128C357.43 288.99 357.45 288.852 357.497 288.722C357.545 288.592 357.619 288.474 357.715 288.375C357.811 288.275 357.927 288.197 358.055 288.145C358.183 288.093 358.32 288.069 358.458 288.073H368.986C369.225 288.067 369.459 288.147 369.644 288.298C369.83 288.449 369.956 288.662 369.999 288.897L370.369 291.209C370.389 291.352 370.377 291.497 370.334 291.634C370.292 291.771 370.22 291.898 370.123 292.004C370.026 292.111 369.908 292.195 369.775 292.251C369.643 292.306 369.5 292.332 369.356 292.327Z" fill="#242424"/>
<path d="M384.172 292.327H373.505C373.267 292.332 373.035 292.252 372.85 292.103C372.665 291.953 372.538 291.743 372.492 291.51L372.094 289.204C372.074 289.061 372.085 288.915 372.127 288.777C372.169 288.638 372.241 288.51 372.337 288.403C372.434 288.295 372.553 288.209 372.686 288.152C372.819 288.095 372.962 288.068 373.107 288.073H383.586C383.813 288.067 384.035 288.139 384.217 288.276C384.398 288.413 384.528 288.607 384.585 288.827L385.15 291.132C385.182 291.278 385.18 291.428 385.146 291.572C385.111 291.717 385.044 291.851 384.95 291.966C384.856 292.081 384.737 292.173 384.603 292.236C384.468 292.298 384.321 292.329 384.172 292.327Z" fill="#242424"/>
<path d="M399.22 292.327H388.588C388.358 292.331 388.134 292.257 387.951 292.117C387.769 291.978 387.638 291.781 387.582 291.558L386.981 289.253C386.948 289.105 386.949 288.952 386.984 288.805C387.02 288.658 387.088 288.521 387.184 288.404C387.281 288.287 387.403 288.194 387.541 288.132C387.678 288.07 387.829 288.04 387.98 288.044H398.459C398.675 288.041 398.886 288.107 399.062 288.233C399.238 288.359 399.369 288.537 399.437 288.743L400.205 291.055C400.251 291.206 400.26 291.365 400.232 291.52C400.203 291.675 400.138 291.821 400.042 291.946C399.945 292.07 399.82 292.17 399.677 292.236C399.534 292.303 399.377 292.334 399.22 292.327Z" fill="#242424"/>
<path d="M413.82 292.327H403.237C403.022 292.327 402.812 292.26 402.638 292.135C402.464 292.009 402.333 291.832 402.266 291.628L401.476 289.316C401.429 289.166 401.418 289.006 401.446 288.851C401.473 288.696 401.538 288.55 401.634 288.425C401.73 288.3 401.854 288.201 401.997 288.134C402.14 288.068 402.297 288.037 402.454 288.045H412.863C413.065 288.041 413.264 288.098 413.434 288.207C413.605 288.317 413.739 288.474 413.82 288.659L414.77 290.972C414.834 291.124 414.858 291.29 414.841 291.454C414.823 291.619 414.764 291.776 414.669 291.911C414.574 292.047 414.447 292.156 414.298 292.228C414.15 292.301 413.985 292.335 413.82 292.327Z" fill="#242424"/>
<path d="M447.281 292.327H418.249C418.048 292.33 417.851 292.274 417.682 292.166C417.513 292.058 417.38 291.902 417.298 291.719L416.314 289.413C416.253 289.262 416.231 289.097 416.25 288.935C416.269 288.772 416.329 288.617 416.423 288.484C416.518 288.351 416.644 288.243 416.791 288.171C416.938 288.099 417.1 288.065 417.264 288.072H445.905C446.082 288.07 446.258 288.114 446.413 288.2C446.568 288.285 446.699 288.41 446.792 288.561L448.189 290.866C448.276 291.02 448.321 291.193 448.317 291.369C448.314 291.545 448.263 291.717 448.17 291.867C448.077 292.016 447.945 292.138 447.789 292.219C447.632 292.3 447.457 292.337 447.281 292.327Z" fill="#242424"/>
<path d="M433.484 287.367H423.355C423.161 287.369 422.97 287.317 422.805 287.215C422.639 287.114 422.505 286.968 422.419 286.795L421.448 284.699C421.375 284.546 421.343 284.376 421.355 284.207C421.368 284.038 421.424 283.875 421.518 283.734C421.613 283.593 421.742 283.479 421.894 283.403C422.046 283.328 422.215 283.293 422.384 283.302H432.359C432.546 283.3 432.729 283.348 432.89 283.441C433.051 283.535 433.184 283.67 433.275 283.833L434.399 285.928C434.481 286.081 434.521 286.253 434.515 286.427C434.509 286.6 434.456 286.769 434.363 286.916C434.27 287.062 434.139 287.181 433.985 287.261C433.83 287.34 433.658 287.377 433.484 287.367Z" fill="#242424"/>
<path d="M418.208 278.229H408.693C408.49 278.233 408.29 278.176 408.119 278.065C407.949 277.954 407.815 277.795 407.736 277.608L407.037 275.945C406.98 275.794 406.96 275.631 406.981 275.471C407.001 275.31 407.061 275.157 407.155 275.026C407.25 274.894 407.375 274.788 407.52 274.717C407.665 274.646 407.826 274.612 407.987 274.618H417.411C417.605 274.616 417.796 274.669 417.962 274.77C418.127 274.871 418.261 275.017 418.347 275.191L419.137 276.853C419.204 277.005 419.232 277.171 419.218 277.337C419.204 277.503 419.147 277.662 419.054 277.799C418.961 277.937 418.835 278.049 418.687 278.124C418.538 278.199 418.374 278.236 418.208 278.229Z" fill="#242424"/>
<path d="M439.457 278.879H430.515C429.712 278.879 429.174 279.089 429.306 279.354L430.822 282.197C430.969 282.47 431.758 282.686 432.576 282.686H433.973C434.157 282.686 434.338 282.735 434.497 282.827C434.657 282.919 434.789 283.051 434.881 283.21L436.893 286.857C437.054 287.143 437.871 287.374 438.716 287.374H444.479C445.325 287.374 445.877 287.143 445.695 286.857L441.161 279.354C440.67 278.993 440.064 278.825 439.457 278.879Z" fill="#242424"/>
<path d="M438.752 278.23H422.511C422.32 278.232 422.133 278.181 421.97 278.082C421.807 277.983 421.675 277.841 421.588 277.671L420.771 276.008C420.701 275.855 420.67 275.687 420.683 275.519C420.696 275.352 420.752 275.19 420.845 275.05C420.938 274.91 421.066 274.796 421.216 274.719C421.365 274.642 421.532 274.605 421.7 274.611H437.718C437.896 274.61 438.071 274.654 438.226 274.739C438.381 274.825 438.512 274.949 438.606 275.1L439.612 276.763C439.698 276.912 439.743 277.082 439.743 277.255C439.742 277.427 439.696 277.597 439.608 277.746C439.521 277.895 439.396 278.018 439.246 278.103C439.095 278.188 438.925 278.232 438.752 278.23Z" fill="#242424"/>
<path d="M271.186 273.982H261.65C261.482 273.989 261.315 273.952 261.165 273.875C261.015 273.799 260.888 273.684 260.795 273.544C260.702 273.403 260.647 273.241 260.636 273.073C260.624 272.906 260.656 272.737 260.728 272.585V272.515C260.817 272.349 260.95 272.21 261.113 272.114C261.276 272.018 261.461 271.969 261.65 271.971H271.214C271.378 271.964 271.542 271.998 271.689 272.072C271.837 272.145 271.963 272.254 272.057 272.389C272.151 272.524 272.21 272.681 272.227 272.845C272.245 273.008 272.22 273.174 272.157 273.326V273.396C272.07 273.577 271.931 273.73 271.759 273.834C271.586 273.938 271.387 273.99 271.186 273.982Z" fill="#242424"/>
<path d="M285.045 273.982H275.447C275.284 273.988 275.122 273.953 274.976 273.881C274.83 273.808 274.705 273.701 274.611 273.567C274.518 273.434 274.459 273.28 274.44 273.118C274.421 272.956 274.443 272.792 274.504 272.641V272.571C274.585 272.388 274.719 272.233 274.888 272.125C275.057 272.017 275.253 271.961 275.454 271.963H285.045C285.203 271.958 285.36 271.991 285.502 272.059C285.645 272.127 285.769 272.228 285.864 272.354C285.959 272.48 286.023 272.627 286.049 272.783C286.076 272.939 286.064 273.098 286.016 273.249V273.319C285.942 273.516 285.81 273.686 285.636 273.805C285.462 273.923 285.256 273.985 285.045 273.982Z" fill="#242424"/>
<path d="M298.703 273.982H289.084C288.926 273.988 288.769 273.956 288.627 273.889C288.484 273.822 288.359 273.722 288.263 273.596C288.168 273.471 288.103 273.325 288.076 273.169C288.048 273.014 288.059 272.854 288.106 272.704V272.634C288.175 272.43 288.306 272.252 288.482 272.127C288.657 272.001 288.868 271.934 289.084 271.935H298.724C298.875 271.931 299.026 271.962 299.163 272.025C299.301 272.089 299.422 272.182 299.518 272.3C299.614 272.417 299.681 272.555 299.716 272.702C299.75 272.85 299.75 273.003 299.716 273.151V273.221C299.659 273.444 299.527 273.641 299.343 273.779C299.159 273.918 298.933 273.989 298.703 273.982Z" fill="#242424"/>
<path d="M312.555 273.982H302.866C302.715 273.987 302.566 273.957 302.429 273.895C302.291 273.833 302.17 273.741 302.074 273.625C301.977 273.509 301.909 273.373 301.873 273.227C301.837 273.08 301.835 272.928 301.867 272.781V272.711C301.926 272.494 302.055 272.303 302.235 272.167C302.415 272.032 302.634 271.96 302.859 271.963H312.548C312.693 271.959 312.838 271.986 312.971 272.043C313.104 272.101 313.223 272.187 313.319 272.296C313.416 272.405 313.486 272.533 313.527 272.673C313.568 272.812 313.577 272.959 313.554 273.102V273.172C313.507 273.402 313.382 273.608 313.2 273.756C313.018 273.904 312.79 273.984 312.555 273.982Z" fill="#242424"/>
<path d="M326.22 273.982H316.503C316.358 273.985 316.215 273.957 316.082 273.9C315.95 273.843 315.832 273.757 315.735 273.65C315.639 273.542 315.567 273.415 315.525 273.277C315.482 273.139 315.47 272.993 315.49 272.85V272.787C315.534 272.553 315.66 272.341 315.845 272.19C316.031 272.039 316.264 271.959 316.503 271.963H326.213C326.351 271.96 326.489 271.986 326.617 272.038C326.745 272.091 326.86 272.17 326.956 272.27C327.052 272.37 327.126 272.488 327.174 272.618C327.221 272.748 327.241 272.887 327.233 273.025V273.095C327.205 273.342 327.085 273.571 326.898 273.735C326.711 273.899 326.469 273.987 326.22 273.982Z" fill="#242424"/>
<path d="M340.079 273.982H330.299C330.162 273.986 330.025 273.962 329.897 273.91C329.77 273.859 329.655 273.781 329.559 273.683C329.463 273.584 329.388 273.467 329.34 273.338C329.292 273.209 329.271 273.072 329.279 272.934V272.864C329.304 272.613 329.423 272.381 329.612 272.213C329.801 272.046 330.047 271.957 330.299 271.963H340.079C340.211 271.96 340.343 271.982 340.467 272.03C340.59 272.078 340.703 272.149 340.799 272.241C340.894 272.333 340.971 272.442 341.023 272.564C341.076 272.685 341.104 272.816 341.106 272.948V273.011C341.102 273.142 341.073 273.272 341.019 273.391C340.966 273.511 340.889 273.619 340.794 273.709C340.698 273.8 340.586 273.87 340.464 273.917C340.341 273.964 340.21 273.986 340.079 273.982Z" fill="#242424"/>
<path d="M353.687 273.982H343.956C343.825 273.986 343.694 273.964 343.572 273.917C343.449 273.87 343.337 273.8 343.241 273.709C343.146 273.619 343.069 273.511 343.016 273.391C342.962 273.272 342.933 273.142 342.929 273.011V272.941C342.932 272.809 342.961 272.68 343.014 272.559C343.067 272.438 343.144 272.329 343.239 272.238C343.334 272.148 343.447 272.076 343.57 272.029C343.693 271.982 343.824 271.96 343.956 271.963H353.68C353.933 271.957 354.18 272.046 354.37 272.213C354.56 272.38 354.681 272.613 354.707 272.864V272.934C354.715 273.072 354.694 273.209 354.646 273.338C354.598 273.467 354.523 273.584 354.428 273.683C354.332 273.781 354.216 273.859 354.089 273.91C353.961 273.962 353.825 273.986 353.687 273.982Z" fill="#242424"/>
<path d="M367.533 273.982H357.809C357.559 273.987 357.316 273.899 357.128 273.735C356.939 273.571 356.818 273.343 356.789 273.095V273.025C356.78 272.886 356.8 272.747 356.848 272.617C356.896 272.486 356.971 272.367 357.068 272.267C357.164 272.167 357.281 272.089 357.41 272.036C357.538 271.984 357.677 271.959 357.816 271.963H367.526C367.765 271.959 367.998 272.04 368.183 272.19C368.368 272.341 368.494 272.553 368.539 272.788V272.851C368.558 272.993 368.546 273.138 368.504 273.275C368.462 273.413 368.391 273.54 368.295 273.647C368.2 273.754 368.082 273.84 367.951 273.898C367.819 273.956 367.677 273.984 367.533 273.982Z" fill="#242424"/>
<path d="M381.168 273.982H371.514C371.277 273.987 371.046 273.909 370.861 273.761C370.676 273.612 370.549 273.404 370.501 273.172V273.102C370.48 272.958 370.49 272.811 370.531 272.672C370.573 272.533 370.644 272.404 370.741 272.296C370.838 272.187 370.957 272.101 371.091 272.043C371.224 271.986 371.369 271.959 371.514 271.963H381.154C381.379 271.96 381.599 272.032 381.778 272.167C381.958 272.303 382.087 272.494 382.146 272.711V272.781C382.178 272.926 382.176 273.077 382.141 273.221C382.107 273.366 382.04 273.501 381.946 273.617C381.852 273.732 381.734 273.825 381.599 273.888C381.464 273.951 381.317 273.984 381.168 273.982Z" fill="#242424"/>
<path d="M394.98 273.982H385.333C385.109 273.986 384.89 273.916 384.71 273.783C384.53 273.651 384.398 273.463 384.334 273.249V273.179C384.298 273.031 384.297 272.877 384.331 272.729C384.364 272.581 384.432 272.443 384.528 272.325C384.624 272.207 384.746 272.114 384.884 272.051C385.023 271.988 385.174 271.958 385.326 271.963H394.973C395.188 271.962 395.398 272.029 395.573 272.154C395.747 272.28 395.877 272.458 395.944 272.662V272.725C395.987 272.873 395.994 273.029 395.965 273.18C395.937 273.332 395.873 273.475 395.779 273.597C395.685 273.719 395.564 273.818 395.425 273.885C395.287 273.952 395.134 273.985 394.98 273.982Z" fill="#242424"/>
<path d="M408.581 273.983H398.983C398.768 273.983 398.558 273.916 398.384 273.791C398.21 273.665 398.079 273.488 398.012 273.284V273.214C397.963 273.064 397.952 272.904 397.979 272.748C398.005 272.593 398.068 272.446 398.164 272.319C398.259 272.193 398.383 272.092 398.526 272.024C398.668 271.956 398.825 271.923 398.983 271.929H408.539C408.739 271.927 408.936 271.984 409.104 272.092C409.273 272.2 409.407 272.354 409.489 272.537V272.606C409.556 272.756 409.584 272.921 409.571 273.085C409.557 273.248 409.503 273.406 409.412 273.543C409.322 273.681 409.198 273.793 409.053 273.869C408.908 273.946 408.745 273.985 408.581 273.983Z" fill="#242424"/>
<path d="M422.363 273.982H412.834C412.635 273.985 412.439 273.929 412.27 273.822C412.102 273.716 411.968 273.563 411.884 273.382V273.319C411.829 273.171 411.81 273.012 411.83 272.855C411.849 272.699 411.907 272.549 411.996 272.419C412.086 272.29 412.206 272.184 412.346 272.11C412.486 272.037 412.641 271.999 412.799 271.999H422.328C422.516 271.998 422.701 272.048 422.864 272.144C423.026 272.24 423.159 272.378 423.25 272.543L423.285 272.613C423.351 272.764 423.377 272.929 423.363 273.093C423.348 273.257 423.292 273.415 423.2 273.551C423.108 273.688 422.983 273.799 422.837 273.874C422.69 273.95 422.527 273.987 422.363 273.982Z" fill="#242424"/>
<path d="M435.957 273.982H426.498C426.311 273.985 426.127 273.936 425.966 273.841C425.805 273.746 425.672 273.609 425.583 273.445V273.375C425.511 273.223 425.479 273.056 425.491 272.888C425.502 272.721 425.556 272.559 425.648 272.419C425.74 272.279 425.867 272.165 426.016 272.087C426.164 272.01 426.331 271.972 426.498 271.978H435.95C436.127 271.976 436.302 272.02 436.458 272.106C436.613 272.192 436.744 272.316 436.837 272.467L436.879 272.536C436.963 272.69 437.005 272.864 436.999 273.039C436.993 273.214 436.94 273.385 436.846 273.532C436.752 273.68 436.62 273.8 436.463 273.879C436.307 273.958 436.132 273.994 435.957 273.982Z" fill="#242424"/>
<path d="M246.247 266.005C244.873 266.003 243.556 265.456 242.584 264.484C241.612 263.513 241.066 262.195 241.064 260.821V145.886C241.084 143.004 242.246 140.248 244.296 138.222C246.345 136.196 249.115 135.066 251.996 135.079H431.927C434.809 135.066 437.578 136.196 439.627 138.222C441.677 140.248 442.839 143.004 442.86 145.886V260.821C442.858 262.195 442.311 263.513 441.339 264.484C440.368 265.456 439.05 266.003 437.676 266.005H246.247Z" fill="#F1F2F2"/>
<path d="M431.927 135.777H251.996C249.297 135.761 246.702 136.816 244.781 138.711C242.859 140.606 241.768 143.187 241.748 145.886V260.821C241.748 262.014 242.222 263.159 243.066 264.002C243.909 264.846 245.054 265.32 246.247 265.32H437.655C438.848 265.32 439.992 264.846 440.836 264.002C441.68 263.159 442.154 262.014 442.154 260.821V145.886C442.133 143.19 441.046 140.613 439.129 138.718C437.212 136.824 434.622 135.766 431.927 135.777Z" fill="#D2D3D4"/>
<path opacity="0.6" d="M341.406 139.172C341.107 139.165 340.813 139.248 340.562 139.409C340.31 139.57 340.112 139.802 339.993 140.076C339.874 140.351 339.84 140.654 339.895 140.948C339.949 141.242 340.09 141.512 340.299 141.726C340.509 141.939 340.777 142.085 341.069 142.145C341.362 142.205 341.666 142.177 341.943 142.063C342.219 141.949 342.455 141.756 342.621 141.507C342.787 141.258 342.875 140.966 342.873 140.667C342.872 140.276 342.717 139.901 342.443 139.622C342.169 139.343 341.797 139.181 341.406 139.172Z" fill="#231F20"/>
<path d="M434.001 145.501H249.921V262.917H434.001V145.501Z" fill="#939598"/>
<path d="M433.659 145.844H250.264V262.575H433.659V145.844Z" fill="#13EBA2"/>
<path opacity="0.57" d="M302.527 146.255H263.236L385.54 262.218H397.129H433.687L311.382 146.255H302.527Z" fill="#82FFD2"/>
<path opacity="0.57" d="M249.963 168.447L348.512 262.218H365.227L249.963 152.543V168.447Z" fill="#52F6BD"/>
<path d="M433.364 146.23H250.347V262.338H433.364V146.23Z" fill="#E2FFF5"/>
<path d="M302.007 216.593L322.015 216.897C321.863 227.548 312.886 236.22 302.007 236.22C301.931 236.22 301.931 236.22 301.855 236.22L302.007 216.593Z" fill="#455A64"/>
<path d="M335.1 243.675C335.1 243.675 334.948 243.675 334.643 243.675C334.339 243.675 333.959 243.675 333.426 243.675C332.361 243.675 330.84 243.675 328.938 243.752H328.862V243.675C327.112 241.393 324.754 238.502 322.243 235.383C320.265 232.873 318.439 230.59 316.918 228.612L316.994 228.688C314.559 228.688 312.581 228.612 311.136 228.612C310.451 228.612 309.919 228.612 309.462 228.612C309.082 228.612 308.854 228.612 308.854 228.536C308.854 228.46 309.082 228.536 309.462 228.46C309.843 228.46 310.451 228.46 311.136 228.46C312.581 228.46 314.635 228.46 316.994 228.384H317.07L317.146 228.46C318.667 230.438 320.569 232.72 322.471 235.231C324.982 238.426 327.264 241.317 329.014 243.599L328.938 243.523C330.764 243.523 332.285 243.599 333.426 243.599C333.959 243.599 334.339 243.599 334.643 243.599C334.948 243.675 335.1 243.675 335.1 243.675Z" fill="#263238"/>
<path d="M335.784 246.11C339.356 246.11 342.251 246.042 342.251 245.958C342.251 245.874 339.356 245.806 335.784 245.806C332.213 245.806 329.318 245.874 329.318 245.958C329.318 246.042 332.213 246.11 335.784 246.11Z" fill="#263238"/>
<path d="M335.784 248.545C339.356 248.545 342.251 248.476 342.251 248.392C342.251 248.308 339.356 248.24 335.784 248.24C332.213 248.24 329.318 248.308 329.318 248.392C329.318 248.476 332.213 248.545 335.784 248.545Z" fill="#263238"/>
<path d="M298.811 213.702L298.507 233.329C287.628 233.177 278.803 224.352 278.803 213.702C278.803 202.899 287.856 194.074 298.811 194.074C309.766 194.074 318.82 202.899 318.82 213.702H298.811Z" fill="#056644"/>
<path d="M291.052 207.311C291.052 207.311 290.9 207.387 290.672 207.387C290.367 207.464 290.063 207.464 289.683 207.54C288.77 207.692 287.553 207.844 286.107 208.072H286.031L285.955 207.996C284.586 206.703 282.912 205.029 281.162 203.355C278.88 201.073 276.75 199.019 275.304 197.574C274.619 196.813 274.011 196.28 273.554 195.824C273.174 195.367 272.946 195.139 272.946 195.139C272.946 195.139 273.174 195.367 273.63 195.748C274.087 196.204 274.696 196.737 275.456 197.498C276.978 198.943 279.108 200.997 281.39 203.279C283.14 205.029 284.814 206.627 286.107 207.996H286.031C287.476 207.844 288.694 207.692 289.607 207.616C289.987 207.616 290.367 207.54 290.596 207.54C290.9 207.311 291.052 207.311 291.052 207.311Z" fill="#263238"/>
<path d="M261.459 194.379C265.03 194.379 267.925 194.311 267.925 194.227C267.925 194.143 265.03 194.075 261.459 194.075C257.887 194.075 254.992 194.143 254.992 194.227C254.992 194.311 257.887 194.379 261.459 194.379Z" fill="#263238"/>
<path d="M261.458 196.737C265.029 196.737 267.924 196.669 267.924 196.585C267.924 196.501 265.029 196.433 261.458 196.433C257.886 196.433 254.991 196.501 254.991 196.585C254.991 196.669 257.886 196.737 261.458 196.737Z" fill="#263238"/>
<path d="M368.801 174.978L368.725 162.806C365.15 162.806 361.498 164.252 358.683 166.762C355.412 169.653 353.282 174.065 353.814 179.391C353.89 179.999 353.966 180.532 354.118 181.141C354.118 181.141 354.118 181.141 354.118 181.217L368.801 177.945V174.978Z" fill="#056644"/>
<g opacity="0.3">
<g opacity="0.3">
<path opacity="0.3" d="M368.801 174.978L368.725 162.806C365.15 162.806 361.498 164.252 358.683 166.762C355.412 169.653 353.282 174.065 353.814 179.391C353.89 179.999 353.966 180.532 354.118 181.141C354.118 181.141 354.118 181.141 354.118 181.217L368.801 177.945V174.978Z" fill="#F8F8F8"/>
</g>
</g>
<path d="M383.941 171.251C381.887 166.99 377.855 163.491 372.073 162.958C371.921 162.958 371.769 162.958 371.617 162.882C371.54 162.882 371.388 162.882 371.312 162.882C371.008 162.882 370.704 162.882 370.399 162.882C370.399 162.882 370.399 162.882 370.323 162.882L370.399 175.054V177.945L385.082 181.14C385.31 180.075 385.386 179.086 385.386 177.945C385.539 175.663 385.006 173.305 383.941 171.251Z" fill="#056644"/>
<g opacity="0.3">
<g opacity="0.3">
<path opacity="0.3" d="M383.941 171.251C381.887 166.99 377.855 163.491 372.073 162.958C371.921 162.958 371.769 162.958 371.617 162.882C371.54 162.882 371.388 162.882 371.312 162.882C371.008 162.882 370.704 162.882 370.399 162.882C370.399 162.882 370.399 162.882 370.323 162.882L370.399 175.054V177.945L385.082 181.14C385.31 180.075 385.386 179.086 385.386 177.945C385.539 175.663 385.006 173.305 383.941 171.251Z" fill="#181818"/>
</g>
</g>
<path d="M369.637 179.391L354.955 182.662C356.476 189.357 362.486 194.454 369.637 194.454C376.865 194.454 382.875 189.357 384.32 182.586L369.637 179.391Z" fill="#056644"/>
<path d="M409.882 177.413C419.252 177.413 426.847 177.311 426.847 177.185C426.847 177.059 419.252 176.957 409.882 176.957C400.513 176.957 392.917 177.059 392.917 177.185C392.917 177.311 400.513 177.413 409.882 177.413Z" fill="#263238"/>
<path d="M409.882 173.533C419.252 173.533 426.847 173.43 426.847 173.304C426.847 173.178 419.252 173.076 409.882 173.076C400.513 173.076 392.917 173.178 392.917 173.304C392.917 173.43 400.513 173.533 409.882 173.533Z" fill="#263238"/>
<path d="M409.882 169.653C419.252 169.653 426.847 169.551 426.847 169.425C426.847 169.299 419.252 169.197 409.882 169.197C400.513 169.197 392.917 169.299 392.917 169.425C392.917 169.551 400.513 169.653 409.882 169.653Z" fill="#263238"/>
<path d="M409.882 180.989C419.252 180.989 426.847 180.887 426.847 180.76C426.847 180.634 419.252 180.532 409.882 180.532C400.513 180.532 392.917 180.634 392.917 180.76C392.917 180.887 400.513 180.989 409.882 180.989Z" fill="#263238"/>
<path d="M404.633 184.944C411.062 184.944 416.273 184.842 416.273 184.716C416.273 184.59 411.062 184.488 404.633 184.488C398.205 184.488 392.993 184.59 392.993 184.716C392.993 184.842 398.205 184.944 404.633 184.944Z" fill="#263238"/>
<path d="M360.812 212.713H357.313V251.74H360.812V212.713Z" fill="#056644"/>
<path d="M367.507 225.95H364.007V251.74H367.507V225.95Z" fill="#056644"/>
<path d="M374.278 217.506H370.778V251.892H374.278V217.506Z" fill="#056644"/>
<path d="M381.048 214.158H377.549V251.664H381.048V214.158Z" fill="#056644"/>
<path d="M387.819 226.711H384.32V251.664H387.819V226.711Z" fill="#056644"/>
<path d="M394.514 231.656H391.014V251.74H394.514V231.656Z" fill="#056644"/>
<path d="M401.285 216.669H397.786V251.664H401.285V216.669Z" fill="#056644"/>
<path d="M408.056 222.983H404.556V251.664H408.056V222.983Z" fill="#056644"/>
<path d="M414.751 217.962H411.251V251.74H414.751V217.962Z" fill="#056644"/>
<path d="M421.522 228.689H418.022V251.664H421.522V228.689Z" fill="#056644"/>
<path d="M428.293 224.352H424.793V251.74H428.293V224.352Z" fill="#056644"/>
<path d="M429.662 254.403C429.662 254.479 413.077 254.555 392.612 254.555C372.148 254.555 355.563 254.479 355.563 254.403C355.563 254.327 372.148 254.25 392.612 254.25C413.077 254.25 429.662 254.327 429.662 254.403Z" fill="#263238"/>
<path d="M359.672 257.674C361.101 257.674 362.259 257.606 362.259 257.522C362.259 257.438 361.101 257.369 359.672 257.369C358.244 257.369 357.085 257.438 357.085 257.522C357.085 257.606 358.244 257.674 359.672 257.674Z" fill="#263238"/>
<path d="M367.811 257.826C369.534 257.826 370.93 257.758 370.93 257.674C370.93 257.59 369.534 257.522 367.811 257.522C366.088 257.522 364.692 257.59 364.692 257.674C364.692 257.758 366.088 257.826 367.811 257.826Z" fill="#263238"/>
<path d="M375.115 257.826C376.838 257.826 378.234 257.758 378.234 257.674C378.234 257.59 376.838 257.522 375.115 257.522C373.393 257.522 371.996 257.59 371.996 257.674C371.996 257.758 373.393 257.826 375.115 257.826Z" fill="#263238"/>
<path d="M382.494 257.826C384.217 257.826 385.613 257.758 385.613 257.674C385.613 257.59 384.217 257.522 382.494 257.522C380.771 257.522 379.375 257.59 379.375 257.674C379.375 257.758 380.771 257.826 382.494 257.826Z" fill="#263238"/>
<path d="M389.797 257.826C391.52 257.826 392.916 257.758 392.916 257.674C392.916 257.59 391.52 257.522 389.797 257.522C388.075 257.522 386.678 257.59 386.678 257.674C386.678 257.758 388.075 257.826 389.797 257.826Z" fill="#263238"/>
<path d="M397.101 257.826C398.824 257.826 400.22 257.758 400.22 257.674C400.22 257.59 398.824 257.522 397.101 257.522C395.378 257.522 393.982 257.59 393.982 257.674C393.982 257.758 395.378 257.826 397.101 257.826Z" fill="#263238"/>
<path d="M404.48 257.826C406.203 257.826 407.6 257.758 407.6 257.674C407.6 257.59 406.203 257.522 404.48 257.522C402.758 257.522 401.361 257.59 401.361 257.674C401.361 257.758 402.758 257.826 404.48 257.826Z" fill="#263238"/>
<path d="M411.784 257.826C413.506 257.826 414.903 257.758 414.903 257.674C414.903 257.59 413.506 257.522 411.784 257.522C410.061 257.522 408.665 257.59 408.665 257.674C408.665 257.758 410.061 257.826 411.784 257.826Z" fill="#263238"/>
<path d="M419.163 257.826C420.886 257.826 422.282 257.758 422.282 257.674C422.282 257.59 420.886 257.522 419.163 257.522C417.44 257.522 416.044 257.59 416.044 257.674C416.044 257.758 417.44 257.826 419.163 257.826Z" fill="#263238"/>
<path d="M426.467 257.826C428.189 257.826 429.586 257.758 429.586 257.674C429.586 257.59 428.189 257.522 426.467 257.522C424.744 257.522 423.348 257.59 423.348 257.674C423.348 257.758 424.744 257.826 426.467 257.826Z" fill="#263238"/>
<g opacity="0.3">
<g opacity="0.3">
<g opacity="0.3">
<path opacity="0.3" d="M367.507 225.95H364.007V251.74H367.507V225.95Z" fill="#F8F8F8"/>
</g>
</g>
</g>
<g opacity="0.3">
<g opacity="0.3">
<g opacity="0.3">
<path opacity="0.3" d="M381.048 214.158H377.549V251.664H381.048V214.158Z" fill="#F8F8F8"/>
</g>
</g>
</g>
<g opacity="0.3">
<g opacity="0.3">
<g opacity="0.3">
<path opacity="0.3" d="M394.514 231.656H391.014V251.74H394.514V231.656Z" fill="#F8F8F8"/>
</g>
</g>
</g>
<g opacity="0.3">
<g opacity="0.3">
<g opacity="0.3">
<path opacity="0.3" d="M408.056 222.983H404.556V251.664H408.056V222.983Z" fill="#F8F8F8"/>
</g>
</g>
</g>
<g opacity="0.3">
<g opacity="0.3">
<g opacity="0.3">
<path opacity="0.3" d="M421.522 228.689H418.022V251.664H421.522V228.689Z" fill="#F8F8F8"/>
</g>
</g>
</g>
<path d="M261.229 171.327C263.078 171.327 264.577 169.828 264.577 167.98C264.577 166.131 263.078 164.632 261.229 164.632C259.381 164.632 257.882 166.131 257.882 167.98C257.882 169.828 259.381 171.327 261.229 171.327Z" fill="#056644"/>
<path d="M322.394 165.317C322.394 165.393 311.059 165.545 297.061 165.545C283.063 165.545 271.727 165.469 271.727 165.317C271.727 165.241 283.063 165.089 297.061 165.089C311.059 165.165 322.394 165.241 322.394 165.317Z" fill="#056644"/>
<path d="M292.04 169.425C292.04 169.425 291.736 169.501 291.279 169.501C290.747 169.501 290.062 169.577 289.149 169.577C287.323 169.577 284.813 169.653 282.074 169.653C279.335 169.653 276.825 169.653 274.999 169.577C274.086 169.577 273.401 169.501 272.869 169.501C272.336 169.501 272.108 169.425 272.108 169.425C272.108 169.425 272.412 169.349 272.869 169.349C273.401 169.349 274.086 169.273 274.999 169.273C276.825 169.273 279.335 169.197 282.074 169.197C284.813 169.197 287.323 169.197 289.149 169.273C290.062 169.273 290.747 169.349 291.279 169.349C291.812 169.349 292.04 169.349 292.04 169.425Z" fill="#056644"/>
</svg>
