<svg width="459" height="404" viewBox="0 0 459 404" fill="none" xmlns="http://www.w3.org/2000/svg">
<circle cx="339.5" cy="119.5" r="119.5" fill="#E0E6F5"/>
<circle cx="67" cy="280" r="67" fill="#E0E6F5"/>
<circle cx="80" cy="59" r="36" fill="#E0E6F5"/>
<path d="M322.365 199.233C322.365 199.233 309.736 192.039 298.553 190.788C298.553 190.788 294.33 176.399 294.096 169.205C293.861 162.01 229.385 202.322 229.385 202.322C229.385 202.322 202.328 207.366 193.648 212.097C184.967 216.828 239.473 253.27 239.473 253.27L328.073 214.365L322.365 199.233Z" fill="#FFB18A"/>
<path d="M184.616 125.647C184.616 125.647 181.879 157.787 191.419 173.114C200.96 188.442 225.475 205.098 241.467 204.434C257.459 203.769 276.188 196.926 289.482 182.303C302.776 167.68 304.926 162.01 305.826 158.804C305.826 158.804 318.338 158.296 328.113 141.561C337.927 124.826 316.735 117.475 308.328 126.038L276.853 71.6108L184.616 125.647Z" fill="#FFC9A9"/>
<path d="M330.458 131.512C328.816 122.206 314.779 119.391 308.328 125.999L276.852 71.5718L184.615 125.647C184.615 125.647 184.068 132.099 184.303 140.583C200.607 139.84 211.125 134.914 223.754 126.507C236.11 118.257 244.204 112.509 270.596 84.2011C269.736 87.29 267.234 100.349 278.26 118.062C290.967 138.433 289.521 139.371 286.627 155.402C286.627 155.402 293.04 151.727 298.592 145.197L308.289 131.786C313.098 126.859 322.13 127.211 327.135 131.512C328.073 132.333 329.52 132.333 330.458 131.512Z" fill="#FFB18A"/>
<path d="M280.958 65.9415C280.958 65.9415 307.976 40.8002 256.481 37.3203C204.987 33.8404 190.011 48.4638 166.473 77.7106C166.473 77.7106 155.017 95.853 134.333 88.854C134.333 88.854 146.102 104.807 161.351 102.383C161.351 102.383 148.644 112.04 134.333 109.812C134.333 109.812 163.15 135.109 181.253 134.875C199.356 134.601 210.383 129.635 223.755 120.721C237.127 111.806 245.533 105.745 277.556 70.868L280.958 65.9415Z" fill="#221F33"/>
<path d="M308.328 125.999C313.645 120.564 324.085 121.542 328.542 127.211C331.749 125.139 334.681 121.659 336.675 115.872C343.635 95.7747 331.162 80.9167 316.304 67.2708C301.446 53.6249 292.14 51.0834 281.192 61.9532C272.903 70.1642 271.222 75.169 270.87 76.9676C270.753 77.515 270.674 78.0624 270.518 78.6098C269.619 82.0115 267.39 94.9145 278.221 112.275C290.928 132.646 289.481 133.584 286.588 149.615C286.588 149.615 293 145.94 298.553 139.41" fill="#221F33"/>
<path d="M256.442 37.3203C204.908 33.8404 189.972 48.4638 166.434 77.7106C166.434 77.7106 163.501 82.3635 157.91 86.0389C161.507 87.5638 165.573 88.3457 169.914 87.681C169.914 87.681 157.206 97.3387 142.896 95.1101C142.896 95.1101 145.828 97.6907 150.442 101.21C153.765 102.422 157.441 103.008 161.351 102.383C161.351 102.383 159.435 103.829 156.307 105.472C166.238 112.431 179.728 120.29 189.855 120.173C207.958 119.899 218.984 114.934 232.356 106.019C245.728 97.1041 254.135 91.0436 286.158 56.1665L287.996 53.5077C288.66 46.587 282.913 39.1189 256.442 37.3203Z" fill="#494763"/>
<path d="M316.343 67.2317C301.485 53.5858 292.179 51.0443 281.231 61.9141C280.449 62.657 279.745 63.3999 279.12 64.1037C278.181 67.8573 276.305 80.5257 286.901 97.5342C299.608 117.905 298.162 118.844 295.268 134.875C295.268 134.875 301.681 131.199 307.233 124.67L316.93 111.258C322.247 105.823 332.687 106.801 337.144 112.47C337.34 112.314 337.574 112.197 337.77 112.04C342.032 93.8197 330.224 80.0174 316.343 67.2317Z" fill="#494763"/>
<path d="M210.616 135.109C209.913 135.344 209.287 135.774 208.857 136.361C206.55 139.371 206.902 144.142 207.371 147.661C207.879 151.297 209.209 157.045 212.845 158.843C217.029 160.915 219.297 155.715 219.375 152.431C219.531 147.504 217.889 142.03 215.621 137.69C215.426 137.338 215.23 136.947 214.996 136.595C214.096 135.188 212.259 134.562 210.616 135.109Z" fill="#603813"/>
<path d="M254.292 128.228C253.588 128.462 252.924 128.892 252.454 129.479C250.069 132.568 250.46 137.455 250.929 141.053C251.438 144.767 252.806 150.671 256.521 152.548C260.822 154.698 263.129 149.342 263.246 145.979C263.402 140.935 261.721 135.305 259.414 130.887C259.219 130.496 259.023 130.105 258.749 129.753C257.85 128.306 255.973 127.68 254.292 128.228Z" fill="#603813"/>
<path d="M237.909 156.263C237.518 155.442 237.205 154.972 236.423 155.011C235.719 154.933 234.781 155.207 234.546 156.145C233.412 161.033 232.278 165.92 231.183 170.808C230.636 173.232 231.301 175.891 234.468 175.031C236.892 174.366 240.802 173.193 240.802 170.26C240.802 169.439 240.646 168.54 240.45 167.68" fill="#E81F33"/>
<path d="M245.572 181.013C244.908 180.739 244.204 180.739 243.539 180.935C243.422 180.896 243.305 180.857 243.148 180.857C240.88 180.7 239.629 183.202 239.473 185.157C239.277 187.386 240.724 189.263 242.992 189.38C245.181 189.498 247.371 188.794 247.957 186.448C248.505 184.415 247.684 181.795 245.572 181.013Z" fill="white"/>
<path d="M244.673 126.586C248.778 122.988 253.001 119.509 257.341 116.185C258.671 115.168 257.341 112.862 256.012 113.878C251.476 117.319 247.058 120.916 242.796 124.67C241.506 125.804 243.382 127.68 244.673 126.586Z" fill="#603813"/>
<path d="M203.892 125.022C208.857 126.156 213.706 127.641 218.437 129.518C220.04 130.144 220.705 127.563 219.141 126.977C214.41 125.139 209.561 123.614 204.596 122.48C202.953 122.089 202.25 124.631 203.892 125.022Z" fill="#603813"/>
<path d="M405.765 329.397C411.278 269.965 356.147 213.778 338.708 200.797C333.195 196.692 323.381 189.341 312.003 199.898C293.274 217.337 239.473 250.923 239.473 250.923C239.473 250.923 220.9 227.542 208.466 210.533C196.032 193.525 155.095 244.589 155.095 244.589" stroke="#6666FF" stroke-miterlimit="10"/>
<path d="M405.765 329.397C411.278 269.965 356.147 213.778 338.708 200.797C333.195 196.692 323.381 189.341 312.003 199.898C293.274 217.337 239.473 250.923 239.473 250.923C239.473 250.923 220.9 227.542 208.466 210.533C196.032 193.525 155.095 244.589 155.095 244.589L160.021 354.499L382.461 352.583L404.357 339.368C404.279 338.703 405.765 329.397 405.765 329.397Z" fill="#6666FF"/>
<path d="M343.244 251.666C344.495 253.269 369.754 308.439 366.821 324.079L343.244 251.666Z" fill="#6666FF"/>
<path d="M333.196 268.558C321.036 261.95 260.392 279.506 260.392 279.506L238.065 302.301L249.131 353.717L382.462 352.583C382.501 352.583 353.293 279.506 333.196 268.558Z" fill="#3E3EFF"/>
<path d="M80.1016 219.213C80.1016 219.213 131.518 217.454 181.801 258.587L200.256 375.34C200.256 375.34 167.451 346.718 112.398 350.785L80.1016 219.213Z" fill="#EFEFEF"/>
<path d="M175.896 266.368C175.896 266.368 214.84 204.394 298.788 223.006L314.271 353.678C314.271 353.678 248.153 345.115 192.709 378.898L175.896 266.368Z" fill="#EFEFEF"/>
<path d="M75.4482 227.151C75.4482 227.151 126.122 220.699 176.404 261.832L195.603 383.277C195.603 383.277 162.798 354.656 107.745 358.722L75.4482 227.151Z" fill="#99C0FF"/>
<path d="M184.225 264.1C184.225 264.1 225.71 214.208 309.657 232.82L325.102 363.492C325.102 363.492 258.984 354.929 203.54 388.712L184.225 264.1Z" fill="#99C0FF"/>
<path d="M191.262 355.75C146.219 321.303 101.02 331.352 101.02 331.352L107.745 358.683C162.837 354.617 195.602 383.277 195.602 383.277L191.262 355.75Z" fill="#B6D4FF"/>
<path d="M203.579 388.712C259.023 354.929 325.141 363.492 325.141 363.492L320.449 323.728C260.626 320.365 211.203 349.143 198.691 357.158L203.579 388.712Z" fill="#B6D4FF"/>
<path d="M215.152 367.089C234.663 355.125 255.582 349.69 255.582 349.69L254.018 339.954C232.239 345.233 217.928 355.477 213.197 357.979L215.152 367.089Z" fill="white"/>
<path d="M178.829 260.112L184.264 259.76C191.106 258.626 190.442 259.486 190.95 263.044L209.21 380.853C209.796 384.567 207.294 388.047 203.579 388.712C199.904 389.377 196.346 386.952 195.603 383.277L171.947 265.821C171.009 259.291 174.997 261.05 178.829 260.112Z" fill="#6699FF"/>
<path d="M119.905 300.541C121.43 313.484 111.147 325.213 100.316 326.504C89.4852 327.794 81.0396 318.293 79.4756 305.351C77.9507 292.409 83.8939 280.874 94.7246 279.584C105.555 278.294 118.38 287.599 119.905 300.541Z" fill="#FFC9A9"/>
<path d="M91.6353 306.133C90.6187 298.469 87.1779 292.057 82.3295 288.381C79.788 292.995 78.7323 299.017 79.4752 305.351C80.4136 313.171 83.8544 319.74 88.8592 323.415C91.4789 318.762 92.4955 312.623 91.6353 306.133Z" fill="#FFB18A"/>
<path d="M312.003 199.898C323.342 189.341 333.195 196.692 338.708 200.797" stroke="#6666FF" stroke-miterlimit="10"/>
<path d="M370.301 304.139C369.832 303.669 347.936 289.242 338.67 283.103C337.418 282.086 336.05 281.187 334.603 280.444H334.564C332.57 279.388 330.419 278.645 328.152 278.176C313.958 275.322 299.882 285.723 296.754 301.402C293.626 317.081 302.189 335.575 316.383 338.429C325.767 340.306 335.268 334.871 341.524 326.504L354.349 343.395L370.301 304.139Z" fill="#FFC9A9"/>
<path d="M343.244 328.693L354.349 343.317L370.301 304.139C370.028 303.865 361.817 298.43 353.371 292.839L343.244 328.693Z" fill="#FFB18A"/>
<path d="M405.765 329.397C400.252 388.829 348.405 358.097 343.283 339.954C343.283 339.954 352.902 331.391 360.096 290.923C360.096 290.923 377.261 299.173 393.722 320.756L405.765 329.397Z" fill="#6666FF"/>
<path d="M388.522 318.488L390.125 316.299C374.837 298 360.057 290.884 360.057 290.884C359.549 293.66 359.784 292.643 359.275 295.146C364.202 298.039 376.87 305.077 388.522 318.488Z" fill="#A1A1FF"/>
<path d="M338.708 200.797C333.469 196.887 324.359 190.084 313.763 198.412C321.348 196.575 327.682 201.345 331.71 204.355C349.109 217.337 404.279 273.523 398.766 332.955C398.453 336.162 398.023 339.133 397.476 341.831C397.398 342.418 397.358 342.809 397.398 342.926L397.202 343.043C394.934 353.092 390.946 359.582 386.019 363.375C394.035 361.068 400.917 354.03 404.201 339.524L404.396 339.407C404.396 339.29 404.396 338.899 404.475 338.312C405.022 335.614 405.452 332.643 405.765 329.436C411.278 269.965 356.108 213.779 338.708 200.797Z" fill="#A1A1FF"/>
</svg>
