<svg width="409" height="480" viewBox="0 0 409 480" fill="none" xmlns="http://www.w3.org/2000/svg">
<circle cx="295.497" cy="113.502" r="113.502" fill="#E0E6F5"/>
<circle cx="85.1267" cy="394.323" r="85.1267" fill="#E0E6F5"/>
<circle cx="60.6664" cy="134.05" r="32.2894" fill="#E0E6F5"/>
<path d="M298.785 150.4C298.996 148.94 299.188 147.39 300.095 146.228C301.001 145.069 302.907 144.561 303.93 145.619C306.435 148.144 305.371 148.4 308.795 147.775C313.842 146.851 317.959 140.997 322.055 145.547C326.039 149.97 322.814 151.837 318.692 153.769C315.45 155.294 311.832 156.632 309.366 159.371C307.741 161.173 302.964 168.943 302.964 171.054C302.742 171.438 302.504 171.842 302.117 172.055C301.421 172.434 300.566 172.053 299.899 171.623C291.389 166.142 297.629 158.456 298.785 150.4Z" fill="#E5AF90"/>
<path d="M132.899 243.247C125.199 256.578 116.001 269.718 113.835 284.945C113.032 290.586 113.472 296.942 117.44 301.047C121.386 305.126 127.597 305.816 133.27 306.26C141.874 281.854 150.479 257.447 159.083 233.039C163.346 220.947 167.608 208.856 171.871 196.762C175.082 187.654 183.674 172.784 182.926 163.405C171.521 163.263 161.107 188.786 156.734 197.041C148.618 212.356 141.576 228.226 132.899 243.247Z" fill="#6666FF"/>
<path d="M275.783 355.99C274.336 343.431 268.069 333.461 256.489 328.001C247.098 323.574 236.541 322.533 226.251 321.206C203.334 318.252 181.456 315.3 158.315 316.214C139.81 316.944 128.405 332.8 119.744 348.439C114.286 358.295 115.803 362.918 122.674 371.173C129.008 378.783 136.698 385.258 145.287 390.161C162.294 399.867 188.419 397.469 207.148 395.37C224.827 393.391 242.13 388.089 257.896 379.818C268.043 374.496 277.19 368.219 275.783 355.99Z" fill="#2C2872"/>
<path d="M160.995 394.247C157.895 401.441 155.186 408.797 152.881 416.277C151.66 420.234 150.542 424.305 150.697 428.441C151.06 438.122 161.938 445.137 169.051 436.185C172.165 432.264 174.663 427.862 176.43 423.19C179.037 416.3 173.529 420.314 168.877 418.198C163.523 415.762 163.651 413.868 165.925 408.896C168.857 402.491 172.323 398.318 171.908 390.95C171.792 388.917 171.212 386.555 169.318 385.759C167.881 385.155 166.159 385.744 165.019 386.797C163.878 387.853 163.198 389.295 162.559 390.706C162.028 391.882 161.507 393.063 160.995 394.247Z" fill="#292949"/>
<path d="M213.086 156.032C221.823 154.872 230.695 153.293 238.018 156.471C244.217 159.163 244.11 166.961 245.497 172.857C250.084 192.362 253.531 212.103 256.23 231.95C257.52 241.438 259.749 251.599 259.694 261.184C259.651 268.872 257.717 276.348 258.311 284.185C258.768 290.208 261.338 296.707 266.872 299.169C269.657 300.408 272.858 300.467 275.65 301.692C278.442 302.918 280.832 306.192 279.426 308.889C278.758 310.171 277.423 310.945 276.155 311.648C269.251 315.483 262.347 319.318 255.443 323.153C250.17 326.081 244.867 329.024 239.184 331.057C231.135 333.936 222.527 334.918 213.983 335.35C191.916 336.467 169.673 334.036 148.374 328.182C136.908 325.03 125.829 319.438 128.613 306.515C131.476 293.216 137.014 279.944 142.982 267.765C150.21 253.022 152.354 235.255 157.474 219.698C162.226 205.259 167.034 190.793 172.296 176.53C174.88 169.526 179.452 162.96 186.207 159.422C194.56 155.045 204.03 157.233 213.086 156.032Z" fill="#6666FF"/>
<path d="M234.955 397.862C236.946 397.969 238.938 398.077 240.929 398.186C243.092 398.303 245.507 398.336 247.118 396.866C249.086 395.072 248.863 391.683 247.271 389.541C245.681 387.397 243.114 386.254 240.596 385.435C234.515 383.458 228.086 382.85 221.708 382.595C221.068 382.569 220.407 382.551 219.812 382.794C218.779 383.217 218.19 384.323 217.842 385.397C214.223 396.547 227.215 397.44 234.955 397.862Z" fill="#E5AF90"/>
<path d="M158.608 416.594C158.5 417.495 158.401 418.452 158.781 419.274C159.055 419.87 159.558 420.328 160.1 420.682C164.176 423.343 169.654 420.477 172.773 416.696C175.892 412.915 178.003 408.131 181.981 405.323C191.088 398.896 182.753 387.127 173.235 389.825C162.126 392.975 159.794 406.652 158.608 416.594Z" fill="#E5AF90"/>
<path d="M281.785 357.161C289.673 351.364 297.581 344.794 300.463 335.031C303.346 325.27 299.28 311.482 289.101 305.853C276.695 298.99 264.504 307.423 255.657 315.388C237.533 331.678 217.779 346.081 198.468 360.982C191.941 366.019 169.297 384.562 169.297 384.562C168.676 387.176 180.846 410.82 184.072 409.955C219.3 400.641 253.566 377.894 281.785 357.161Z" fill="#3B3387"/>
<path d="M103.78 368.582C96.0517 364.801 88.2805 360.247 85.2259 351.168C82.1697 342.089 85.6432 327.148 95.2138 318.828C106.884 308.685 118.809 314 127.521 319.714C145.368 331.395 164.715 340.75 183.655 350.723C190.056 354.093 212.297 366.863 212.297 366.863C212.972 369.333 202.039 396.31 198.925 396.279C164.918 396.079 131.424 382.106 103.78 368.582Z" fill="#3B3387"/>
<path d="M220.914 402.608C228.123 406.141 235.517 409.285 243.06 412.023C247.051 413.47 251.162 414.818 255.403 414.869C265.33 414.992 273.055 404.23 264.246 396.504C260.388 393.121 256.005 390.347 251.312 388.302C244.388 385.288 248.222 391.12 245.824 395.767C243.062 401.118 241.131 400.89 236.155 398.312C229.746 394.993 225.645 391.236 218.084 391.287C215.996 391.301 213.551 391.773 212.641 393.669C211.951 395.109 212.467 396.897 213.49 398.117C214.513 399.337 215.954 400.106 217.367 400.828C218.545 401.433 219.727 402.024 220.914 402.608Z" fill="#292949"/>
<path d="M200.023 167.421C200.326 167.787 200.678 168.123 201.087 168.422C202.803 169.675 204.954 170.122 207.03 170.54C209.729 171.082 212.552 171.619 215.194 170.844C223.78 168.322 219.889 153.482 218.959 147.321C224.53 145.249 230.952 142.091 231.802 135.515C232.07 133.445 231.711 131.312 231.351 129.226C229.864 120.605 228.378 111.984 226.893 103.363C226.379 100.382 225.834 97.3121 224.348 94.7305C221.741 90.1981 216.811 88.117 212.162 87.0902C200.291 84.4709 187.462 87.0113 178.464 95.4779C176.067 97.7321 173.914 100.459 172.906 103.812C171.348 108.984 172.701 114.768 174.054 120.158C175.305 125.131 176.556 130.105 177.805 135.08C179.245 140.8 181.287 147.316 186.2 149.576C188.809 150.777 191.856 150.527 194.231 152.263C199.209 155.903 196.748 163.45 200.023 167.421Z" fill="#E5AF90"/>
<path d="M215.594 95.6135C215.962 96.0349 216.287 96.4841 216.566 96.961C218.024 99.4687 218.007 102.637 219.445 105.157C221.725 109.149 227.176 110.717 228.808 115.023C230.143 118.545 228.373 122.515 228.901 126.249C229.476 130.327 232.789 133.624 233.184 137.687C233.53 141.217 232.331 146.518 230.843 149.706C231.306 148.719 237.084 147.857 238.384 146.636C240.376 144.766 240.458 143.828 240.657 141.293C240.855 138.775 239.867 136.534 240.427 133.882C241.116 130.629 243.316 127.893 243.604 124.514C243.996 119.903 240.794 115.776 240.069 111.206C238.973 104.288 243.544 96.6263 240.119 90.5392C238.11 86.9667 233.953 85.2706 231.203 82.2479C229.117 79.9518 227.923 76.9863 226.269 74.3537C224.614 71.7212 222.175 69.2465 219.106 68.9725C217.401 68.8199 215.708 69.3713 213.996 69.3973C211.036 69.4424 208.269 67.9319 205.333 67.5521C201.134 67.0076 194.999 72.4513 193.376 76.2926C191.766 80.1079 193.482 82.7196 196.4 85.2065C201.261 89.346 211.276 90.6606 215.594 95.6135Z" fill="#292949"/>
<path d="M154.996 87.0046C152.958 89.2159 150.261 91.0577 148.491 93.5197C145.039 98.3184 145.519 104.799 146.541 110.601C147.454 115.766 146.11 120.784 147.766 126.026C148.879 129.548 151.166 132.876 154.561 134.409C158.786 136.32 164.665 135.6 167.166 139.471C169.883 143.675 166.274 150.372 169.985 153.755C172.031 155.622 175.235 155.317 177.825 156.33C180.715 157.459 182.624 160.124 184.711 162.399C186.801 164.673 189.672 166.795 192.731 166.254C191.919 161.651 191.316 157.995 188.483 154.203C186.834 151.994 182.523 148.171 184.59 145.01C185.787 142.488 189.521 141 189.064 138.251C188.85 136.959 187.722 136.048 186.79 135.12C183.182 131.526 181.772 126.059 182.707 121.08C183.641 116.101 186.75 111.653 190.828 108.588C195.608 104.995 194.494 103.887 195.012 98.5675C195.486 93.6709 197.914 92.061 201.773 89.5423C205.237 87.2813 206.258 86.0975 206.937 82.3314C207.436 79.5738 208.065 76.2665 206.007 73.7099C204.37 71.6791 201.926 70.4816 199.564 69.3459C194.629 66.9749 189.131 64.5438 183.844 65.9939C180.908 66.8014 178.388 68.7429 175.44 69.5057C173.474 70.0126 171.406 69.9713 169.401 70.3029C165.984 70.8682 162.61 72.6017 160.269 75.148C157.909 77.7166 158.416 79.8092 157.46 82.9757C156.991 84.5271 156.087 85.8192 154.996 87.0046Z" fill="#292949"/>
<path d="M169.327 66.1158C169.201 62.8196 168.041 58.7272 164.804 58.263C163.03 58.0102 161.305 59.0333 159.512 59.0316C155.694 59.0247 153.55 54.7982 150.979 51.9507C150.594 51.5243 150.155 51.103 149.597 50.9758C148.798 50.7952 148.017 51.2595 147.242 51.5191C143.681 52.7107 140.182 49.6415 136.482 49.0225C131.902 48.2573 127.085 52.0298 126.685 56.6965C126.52 58.6137 127 60.5395 126.869 62.4602C126.341 70.2391 116.266 75.5523 117.524 83.2453C118.372 88.4433 124.367 92.3706 123.375 97.5428C122.743 100.851 119.262 103.726 120.361 106.907C121.069 108.955 123.578 109.935 125.677 109.478C127.777 109.019 129.48 107.459 130.786 105.74C132.862 103.009 134.189 99.7764 136.119 96.9392C138.048 94.1021 140.867 91.5453 144.268 91.2891C147.56 91.0397 150.973 92.9724 154.058 91.7825C156.527 90.8299 157.962 88.1458 160.342 86.9886C162.568 85.9054 165.194 86.3387 167.643 85.993C170.091 85.6474 172.808 83.7749 172.383 81.3177C172.281 80.7228 171.995 80.1434 172.066 79.5433C172.268 77.8633 174.954 77.4111 175.145 75.7294C173.49 74.022 171.85 75.0881 170.432 72.7083C169.334 70.8668 169.408 68.1861 169.327 66.1158Z" fill="#292949"/>
<path d="M68.4922 335.614L167.468 300.39L291.583 302.1L222.665 335.614H68.4922Z" fill="#E6E6E6"/>
<path d="M68.0576 326.863L60.6641 228.946L213.783 227.004L222.111 331.701L68.0576 326.863Z" fill="#BABCBE"/>
<path d="M289.224 301.61C267.062 311.569 244.9 321.526 222.737 331.486L222.512 331.616V326.77H68.4922V335.525H221.005C221.372 336.986 222.562 338.077 224.225 337.329C246.387 327.37 268.549 317.413 290.709 307.454C293.988 305.981 292.551 300.114 289.224 301.61Z" fill="#BABCBE"/>
<path d="M268.607 200.425C273.531 190.684 279.005 181.225 284.992 172.111C286.816 169.334 290.623 161.044 293.814 160.047C297.441 158.915 305.837 163.165 309.195 164.565C303.455 187.942 296.135 210.923 287.307 233.299C286.022 236.558 284.628 239.917 282.072 242.294C276.79 247.204 268.034 246.225 262.155 242.062C256.276 237.9 252.598 231.342 249.112 225.004C243.008 213.909 235.98 202.16 233.151 189.654C231.395 181.899 225.149 168.779 232.347 162.319C239.532 155.873 245.713 161.608 249.953 167.919C253.433 173.094 256.634 178.489 259.74 183.9C260.902 185.926 269.553 198.553 268.607 200.425Z" fill="#6666FF"/>
</svg>
