<svg width="69" height="19" viewBox="0 0 69 19" fill="none" xmlns="http://www.w3.org/2000/svg">
<path d="M0.968 3.792C0.792 3.792 0.648 3.736 0.536 3.624C0.424 3.496 0.368 3.344 0.368 3.168V0.935999C0.368 0.759999 0.424 0.615999 0.536 0.503999C0.664 0.375999 0.808 0.311999 0.968 0.311999H3.968C4.144 0.311999 4.288 0.375999 4.4 0.503999C4.528 0.615999 4.592 0.759999 4.592 0.935999V3.168C4.592 3.344 4.528 3.496 4.4 3.624C4.288 3.736 4.144 3.792 3.968 3.792H0.968ZM0.968 18C0.808 18 0.664 17.944 0.536 17.832C0.424 17.704 0.368 17.56 0.368 17.4V6.12C0.368 5.944 0.424 5.8 0.536 5.688C0.664 5.576 0.808 5.52 0.968 5.52H3.968C4.144 5.52 4.288 5.576 4.4 5.688C4.528 5.8 4.592 5.944 4.592 6.12V17.4C4.592 17.576 4.528 17.72 4.4 17.832C4.288 17.944 4.144 18 3.968 18H0.968ZM8.21694 18C8.04094 18 7.88894 17.944 7.76094 17.832C7.64894 17.72 7.59294 17.576 7.59294 17.4V1.824C7.59294 1.648 7.64894 1.504 7.76094 1.392C7.88894 1.264 8.04094 1.2 8.21694 1.2H10.9289C11.3289 1.2 11.6169 1.376 11.7929 1.728L15.9209 9.12L20.0729 1.728C20.2489 1.376 20.5369 1.2 20.9369 1.2H23.6489C23.8249 1.2 23.9689 1.264 24.0809 1.392C24.2089 1.504 24.2729 1.648 24.2729 1.824V17.4C24.2729 17.576 24.2089 17.72 24.0809 17.832C23.9689 17.944 23.8249 18 23.6489 18H20.6009C20.4409 18 20.2969 17.944 20.1689 17.832C20.0569 17.704 20.0009 17.56 20.0009 17.4V8.664L17.4089 13.416C17.2009 13.784 16.9209 13.968 16.5689 13.968H15.2729C14.9529 13.968 14.6729 13.784 14.4329 13.416L11.8649 8.664V17.4C11.8649 17.576 11.8009 17.72 11.6729 17.832C11.5609 17.944 11.4169 18 11.2409 18H8.21694ZM31.0423 18.24C30.1943 18.24 29.4183 18.08 28.7143 17.76C28.0263 17.424 27.4823 16.968 27.0823 16.392C26.6983 15.816 26.5063 15.184 26.5063 14.496C26.5063 13.408 26.9543 12.528 27.8503 11.856C28.7623 11.168 30.0103 10.696 31.5943 10.44L34.5703 9.984V9.696C34.5703 9.104 34.4503 8.672 34.2103 8.4C33.9703 8.128 33.5623 7.992 32.9863 7.992C32.6663 7.992 32.3943 8.048 32.1703 8.16C31.9623 8.272 31.7223 8.44 31.4503 8.664C31.2423 8.84 31.0583 8.968 30.8983 9.048C30.8343 9.16 30.7543 9.216 30.6583 9.216H27.8743C27.7143 9.216 27.5783 9.168 27.4663 9.072C27.3703 8.96 27.3303 8.832 27.3463 8.688C27.3623 8.256 27.5783 7.776 27.9943 7.248C28.4103 6.704 29.0423 6.24 29.8903 5.856C30.7383 5.472 31.7863 5.28 33.0343 5.28C35.0183 5.28 36.4903 5.72 37.4503 6.6C38.4103 7.464 38.8903 8.64 38.8903 10.128V17.4C38.8903 17.56 38.8343 17.704 38.7223 17.832C38.6103 17.944 38.4663 18 38.2903 18H35.3383C35.1783 18 35.0343 17.944 34.9063 17.832C34.7943 17.704 34.7383 17.56 34.7383 17.4V16.56C34.3863 17.056 33.8983 17.464 33.2743 17.784C32.6503 18.088 31.9063 18.24 31.0423 18.24ZM32.2422 15.408C32.9463 15.408 33.5143 15.176 33.9463 14.712C34.3943 14.248 34.6183 13.576 34.6183 12.696V12.408L32.6263 12.744C31.2823 13 30.6103 13.48 30.6103 14.184C30.6103 14.552 30.7623 14.848 31.0663 15.072C31.3863 15.296 31.7783 15.408 32.2422 15.408ZM49.3008 18.24C47.6848 18.24 46.4448 17.712 45.5808 16.656V17.4C45.5808 17.56 45.5248 17.704 45.4128 17.832C45.3008 17.944 45.1568 18 44.9808 18H42.1248C41.9488 18 41.7968 17.944 41.6688 17.832C41.5568 17.72 41.5008 17.576 41.5008 17.4V1.56C41.5008 1.384 41.5568 1.24 41.6688 1.128C41.7968 1.016 41.9488 0.959999 42.1248 0.959999H45.2208C45.3968 0.959999 45.5408 1.016 45.6528 1.128C45.7648 1.24 45.8208 1.384 45.8208 1.56V6.672C46.7008 5.744 47.8608 5.28 49.3008 5.28C50.8368 5.28 52.0528 5.784 52.9488 6.792C53.8448 7.784 54.3248 9.152 54.3888 10.896C54.4048 11.104 54.4128 11.392 54.4128 11.76C54.4128 12.112 54.4048 12.392 54.3888 12.6C54.3248 14.408 53.8448 15.8 52.9488 16.776C52.0688 17.752 50.8528 18.24 49.3008 18.24ZM47.9088 14.904C48.6288 14.904 49.1408 14.696 49.4448 14.28C49.7648 13.848 49.9488 13.256 49.9968 12.504C50.0128 12.344 50.0208 12.096 50.0208 11.76C50.0208 11.424 50.0128 11.176 49.9968 11.016C49.9488 10.264 49.7648 9.68 49.4448 9.264C49.1408 8.832 48.6288 8.616 47.9088 8.616C47.2368 8.616 46.7248 8.824 46.3728 9.24C46.0368 9.64 45.8528 10.152 45.8208 10.776C45.8048 10.984 45.7968 11.28 45.7968 11.664C45.7968 12.048 45.8048 12.352 45.8208 12.576C45.8528 13.248 46.0368 13.808 46.3728 14.256C46.7088 14.688 47.2208 14.904 47.9088 14.904ZM60.4798 18.24C59.6318 18.24 58.8558 18.08 58.1518 17.76C57.4638 17.424 56.9198 16.968 56.5198 16.392C56.1358 15.816 55.9438 15.184 55.9438 14.496C55.9438 13.408 56.3918 12.528 57.2878 11.856C58.1998 11.168 59.4478 10.696 61.0318 10.44L64.0078 9.984V9.696C64.0078 9.104 63.8878 8.672 63.6478 8.4C63.4078 8.128 62.9998 7.992 62.4238 7.992C62.1038 7.992 61.8318 8.048 61.6078 8.16C61.3998 8.272 61.1598 8.44 60.8878 8.664C60.6798 8.84 60.4958 8.968 60.3358 9.048C60.2718 9.16 60.1918 9.216 60.0958 9.216H57.3118C57.1518 9.216 57.0158 9.168 56.9038 9.072C56.8078 8.96 56.7678 8.832 56.7838 8.688C56.7998 8.256 57.0158 7.776 57.4318 7.248C57.8478 6.704 58.4798 6.24 59.3278 5.856C60.1758 5.472 61.2238 5.28 62.4718 5.28C64.4558 5.28 65.9278 5.72 66.8878 6.6C67.8478 7.464 68.3278 8.64 68.3278 10.128V17.4C68.3278 17.56 68.2718 17.704 68.1598 17.832C68.0478 17.944 67.9038 18 67.7278 18H64.7758C64.6158 18 64.4718 17.944 64.3438 17.832C64.2318 17.704 64.1758 17.56 64.1758 17.4V16.56C63.8238 17.056 63.3358 17.464 62.7118 17.784C62.0878 18.088 61.3438 18.24 60.4798 18.24ZM61.6797 15.408C62.3838 15.408 62.9518 15.176 63.3838 14.712C63.8318 14.248 64.0558 13.576 64.0558 12.696V12.408L62.0638 12.744C60.7198 13 60.0478 13.48 60.0478 14.184C60.0478 14.552 60.1998 14.848 60.5038 15.072C60.8238 15.296 61.2158 15.408 61.6797 15.408Z" fill="#181818"/>
</svg>
